<?xml version="1.0" encoding="UTF-8" standalone="no"?>
<!DOCTYPE svg PUBLIC "-//W3C//DTD SVG 1.1//EN"
 "http://www.w3.org/Graphics/SVG/1.1/DTD/svg11.dtd">
<!-- Generated by graphviz version 2.38.0 (20140413.2041)
 -->
<!-- Title: %3 Pages: 1 -->
<svg width="198pt" height="897pt"
 viewBox="0.00 0.00 198.00 897.00" xmlns="http://www.w3.org/2000/svg" xmlns:xlink="http://www.w3.org/1999/xlink">
<g id="graph0" class="graph" transform="scale(1 1) rotate(0) translate(4 893)">
<title>%3</title>
<polygon fill="white" stroke="none" points="-4,4 -4,-893 194,-893 194,4 -4,4"/>
<!-- 1081 -->
<g id="node1" class="node"><title>1081</title>
<polygon fill="none" stroke="black" points="172,-889 0,-889 0,-716 172,-716 172,-889"/>
<text text-anchor="middle" x="86" y="-873.8" font-family="Times,serif" font-size="14.00">0x4000cec6e0</text>
<text text-anchor="middle" x="86" y="-858.8" font-family="Times,serif" font-size="14.00">_______________________</text>
<text text-anchor="middle" x="86" y="-843.8" font-family="Times,serif" font-size="14.00">_______________________</text>
<text text-anchor="middle" x="86" y="-828.8" font-family="Times,serif" font-size="14.00">leaq 0xbdb21(%rip), %rax</text>
<text text-anchor="middle" x="86" y="-813.8" font-family="Times,serif" font-size="14.00">subq $0x28, %rsp</text>
<text text-anchor="middle" x="86" y="-798.8" font-family="Times,serif" font-size="14.00">leaq 0xbdb1b(%rip), %rcx</text>
<text text-anchor="middle" x="86" y="-783.8" font-family="Times,serif" font-size="14.00">movl $1, 0xc(%rsp)</text>
<text text-anchor="middle" x="86" y="-768.8" font-family="Times,serif" font-size="14.00">movl $0x3ae75f6, 8(%rsp)</text>
<text text-anchor="middle" x="86" y="-753.8" font-family="Times,serif" font-size="14.00">movl $0x5f, %edx</text>
<text text-anchor="middle" x="86" y="-738.8" font-family="Times,serif" font-size="14.00">movq %rax, (%rsp)</text>
<text text-anchor="middle" x="86" y="-723.8" font-family="Times,serif" font-size="14.00">movl $0x50e3a8, %eax</text>
</g>
<!-- 1082 -->
<g id="node2" class="node"><title>1082</title>
<polygon fill="none" stroke="black" points="172,-680 0,-680 0,-477 172,-477 172,-680"/>
<text text-anchor="middle" x="86" y="-664.8" font-family="Times,serif" font-size="14.00">0x4000cec710</text>
<text text-anchor="middle" x="86" y="-649.8" font-family="Times,serif" font-size="14.00">_______________________</text>
<text text-anchor="middle" x="86" y="-634.8" font-family="Times,serif" font-size="14.00">_______________________</text>
<text text-anchor="middle" x="86" y="-619.8" font-family="Times,serif" font-size="14.00">shlq $4, %rax</text>
<text text-anchor="middle" x="86" y="-604.8" font-family="Times,serif" font-size="14.00">addq $1, %rcx</text>
<text text-anchor="middle" x="86" y="-589.8" font-family="Times,serif" font-size="14.00">addq %rdx, %rax</text>
<text text-anchor="middle" x="86" y="-574.8" font-family="Times,serif" font-size="14.00">movq %rax, %rdx</text>
<text text-anchor="middle" x="86" y="-559.8" font-family="Times,serif" font-size="14.00">shrq $0x18, %rdx</text>
<text text-anchor="middle" x="86" y="-544.8" font-family="Times,serif" font-size="14.00">andl $0xf0, %edx</text>
<text text-anchor="middle" x="86" y="-529.8" font-family="Times,serif" font-size="14.00">xorq %rdx, %rax</text>
<text text-anchor="middle" x="86" y="-514.8" font-family="Times,serif" font-size="14.00">movzbl (%rcx), %edx</text>
<text text-anchor="middle" x="86" y="-499.8" font-family="Times,serif" font-size="14.00">testb %dl, %dl</text>
<text text-anchor="middle" x="86" y="-484.8" font-family="Times,serif" font-size="14.00">jne 0x4000cec710</text>
</g>
<!-- 1081&#45;&gt;1082 -->
<g id="edge1" class="edge"><title>1081&#45;&gt;1082</title>
<path fill="none" stroke="black" d="M86,-715.987C86,-707.559 86,-698.923 86,-690.29"/>
<polygon fill="black" stroke="black" points="89.5001,-690.168 86,-680.168 82.5001,-690.168 89.5001,-690.168"/>
</g>
<!-- 1082&#45;&gt;1082 -->
<g id="edge2" class="edge"><title>1082&#45;&gt;1082</title>
<path fill="none" stroke="black" d="M172.077,-608.871C182.886,-603.518 190,-593.395 190,-578.5 190,-568.027 186.483,-559.913 180.638,-554.158"/>
<polygon fill="black" stroke="black" points="182.268,-551.025 172.077,-548.129 178.238,-556.749 182.268,-551.025"/>
</g>
<!-- 1083 -->
<g id="node3" class="node"><title>1083</title>
<polygon fill="none" stroke="black" points="172,-441 0,-441 0,-343 172,-343 172,-441"/>
<text text-anchor="middle" x="86" y="-425.8" font-family="Times,serif" font-size="14.00">0x4000cec732</text>
<text text-anchor="middle" x="86" y="-410.8" font-family="Times,serif" font-size="14.00">_______________________</text>
<text text-anchor="middle" x="86" y="-395.8" font-family="Times,serif" font-size="14.00">_______________________</text>
<text text-anchor="middle" x="86" y="-380.8" font-family="Times,serif" font-size="14.00">andl $0xfffffff, %eax</text>
<text text-anchor="middle" x="86" y="-365.8" font-family="Times,serif" font-size="14.00">cmpq $0x3ae75f6, %rax</text>
<text text-anchor="middle" x="86" y="-350.8" font-family="Times,serif" font-size="14.00">jne 0x4000cec76a</text>
</g>
<!-- 1082&#45;&gt;1083 -->
<g id="edge3" class="edge"><title>1082&#45;&gt;1083</title>
<path fill="none" stroke="black" d="M86,-476.882C86,-468.226 86,-459.669 86,-451.519"/>
<polygon fill="black" stroke="black" points="89.5001,-451.437 86,-441.437 82.5001,-451.437 89.5001,-451.437"/>
</g>
<!-- 1084 -->
<g id="node4" class="node"><title>1084</title>
<polygon fill="none" stroke="black" points="172,-307 0,-307 0,-164 172,-164 172,-307"/>
<text text-anchor="middle" x="86" y="-291.8" font-family="Times,serif" font-size="14.00">0x4000cec73f</text>
<text text-anchor="middle" x="86" y="-276.8" font-family="Times,serif" font-size="14.00">_______________________</text>
<text text-anchor="middle" x="86" y="-261.8" font-family="Times,serif" font-size="14.00">_______________________</text>
<text text-anchor="middle" x="86" y="-246.8" font-family="Times,serif" font-size="14.00">leaq 0xbf593(%rip), %rdi</text>
<text text-anchor="middle" x="86" y="-231.8" font-family="Times,serif" font-size="14.00">movq %rsp, %rsi</text>
<text text-anchor="middle" x="86" y="-216.8" font-family="Times,serif" font-size="14.00">movq $0, 0x10(%rsp)</text>
<text text-anchor="middle" x="86" y="-201.8" font-family="Times,serif" font-size="14.00">callq 0x4000d68670</text>
<text text-anchor="middle" x="86" y="-186.8" font-family="Times,serif" font-size="14.00">_______________________</text>
<text text-anchor="middle" x="86" y="-171.8" font-family="Times,serif" font-size="14.00">CALL 0x4000d68670</text>
</g>
<!-- 1083&#45;&gt;1084 -->
<g id="edge4" class="edge"><title>1083&#45;&gt;1084</title>
<path fill="none" stroke="black" d="M86,-342.962C86,-334.813 86,-326.154 86,-317.434"/>
<polygon fill="black" stroke="black" points="89.5001,-317.194 86,-307.194 82.5001,-317.194 89.5001,-317.194"/>
</g>
<!-- 1089 -->
<g id="node5" class="node"><title>1089</title>
<polygon fill="none" stroke="black" points="172,-128 0,-128 0,-0 172,-0 172,-128"/>
<text text-anchor="middle" x="86" y="-112.8" font-family="Times,serif" font-size="14.00">0x4000cec757</text>
<text text-anchor="middle" x="86" y="-97.8" font-family="Times,serif" font-size="14.00">_______________________</text>
<text text-anchor="middle" x="86" y="-82.8" font-family="Times,serif" font-size="14.00">_______________________</text>
<text text-anchor="middle" x="86" y="-67.8" font-family="Times,serif" font-size="14.00">leaq &#45;0x8e(%rip), %rdx</text>
<text text-anchor="middle" x="86" y="-52.8" font-family="Times,serif" font-size="14.00">testq %rax, %rax</text>
<text text-anchor="middle" x="86" y="-37.8" font-family="Times,serif" font-size="14.00">cmoveq %rdx, %rax</text>
<text text-anchor="middle" x="86" y="-22.8" font-family="Times,serif" font-size="14.00">addq $0x28, %rsp</text>
<text text-anchor="middle" x="86" y="-7.8" font-family="Times,serif" font-size="14.00">retq </text>
</g>
<!-- 1084&#45;&gt;1089 -->
<g id="edge5" class="edge"><title>1084&#45;&gt;1089</title>
<path fill="none" stroke="black" d="M86,-163.599C86,-155.215 86,-146.644 86,-138.229"/>
<polygon fill="black" stroke="black" points="89.5001,-138.063 86,-128.063 82.5001,-138.063 89.5001,-138.063"/>
</g>
</g>
</svg>
