<?xml version="1.0" encoding="UTF-8" standalone="no"?>
<!DOCTYPE svg PUBLIC "-//W3C//DTD SVG 1.1//EN"
 "http://www.w3.org/Graphics/SVG/1.1/DTD/svg11.dtd">
<!-- Generated by graphviz version 2.38.0 (20140413.2041)
 -->
<!-- Title: %3 Pages: 1 -->
<svg width="185pt" height="1402pt"
 viewBox="0.00 0.00 185.00 1402.00" xmlns="http://www.w3.org/2000/svg" xmlns:xlink="http://www.w3.org/1999/xlink">
<g id="graph0" class="graph" transform="scale(1 1) rotate(0) translate(4 1398)">
<title>%3</title>
<polygon fill="white" stroke="none" points="-4,4 -4,-1398 181,-1398 181,4 -4,4"/>
<!-- 1452 -->
<g id="node1" class="node"><title>1452</title>
<polygon fill="none" stroke="black" points="177,-1394 0,-1394 0,-1221 177,-1221 177,-1394"/>
<text text-anchor="middle" x="88.5" y="-1378.8" font-family="Times,serif" font-size="14.00">0x4000d26520</text>
<text text-anchor="middle" x="88.5" y="-1363.8" font-family="Times,serif" font-size="14.00">_______________________</text>
<text text-anchor="middle" x="88.5" y="-1348.8" font-family="Times,serif" font-size="14.00">_______________________</text>
<text text-anchor="middle" x="88.5" y="-1333.8" font-family="Times,serif" font-size="14.00">pushq %r12</text>
<text text-anchor="middle" x="88.5" y="-1318.8" font-family="Times,serif" font-size="14.00">movq 0x2b899f(%rip), %r12</text>
<text text-anchor="middle" x="88.5" y="-1303.8" font-family="Times,serif" font-size="14.00">pushq %rbp</text>
<text text-anchor="middle" x="88.5" y="-1288.8" font-family="Times,serif" font-size="14.00">pushq %rbx</text>
<text text-anchor="middle" x="88.5" y="-1273.8" font-family="Times,serif" font-size="14.00">movq %rdi, %rbp</text>
<text text-anchor="middle" x="88.5" y="-1258.8" font-family="Times,serif" font-size="14.00">movq (%r12), %rbx</text>
<text text-anchor="middle" x="88.5" y="-1243.8" font-family="Times,serif" font-size="14.00">testq %rbx, %rbx</text>
<text text-anchor="middle" x="88.5" y="-1228.8" font-family="Times,serif" font-size="14.00">je 0x4000d26578</text>
</g>
<!-- 1453 -->
<g id="node2" class="node"><title>1453</title>
<polygon fill="none" stroke="black" points="174.5,-1185 2.5,-1185 2.5,-1072 174.5,-1072 174.5,-1185"/>
<text text-anchor="middle" x="88.5" y="-1169.8" font-family="Times,serif" font-size="14.00">0x4000d26578</text>
<text text-anchor="middle" x="88.5" y="-1154.8" font-family="Times,serif" font-size="14.00">_______________________</text>
<text text-anchor="middle" x="88.5" y="-1139.8" font-family="Times,serif" font-size="14.00">_______________________</text>
<text text-anchor="middle" x="88.5" y="-1124.8" font-family="Times,serif" font-size="14.00">xorl %edi, %edi</text>
<text text-anchor="middle" x="88.5" y="-1109.8" font-family="Times,serif" font-size="14.00">callq 0x4000d264b0</text>
<text text-anchor="middle" x="88.5" y="-1094.8" font-family="Times,serif" font-size="14.00">_______________________</text>
<text text-anchor="middle" x="88.5" y="-1079.8" font-family="Times,serif" font-size="14.00">CALL brk</text>
</g>
<!-- 1452&#45;&gt;1453 -->
<g id="edge1" class="edge"><title>1452&#45;&gt;1453</title>
<path fill="none" stroke="black" d="M88.5,-1220.85C88.5,-1212.19 88.5,-1203.5 88.5,-1195.1"/>
<polygon fill="black" stroke="black" points="92.0001,-1195.03 88.5,-1185.03 85.0001,-1195.03 92.0001,-1195.03"/>
</g>
<!-- 1458 -->
<g id="node3" class="node"><title>1458</title>
<polygon fill="none" stroke="black" points="174.5,-1036 2.5,-1036 2.5,-953 174.5,-953 174.5,-1036"/>
<text text-anchor="middle" x="88.5" y="-1020.8" font-family="Times,serif" font-size="14.00">0x4000d2657f</text>
<text text-anchor="middle" x="88.5" y="-1005.8" font-family="Times,serif" font-size="14.00">_______________________</text>
<text text-anchor="middle" x="88.5" y="-990.8" font-family="Times,serif" font-size="14.00">_______________________</text>
<text text-anchor="middle" x="88.5" y="-975.8" font-family="Times,serif" font-size="14.00">testl %eax, %eax</text>
<text text-anchor="middle" x="88.5" y="-960.8" font-family="Times,serif" font-size="14.00">js 0x4000d26564</text>
</g>
<!-- 1453&#45;&gt;1458 -->
<g id="edge2" class="edge"><title>1453&#45;&gt;1458</title>
<path fill="none" stroke="black" d="M88.5,-1071.9C88.5,-1063.39 88.5,-1054.63 88.5,-1046.23"/>
<polygon fill="black" stroke="black" points="92.0001,-1046.19 88.5,-1036.19 85.0001,-1046.19 92.0001,-1046.19"/>
</g>
<!-- 1459 -->
<g id="node4" class="node"><title>1459</title>
<polygon fill="none" stroke="black" points="174.5,-917 2.5,-917 2.5,-834 174.5,-834 174.5,-917"/>
<text text-anchor="middle" x="88.5" y="-901.8" font-family="Times,serif" font-size="14.00">0x4000d26583</text>
<text text-anchor="middle" x="88.5" y="-886.8" font-family="Times,serif" font-size="14.00">_______________________</text>
<text text-anchor="middle" x="88.5" y="-871.8" font-family="Times,serif" font-size="14.00">_______________________</text>
<text text-anchor="middle" x="88.5" y="-856.8" font-family="Times,serif" font-size="14.00">movq (%r12), %rbx</text>
<text text-anchor="middle" x="88.5" y="-841.8" font-family="Times,serif" font-size="14.00">jmp 0x4000d26541</text>
</g>
<!-- 1458&#45;&gt;1459 -->
<g id="edge3" class="edge"><title>1458&#45;&gt;1459</title>
<path fill="none" stroke="black" d="M88.5,-952.907C88.5,-944.649 88.5,-935.864 88.5,-927.302"/>
<polygon fill="black" stroke="black" points="92.0001,-927.021 88.5,-917.021 85.0001,-927.021 92.0001,-927.021"/>
</g>
<!-- 1460 -->
<g id="node5" class="node"><title>1460</title>
<polygon fill="none" stroke="black" points="174.5,-798 2.5,-798 2.5,-715 174.5,-715 174.5,-798"/>
<text text-anchor="middle" x="88.5" y="-782.8" font-family="Times,serif" font-size="14.00">0x4000d26541</text>
<text text-anchor="middle" x="88.5" y="-767.8" font-family="Times,serif" font-size="14.00">_______________________</text>
<text text-anchor="middle" x="88.5" y="-752.8" font-family="Times,serif" font-size="14.00">_______________________</text>
<text text-anchor="middle" x="88.5" y="-737.8" font-family="Times,serif" font-size="14.00">cmpq $0, %rbp</text>
<text text-anchor="middle" x="88.5" y="-722.8" font-family="Times,serif" font-size="14.00">je 0x4000d2656b</text>
</g>
<!-- 1459&#45;&gt;1460 -->
<g id="edge4" class="edge"><title>1459&#45;&gt;1460</title>
<path fill="none" stroke="black" d="M88.5,-833.907C88.5,-825.649 88.5,-816.864 88.5,-808.302"/>
<polygon fill="black" stroke="black" points="92.0001,-808.021 88.5,-798.021 85.0001,-808.021 92.0001,-808.021"/>
</g>
<!-- 1461 -->
<g id="node6" class="node"><title>1461</title>
<polygon fill="none" stroke="black" points="174.5,-679 2.5,-679 2.5,-611 174.5,-611 174.5,-679"/>
<text text-anchor="middle" x="88.5" y="-663.8" font-family="Times,serif" font-size="14.00">0x4000d26547</text>
<text text-anchor="middle" x="88.5" y="-648.8" font-family="Times,serif" font-size="14.00">_______________________</text>
<text text-anchor="middle" x="88.5" y="-633.8" font-family="Times,serif" font-size="14.00">_______________________</text>
<text text-anchor="middle" x="88.5" y="-618.8" font-family="Times,serif" font-size="14.00">jle 0x4000d265a8</text>
</g>
<!-- 1460&#45;&gt;1461 -->
<g id="edge5" class="edge"><title>1460&#45;&gt;1461</title>
<path fill="none" stroke="black" d="M88.5,-714.726C88.5,-706.518 88.5,-697.86 88.5,-689.56"/>
<polygon fill="black" stroke="black" points="92.0001,-689.3 88.5,-679.3 85.0001,-689.3 92.0001,-689.3"/>
</g>
<!-- 1462 -->
<g id="node7" class="node"><title>1462</title>
<polygon fill="none" stroke="black" points="174.5,-575 2.5,-575 2.5,-447 174.5,-447 174.5,-575"/>
<text text-anchor="middle" x="88.5" y="-559.8" font-family="Times,serif" font-size="14.00">0x4000d26549</text>
<text text-anchor="middle" x="88.5" y="-544.8" font-family="Times,serif" font-size="14.00">_______________________</text>
<text text-anchor="middle" x="88.5" y="-529.8" font-family="Times,serif" font-size="14.00">_______________________</text>
<text text-anchor="middle" x="88.5" y="-514.8" font-family="Times,serif" font-size="14.00">movq %rbx, %rax</text>
<text text-anchor="middle" x="88.5" y="-499.8" font-family="Times,serif" font-size="14.00">addq %rbp, %rax</text>
<text text-anchor="middle" x="88.5" y="-484.8" font-family="Times,serif" font-size="14.00">setb %al</text>
<text text-anchor="middle" x="88.5" y="-469.8" font-family="Times,serif" font-size="14.00">testb %al, %al</text>
<text text-anchor="middle" x="88.5" y="-454.8" font-family="Times,serif" font-size="14.00">je 0x4000d26590</text>
</g>
<!-- 1461&#45;&gt;1462 -->
<g id="edge6" class="edge"><title>1461&#45;&gt;1462</title>
<path fill="none" stroke="black" d="M88.5,-610.691C88.5,-602.811 88.5,-594.1 88.5,-585.212"/>
<polygon fill="black" stroke="black" points="92.0001,-585.137 88.5,-575.137 85.0001,-585.137 92.0001,-585.137"/>
</g>
<!-- 1463 -->
<g id="node8" class="node"><title>1463</title>
<polygon fill="none" stroke="black" points="174.5,-411 2.5,-411 2.5,-298 174.5,-298 174.5,-411"/>
<text text-anchor="middle" x="88.5" y="-395.8" font-family="Times,serif" font-size="14.00">0x4000d26590</text>
<text text-anchor="middle" x="88.5" y="-380.8" font-family="Times,serif" font-size="14.00">_______________________</text>
<text text-anchor="middle" x="88.5" y="-365.8" font-family="Times,serif" font-size="14.00">_______________________</text>
<text text-anchor="middle" x="88.5" y="-350.8" font-family="Times,serif" font-size="14.00">leaq (%rbx, %rbp), %rdi</text>
<text text-anchor="middle" x="88.5" y="-335.8" font-family="Times,serif" font-size="14.00">callq 0x4000d264b0</text>
<text text-anchor="middle" x="88.5" y="-320.8" font-family="Times,serif" font-size="14.00">_______________________</text>
<text text-anchor="middle" x="88.5" y="-305.8" font-family="Times,serif" font-size="14.00">CALL brk</text>
</g>
<!-- 1462&#45;&gt;1463 -->
<g id="edge7" class="edge"><title>1462&#45;&gt;1463</title>
<path fill="none" stroke="black" d="M88.5,-446.713C88.5,-438.3 88.5,-429.659 88.5,-421.206"/>
<polygon fill="black" stroke="black" points="92.0001,-421.017 88.5,-411.017 85.0001,-421.017 92.0001,-421.017"/>
</g>
<!-- 1465 -->
<g id="node9" class="node"><title>1465</title>
<polygon fill="none" stroke="black" points="174.5,-262 2.5,-262 2.5,-179 174.5,-179 174.5,-262"/>
<text text-anchor="middle" x="88.5" y="-246.8" font-family="Times,serif" font-size="14.00">0x4000d26599</text>
<text text-anchor="middle" x="88.5" y="-231.8" font-family="Times,serif" font-size="14.00">_______________________</text>
<text text-anchor="middle" x="88.5" y="-216.8" font-family="Times,serif" font-size="14.00">_______________________</text>
<text text-anchor="middle" x="88.5" y="-201.8" font-family="Times,serif" font-size="14.00">testl %eax, %eax</text>
<text text-anchor="middle" x="88.5" y="-186.8" font-family="Times,serif" font-size="14.00">js 0x4000d26564</text>
</g>
<!-- 1463&#45;&gt;1465 -->
<g id="edge8" class="edge"><title>1463&#45;&gt;1465</title>
<path fill="none" stroke="black" d="M88.5,-297.903C88.5,-289.387 88.5,-280.635 88.5,-272.231"/>
<polygon fill="black" stroke="black" points="92.0001,-272.194 88.5,-262.194 85.0001,-272.194 92.0001,-272.194"/>
</g>
<!-- 1466 -->
<g id="node10" class="node"><title>1466</title>
<polygon fill="none" stroke="black" points="174.5,-143 2.5,-143 2.5,-0 174.5,-0 174.5,-143"/>
<text text-anchor="middle" x="88.5" y="-127.8" font-family="Times,serif" font-size="14.00">0x4000d26564</text>
<text text-anchor="middle" x="88.5" y="-112.8" font-family="Times,serif" font-size="14.00">_______________________</text>
<text text-anchor="middle" x="88.5" y="-97.8" font-family="Times,serif" font-size="14.00">_______________________</text>
<text text-anchor="middle" x="88.5" y="-82.8" font-family="Times,serif" font-size="14.00">movq $&#45;1, %rbx</text>
<text text-anchor="middle" x="88.5" y="-67.8" font-family="Times,serif" font-size="14.00">movq %rbx, %rax</text>
<text text-anchor="middle" x="88.5" y="-52.8" font-family="Times,serif" font-size="14.00">popq %rbx</text>
<text text-anchor="middle" x="88.5" y="-37.8" font-family="Times,serif" font-size="14.00">popq %rbp</text>
<text text-anchor="middle" x="88.5" y="-22.8" font-family="Times,serif" font-size="14.00">popq %r12</text>
<text text-anchor="middle" x="88.5" y="-7.8" font-family="Times,serif" font-size="14.00">retq </text>
</g>
<!-- 1465&#45;&gt;1466 -->
<g id="edge9" class="edge"><title>1465&#45;&gt;1466</title>
<path fill="none" stroke="black" d="M88.5,-178.942C88.5,-170.854 88.5,-162.094 88.5,-153.192"/>
<polygon fill="black" stroke="black" points="92.0001,-153.11 88.5,-143.11 85.0001,-153.11 92.0001,-153.11"/>
</g>
</g>
</svg>
