<?xml version="1.0" encoding="UTF-8" standalone="no"?>
<!DOCTYPE svg PUBLIC "-//W3C//DTD SVG 1.1//EN"
 "http://www.w3.org/Graphics/SVG/1.1/DTD/svg11.dtd">
<!-- Generated by graphviz version 2.38.0 (20140413.2041)
 -->
<!-- Title: %3 Pages: 1 -->
<svg width="251pt" height="2074pt"
 viewBox="0.00 0.00 250.50 2074.00" xmlns="http://www.w3.org/2000/svg" xmlns:xlink="http://www.w3.org/1999/xlink">
<g id="graph0" class="graph" transform="scale(1 1) rotate(0) translate(4 2070)">
<title>%3</title>
<polygon fill="white" stroke="none" points="-4,4 -4,-2070 246.5,-2070 246.5,4 -4,4"/>
<!-- 986 -->
<g id="node1" class="node"><title>986</title>
<polygon fill="none" stroke="black" points="185.5,-2066 13.5,-2066 13.5,-1863 185.5,-1863 185.5,-2066"/>
<text text-anchor="middle" x="99.5" y="-2050.8" font-family="Times,serif" font-size="14.00">0x4000a0c110</text>
<text text-anchor="middle" x="99.5" y="-2035.8" font-family="Times,serif" font-size="14.00">_______________________</text>
<text text-anchor="middle" x="99.5" y="-2020.8" font-family="Times,serif" font-size="14.00">_______________________</text>
<text text-anchor="middle" x="99.5" y="-2005.8" font-family="Times,serif" font-size="14.00">pushq %r13</text>
<text text-anchor="middle" x="99.5" y="-1990.8" font-family="Times,serif" font-size="14.00">pushq %r12</text>
<text text-anchor="middle" x="99.5" y="-1975.8" font-family="Times,serif" font-size="14.00">pushq %rbp</text>
<text text-anchor="middle" x="99.5" y="-1960.8" font-family="Times,serif" font-size="14.00">pushq %rbx</text>
<text text-anchor="middle" x="99.5" y="-1945.8" font-family="Times,serif" font-size="14.00">subq $8, %rsp</text>
<text text-anchor="middle" x="99.5" y="-1930.8" font-family="Times,serif" font-size="14.00">movzbl 4(%r9), %eax</text>
<text text-anchor="middle" x="99.5" y="-1915.8" font-family="Times,serif" font-size="14.00">movq 0x40(%rsp), %r12</text>
<text text-anchor="middle" x="99.5" y="-1900.8" font-family="Times,serif" font-size="14.00">andl $0xf, %eax</text>
<text text-anchor="middle" x="99.5" y="-1885.8" font-family="Times,serif" font-size="14.00">cmpq $0, 8(%r9)</text>
<text text-anchor="middle" x="99.5" y="-1870.8" font-family="Times,serif" font-size="14.00">jne 0x4000a0c136</text>
</g>
<!-- 987 -->
<g id="node2" class="node"><title>987</title>
<polygon fill="none" stroke="black" points="185.5,-1827 13.5,-1827 13.5,-1699 185.5,-1699 185.5,-1827"/>
<text text-anchor="middle" x="99.5" y="-1811.8" font-family="Times,serif" font-size="14.00">0x4000a0c136</text>
<text text-anchor="middle" x="99.5" y="-1796.8" font-family="Times,serif" font-size="14.00">_______________________</text>
<text text-anchor="middle" x="99.5" y="-1781.8" font-family="Times,serif" font-size="14.00">_______________________</text>
<text text-anchor="middle" x="99.5" y="-1766.8" font-family="Times,serif" font-size="14.00">xorl %r10d, %r10d</text>
<text text-anchor="middle" x="99.5" y="-1751.8" font-family="Times,serif" font-size="14.00">cmpw $0, 6(%r9)</text>
<text text-anchor="middle" x="99.5" y="-1736.8" font-family="Times,serif" font-size="14.00">sete %r10b</text>
<text text-anchor="middle" x="99.5" y="-1721.8" font-family="Times,serif" font-size="14.00">testl %r10d, %r8d</text>
<text text-anchor="middle" x="99.5" y="-1706.8" font-family="Times,serif" font-size="14.00">jne 0x4000a0c237</text>
</g>
<!-- 986&#45;&gt;987 -->
<g id="edge1" class="edge"><title>986&#45;&gt;987</title>
<path fill="none" stroke="black" d="M99.5,-1862.87C99.5,-1854.2 99.5,-1845.53 99.5,-1837.14"/>
<polygon fill="black" stroke="black" points="103,-1837.05 99.5,-1827.05 96.0001,-1837.05 103,-1837.05"/>
</g>
<!-- 988 -->
<g id="node3" class="node"><title>988</title>
<polygon fill="none" stroke="black" points="185.5,-1663 13.5,-1663 13.5,-1565 185.5,-1565 185.5,-1663"/>
<text text-anchor="middle" x="99.5" y="-1647.8" font-family="Times,serif" font-size="14.00">0x4000a0c14c</text>
<text text-anchor="middle" x="99.5" y="-1632.8" font-family="Times,serif" font-size="14.00">_______________________</text>
<text text-anchor="middle" x="99.5" y="-1617.8" font-family="Times,serif" font-size="14.00">_______________________</text>
<text text-anchor="middle" x="99.5" y="-1602.8" font-family="Times,serif" font-size="14.00">movl $0x467, %r8d</text>
<text text-anchor="middle" x="99.5" y="-1587.8" font-family="Times,serif" font-size="14.00">btl %eax, %r8d</text>
<text text-anchor="middle" x="99.5" y="-1572.8" font-family="Times,serif" font-size="14.00">jae 0x4000a0c237</text>
</g>
<!-- 987&#45;&gt;988 -->
<g id="edge2" class="edge"><title>987&#45;&gt;988</title>
<path fill="none" stroke="black" d="M99.5,-1698.81C99.5,-1690.29 99.5,-1681.58 99.5,-1673.15"/>
<polygon fill="black" stroke="black" points="103,-1673.04 99.5,-1663.04 96.0001,-1673.04 103,-1673.04"/>
</g>
<!-- 989 -->
<g id="node4" class="node"><title>989</title>
<polygon fill="none" stroke="black" points="185.5,-1529 13.5,-1529 13.5,-1371 185.5,-1371 185.5,-1529"/>
<text text-anchor="middle" x="99.5" y="-1513.8" font-family="Times,serif" font-size="14.00">0x4000a0c15c</text>
<text text-anchor="middle" x="99.5" y="-1498.8" font-family="Times,serif" font-size="14.00">_______________________</text>
<text text-anchor="middle" x="99.5" y="-1483.8" font-family="Times,serif" font-size="14.00">_______________________</text>
<text text-anchor="middle" x="99.5" y="-1468.8" font-family="Times,serif" font-size="14.00">movq %rsi, %rax</text>
<text text-anchor="middle" x="99.5" y="-1453.8" font-family="Times,serif" font-size="14.00">movq %r9, %rbx</text>
<text text-anchor="middle" x="99.5" y="-1438.8" font-family="Times,serif" font-size="14.00">movl %ecx, %r13d</text>
<text text-anchor="middle" x="99.5" y="-1423.8" font-family="Times,serif" font-size="14.00">cmpq %rax, %r9</text>
<text text-anchor="middle" x="99.5" y="-1408.8" font-family="Times,serif" font-size="14.00">movq %rdx, %rbp</text>
<text text-anchor="middle" x="99.5" y="-1393.8" font-family="Times,serif" font-size="14.00">movq %rdi, %rsi</text>
<text text-anchor="middle" x="99.5" y="-1378.8" font-family="Times,serif" font-size="14.00">je 0x4000a0c188</text>
</g>
<!-- 988&#45;&gt;989 -->
<g id="edge3" class="edge"><title>988&#45;&gt;989</title>
<path fill="none" stroke="black" d="M99.5,-1564.83C99.5,-1556.63 99.5,-1547.89 99.5,-1539.04"/>
<polygon fill="black" stroke="black" points="103,-1539.02 99.5,-1529.02 96.0001,-1539.02 103,-1539.02"/>
</g>
<!-- 990 -->
<g id="node5" class="node"><title>990</title>
<polygon fill="none" stroke="black" points="185.5,-1037 13.5,-1037 13.5,-939 185.5,-939 185.5,-1037"/>
<text text-anchor="middle" x="99.5" y="-1021.8" font-family="Times,serif" font-size="14.00">0x4000a0c188</text>
<text text-anchor="middle" x="99.5" y="-1006.8" font-family="Times,serif" font-size="14.00">_______________________</text>
<text text-anchor="middle" x="99.5" y="-991.8" font-family="Times,serif" font-size="14.00">_______________________</text>
<text text-anchor="middle" x="99.5" y="-976.8" font-family="Times,serif" font-size="14.00">testq %rbp, %rbp</text>
<text text-anchor="middle" x="99.5" y="-961.8" font-family="Times,serif" font-size="14.00">movq 0x330(%r12), %rax</text>
<text text-anchor="middle" x="99.5" y="-946.8" font-family="Times,serif" font-size="14.00">je 0x4000a0c1f0</text>
</g>
<!-- 989&#45;&gt;990 -->
<g id="edge4" class="edge"><title>989&#45;&gt;990</title>
<path fill="none" stroke="black" d="M69.7657,-1370.72C66.3453,-1358.9 63.4048,-1346.74 61.5,-1335 42.8477,-1220.06 36.9509,-1186.83 61.5,-1073 63.4081,-1064.15 66.3274,-1055.12 69.7179,-1046.4"/>
<polygon fill="black" stroke="black" points="72.9767,-1047.68 73.5565,-1037.1 66.5061,-1045.01 72.9767,-1047.68"/>
</g>
<!-- 1031 -->
<g id="node6" class="node"><title>1031</title>
<polygon fill="none" stroke="black" points="242.5,-1335 70.5,-1335 70.5,-1192 242.5,-1192 242.5,-1335"/>
<text text-anchor="middle" x="156.5" y="-1319.8" font-family="Times,serif" font-size="14.00">0x4000a0c170</text>
<text text-anchor="middle" x="156.5" y="-1304.8" font-family="Times,serif" font-size="14.00">_______________________</text>
<text text-anchor="middle" x="156.5" y="-1289.8" font-family="Times,serif" font-size="14.00">_______________________</text>
<text text-anchor="middle" x="156.5" y="-1274.8" font-family="Times,serif" font-size="14.00">movl (%r9), %eax</text>
<text text-anchor="middle" x="156.5" y="-1259.8" font-family="Times,serif" font-size="14.00">addq 0x38(%rsp), %rax</text>
<text text-anchor="middle" x="156.5" y="-1244.8" font-family="Times,serif" font-size="14.00">movq %rax, %rdi</text>
<text text-anchor="middle" x="156.5" y="-1229.8" font-family="Times,serif" font-size="14.00">callq 0x4000a1ca40</text>
<text text-anchor="middle" x="156.5" y="-1214.8" font-family="Times,serif" font-size="14.00">_______________________</text>
<text text-anchor="middle" x="156.5" y="-1199.8" font-family="Times,serif" font-size="14.00">CALL 0x4000a1ca40</text>
</g>
<!-- 989&#45;&gt;1031 -->
<g id="edge5" class="edge"><title>989&#45;&gt;1031</title>
<path fill="none" stroke="black" d="M123.673,-1370.76C126.319,-1362.19 129.015,-1353.46 131.668,-1344.88"/>
<polygon fill="black" stroke="black" points="135.033,-1345.84 134.641,-1335.26 128.345,-1343.78 135.033,-1345.84"/>
</g>
<!-- 991 -->
<g id="node7" class="node"><title>991</title>
<polygon fill="none" stroke="black" points="185.5,-903 13.5,-903 13.5,-820 185.5,-820 185.5,-903"/>
<text text-anchor="middle" x="99.5" y="-887.8" font-family="Times,serif" font-size="14.00">0x4000a0c195</text>
<text text-anchor="middle" x="99.5" y="-872.8" font-family="Times,serif" font-size="14.00">_______________________</text>
<text text-anchor="middle" x="99.5" y="-857.8" font-family="Times,serif" font-size="14.00">_______________________</text>
<text text-anchor="middle" x="99.5" y="-842.8" font-family="Times,serif" font-size="14.00">testq %rax, %rax</text>
<text text-anchor="middle" x="99.5" y="-827.8" font-family="Times,serif" font-size="14.00">je 0x4000a0c268</text>
</g>
<!-- 990&#45;&gt;991 -->
<g id="edge6" class="edge"><title>990&#45;&gt;991</title>
<path fill="none" stroke="black" d="M99.5,-938.865C99.5,-930.498 99.5,-921.771 99.5,-913.335"/>
<polygon fill="black" stroke="black" points="103,-913.231 99.5,-903.231 96.0001,-913.231 103,-913.231"/>
</g>
<!-- 1035 -->
<g id="node13" class="node"><title>1035</title>
<polygon fill="none" stroke="black" points="242.5,-1156 70.5,-1156 70.5,-1073 242.5,-1073 242.5,-1156"/>
<text text-anchor="middle" x="156.5" y="-1140.8" font-family="Times,serif" font-size="14.00">0x4000a0c180</text>
<text text-anchor="middle" x="156.5" y="-1125.8" font-family="Times,serif" font-size="14.00">_______________________</text>
<text text-anchor="middle" x="156.5" y="-1110.8" font-family="Times,serif" font-size="14.00">_______________________</text>
<text text-anchor="middle" x="156.5" y="-1095.8" font-family="Times,serif" font-size="14.00">testl %eax, %eax</text>
<text text-anchor="middle" x="156.5" y="-1080.8" font-family="Times,serif" font-size="14.00">jne 0x4000a0c237</text>
</g>
<!-- 1031&#45;&gt;1035 -->
<g id="edge12" class="edge"><title>1031&#45;&gt;1035</title>
<path fill="none" stroke="black" d="M156.5,-1191.58C156.5,-1183.01 156.5,-1174.4 156.5,-1166.2"/>
<polygon fill="black" stroke="black" points="160,-1166.08 156.5,-1156.08 153,-1166.08 160,-1166.08"/>
</g>
<!-- 992 -->
<g id="node8" class="node"><title>992</title>
<polygon fill="none" stroke="black" points="199,-784 0,-784 0,-581 199,-581 199,-784"/>
<text text-anchor="middle" x="99.5" y="-768.8" font-family="Times,serif" font-size="14.00">0x4000a0c19e</text>
<text text-anchor="middle" x="99.5" y="-753.8" font-family="Times,serif" font-size="14.00">_______________________</text>
<text text-anchor="middle" x="99.5" y="-738.8" font-family="Times,serif" font-size="14.00">_______________________</text>
<text text-anchor="middle" x="99.5" y="-723.8" font-family="Times,serif" font-size="14.00">movl 0x30(%rsp), %edx</text>
<text text-anchor="middle" x="99.5" y="-708.8" font-family="Times,serif" font-size="14.00">movzwl (%rax, %rdx, 2), %r13d</text>
<text text-anchor="middle" x="99.5" y="-693.8" font-family="Times,serif" font-size="14.00">movq %r13, %rax</text>
<text text-anchor="middle" x="99.5" y="-678.8" font-family="Times,serif" font-size="14.00">andl $0x7fff, %eax</text>
<text text-anchor="middle" x="99.5" y="-663.8" font-family="Times,serif" font-size="14.00">leaq (%rax, %rax, 2), %rdx</text>
<text text-anchor="middle" x="99.5" y="-648.8" font-family="Times,serif" font-size="14.00">movq 0x2e0(%r12), %rax</text>
<text text-anchor="middle" x="99.5" y="-633.8" font-family="Times,serif" font-size="14.00">leaq (%rax, %rdx, 8), %rax</text>
<text text-anchor="middle" x="99.5" y="-618.8" font-family="Times,serif" font-size="14.00">movl 8(%rax), %r12d</text>
<text text-anchor="middle" x="99.5" y="-603.8" font-family="Times,serif" font-size="14.00">cmpl 8(%rbp), %r12d</text>
<text text-anchor="middle" x="99.5" y="-588.8" font-family="Times,serif" font-size="14.00">je 0x4000a0c248</text>
</g>
<!-- 991&#45;&gt;992 -->
<g id="edge7" class="edge"><title>991&#45;&gt;992</title>
<path fill="none" stroke="black" d="M99.5,-819.893C99.5,-811.958 99.5,-803.288 99.5,-794.29"/>
<polygon fill="black" stroke="black" points="103,-794.012 99.5,-784.012 96.0001,-794.012 103,-794.012"/>
</g>
<!-- 993 -->
<g id="node9" class="node"><title>993</title>
<polygon fill="none" stroke="black" points="185.5,-545 13.5,-545 13.5,-417 185.5,-417 185.5,-545"/>
<text text-anchor="middle" x="99.5" y="-529.8" font-family="Times,serif" font-size="14.00">0x4000a0c248</text>
<text text-anchor="middle" x="99.5" y="-514.8" font-family="Times,serif" font-size="14.00">_______________________</text>
<text text-anchor="middle" x="99.5" y="-499.8" font-family="Times,serif" font-size="14.00">_______________________</text>
<text text-anchor="middle" x="99.5" y="-484.8" font-family="Times,serif" font-size="14.00">movq (%rbp), %rsi</text>
<text text-anchor="middle" x="99.5" y="-469.8" font-family="Times,serif" font-size="14.00">movq (%rax), %rdi</text>
<text text-anchor="middle" x="99.5" y="-454.8" font-family="Times,serif" font-size="14.00">callq 0x4000a1ca40</text>
<text text-anchor="middle" x="99.5" y="-439.8" font-family="Times,serif" font-size="14.00">_______________________</text>
<text text-anchor="middle" x="99.5" y="-424.8" font-family="Times,serif" font-size="14.00">CALL 0x4000a1ca40</text>
</g>
<!-- 992&#45;&gt;993 -->
<g id="edge8" class="edge"><title>992&#45;&gt;993</title>
<path fill="none" stroke="black" d="M99.5,-580.873C99.5,-572.199 99.5,-563.533 99.5,-555.139"/>
<polygon fill="black" stroke="black" points="103,-555.051 99.5,-545.051 96.0001,-555.051 103,-555.051"/>
</g>
<!-- 994 -->
<g id="node10" class="node"><title>994</title>
<polygon fill="none" stroke="black" points="185.5,-381 13.5,-381 13.5,-298 185.5,-298 185.5,-381"/>
<text text-anchor="middle" x="99.5" y="-365.8" font-family="Times,serif" font-size="14.00">0x4000a0c254</text>
<text text-anchor="middle" x="99.5" y="-350.8" font-family="Times,serif" font-size="14.00">_______________________</text>
<text text-anchor="middle" x="99.5" y="-335.8" font-family="Times,serif" font-size="14.00">_______________________</text>
<text text-anchor="middle" x="99.5" y="-320.8" font-family="Times,serif" font-size="14.00">testl %eax, %eax</text>
<text text-anchor="middle" x="99.5" y="-305.8" font-family="Times,serif" font-size="14.00">jne 0x4000a0c1c9</text>
</g>
<!-- 993&#45;&gt;994 -->
<g id="edge9" class="edge"><title>993&#45;&gt;994</title>
<path fill="none" stroke="black" d="M99.5,-416.781C99.5,-408.265 99.5,-399.618 99.5,-391.355"/>
<polygon fill="black" stroke="black" points="103,-391.13 99.5,-381.13 96.0001,-391.13 103,-391.13"/>
</g>
<!-- 995 -->
<g id="node11" class="node"><title>995</title>
<polygon fill="none" stroke="black" points="185.5,-262 13.5,-262 13.5,-194 185.5,-194 185.5,-262"/>
<text text-anchor="middle" x="99.5" y="-246.8" font-family="Times,serif" font-size="14.00">0x4000a0c25c</text>
<text text-anchor="middle" x="99.5" y="-231.8" font-family="Times,serif" font-size="14.00">_______________________</text>
<text text-anchor="middle" x="99.5" y="-216.8" font-family="Times,serif" font-size="14.00">_______________________</text>
<text text-anchor="middle" x="99.5" y="-201.8" font-family="Times,serif" font-size="14.00">jmp 0x4000a0c1db</text>
</g>
<!-- 994&#45;&gt;995 -->
<g id="edge10" class="edge"><title>994&#45;&gt;995</title>
<path fill="none" stroke="black" d="M99.5,-297.726C99.5,-289.518 99.5,-280.86 99.5,-272.56"/>
<polygon fill="black" stroke="black" points="103,-272.3 99.5,-262.3 96.0001,-272.3 103,-272.3"/>
</g>
<!-- 996 -->
<g id="node12" class="node"><title>996</title>
<polygon fill="none" stroke="black" points="185.5,-158 13.5,-158 13.5,-0 185.5,-0 185.5,-158"/>
<text text-anchor="middle" x="99.5" y="-142.8" font-family="Times,serif" font-size="14.00">0x4000a0c1db</text>
<text text-anchor="middle" x="99.5" y="-127.8" font-family="Times,serif" font-size="14.00">_______________________</text>
<text text-anchor="middle" x="99.5" y="-112.8" font-family="Times,serif" font-size="14.00">_______________________</text>
<text text-anchor="middle" x="99.5" y="-97.8" font-family="Times,serif" font-size="14.00">addq $8, %rsp</text>
<text text-anchor="middle" x="99.5" y="-82.8" font-family="Times,serif" font-size="14.00">movq %rbx, %rax</text>
<text text-anchor="middle" x="99.5" y="-67.8" font-family="Times,serif" font-size="14.00">popq %rbx</text>
<text text-anchor="middle" x="99.5" y="-52.8" font-family="Times,serif" font-size="14.00">popq %rbp</text>
<text text-anchor="middle" x="99.5" y="-37.8" font-family="Times,serif" font-size="14.00">popq %r12</text>
<text text-anchor="middle" x="99.5" y="-22.8" font-family="Times,serif" font-size="14.00">popq %r13</text>
<text text-anchor="middle" x="99.5" y="-7.8" font-family="Times,serif" font-size="14.00">retq </text>
</g>
<!-- 995&#45;&gt;996 -->
<g id="edge11" class="edge"><title>995&#45;&gt;996</title>
<path fill="none" stroke="black" d="M99.5,-193.643C99.5,-185.889 99.5,-177.274 99.5,-168.354"/>
<polygon fill="black" stroke="black" points="103,-168.184 99.5,-158.184 96.0001,-168.184 103,-168.184"/>
</g>
<!-- 1035&#45;&gt;990 -->
<g id="edge13" class="edge"><title>1035&#45;&gt;990</title>
<path fill="none" stroke="black" d="M137.836,-1072.73C133.98,-1064.31 129.851,-1055.29 125.782,-1046.41"/>
<polygon fill="black" stroke="black" points="128.924,-1044.86 121.578,-1037.22 122.559,-1047.77 128.924,-1044.86"/>
</g>
</g>
</svg>
