<?xml version="1.0" encoding="UTF-8" standalone="no"?>
<!DOCTYPE svg PUBLIC "-//W3C//DTD SVG 1.1//EN"
 "http://www.w3.org/Graphics/SVG/1.1/DTD/svg11.dtd">
<!-- Generated by graphviz version 2.38.0 (20140413.2041)
 -->
<!-- Title: %3 Pages: 1 -->
<svg width="180pt" height="494pt"
 viewBox="0.00 0.00 180.00 494.00" xmlns="http://www.w3.org/2000/svg" xmlns:xlink="http://www.w3.org/1999/xlink">
<g id="graph0" class="graph" transform="scale(1 1) rotate(0) translate(4 490)">
<title>%3</title>
<polygon fill="white" stroke="none" points="-4,4 -4,-490 176,-490 176,4 -4,4"/>
<!-- 1775 -->
<g id="node1" class="node"><title>1775</title>
<polygon fill="none" stroke="black" points="172,-486 0,-486 0,-313 172,-313 172,-486"/>
<text text-anchor="middle" x="86" y="-470.8" font-family="Times,serif" font-size="14.00">0x4000cb4ff0</text>
<text text-anchor="middle" x="86" y="-455.8" font-family="Times,serif" font-size="14.00">_______________________</text>
<text text-anchor="middle" x="86" y="-440.8" font-family="Times,serif" font-size="14.00">_______________________</text>
<text text-anchor="middle" x="86" y="-425.8" font-family="Times,serif" font-size="14.00">pushq %rbp</text>
<text text-anchor="middle" x="86" y="-410.8" font-family="Times,serif" font-size="14.00">pushq %rbx</text>
<text text-anchor="middle" x="86" y="-395.8" font-family="Times,serif" font-size="14.00">movq %rdi, %rbx</text>
<text text-anchor="middle" x="86" y="-380.8" font-family="Times,serif" font-size="14.00">subq $0x18, %rsp</text>
<text text-anchor="middle" x="86" y="-365.8" font-family="Times,serif" font-size="14.00">movq 0x28(%rdi), %rdx</text>
<text text-anchor="middle" x="86" y="-350.8" font-family="Times,serif" font-size="14.00">movq 0x20(%rdi), %rsi</text>
<text text-anchor="middle" x="86" y="-335.8" font-family="Times,serif" font-size="14.00">cmpq %rsi, %rdx</text>
<text text-anchor="middle" x="86" y="-320.8" font-family="Times,serif" font-size="14.00">jbe 0x4000cb503c</text>
</g>
<!-- 1776 -->
<g id="node2" class="node"><title>1776</title>
<polygon fill="none" stroke="black" points="172,-277 0,-277 0,-179 172,-179 172,-277"/>
<text text-anchor="middle" x="86" y="-261.8" font-family="Times,serif" font-size="14.00">0x4000cb503c</text>
<text text-anchor="middle" x="86" y="-246.8" font-family="Times,serif" font-size="14.00">_______________________</text>
<text text-anchor="middle" x="86" y="-231.8" font-family="Times,serif" font-size="14.00">_______________________</text>
<text text-anchor="middle" x="86" y="-216.8" font-family="Times,serif" font-size="14.00">movq 8(%rbx), %rsi</text>
<text text-anchor="middle" x="86" y="-201.8" font-family="Times,serif" font-size="14.00">subq 0x10(%rbx), %rsi</text>
<text text-anchor="middle" x="86" y="-186.8" font-family="Times,serif" font-size="14.00">je 0x4000cb5085</text>
</g>
<!-- 1775&#45;&gt;1776 -->
<g id="edge1" class="edge"><title>1775&#45;&gt;1776</title>
<path fill="none" stroke="black" d="M86,-312.757C86,-304.212 86,-295.681 86,-287.51"/>
<polygon fill="black" stroke="black" points="89.5001,-287.38 86,-277.38 82.5001,-287.381 89.5001,-287.38"/>
</g>
<!-- 1777 -->
<g id="node3" class="node"><title>1777</title>
<polygon fill="none" stroke="black" points="172,-143 0,-143 0,-0 172,-0 172,-143"/>
<text text-anchor="middle" x="86" y="-127.8" font-family="Times,serif" font-size="14.00">0x4000cb5085</text>
<text text-anchor="middle" x="86" y="-112.8" font-family="Times,serif" font-size="14.00">_______________________</text>
<text text-anchor="middle" x="86" y="-97.8" font-family="Times,serif" font-size="14.00">_______________________</text>
<text text-anchor="middle" x="86" y="-82.8" font-family="Times,serif" font-size="14.00">movq $&#45;1, 0x90(%rbx)</text>
<text text-anchor="middle" x="86" y="-67.8" font-family="Times,serif" font-size="14.00">addq $0x18, %rsp</text>
<text text-anchor="middle" x="86" y="-52.8" font-family="Times,serif" font-size="14.00">xorl %eax, %eax</text>
<text text-anchor="middle" x="86" y="-37.8" font-family="Times,serif" font-size="14.00">popq %rbx</text>
<text text-anchor="middle" x="86" y="-22.8" font-family="Times,serif" font-size="14.00">popq %rbp</text>
<text text-anchor="middle" x="86" y="-7.8" font-family="Times,serif" font-size="14.00">retq </text>
</g>
<!-- 1776&#45;&gt;1777 -->
<g id="edge2" class="edge"><title>1776&#45;&gt;1777</title>
<path fill="none" stroke="black" d="M86,-178.962C86,-170.813 86,-162.154 86,-153.434"/>
<polygon fill="black" stroke="black" points="89.5001,-153.194 86,-143.194 82.5001,-153.194 89.5001,-153.194"/>
</g>
</g>
</svg>
