<?xml version="1.0" encoding="UTF-8" standalone="no"?>
<!DOCTYPE svg PUBLIC "-//W3C//DTD SVG 1.1//EN"
 "http://www.w3.org/Graphics/SVG/1.1/DTD/svg11.dtd">
<!-- Generated by graphviz version 2.38.0 (20140413.2041)
 -->
<!-- Title: %3 Pages: 1 -->
<svg width="420pt" height="2102pt"
 viewBox="0.00 0.00 419.50 2102.00" xmlns="http://www.w3.org/2000/svg" xmlns:xlink="http://www.w3.org/1999/xlink">
<g id="graph0" class="graph" transform="scale(1 1) rotate(0) translate(4 2098)">
<title>%3</title>
<polygon fill="white" stroke="none" points="-4,4 -4,-2098 415.5,-2098 415.5,4 -4,4"/>
<!-- 1351 -->
<g id="node1" class="node"><title>1351</title>
<polygon fill="none" stroke="black" points="293,-2094 115,-2094 115,-1936 293,-1936 293,-2094"/>
<text text-anchor="middle" x="204" y="-2078.8" font-family="Times,serif" font-size="14.00">0x4000cbe820</text>
<text text-anchor="middle" x="204" y="-2063.8" font-family="Times,serif" font-size="14.00">_______________________</text>
<text text-anchor="middle" x="204" y="-2048.8" font-family="Times,serif" font-size="14.00">_______________________</text>
<text text-anchor="middle" x="204" y="-2033.8" font-family="Times,serif" font-size="14.00">pushq %rbp</text>
<text text-anchor="middle" x="204" y="-2018.8" font-family="Times,serif" font-size="14.00">pushq %rbx</text>
<text text-anchor="middle" x="204" y="-2003.8" font-family="Times,serif" font-size="14.00">subq $8, %rsp</text>
<text text-anchor="middle" x="204" y="-1988.8" font-family="Times,serif" font-size="14.00">movq 0x3206c3(%rip), %rax</text>
<text text-anchor="middle" x="204" y="-1973.8" font-family="Times,serif" font-size="14.00">movq (%rax), %rax</text>
<text text-anchor="middle" x="204" y="-1958.8" font-family="Times,serif" font-size="14.00">testq %rax, %rax</text>
<text text-anchor="middle" x="204" y="-1943.8" font-family="Times,serif" font-size="14.00">jne 0x4000cbe978</text>
</g>
<!-- 1352 -->
<g id="node2" class="node"><title>1352</title>
<polygon fill="none" stroke="black" points="175,-1900 3,-1900 3,-1772 175,-1772 175,-1900"/>
<text text-anchor="middle" x="89" y="-1884.8" font-family="Times,serif" font-size="14.00">0x4000cbe978</text>
<text text-anchor="middle" x="89" y="-1869.8" font-family="Times,serif" font-size="14.00">_______________________</text>
<text text-anchor="middle" x="89" y="-1854.8" font-family="Times,serif" font-size="14.00">_______________________</text>
<text text-anchor="middle" x="89" y="-1839.8" font-family="Times,serif" font-size="14.00">movq 0x18(%rsp), %rsi</text>
<text text-anchor="middle" x="89" y="-1824.8" font-family="Times,serif" font-size="14.00">addq $8, %rsp</text>
<text text-anchor="middle" x="89" y="-1809.8" font-family="Times,serif" font-size="14.00">popq %rbx</text>
<text text-anchor="middle" x="89" y="-1794.8" font-family="Times,serif" font-size="14.00">popq %rbp</text>
<text text-anchor="middle" x="89" y="-1779.8" font-family="Times,serif" font-size="14.00">jmpq *%rax</text>
</g>
<!-- 1351&#45;&gt;1352 -->
<g id="edge1" class="edge"><title>1351&#45;&gt;1352</title>
<path fill="none" stroke="black" d="M153.225,-1935.85C147.343,-1926.8 141.365,-1917.6 135.544,-1908.64"/>
<polygon fill="black" stroke="black" points="138.401,-1906.61 130.018,-1900.13 132.531,-1910.42 138.401,-1906.61"/>
</g>
<!-- 1411 -->
<g id="node3" class="node"><title>1411</title>
<polygon fill="none" stroke="black" points="411.5,-1900 232.5,-1900 232.5,-1772 411.5,-1772 411.5,-1900"/>
<text text-anchor="middle" x="322" y="-1884.8" font-family="Times,serif" font-size="14.00">0x4000cbe839</text>
<text text-anchor="middle" x="322" y="-1869.8" font-family="Times,serif" font-size="14.00">_______________________</text>
<text text-anchor="middle" x="322" y="-1854.8" font-family="Times,serif" font-size="14.00">_______________________</text>
<text text-anchor="middle" x="322" y="-1839.8" font-family="Times,serif" font-size="14.00">movq 0x320550(%rip), %rax</text>
<text text-anchor="middle" x="322" y="-1824.8" font-family="Times,serif" font-size="14.00">movq %rdi, %rbp</text>
<text text-anchor="middle" x="322" y="-1809.8" font-family="Times,serif" font-size="14.00">movq %fs:(%rax), %rbx</text>
<text text-anchor="middle" x="322" y="-1794.8" font-family="Times,serif" font-size="14.00">testq %rbx, %rbx</text>
<text text-anchor="middle" x="322" y="-1779.8" font-family="Times,serif" font-size="14.00">je 0x4000cbe858</text>
</g>
<!-- 1351&#45;&gt;1411 -->
<g id="edge2" class="edge"><title>1351&#45;&gt;1411</title>
<path fill="none" stroke="black" d="M256.1,-1935.85C262.136,-1926.8 268.269,-1917.6 274.242,-1908.64"/>
<polygon fill="black" stroke="black" points="277.277,-1910.39 279.912,-1900.13 271.453,-1906.51 277.277,-1910.39"/>
</g>
<!-- 1353 -->
<g id="node4" class="node"><title>1353</title>
<polygon fill="none" stroke="black" points="176,-1736 1.42109e-14,-1736 1.42109e-14,-1608 176,-1608 176,-1736"/>
<text text-anchor="middle" x="88" y="-1720.8" font-family="Times,serif" font-size="14.00">0x4000cbfa90</text>
<text text-anchor="middle" x="88" y="-1705.8" font-family="Times,serif" font-size="14.00">_______________________</text>
<text text-anchor="middle" x="88" y="-1690.8" font-family="Times,serif" font-size="14.00">_______________________</text>
<text text-anchor="middle" x="88" y="-1675.8" font-family="Times,serif" font-size="14.00">movq 0x31f459(%rip), %rax</text>
<text text-anchor="middle" x="88" y="-1660.8" font-family="Times,serif" font-size="14.00">movq $0, (%rax)</text>
<text text-anchor="middle" x="88" y="-1645.8" font-family="Times,serif" font-size="14.00">movl 0x31f6a0(%rip), %eax</text>
<text text-anchor="middle" x="88" y="-1630.8" font-family="Times,serif" font-size="14.00">testl %eax, %eax</text>
<text text-anchor="middle" x="88" y="-1615.8" font-family="Times,serif" font-size="14.00">js 0x4000cbfab0</text>
</g>
<!-- 1352&#45;&gt;1353 -->
<g id="edge3" class="edge"><title>1352&#45;&gt;1353</title>
<path fill="none" stroke="black" d="M88.6105,-1771.9C88.559,-1763.57 88.5059,-1754.96 88.4535,-1746.47"/>
<polygon fill="black" stroke="black" points="91.9518,-1746.17 88.3901,-1736.19 84.952,-1746.21 91.9518,-1746.17"/>
</g>
<!-- 1412 -->
<g id="node7" class="node"><title>1412</title>
<polygon fill="none" stroke="black" points="408,-1721 236,-1721 236,-1623 408,-1623 408,-1721"/>
<text text-anchor="middle" x="322" y="-1705.8" font-family="Times,serif" font-size="14.00">0x4000cbe84c</text>
<text text-anchor="middle" x="322" y="-1690.8" font-family="Times,serif" font-size="14.00">_______________________</text>
<text text-anchor="middle" x="322" y="-1675.8" font-family="Times,serif" font-size="14.00">_______________________</text>
<text text-anchor="middle" x="322" y="-1660.8" font-family="Times,serif" font-size="14.00">movl 4(%rbx), %eax</text>
<text text-anchor="middle" x="322" y="-1645.8" font-family="Times,serif" font-size="14.00">andl $4, %eax</text>
<text text-anchor="middle" x="322" y="-1630.8" font-family="Times,serif" font-size="14.00">je 0x4000cbe8e8</text>
</g>
<!-- 1411&#45;&gt;1412 -->
<g id="edge7" class="edge"><title>1411&#45;&gt;1412</title>
<path fill="none" stroke="black" d="M322,-1771.9C322,-1758.58 322,-1744.58 322,-1731.45"/>
<polygon fill="black" stroke="black" points="325.5,-1731.12 322,-1721.12 318.5,-1731.12 325.5,-1731.12"/>
</g>
<!-- 1354 -->
<g id="node5" class="node"><title>1354</title>
<polygon fill="none" stroke="black" points="175,-1572 3,-1572 3,-1444 175,-1444 175,-1572"/>
<text text-anchor="middle" x="89" y="-1556.8" font-family="Times,serif" font-size="14.00">0x4000cbfab0</text>
<text text-anchor="middle" x="89" y="-1541.8" font-family="Times,serif" font-size="14.00">_______________________</text>
<text text-anchor="middle" x="89" y="-1526.8" font-family="Times,serif" font-size="14.00">_______________________</text>
<text text-anchor="middle" x="89" y="-1511.8" font-family="Times,serif" font-size="14.00">subq $0x18, %rsp</text>
<text text-anchor="middle" x="89" y="-1496.8" font-family="Times,serif" font-size="14.00">movq %rdi, 8(%rsp)</text>
<text text-anchor="middle" x="89" y="-1481.8" font-family="Times,serif" font-size="14.00">callq 0x4000cbf6b0</text>
<text text-anchor="middle" x="89" y="-1466.8" font-family="Times,serif" font-size="14.00">_______________________</text>
<text text-anchor="middle" x="89" y="-1451.8" font-family="Times,serif" font-size="14.00">CALL 0x4000cbf6b0</text>
</g>
<!-- 1353&#45;&gt;1354 -->
<g id="edge4" class="edge"><title>1353&#45;&gt;1354</title>
<path fill="none" stroke="black" d="M88.3895,-1607.9C88.441,-1599.57 88.4941,-1590.96 88.5465,-1582.47"/>
<polygon fill="black" stroke="black" points="92.048,-1582.21 88.6099,-1572.19 85.0482,-1582.17 92.048,-1582.21"/>
</g>
<!-- 1410 -->
<g id="node6" class="node"><title>1410</title>
<polygon fill="none" stroke="black" points="196,-1408 24,-1408 24,-1310 196,-1310 196,-1408"/>
<text text-anchor="middle" x="110" y="-1392.8" font-family="Times,serif" font-size="14.00">0x4000cbfabe</text>
<text text-anchor="middle" x="110" y="-1377.8" font-family="Times,serif" font-size="14.00">_______________________</text>
<text text-anchor="middle" x="110" y="-1362.8" font-family="Times,serif" font-size="14.00">_______________________</text>
<text text-anchor="middle" x="110" y="-1347.8" font-family="Times,serif" font-size="14.00">movq 8(%rsp), %rdi</text>
<text text-anchor="middle" x="110" y="-1332.8" font-family="Times,serif" font-size="14.00">addq $0x18, %rsp</text>
<text text-anchor="middle" x="110" y="-1317.8" font-family="Times,serif" font-size="14.00">jmp 0x4000cbe820</text>
</g>
<!-- 1354&#45;&gt;1410 -->
<g id="edge5" class="edge"><title>1354&#45;&gt;1410</title>
<path fill="none" stroke="black" d="M98.0278,-1443.81C99.2449,-1435.29 100.489,-1426.58 101.693,-1418.15"/>
<polygon fill="black" stroke="black" points="105.187,-1418.44 103.137,-1408.04 98.2574,-1417.45 105.187,-1418.44"/>
</g>
<!-- 1410&#45;&gt;1351 -->
<g id="edge6" class="edge"><title>1410&#45;&gt;1351</title>
<path fill="none" stroke="black" d="M162.09,-1408.11C170.936,-1419.01 178.899,-1431.18 184,-1444 217.812,-1528.99 213.237,-1788.18 208.072,-1925.87"/>
<polygon fill="black" stroke="black" points="204.57,-1925.85 207.684,-1935.98 211.565,-1926.12 204.57,-1925.85"/>
</g>
<!-- 1413 -->
<g id="node8" class="node"><title>1413</title>
<polygon fill="none" stroke="black" points="408,-1557 236,-1557 236,-1459 408,-1459 408,-1557"/>
<text text-anchor="middle" x="322" y="-1541.8" font-family="Times,serif" font-size="14.00">0x4000cbe8e8</text>
<text text-anchor="middle" x="322" y="-1526.8" font-family="Times,serif" font-size="14.00">_______________________</text>
<text text-anchor="middle" x="322" y="-1511.8" font-family="Times,serif" font-size="14.00">_______________________</text>
<text text-anchor="middle" x="322" y="-1496.8" font-family="Times,serif" font-size="14.00">movl $1, %esi</text>
<text text-anchor="middle" x="322" y="-1481.8" font-family="Times,serif" font-size="14.00">cmpl $0, 0x325e0c(%rip)</text>
<text text-anchor="middle" x="322" y="-1466.8" font-family="Times,serif" font-size="14.00">je 0x4000cbe8fe</text>
</g>
<!-- 1412&#45;&gt;1413 -->
<g id="edge8" class="edge"><title>1412&#45;&gt;1413</title>
<path fill="none" stroke="black" d="M322,-1622.83C322,-1605.44 322,-1585.62 322,-1567.45"/>
<polygon fill="black" stroke="black" points="325.5,-1567.26 322,-1557.26 318.5,-1567.26 325.5,-1567.26"/>
</g>
<!-- 1414 -->
<g id="node9" class="node"><title>1414</title>
<polygon fill="none" stroke="black" points="408,-1400.5 236,-1400.5 236,-1317.5 408,-1317.5 408,-1400.5"/>
<text text-anchor="middle" x="322" y="-1385.3" font-family="Times,serif" font-size="14.00">0x4000cbe8fe</text>
<text text-anchor="middle" x="322" y="-1370.3" font-family="Times,serif" font-size="14.00">_______________________</text>
<text text-anchor="middle" x="322" y="-1355.3" font-family="Times,serif" font-size="14.00">_______________________</text>
<text text-anchor="middle" x="322" y="-1340.3" font-family="Times,serif" font-size="14.00">cmpxchgl %esi, (%rbx)</text>
<text text-anchor="middle" x="322" y="-1325.3" font-family="Times,serif" font-size="14.00">je 0x4000cbe919</text>
</g>
<!-- 1413&#45;&gt;1414 -->
<g id="edge9" class="edge"><title>1413&#45;&gt;1414</title>
<path fill="none" stroke="black" d="M322,-1458.87C322,-1443.63 322,-1426.73 322,-1411.28"/>
<polygon fill="black" stroke="black" points="325.5,-1410.85 322,-1400.85 318.5,-1410.85 325.5,-1410.85"/>
</g>
<!-- 1415 -->
<g id="node10" class="node"><title>1415</title>
<polygon fill="none" stroke="black" points="408,-1274 236,-1274 236,-1206 408,-1206 408,-1274"/>
<text text-anchor="middle" x="322" y="-1258.8" font-family="Times,serif" font-size="14.00">0x4000cbe919</text>
<text text-anchor="middle" x="322" y="-1243.8" font-family="Times,serif" font-size="14.00">_______________________</text>
<text text-anchor="middle" x="322" y="-1228.8" font-family="Times,serif" font-size="14.00">_______________________</text>
<text text-anchor="middle" x="322" y="-1213.8" font-family="Times,serif" font-size="14.00">jmp 0x4000cbe869</text>
</g>
<!-- 1414&#45;&gt;1415 -->
<g id="edge10" class="edge"><title>1414&#45;&gt;1415</title>
<path fill="none" stroke="black" d="M322,-1317.41C322,-1306.7 322,-1295.12 322,-1284.28"/>
<polygon fill="black" stroke="black" points="325.5,-1284.17 322,-1274.17 318.5,-1284.17 325.5,-1284.17"/>
</g>
<!-- 1416 -->
<g id="node11" class="node"><title>1416</title>
<polygon fill="none" stroke="black" points="408,-1170 236,-1170 236,-1042 408,-1042 408,-1170"/>
<text text-anchor="middle" x="322" y="-1154.8" font-family="Times,serif" font-size="14.00">0x4000cbe869</text>
<text text-anchor="middle" x="322" y="-1139.8" font-family="Times,serif" font-size="14.00">_______________________</text>
<text text-anchor="middle" x="322" y="-1124.8" font-family="Times,serif" font-size="14.00">_______________________</text>
<text text-anchor="middle" x="322" y="-1109.8" font-family="Times,serif" font-size="14.00">movq %rbp, %rsi</text>
<text text-anchor="middle" x="322" y="-1094.8" font-family="Times,serif" font-size="14.00">movq %rbx, %rdi</text>
<text text-anchor="middle" x="322" y="-1079.8" font-family="Times,serif" font-size="14.00">callq 0x4000cbc670</text>
<text text-anchor="middle" x="322" y="-1064.8" font-family="Times,serif" font-size="14.00">_______________________</text>
<text text-anchor="middle" x="322" y="-1049.8" font-family="Times,serif" font-size="14.00">CALL 0x4000cbc670</text>
</g>
<!-- 1415&#45;&gt;1416 -->
<g id="edge11" class="edge"><title>1415&#45;&gt;1416</title>
<path fill="none" stroke="black" d="M322,-1205.69C322,-1197.81 322,-1189.1 322,-1180.21"/>
<polygon fill="black" stroke="black" points="325.5,-1180.14 322,-1170.14 318.5,-1180.14 325.5,-1180.14"/>
</g>
<!-- 1495 -->
<g id="node12" class="node"><title>1495</title>
<polygon fill="none" stroke="black" points="408,-1006 236,-1006 236,-908 408,-908 408,-1006"/>
<text text-anchor="middle" x="322" y="-990.8" font-family="Times,serif" font-size="14.00">0x4000cbe874</text>
<text text-anchor="middle" x="322" y="-975.8" font-family="Times,serif" font-size="14.00">_______________________</text>
<text text-anchor="middle" x="322" y="-960.8" font-family="Times,serif" font-size="14.00">_______________________</text>
<text text-anchor="middle" x="322" y="-945.8" font-family="Times,serif" font-size="14.00">testq %rax, %rax</text>
<text text-anchor="middle" x="322" y="-930.8" font-family="Times,serif" font-size="14.00">movq %rax, %rdx</text>
<text text-anchor="middle" x="322" y="-915.8" font-family="Times,serif" font-size="14.00">je 0x4000cbe948</text>
</g>
<!-- 1416&#45;&gt;1495 -->
<g id="edge12" class="edge"><title>1416&#45;&gt;1495</title>
<path fill="none" stroke="black" d="M322,-1041.81C322,-1033.29 322,-1024.58 322,-1016.15"/>
<polygon fill="black" stroke="black" points="325.5,-1016.04 322,-1006.04 318.5,-1016.04 325.5,-1016.04"/>
</g>
<!-- 1496 -->
<g id="node13" class="node"><title>1496</title>
<polygon fill="none" stroke="black" points="408,-872 236,-872 236,-789 408,-789 408,-872"/>
<text text-anchor="middle" x="322" y="-856.8" font-family="Times,serif" font-size="14.00">0x4000cbe880</text>
<text text-anchor="middle" x="322" y="-841.8" font-family="Times,serif" font-size="14.00">_______________________</text>
<text text-anchor="middle" x="322" y="-826.8" font-family="Times,serif" font-size="14.00">_______________________</text>
<text text-anchor="middle" x="322" y="-811.8" font-family="Times,serif" font-size="14.00">cmpl $0, 0x325e79(%rip)</text>
<text text-anchor="middle" x="322" y="-796.8" font-family="Times,serif" font-size="14.00">je 0x4000cbe890</text>
</g>
<!-- 1495&#45;&gt;1496 -->
<g id="edge13" class="edge"><title>1495&#45;&gt;1496</title>
<path fill="none" stroke="black" d="M322,-907.865C322,-899.498 322,-890.771 322,-882.335"/>
<polygon fill="black" stroke="black" points="325.5,-882.231 322,-872.231 318.5,-882.231 325.5,-882.231"/>
</g>
<!-- 1497 -->
<g id="node14" class="node"><title>1497</title>
<polygon fill="none" stroke="black" points="408,-753 236,-753 236,-670 408,-670 408,-753"/>
<text text-anchor="middle" x="322" y="-737.8" font-family="Times,serif" font-size="14.00">0x4000cbe890</text>
<text text-anchor="middle" x="322" y="-722.8" font-family="Times,serif" font-size="14.00">_______________________</text>
<text text-anchor="middle" x="322" y="-707.8" font-family="Times,serif" font-size="14.00">_______________________</text>
<text text-anchor="middle" x="322" y="-692.8" font-family="Times,serif" font-size="14.00">decl (%rbx)</text>
<text text-anchor="middle" x="322" y="-677.8" font-family="Times,serif" font-size="14.00">je 0x4000cbe8aa</text>
</g>
<!-- 1496&#45;&gt;1497 -->
<g id="edge14" class="edge"><title>1496&#45;&gt;1497</title>
<path fill="none" stroke="black" d="M322,-788.907C322,-780.649 322,-771.864 322,-763.302"/>
<polygon fill="black" stroke="black" points="325.5,-763.021 322,-753.021 318.5,-763.021 325.5,-763.021"/>
</g>
<!-- 1498 -->
<g id="node15" class="node"><title>1498</title>
<polygon fill="none" stroke="black" points="408,-634 236,-634 236,-551 408,-551 408,-634"/>
<text text-anchor="middle" x="322" y="-618.8" font-family="Times,serif" font-size="14.00">0x4000cbe8aa</text>
<text text-anchor="middle" x="322" y="-603.8" font-family="Times,serif" font-size="14.00">_______________________</text>
<text text-anchor="middle" x="322" y="-588.8" font-family="Times,serif" font-size="14.00">_______________________</text>
<text text-anchor="middle" x="322" y="-573.8" font-family="Times,serif" font-size="14.00">testq %rdx, %rdx</text>
<text text-anchor="middle" x="322" y="-558.8" font-family="Times,serif" font-size="14.00">je 0x4000cbe8d8</text>
</g>
<!-- 1497&#45;&gt;1498 -->
<g id="edge15" class="edge"><title>1497&#45;&gt;1498</title>
<path fill="none" stroke="black" d="M322,-669.907C322,-661.649 322,-652.864 322,-644.302"/>
<polygon fill="black" stroke="black" points="325.5,-644.021 322,-634.021 318.5,-644.021 325.5,-644.021"/>
</g>
<!-- 1499 -->
<g id="node16" class="node"><title>1499</title>
<polygon fill="none" stroke="black" points="408,-515 236,-515 236,-417 408,-417 408,-515"/>
<text text-anchor="middle" x="322" y="-499.8" font-family="Times,serif" font-size="14.00">0x4000cbe8af</text>
<text text-anchor="middle" x="322" y="-484.8" font-family="Times,serif" font-size="14.00">_______________________</text>
<text text-anchor="middle" x="322" y="-469.8" font-family="Times,serif" font-size="14.00">_______________________</text>
<text text-anchor="middle" x="322" y="-454.8" font-family="Times,serif" font-size="14.00">movq &#45;8(%rdx), %rax</text>
<text text-anchor="middle" x="322" y="-439.8" font-family="Times,serif" font-size="14.00">testb $2, %al</text>
<text text-anchor="middle" x="322" y="-424.8" font-family="Times,serif" font-size="14.00">jne 0x4000cbe8d8</text>
</g>
<!-- 1498&#45;&gt;1499 -->
<g id="edge16" class="edge"><title>1498&#45;&gt;1499</title>
<path fill="none" stroke="black" d="M322,-550.734C322,-542.579 322,-533.862 322,-525.249"/>
<polygon fill="black" stroke="black" points="325.5,-525.224 322,-515.224 318.5,-525.224 325.5,-525.224"/>
</g>
<!-- 1500 -->
<g id="node17" class="node"><title>1500</title>
<polygon fill="none" stroke="black" points="408,-381 236,-381 236,-283 408,-283 408,-381"/>
<text text-anchor="middle" x="322" y="-365.8" font-family="Times,serif" font-size="14.00">0x4000cbe8b7</text>
<text text-anchor="middle" x="322" y="-350.8" font-family="Times,serif" font-size="14.00">_______________________</text>
<text text-anchor="middle" x="322" y="-335.8" font-family="Times,serif" font-size="14.00">_______________________</text>
<text text-anchor="middle" x="322" y="-320.8" font-family="Times,serif" font-size="14.00">testb $4, %al</text>
<text text-anchor="middle" x="322" y="-305.8" font-family="Times,serif" font-size="14.00">leaq 0x321240(%rip), %rcx</text>
<text text-anchor="middle" x="322" y="-290.8" font-family="Times,serif" font-size="14.00">je 0x4000cbe8cf</text>
</g>
<!-- 1499&#45;&gt;1500 -->
<g id="edge17" class="edge"><title>1499&#45;&gt;1500</title>
<path fill="none" stroke="black" d="M322,-416.972C322,-408.691 322,-400.003 322,-391.483"/>
<polygon fill="black" stroke="black" points="325.5,-391.214 322,-381.214 318.5,-391.214 325.5,-391.214"/>
</g>
<!-- 1501 -->
<g id="node18" class="node"><title>1501</title>
<polygon fill="none" stroke="black" points="408,-247 236,-247 236,-164 408,-164 408,-247"/>
<text text-anchor="middle" x="322" y="-231.8" font-family="Times,serif" font-size="14.00">0x4000cbe8cf</text>
<text text-anchor="middle" x="322" y="-216.8" font-family="Times,serif" font-size="14.00">_______________________</text>
<text text-anchor="middle" x="322" y="-201.8" font-family="Times,serif" font-size="14.00">_______________________</text>
<text text-anchor="middle" x="322" y="-186.8" font-family="Times,serif" font-size="14.00">cmpq %rbx, %rcx</text>
<text text-anchor="middle" x="322" y="-171.8" font-family="Times,serif" font-size="14.00">jne 0x4000cbe985</text>
</g>
<!-- 1500&#45;&gt;1501 -->
<g id="edge18" class="edge"><title>1500&#45;&gt;1501</title>
<path fill="none" stroke="black" d="M322,-282.865C322,-274.498 322,-265.771 322,-257.335"/>
<polygon fill="black" stroke="black" points="325.5,-257.231 322,-247.231 318.5,-257.231 325.5,-257.231"/>
</g>
<!-- 1502 -->
<g id="node19" class="node"><title>1502</title>
<polygon fill="none" stroke="black" points="408,-128 236,-128 236,-0 408,-0 408,-128"/>
<text text-anchor="middle" x="322" y="-112.8" font-family="Times,serif" font-size="14.00">0x4000cbe8d8</text>
<text text-anchor="middle" x="322" y="-97.8" font-family="Times,serif" font-size="14.00">_______________________</text>
<text text-anchor="middle" x="322" y="-82.8" font-family="Times,serif" font-size="14.00">_______________________</text>
<text text-anchor="middle" x="322" y="-67.8" font-family="Times,serif" font-size="14.00">addq $8, %rsp</text>
<text text-anchor="middle" x="322" y="-52.8" font-family="Times,serif" font-size="14.00">movq %rdx, %rax</text>
<text text-anchor="middle" x="322" y="-37.8" font-family="Times,serif" font-size="14.00">popq %rbx</text>
<text text-anchor="middle" x="322" y="-22.8" font-family="Times,serif" font-size="14.00">popq %rbp</text>
<text text-anchor="middle" x="322" y="-7.8" font-family="Times,serif" font-size="14.00">retq </text>
</g>
<!-- 1501&#45;&gt;1502 -->
<g id="edge19" class="edge"><title>1501&#45;&gt;1502</title>
<path fill="none" stroke="black" d="M322,-163.776C322,-155.741 322,-147.081 322,-138.346"/>
<polygon fill="black" stroke="black" points="325.5,-138.09 322,-128.09 318.5,-138.09 325.5,-138.09"/>
</g>
</g>
</svg>
