<?xml version="1.0" encoding="UTF-8" standalone="no"?>
<!DOCTYPE svg PUBLIC "-//W3C//DTD SVG 1.1//EN"
 "http://www.w3.org/Graphics/SVG/1.1/DTD/svg11.dtd">
<!-- Generated by graphviz version 2.38.0 (20140413.2041)
 -->
<!-- Title: %3 Pages: 1 -->
<svg width="180pt" height="345pt"
 viewBox="0.00 0.00 180.00 345.00" xmlns="http://www.w3.org/2000/svg" xmlns:xlink="http://www.w3.org/1999/xlink">
<g id="graph0" class="graph" transform="scale(1 1) rotate(0) translate(4 341)">
<title>%3</title>
<polygon fill="white" stroke="none" points="-4,4 -4,-341 176,-341 176,4 -4,4"/>
<!-- 1268 -->
<g id="node1" class="node"><title>1268</title>
<polygon fill="none" stroke="black" points="172,-337 0,-337 0,-119 172,-119 172,-337"/>
<text text-anchor="middle" x="86" y="-321.8" font-family="Times,serif" font-size="14.00">0x40000005b0</text>
<text text-anchor="middle" x="86" y="-306.8" font-family="Times,serif" font-size="14.00">_______________________</text>
<text text-anchor="middle" x="86" y="-291.8" font-family="Times,serif" font-size="14.00">_______________________</text>
<text text-anchor="middle" x="86" y="-276.8" font-family="Times,serif" font-size="14.00">leaq 0x200a79(%rip), %rdi</text>
<text text-anchor="middle" x="86" y="-261.8" font-family="Times,serif" font-size="14.00">leaq 0x200a72(%rip), %rsi</text>
<text text-anchor="middle" x="86" y="-246.8" font-family="Times,serif" font-size="14.00">pushq %rbp</text>
<text text-anchor="middle" x="86" y="-231.8" font-family="Times,serif" font-size="14.00">subq %rdi, %rsi</text>
<text text-anchor="middle" x="86" y="-216.8" font-family="Times,serif" font-size="14.00">movq %rsp, %rbp</text>
<text text-anchor="middle" x="86" y="-201.8" font-family="Times,serif" font-size="14.00">sarq $3, %rsi</text>
<text text-anchor="middle" x="86" y="-186.8" font-family="Times,serif" font-size="14.00">movq %rsi, %rax</text>
<text text-anchor="middle" x="86" y="-171.8" font-family="Times,serif" font-size="14.00">shrq $0x3f, %rax</text>
<text text-anchor="middle" x="86" y="-156.8" font-family="Times,serif" font-size="14.00">addq %rax, %rsi</text>
<text text-anchor="middle" x="86" y="-141.8" font-family="Times,serif" font-size="14.00">sarq $1, %rsi</text>
<text text-anchor="middle" x="86" y="-126.8" font-family="Times,serif" font-size="14.00">je 0x40000005f0</text>
</g>
<!-- 1269 -->
<g id="node2" class="node"><title>1269</title>
<polygon fill="none" stroke="black" points="172,-83 0,-83 0,-0 172,-0 172,-83"/>
<text text-anchor="middle" x="86" y="-67.8" font-family="Times,serif" font-size="14.00">0x40000005f0</text>
<text text-anchor="middle" x="86" y="-52.8" font-family="Times,serif" font-size="14.00">_______________________</text>
<text text-anchor="middle" x="86" y="-37.8" font-family="Times,serif" font-size="14.00">_______________________</text>
<text text-anchor="middle" x="86" y="-22.8" font-family="Times,serif" font-size="14.00">popq %rbp</text>
<text text-anchor="middle" x="86" y="-7.8" font-family="Times,serif" font-size="14.00">retq </text>
</g>
<!-- 1268&#45;&gt;1269 -->
<g id="edge1" class="edge"><title>1268&#45;&gt;1269</title>
<path fill="none" stroke="black" d="M86,-118.875C86,-110.125 86,-101.572 86,-93.5432"/>
<polygon fill="black" stroke="black" points="89.5001,-93.3177 86,-83.3178 82.5001,-93.3178 89.5001,-93.3177"/>
</g>
</g>
</svg>
