<?xml version="1.0" encoding="UTF-8" standalone="no"?>
<!DOCTYPE svg PUBLIC "-//W3C//DTD SVG 1.1//EN"
 "http://www.w3.org/Graphics/SVG/1.1/DTD/svg11.dtd">
<!-- Generated by graphviz version 2.38.0 (20140413.2041)
 -->
<!-- Title: %3 Pages: 1 -->
<svg width="187pt" height="2164pt"
 viewBox="0.00 0.00 187.00 2164.00" xmlns="http://www.w3.org/2000/svg" xmlns:xlink="http://www.w3.org/1999/xlink">
<g id="graph0" class="graph" transform="scale(1 1) rotate(0) translate(4 2160)">
<title>%3</title>
<polygon fill="white" stroke="none" points="-4,4 -4,-2160 183,-2160 183,4 -4,4"/>
<!-- 1243 -->
<g id="node1" class="node"><title>1243</title>
<polygon fill="none" stroke="black" points="177,-2156 2,-2156 2,-1908 177,-1908 177,-2156"/>
<text text-anchor="middle" x="89.5" y="-2140.8" font-family="Times,serif" font-size="14.00">0x4000c62470</text>
<text text-anchor="middle" x="89.5" y="-2125.8" font-family="Times,serif" font-size="14.00">_______________________</text>
<text text-anchor="middle" x="89.5" y="-2110.8" font-family="Times,serif" font-size="14.00">_______________________</text>
<text text-anchor="middle" x="89.5" y="-2095.8" font-family="Times,serif" font-size="14.00">pushq %r14</text>
<text text-anchor="middle" x="89.5" y="-2080.8" font-family="Times,serif" font-size="14.00">pushq %r13</text>
<text text-anchor="middle" x="89.5" y="-2065.8" font-family="Times,serif" font-size="14.00">pushq %r12</text>
<text text-anchor="middle" x="89.5" y="-2050.8" font-family="Times,serif" font-size="14.00">pushq %rbp</text>
<text text-anchor="middle" x="89.5" y="-2035.8" font-family="Times,serif" font-size="14.00">movq %rcx, %rbp</text>
<text text-anchor="middle" x="89.5" y="-2020.8" font-family="Times,serif" font-size="14.00">pushq %rbx</text>
<text text-anchor="middle" x="89.5" y="-2005.8" font-family="Times,serif" font-size="14.00">subq $0x90, %rsp</text>
<text text-anchor="middle" x="89.5" y="-1990.8" font-family="Times,serif" font-size="14.00">movq 0x37cabf(%rip), %rax</text>
<text text-anchor="middle" x="89.5" y="-1975.8" font-family="Times,serif" font-size="14.00">movq %rdi, 0x18(%rsp)</text>
<text text-anchor="middle" x="89.5" y="-1960.8" font-family="Times,serif" font-size="14.00">movl %esi, 0x14(%rsp)</text>
<text text-anchor="middle" x="89.5" y="-1945.8" font-family="Times,serif" font-size="14.00">movq %rdx, 8(%rsp)</text>
<text text-anchor="middle" x="89.5" y="-1930.8" font-family="Times,serif" font-size="14.00">testq %rax, %rax</text>
<text text-anchor="middle" x="89.5" y="-1915.8" font-family="Times,serif" font-size="14.00">je 0x4000c62568</text>
</g>
<!-- 1244 -->
<g id="node2" class="node"><title>1244</title>
<polygon fill="none" stroke="black" points="175.5,-1872 3.5,-1872 3.5,-1789 175.5,-1789 175.5,-1872"/>
<text text-anchor="middle" x="89.5" y="-1856.8" font-family="Times,serif" font-size="14.00">0x4000c62568</text>
<text text-anchor="middle" x="89.5" y="-1841.8" font-family="Times,serif" font-size="14.00">_______________________</text>
<text text-anchor="middle" x="89.5" y="-1826.8" font-family="Times,serif" font-size="14.00">_______________________</text>
<text text-anchor="middle" x="89.5" y="-1811.8" font-family="Times,serif" font-size="14.00">xorl %eax, %eax</text>
<text text-anchor="middle" x="89.5" y="-1796.8" font-family="Times,serif" font-size="14.00">jmp 0x4000c624a7</text>
</g>
<!-- 1243&#45;&gt;1244 -->
<g id="edge1" class="edge"><title>1243&#45;&gt;1244</title>
<path fill="none" stroke="black" d="M89.5,-1907.78C89.5,-1898.99 89.5,-1890.47 89.5,-1882.49"/>
<polygon fill="black" stroke="black" points="93.0001,-1882.35 89.5,-1872.35 86.0001,-1882.35 93.0001,-1882.35"/>
</g>
<!-- 1245 -->
<g id="node3" class="node"><title>1245</title>
<polygon fill="none" stroke="black" points="175.5,-1753 3.5,-1753 3.5,-1625 175.5,-1625 175.5,-1753"/>
<text text-anchor="middle" x="89.5" y="-1737.8" font-family="Times,serif" font-size="14.00">0x4000c624a7</text>
<text text-anchor="middle" x="89.5" y="-1722.8" font-family="Times,serif" font-size="14.00">_______________________</text>
<text text-anchor="middle" x="89.5" y="-1707.8" font-family="Times,serif" font-size="14.00">_______________________</text>
<text text-anchor="middle" x="89.5" y="-1692.8" font-family="Times,serif" font-size="14.00">leaq 0x37cbd2(%rip), %rdx</text>
<text text-anchor="middle" x="89.5" y="-1677.8" font-family="Times,serif" font-size="14.00">movzbl %al, %eax</text>
<text text-anchor="middle" x="89.5" y="-1662.8" font-family="Times,serif" font-size="14.00">testq %r9, %r9</text>
<text text-anchor="middle" x="89.5" y="-1647.8" font-family="Times,serif" font-size="14.00">movl %eax, (%rdx)</text>
<text text-anchor="middle" x="89.5" y="-1632.8" font-family="Times,serif" font-size="14.00">je 0x4000c624c4</text>
</g>
<!-- 1244&#45;&gt;1245 -->
<g id="edge2" class="edge"><title>1244&#45;&gt;1245</title>
<path fill="none" stroke="black" d="M89.5,-1788.78C89.5,-1780.74 89.5,-1772.08 89.5,-1763.35"/>
<polygon fill="black" stroke="black" points="93.0001,-1763.09 89.5,-1753.09 86.0001,-1763.09 93.0001,-1763.09"/>
</g>
<!-- 1246 -->
<g id="node4" class="node"><title>1246</title>
<polygon fill="none" stroke="black" points="175.5,-1589 3.5,-1589 3.5,-1446 175.5,-1446 175.5,-1589"/>
<text text-anchor="middle" x="89.5" y="-1573.8" font-family="Times,serif" font-size="14.00">0x4000c624b8</text>
<text text-anchor="middle" x="89.5" y="-1558.8" font-family="Times,serif" font-size="14.00">_______________________</text>
<text text-anchor="middle" x="89.5" y="-1543.8" font-family="Times,serif" font-size="14.00">_______________________</text>
<text text-anchor="middle" x="89.5" y="-1528.8" font-family="Times,serif" font-size="14.00">xorl %edx, %edx</text>
<text text-anchor="middle" x="89.5" y="-1513.8" font-family="Times,serif" font-size="14.00">xorl %esi, %esi</text>
<text text-anchor="middle" x="89.5" y="-1498.8" font-family="Times,serif" font-size="14.00">movq %r9, %rdi</text>
<text text-anchor="middle" x="89.5" y="-1483.8" font-family="Times,serif" font-size="14.00">callq 0x4000c789b0</text>
<text text-anchor="middle" x="89.5" y="-1468.8" font-family="Times,serif" font-size="14.00">_______________________</text>
<text text-anchor="middle" x="89.5" y="-1453.8" font-family="Times,serif" font-size="14.00">CALL __cxa_atexit</text>
</g>
<!-- 1245&#45;&gt;1246 -->
<g id="edge3" class="edge"><title>1245&#45;&gt;1246</title>
<path fill="none" stroke="black" d="M89.5,-1624.88C89.5,-1616.5 89.5,-1607.8 89.5,-1599.17"/>
<polygon fill="black" stroke="black" points="93.0001,-1599.08 89.5,-1589.08 86.0001,-1599.08 93.0001,-1599.08"/>
</g>
<!-- 1259 -->
<g id="node5" class="node"><title>1259</title>
<polygon fill="none" stroke="black" points="179,-1410 0,-1410 0,-1297 179,-1297 179,-1410"/>
<text text-anchor="middle" x="89.5" y="-1394.8" font-family="Times,serif" font-size="14.00">0x4000c624c4</text>
<text text-anchor="middle" x="89.5" y="-1379.8" font-family="Times,serif" font-size="14.00">_______________________</text>
<text text-anchor="middle" x="89.5" y="-1364.8" font-family="Times,serif" font-size="14.00">_______________________</text>
<text text-anchor="middle" x="89.5" y="-1349.8" font-family="Times,serif" font-size="14.00">movq 0x37c99d(%rip), %rdx</text>
<text text-anchor="middle" x="89.5" y="-1334.8" font-family="Times,serif" font-size="14.00">movl (%rdx), %ebx</text>
<text text-anchor="middle" x="89.5" y="-1319.8" font-family="Times,serif" font-size="14.00">andl $2, %ebx</text>
<text text-anchor="middle" x="89.5" y="-1304.8" font-family="Times,serif" font-size="14.00">jne 0x4000c625a7</text>
</g>
<!-- 1246&#45;&gt;1259 -->
<g id="edge4" class="edge"><title>1246&#45;&gt;1259</title>
<path fill="none" stroke="black" d="M89.5,-1445.92C89.5,-1437.43 89.5,-1428.79 89.5,-1420.37"/>
<polygon fill="black" stroke="black" points="93.0001,-1420.24 89.5,-1410.24 86.0001,-1420.24 93.0001,-1420.24"/>
</g>
<!-- 1260 -->
<g id="node6" class="node"><title>1260</title>
<polygon fill="none" stroke="black" points="175.5,-1261 3.5,-1261 3.5,-1178 175.5,-1178 175.5,-1261"/>
<text text-anchor="middle" x="89.5" y="-1245.8" font-family="Times,serif" font-size="14.00">0x4000c624d6</text>
<text text-anchor="middle" x="89.5" y="-1230.8" font-family="Times,serif" font-size="14.00">_______________________</text>
<text text-anchor="middle" x="89.5" y="-1215.8" font-family="Times,serif" font-size="14.00">_______________________</text>
<text text-anchor="middle" x="89.5" y="-1200.8" font-family="Times,serif" font-size="14.00">testq %rbp, %rbp</text>
<text text-anchor="middle" x="89.5" y="-1185.8" font-family="Times,serif" font-size="14.00">je 0x4000c624f0</text>
</g>
<!-- 1259&#45;&gt;1260 -->
<g id="edge5" class="edge"><title>1259&#45;&gt;1260</title>
<path fill="none" stroke="black" d="M89.5,-1296.9C89.5,-1288.39 89.5,-1279.63 89.5,-1271.23"/>
<polygon fill="black" stroke="black" points="93.0001,-1271.19 89.5,-1261.19 86.0001,-1271.19 93.0001,-1271.19"/>
</g>
<!-- 1261 -->
<g id="node7" class="node"><title>1261</title>
<polygon fill="none" stroke="black" points="178.5,-1142 0.5,-1142 0.5,-984 178.5,-984 178.5,-1142"/>
<text text-anchor="middle" x="89.5" y="-1126.8" font-family="Times,serif" font-size="14.00">0x4000c624db</text>
<text text-anchor="middle" x="89.5" y="-1111.8" font-family="Times,serif" font-size="14.00">_______________________</text>
<text text-anchor="middle" x="89.5" y="-1096.8" font-family="Times,serif" font-size="14.00">_______________________</text>
<text text-anchor="middle" x="89.5" y="-1081.8" font-family="Times,serif" font-size="14.00">movq 0x37c9d6(%rip), %rax</text>
<text text-anchor="middle" x="89.5" y="-1066.8" font-family="Times,serif" font-size="14.00">movq 8(%rsp), %rsi</text>
<text text-anchor="middle" x="89.5" y="-1051.8" font-family="Times,serif" font-size="14.00">movl 0x14(%rsp), %edi</text>
<text text-anchor="middle" x="89.5" y="-1036.8" font-family="Times,serif" font-size="14.00">movq (%rax), %rdx</text>
<text text-anchor="middle" x="89.5" y="-1021.8" font-family="Times,serif" font-size="14.00">callq *%rbp</text>
<text text-anchor="middle" x="89.5" y="-1006.8" font-family="Times,serif" font-size="14.00">_______________________</text>
<text text-anchor="middle" x="89.5" y="-991.8" font-family="Times,serif" font-size="14.00">CALL __libc_csu_init</text>
</g>
<!-- 1260&#45;&gt;1261 -->
<g id="edge6" class="edge"><title>1260&#45;&gt;1261</title>
<path fill="none" stroke="black" d="M89.5,-1177.91C89.5,-1169.92 89.5,-1161.25 89.5,-1152.38"/>
<polygon fill="black" stroke="black" points="93.0001,-1152.3 89.5,-1142.3 86.0001,-1152.3 93.0001,-1152.3"/>
</g>
<!-- 1272 -->
<g id="node8" class="node"><title>1272</title>
<polygon fill="none" stroke="black" points="178.5,-948 0.5,-948 0.5,-835 178.5,-835 178.5,-948"/>
<text text-anchor="middle" x="89.5" y="-932.8" font-family="Times,serif" font-size="14.00">0x4000c624f0</text>
<text text-anchor="middle" x="89.5" y="-917.8" font-family="Times,serif" font-size="14.00">_______________________</text>
<text text-anchor="middle" x="89.5" y="-902.8" font-family="Times,serif" font-size="14.00">_______________________</text>
<text text-anchor="middle" x="89.5" y="-887.8" font-family="Times,serif" font-size="14.00">movq 0x37c971(%rip), %rax</text>
<text text-anchor="middle" x="89.5" y="-872.8" font-family="Times,serif" font-size="14.00">movl 0x160(%rax), %r14d</text>
<text text-anchor="middle" x="89.5" y="-857.8" font-family="Times,serif" font-size="14.00">testl %r14d, %r14d</text>
<text text-anchor="middle" x="89.5" y="-842.8" font-family="Times,serif" font-size="14.00">jne 0x4000c625fb</text>
</g>
<!-- 1261&#45;&gt;1272 -->
<g id="edge7" class="edge"><title>1261&#45;&gt;1272</title>
<path fill="none" stroke="black" d="M89.5,-983.7C89.5,-975.19 89.5,-966.592 89.5,-958.254"/>
<polygon fill="black" stroke="black" points="93.0001,-958.234 89.5,-948.234 86.0001,-958.234 93.0001,-958.234"/>
</g>
<!-- 1273 -->
<g id="node9" class="node"><title>1273</title>
<polygon fill="none" stroke="black" points="175.5,-799 3.5,-799 3.5,-716 175.5,-716 175.5,-799"/>
<text text-anchor="middle" x="89.5" y="-783.8" font-family="Times,serif" font-size="14.00">0x4000c62507</text>
<text text-anchor="middle" x="89.5" y="-768.8" font-family="Times,serif" font-size="14.00">_______________________</text>
<text text-anchor="middle" x="89.5" y="-753.8" font-family="Times,serif" font-size="14.00">_______________________</text>
<text text-anchor="middle" x="89.5" y="-738.8" font-family="Times,serif" font-size="14.00">testl %ebx, %ebx</text>
<text text-anchor="middle" x="89.5" y="-723.8" font-family="Times,serif" font-size="14.00">jne 0x4000c625d8</text>
</g>
<!-- 1272&#45;&gt;1273 -->
<g id="edge8" class="edge"><title>1272&#45;&gt;1273</title>
<path fill="none" stroke="black" d="M89.5,-834.903C89.5,-826.387 89.5,-817.635 89.5,-809.231"/>
<polygon fill="black" stroke="black" points="93.0001,-809.194 89.5,-799.194 86.0001,-809.194 93.0001,-809.194"/>
</g>
<!-- 1274 -->
<g id="node10" class="node"><title>1274</title>
<polygon fill="none" stroke="black" points="175.5,-680 3.5,-680 3.5,-567 175.5,-567 175.5,-680"/>
<text text-anchor="middle" x="89.5" y="-664.8" font-family="Times,serif" font-size="14.00">0x4000c6250f</text>
<text text-anchor="middle" x="89.5" y="-649.8" font-family="Times,serif" font-size="14.00">_______________________</text>
<text text-anchor="middle" x="89.5" y="-634.8" font-family="Times,serif" font-size="14.00">_______________________</text>
<text text-anchor="middle" x="89.5" y="-619.8" font-family="Times,serif" font-size="14.00">leaq 0x20(%rsp), %rdi</text>
<text text-anchor="middle" x="89.5" y="-604.8" font-family="Times,serif" font-size="14.00">callq 0x4000c757b0</text>
<text text-anchor="middle" x="89.5" y="-589.8" font-family="Times,serif" font-size="14.00">_______________________</text>
<text text-anchor="middle" x="89.5" y="-574.8" font-family="Times,serif" font-size="14.00">CALL _setjmp</text>
</g>
<!-- 1273&#45;&gt;1274 -->
<g id="edge9" class="edge"><title>1273&#45;&gt;1274</title>
<path fill="none" stroke="black" d="M89.5,-715.819C89.5,-707.761 89.5,-699.109 89.5,-690.458"/>
<polygon fill="black" stroke="black" points="93.0001,-690.339 89.5,-680.339 86.0001,-690.339 93.0001,-690.339"/>
</g>
<!-- 1279 -->
<g id="node11" class="node"><title>1279</title>
<polygon fill="none" stroke="black" points="175.5,-531 3.5,-531 3.5,-448 175.5,-448 175.5,-531"/>
<text text-anchor="middle" x="89.5" y="-515.8" font-family="Times,serif" font-size="14.00">0x4000c62519</text>
<text text-anchor="middle" x="89.5" y="-500.8" font-family="Times,serif" font-size="14.00">_______________________</text>
<text text-anchor="middle" x="89.5" y="-485.8" font-family="Times,serif" font-size="14.00">_______________________</text>
<text text-anchor="middle" x="89.5" y="-470.8" font-family="Times,serif" font-size="14.00">testl %eax, %eax</text>
<text text-anchor="middle" x="89.5" y="-455.8" font-family="Times,serif" font-size="14.00">jne 0x4000c6256f</text>
</g>
<!-- 1274&#45;&gt;1279 -->
<g id="edge10" class="edge"><title>1274&#45;&gt;1279</title>
<path fill="none" stroke="black" d="M89.5,-566.903C89.5,-558.387 89.5,-549.635 89.5,-541.231"/>
<polygon fill="black" stroke="black" points="93.0001,-541.194 89.5,-531.194 86.0001,-541.194 93.0001,-541.194"/>
</g>
<!-- 1280 -->
<g id="node12" class="node"><title>1280</title>
<polygon fill="none" stroke="black" points="178,-412 1,-412 1,-149 178,-149 178,-412"/>
<text text-anchor="middle" x="89.5" y="-396.8" font-family="Times,serif" font-size="14.00">0x4000c6251d</text>
<text text-anchor="middle" x="89.5" y="-381.8" font-family="Times,serif" font-size="14.00">_______________________</text>
<text text-anchor="middle" x="89.5" y="-366.8" font-family="Times,serif" font-size="14.00">_______________________</text>
<text text-anchor="middle" x="89.5" y="-351.8" font-family="Times,serif" font-size="14.00">movq %fs:0x300, %rax</text>
<text text-anchor="middle" x="89.5" y="-336.8" font-family="Times,serif" font-size="14.00">movq %rax, 0x68(%rsp)</text>
<text text-anchor="middle" x="89.5" y="-321.8" font-family="Times,serif" font-size="14.00">movq %fs:0x2f8, %rax</text>
<text text-anchor="middle" x="89.5" y="-306.8" font-family="Times,serif" font-size="14.00">movq %rax, 0x70(%rsp)</text>
<text text-anchor="middle" x="89.5" y="-291.8" font-family="Times,serif" font-size="14.00">leaq 0x20(%rsp), %rax</text>
<text text-anchor="middle" x="89.5" y="-276.8" font-family="Times,serif" font-size="14.00">movq %rax, %fs:0x300</text>
<text text-anchor="middle" x="89.5" y="-261.8" font-family="Times,serif" font-size="14.00">movq 0x37c96a(%rip), %rax</text>
<text text-anchor="middle" x="89.5" y="-246.8" font-family="Times,serif" font-size="14.00">movq 8(%rsp), %rsi</text>
<text text-anchor="middle" x="89.5" y="-231.8" font-family="Times,serif" font-size="14.00">movl 0x14(%rsp), %edi</text>
<text text-anchor="middle" x="89.5" y="-216.8" font-family="Times,serif" font-size="14.00">movq (%rax), %rdx</text>
<text text-anchor="middle" x="89.5" y="-201.8" font-family="Times,serif" font-size="14.00">movq 0x18(%rsp), %rax</text>
<text text-anchor="middle" x="89.5" y="-186.8" font-family="Times,serif" font-size="14.00">callq *%rax</text>
<text text-anchor="middle" x="89.5" y="-171.8" font-family="Times,serif" font-size="14.00">_______________________</text>
<text text-anchor="middle" x="89.5" y="-156.8" font-family="Times,serif" font-size="14.00">CALL main</text>
</g>
<!-- 1279&#45;&gt;1280 -->
<g id="edge11" class="edge"><title>1279&#45;&gt;1280</title>
<path fill="none" stroke="black" d="M89.5,-447.603C89.5,-439.899 89.5,-431.453 89.5,-422.581"/>
<polygon fill="black" stroke="black" points="93.0001,-422.399 89.5,-412.399 86.0001,-422.399 93.0001,-422.399"/>
</g>
<!-- 1657 -->
<g id="node13" class="node"><title>1657</title>
<polygon fill="none" stroke="black" points="175.5,-113 3.5,-113 3.5,-0 175.5,-0 175.5,-113"/>
<text text-anchor="middle" x="89.5" y="-97.8" font-family="Times,serif" font-size="14.00">0x4000c62561</text>
<text text-anchor="middle" x="89.5" y="-82.8" font-family="Times,serif" font-size="14.00">_______________________</text>
<text text-anchor="middle" x="89.5" y="-67.8" font-family="Times,serif" font-size="14.00">_______________________</text>
<text text-anchor="middle" x="89.5" y="-52.8" font-family="Times,serif" font-size="14.00">movl %eax, %edi</text>
<text text-anchor="middle" x="89.5" y="-37.8" font-family="Times,serif" font-size="14.00">callq 0x4000c78760</text>
<text text-anchor="middle" x="89.5" y="-22.8" font-family="Times,serif" font-size="14.00">_______________________</text>
<text text-anchor="middle" x="89.5" y="-7.8" font-family="Times,serif" font-size="14.00">CALL exit</text>
</g>
<!-- 1280&#45;&gt;1657 -->
<g id="edge12" class="edge"><title>1280&#45;&gt;1657</title>
<path fill="none" stroke="black" d="M89.5,-148.757C89.5,-140.021 89.5,-131.453 89.5,-123.28"/>
<polygon fill="black" stroke="black" points="93.0001,-123.155 89.5,-113.155 86.0001,-123.155 93.0001,-123.155"/>
</g>
</g>
</svg>
