<?xml version="1.0" encoding="UTF-8" standalone="no"?>
<!DOCTYPE svg PUBLIC "-//W3C//DTD SVG 1.1//EN"
 "http://www.w3.org/Graphics/SVG/1.1/DTD/svg11.dtd">
<!-- Generated by graphviz version 2.38.0 (20140413.2041)
 -->
<!-- Title: %3 Pages: 1 -->
<svg width="423pt" height="1359pt"
 viewBox="0.00 0.00 422.58 1359.00" xmlns="http://www.w3.org/2000/svg" xmlns:xlink="http://www.w3.org/1999/xlink">
<g id="graph0" class="graph" transform="scale(1 1) rotate(0) translate(4 1355)">
<title>%3</title>
<polygon fill="white" stroke="none" points="-4,4 -4,-1355 418.579,-1355 418.579,4 -4,4"/>
<!-- 1177 -->
<g id="node1" class="node"><title>1177</title>
<polygon fill="none" stroke="black" points="368,-1351 192,-1351 192,-1058 368,-1058 368,-1351"/>
<text text-anchor="middle" x="280" y="-1335.8" font-family="Times,serif" font-size="14.00">0x4000a12660</text>
<text text-anchor="middle" x="280" y="-1320.8" font-family="Times,serif" font-size="14.00">_______________________</text>
<text text-anchor="middle" x="280" y="-1305.8" font-family="Times,serif" font-size="14.00">_______________________</text>
<text text-anchor="middle" x="280" y="-1290.8" font-family="Times,serif" font-size="14.00">pushq %r15</text>
<text text-anchor="middle" x="280" y="-1275.8" font-family="Times,serif" font-size="14.00">pushq %r14</text>
<text text-anchor="middle" x="280" y="-1260.8" font-family="Times,serif" font-size="14.00">movq %rdi, %r14</text>
<text text-anchor="middle" x="280" y="-1245.8" font-family="Times,serif" font-size="14.00">pushq %r13</text>
<text text-anchor="middle" x="280" y="-1230.8" font-family="Times,serif" font-size="14.00">pushq %r12</text>
<text text-anchor="middle" x="280" y="-1215.8" font-family="Times,serif" font-size="14.00">movq %rcx, %r13</text>
<text text-anchor="middle" x="280" y="-1200.8" font-family="Times,serif" font-size="14.00">pushq %rbp</text>
<text text-anchor="middle" x="280" y="-1185.8" font-family="Times,serif" font-size="14.00">pushq %rbx</text>
<text text-anchor="middle" x="280" y="-1170.8" font-family="Times,serif" font-size="14.00">movl %esi, %ebp</text>
<text text-anchor="middle" x="280" y="-1155.8" font-family="Times,serif" font-size="14.00">movq %rdx, %r12</text>
<text text-anchor="middle" x="280" y="-1140.8" font-family="Times,serif" font-size="14.00">subq $8, %rsp</text>
<text text-anchor="middle" x="280" y="-1125.8" font-family="Times,serif" font-size="14.00">movq 0x140(%rdi), %rbx</text>
<text text-anchor="middle" x="280" y="-1110.8" font-family="Times,serif" font-size="14.00">movq 0x148(%rdi), %r15</text>
<text text-anchor="middle" x="280" y="-1095.8" font-family="Times,serif" font-size="14.00">movq 0x214312(%rip), %rdi</text>
<text text-anchor="middle" x="280" y="-1080.8" font-family="Times,serif" font-size="14.00">testq %rdi, %rdi</text>
<text text-anchor="middle" x="280" y="-1065.8" font-family="Times,serif" font-size="14.00">jne 0x4000a126ff</text>
</g>
<!-- 1178 -->
<g id="node2" class="node"><title>1178</title>
<polygon fill="none" stroke="black" points="366,-1022 194,-1022 194,-939 366,-939 366,-1022"/>
<text text-anchor="middle" x="280" y="-1006.8" font-family="Times,serif" font-size="14.00">0x4000a12693</text>
<text text-anchor="middle" x="280" y="-991.8" font-family="Times,serif" font-size="14.00">_______________________</text>
<text text-anchor="middle" x="280" y="-976.8" font-family="Times,serif" font-size="14.00">_______________________</text>
<text text-anchor="middle" x="280" y="-961.8" font-family="Times,serif" font-size="14.00">testq %rbx, %rbx</text>
<text text-anchor="middle" x="280" y="-946.8" font-family="Times,serif" font-size="14.00">je 0x4000a126b0</text>
</g>
<!-- 1177&#45;&gt;1178 -->
<g id="edge1" class="edge"><title>1177&#45;&gt;1178</title>
<path fill="none" stroke="black" d="M280,-1057.9C280,-1048.92 280,-1040.28 280,-1032.24"/>
<polygon fill="black" stroke="black" points="283.5,-1032.04 280,-1022.04 276.5,-1032.04 283.5,-1032.04"/>
</g>
<!-- 1179 -->
<g id="node3" class="node"><title>1179</title>
<polygon fill="none" stroke="black" points="366,-903 194,-903 194,-805 366,-805 366,-903"/>
<text text-anchor="middle" x="280" y="-887.8" font-family="Times,serif" font-size="14.00">0x4000a126b0</text>
<text text-anchor="middle" x="280" y="-872.8" font-family="Times,serif" font-size="14.00">_______________________</text>
<text text-anchor="middle" x="280" y="-857.8" font-family="Times,serif" font-size="14.00">_______________________</text>
<text text-anchor="middle" x="280" y="-842.8" font-family="Times,serif" font-size="14.00">movl 0x2c0(%r14), %eax</text>
<text text-anchor="middle" x="280" y="-827.8" font-family="Times,serif" font-size="14.00">leal &#45;1(%rax), %ebx</text>
<text text-anchor="middle" x="280" y="-812.8" font-family="Times,serif" font-size="14.00">jmp 0x4000a126c3</text>
</g>
<!-- 1178&#45;&gt;1179 -->
<g id="edge2" class="edge"><title>1178&#45;&gt;1179</title>
<path fill="none" stroke="black" d="M280,-938.734C280,-930.579 280,-921.862 280,-913.249"/>
<polygon fill="black" stroke="black" points="283.5,-913.224 280,-903.224 276.5,-913.224 283.5,-913.224"/>
</g>
<!-- 1180 -->
<g id="node4" class="node"><title>1180</title>
<polygon fill="none" stroke="black" points="366,-769 194,-769 194,-686 366,-686 366,-769"/>
<text text-anchor="middle" x="280" y="-753.8" font-family="Times,serif" font-size="14.00">0x4000a126c3</text>
<text text-anchor="middle" x="280" y="-738.8" font-family="Times,serif" font-size="14.00">_______________________</text>
<text text-anchor="middle" x="280" y="-723.8" font-family="Times,serif" font-size="14.00">_______________________</text>
<text text-anchor="middle" x="280" y="-708.8" font-family="Times,serif" font-size="14.00">cmpl $0xff, %ebx</text>
<text text-anchor="middle" x="280" y="-693.8" font-family="Times,serif" font-size="14.00">je 0x4000a126f0</text>
</g>
<!-- 1179&#45;&gt;1180 -->
<g id="edge3" class="edge"><title>1179&#45;&gt;1180</title>
<path fill="none" stroke="black" d="M280,-804.865C280,-796.498 280,-787.771 280,-779.335"/>
<polygon fill="black" stroke="black" points="283.5,-779.231 280,-769.231 276.5,-779.231 283.5,-779.231"/>
</g>
<!-- 1181 -->
<g id="node5" class="node"><title>1181</title>
<polygon fill="none" stroke="black" points="176,-642.5 1.42109e-14,-642.5 1.42109e-14,-484.5 176,-484.5 176,-642.5"/>
<text text-anchor="middle" x="88" y="-627.3" font-family="Times,serif" font-size="14.00">0x4000a126c8</text>
<text text-anchor="middle" x="88" y="-612.3" font-family="Times,serif" font-size="14.00">_______________________</text>
<text text-anchor="middle" x="88" y="-597.3" font-family="Times,serif" font-size="14.00">_______________________</text>
<text text-anchor="middle" x="88" y="-582.3" font-family="Times,serif" font-size="14.00">movq 0x3b8(%r14), %rdx</text>
<text text-anchor="middle" x="88" y="-567.3" font-family="Times,serif" font-size="14.00">movl %ebx, %eax</text>
<text text-anchor="middle" x="88" y="-552.3" font-family="Times,serif" font-size="14.00">movq (%rdx, %rax, 8), %rdi</text>
<text text-anchor="middle" x="88" y="-537.3" font-family="Times,serif" font-size="14.00">testb $8, 0x314(%rdi)</text>
<text text-anchor="middle" x="88" y="-522.3" font-family="Times,serif" font-size="14.00">jne 0x4000a126c0</text>
<text text-anchor="middle" x="88" y="-507.3" font-family="Times,serif" font-size="14.00">_______________________</text>
<text text-anchor="middle" x="88" y="-492.3" font-family="Times,serif" font-size="14.00">LOOP 0x4000a126c3</text>
</g>
<!-- 1180&#45;&gt;1181 -->
<g id="edge4" class="edge"><title>1180&#45;&gt;1181</title>
<path fill="none" stroke="black" d="M228.384,-685.624C214.217,-674.219 198.926,-661.735 185,-650 184.635,-649.693 184.27,-649.384 183.904,-649.076"/>
<polygon fill="black" stroke="black" points="186.032,-646.291 176.143,-642.489 181.502,-651.628 186.032,-646.291"/>
</g>
<!-- 1240 -->
<g id="node6" class="node"><title>1240</title>
<polygon fill="none" stroke="black" points="366,-650 194,-650 194,-477 366,-477 366,-650"/>
<text text-anchor="middle" x="280" y="-634.8" font-family="Times,serif" font-size="14.00">0x4000a126f0</text>
<text text-anchor="middle" x="280" y="-619.8" font-family="Times,serif" font-size="14.00">_______________________</text>
<text text-anchor="middle" x="280" y="-604.8" font-family="Times,serif" font-size="14.00">_______________________</text>
<text text-anchor="middle" x="280" y="-589.8" font-family="Times,serif" font-size="14.00">addq $8, %rsp</text>
<text text-anchor="middle" x="280" y="-574.8" font-family="Times,serif" font-size="14.00">popq %rbx</text>
<text text-anchor="middle" x="280" y="-559.8" font-family="Times,serif" font-size="14.00">popq %rbp</text>
<text text-anchor="middle" x="280" y="-544.8" font-family="Times,serif" font-size="14.00">popq %r12</text>
<text text-anchor="middle" x="280" y="-529.8" font-family="Times,serif" font-size="14.00">popq %r13</text>
<text text-anchor="middle" x="280" y="-514.8" font-family="Times,serif" font-size="14.00">popq %r14</text>
<text text-anchor="middle" x="280" y="-499.8" font-family="Times,serif" font-size="14.00">popq %r15</text>
<text text-anchor="middle" x="280" y="-484.8" font-family="Times,serif" font-size="14.00">retq </text>
</g>
<!-- 1180&#45;&gt;1240 -->
<g id="edge5" class="edge"><title>1180&#45;&gt;1240</title>
<path fill="none" stroke="black" d="M280,-685.621C280,-677.721 280,-669.14 280,-660.316"/>
<polygon fill="black" stroke="black" points="283.5,-660.273 280,-650.273 276.5,-660.273 283.5,-660.273"/>
</g>
<!-- 1182 -->
<g id="node7" class="node"><title>1182</title>
<polygon fill="none" stroke="black" points="270,-441 98,-441 98,-268 270,-268 270,-441"/>
<text text-anchor="middle" x="184" y="-425.8" font-family="Times,serif" font-size="14.00">0x4000a126de</text>
<text text-anchor="middle" x="184" y="-410.8" font-family="Times,serif" font-size="14.00">_______________________</text>
<text text-anchor="middle" x="184" y="-395.8" font-family="Times,serif" font-size="14.00">_______________________</text>
<text text-anchor="middle" x="184" y="-380.8" font-family="Times,serif" font-size="14.00">movq %r13, %rcx</text>
<text text-anchor="middle" x="184" y="-365.8" font-family="Times,serif" font-size="14.00">movq %r12, %rdx</text>
<text text-anchor="middle" x="184" y="-350.8" font-family="Times,serif" font-size="14.00">movl %ebp, %esi</text>
<text text-anchor="middle" x="184" y="-335.8" font-family="Times,serif" font-size="14.00">callq 0x4000a12540</text>
<text text-anchor="middle" x="184" y="-320.8" font-family="Times,serif" font-size="14.00">_______________________</text>
<text text-anchor="middle" x="184" y="-305.8" font-family="Times,serif" font-size="14.00">LOOP 0x4000a126c3</text>
<text text-anchor="middle" x="184" y="-290.8" font-family="Times,serif" font-size="14.00">_______________________</text>
<text text-anchor="middle" x="184" y="-275.8" font-family="Times,serif" font-size="14.00">CALL 0x4000a12540</text>
</g>
<!-- 1181&#45;&gt;1182 -->
<g id="edge6" class="edge"><title>1181&#45;&gt;1182</title>
<path fill="none" stroke="black" d="M124.293,-484.242C129.447,-473.13 134.792,-461.605 140.071,-450.223"/>
<polygon fill="black" stroke="black" points="143.253,-451.68 144.285,-441.135 136.903,-448.735 143.253,-451.68"/>
</g>
<!-- 1187 -->
<g id="node8" class="node"><title>1187</title>
<polygon fill="none" stroke="black" points="318,-232 146,-232 146,-134 318,-134 318,-232"/>
<text text-anchor="middle" x="232" y="-216.8" font-family="Times,serif" font-size="14.00">0x4000a126eb</text>
<text text-anchor="middle" x="232" y="-201.8" font-family="Times,serif" font-size="14.00">_______________________</text>
<text text-anchor="middle" x="232" y="-186.8" font-family="Times,serif" font-size="14.00">_______________________</text>
<text text-anchor="middle" x="232" y="-171.8" font-family="Times,serif" font-size="14.00">jmp 0x4000a126c0</text>
<text text-anchor="middle" x="232" y="-156.8" font-family="Times,serif" font-size="14.00">_______________________</text>
<text text-anchor="middle" x="232" y="-141.8" font-family="Times,serif" font-size="14.00">LOOP 0x4000a126c3</text>
</g>
<!-- 1182&#45;&gt;1187 -->
<g id="edge7" class="edge"><title>1182&#45;&gt;1187</title>
<path fill="none" stroke="black" d="M208.281,-267.757C210.728,-259.117 213.171,-250.491 215.508,-242.238"/>
<polygon fill="black" stroke="black" points="218.942,-242.956 218.299,-232.38 212.207,-241.048 218.942,-242.956"/>
</g>
<!-- 1188 -->
<g id="node9" class="node"><title>1188</title>
<polygon fill="none" stroke="black" points="399,-98 227,-98 227,-0 399,-0 399,-98"/>
<text text-anchor="middle" x="313" y="-82.8" font-family="Times,serif" font-size="14.00">0x4000a126c0</text>
<text text-anchor="middle" x="313" y="-67.8" font-family="Times,serif" font-size="14.00">_______________________</text>
<text text-anchor="middle" x="313" y="-52.8" font-family="Times,serif" font-size="14.00">_______________________</text>
<text text-anchor="middle" x="313" y="-37.8" font-family="Times,serif" font-size="14.00">subl $1, %ebx</text>
<text text-anchor="middle" x="313" y="-22.8" font-family="Times,serif" font-size="14.00">_______________________</text>
<text text-anchor="middle" x="313" y="-7.8" font-family="Times,serif" font-size="14.00">LOOP 0x4000a126c3</text>
</g>
<!-- 1187&#45;&gt;1188 -->
<g id="edge8" class="edge"><title>1187&#45;&gt;1188</title>
<path fill="none" stroke="black" d="M261.472,-133.972C266.888,-125.145 272.589,-115.855 278.145,-106.8"/>
<polygon fill="black" stroke="black" points="281.167,-108.568 283.414,-98.2139 275.201,-104.907 281.167,-108.568"/>
</g>
<!-- 1188&#45;&gt;1180 -->
<g id="edge9" class="edge"><title>1188&#45;&gt;1180</title>
<path fill="none" stroke="black" d="M334.234,-98.0339C377.602,-203.736 464.974,-462.028 375,-650 369.929,-660.595 362.595,-670.19 354.217,-678.721"/>
<polygon fill="black" stroke="black" points="351.786,-676.203 346.961,-685.636 356.615,-681.271 351.786,-676.203"/>
</g>
</g>
</svg>
