<?xml version="1.0" encoding="UTF-8" standalone="no"?>
<!DOCTYPE svg PUBLIC "-//W3C//DTD SVG 1.1//EN"
 "http://www.w3.org/Graphics/SVG/1.1/DTD/svg11.dtd">
<!-- Generated by graphviz version 2.38.0 (20140413.2041)
 -->
<!-- Title: %3 Pages: 1 -->
<svg width="370pt" height="583pt"
 viewBox="0.00 0.00 370.00 583.00" xmlns="http://www.w3.org/2000/svg" xmlns:xlink="http://www.w3.org/1999/xlink">
<g id="graph0" class="graph" transform="scale(1 1) rotate(0) translate(4 579)">
<title>%3</title>
<polygon fill="white" stroke="none" points="-4,4 -4,-579 366,-579 366,4 -4,4"/>
<!-- 329 -->
<g id="node1" class="node"><title>329</title>
<polygon fill="none" stroke="black" points="267,-575 95,-575 95,-492 267,-492 267,-575"/>
<text text-anchor="middle" x="181" y="-559.8" font-family="Times,serif" font-size="14.00">0x4000a12d90</text>
<text text-anchor="middle" x="181" y="-544.8" font-family="Times,serif" font-size="14.00">_______________________</text>
<text text-anchor="middle" x="181" y="-529.8" font-family="Times,serif" font-size="14.00">_______________________</text>
<text text-anchor="middle" x="181" y="-514.8" font-family="Times,serif" font-size="14.00">testq %rsi, %rsi</text>
<text text-anchor="middle" x="181" y="-499.8" font-family="Times,serif" font-size="14.00">je 0x4000a12de8</text>
</g>
<!-- 330 -->
<g id="node2" class="node"><title>330</title>
<polygon fill="none" stroke="black" points="269,-456 93,-456 93,-358 269,-358 269,-456"/>
<text text-anchor="middle" x="181" y="-440.8" font-family="Times,serif" font-size="14.00">0x4000a12de8</text>
<text text-anchor="middle" x="181" y="-425.8" font-family="Times,serif" font-size="14.00">_______________________</text>
<text text-anchor="middle" x="181" y="-410.8" font-family="Times,serif" font-size="14.00">_______________________</text>
<text text-anchor="middle" x="181" y="-395.8" font-family="Times,serif" font-size="14.00">movq 0x2131f1(%rip), %rax</text>
<text text-anchor="middle" x="181" y="-380.8" font-family="Times,serif" font-size="14.00">cmpq $0, 8(%rax)</text>
<text text-anchor="middle" x="181" y="-365.8" font-family="Times,serif" font-size="14.00">jne 0x4000a12db0</text>
</g>
<!-- 329&#45;&gt;330 -->
<g id="edge1" class="edge"><title>329&#45;&gt;330</title>
<path fill="none" stroke="black" d="M181,-491.734C181,-483.579 181,-474.862 181,-466.249"/>
<polygon fill="black" stroke="black" points="184.5,-466.224 181,-456.224 177.5,-466.224 184.5,-466.224"/>
</g>
<!-- 331 -->
<g id="node3" class="node"><title>331</title>
<polygon fill="none" stroke="black" points="172,-322 0,-322 0,-224 172,-224 172,-322"/>
<text text-anchor="middle" x="86" y="-306.8" font-family="Times,serif" font-size="14.00">0x4000a12df6</text>
<text text-anchor="middle" x="86" y="-291.8" font-family="Times,serif" font-size="14.00">_______________________</text>
<text text-anchor="middle" x="86" y="-276.8" font-family="Times,serif" font-size="14.00">_______________________</text>
<text text-anchor="middle" x="86" y="-261.8" font-family="Times,serif" font-size="14.00">testq %rdi, %rdi</text>
<text text-anchor="middle" x="86" y="-246.8" font-family="Times,serif" font-size="14.00">movl $1, (%rax)</text>
<text text-anchor="middle" x="86" y="-231.8" font-family="Times,serif" font-size="14.00">jne 0x4000a12dbb</text>
</g>
<!-- 330&#45;&gt;331 -->
<g id="edge2" class="edge"><title>330&#45;&gt;331</title>
<path fill="none" stroke="black" d="M146.434,-357.972C140.016,-349.054 133.258,-339.663 126.677,-330.52"/>
<polygon fill="black" stroke="black" points="129.382,-328.286 120.699,-322.214 123.7,-332.375 129.382,-328.286"/>
</g>
<!-- 573 -->
<g id="node4" class="node"><title>573</title>
<polygon fill="none" stroke="black" points="362,-314.5 190,-314.5 190,-231.5 362,-231.5 362,-314.5"/>
<text text-anchor="middle" x="276" y="-299.3" font-family="Times,serif" font-size="14.00">0x4000a12db0</text>
<text text-anchor="middle" x="276" y="-284.3" font-family="Times,serif" font-size="14.00">_______________________</text>
<text text-anchor="middle" x="276" y="-269.3" font-family="Times,serif" font-size="14.00">_______________________</text>
<text text-anchor="middle" x="276" y="-254.3" font-family="Times,serif" font-size="14.00">testq %rdi, %rdi</text>
<text text-anchor="middle" x="276" y="-239.3" font-family="Times,serif" font-size="14.00">je 0x4000a12e10</text>
</g>
<!-- 330&#45;&gt;573 -->
<g id="edge3" class="edge"><title>330&#45;&gt;573</title>
<path fill="none" stroke="black" d="M215.566,-357.972C223.763,-346.583 232.515,-334.421 240.742,-322.99"/>
<polygon fill="black" stroke="black" points="243.624,-324.978 246.624,-314.817 237.942,-320.889 243.624,-324.978"/>
</g>
<!-- 332 -->
<g id="node5" class="node"><title>332</title>
<polygon fill="none" stroke="black" points="172,-188 0,-188 0,-0 172,-0 172,-188"/>
<text text-anchor="middle" x="86" y="-172.8" font-family="Times,serif" font-size="14.00">0x4000a12dbb</text>
<text text-anchor="middle" x="86" y="-157.8" font-family="Times,serif" font-size="14.00">_______________________</text>
<text text-anchor="middle" x="86" y="-142.8" font-family="Times,serif" font-size="14.00">_______________________</text>
<text text-anchor="middle" x="86" y="-127.8" font-family="Times,serif" font-size="14.00">leaq (%rsi, %rsi, 8), %rdx</text>
<text text-anchor="middle" x="86" y="-112.8" font-family="Times,serif" font-size="14.00">leaq 0x21327a(%rip), %rcx</text>
<text text-anchor="middle" x="86" y="-97.8" font-family="Times,serif" font-size="14.00">movq %rdi, 0x20(%rax)</text>
<text text-anchor="middle" x="86" y="-82.8" font-family="Times,serif" font-size="14.00">shlq $4, %rdx</text>
<text text-anchor="middle" x="86" y="-67.8" font-family="Times,serif" font-size="14.00">movq (%rcx, %rdx), %rdx</text>
<text text-anchor="middle" x="86" y="-52.8" font-family="Times,serif" font-size="14.00">leaq &#45;0x59(%rip), %rcx</text>
<text text-anchor="middle" x="86" y="-37.8" font-family="Times,serif" font-size="14.00">movq %rcx, 0x10(%rax)</text>
<text text-anchor="middle" x="86" y="-22.8" font-family="Times,serif" font-size="14.00">movq %rdx, 8(%rax)</text>
<text text-anchor="middle" x="86" y="-7.8" font-family="Times,serif" font-size="14.00">retq </text>
</g>
<!-- 331&#45;&gt;332 -->
<g id="edge4" class="edge"><title>331&#45;&gt;332</title>
<path fill="none" stroke="black" d="M86,-223.634C86,-215.689 86,-207.196 86,-198.504"/>
<polygon fill="black" stroke="black" points="89.5001,-198.23 86,-188.23 82.5001,-198.23 89.5001,-198.23"/>
</g>
<!-- 574 -->
<g id="node6" class="node"><title>574</title>
<polygon fill="none" stroke="black" points="362,-128 190,-128 190,-60 362,-60 362,-128"/>
<text text-anchor="middle" x="276" y="-112.8" font-family="Times,serif" font-size="14.00">0x4000a12e10</text>
<text text-anchor="middle" x="276" y="-97.8" font-family="Times,serif" font-size="14.00">_______________________</text>
<text text-anchor="middle" x="276" y="-82.8" font-family="Times,serif" font-size="14.00">_______________________</text>
<text text-anchor="middle" x="276" y="-67.8" font-family="Times,serif" font-size="14.00">retq </text>
</g>
<!-- 573&#45;&gt;574 -->
<g id="edge5" class="edge"><title>573&#45;&gt;574</title>
<path fill="none" stroke="black" d="M276,-231.393C276,-203.486 276,-166.488 276,-138.068"/>
<polygon fill="black" stroke="black" points="279.5,-138.017 276,-128.017 272.5,-138.018 279.5,-138.017"/>
</g>
</g>
</svg>
