<?xml version="1.0" encoding="UTF-8" standalone="no"?>
<!DOCTYPE svg PUBLIC "-//W3C//DTD SVG 1.1//EN"
 "http://www.w3.org/Graphics/SVG/1.1/DTD/svg11.dtd">
<!-- Generated by graphviz version 2.38.0 (20140413.2041)
 -->
<!-- Title: %3 Pages: 1 -->
<svg width="184pt" height="374pt"
 viewBox="0.00 0.00 184.00 374.00" xmlns="http://www.w3.org/2000/svg" xmlns:xlink="http://www.w3.org/1999/xlink">
<g id="graph0" class="graph" transform="scale(1 1) rotate(0) translate(4 370)">
<title>%3</title>
<polygon fill="white" stroke="none" points="-4,4 -4,-370 180,-370 180,4 -4,4"/>
<!-- 264 -->
<g id="node1" class="node"><title>264</title>
<polygon fill="none" stroke="black" points="174,-366 2,-366 2,-268 174,-268 174,-366"/>
<text text-anchor="middle" x="88" y="-350.8" font-family="Times,serif" font-size="14.00">0x4000a1c2d0</text>
<text text-anchor="middle" x="88" y="-335.8" font-family="Times,serif" font-size="14.00">_______________________</text>
<text text-anchor="middle" x="88" y="-320.8" font-family="Times,serif" font-size="14.00">_______________________</text>
<text text-anchor="middle" x="88" y="-305.8" font-family="Times,serif" font-size="14.00">movslq %esi, %rsi</text>
<text text-anchor="middle" x="88" y="-290.8" font-family="Times,serif" font-size="14.00">movl $0x15, %eax</text>
<text text-anchor="middle" x="88" y="-275.8" font-family="Times,serif" font-size="14.00">syscall </text>
</g>
<!-- 265 -->
<g id="node2" class="node"><title>265</title>
<polygon fill="none" stroke="black" points="174,-232 2,-232 2,-149 174,-149 174,-232"/>
<text text-anchor="middle" x="88" y="-216.8" font-family="Times,serif" font-size="14.00">0x4000a1c2da</text>
<text text-anchor="middle" x="88" y="-201.8" font-family="Times,serif" font-size="14.00">_______________________</text>
<text text-anchor="middle" x="88" y="-186.8" font-family="Times,serif" font-size="14.00">_______________________</text>
<text text-anchor="middle" x="88" y="-171.8" font-family="Times,serif" font-size="14.00">cmpq $&#45;0x1000, %rax</text>
<text text-anchor="middle" x="88" y="-156.8" font-family="Times,serif" font-size="14.00">ja 0x4000a1c2e8</text>
</g>
<!-- 264&#45;&gt;265 -->
<g id="edge1" class="edge"><title>264&#45;&gt;265</title>
<path fill="none" stroke="black" d="M88,-267.865C88,-259.498 88,-250.771 88,-242.335"/>
<polygon fill="black" stroke="black" points="91.5001,-242.231 88,-232.231 84.5001,-242.231 91.5001,-242.231"/>
</g>
<!-- 266 -->
<g id="node3" class="node"><title>266</title>
<polygon fill="none" stroke="black" points="176,-113 0,-113 0,-0 176,-0 176,-113"/>
<text text-anchor="middle" x="88" y="-97.8" font-family="Times,serif" font-size="14.00">0x4000a1c2e8</text>
<text text-anchor="middle" x="88" y="-82.8" font-family="Times,serif" font-size="14.00">_______________________</text>
<text text-anchor="middle" x="88" y="-67.8" font-family="Times,serif" font-size="14.00">_______________________</text>
<text text-anchor="middle" x="88" y="-52.8" font-family="Times,serif" font-size="14.00">negl %eax</text>
<text text-anchor="middle" x="88" y="-37.8" font-family="Times,serif" font-size="14.00">movl %eax, 0x20ae10(%rip)</text>
<text text-anchor="middle" x="88" y="-22.8" font-family="Times,serif" font-size="14.00">movl $0xffffffff, %eax</text>
<text text-anchor="middle" x="88" y="-7.8" font-family="Times,serif" font-size="14.00">retq </text>
</g>
<!-- 265&#45;&gt;266 -->
<g id="edge2" class="edge"><title>265&#45;&gt;266</title>
<path fill="none" stroke="black" d="M88,-148.819C88,-140.761 88,-132.109 88,-123.458"/>
<polygon fill="black" stroke="black" points="91.5001,-123.339 88,-113.339 84.5001,-123.339 91.5001,-123.339"/>
</g>
</g>
</svg>
