<?xml version="1.0" encoding="UTF-8" standalone="no"?>
<!DOCTYPE svg PUBLIC "-//W3C//DTD SVG 1.1//EN"
 "http://www.w3.org/Graphics/SVG/1.1/DTD/svg11.dtd">
<!-- Generated by graphviz version 2.38.0 (20140413.2041)
 -->
<!-- Title: %3 Pages: 1 -->
<svg width="636pt" height="3103pt"
 viewBox="0.00 0.00 636.00 3103.00" xmlns="http://www.w3.org/2000/svg" xmlns:xlink="http://www.w3.org/1999/xlink">
<g id="graph0" class="graph" transform="scale(1 1) rotate(0) translate(4 3099)">
<title>%3</title>
<polygon fill="white" stroke="none" points="-4,4 -4,-3099 632,-3099 632,4 -4,4"/>
<!-- 1323 -->
<g id="node1" class="node"><title>1323</title>
<polygon fill="none" stroke="black" points="319,-3095 147,-3095 147,-2997 319,-2997 319,-3095"/>
<text text-anchor="middle" x="233" y="-3079.8" font-family="Times,serif" font-size="14.00">0x4000cb65e0</text>
<text text-anchor="middle" x="233" y="-3064.8" font-family="Times,serif" font-size="14.00">_______________________</text>
<text text-anchor="middle" x="233" y="-3049.8" font-family="Times,serif" font-size="14.00">_______________________</text>
<text text-anchor="middle" x="233" y="-3034.8" font-family="Times,serif" font-size="14.00">xorl %eax, %eax</text>
<text text-anchor="middle" x="233" y="-3019.8" font-family="Times,serif" font-size="14.00">testq %rdx, %rdx</text>
<text text-anchor="middle" x="233" y="-3004.8" font-family="Times,serif" font-size="14.00">je 0x4000cb6657</text>
</g>
<!-- 1324 -->
<g id="node2" class="node"><title>1324</title>
<polygon fill="none" stroke="black" points="319,-2961 147,-2961 147,-2728 319,-2728 319,-2961"/>
<text text-anchor="middle" x="233" y="-2945.8" font-family="Times,serif" font-size="14.00">0x4000cb65e7</text>
<text text-anchor="middle" x="233" y="-2930.8" font-family="Times,serif" font-size="14.00">_______________________</text>
<text text-anchor="middle" x="233" y="-2915.8" font-family="Times,serif" font-size="14.00">_______________________</text>
<text text-anchor="middle" x="233" y="-2900.8" font-family="Times,serif" font-size="14.00">pushq %r14</text>
<text text-anchor="middle" x="233" y="-2885.8" font-family="Times,serif" font-size="14.00">pushq %r13</text>
<text text-anchor="middle" x="233" y="-2870.8" font-family="Times,serif" font-size="14.00">pushq %r12</text>
<text text-anchor="middle" x="233" y="-2855.8" font-family="Times,serif" font-size="14.00">pushq %rbp</text>
<text text-anchor="middle" x="233" y="-2840.8" font-family="Times,serif" font-size="14.00">movq %rsi, %r12</text>
<text text-anchor="middle" x="233" y="-2825.8" font-family="Times,serif" font-size="14.00">pushq %rbx</text>
<text text-anchor="middle" x="233" y="-2810.8" font-family="Times,serif" font-size="14.00">movl (%rdi), %eax</text>
<text text-anchor="middle" x="233" y="-2795.8" font-family="Times,serif" font-size="14.00">movq %rdx, %rbp</text>
<text text-anchor="middle" x="233" y="-2780.8" font-family="Times,serif" font-size="14.00">movq %rdi, %rbx</text>
<text text-anchor="middle" x="233" y="-2765.8" font-family="Times,serif" font-size="14.00">andl $0xa00, %eax</text>
<text text-anchor="middle" x="233" y="-2750.8" font-family="Times,serif" font-size="14.00">cmpl $0xa00, %eax</text>
<text text-anchor="middle" x="233" y="-2735.8" font-family="Times,serif" font-size="14.00">je 0x4000cb66e0</text>
</g>
<!-- 1323&#45;&gt;1324 -->
<g id="edge1" class="edge"><title>1323&#45;&gt;1324</title>
<path fill="none" stroke="black" d="M233,-2996.96C233,-2988.92 233,-2980.26 233,-2971.29"/>
<polygon fill="black" stroke="black" points="236.5,-2971.06 233,-2961.06 229.5,-2971.06 236.5,-2971.06"/>
</g>
<!-- 1325 -->
<g id="node3" class="node"><title>1325</title>
<polygon fill="none" stroke="black" points="222,-2684.5 50,-2684.5 50,-2571.5 222,-2571.5 222,-2684.5"/>
<text text-anchor="middle" x="136" y="-2669.3" font-family="Times,serif" font-size="14.00">0x4000cb660a</text>
<text text-anchor="middle" x="136" y="-2654.3" font-family="Times,serif" font-size="14.00">_______________________</text>
<text text-anchor="middle" x="136" y="-2639.3" font-family="Times,serif" font-size="14.00">_______________________</text>
<text text-anchor="middle" x="136" y="-2624.3" font-family="Times,serif" font-size="14.00">movq 0x30(%rdi), %rdx</text>
<text text-anchor="middle" x="136" y="-2609.3" font-family="Times,serif" font-size="14.00">movq 0x28(%rdi), %rdi</text>
<text text-anchor="middle" x="136" y="-2594.3" font-family="Times,serif" font-size="14.00">cmpq %rdi, %rdx</text>
<text text-anchor="middle" x="136" y="-2579.3" font-family="Times,serif" font-size="14.00">jbe 0x4000cb6660</text>
</g>
<!-- 1324&#45;&gt;1325 -->
<g id="edge2" class="edge"><title>1324&#45;&gt;1325</title>
<path fill="none" stroke="black" d="M180.667,-2727.77C175.407,-2716.14 170.208,-2704.65 165.319,-2693.83"/>
<polygon fill="black" stroke="black" points="168.418,-2692.19 161.108,-2684.52 162.039,-2695.08 168.418,-2692.19"/>
</g>
<!-- 1579 -->
<g id="node4" class="node"><title>1579</title>
<polygon fill="none" stroke="black" points="417,-2692 245,-2692 245,-2564 417,-2564 417,-2692"/>
<text text-anchor="middle" x="331" y="-2676.8" font-family="Times,serif" font-size="14.00">0x4000cb66e0</text>
<text text-anchor="middle" x="331" y="-2661.8" font-family="Times,serif" font-size="14.00">_______________________</text>
<text text-anchor="middle" x="331" y="-2646.8" font-family="Times,serif" font-size="14.00">_______________________</text>
<text text-anchor="middle" x="331" y="-2631.8" font-family="Times,serif" font-size="14.00">movq 0x28(%rdi), %rdi</text>
<text text-anchor="middle" x="331" y="-2616.8" font-family="Times,serif" font-size="14.00">movq 0x40(%rbx), %rdx</text>
<text text-anchor="middle" x="331" y="-2601.8" font-family="Times,serif" font-size="14.00">subq %rdi, %rdx</text>
<text text-anchor="middle" x="331" y="-2586.8" font-family="Times,serif" font-size="14.00">cmpq %rdx, %rbp</text>
<text text-anchor="middle" x="331" y="-2571.8" font-family="Times,serif" font-size="14.00">ja 0x4000cb661a</text>
</g>
<!-- 1324&#45;&gt;1579 -->
<g id="edge3" class="edge"><title>1324&#45;&gt;1579</title>
<path fill="none" stroke="black" d="M285.872,-2727.77C289.989,-2718.76 294.068,-2709.84 297.994,-2701.24"/>
<polygon fill="black" stroke="black" points="301.216,-2702.61 302.188,-2692.06 294.849,-2699.7 301.216,-2702.61"/>
</g>
<!-- 1326 -->
<g id="node5" class="node"><title>1326</title>
<polygon fill="none" stroke="black" points="211,-2379 39,-2379 39,-2311 211,-2311 211,-2379"/>
<text text-anchor="middle" x="125" y="-2363.8" font-family="Times,serif" font-size="14.00">0x4000cb6660</text>
<text text-anchor="middle" x="125" y="-2348.8" font-family="Times,serif" font-size="14.00">_______________________</text>
<text text-anchor="middle" x="125" y="-2333.8" font-family="Times,serif" font-size="14.00">_______________________</text>
<text text-anchor="middle" x="125" y="-2318.8" font-family="Times,serif" font-size="14.00">movq %rbp, %r13</text>
</g>
<!-- 1325&#45;&gt;1326 -->
<g id="edge4" class="edge"><title>1325&#45;&gt;1326</title>
<path fill="none" stroke="black" d="M133.827,-2571.48C131.738,-2518.14 128.625,-2438.61 126.709,-2389.65"/>
<polygon fill="black" stroke="black" points="130.195,-2389.24 126.307,-2379.39 123.201,-2389.51 130.195,-2389.24"/>
</g>
<!-- 1580 -->
<g id="node15" class="node"><title>1580</title>
<polygon fill="none" stroke="black" points="436,-2528 264,-2528 264,-2430 436,-2430 436,-2528"/>
<text text-anchor="middle" x="350" y="-2512.8" font-family="Times,serif" font-size="14.00">0x4000cb66f4</text>
<text text-anchor="middle" x="350" y="-2497.8" font-family="Times,serif" font-size="14.00">_______________________</text>
<text text-anchor="middle" x="350" y="-2482.8" font-family="Times,serif" font-size="14.00">_______________________</text>
<text text-anchor="middle" x="350" y="-2467.8" font-family="Times,serif" font-size="14.00">leaq (%rsi, %rbp), %rcx</text>
<text text-anchor="middle" x="350" y="-2452.8" font-family="Times,serif" font-size="14.00">cmpq %rcx, %rsi</text>
<text text-anchor="middle" x="350" y="-2437.8" font-family="Times,serif" font-size="14.00">jae 0x4000cb661f</text>
</g>
<!-- 1579&#45;&gt;1580 -->
<g id="edge14" class="edge"><title>1579&#45;&gt;1580</title>
<path fill="none" stroke="black" d="M339.168,-2563.81C340.269,-2555.29 341.395,-2546.58 342.484,-2538.15"/>
<polygon fill="black" stroke="black" points="345.979,-2538.41 343.79,-2528.04 339.037,-2537.51 345.979,-2538.41"/>
</g>
<!-- 1606 -->
<g id="node6" class="node"><title>1606</title>
<polygon fill="none" stroke="black" points="210,-1425 38,-1425 38,-1252 210,-1252 210,-1425"/>
<text text-anchor="middle" x="124" y="-1409.8" font-family="Times,serif" font-size="14.00">0x4000cb6663</text>
<text text-anchor="middle" x="124" y="-1394.8" font-family="Times,serif" font-size="14.00">_______________________</text>
<text text-anchor="middle" x="124" y="-1379.8" font-family="Times,serif" font-size="14.00">_______________________</text>
<text text-anchor="middle" x="124" y="-1364.8" font-family="Times,serif" font-size="14.00">movq 0xd8(%rbx), %r14</text>
<text text-anchor="middle" x="124" y="-1349.8" font-family="Times,serif" font-size="14.00">leaq 0x32528f(%rip), %rdx</text>
<text text-anchor="middle" x="124" y="-1334.8" font-family="Times,serif" font-size="14.00">leaq 0x325ff0(%rip), %rax</text>
<text text-anchor="middle" x="124" y="-1319.8" font-family="Times,serif" font-size="14.00">subq %rdx, %rax</text>
<text text-anchor="middle" x="124" y="-1304.8" font-family="Times,serif" font-size="14.00">movq %r14, %rcx</text>
<text text-anchor="middle" x="124" y="-1289.8" font-family="Times,serif" font-size="14.00">subq %rdx, %rcx</text>
<text text-anchor="middle" x="124" y="-1274.8" font-family="Times,serif" font-size="14.00">cmpq %rcx, %rax</text>
<text text-anchor="middle" x="124" y="-1259.8" font-family="Times,serif" font-size="14.00">jbe 0x4000cb6780</text>
</g>
<!-- 1326&#45;&gt;1606 -->
<g id="edge5" class="edge"><title>1326&#45;&gt;1606</title>
<path fill="none" stroke="black" d="M124.79,-2310.95C124.497,-2261.79 124,-2166.51 124,-2085.5 124,-2085.5 124,-2085.5 124,-1733 124,-1631.29 124,-1514.79 124,-1435.11"/>
<polygon fill="black" stroke="black" points="127.5,-1435.09 124,-1425.09 120.5,-1435.09 127.5,-1435.09"/>
</g>
<!-- 1327 -->
<g id="node7" class="node"><title>1327</title>
<polygon fill="none" stroke="black" points="210,-1216 38,-1216 38,-1088 210,-1088 210,-1216"/>
<text text-anchor="middle" x="124" y="-1200.8" font-family="Times,serif" font-size="14.00">0x4000cb668a</text>
<text text-anchor="middle" x="124" y="-1185.8" font-family="Times,serif" font-size="14.00">_______________________</text>
<text text-anchor="middle" x="124" y="-1170.8" font-family="Times,serif" font-size="14.00">_______________________</text>
<text text-anchor="middle" x="124" y="-1155.8" font-family="Times,serif" font-size="14.00">movl $0xffffffff, %esi</text>
<text text-anchor="middle" x="124" y="-1140.8" font-family="Times,serif" font-size="14.00">movq %rbx, %rdi</text>
<text text-anchor="middle" x="124" y="-1125.8" font-family="Times,serif" font-size="14.00">callq *0x18(%r14)</text>
<text text-anchor="middle" x="124" y="-1110.8" font-family="Times,serif" font-size="14.00">_______________________</text>
<text text-anchor="middle" x="124" y="-1095.8" font-family="Times,serif" font-size="14.00">CALL _IO_file_overflow</text>
</g>
<!-- 1606&#45;&gt;1327 -->
<g id="edge24" class="edge"><title>1606&#45;&gt;1327</title>
<path fill="none" stroke="black" d="M124,-1251.73C124,-1243.24 124,-1234.66 124,-1226.31"/>
<polygon fill="black" stroke="black" points="127.5,-1226.25 124,-1216.25 120.5,-1226.25 127.5,-1226.25"/>
</g>
<!-- 1521 -->
<g id="node8" class="node"><title>1521</title>
<polygon fill="none" stroke="black" points="210,-1052 38,-1052 38,-969 210,-969 210,-1052"/>
<text text-anchor="middle" x="124" y="-1036.8" font-family="Times,serif" font-size="14.00">0x4000cb6696</text>
<text text-anchor="middle" x="124" y="-1021.8" font-family="Times,serif" font-size="14.00">_______________________</text>
<text text-anchor="middle" x="124" y="-1006.8" font-family="Times,serif" font-size="14.00">_______________________</text>
<text text-anchor="middle" x="124" y="-991.8" font-family="Times,serif" font-size="14.00">cmpl $0xff, %eax</text>
<text text-anchor="middle" x="124" y="-976.8" font-family="Times,serif" font-size="14.00">je 0x4000cb6760</text>
</g>
<!-- 1327&#45;&gt;1521 -->
<g id="edge6" class="edge"><title>1327&#45;&gt;1521</title>
<path fill="none" stroke="black" d="M124,-1087.78C124,-1079.26 124,-1070.62 124,-1062.35"/>
<polygon fill="black" stroke="black" points="127.5,-1062.13 124,-1052.13 120.5,-1062.13 127.5,-1062.13"/>
</g>
<!-- 1522 -->
<g id="node9" class="node"><title>1522</title>
<polygon fill="none" stroke="black" points="210,-933 38,-933 38,-805 210,-805 210,-933"/>
<text text-anchor="middle" x="124" y="-917.8" font-family="Times,serif" font-size="14.00">0x4000cb669f</text>
<text text-anchor="middle" x="124" y="-902.8" font-family="Times,serif" font-size="14.00">_______________________</text>
<text text-anchor="middle" x="124" y="-887.8" font-family="Times,serif" font-size="14.00">_______________________</text>
<text text-anchor="middle" x="124" y="-872.8" font-family="Times,serif" font-size="14.00">movq 0x40(%rbx), %rcx</text>
<text text-anchor="middle" x="124" y="-857.8" font-family="Times,serif" font-size="14.00">subq 0x38(%rbx), %rcx</text>
<text text-anchor="middle" x="124" y="-842.8" font-family="Times,serif" font-size="14.00">xorl %edx, %edx</text>
<text text-anchor="middle" x="124" y="-827.8" font-family="Times,serif" font-size="14.00">cmpq $0x7f, %rcx</text>
<text text-anchor="middle" x="124" y="-812.8" font-family="Times,serif" font-size="14.00">jbe 0x4000cb66b7</text>
</g>
<!-- 1521&#45;&gt;1522 -->
<g id="edge7" class="edge"><title>1521&#45;&gt;1522</title>
<path fill="none" stroke="black" d="M124,-968.776C124,-960.741 124,-952.081 124,-943.346"/>
<polygon fill="black" stroke="black" points="127.5,-943.09 124,-933.09 120.5,-943.09 127.5,-943.09"/>
</g>
<!-- 1523 -->
<g id="node10" class="node"><title>1523</title>
<polygon fill="none" stroke="black" points="210,-769 38,-769 38,-626 210,-626 210,-769"/>
<text text-anchor="middle" x="124" y="-753.8" font-family="Times,serif" font-size="14.00">0x4000cb66af</text>
<text text-anchor="middle" x="124" y="-738.8" font-family="Times,serif" font-size="14.00">_______________________</text>
<text text-anchor="middle" x="124" y="-723.8" font-family="Times,serif" font-size="14.00">_______________________</text>
<text text-anchor="middle" x="124" y="-708.8" font-family="Times,serif" font-size="14.00">movq %r13, %rax</text>
<text text-anchor="middle" x="124" y="-693.8" font-family="Times,serif" font-size="14.00">xorl %edx, %edx</text>
<text text-anchor="middle" x="124" y="-678.8" font-family="Times,serif" font-size="14.00">divq %rcx</text>
<text text-anchor="middle" x="124" y="-663.8" font-family="Times,serif" font-size="14.00">movq %r13, %r14</text>
<text text-anchor="middle" x="124" y="-648.8" font-family="Times,serif" font-size="14.00">subq %rdx, %r14</text>
<text text-anchor="middle" x="124" y="-633.8" font-family="Times,serif" font-size="14.00">jne 0x4000cb6740</text>
</g>
<!-- 1522&#45;&gt;1523 -->
<g id="edge8" class="edge"><title>1522&#45;&gt;1523</title>
<path fill="none" stroke="black" d="M124,-804.884C124,-796.496 124,-787.804 124,-779.169"/>
<polygon fill="black" stroke="black" points="127.5,-779.079 124,-769.079 120.5,-779.079 127.5,-779.079"/>
</g>
<!-- 1524 -->
<g id="node11" class="node"><title>1524</title>
<polygon fill="none" stroke="black" points="210,-590 38,-590 38,-507 210,-507 210,-590"/>
<text text-anchor="middle" x="124" y="-574.8" font-family="Times,serif" font-size="14.00">0x4000cb66c3</text>
<text text-anchor="middle" x="124" y="-559.8" font-family="Times,serif" font-size="14.00">_______________________</text>
<text text-anchor="middle" x="124" y="-544.8" font-family="Times,serif" font-size="14.00">_______________________</text>
<text text-anchor="middle" x="124" y="-529.8" font-family="Times,serif" font-size="14.00">testq %r13, %r13</text>
<text text-anchor="middle" x="124" y="-514.8" font-family="Times,serif" font-size="14.00">je 0x4000cb6649</text>
</g>
<!-- 1523&#45;&gt;1524 -->
<g id="edge9" class="edge"><title>1523&#45;&gt;1524</title>
<path fill="none" stroke="black" d="M124,-625.584C124,-617.014 124,-608.398 124,-600.201"/>
<polygon fill="black" stroke="black" points="127.5,-600.079 124,-590.079 120.5,-600.079 127.5,-600.079"/>
</g>
<!-- 1525 -->
<g id="node12" class="node"><title>1525</title>
<polygon fill="none" stroke="black" points="172,-471 0,-471 0,-328 172,-328 172,-471"/>
<text text-anchor="middle" x="86" y="-455.8" font-family="Times,serif" font-size="14.00">0x4000cb66c8</text>
<text text-anchor="middle" x="86" y="-440.8" font-family="Times,serif" font-size="14.00">_______________________</text>
<text text-anchor="middle" x="86" y="-425.8" font-family="Times,serif" font-size="14.00">_______________________</text>
<text text-anchor="middle" x="86" y="-410.8" font-family="Times,serif" font-size="14.00">leaq (%r12, %r14), %rsi</text>
<text text-anchor="middle" x="86" y="-395.8" font-family="Times,serif" font-size="14.00">movq %r13, %rdx</text>
<text text-anchor="middle" x="86" y="-380.8" font-family="Times,serif" font-size="14.00">movq %rbx, %rdi</text>
<text text-anchor="middle" x="86" y="-365.8" font-family="Times,serif" font-size="14.00">callq 0x4000cb83d0</text>
<text text-anchor="middle" x="86" y="-350.8" font-family="Times,serif" font-size="14.00">_______________________</text>
<text text-anchor="middle" x="86" y="-335.8" font-family="Times,serif" font-size="14.00">CALL _IO_default_xsputn</text>
</g>
<!-- 1524&#45;&gt;1525 -->
<g id="edge10" class="edge"><title>1524&#45;&gt;1525</title>
<path fill="none" stroke="black" d="M113.516,-506.942C111.402,-498.767 109.112,-489.906 106.785,-480.905"/>
<polygon fill="black" stroke="black" points="110.144,-479.915 104.253,-471.11 103.367,-481.667 110.144,-479.915"/>
</g>
<!-- 1543 -->
<g id="node13" class="node"><title>1543</title>
<polygon fill="none" stroke="black" points="286,-173 114,-173 114,-0 286,-0 286,-173"/>
<text text-anchor="middle" x="200" y="-157.8" font-family="Times,serif" font-size="14.00">0x4000cb6649</text>
<text text-anchor="middle" x="200" y="-142.8" font-family="Times,serif" font-size="14.00">_______________________</text>
<text text-anchor="middle" x="200" y="-127.8" font-family="Times,serif" font-size="14.00">_______________________</text>
<text text-anchor="middle" x="200" y="-112.8" font-family="Times,serif" font-size="14.00">movq %rbp, %rax</text>
<text text-anchor="middle" x="200" y="-97.8" font-family="Times,serif" font-size="14.00">subq %r13, %rax</text>
<text text-anchor="middle" x="200" y="-82.8" font-family="Times,serif" font-size="14.00">popq %rbx</text>
<text text-anchor="middle" x="200" y="-67.8" font-family="Times,serif" font-size="14.00">popq %rbp</text>
<text text-anchor="middle" x="200" y="-52.8" font-family="Times,serif" font-size="14.00">popq %r12</text>
<text text-anchor="middle" x="200" y="-37.8" font-family="Times,serif" font-size="14.00">popq %r13</text>
<text text-anchor="middle" x="200" y="-22.8" font-family="Times,serif" font-size="14.00">popq %r14</text>
<text text-anchor="middle" x="200" y="-7.8" font-family="Times,serif" font-size="14.00">retq </text>
</g>
<!-- 1524&#45;&gt;1543 -->
<g id="edge11" class="edge"><title>1524&#45;&gt;1543</title>
<path fill="none" stroke="black" d="M161.132,-506.829C169.092,-495.92 176.464,-483.625 181,-471 214.613,-377.448 215.513,-262.758 210.406,-183.3"/>
<polygon fill="black" stroke="black" points="213.897,-183.039 209.72,-173.302 206.913,-183.519 213.897,-183.039"/>
</g>
<!-- 1542 -->
<g id="node14" class="node"><title>1542</title>
<polygon fill="none" stroke="black" points="172,-292 0,-292 0,-209 172,-209 172,-292"/>
<text text-anchor="middle" x="86" y="-276.8" font-family="Times,serif" font-size="14.00">0x4000cb66d7</text>
<text text-anchor="middle" x="86" y="-261.8" font-family="Times,serif" font-size="14.00">_______________________</text>
<text text-anchor="middle" x="86" y="-246.8" font-family="Times,serif" font-size="14.00">_______________________</text>
<text text-anchor="middle" x="86" y="-231.8" font-family="Times,serif" font-size="14.00">subq %rax, %r13</text>
<text text-anchor="middle" x="86" y="-216.8" font-family="Times,serif" font-size="14.00">jmp 0x4000cb6649</text>
</g>
<!-- 1525&#45;&gt;1542 -->
<g id="edge12" class="edge"><title>1525&#45;&gt;1542</title>
<path fill="none" stroke="black" d="M86,-327.584C86,-319.014 86,-310.398 86,-302.201"/>
<polygon fill="black" stroke="black" points="89.5001,-302.079 86,-292.079 82.5001,-302.079 89.5001,-302.079"/>
</g>
<!-- 1542&#45;&gt;1543 -->
<g id="edge13" class="edge"><title>1542&#45;&gt;1543</title>
<path fill="none" stroke="black" d="M114.767,-208.621C120.685,-200.211 127.146,-191.029 133.778,-181.605"/>
<polygon fill="black" stroke="black" points="136.748,-183.466 139.641,-173.273 131.024,-179.437 136.748,-183.466"/>
</g>
<!-- 1581 -->
<g id="node16" class="node"><title>1581</title>
<polygon fill="none" stroke="black" points="438,-2394 266,-2394 266,-2296 438,-2296 438,-2394"/>
<text text-anchor="middle" x="352" y="-2378.8" font-family="Times,serif" font-size="14.00">0x4000cb6701</text>
<text text-anchor="middle" x="352" y="-2363.8" font-family="Times,serif" font-size="14.00">_______________________</text>
<text text-anchor="middle" x="352" y="-2348.8" font-family="Times,serif" font-size="14.00">_______________________</text>
<text text-anchor="middle" x="352" y="-2333.8" font-family="Times,serif" font-size="14.00">cmpb $0xa, &#45;1(%rcx)</text>
<text text-anchor="middle" x="352" y="-2318.8" font-family="Times,serif" font-size="14.00">leaq &#45;1(%rcx), %rax</text>
<text text-anchor="middle" x="352" y="-2303.8" font-family="Times,serif" font-size="14.00">je 0x4000cb6722</text>
</g>
<!-- 1580&#45;&gt;1581 -->
<g id="edge15" class="edge"><title>1580&#45;&gt;1581</title>
<path fill="none" stroke="black" d="M350.728,-2429.97C350.853,-2421.69 350.985,-2413 351.114,-2404.48"/>
<polygon fill="black" stroke="black" points="354.617,-2404.27 351.269,-2394.21 347.618,-2404.16 354.617,-2404.27"/>
</g>
<!-- 1582 -->
<g id="node17" class="node"><title>1582</title>
<polygon fill="none" stroke="black" points="438,-2260 266,-2260 266,-2192 438,-2192 438,-2260"/>
<text text-anchor="middle" x="352" y="-2244.8" font-family="Times,serif" font-size="14.00">0x4000cb670b</text>
<text text-anchor="middle" x="352" y="-2229.8" font-family="Times,serif" font-size="14.00">_______________________</text>
<text text-anchor="middle" x="352" y="-2214.8" font-family="Times,serif" font-size="14.00">_______________________</text>
<text text-anchor="middle" x="352" y="-2199.8" font-family="Times,serif" font-size="14.00">nopl (%rax, %rax)</text>
</g>
<!-- 1581&#45;&gt;1582 -->
<g id="edge16" class="edge"><title>1581&#45;&gt;1582</title>
<path fill="none" stroke="black" d="M352,-2295.74C352,-2287.33 352,-2278.63 352,-2270.36"/>
<polygon fill="black" stroke="black" points="355.5,-2270.17 352,-2260.17 348.5,-2270.17 355.5,-2270.17"/>
</g>
<!-- 1604 -->
<g id="node18" class="node"><title>1604</title>
<polygon fill="none" stroke="black" points="628,-2156 456,-2156 456,-2013 628,-2013 628,-2156"/>
<text text-anchor="middle" x="542" y="-2140.8" font-family="Times,serif" font-size="14.00">0x4000cb6722</text>
<text text-anchor="middle" x="542" y="-2125.8" font-family="Times,serif" font-size="14.00">_______________________</text>
<text text-anchor="middle" x="542" y="-2110.8" font-family="Times,serif" font-size="14.00">_______________________</text>
<text text-anchor="middle" x="542" y="-2095.8" font-family="Times,serif" font-size="14.00">subq %r12, %rax</text>
<text text-anchor="middle" x="542" y="-2080.8" font-family="Times,serif" font-size="14.00">movl $1, %r14d</text>
<text text-anchor="middle" x="542" y="-2065.8" font-family="Times,serif" font-size="14.00">movq %rbp, %r13</text>
<text text-anchor="middle" x="542" y="-2050.8" font-family="Times,serif" font-size="14.00">addq $1, %rax</text>
<text text-anchor="middle" x="542" y="-2035.8" font-family="Times,serif" font-size="14.00">movq %rax, %rdx</text>
<text text-anchor="middle" x="542" y="-2020.8" font-family="Times,serif" font-size="14.00">jne 0x4000cb6622</text>
</g>
<!-- 1581&#45;&gt;1604 -->
<g id="edge17" class="edge"><title>1581&#45;&gt;1604</title>
<path fill="none" stroke="black" d="M412.88,-2295.87C424.959,-2284.8 436.986,-2272.57 447,-2260 469.886,-2231.27 490.171,-2196.25 506.057,-2165.14"/>
<polygon fill="black" stroke="black" points="509.262,-2166.56 510.632,-2156.05 503.01,-2163.41 509.262,-2166.56"/>
</g>
<!-- 1645 -->
<g id="node19" class="node"><title>1645</title>
<polygon fill="none" stroke="black" points="438,-2126 266,-2126 266,-2043 438,-2043 438,-2126"/>
<text text-anchor="middle" x="352" y="-2110.8" font-family="Times,serif" font-size="14.00">0x4000cb6710</text>
<text text-anchor="middle" x="352" y="-2095.8" font-family="Times,serif" font-size="14.00">_______________________</text>
<text text-anchor="middle" x="352" y="-2080.8" font-family="Times,serif" font-size="14.00">_______________________</text>
<text text-anchor="middle" x="352" y="-2065.8" font-family="Times,serif" font-size="14.00">cmpq %rax, %r12</text>
<text text-anchor="middle" x="352" y="-2050.8" font-family="Times,serif" font-size="14.00">je 0x4000cb661f</text>
</g>
<!-- 1582&#45;&gt;1645 -->
<g id="edge18" class="edge"><title>1582&#45;&gt;1645</title>
<path fill="none" stroke="black" d="M352,-2191.94C352,-2175.29 352,-2154.73 352,-2136.13"/>
<polygon fill="black" stroke="black" points="355.5,-2136.04 352,-2126.04 348.5,-2136.04 355.5,-2136.04"/>
</g>
<!-- 1605 -->
<g id="node21" class="node"><title>1605</title>
<polygon fill="none" stroke="black" points="324,-1813 152,-1813 152,-1655 324,-1655 324,-1813"/>
<text text-anchor="middle" x="238" y="-1797.8" font-family="Times,serif" font-size="14.00">0x4000cb6622</text>
<text text-anchor="middle" x="238" y="-1782.8" font-family="Times,serif" font-size="14.00">_______________________</text>
<text text-anchor="middle" x="238" y="-1767.8" font-family="Times,serif" font-size="14.00">_______________________</text>
<text text-anchor="middle" x="238" y="-1752.8" font-family="Times,serif" font-size="14.00">cmpq %rdx, %rbp</text>
<text text-anchor="middle" x="238" y="-1737.8" font-family="Times,serif" font-size="14.00">movq %r12, %rsi</text>
<text text-anchor="middle" x="238" y="-1722.8" font-family="Times,serif" font-size="14.00">cmovbeq %rbp, %rdx</text>
<text text-anchor="middle" x="238" y="-1707.8" font-family="Times,serif" font-size="14.00">movq %rdx, %r13</text>
<text text-anchor="middle" x="238" y="-1692.8" font-family="Times,serif" font-size="14.00">callq 0x4000cc7750</text>
<text text-anchor="middle" x="238" y="-1677.8" font-family="Times,serif" font-size="14.00">_______________________</text>
<text text-anchor="middle" x="238" y="-1662.8" font-family="Times,serif" font-size="14.00">CALL 0x4000cc7750</text>
</g>
<!-- 1604&#45;&gt;1605 -->
<g id="edge22" class="edge"><title>1604&#45;&gt;1605</title>
<path fill="none" stroke="black" d="M554.562,-2012.91C559.504,-1962.48 557.37,-1895.59 523,-1849 478.933,-1789.26 398.44,-1760.78 334.209,-1747.23"/>
<polygon fill="black" stroke="black" points="334.543,-1743.73 324.048,-1745.18 333.159,-1750.59 334.543,-1743.73"/>
</g>
<!-- 1583 -->
<g id="node20" class="node"><title>1583</title>
<polygon fill="none" stroke="black" points="324,-1947 152,-1947 152,-1879 324,-1879 324,-1947"/>
<text text-anchor="middle" x="238" y="-1931.8" font-family="Times,serif" font-size="14.00">0x4000cb661f</text>
<text text-anchor="middle" x="238" y="-1916.8" font-family="Times,serif" font-size="14.00">_______________________</text>
<text text-anchor="middle" x="238" y="-1901.8" font-family="Times,serif" font-size="14.00">_______________________</text>
<text text-anchor="middle" x="238" y="-1886.8" font-family="Times,serif" font-size="14.00">xorl %r14d, %r14d</text>
</g>
<!-- 1645&#45;&gt;1583 -->
<g id="edge26" class="edge"><title>1645&#45;&gt;1583</title>
<path fill="none" stroke="black" d="M324.694,-2042.9C306.922,-2016.48 283.807,-1982.11 265.915,-1955.5"/>
<polygon fill="black" stroke="black" points="268.788,-1953.5 260.302,-1947.16 262.979,-1957.41 268.788,-1953.5"/>
</g>
<!-- 1644 -->
<g id="node23" class="node"><title>1644</title>
<polygon fill="none" stroke="black" points="514,-1977 342,-1977 342,-1849 514,-1849 514,-1977"/>
<text text-anchor="middle" x="428" y="-1961.8" font-family="Times,serif" font-size="14.00">0x4000cb6719</text>
<text text-anchor="middle" x="428" y="-1946.8" font-family="Times,serif" font-size="14.00">_______________________</text>
<text text-anchor="middle" x="428" y="-1931.8" font-family="Times,serif" font-size="14.00">_______________________</text>
<text text-anchor="middle" x="428" y="-1916.8" font-family="Times,serif" font-size="14.00">subq $1, %rax</text>
<text text-anchor="middle" x="428" y="-1901.8" font-family="Times,serif" font-size="14.00">cmpb $0xa, (%rax)</text>
<text text-anchor="middle" x="428" y="-1886.8" font-family="Times,serif" font-size="14.00">jne 0x4000cb6710</text>
<text text-anchor="middle" x="428" y="-1871.8" font-family="Times,serif" font-size="14.00">_______________________</text>
<text text-anchor="middle" x="428" y="-1856.8" font-family="Times,serif" font-size="14.00">LOOP 0x4000cb6710</text>
</g>
<!-- 1645&#45;&gt;1644 -->
<g id="edge27" class="edge"><title>1645&#45;&gt;1644</title>
<path fill="none" stroke="black" d="M364.345,-2042.9C371.209,-2025.91 380.028,-2005.63 388.926,-1986.24"/>
<polygon fill="black" stroke="black" points="392.126,-1987.66 393.152,-1977.11 385.774,-1984.71 392.126,-1987.66"/>
</g>
<!-- 1583&#45;&gt;1605 -->
<g id="edge19" class="edge"><title>1583&#45;&gt;1605</title>
<path fill="none" stroke="black" d="M238,-1878.71C238,-1862.93 238,-1843.26 238,-1823.58"/>
<polygon fill="black" stroke="black" points="241.5,-1823.31 238,-1813.31 234.5,-1823.31 241.5,-1823.31"/>
</g>
<!-- 1591 -->
<g id="node22" class="node"><title>1591</title>
<polygon fill="none" stroke="black" points="324,-1619 152,-1619 152,-1461 324,-1461 324,-1619"/>
<text text-anchor="middle" x="238" y="-1603.8" font-family="Times,serif" font-size="14.00">0x4000cb6634</text>
<text text-anchor="middle" x="238" y="-1588.8" font-family="Times,serif" font-size="14.00">_______________________</text>
<text text-anchor="middle" x="238" y="-1573.8" font-family="Times,serif" font-size="14.00">_______________________</text>
<text text-anchor="middle" x="238" y="-1558.8" font-family="Times,serif" font-size="14.00">movq %rax, 0x28(%rbx)</text>
<text text-anchor="middle" x="238" y="-1543.8" font-family="Times,serif" font-size="14.00">movq %rbp, %rax</text>
<text text-anchor="middle" x="238" y="-1528.8" font-family="Times,serif" font-size="14.00">addq %r13, %r12</text>
<text text-anchor="middle" x="238" y="-1513.8" font-family="Times,serif" font-size="14.00">subq %r13, %rax</text>
<text text-anchor="middle" x="238" y="-1498.8" font-family="Times,serif" font-size="14.00">movq %rax, %r13</text>
<text text-anchor="middle" x="238" y="-1483.8" font-family="Times,serif" font-size="14.00">addq %r13, %r14</text>
<text text-anchor="middle" x="238" y="-1468.8" font-family="Times,serif" font-size="14.00">jne 0x4000cb6663</text>
</g>
<!-- 1605&#45;&gt;1591 -->
<g id="edge23" class="edge"><title>1605&#45;&gt;1591</title>
<path fill="none" stroke="black" d="M238,-1654.91C238,-1646.4 238,-1637.7 238,-1629.08"/>
<polygon fill="black" stroke="black" points="241.5,-1629.02 238,-1619.02 234.5,-1629.02 241.5,-1629.02"/>
</g>
<!-- 1591&#45;&gt;1606 -->
<g id="edge21" class="edge"><title>1591&#45;&gt;1606</title>
<path fill="none" stroke="black" d="M193.271,-1460.72C188.266,-1451.96 183.127,-1442.97 178.021,-1434.04"/>
<polygon fill="black" stroke="black" points="180.931,-1432.08 172.931,-1425.13 174.854,-1435.55 180.931,-1432.08"/>
</g>
<!-- 1591&#45;&gt;1543 -->
<g id="edge20" class="edge"><title>1591&#45;&gt;1543</title>
<path fill="none" stroke="black" d="M238,-1460.64C238,-1382.65 238,-1259.55 238,-1153 238,-1153 238,-1153 238,-398.5 238,-314.048 235.315,-292.69 224,-209 222.859,-200.563 221.497,-191.829 220.01,-183.091"/>
<polygon fill="black" stroke="black" points="223.457,-182.486 218.282,-173.241 216.562,-183.696 223.457,-182.486"/>
</g>
<!-- 1644&#45;&gt;1645 -->
<g id="edge25" class="edge"><title>1644&#45;&gt;1645</title>
<path fill="none" stroke="black" d="M406.253,-1977.11C398.202,-1995.85 389.006,-2016.11 380.462,-2033.86"/>
<polygon fill="black" stroke="black" points="377.293,-2032.38 376.063,-2042.9 383.587,-2035.44 377.293,-2032.38"/>
</g>
</g>
</svg>
