<?xml version="1.0" encoding="UTF-8" standalone="no"?>
<!DOCTYPE svg PUBLIC "-//W3C//DTD SVG 1.1//EN"
 "http://www.w3.org/Graphics/SVG/1.1/DTD/svg11.dtd">
<!-- Generated by graphviz version 2.38.0 (20140413.2041)
 -->
<!-- Title: %3 Pages: 1 -->
<svg width="201pt" height="2106pt"
 viewBox="0.00 0.00 201.00 2106.00" xmlns="http://www.w3.org/2000/svg" xmlns:xlink="http://www.w3.org/1999/xlink">
<g id="graph0" class="graph" transform="scale(1 1) rotate(0) translate(4 2102)">
<title>%3</title>
<polygon fill="white" stroke="none" points="-4,4 -4,-2102 197,-2102 197,4 -4,4"/>
<!-- 1293 -->
<g id="node1" class="node"><title>1293</title>
<polygon fill="none" stroke="black" points="182.5,-2098 10.5,-2098 10.5,-1700 182.5,-1700 182.5,-2098"/>
<text text-anchor="middle" x="96.5" y="-2082.8" font-family="Times,serif" font-size="14.00">0x4000a11c70</text>
<text text-anchor="middle" x="96.5" y="-2067.8" font-family="Times,serif" font-size="14.00">_______________________</text>
<text text-anchor="middle" x="96.5" y="-2052.8" font-family="Times,serif" font-size="14.00">_______________________</text>
<text text-anchor="middle" x="96.5" y="-2037.8" font-family="Times,serif" font-size="14.00">pushq %rbx</text>
<text text-anchor="middle" x="96.5" y="-2022.8" font-family="Times,serif" font-size="14.00">movq %rdi, %r10</text>
<text text-anchor="middle" x="96.5" y="-2007.8" font-family="Times,serif" font-size="14.00">movl %esi, %esi</text>
<text text-anchor="middle" x="96.5" y="-1992.8" font-family="Times,serif" font-size="14.00">leaq (%rsi, %rsi, 2), %rdx</text>
<text text-anchor="middle" x="96.5" y="-1977.8" font-family="Times,serif" font-size="14.00">subq $0x10, %rsp</text>
<text text-anchor="middle" x="96.5" y="-1962.8" font-family="Times,serif" font-size="14.00">movq 0x68(%rdi), %rax</text>
<text text-anchor="middle" x="96.5" y="-1947.8" font-family="Times,serif" font-size="14.00">movq 8(%rax), %rdi</text>
<text text-anchor="middle" x="96.5" y="-1932.8" font-family="Times,serif" font-size="14.00">movq 0xf8(%r10), %rax</text>
<text text-anchor="middle" x="96.5" y="-1917.8" font-family="Times,serif" font-size="14.00">movq 8(%rax), %rax</text>
<text text-anchor="middle" x="96.5" y="-1902.8" font-family="Times,serif" font-size="14.00">leaq (%rax, %rdx, 8), %r8</text>
<text text-anchor="middle" x="96.5" y="-1887.8" font-family="Times,serif" font-size="14.00">movq 0x70(%r10), %rax</text>
<text text-anchor="middle" x="96.5" y="-1872.8" font-family="Times,serif" font-size="14.00">movq 8(%r8), %rcx</text>
<text text-anchor="middle" x="96.5" y="-1857.8" font-family="Times,serif" font-size="14.00">movq 8(%rax), %rax</text>
<text text-anchor="middle" x="96.5" y="-1842.8" font-family="Times,serif" font-size="14.00">movq %rcx, %rdx</text>
<text text-anchor="middle" x="96.5" y="-1827.8" font-family="Times,serif" font-size="14.00">shrq $0x20, %rdx</text>
<text text-anchor="middle" x="96.5" y="-1812.8" font-family="Times,serif" font-size="14.00">leaq (%rdx, %rdx, 2), %rsi</text>
<text text-anchor="middle" x="96.5" y="-1797.8" font-family="Times,serif" font-size="14.00">leaq (%rax, %rsi, 8), %rsi</text>
<text text-anchor="middle" x="96.5" y="-1782.8" font-family="Times,serif" font-size="14.00">movq (%r10), %rax</text>
<text text-anchor="middle" x="96.5" y="-1767.8" font-family="Times,serif" font-size="14.00">movq %rsi, 8(%rsp)</text>
<text text-anchor="middle" x="96.5" y="-1752.8" font-family="Times,serif" font-size="14.00">movq %rax, %rbx</text>
<text text-anchor="middle" x="96.5" y="-1737.8" font-family="Times,serif" font-size="14.00">addq (%r8), %rbx</text>
<text text-anchor="middle" x="96.5" y="-1722.8" font-family="Times,serif" font-size="14.00">cmpl $7, %ecx</text>
<text text-anchor="middle" x="96.5" y="-1707.8" font-family="Times,serif" font-size="14.00">jne 0x4000a11e17</text>
</g>
<!-- 1294 -->
<g id="node2" class="node"><title>1294</title>
<polygon fill="none" stroke="black" points="182.5,-1664 10.5,-1664 10.5,-1581 182.5,-1581 182.5,-1664"/>
<text text-anchor="middle" x="96.5" y="-1648.8" font-family="Times,serif" font-size="14.00">0x4000a11cc7</text>
<text text-anchor="middle" x="96.5" y="-1633.8" font-family="Times,serif" font-size="14.00">_______________________</text>
<text text-anchor="middle" x="96.5" y="-1618.8" font-family="Times,serif" font-size="14.00">_______________________</text>
<text text-anchor="middle" x="96.5" y="-1603.8" font-family="Times,serif" font-size="14.00">testb $3, 5(%rsi)</text>
<text text-anchor="middle" x="96.5" y="-1588.8" font-family="Times,serif" font-size="14.00">jne 0x4000a11d67</text>
</g>
<!-- 1293&#45;&gt;1294 -->
<g id="edge1" class="edge"><title>1293&#45;&gt;1294</title>
<path fill="none" stroke="black" d="M96.5,-1699.96C96.5,-1690.91 96.5,-1682.3 96.5,-1674.34"/>
<polygon fill="black" stroke="black" points="100,-1674.28 96.5,-1664.28 93.0001,-1674.28 100,-1674.28"/>
</g>
<!-- 1295 -->
<g id="node3" class="node"><title>1295</title>
<polygon fill="none" stroke="black" points="182.5,-1545 10.5,-1545 10.5,-1447 182.5,-1447 182.5,-1545"/>
<text text-anchor="middle" x="96.5" y="-1529.8" font-family="Times,serif" font-size="14.00">0x4000a11cd1</text>
<text text-anchor="middle" x="96.5" y="-1514.8" font-family="Times,serif" font-size="14.00">_______________________</text>
<text text-anchor="middle" x="96.5" y="-1499.8" font-family="Times,serif" font-size="14.00">_______________________</text>
<text text-anchor="middle" x="96.5" y="-1484.8" font-family="Times,serif" font-size="14.00">movq 0x1c8(%r10), %rax</text>
<text text-anchor="middle" x="96.5" y="-1469.8" font-family="Times,serif" font-size="14.00">testq %rax, %rax</text>
<text text-anchor="middle" x="96.5" y="-1454.8" font-family="Times,serif" font-size="14.00">je 0x4000a11d90</text>
</g>
<!-- 1294&#45;&gt;1295 -->
<g id="edge2" class="edge"><title>1294&#45;&gt;1295</title>
<path fill="none" stroke="black" d="M96.5,-1580.73C96.5,-1572.58 96.5,-1563.86 96.5,-1555.25"/>
<polygon fill="black" stroke="black" points="100,-1555.22 96.5,-1545.22 93.0001,-1555.22 100,-1555.22"/>
</g>
<!-- 1296 -->
<g id="node4" class="node"><title>1296</title>
<polygon fill="none" stroke="black" points="193,-1411 0,-1411 0,-1148 193,-1148 193,-1411"/>
<text text-anchor="middle" x="96.5" y="-1395.8" font-family="Times,serif" font-size="14.00">0x4000a11ce1</text>
<text text-anchor="middle" x="96.5" y="-1380.8" font-family="Times,serif" font-size="14.00">_______________________</text>
<text text-anchor="middle" x="96.5" y="-1365.8" font-family="Times,serif" font-size="14.00">_______________________</text>
<text text-anchor="middle" x="96.5" y="-1350.8" font-family="Times,serif" font-size="14.00">movq 8(%rax), %rax</text>
<text text-anchor="middle" x="96.5" y="-1335.8" font-family="Times,serif" font-size="14.00">movzwl (%rax, %rdx, 2), %eax</text>
<text text-anchor="middle" x="96.5" y="-1320.8" font-family="Times,serif" font-size="14.00">andl $0x7fff, %eax</text>
<text text-anchor="middle" x="96.5" y="-1305.8" font-family="Times,serif" font-size="14.00">leaq (%rax, %rax, 2), %rdx</text>
<text text-anchor="middle" x="96.5" y="-1290.8" font-family="Times,serif" font-size="14.00">movq 0x2e0(%r10), %rax</text>
<text text-anchor="middle" x="96.5" y="-1275.8" font-family="Times,serif" font-size="14.00">leaq (%rax, %rdx, 8), %r8</text>
<text text-anchor="middle" x="96.5" y="-1260.8" font-family="Times,serif" font-size="14.00">movl $0, %eax</text>
<text text-anchor="middle" x="96.5" y="-1245.8" font-family="Times,serif" font-size="14.00">movl 8(%r8), %r9d</text>
<text text-anchor="middle" x="96.5" y="-1230.8" font-family="Times,serif" font-size="14.00">testl %r9d, %r9d</text>
<text text-anchor="middle" x="96.5" y="-1215.8" font-family="Times,serif" font-size="14.00">cmoveq %rax, %r8</text>
<text text-anchor="middle" x="96.5" y="-1200.8" font-family="Times,serif" font-size="14.00">movl %fs:0x18, %edx</text>
<text text-anchor="middle" x="96.5" y="-1185.8" font-family="Times,serif" font-size="14.00">testl %edx, %edx</text>
<text text-anchor="middle" x="96.5" y="-1170.8" font-family="Times,serif" font-size="14.00">movl $1, %eax</text>
<text text-anchor="middle" x="96.5" y="-1155.8" font-family="Times,serif" font-size="14.00">jne 0x4000a11db0</text>
</g>
<!-- 1295&#45;&gt;1296 -->
<g id="edge3" class="edge"><title>1295&#45;&gt;1296</title>
<path fill="none" stroke="black" d="M96.5,-1446.86C96.5,-1438.87 96.5,-1430.25 96.5,-1421.28"/>
<polygon fill="black" stroke="black" points="100,-1421.02 96.5,-1411.02 93.0001,-1421.02 100,-1421.02"/>
</g>
<!-- 1297 -->
<g id="node5" class="node"><title>1297</title>
<polygon fill="none" stroke="black" points="182.5,-1112 10.5,-1112 10.5,-894 182.5,-894 182.5,-1112"/>
<text text-anchor="middle" x="96.5" y="-1096.8" font-family="Times,serif" font-size="14.00">0x4000a11d22</text>
<text text-anchor="middle" x="96.5" y="-1081.8" font-family="Times,serif" font-size="14.00">_______________________</text>
<text text-anchor="middle" x="96.5" y="-1066.8" font-family="Times,serif" font-size="14.00">_______________________</text>
<text text-anchor="middle" x="96.5" y="-1051.8" font-family="Times,serif" font-size="14.00">movl (%rsi), %esi</text>
<text text-anchor="middle" x="96.5" y="-1036.8" font-family="Times,serif" font-size="14.00">movq 0x380(%r10), %rcx</text>
<text text-anchor="middle" x="96.5" y="-1021.8" font-family="Times,serif" font-size="14.00">leaq 8(%rsp), %rdx</text>
<text text-anchor="middle" x="96.5" y="-1006.8" font-family="Times,serif" font-size="14.00">pushq $0</text>
<text text-anchor="middle" x="96.5" y="-991.8" font-family="Times,serif" font-size="14.00">pushq %rax</text>
<text text-anchor="middle" x="96.5" y="-976.8" font-family="Times,serif" font-size="14.00">movl $1, %r9d</text>
<text text-anchor="middle" x="96.5" y="-961.8" font-family="Times,serif" font-size="14.00">addq %rsi, %rdi</text>
<text text-anchor="middle" x="96.5" y="-946.8" font-family="Times,serif" font-size="14.00">movq %r10, %rsi</text>
<text text-anchor="middle" x="96.5" y="-931.8" font-family="Times,serif" font-size="14.00">callq 0x4000a0ce40</text>
<text text-anchor="middle" x="96.5" y="-916.8" font-family="Times,serif" font-size="14.00">_______________________</text>
<text text-anchor="middle" x="96.5" y="-901.8" font-family="Times,serif" font-size="14.00">CALL 0x4000a0ce40</text>
</g>
<!-- 1296&#45;&gt;1297 -->
<g id="edge4" class="edge"><title>1296&#45;&gt;1297</title>
<path fill="none" stroke="black" d="M96.5,-1147.68C96.5,-1139.24 96.5,-1130.76 96.5,-1122.38"/>
<polygon fill="black" stroke="black" points="100,-1122.22 96.5,-1112.22 93.0001,-1122.22 100,-1122.22"/>
</g>
<!-- 1298 -->
<g id="node6" class="node"><title>1298</title>
<polygon fill="none" stroke="black" points="182.5,-858 10.5,-858 10.5,-715 182.5,-715 182.5,-858"/>
<text text-anchor="middle" x="96.5" y="-842.8" font-family="Times,serif" font-size="14.00">0x4000a11d44</text>
<text text-anchor="middle" x="96.5" y="-827.8" font-family="Times,serif" font-size="14.00">_______________________</text>
<text text-anchor="middle" x="96.5" y="-812.8" font-family="Times,serif" font-size="14.00">_______________________</text>
<text text-anchor="middle" x="96.5" y="-797.8" font-family="Times,serif" font-size="14.00">movq %rax, %r8</text>
<text text-anchor="middle" x="96.5" y="-782.8" font-family="Times,serif" font-size="14.00">movl %fs:0x18, %eax</text>
<text text-anchor="middle" x="96.5" y="-767.8" font-family="Times,serif" font-size="14.00">testl %eax, %eax</text>
<text text-anchor="middle" x="96.5" y="-752.8" font-family="Times,serif" font-size="14.00">popq %rcx</text>
<text text-anchor="middle" x="96.5" y="-737.8" font-family="Times,serif" font-size="14.00">popq %rsi</text>
<text text-anchor="middle" x="96.5" y="-722.8" font-family="Times,serif" font-size="14.00">jne 0x4000a11dd0</text>
</g>
<!-- 1297&#45;&gt;1298 -->
<g id="edge5" class="edge"><title>1297&#45;&gt;1298</title>
<path fill="none" stroke="black" d="M96.5,-893.807C96.5,-885.221 96.5,-876.642 96.5,-868.292"/>
<polygon fill="black" stroke="black" points="100,-868.234 96.5,-858.235 93.0001,-868.235 100,-868.234"/>
</g>
<!-- 1299 -->
<g id="node7" class="node"><title>1299</title>
<polygon fill="none" stroke="black" points="182.5,-679 10.5,-679 10.5,-581 182.5,-581 182.5,-679"/>
<text text-anchor="middle" x="96.5" y="-663.8" font-family="Times,serif" font-size="14.00">0x4000a11d55</text>
<text text-anchor="middle" x="96.5" y="-648.8" font-family="Times,serif" font-size="14.00">_______________________</text>
<text text-anchor="middle" x="96.5" y="-633.8" font-family="Times,serif" font-size="14.00">_______________________</text>
<text text-anchor="middle" x="96.5" y="-618.8" font-family="Times,serif" font-size="14.00">movq 8(%rsp), %rsi</text>
<text text-anchor="middle" x="96.5" y="-603.8" font-family="Times,serif" font-size="14.00">testq %rsi, %rsi</text>
<text text-anchor="middle" x="96.5" y="-588.8" font-family="Times,serif" font-size="14.00">je 0x4000a11da0</text>
</g>
<!-- 1298&#45;&gt;1299 -->
<g id="edge6" class="edge"><title>1298&#45;&gt;1299</title>
<path fill="none" stroke="black" d="M96.5,-714.581C96.5,-706.214 96.5,-697.748 96.5,-689.578"/>
<polygon fill="black" stroke="black" points="100,-689.418 96.5,-679.418 93.0001,-689.418 100,-689.418"/>
</g>
<!-- 1300 -->
<g id="node8" class="node"><title>1300</title>
<polygon fill="none" stroke="black" points="182.5,-545 10.5,-545 10.5,-462 182.5,-462 182.5,-545"/>
<text text-anchor="middle" x="96.5" y="-529.8" font-family="Times,serif" font-size="14.00">0x4000a11d5f</text>
<text text-anchor="middle" x="96.5" y="-514.8" font-family="Times,serif" font-size="14.00">_______________________</text>
<text text-anchor="middle" x="96.5" y="-499.8" font-family="Times,serif" font-size="14.00">_______________________</text>
<text text-anchor="middle" x="96.5" y="-484.8" font-family="Times,serif" font-size="14.00">testq %r8, %r8</text>
<text text-anchor="middle" x="96.5" y="-469.8" font-family="Times,serif" font-size="14.00">je 0x4000a11da8</text>
</g>
<!-- 1299&#45;&gt;1300 -->
<g id="edge7" class="edge"><title>1299&#45;&gt;1300</title>
<path fill="none" stroke="black" d="M96.5,-580.865C96.5,-572.498 96.5,-563.771 96.5,-555.335"/>
<polygon fill="black" stroke="black" points="100,-555.231 96.5,-545.231 93.0001,-555.231 100,-555.231"/>
</g>
<!-- 1301 -->
<g id="node9" class="node"><title>1301</title>
<polygon fill="none" stroke="black" points="182.5,-426 10.5,-426 10.5,-283 182.5,-283 182.5,-426"/>
<text text-anchor="middle" x="96.5" y="-410.8" font-family="Times,serif" font-size="14.00">0x4000a11d64</text>
<text text-anchor="middle" x="96.5" y="-395.8" font-family="Times,serif" font-size="14.00">_______________________</text>
<text text-anchor="middle" x="96.5" y="-380.8" font-family="Times,serif" font-size="14.00">_______________________</text>
<text text-anchor="middle" x="96.5" y="-365.8" font-family="Times,serif" font-size="14.00">movq (%r8), %rax</text>
<text text-anchor="middle" x="96.5" y="-350.8" font-family="Times,serif" font-size="14.00">movzbl 4(%rsi), %edx</text>
<text text-anchor="middle" x="96.5" y="-335.8" font-family="Times,serif" font-size="14.00">addq 8(%rsi), %rax</text>
<text text-anchor="middle" x="96.5" y="-320.8" font-family="Times,serif" font-size="14.00">andl $0xf, %edx</text>
<text text-anchor="middle" x="96.5" y="-305.8" font-family="Times,serif" font-size="14.00">cmpb $0xa, %dl</text>
<text text-anchor="middle" x="96.5" y="-290.8" font-family="Times,serif" font-size="14.00">je 0x4000a11e10</text>
</g>
<!-- 1300&#45;&gt;1301 -->
<g id="edge8" class="edge"><title>1300&#45;&gt;1301</title>
<path fill="none" stroke="black" d="M96.5,-461.942C96.5,-453.854 96.5,-445.094 96.5,-436.192"/>
<polygon fill="black" stroke="black" points="100,-436.11 96.5,-426.11 93.0001,-436.11 100,-436.11"/>
</g>
<!-- 1302 -->
<g id="node10" class="node"><title>1302</title>
<polygon fill="none" stroke="black" points="184.5,-247 8.5,-247 8.5,-149 184.5,-149 184.5,-247"/>
<text text-anchor="middle" x="96.5" y="-231.8" font-family="Times,serif" font-size="14.00">0x4000a11d7b</text>
<text text-anchor="middle" x="96.5" y="-216.8" font-family="Times,serif" font-size="14.00">_______________________</text>
<text text-anchor="middle" x="96.5" y="-201.8" font-family="Times,serif" font-size="14.00">_______________________</text>
<text text-anchor="middle" x="96.5" y="-186.8" font-family="Times,serif" font-size="14.00">movl 0x213f67(%rip), %edx</text>
<text text-anchor="middle" x="96.5" y="-171.8" font-family="Times,serif" font-size="14.00">testl %edx, %edx</text>
<text text-anchor="middle" x="96.5" y="-156.8" font-family="Times,serif" font-size="14.00">jne 0x4000a11d88</text>
</g>
<!-- 1301&#45;&gt;1302 -->
<g id="edge9" class="edge"><title>1301&#45;&gt;1302</title>
<path fill="none" stroke="black" d="M96.5,-282.581C96.5,-274.214 96.5,-265.748 96.5,-257.578"/>
<polygon fill="black" stroke="black" points="100,-257.418 96.5,-247.418 93.0001,-257.418 100,-257.418"/>
</g>
<!-- 1303 -->
<g id="node11" class="node"><title>1303</title>
<polygon fill="none" stroke="black" points="182.5,-113 10.5,-113 10.5,-0 182.5,-0 182.5,-113"/>
<text text-anchor="middle" x="96.5" y="-97.8" font-family="Times,serif" font-size="14.00">0x4000a11d85</text>
<text text-anchor="middle" x="96.5" y="-82.8" font-family="Times,serif" font-size="14.00">_______________________</text>
<text text-anchor="middle" x="96.5" y="-67.8" font-family="Times,serif" font-size="14.00">_______________________</text>
<text text-anchor="middle" x="96.5" y="-52.8" font-family="Times,serif" font-size="14.00">movq %rax, (%rbx)</text>
<text text-anchor="middle" x="96.5" y="-37.8" font-family="Times,serif" font-size="14.00">addq $0x10, %rsp</text>
<text text-anchor="middle" x="96.5" y="-22.8" font-family="Times,serif" font-size="14.00">popq %rbx</text>
<text text-anchor="middle" x="96.5" y="-7.8" font-family="Times,serif" font-size="14.00">retq </text>
</g>
<!-- 1302&#45;&gt;1303 -->
<g id="edge10" class="edge"><title>1302&#45;&gt;1303</title>
<path fill="none" stroke="black" d="M96.5,-148.992C96.5,-140.722 96.5,-131.998 96.5,-123.354"/>
<polygon fill="black" stroke="black" points="100,-123.276 96.5,-113.276 93.0001,-123.276 100,-123.276"/>
</g>
</g>
</svg>
