<?xml version="1.0" encoding="UTF-8" standalone="no"?>
<!DOCTYPE svg PUBLIC "-//W3C//DTD SVG 1.1//EN"
 "http://www.w3.org/Graphics/SVG/1.1/DTD/svg11.dtd">
<!-- Generated by graphviz version 2.38.0 (20140413.2041)
 -->
<!-- Title: %3 Pages: 1 -->
<svg width="370pt" height="1135pt"
 viewBox="0.00 0.00 370.00 1135.00" xmlns="http://www.w3.org/2000/svg" xmlns:xlink="http://www.w3.org/1999/xlink">
<g id="graph0" class="graph" transform="scale(1 1) rotate(0) translate(4 1131)">
<title>%3</title>
<polygon fill="white" stroke="none" points="-4,4 -4,-1131 366,-1131 366,4 -4,4"/>
<!-- 383 -->
<g id="node1" class="node"><title>383</title>
<polygon fill="none" stroke="black" points="229,-1127 57,-1127 57,-939 229,-939 229,-1127"/>
<text text-anchor="middle" x="143" y="-1111.8" font-family="Times,serif" font-size="14.00">0x4000a13670</text>
<text text-anchor="middle" x="143" y="-1096.8" font-family="Times,serif" font-size="14.00">_______________________</text>
<text text-anchor="middle" x="143" y="-1081.8" font-family="Times,serif" font-size="14.00">_______________________</text>
<text text-anchor="middle" x="143" y="-1066.8" font-family="Times,serif" font-size="14.00">pushq %rbp</text>
<text text-anchor="middle" x="143" y="-1051.8" font-family="Times,serif" font-size="14.00">pushq %rbx</text>
<text text-anchor="middle" x="143" y="-1036.8" font-family="Times,serif" font-size="14.00">movq %rsi, %rbx</text>
<text text-anchor="middle" x="143" y="-1021.8" font-family="Times,serif" font-size="14.00">movq %rdi, %rbp</text>
<text text-anchor="middle" x="143" y="-1006.8" font-family="Times,serif" font-size="14.00">subq $8, %rsp</text>
<text text-anchor="middle" x="143" y="-991.8" font-family="Times,serif" font-size="14.00">movq 8(%rsi), %rsi</text>
<text text-anchor="middle" x="143" y="-976.8" font-family="Times,serif" font-size="14.00">callq 0x4000a1ca40</text>
<text text-anchor="middle" x="143" y="-961.8" font-family="Times,serif" font-size="14.00">_______________________</text>
<text text-anchor="middle" x="143" y="-946.8" font-family="Times,serif" font-size="14.00">CALL 0x4000a1ca40</text>
</g>
<!-- 386 -->
<g id="node2" class="node"><title>386</title>
<polygon fill="none" stroke="black" points="229,-903 57,-903 57,-805 229,-805 229,-903"/>
<text text-anchor="middle" x="143" y="-887.8" font-family="Times,serif" font-size="14.00">0x4000a13685</text>
<text text-anchor="middle" x="143" y="-872.8" font-family="Times,serif" font-size="14.00">_______________________</text>
<text text-anchor="middle" x="143" y="-857.8" font-family="Times,serif" font-size="14.00">_______________________</text>
<text text-anchor="middle" x="143" y="-842.8" font-family="Times,serif" font-size="14.00">testl %eax, %eax</text>
<text text-anchor="middle" x="143" y="-827.8" font-family="Times,serif" font-size="14.00">movl $1, %edx</text>
<text text-anchor="middle" x="143" y="-812.8" font-family="Times,serif" font-size="14.00">je 0x4000a136bd</text>
</g>
<!-- 383&#45;&gt;386 -->
<g id="edge1" class="edge"><title>383&#45;&gt;386</title>
<path fill="none" stroke="black" d="M143,-938.835C143,-930.168 143,-921.561 143,-913.348"/>
<polygon fill="black" stroke="black" points="146.5,-913.18 143,-903.18 139.5,-913.18 146.5,-913.18"/>
</g>
<!-- 387 -->
<g id="node3" class="node"><title>387</title>
<polygon fill="none" stroke="black" points="229,-769 57,-769 57,-671 229,-671 229,-769"/>
<text text-anchor="middle" x="143" y="-753.8" font-family="Times,serif" font-size="14.00">0x4000a1368e</text>
<text text-anchor="middle" x="143" y="-738.8" font-family="Times,serif" font-size="14.00">_______________________</text>
<text text-anchor="middle" x="143" y="-723.8" font-family="Times,serif" font-size="14.00">_______________________</text>
<text text-anchor="middle" x="143" y="-708.8" font-family="Times,serif" font-size="14.00">movq 0x38(%rbx), %rbx</text>
<text text-anchor="middle" x="143" y="-693.8" font-family="Times,serif" font-size="14.00">testq %rbx, %rbx</text>
<text text-anchor="middle" x="143" y="-678.8" font-family="Times,serif" font-size="14.00">jne 0x4000a136a9</text>
</g>
<!-- 386&#45;&gt;387 -->
<g id="edge2" class="edge"><title>386&#45;&gt;387</title>
<path fill="none" stroke="black" d="M143,-804.972C143,-796.691 143,-788.003 143,-779.483"/>
<polygon fill="black" stroke="black" points="146.5,-779.214 143,-769.214 139.5,-779.214 146.5,-779.214"/>
</g>
<!-- 388 -->
<g id="node4" class="node"><title>388</title>
<polygon fill="none" stroke="black" points="229,-635 57,-635 57,-507 229,-507 229,-635"/>
<text text-anchor="middle" x="143" y="-619.8" font-family="Times,serif" font-size="14.00">0x4000a136a9</text>
<text text-anchor="middle" x="143" y="-604.8" font-family="Times,serif" font-size="14.00">_______________________</text>
<text text-anchor="middle" x="143" y="-589.8" font-family="Times,serif" font-size="14.00">_______________________</text>
<text text-anchor="middle" x="143" y="-574.8" font-family="Times,serif" font-size="14.00">movq (%rbx), %rsi</text>
<text text-anchor="middle" x="143" y="-559.8" font-family="Times,serif" font-size="14.00">movq %rbp, %rdi</text>
<text text-anchor="middle" x="143" y="-544.8" font-family="Times,serif" font-size="14.00">callq 0x4000a1ca40</text>
<text text-anchor="middle" x="143" y="-529.8" font-family="Times,serif" font-size="14.00">_______________________</text>
<text text-anchor="middle" x="143" y="-514.8" font-family="Times,serif" font-size="14.00">CALL 0x4000a1ca40</text>
</g>
<!-- 387&#45;&gt;388 -->
<g id="edge3" class="edge"><title>387&#45;&gt;388</title>
<path fill="none" stroke="black" d="M143,-670.867C143,-662.682 143,-654.018 143,-645.358"/>
<polygon fill="black" stroke="black" points="146.5,-645.221 143,-635.221 139.5,-645.221 146.5,-645.221"/>
</g>
<!-- 389 -->
<g id="node5" class="node"><title>389</title>
<polygon fill="none" stroke="black" points="286,-471 114,-471 114,-358 286,-358 286,-471"/>
<text text-anchor="middle" x="200" y="-455.8" font-family="Times,serif" font-size="14.00">0x4000a136b4</text>
<text text-anchor="middle" x="200" y="-440.8" font-family="Times,serif" font-size="14.00">_______________________</text>
<text text-anchor="middle" x="200" y="-425.8" font-family="Times,serif" font-size="14.00">_______________________</text>
<text text-anchor="middle" x="200" y="-410.8" font-family="Times,serif" font-size="14.00">testl %eax, %eax</text>
<text text-anchor="middle" x="200" y="-395.8" font-family="Times,serif" font-size="14.00">jne 0x4000a136a0</text>
<text text-anchor="middle" x="200" y="-380.8" font-family="Times,serif" font-size="14.00">_______________________</text>
<text text-anchor="middle" x="200" y="-365.8" font-family="Times,serif" font-size="14.00">LOOP 0x4000a136a9</text>
</g>
<!-- 388&#45;&gt;389 -->
<g id="edge4" class="edge"><title>388&#45;&gt;389</title>
<path fill="none" stroke="black" d="M166.349,-506.713C169.521,-498.115 172.781,-489.279 175.964,-480.649"/>
<polygon fill="black" stroke="black" points="179.34,-481.611 179.518,-471.017 172.773,-479.188 179.34,-481.611"/>
</g>
<!-- 390 -->
<g id="node6" class="node"><title>390</title>
<polygon fill="none" stroke="black" points="172,-314.5 0,-314.5 0,-186.5 172,-186.5 172,-314.5"/>
<text text-anchor="middle" x="86" y="-299.3" font-family="Times,serif" font-size="14.00">0x4000a136a0</text>
<text text-anchor="middle" x="86" y="-284.3" font-family="Times,serif" font-size="14.00">_______________________</text>
<text text-anchor="middle" x="86" y="-269.3" font-family="Times,serif" font-size="14.00">_______________________</text>
<text text-anchor="middle" x="86" y="-254.3" font-family="Times,serif" font-size="14.00">movq 8(%rbx), %rbx</text>
<text text-anchor="middle" x="86" y="-239.3" font-family="Times,serif" font-size="14.00">testq %rbx, %rbx</text>
<text text-anchor="middle" x="86" y="-224.3" font-family="Times,serif" font-size="14.00">je 0x4000a136d0</text>
<text text-anchor="middle" x="86" y="-209.3" font-family="Times,serif" font-size="14.00">_______________________</text>
<text text-anchor="middle" x="86" y="-194.3" font-family="Times,serif" font-size="14.00">LOOP 0x4000a136a9</text>
</g>
<!-- 389&#45;&gt;390 -->
<g id="edge5" class="edge"><title>389&#45;&gt;390</title>
<path fill="none" stroke="black" d="M160.768,-357.749C152.89,-346.554 144.509,-334.645 136.315,-323.001"/>
<polygon fill="black" stroke="black" points="139.009,-320.747 130.392,-314.583 133.284,-324.775 139.009,-320.747"/>
</g>
<!-- 749 -->
<g id="node7" class="node"><title>749</title>
<polygon fill="none" stroke="black" points="362,-322 190,-322 190,-179 362,-179 362,-322"/>
<text text-anchor="middle" x="276" y="-306.8" font-family="Times,serif" font-size="14.00">0x4000a136b8</text>
<text text-anchor="middle" x="276" y="-291.8" font-family="Times,serif" font-size="14.00">_______________________</text>
<text text-anchor="middle" x="276" y="-276.8" font-family="Times,serif" font-size="14.00">_______________________</text>
<text text-anchor="middle" x="276" y="-261.8" font-family="Times,serif" font-size="14.00">movl $1, %edx</text>
<text text-anchor="middle" x="276" y="-246.8" font-family="Times,serif" font-size="14.00">addq $8, %rsp</text>
<text text-anchor="middle" x="276" y="-231.8" font-family="Times,serif" font-size="14.00">movl %edx, %eax</text>
<text text-anchor="middle" x="276" y="-216.8" font-family="Times,serif" font-size="14.00">popq %rbx</text>
<text text-anchor="middle" x="276" y="-201.8" font-family="Times,serif" font-size="14.00">popq %rbp</text>
<text text-anchor="middle" x="276" y="-186.8" font-family="Times,serif" font-size="14.00">retq </text>
</g>
<!-- 389&#45;&gt;749 -->
<g id="edge6" class="edge"><title>389&#45;&gt;749</title>
<path fill="none" stroke="black" d="M226.155,-357.749C230.138,-349.258 234.315,-340.355 238.483,-331.469"/>
<polygon fill="black" stroke="black" points="241.738,-332.773 242.816,-322.233 235.401,-329.8 241.738,-332.773"/>
</g>
<!-- 390&#45;&gt;388 -->
<g id="edge7" class="edge"><title>390&#45;&gt;388</title>
<path fill="none" stroke="black" d="M86.7991,-314.671C88.4886,-358.93 93.0643,-419.189 105,-471 107.003,-479.695 109.61,-488.647 112.52,-497.446"/>
<polygon fill="black" stroke="black" points="109.216,-498.6 115.783,-506.915 115.834,-496.32 109.216,-498.6"/>
</g>
<!-- 391 -->
<g id="node8" class="node"><title>391</title>
<polygon fill="none" stroke="black" points="172,-143 0,-143 0,-0 172,-0 172,-143"/>
<text text-anchor="middle" x="86" y="-127.8" font-family="Times,serif" font-size="14.00">0x4000a136d0</text>
<text text-anchor="middle" x="86" y="-112.8" font-family="Times,serif" font-size="14.00">_______________________</text>
<text text-anchor="middle" x="86" y="-97.8" font-family="Times,serif" font-size="14.00">_______________________</text>
<text text-anchor="middle" x="86" y="-82.8" font-family="Times,serif" font-size="14.00">addq $8, %rsp</text>
<text text-anchor="middle" x="86" y="-67.8" font-family="Times,serif" font-size="14.00">xorl %edx, %edx</text>
<text text-anchor="middle" x="86" y="-52.8" font-family="Times,serif" font-size="14.00">movl %edx, %eax</text>
<text text-anchor="middle" x="86" y="-37.8" font-family="Times,serif" font-size="14.00">popq %rbx</text>
<text text-anchor="middle" x="86" y="-22.8" font-family="Times,serif" font-size="14.00">popq %rbp</text>
<text text-anchor="middle" x="86" y="-7.8" font-family="Times,serif" font-size="14.00">retq </text>
</g>
<!-- 390&#45;&gt;391 -->
<g id="edge8" class="edge"><title>390&#45;&gt;391</title>
<path fill="none" stroke="black" d="M86,-186.099C86,-175.466 86,-164.307 86,-153.307"/>
<polygon fill="black" stroke="black" points="89.5001,-153.27 86,-143.27 82.5001,-153.27 89.5001,-153.27"/>
</g>
</g>
</svg>
