<?xml version="1.0" encoding="UTF-8" standalone="no"?>
<!DOCTYPE svg PUBLIC "-//W3C//DTD SVG 1.1//EN"
 "http://www.w3.org/Graphics/SVG/1.1/DTD/svg11.dtd">
<!-- Generated by graphviz version 2.38.0 (20140413.2041)
 -->
<!-- Title: %3 Pages: 1 -->
<svg width="180pt" height="688pt"
 viewBox="0.00 0.00 180.00 688.00" xmlns="http://www.w3.org/2000/svg" xmlns:xlink="http://www.w3.org/1999/xlink">
<g id="graph0" class="graph" transform="scale(1 1) rotate(0) translate(4 684)">
<title>%3</title>
<polygon fill="white" stroke="none" points="-4,4 -4,-684 176,-684 176,4 -4,4"/>
<!-- 514 -->
<g id="node1" class="node"><title>514</title>
<polygon fill="none" stroke="black" points="172,-680 0,-680 0,-522 172,-522 172,-680"/>
<text text-anchor="middle" x="86" y="-664.8" font-family="Times,serif" font-size="14.00">0x4000a1df20</text>
<text text-anchor="middle" x="86" y="-649.8" font-family="Times,serif" font-size="14.00">_______________________</text>
<text text-anchor="middle" x="86" y="-634.8" font-family="Times,serif" font-size="14.00">_______________________</text>
<text text-anchor="middle" x="86" y="-619.8" font-family="Times,serif" font-size="14.00">pushq %rbp</text>
<text text-anchor="middle" x="86" y="-604.8" font-family="Times,serif" font-size="14.00">pushq %rbx</text>
<text text-anchor="middle" x="86" y="-589.8" font-family="Times,serif" font-size="14.00">movq %rdi, %rbp</text>
<text text-anchor="middle" x="86" y="-574.8" font-family="Times,serif" font-size="14.00">subq $8, %rsp</text>
<text text-anchor="middle" x="86" y="-559.8" font-family="Times,serif" font-size="14.00">callq 0x4000a1df70</text>
<text text-anchor="middle" x="86" y="-544.8" font-family="Times,serif" font-size="14.00">_______________________</text>
<text text-anchor="middle" x="86" y="-529.8" font-family="Times,serif" font-size="14.00">CALL 0x4000a1df70</text>
</g>
<!-- 515 -->
<g id="node2" class="node"><title>515</title>
<polygon fill="none" stroke="black" points="172,-486 0,-486 0,-343 172,-343 172,-486"/>
<text text-anchor="middle" x="86" y="-470.8" font-family="Times,serif" font-size="14.00">0x4000a1df2e</text>
<text text-anchor="middle" x="86" y="-455.8" font-family="Times,serif" font-size="14.00">_______________________</text>
<text text-anchor="middle" x="86" y="-440.8" font-family="Times,serif" font-size="14.00">_______________________</text>
<text text-anchor="middle" x="86" y="-425.8" font-family="Times,serif" font-size="14.00">leaq 1(%rax), %rbx</text>
<text text-anchor="middle" x="86" y="-410.8" font-family="Times,serif" font-size="14.00">movq %rbx, %rdi</text>
<text text-anchor="middle" x="86" y="-395.8" font-family="Times,serif" font-size="14.00">callq 0x4000a03a40</text>
<text text-anchor="middle" x="86" y="-380.8" font-family="Times,serif" font-size="14.00">_______________________</text>
<text text-anchor="middle" x="86" y="-365.8" font-family="Times,serif" font-size="14.00">CALL calloc</text>
<text text-anchor="middle" x="86" y="-350.8" font-family="Times,serif" font-size="14.00">CALL 0x4000a03a40</text>
</g>
<!-- 514&#45;&gt;515 -->
<g id="edge1" class="edge"><title>514&#45;&gt;515</title>
<path fill="none" stroke="black" d="M86,-521.755C86,-513.377 86,-504.84 86,-496.431"/>
<polygon fill="black" stroke="black" points="89.5001,-496.255 86,-486.255 82.5001,-496.255 89.5001,-496.255"/>
</g>
<!-- 516 -->
<g id="node3" class="node"><title>516</title>
<polygon fill="none" stroke="black" points="172,-307 0,-307 0,-224 172,-224 172,-307"/>
<text text-anchor="middle" x="86" y="-291.8" font-family="Times,serif" font-size="14.00">0x4000a1df3a</text>
<text text-anchor="middle" x="86" y="-276.8" font-family="Times,serif" font-size="14.00">_______________________</text>
<text text-anchor="middle" x="86" y="-261.8" font-family="Times,serif" font-size="14.00">_______________________</text>
<text text-anchor="middle" x="86" y="-246.8" font-family="Times,serif" font-size="14.00">testq %rax, %rax</text>
<text text-anchor="middle" x="86" y="-231.8" font-family="Times,serif" font-size="14.00">je 0x4000a1df58</text>
</g>
<!-- 515&#45;&gt;516 -->
<g id="edge2" class="edge"><title>515&#45;&gt;516</title>
<path fill="none" stroke="black" d="M86,-342.584C86,-334.014 86,-325.398 86,-317.201"/>
<polygon fill="black" stroke="black" points="89.5001,-317.079 86,-307.079 82.5001,-317.079 89.5001,-317.079"/>
</g>
<!-- 517 -->
<g id="node4" class="node"><title>517</title>
<polygon fill="none" stroke="black" points="172,-188 0,-188 0,-0 172,-0 172,-188"/>
<text text-anchor="middle" x="86" y="-172.8" font-family="Times,serif" font-size="14.00">0x4000a1df3f</text>
<text text-anchor="middle" x="86" y="-157.8" font-family="Times,serif" font-size="14.00">_______________________</text>
<text text-anchor="middle" x="86" y="-142.8" font-family="Times,serif" font-size="14.00">_______________________</text>
<text text-anchor="middle" x="86" y="-127.8" font-family="Times,serif" font-size="14.00">addq $8, %rsp</text>
<text text-anchor="middle" x="86" y="-112.8" font-family="Times,serif" font-size="14.00">movq %rbx, %rdx</text>
<text text-anchor="middle" x="86" y="-97.8" font-family="Times,serif" font-size="14.00">movq %rbp, %rsi</text>
<text text-anchor="middle" x="86" y="-82.8" font-family="Times,serif" font-size="14.00">popq %rbx</text>
<text text-anchor="middle" x="86" y="-67.8" font-family="Times,serif" font-size="14.00">popq %rbp</text>
<text text-anchor="middle" x="86" y="-52.8" font-family="Times,serif" font-size="14.00">movq %rax, %rdi</text>
<text text-anchor="middle" x="86" y="-37.8" font-family="Times,serif" font-size="14.00">jmp 0x4000a1eaa0</text>
<text text-anchor="middle" x="86" y="-22.8" font-family="Times,serif" font-size="14.00">_______________________</text>
<text text-anchor="middle" x="86" y="-7.8" font-family="Times,serif" font-size="14.00">CALL 0x4000a1eaa0</text>
</g>
<!-- 516&#45;&gt;517 -->
<g id="edge3" class="edge"><title>516&#45;&gt;517</title>
<path fill="none" stroke="black" d="M86,-223.901C86,-215.931 86,-207.238 86,-198.254"/>
<polygon fill="black" stroke="black" points="89.5001,-198.009 86,-188.01 82.5001,-198.01 89.5001,-198.009"/>
</g>
</g>
</svg>
