<?xml version="1.0" encoding="UTF-8" standalone="no"?>
<!DOCTYPE svg PUBLIC "-//W3C//DTD SVG 1.1//EN"
 "http://www.w3.org/Graphics/SVG/1.1/DTD/svg11.dtd">
<!-- Generated by graphviz version 2.38.0 (20140413.2041)
 -->
<!-- Title: %3 Pages: 1 -->
<svg width="180pt" height="912pt"
 viewBox="0.00 0.00 180.00 912.00" xmlns="http://www.w3.org/2000/svg" xmlns:xlink="http://www.w3.org/1999/xlink">
<g id="graph0" class="graph" transform="scale(1 1) rotate(0) translate(4 908)">
<title>%3</title>
<polygon fill="white" stroke="none" points="-4,4 -4,-908 176,-908 176,4 -4,4"/>
<!-- 1474 -->
<g id="node1" class="node"><title>1474</title>
<polygon fill="none" stroke="black" points="172,-904 0,-904 0,-671 172,-671 172,-904"/>
<text text-anchor="middle" x="86" y="-888.8" font-family="Times,serif" font-size="14.00">0x4000d29f60</text>
<text text-anchor="middle" x="86" y="-873.8" font-family="Times,serif" font-size="14.00">_______________________</text>
<text text-anchor="middle" x="86" y="-858.8" font-family="Times,serif" font-size="14.00">_______________________</text>
<text text-anchor="middle" x="86" y="-843.8" font-family="Times,serif" font-size="14.00">testq %rdi, %rdi</text>
<text text-anchor="middle" x="86" y="-828.8" font-family="Times,serif" font-size="14.00">pushq %r15</text>
<text text-anchor="middle" x="86" y="-813.8" font-family="Times,serif" font-size="14.00">movq %r9, %r15</text>
<text text-anchor="middle" x="86" y="-798.8" font-family="Times,serif" font-size="14.00">pushq %r14</text>
<text text-anchor="middle" x="86" y="-783.8" font-family="Times,serif" font-size="14.00">movl %ecx, %r14d</text>
<text text-anchor="middle" x="86" y="-768.8" font-family="Times,serif" font-size="14.00">pushq %r13</text>
<text text-anchor="middle" x="86" y="-753.8" font-family="Times,serif" font-size="14.00">movq %rsi, %r13</text>
<text text-anchor="middle" x="86" y="-738.8" font-family="Times,serif" font-size="14.00">pushq %r12</text>
<text text-anchor="middle" x="86" y="-723.8" font-family="Times,serif" font-size="14.00">movq %rdi, %r12</text>
<text text-anchor="middle" x="86" y="-708.8" font-family="Times,serif" font-size="14.00">pushq %rbp</text>
<text text-anchor="middle" x="86" y="-693.8" font-family="Times,serif" font-size="14.00">pushq %rbx</text>
<text text-anchor="middle" x="86" y="-678.8" font-family="Times,serif" font-size="14.00">je 0x4000d29fb0</text>
</g>
<!-- 1475 -->
<g id="node2" class="node"><title>1475</title>
<polygon fill="none" stroke="black" points="172,-635 0,-635 0,-552 172,-552 172,-635"/>
<text text-anchor="middle" x="86" y="-619.8" font-family="Times,serif" font-size="14.00">0x4000d29fb0</text>
<text text-anchor="middle" x="86" y="-604.8" font-family="Times,serif" font-size="14.00">_______________________</text>
<text text-anchor="middle" x="86" y="-589.8" font-family="Times,serif" font-size="14.00">_______________________</text>
<text text-anchor="middle" x="86" y="-574.8" font-family="Times,serif" font-size="14.00">testb $4, %dl</text>
<text text-anchor="middle" x="86" y="-559.8" font-family="Times,serif" font-size="14.00">je 0x4000d29f7b</text>
</g>
<!-- 1474&#45;&gt;1475 -->
<g id="edge1" class="edge"><title>1474&#45;&gt;1475</title>
<path fill="none" stroke="black" d="M86,-670.935C86,-662.1 86,-653.495 86,-645.438"/>
<polygon fill="black" stroke="black" points="89.5001,-645.189 86,-635.189 82.5001,-645.189 89.5001,-645.189"/>
</g>
<!-- 1476 -->
<g id="node3" class="node"><title>1476</title>
<polygon fill="none" stroke="black" points="172,-516 0,-516 0,-313 172,-313 172,-516"/>
<text text-anchor="middle" x="86" y="-500.8" font-family="Times,serif" font-size="14.00">0x4000d29f7b</text>
<text text-anchor="middle" x="86" y="-485.8" font-family="Times,serif" font-size="14.00">_______________________</text>
<text text-anchor="middle" x="86" y="-470.8" font-family="Times,serif" font-size="14.00">_______________________</text>
<text text-anchor="middle" x="86" y="-455.8" font-family="Times,serif" font-size="14.00">movslq %r8d, %rbp</text>
<text text-anchor="middle" x="86" y="-440.8" font-family="Times,serif" font-size="14.00">movslq %edx, %rbx</text>
<text text-anchor="middle" x="86" y="-425.8" font-family="Times,serif" font-size="14.00">movq %r15, %r9</text>
<text text-anchor="middle" x="86" y="-410.8" font-family="Times,serif" font-size="14.00">movq %rbp, %r8</text>
<text text-anchor="middle" x="86" y="-395.8" font-family="Times,serif" font-size="14.00">movslq %r14d, %r10</text>
<text text-anchor="middle" x="86" y="-380.8" font-family="Times,serif" font-size="14.00">movq %rbx, %rdx</text>
<text text-anchor="middle" x="86" y="-365.8" font-family="Times,serif" font-size="14.00">movq %r13, %rsi</text>
<text text-anchor="middle" x="86" y="-350.8" font-family="Times,serif" font-size="14.00">movq %r12, %rdi</text>
<text text-anchor="middle" x="86" y="-335.8" font-family="Times,serif" font-size="14.00">movl $9, %eax</text>
<text text-anchor="middle" x="86" y="-320.8" font-family="Times,serif" font-size="14.00">syscall </text>
</g>
<!-- 1475&#45;&gt;1476 -->
<g id="edge2" class="edge"><title>1475&#45;&gt;1476</title>
<path fill="none" stroke="black" d="M86,-551.893C86,-543.958 86,-535.288 86,-526.29"/>
<polygon fill="black" stroke="black" points="89.5001,-526.012 86,-516.012 82.5001,-526.012 89.5001,-526.012"/>
</g>
<!-- 1477 -->
<g id="node4" class="node"><title>1477</title>
<polygon fill="none" stroke="black" points="172,-277 0,-277 0,-194 172,-194 172,-277"/>
<text text-anchor="middle" x="86" y="-261.8" font-family="Times,serif" font-size="14.00">0x4000d29f9a</text>
<text text-anchor="middle" x="86" y="-246.8" font-family="Times,serif" font-size="14.00">_______________________</text>
<text text-anchor="middle" x="86" y="-231.8" font-family="Times,serif" font-size="14.00">_______________________</text>
<text text-anchor="middle" x="86" y="-216.8" font-family="Times,serif" font-size="14.00">cmpq $&#45;0x1000, %rax</text>
<text text-anchor="middle" x="86" y="-201.8" font-family="Times,serif" font-size="14.00">ja 0x4000d2a000</text>
</g>
<!-- 1476&#45;&gt;1477 -->
<g id="edge3" class="edge"><title>1476&#45;&gt;1477</title>
<path fill="none" stroke="black" d="M86,-312.848C86,-303.983 86,-295.283 86,-287.114"/>
<polygon fill="black" stroke="black" points="89.5001,-287.079 86,-277.079 82.5001,-287.079 89.5001,-287.079"/>
</g>
<!-- 1478 -->
<g id="node5" class="node"><title>1478</title>
<polygon fill="none" stroke="black" points="172,-158 0,-158 0,-0 172,-0 172,-158"/>
<text text-anchor="middle" x="86" y="-142.8" font-family="Times,serif" font-size="14.00">0x4000d29fa2</text>
<text text-anchor="middle" x="86" y="-127.8" font-family="Times,serif" font-size="14.00">_______________________</text>
<text text-anchor="middle" x="86" y="-112.8" font-family="Times,serif" font-size="14.00">_______________________</text>
<text text-anchor="middle" x="86" y="-97.8" font-family="Times,serif" font-size="14.00">popq %rbx</text>
<text text-anchor="middle" x="86" y="-82.8" font-family="Times,serif" font-size="14.00">popq %rbp</text>
<text text-anchor="middle" x="86" y="-67.8" font-family="Times,serif" font-size="14.00">popq %r12</text>
<text text-anchor="middle" x="86" y="-52.8" font-family="Times,serif" font-size="14.00">popq %r13</text>
<text text-anchor="middle" x="86" y="-37.8" font-family="Times,serif" font-size="14.00">popq %r14</text>
<text text-anchor="middle" x="86" y="-22.8" font-family="Times,serif" font-size="14.00">popq %r15</text>
<text text-anchor="middle" x="86" y="-7.8" font-family="Times,serif" font-size="14.00">retq </text>
</g>
<!-- 1477&#45;&gt;1478 -->
<g id="edge4" class="edge"><title>1477&#45;&gt;1478</title>
<path fill="none" stroke="black" d="M86,-193.907C86,-185.917 86,-177.246 86,-168.375"/>
<polygon fill="black" stroke="black" points="89.5001,-168.3 86,-158.3 82.5001,-168.3 89.5001,-168.3"/>
</g>
</g>
</svg>
