<?xml version="1.0" encoding="UTF-8" standalone="no"?>
<!DOCTYPE svg PUBLIC "-//W3C//DTD SVG 1.1//EN"
 "http://www.w3.org/Graphics/SVG/1.1/DTD/svg11.dtd">
<!-- Generated by graphviz version 2.38.0 (20140413.2041)
 -->
<!-- Title: %3 Pages: 1 -->
<svg width="462pt" height="3135pt"
 viewBox="0.00 0.00 461.50 3135.00" xmlns="http://www.w3.org/2000/svg" xmlns:xlink="http://www.w3.org/1999/xlink">
<g id="graph0" class="graph" transform="scale(1 1) rotate(0) translate(4 3131)">
<title>%3</title>
<polygon fill="white" stroke="none" points="-4,4 -4,-3131 457.5,-3131 457.5,4 -4,4"/>
<!-- 260 -->
<g id="node1" class="node"><title>260</title>
<polygon fill="none" stroke="black" points="420,-3127 247,-3127 247,-2864 420,-2864 420,-3127"/>
<text text-anchor="middle" x="333.5" y="-3111.8" font-family="Times,serif" font-size="14.00">0x4000a0b040</text>
<text text-anchor="middle" x="333.5" y="-3096.8" font-family="Times,serif" font-size="14.00">_______________________</text>
<text text-anchor="middle" x="333.5" y="-3081.8" font-family="Times,serif" font-size="14.00">_______________________</text>
<text text-anchor="middle" x="333.5" y="-3066.8" font-family="Times,serif" font-size="14.00">pushq %rbp</text>
<text text-anchor="middle" x="333.5" y="-3051.8" font-family="Times,serif" font-size="14.00">movq 0x21ac68(%rip), %rsi</text>
<text text-anchor="middle" x="333.5" y="-3036.8" font-family="Times,serif" font-size="14.00">leaq 0x21add1(%rip), %rcx</text>
<text text-anchor="middle" x="333.5" y="-3021.8" font-family="Times,serif" font-size="14.00">leaq 0x21add2(%rip), %rdx</text>
<text text-anchor="middle" x="333.5" y="-3006.8" font-family="Times,serif" font-size="14.00">movq %rsp, %rbp</text>
<text text-anchor="middle" x="333.5" y="-2991.8" font-family="Times,serif" font-size="14.00">pushq %r14</text>
<text text-anchor="middle" x="333.5" y="-2976.8" font-family="Times,serif" font-size="14.00">pushq %r13</text>
<text text-anchor="middle" x="333.5" y="-2961.8" font-family="Times,serif" font-size="14.00">pushq %r12</text>
<text text-anchor="middle" x="333.5" y="-2946.8" font-family="Times,serif" font-size="14.00">movq %rdi, %r12</text>
<text text-anchor="middle" x="333.5" y="-2931.8" font-family="Times,serif" font-size="14.00">movq 0x21ac3f(%rip), %rdi</text>
<text text-anchor="middle" x="333.5" y="-2916.8" font-family="Times,serif" font-size="14.00">pushq %rbx</text>
<text text-anchor="middle" x="333.5" y="-2901.8" font-family="Times,serif" font-size="14.00">callq 0x4000a113c0</text>
<text text-anchor="middle" x="333.5" y="-2886.8" font-family="Times,serif" font-size="14.00">_______________________</text>
<text text-anchor="middle" x="333.5" y="-2871.8" font-family="Times,serif" font-size="14.00">CALL 0x4000a113c0</text>
</g>
<!-- 301 -->
<g id="node2" class="node"><title>301</title>
<polygon fill="none" stroke="black" points="422.5,-2828 244.5,-2828 244.5,-2685 422.5,-2685 422.5,-2828"/>
<text text-anchor="middle" x="333.5" y="-2812.8" font-family="Times,serif" font-size="14.00">0x4000a0b06f</text>
<text text-anchor="middle" x="333.5" y="-2797.8" font-family="Times,serif" font-size="14.00">_______________________</text>
<text text-anchor="middle" x="333.5" y="-2782.8" font-family="Times,serif" font-size="14.00">_______________________</text>
<text text-anchor="middle" x="333.5" y="-2767.8" font-family="Times,serif" font-size="14.00">movl $0x28, %edi</text>
<text text-anchor="middle" x="333.5" y="-2752.8" font-family="Times,serif" font-size="14.00">movq %rax, 0x21adb5(%rip)</text>
<text text-anchor="middle" x="333.5" y="-2737.8" font-family="Times,serif" font-size="14.00">callq 0x4000a03a40</text>
<text text-anchor="middle" x="333.5" y="-2722.8" font-family="Times,serif" font-size="14.00">_______________________</text>
<text text-anchor="middle" x="333.5" y="-2707.8" font-family="Times,serif" font-size="14.00">CALL calloc</text>
<text text-anchor="middle" x="333.5" y="-2692.8" font-family="Times,serif" font-size="14.00">CALL 0x4000a03a40</text>
</g>
<!-- 260&#45;&gt;301 -->
<g id="edge1" class="edge"><title>260&#45;&gt;301</title>
<path fill="none" stroke="black" d="M333.5,-2863.87C333.5,-2855.17 333.5,-2846.56 333.5,-2838.23"/>
<polygon fill="black" stroke="black" points="337,-2838.22 333.5,-2828.22 330,-2838.22 337,-2838.22"/>
</g>
<!-- 302 -->
<g id="node3" class="node"><title>302</title>
<polygon fill="none" stroke="black" points="422.5,-2649 244.5,-2649 244.5,-2551 422.5,-2551 422.5,-2649"/>
<text text-anchor="middle" x="333.5" y="-2633.8" font-family="Times,serif" font-size="14.00">0x4000a0b080</text>
<text text-anchor="middle" x="333.5" y="-2618.8" font-family="Times,serif" font-size="14.00">_______________________</text>
<text text-anchor="middle" x="333.5" y="-2603.8" font-family="Times,serif" font-size="14.00">_______________________</text>
<text text-anchor="middle" x="333.5" y="-2588.8" font-family="Times,serif" font-size="14.00">testq %rax, %rax</text>
<text text-anchor="middle" x="333.5" y="-2573.8" font-family="Times,serif" font-size="14.00">movq %rax, 0x21ad86(%rip)</text>
<text text-anchor="middle" x="333.5" y="-2558.8" font-family="Times,serif" font-size="14.00">je 0x4000a0b4a1</text>
</g>
<!-- 301&#45;&gt;302 -->
<g id="edge2" class="edge"><title>301&#45;&gt;302</title>
<path fill="none" stroke="black" d="M333.5,-2684.58C333.5,-2676.21 333.5,-2667.75 333.5,-2659.58"/>
<polygon fill="black" stroke="black" points="337,-2659.42 333.5,-2649.42 330,-2659.42 337,-2659.42"/>
</g>
<!-- 303 -->
<g id="node4" class="node"><title>303</title>
<polygon fill="none" stroke="black" points="453.5,-2515 213.5,-2515 213.5,-2267 453.5,-2267 453.5,-2515"/>
<text text-anchor="middle" x="333.5" y="-2499.8" font-family="Times,serif" font-size="14.00">0x4000a0b090</text>
<text text-anchor="middle" x="333.5" y="-2484.8" font-family="Times,serif" font-size="14.00">_______________________</text>
<text text-anchor="middle" x="333.5" y="-2469.8" font-family="Times,serif" font-size="14.00">_______________________</text>
<text text-anchor="middle" x="333.5" y="-2454.8" font-family="Times,serif" font-size="14.00">movq 0x21ad91(%rip), %rbx</text>
<text text-anchor="middle" x="333.5" y="-2439.8" font-family="Times,serif" font-size="14.00">movq %rax, %r14</text>
<text text-anchor="middle" x="333.5" y="-2424.8" font-family="Times,serif" font-size="14.00">movabsq $&#45;0x3333333333333333, %r13</text>
<text text-anchor="middle" x="333.5" y="-2409.8" font-family="Times,serif" font-size="14.00">leaq 0x4f(, %rbx, 4), %rdx</text>
<text text-anchor="middle" x="333.5" y="-2394.8" font-family="Times,serif" font-size="14.00">movq %rdx, %rax</text>
<text text-anchor="middle" x="333.5" y="-2379.8" font-family="Times,serif" font-size="14.00">mulq %r13</text>
<text text-anchor="middle" x="333.5" y="-2364.8" font-family="Times,serif" font-size="14.00">shrq $5, %rdx</text>
<text text-anchor="middle" x="333.5" y="-2349.8" font-family="Times,serif" font-size="14.00">imulq $0xa50, %rdx, %rdi</text>
<text text-anchor="middle" x="333.5" y="-2334.8" font-family="Times,serif" font-size="14.00">movq %rdx, %r13</text>
<text text-anchor="middle" x="333.5" y="-2319.8" font-family="Times,serif" font-size="14.00">callq 0x4000a03a40</text>
<text text-anchor="middle" x="333.5" y="-2304.8" font-family="Times,serif" font-size="14.00">_______________________</text>
<text text-anchor="middle" x="333.5" y="-2289.8" font-family="Times,serif" font-size="14.00">CALL calloc</text>
<text text-anchor="middle" x="333.5" y="-2274.8" font-family="Times,serif" font-size="14.00">CALL 0x4000a03a40</text>
</g>
<!-- 302&#45;&gt;303 -->
<g id="edge3" class="edge"><title>302&#45;&gt;303</title>
<path fill="none" stroke="black" d="M333.5,-2550.99C333.5,-2543.01 333.5,-2534.4 333.5,-2525.46"/>
<polygon fill="black" stroke="black" points="337,-2525.25 333.5,-2515.25 330,-2525.25 337,-2525.25"/>
</g>
<!-- 313 -->
<g id="node5" class="node"><title>313</title>
<polygon fill="none" stroke="black" points="419.5,-2231 247.5,-2231 247.5,-2133 419.5,-2133 419.5,-2231"/>
<text text-anchor="middle" x="333.5" y="-2215.8" font-family="Times,serif" font-size="14.00">0x4000a0b0c5</text>
<text text-anchor="middle" x="333.5" y="-2200.8" font-family="Times,serif" font-size="14.00">_______________________</text>
<text text-anchor="middle" x="333.5" y="-2185.8" font-family="Times,serif" font-size="14.00">_______________________</text>
<text text-anchor="middle" x="333.5" y="-2170.8" font-family="Times,serif" font-size="14.00">testq %rax, %rax</text>
<text text-anchor="middle" x="333.5" y="-2155.8" font-family="Times,serif" font-size="14.00">movq %rax, (%r14)</text>
<text text-anchor="middle" x="333.5" y="-2140.8" font-family="Times,serif" font-size="14.00">je 0x4000a0b4b6</text>
</g>
<!-- 303&#45;&gt;313 -->
<g id="edge4" class="edge"><title>303&#45;&gt;313</title>
<path fill="none" stroke="black" d="M333.5,-2266.9C333.5,-2258.11 333.5,-2249.51 333.5,-2241.38"/>
<polygon fill="black" stroke="black" points="337,-2241.34 333.5,-2231.34 330,-2241.34 337,-2241.34"/>
</g>
<!-- 314 -->
<g id="node6" class="node"><title>314</title>
<polygon fill="none" stroke="black" points="423,-2097 244,-2097 244,-1804 423,-1804 423,-2097"/>
<text text-anchor="middle" x="333.5" y="-2081.8" font-family="Times,serif" font-size="14.00">0x4000a0b0d1</text>
<text text-anchor="middle" x="333.5" y="-2066.8" font-family="Times,serif" font-size="14.00">_______________________</text>
<text text-anchor="middle" x="333.5" y="-2051.8" font-family="Times,serif" font-size="14.00">_______________________</text>
<text text-anchor="middle" x="333.5" y="-2036.8" font-family="Times,serif" font-size="14.00">leaq (%r13, %r13, 4), %r8</text>
<text text-anchor="middle" x="333.5" y="-2021.8" font-family="Times,serif" font-size="14.00">leaq 0x144e3(%rip), %rcx</text>
<text text-anchor="middle" x="333.5" y="-2006.8" font-family="Times,serif" font-size="14.00">leaq 0x152df(%rip), %r9</text>
<text text-anchor="middle" x="333.5" y="-1991.8" font-family="Times,serif" font-size="14.00">leaq 8(%r14), %rsi</text>
<text text-anchor="middle" x="333.5" y="-1976.8" font-family="Times,serif" font-size="14.00">leaq 0x144b1(%rip), %rdi</text>
<text text-anchor="middle" x="333.5" y="-1961.8" font-family="Times,serif" font-size="14.00">leaq 0x20(%r14), %r10</text>
<text text-anchor="middle" x="333.5" y="-1946.8" font-family="Times,serif" font-size="14.00">shlq $3, %r8</text>
<text text-anchor="middle" x="333.5" y="-1931.8" font-family="Times,serif" font-size="14.00">movq %rcx, 0x18(%rax)</text>
<text text-anchor="middle" x="333.5" y="-1916.8" font-family="Times,serif" font-size="14.00">leaq 0x144d5(%rip), %rcx</text>
<text text-anchor="middle" x="333.5" y="-1901.8" font-family="Times,serif" font-size="14.00">movq %r8, %r11</text>
<text text-anchor="middle" x="333.5" y="-1886.8" font-family="Times,serif" font-size="14.00">movl $0, 0x21ad09(%rip)</text>
<text text-anchor="middle" x="333.5" y="-1871.8" font-family="Times,serif" font-size="14.00">movq %rax, 0x21b8b2(%rip)</text>
<text text-anchor="middle" x="333.5" y="-1856.8" font-family="Times,serif" font-size="14.00">movq %r9, 8(%rax)</text>
<text text-anchor="middle" x="333.5" y="-1841.8" font-family="Times,serif" font-size="14.00">movq $0, 0x10(%rax)</text>
<text text-anchor="middle" x="333.5" y="-1826.8" font-family="Times,serif" font-size="14.00">negq %r11</text>
<text text-anchor="middle" x="333.5" y="-1811.8" font-family="Times,serif" font-size="14.00">movq $0x16, 0x20(%rax)</text>
</g>
<!-- 313&#45;&gt;314 -->
<g id="edge5" class="edge"><title>313&#45;&gt;314</title>
<path fill="none" stroke="black" d="M333.5,-2132.89C333.5,-2124.96 333.5,-2116.39 333.5,-2107.43"/>
<polygon fill="black" stroke="black" points="337,-2107.16 333.5,-2097.16 330,-2107.16 337,-2107.16"/>
</g>
<!-- 320 -->
<g id="node7" class="node"><title>320</title>
<polygon fill="none" stroke="black" points="419.5,-1768 247.5,-1768 247.5,-1670 419.5,-1670 419.5,-1768"/>
<text text-anchor="middle" x="333.5" y="-1752.8" font-family="Times,serif" font-size="14.00">0x4000a0b12d</text>
<text text-anchor="middle" x="333.5" y="-1737.8" font-family="Times,serif" font-size="14.00">_______________________</text>
<text text-anchor="middle" x="333.5" y="-1722.8" font-family="Times,serif" font-size="14.00">_______________________</text>
<text text-anchor="middle" x="333.5" y="-1707.8" font-family="Times,serif" font-size="14.00">xorl %edx, %edx</text>
<text text-anchor="middle" x="333.5" y="-1692.8" font-family="Times,serif" font-size="14.00">testq %rbx, %rbx</text>
<text text-anchor="middle" x="333.5" y="-1677.8" font-family="Times,serif" font-size="14.00">je 0x4000a0b149</text>
</g>
<!-- 314&#45;&gt;320 -->
<g id="edge6" class="edge"><title>314&#45;&gt;320</title>
<path fill="none" stroke="black" d="M333.5,-1803.83C333.5,-1795.07 333.5,-1786.58 333.5,-1778.57"/>
<polygon fill="black" stroke="black" points="337,-1778.33 333.5,-1768.33 330,-1778.33 337,-1778.33"/>
</g>
<!-- 315 -->
<g id="node8" class="node"><title>315</title>
<polygon fill="none" stroke="black" points="356.5,-1634 184.5,-1634 184.5,-1536 356.5,-1536 356.5,-1634"/>
<text text-anchor="middle" x="270.5" y="-1618.8" font-family="Times,serif" font-size="14.00">0x4000a0b134</text>
<text text-anchor="middle" x="270.5" y="-1603.8" font-family="Times,serif" font-size="14.00">_______________________</text>
<text text-anchor="middle" x="270.5" y="-1588.8" font-family="Times,serif" font-size="14.00">_______________________</text>
<text text-anchor="middle" x="270.5" y="-1573.8" font-family="Times,serif" font-size="14.00">nopl (%rax)</text>
<text text-anchor="middle" x="270.5" y="-1558.8" font-family="Times,serif" font-size="14.00">_______________________</text>
<text text-anchor="middle" x="270.5" y="-1543.8" font-family="Times,serif" font-size="14.00">LOOP 0x4000a0b12d</text>
</g>
<!-- 320&#45;&gt;315 -->
<g id="edge14" class="edge"><title>320&#45;&gt;315</title>
<path fill="none" stroke="black" d="M310.577,-1669.97C306.452,-1661.33 302.114,-1652.24 297.877,-1643.36"/>
<polygon fill="black" stroke="black" points="300.977,-1641.73 293.511,-1634.21 294.66,-1644.75 300.977,-1641.73"/>
</g>
<!-- 316 -->
<g id="node9" class="node"><title>316</title>
<polygon fill="none" stroke="black" points="351,-1500 164,-1500 164,-1357 351,-1357 351,-1500"/>
<text text-anchor="middle" x="257.5" y="-1484.8" font-family="Times,serif" font-size="14.00">0x4000a0b138</text>
<text text-anchor="middle" x="257.5" y="-1469.8" font-family="Times,serif" font-size="14.00">_______________________</text>
<text text-anchor="middle" x="257.5" y="-1454.8" font-family="Times,serif" font-size="14.00">_______________________</text>
<text text-anchor="middle" x="257.5" y="-1439.8" font-family="Times,serif" font-size="14.00">movl $0, 0x28(%rax, %rdx, 4)</text>
<text text-anchor="middle" x="257.5" y="-1424.8" font-family="Times,serif" font-size="14.00">addq $1, %rdx</text>
<text text-anchor="middle" x="257.5" y="-1409.8" font-family="Times,serif" font-size="14.00">cmpq %rdx, %rbx</text>
<text text-anchor="middle" x="257.5" y="-1394.8" font-family="Times,serif" font-size="14.00">jne 0x4000a0b138</text>
<text text-anchor="middle" x="257.5" y="-1379.8" font-family="Times,serif" font-size="14.00">_______________________</text>
<text text-anchor="middle" x="257.5" y="-1364.8" font-family="Times,serif" font-size="14.00">LOOP 0x4000a0b12d</text>
</g>
<!-- 315&#45;&gt;316 -->
<g id="edge7" class="edge"><title>315&#45;&gt;316</title>
<path fill="none" stroke="black" d="M266.458,-1535.96C265.772,-1527.81 265.044,-1519.15 264.31,-1510.43"/>
<polygon fill="black" stroke="black" points="267.775,-1509.87 263.448,-1500.19 260.799,-1510.45 267.775,-1509.87"/>
</g>
<!-- 316&#45;&gt;316 -->
<g id="edge8" class="edge"><title>316&#45;&gt;316</title>
<path fill="none" stroke="black" d="M351.04,-1453.46C361.921,-1448.86 369,-1440.54 369,-1428.5 369,-1420.23 365.654,-1413.71 360.027,-1408.94"/>
<polygon fill="black" stroke="black" points="361.413,-1405.69 351.04,-1403.54 357.804,-1411.69 361.413,-1405.69"/>
</g>
<!-- 317 -->
<g id="node10" class="node"><title>317</title>
<polygon fill="none" stroke="black" points="343.5,-1321 171.5,-1321 171.5,-1208 343.5,-1208 343.5,-1321"/>
<text text-anchor="middle" x="257.5" y="-1305.8" font-family="Times,serif" font-size="14.00">0x4000a0b149</text>
<text text-anchor="middle" x="257.5" y="-1290.8" font-family="Times,serif" font-size="14.00">_______________________</text>
<text text-anchor="middle" x="257.5" y="-1275.8" font-family="Times,serif" font-size="14.00">_______________________</text>
<text text-anchor="middle" x="257.5" y="-1260.8" font-family="Times,serif" font-size="14.00">cmpq %rsi, %r10</text>
<text text-anchor="middle" x="257.5" y="-1245.8" font-family="Times,serif" font-size="14.00">je 0x4000a0b190</text>
<text text-anchor="middle" x="257.5" y="-1230.8" font-family="Times,serif" font-size="14.00">_______________________</text>
<text text-anchor="middle" x="257.5" y="-1215.8" font-family="Times,serif" font-size="14.00">LOOP 0x4000a0b12d</text>
</g>
<!-- 316&#45;&gt;317 -->
<g id="edge9" class="edge"><title>316&#45;&gt;317</title>
<path fill="none" stroke="black" d="M257.5,-1356.92C257.5,-1348.43 257.5,-1339.79 257.5,-1331.37"/>
<polygon fill="black" stroke="black" points="261,-1331.24 257.5,-1321.24 254,-1331.24 261,-1331.24"/>
</g>
<!-- 318 -->
<g id="node11" class="node"><title>318</title>
<polygon fill="none" stroke="black" points="369.5,-1172 197.5,-1172 197.5,-894 369.5,-894 369.5,-1172"/>
<text text-anchor="middle" x="283.5" y="-1156.8" font-family="Times,serif" font-size="14.00">0x4000a0b14e</text>
<text text-anchor="middle" x="283.5" y="-1141.8" font-family="Times,serif" font-size="14.00">_______________________</text>
<text text-anchor="middle" x="283.5" y="-1126.8" font-family="Times,serif" font-size="14.00">_______________________</text>
<text text-anchor="middle" x="283.5" y="-1111.8" font-family="Times,serif" font-size="14.00">addq %r8, %rax</text>
<text text-anchor="middle" x="283.5" y="-1096.8" font-family="Times,serif" font-size="14.00">movq 8(%rdi), %rdx</text>
<text text-anchor="middle" x="283.5" y="-1081.8" font-family="Times,serif" font-size="14.00">addq $8, %rsi</text>
<text text-anchor="middle" x="283.5" y="-1066.8" font-family="Times,serif" font-size="14.00">addq $8, %rdi</text>
<text text-anchor="middle" x="283.5" y="-1051.8" font-family="Times,serif" font-size="14.00">cmpb $0x2f, (%rcx)</text>
<text text-anchor="middle" x="283.5" y="-1036.8" font-family="Times,serif" font-size="14.00">movq %rax, (%rax, %r11)</text>
<text text-anchor="middle" x="283.5" y="-1021.8" font-family="Times,serif" font-size="14.00">movq %rax, &#45;8(%rsi)</text>
<text text-anchor="middle" x="283.5" y="-1006.8" font-family="Times,serif" font-size="14.00">movq %r9, 8(%rax)</text>
<text text-anchor="middle" x="283.5" y="-991.8" font-family="Times,serif" font-size="14.00">movq %rdx, 0x20(%rax)</text>
<text text-anchor="middle" x="283.5" y="-976.8" font-family="Times,serif" font-size="14.00">movq $0, 0x10(%rax)</text>
<text text-anchor="middle" x="283.5" y="-961.8" font-family="Times,serif" font-size="14.00">leaq 1(%rcx, %rdx), %rdx</text>
<text text-anchor="middle" x="283.5" y="-946.8" font-family="Times,serif" font-size="14.00">movq %rcx, 0x18(%rax)</text>
<text text-anchor="middle" x="283.5" y="-931.8" font-family="Times,serif" font-size="14.00">jne 0x4000a0b482</text>
<text text-anchor="middle" x="283.5" y="-916.8" font-family="Times,serif" font-size="14.00">_______________________</text>
<text text-anchor="middle" x="283.5" y="-901.8" font-family="Times,serif" font-size="14.00">LOOP 0x4000a0b12d</text>
</g>
<!-- 317&#45;&gt;318 -->
<g id="edge10" class="edge"><title>317&#45;&gt;318</title>
<path fill="none" stroke="black" d="M263.794,-1207.94C264.711,-1199.85 265.69,-1191.21 266.702,-1182.28"/>
<polygon fill="black" stroke="black" points="270.21,-1182.4 267.858,-1172.07 263.254,-1181.62 270.21,-1182.4"/>
</g>
<!-- 321 -->
<g id="node12" class="node"><title>321</title>
<polygon fill="none" stroke="black" points="179,-1104.5 0,-1104.5 0,-961.5 179,-961.5 179,-1104.5"/>
<text text-anchor="middle" x="89.5" y="-1089.3" font-family="Times,serif" font-size="14.00">0x4000a0b190</text>
<text text-anchor="middle" x="89.5" y="-1074.3" font-family="Times,serif" font-size="14.00">_______________________</text>
<text text-anchor="middle" x="89.5" y="-1059.3" font-family="Times,serif" font-size="14.00">_______________________</text>
<text text-anchor="middle" x="89.5" y="-1044.3" font-family="Times,serif" font-size="14.00">movq $0, 0x20(%r14)</text>
<text text-anchor="middle" x="89.5" y="-1029.3" font-family="Times,serif" font-size="14.00">movq 0x21aea1(%rip), %r14</text>
<text text-anchor="middle" x="89.5" y="-1014.3" font-family="Times,serif" font-size="14.00">movq $0, (%rax)</text>
<text text-anchor="middle" x="89.5" y="-999.3" font-family="Times,serif" font-size="14.00">movq $0x1a, 0x21be7f(%rip)</text>
<text text-anchor="middle" x="89.5" y="-984.3" font-family="Times,serif" font-size="14.00">testq %r14, %r14</text>
<text text-anchor="middle" x="89.5" y="-969.3" font-family="Times,serif" font-size="14.00">je 0x4000a0b211</text>
</g>
<!-- 317&#45;&gt;321 -->
<g id="edge11" class="edge"><title>317&#45;&gt;321</title>
<path fill="none" stroke="black" d="M214.959,-1207.53C206.16,-1195.83 196.988,-1183.54 188.5,-1172 174.512,-1152.98 159.59,-1132.36 145.687,-1113"/>
<polygon fill="black" stroke="black" points="148.469,-1110.88 139.796,-1104.79 142.781,-1114.96 148.469,-1110.88"/>
</g>
<!-- 319 -->
<g id="node13" class="node"><title>319</title>
<polygon fill="none" stroke="black" points="426.5,-858 254.5,-858 254.5,-745 426.5,-745 426.5,-858"/>
<text text-anchor="middle" x="340.5" y="-842.8" font-family="Times,serif" font-size="14.00">0x4000a0b187</text>
<text text-anchor="middle" x="340.5" y="-827.8" font-family="Times,serif" font-size="14.00">_______________________</text>
<text text-anchor="middle" x="340.5" y="-812.8" font-family="Times,serif" font-size="14.00">_______________________</text>
<text text-anchor="middle" x="340.5" y="-797.8" font-family="Times,serif" font-size="14.00">movq %rdx, %rcx</text>
<text text-anchor="middle" x="340.5" y="-782.8" font-family="Times,serif" font-size="14.00">jmp 0x4000a0b12d</text>
<text text-anchor="middle" x="340.5" y="-767.8" font-family="Times,serif" font-size="14.00">_______________________</text>
<text text-anchor="middle" x="340.5" y="-752.8" font-family="Times,serif" font-size="14.00">LOOP 0x4000a0b12d</text>
</g>
<!-- 318&#45;&gt;319 -->
<g id="edge12" class="edge"><title>318&#45;&gt;319</title>
<path fill="none" stroke="black" d="M317.808,-893.864C320.021,-884.955 322.185,-876.243 324.243,-867.954"/>
<polygon fill="black" stroke="black" points="327.685,-868.618 326.698,-858.069 320.891,-866.931 327.685,-868.618"/>
</g>
<!-- 322 -->
<g id="node14" class="node"><title>322</title>
<polygon fill="none" stroke="black" points="176,-858 3,-858 3,-745 176,-745 176,-858"/>
<text text-anchor="middle" x="89.5" y="-842.8" font-family="Times,serif" font-size="14.00">0x4000a0b1b6</text>
<text text-anchor="middle" x="89.5" y="-827.8" font-family="Times,serif" font-size="14.00">_______________________</text>
<text text-anchor="middle" x="89.5" y="-812.8" font-family="Times,serif" font-size="14.00">_______________________</text>
<text text-anchor="middle" x="89.5" y="-797.8" font-family="Times,serif" font-size="14.00">movzbl 0x314(%r14), %eax</text>
<text text-anchor="middle" x="89.5" y="-782.8" font-family="Times,serif" font-size="14.00">andl $3, %eax</text>
<text text-anchor="middle" x="89.5" y="-767.8" font-family="Times,serif" font-size="14.00">cmpb $2, %al</text>
<text text-anchor="middle" x="89.5" y="-752.8" font-family="Times,serif" font-size="14.00">je 0x4000a0b4bf</text>
</g>
<!-- 321&#45;&gt;322 -->
<g id="edge15" class="edge"><title>321&#45;&gt;322</title>
<path fill="none" stroke="black" d="M89.5,-961.27C89.5,-931.581 89.5,-897.258 89.5,-868.137"/>
<polygon fill="black" stroke="black" points="93.0001,-868.069 89.5,-858.069 86.0001,-868.069 93.0001,-868.069"/>
</g>
<!-- 319&#45;&gt;320 -->
<g id="edge13" class="edge"><title>319&#45;&gt;320</title>
<path fill="none" stroke="black" d="M367.13,-858.128C371.682,-869.746 375.805,-882.088 378.5,-894 414.787,-1054.39 397.5,-1099.06 397.5,-1263.5 397.5,-1429.5 397.5,-1429.5 397.5,-1429.5 397.5,-1521.49 389.115,-1545.09 365.5,-1634 363.23,-1642.55 360.396,-1651.43 357.361,-1660.07"/>
<polygon fill="black" stroke="black" points="353.987,-1659.11 353.866,-1669.71 360.567,-1661.5 353.987,-1659.11"/>
</g>
<!-- 323 -->
<g id="node15" class="node"><title>323</title>
<polygon fill="none" stroke="black" points="175.5,-709 3.5,-709 3.5,-611 175.5,-611 175.5,-709"/>
<text text-anchor="middle" x="89.5" y="-693.8" font-family="Times,serif" font-size="14.00">0x4000a0b1c9</text>
<text text-anchor="middle" x="89.5" y="-678.8" font-family="Times,serif" font-size="14.00">_______________________</text>
<text text-anchor="middle" x="89.5" y="-663.8" font-family="Times,serif" font-size="14.00">_______________________</text>
<text text-anchor="middle" x="89.5" y="-648.8" font-family="Times,serif" font-size="14.00">movq 0x128(%r14), %rax</text>
<text text-anchor="middle" x="89.5" y="-633.8" font-family="Times,serif" font-size="14.00">testq %rax, %rax</text>
<text text-anchor="middle" x="89.5" y="-618.8" font-family="Times,serif" font-size="14.00">je 0x4000a0b318</text>
</g>
<!-- 322&#45;&gt;323 -->
<g id="edge16" class="edge"><title>322&#45;&gt;323</title>
<path fill="none" stroke="black" d="M89.5,-744.965C89.5,-736.538 89.5,-727.823 89.5,-719.338"/>
<polygon fill="black" stroke="black" points="93.0001,-719.139 89.5,-709.139 86.0001,-719.139 93.0001,-719.139"/>
</g>
<!-- 324 -->
<g id="node16" class="node"><title>324</title>
<polygon fill="none" stroke="black" points="175.5,-575 3.5,-575 3.5,-447 175.5,-447 175.5,-575"/>
<text text-anchor="middle" x="89.5" y="-559.8" font-family="Times,serif" font-size="14.00">0x4000a0b318</text>
<text text-anchor="middle" x="89.5" y="-544.8" font-family="Times,serif" font-size="14.00">_______________________</text>
<text text-anchor="middle" x="89.5" y="-529.8" font-family="Times,serif" font-size="14.00">_______________________</text>
<text text-anchor="middle" x="89.5" y="-514.8" font-family="Times,serif" font-size="14.00">movq 0xb8(%r14), %rax</text>
<text text-anchor="middle" x="89.5" y="-499.8" font-family="Times,serif" font-size="14.00">movq $&#45;1, %rdx</text>
<text text-anchor="middle" x="89.5" y="-484.8" font-family="Times,serif" font-size="14.00">movq %rdx, 0x3a8(%r14)</text>
<text text-anchor="middle" x="89.5" y="-469.8" font-family="Times,serif" font-size="14.00">testq %rax, %rax</text>
<text text-anchor="middle" x="89.5" y="-454.8" font-family="Times,serif" font-size="14.00">je 0x4000a0b364</text>
</g>
<!-- 323&#45;&gt;324 -->
<g id="edge17" class="edge"><title>323&#45;&gt;324</title>
<path fill="none" stroke="black" d="M89.5,-610.867C89.5,-602.682 89.5,-594.018 89.5,-585.358"/>
<polygon fill="black" stroke="black" points="93.0001,-585.221 89.5,-575.221 86.0001,-585.221 93.0001,-585.221"/>
</g>
<!-- 325 -->
<g id="node17" class="node"><title>325</title>
<polygon fill="none" stroke="black" points="175.5,-411 3.5,-411 3.5,-328 175.5,-328 175.5,-411"/>
<text text-anchor="middle" x="89.5" y="-395.8" font-family="Times,serif" font-size="14.00">0x4000a0b364</text>
<text text-anchor="middle" x="89.5" y="-380.8" font-family="Times,serif" font-size="14.00">_______________________</text>
<text text-anchor="middle" x="89.5" y="-365.8" font-family="Times,serif" font-size="14.00">_______________________</text>
<text text-anchor="middle" x="89.5" y="-350.8" font-family="Times,serif" font-size="14.00">movq %rdx, 0x318(%r14)</text>
<text text-anchor="middle" x="89.5" y="-335.8" font-family="Times,serif" font-size="14.00">jmp 0x4000a0b211</text>
</g>
<!-- 324&#45;&gt;325 -->
<g id="edge18" class="edge"><title>324&#45;&gt;325</title>
<path fill="none" stroke="black" d="M89.5,-446.781C89.5,-438.265 89.5,-429.618 89.5,-421.355"/>
<polygon fill="black" stroke="black" points="93.0001,-421.13 89.5,-411.13 86.0001,-421.13 93.0001,-421.13"/>
</g>
<!-- 326 -->
<g id="node18" class="node"><title>326</title>
<polygon fill="none" stroke="black" points="175.5,-292 3.5,-292 3.5,-209 175.5,-209 175.5,-292"/>
<text text-anchor="middle" x="89.5" y="-276.8" font-family="Times,serif" font-size="14.00">0x4000a0b211</text>
<text text-anchor="middle" x="89.5" y="-261.8" font-family="Times,serif" font-size="14.00">_______________________</text>
<text text-anchor="middle" x="89.5" y="-246.8" font-family="Times,serif" font-size="14.00">_______________________</text>
<text text-anchor="middle" x="89.5" y="-231.8" font-family="Times,serif" font-size="14.00">testq %r12, %r12</text>
<text text-anchor="middle" x="89.5" y="-216.8" font-family="Times,serif" font-size="14.00">je 0x4000a0b300</text>
</g>
<!-- 325&#45;&gt;326 -->
<g id="edge19" class="edge"><title>325&#45;&gt;326</title>
<path fill="none" stroke="black" d="M89.5,-327.907C89.5,-319.649 89.5,-310.864 89.5,-302.302"/>
<polygon fill="black" stroke="black" points="93.0001,-302.021 89.5,-292.021 86.0001,-302.021 93.0001,-302.021"/>
</g>
<!-- 327 -->
<g id="node19" class="node"><title>327</title>
<polygon fill="none" stroke="black" points="175.5,-173 3.5,-173 3.5,-0 175.5,-0 175.5,-173"/>
<text text-anchor="middle" x="89.5" y="-157.8" font-family="Times,serif" font-size="14.00">0x4000a0b300</text>
<text text-anchor="middle" x="89.5" y="-142.8" font-family="Times,serif" font-size="14.00">_______________________</text>
<text text-anchor="middle" x="89.5" y="-127.8" font-family="Times,serif" font-size="14.00">_______________________</text>
<text text-anchor="middle" x="89.5" y="-112.8" font-family="Times,serif" font-size="14.00">movq $&#45;1, 0x21ab35(%rip)</text>
<text text-anchor="middle" x="89.5" y="-97.8" font-family="Times,serif" font-size="14.00">leaq &#45;0x20(%rbp), %rsp</text>
<text text-anchor="middle" x="89.5" y="-82.8" font-family="Times,serif" font-size="14.00">popq %rbx</text>
<text text-anchor="middle" x="89.5" y="-67.8" font-family="Times,serif" font-size="14.00">popq %r12</text>
<text text-anchor="middle" x="89.5" y="-52.8" font-family="Times,serif" font-size="14.00">popq %r13</text>
<text text-anchor="middle" x="89.5" y="-37.8" font-family="Times,serif" font-size="14.00">popq %r14</text>
<text text-anchor="middle" x="89.5" y="-22.8" font-family="Times,serif" font-size="14.00">popq %rbp</text>
<text text-anchor="middle" x="89.5" y="-7.8" font-family="Times,serif" font-size="14.00">retq </text>
</g>
<!-- 326&#45;&gt;327 -->
<g id="edge20" class="edge"><title>326&#45;&gt;327</title>
<path fill="none" stroke="black" d="M89.5,-208.621C89.5,-200.721 89.5,-192.14 89.5,-183.316"/>
<polygon fill="black" stroke="black" points="93.0001,-183.273 89.5,-173.273 86.0001,-183.273 93.0001,-183.273"/>
</g>
</g>
</svg>
