<?xml version="1.0" encoding="UTF-8" standalone="no"?>
<!DOCTYPE svg PUBLIC "-//W3C//DTD SVG 1.1//EN"
 "http://www.w3.org/Graphics/SVG/1.1/DTD/svg11.dtd">
<!-- Generated by graphviz version 2.38.0 (20140413.2041)
 -->
<!-- Title: %3 Pages: 1 -->
<svg width="382pt" height="1033pt"
 viewBox="0.00 0.00 382.00 1033.00" xmlns="http://www.w3.org/2000/svg" xmlns:xlink="http://www.w3.org/1999/xlink">
<g id="graph0" class="graph" transform="scale(1 1) rotate(0) translate(4 1029)">
<title>%3</title>
<polygon fill="white" stroke="none" points="-4,4 -4,-1029 378,-1029 378,4 -4,4"/>
<!-- 367 -->
<g id="node1" class="node"><title>367</title>
<polygon fill="none" stroke="black" points="276,-1025 92,-1025 92,-852 276,-852 276,-1025"/>
<text text-anchor="middle" x="184" y="-1009.8" font-family="Times,serif" font-size="14.00">0x4000a1c820</text>
<text text-anchor="middle" x="184" y="-994.8" font-family="Times,serif" font-size="14.00">_______________________</text>
<text text-anchor="middle" x="184" y="-979.8" font-family="Times,serif" font-size="14.00">_______________________</text>
<text text-anchor="middle" x="184" y="-964.8" font-family="Times,serif" font-size="14.00">movd %esi, %xmm1</text>
<text text-anchor="middle" x="184" y="-949.8" font-family="Times,serif" font-size="14.00">movl %edi, %eax</text>
<text text-anchor="middle" x="184" y="-934.8" font-family="Times,serif" font-size="14.00">andl $0xfff, %eax</text>
<text text-anchor="middle" x="184" y="-919.8" font-family="Times,serif" font-size="14.00">punpcklbw %xmm1, %xmm1</text>
<text text-anchor="middle" x="184" y="-904.8" font-family="Times,serif" font-size="14.00">cmpl $0xfc0, %eax</text>
<text text-anchor="middle" x="184" y="-889.8" font-family="Times,serif" font-size="14.00">punpcklwd %xmm1, %xmm1</text>
<text text-anchor="middle" x="184" y="-874.8" font-family="Times,serif" font-size="14.00">pshufd $0, %xmm1, %xmm1</text>
<text text-anchor="middle" x="184" y="-859.8" font-family="Times,serif" font-size="14.00">jg 0x4000a1c9a0</text>
</g>
<!-- 368 -->
<g id="node2" class="node"><title>368</title>
<polygon fill="none" stroke="black" points="271,-816 97,-816 97,-628 271,-628 271,-816"/>
<text text-anchor="middle" x="184" y="-800.8" font-family="Times,serif" font-size="14.00">0x4000a1c843</text>
<text text-anchor="middle" x="184" y="-785.8" font-family="Times,serif" font-size="14.00">_______________________</text>
<text text-anchor="middle" x="184" y="-770.8" font-family="Times,serif" font-size="14.00">_______________________</text>
<text text-anchor="middle" x="184" y="-755.8" font-family="Times,serif" font-size="14.00">movdqu (%rdi), %xmm0</text>
<text text-anchor="middle" x="184" y="-740.8" font-family="Times,serif" font-size="14.00">pxor %xmm3, %xmm3</text>
<text text-anchor="middle" x="184" y="-725.8" font-family="Times,serif" font-size="14.00">movdqa %xmm0, %xmm4</text>
<text text-anchor="middle" x="184" y="-710.8" font-family="Times,serif" font-size="14.00">pcmpeqb %xmm1, %xmm0</text>
<text text-anchor="middle" x="184" y="-695.8" font-family="Times,serif" font-size="14.00">pcmpeqb %xmm3, %xmm4</text>
<text text-anchor="middle" x="184" y="-680.8" font-family="Times,serif" font-size="14.00">por %xmm4, %xmm0</text>
<text text-anchor="middle" x="184" y="-665.8" font-family="Times,serif" font-size="14.00">pmovmskb %xmm0, %eax</text>
<text text-anchor="middle" x="184" y="-650.8" font-family="Times,serif" font-size="14.00">testl %eax, %eax</text>
<text text-anchor="middle" x="184" y="-635.8" font-family="Times,serif" font-size="14.00">je 0x4000a1c878</text>
</g>
<!-- 367&#45;&gt;368 -->
<g id="edge1" class="edge"><title>367&#45;&gt;368</title>
<path fill="none" stroke="black" d="M184,-851.799C184,-843.503 184,-835.028 184,-826.582"/>
<polygon fill="black" stroke="black" points="187.5,-826.31 184,-816.31 180.5,-826.31 187.5,-826.31"/>
</g>
<!-- 369 -->
<g id="node3" class="node"><title>369</title>
<polygon fill="none" stroke="black" points="172,-457 0,-457 0,-314 172,-314 172,-457"/>
<text text-anchor="middle" x="86" y="-441.8" font-family="Times,serif" font-size="14.00">0x4000a1c863</text>
<text text-anchor="middle" x="86" y="-426.8" font-family="Times,serif" font-size="14.00">_______________________</text>
<text text-anchor="middle" x="86" y="-411.8" font-family="Times,serif" font-size="14.00">_______________________</text>
<text text-anchor="middle" x="86" y="-396.8" font-family="Times,serif" font-size="14.00">bsfl %eax, %eax</text>
<text text-anchor="middle" x="86" y="-381.8" font-family="Times,serif" font-size="14.00">movl $0, %edx</text>
<text text-anchor="middle" x="86" y="-366.8" font-family="Times,serif" font-size="14.00">leaq (%rdi, %rax), %rax</text>
<text text-anchor="middle" x="86" y="-351.8" font-family="Times,serif" font-size="14.00">cmpb %sil, (%rax)</text>
<text text-anchor="middle" x="86" y="-336.8" font-family="Times,serif" font-size="14.00">cmovneq %rdx, %rax</text>
<text text-anchor="middle" x="86" y="-321.8" font-family="Times,serif" font-size="14.00">retq </text>
</g>
<!-- 368&#45;&gt;369 -->
<g id="edge2" class="edge"><title>368&#45;&gt;369</title>
<path fill="none" stroke="black" d="M156.702,-627.823C141.892,-577.275 123.769,-515.414 109.579,-466.98"/>
<polygon fill="black" stroke="black" points="112.875,-465.781 106.704,-457.169 106.157,-467.75 112.875,-465.781"/>
</g>
<!-- 744 -->
<g id="node4" class="node"><title>744</title>
<polygon fill="none" stroke="black" points="374,-592 190,-592 190,-179 374,-179 374,-592"/>
<text text-anchor="middle" x="282" y="-576.8" font-family="Times,serif" font-size="14.00">0x4000a1c878</text>
<text text-anchor="middle" x="282" y="-561.8" font-family="Times,serif" font-size="14.00">_______________________</text>
<text text-anchor="middle" x="282" y="-546.8" font-family="Times,serif" font-size="14.00">_______________________</text>
<text text-anchor="middle" x="282" y="-531.8" font-family="Times,serif" font-size="14.00">movdqu 0x10(%rdi), %xmm0</text>
<text text-anchor="middle" x="282" y="-516.8" font-family="Times,serif" font-size="14.00">movdqa %xmm0, %xmm4</text>
<text text-anchor="middle" x="282" y="-501.8" font-family="Times,serif" font-size="14.00">pcmpeqb %xmm1, %xmm0</text>
<text text-anchor="middle" x="282" y="-486.8" font-family="Times,serif" font-size="14.00">pcmpeqb %xmm3, %xmm4</text>
<text text-anchor="middle" x="282" y="-471.8" font-family="Times,serif" font-size="14.00">por %xmm4, %xmm0</text>
<text text-anchor="middle" x="282" y="-456.8" font-family="Times,serif" font-size="14.00">pmovmskb %xmm0, %ecx</text>
<text text-anchor="middle" x="282" y="-441.8" font-family="Times,serif" font-size="14.00">movdqu 0x20(%rdi), %xmm0</text>
<text text-anchor="middle" x="282" y="-426.8" font-family="Times,serif" font-size="14.00">movdqa %xmm0, %xmm4</text>
<text text-anchor="middle" x="282" y="-411.8" font-family="Times,serif" font-size="14.00">pcmpeqb %xmm1, %xmm0</text>
<text text-anchor="middle" x="282" y="-396.8" font-family="Times,serif" font-size="14.00">shlq $0x10, %rcx</text>
<text text-anchor="middle" x="282" y="-381.8" font-family="Times,serif" font-size="14.00">pcmpeqb %xmm3, %xmm4</text>
<text text-anchor="middle" x="282" y="-366.8" font-family="Times,serif" font-size="14.00">por %xmm4, %xmm0</text>
<text text-anchor="middle" x="282" y="-351.8" font-family="Times,serif" font-size="14.00">pmovmskb %xmm0, %eax</text>
<text text-anchor="middle" x="282" y="-336.8" font-family="Times,serif" font-size="14.00">movdqu 0x30(%rdi), %xmm0</text>
<text text-anchor="middle" x="282" y="-321.8" font-family="Times,serif" font-size="14.00">pcmpeqb %xmm0, %xmm3</text>
<text text-anchor="middle" x="282" y="-306.8" font-family="Times,serif" font-size="14.00">shlq $0x20, %rax</text>
<text text-anchor="middle" x="282" y="-291.8" font-family="Times,serif" font-size="14.00">pcmpeqb %xmm1, %xmm0</text>
<text text-anchor="middle" x="282" y="-276.8" font-family="Times,serif" font-size="14.00">orq %rcx, %rax</text>
<text text-anchor="middle" x="282" y="-261.8" font-family="Times,serif" font-size="14.00">por %xmm3, %xmm0</text>
<text text-anchor="middle" x="282" y="-246.8" font-family="Times,serif" font-size="14.00">pmovmskb %xmm0, %ecx</text>
<text text-anchor="middle" x="282" y="-231.8" font-family="Times,serif" font-size="14.00">shlq $0x30, %rcx</text>
<text text-anchor="middle" x="282" y="-216.8" font-family="Times,serif" font-size="14.00">orq %rcx, %rax</text>
<text text-anchor="middle" x="282" y="-201.8" font-family="Times,serif" font-size="14.00">testq %rax, %rax</text>
<text text-anchor="middle" x="282" y="-186.8" font-family="Times,serif" font-size="14.00">jne 0x4000a1c980</text>
</g>
<!-- 368&#45;&gt;744 -->
<g id="edge3" class="edge"><title>368&#45;&gt;744</title>
<path fill="none" stroke="black" d="M211.298,-627.823C213.752,-619.447 216.297,-610.761 218.9,-601.876"/>
<polygon fill="black" stroke="black" points="222.293,-602.744 221.746,-592.163 215.575,-600.776 222.293,-602.744"/>
</g>
<!-- 745 -->
<g id="node5" class="node"><title>745</title>
<polygon fill="none" stroke="black" points="368,-143 196,-143 196,-0 368,-0 368,-143"/>
<text text-anchor="middle" x="282" y="-127.8" font-family="Times,serif" font-size="14.00">0x4000a1c980</text>
<text text-anchor="middle" x="282" y="-112.8" font-family="Times,serif" font-size="14.00">_______________________</text>
<text text-anchor="middle" x="282" y="-97.8" font-family="Times,serif" font-size="14.00">_______________________</text>
<text text-anchor="middle" x="282" y="-82.8" font-family="Times,serif" font-size="14.00">bsfq %rax, %rax</text>
<text text-anchor="middle" x="282" y="-67.8" font-family="Times,serif" font-size="14.00">movl $0, %edx</text>
<text text-anchor="middle" x="282" y="-52.8" font-family="Times,serif" font-size="14.00">leaq (%rdi, %rax), %rax</text>
<text text-anchor="middle" x="282" y="-37.8" font-family="Times,serif" font-size="14.00">cmpb %sil, (%rax)</text>
<text text-anchor="middle" x="282" y="-22.8" font-family="Times,serif" font-size="14.00">cmovneq %rdx, %rax</text>
<text text-anchor="middle" x="282" y="-7.8" font-family="Times,serif" font-size="14.00">retq </text>
</g>
<!-- 744&#45;&gt;745 -->
<g id="edge4" class="edge"><title>744&#45;&gt;745</title>
<path fill="none" stroke="black" d="M282,-178.564C282,-169.85 282,-161.367 282,-153.243"/>
<polygon fill="black" stroke="black" points="285.5,-153.154 282,-143.154 278.5,-153.154 285.5,-153.154"/>
</g>
</g>
</svg>
