<?xml version="1.0" encoding="UTF-8" standalone="no"?>
<!DOCTYPE svg PUBLIC "-//W3C//DTD SVG 1.1//EN"
 "http://www.w3.org/Graphics/SVG/1.1/DTD/svg11.dtd">
<!-- Generated by graphviz version 2.38.0 (20140413.2041)
 -->
<!-- Title: %3 Pages: 1 -->
<svg width="184pt" height="210pt"
 viewBox="0.00 0.00 184.00 210.00" xmlns="http://www.w3.org/2000/svg" xmlns:xlink="http://www.w3.org/1999/xlink">
<g id="graph0" class="graph" transform="scale(1 1) rotate(0) translate(4 206)">
<title>%3</title>
<polygon fill="white" stroke="none" points="-4,4 -4,-206 180,-206 180,4 -4,4"/>
<!-- 343 -->
<g id="node1" class="node"><title>343</title>
<polygon fill="none" stroke="black" points="174,-202 2,-202 2,-119 174,-119 174,-202"/>
<text text-anchor="middle" x="88" y="-186.8" font-family="Times,serif" font-size="14.00">0x4000a15050</text>
<text text-anchor="middle" x="88" y="-171.8" font-family="Times,serif" font-size="14.00">_______________________</text>
<text text-anchor="middle" x="88" y="-156.8" font-family="Times,serif" font-size="14.00">_______________________</text>
<text text-anchor="middle" x="88" y="-141.8" font-family="Times,serif" font-size="14.00">cmpb $0, 0x211f05(%rip)</text>
<text text-anchor="middle" x="88" y="-126.8" font-family="Times,serif" font-size="14.00">jne 0x4000a15061</text>
</g>
<!-- 344 -->
<g id="node2" class="node"><title>344</title>
<polygon fill="none" stroke="black" points="176,-83 0,-83 0,-0 176,-0 176,-83"/>
<text text-anchor="middle" x="88" y="-67.8" font-family="Times,serif" font-size="14.00">0x4000a15059</text>
<text text-anchor="middle" x="88" y="-52.8" font-family="Times,serif" font-size="14.00">_______________________</text>
<text text-anchor="middle" x="88" y="-37.8" font-family="Times,serif" font-size="14.00">_______________________</text>
<text text-anchor="middle" x="88" y="-22.8" font-family="Times,serif" font-size="14.00">movq 0x211f00(%rip), %rax</text>
<text text-anchor="middle" x="88" y="-7.8" font-family="Times,serif" font-size="14.00">retq </text>
</g>
<!-- 343&#45;&gt;344 -->
<g id="edge1" class="edge"><title>343&#45;&gt;344</title>
<path fill="none" stroke="black" d="M88,-118.907C88,-110.649 88,-101.864 88,-93.3024"/>
<polygon fill="black" stroke="black" points="91.5001,-93.0208 88,-83.0208 84.5001,-93.0208 91.5001,-93.0208"/>
</g>
</g>
</svg>
