<?xml version="1.0" encoding="UTF-8" standalone="no"?>
<!DOCTYPE svg PUBLIC "-//W3C//DTD SVG 1.1//EN"
 "http://www.w3.org/Graphics/SVG/1.1/DTD/svg11.dtd">
<!-- Generated by graphviz version 2.38.0 (20140413.2041)
 -->
<!-- Title: %3 Pages: 1 -->
<svg width="180pt" height="987pt"
 viewBox="0.00 0.00 180.00 987.00" xmlns="http://www.w3.org/2000/svg" xmlns:xlink="http://www.w3.org/1999/xlink">
<g id="graph0" class="graph" transform="scale(1 1) rotate(0) translate(4 983)">
<title>%3</title>
<polygon fill="white" stroke="none" points="-4,4 -4,-983 176,-983 176,4 -4,4"/>
<!-- 1262 -->
<g id="node1" class="node"><title>1262</title>
<polygon fill="none" stroke="black" points="172,-979 0,-979 0,-671 172,-671 172,-979"/>
<text text-anchor="middle" x="86" y="-963.8" font-family="Times,serif" font-size="14.00">0x40000006d0</text>
<text text-anchor="middle" x="86" y="-948.8" font-family="Times,serif" font-size="14.00">_______________________</text>
<text text-anchor="middle" x="86" y="-933.8" font-family="Times,serif" font-size="14.00">_______________________</text>
<text text-anchor="middle" x="86" y="-918.8" font-family="Times,serif" font-size="14.00">pushq %r15</text>
<text text-anchor="middle" x="86" y="-903.8" font-family="Times,serif" font-size="14.00">pushq %r14</text>
<text text-anchor="middle" x="86" y="-888.8" font-family="Times,serif" font-size="14.00">movl %edi, %r15d</text>
<text text-anchor="middle" x="86" y="-873.8" font-family="Times,serif" font-size="14.00">pushq %r13</text>
<text text-anchor="middle" x="86" y="-858.8" font-family="Times,serif" font-size="14.00">pushq %r12</text>
<text text-anchor="middle" x="86" y="-843.8" font-family="Times,serif" font-size="14.00">leaq 0x200706(%rip), %r12</text>
<text text-anchor="middle" x="86" y="-828.8" font-family="Times,serif" font-size="14.00">pushq %rbp</text>
<text text-anchor="middle" x="86" y="-813.8" font-family="Times,serif" font-size="14.00">leaq 0x200706(%rip), %rbp</text>
<text text-anchor="middle" x="86" y="-798.8" font-family="Times,serif" font-size="14.00">pushq %rbx</text>
<text text-anchor="middle" x="86" y="-783.8" font-family="Times,serif" font-size="14.00">movq %rsi, %r14</text>
<text text-anchor="middle" x="86" y="-768.8" font-family="Times,serif" font-size="14.00">movq %rdx, %r13</text>
<text text-anchor="middle" x="86" y="-753.8" font-family="Times,serif" font-size="14.00">subq %r12, %rbp</text>
<text text-anchor="middle" x="86" y="-738.8" font-family="Times,serif" font-size="14.00">subq $8, %rsp</text>
<text text-anchor="middle" x="86" y="-723.8" font-family="Times,serif" font-size="14.00">sarq $3, %rbp</text>
<text text-anchor="middle" x="86" y="-708.8" font-family="Times,serif" font-size="14.00">callq 0x40000004f0</text>
<text text-anchor="middle" x="86" y="-693.8" font-family="Times,serif" font-size="14.00">_______________________</text>
<text text-anchor="middle" x="86" y="-678.8" font-family="Times,serif" font-size="14.00">CALL _init</text>
</g>
<!-- 1265 -->
<g id="node2" class="node"><title>1265</title>
<polygon fill="none" stroke="black" points="172,-635 0,-635 0,-552 172,-552 172,-635"/>
<text text-anchor="middle" x="86" y="-619.8" font-family="Times,serif" font-size="14.00">0x4000000701</text>
<text text-anchor="middle" x="86" y="-604.8" font-family="Times,serif" font-size="14.00">_______________________</text>
<text text-anchor="middle" x="86" y="-589.8" font-family="Times,serif" font-size="14.00">_______________________</text>
<text text-anchor="middle" x="86" y="-574.8" font-family="Times,serif" font-size="14.00">testq %rbp, %rbp</text>
<text text-anchor="middle" x="86" y="-559.8" font-family="Times,serif" font-size="14.00">je 0x4000000726</text>
</g>
<!-- 1262&#45;&gt;1265 -->
<g id="edge1" class="edge"><title>1262&#45;&gt;1265</title>
<path fill="none" stroke="black" d="M86,-670.92C86,-662.002 86,-653.432 86,-645.464"/>
<polygon fill="black" stroke="black" points="89.5001,-645.356 86,-635.356 82.5001,-645.356 89.5001,-645.356"/>
</g>
<!-- 1266 -->
<g id="node3" class="node"><title>1266</title>
<polygon fill="none" stroke="black" points="172,-516 0,-516 0,-343 172,-343 172,-516"/>
<text text-anchor="middle" x="86" y="-500.8" font-family="Times,serif" font-size="14.00">0x4000000706</text>
<text text-anchor="middle" x="86" y="-485.8" font-family="Times,serif" font-size="14.00">_______________________</text>
<text text-anchor="middle" x="86" y="-470.8" font-family="Times,serif" font-size="14.00">_______________________</text>
<text text-anchor="middle" x="86" y="-455.8" font-family="Times,serif" font-size="14.00">xorl %ebx, %ebx</text>
<text text-anchor="middle" x="86" y="-440.8" font-family="Times,serif" font-size="14.00">nopl (%rax, %rax)</text>
<text text-anchor="middle" x="86" y="-425.8" font-family="Times,serif" font-size="14.00">movq %r13, %rdx</text>
<text text-anchor="middle" x="86" y="-410.8" font-family="Times,serif" font-size="14.00">movq %r14, %rsi</text>
<text text-anchor="middle" x="86" y="-395.8" font-family="Times,serif" font-size="14.00">movl %r15d, %edi</text>
<text text-anchor="middle" x="86" y="-380.8" font-family="Times,serif" font-size="14.00">callq *(%r12, %rbx, 8)</text>
<text text-anchor="middle" x="86" y="-365.8" font-family="Times,serif" font-size="14.00">_______________________</text>
<text text-anchor="middle" x="86" y="-350.8" font-family="Times,serif" font-size="14.00">CALL frame_dummy</text>
</g>
<!-- 1265&#45;&gt;1266 -->
<g id="edge2" class="edge"><title>1265&#45;&gt;1266</title>
<path fill="none" stroke="black" d="M86,-551.621C86,-543.721 86,-535.14 86,-526.316"/>
<polygon fill="black" stroke="black" points="89.5001,-526.273 86,-516.273 82.5001,-526.273 89.5001,-526.273"/>
</g>
<!-- 1270 -->
<g id="node4" class="node"><title>1270</title>
<polygon fill="none" stroke="black" points="172,-307 0,-307 0,-209 172,-209 172,-307"/>
<text text-anchor="middle" x="86" y="-291.8" font-family="Times,serif" font-size="14.00">0x400000071d</text>
<text text-anchor="middle" x="86" y="-276.8" font-family="Times,serif" font-size="14.00">_______________________</text>
<text text-anchor="middle" x="86" y="-261.8" font-family="Times,serif" font-size="14.00">_______________________</text>
<text text-anchor="middle" x="86" y="-246.8" font-family="Times,serif" font-size="14.00">addq $1, %rbx</text>
<text text-anchor="middle" x="86" y="-231.8" font-family="Times,serif" font-size="14.00">cmpq %rbx, %rbp</text>
<text text-anchor="middle" x="86" y="-216.8" font-family="Times,serif" font-size="14.00">jne 0x4000000710</text>
</g>
<!-- 1266&#45;&gt;1270 -->
<g id="edge3" class="edge"><title>1266&#45;&gt;1270</title>
<path fill="none" stroke="black" d="M86,-342.757C86,-334.212 86,-325.681 86,-317.51"/>
<polygon fill="black" stroke="black" points="89.5001,-317.38 86,-307.38 82.5001,-317.381 89.5001,-317.38"/>
</g>
<!-- 1271 -->
<g id="node5" class="node"><title>1271</title>
<polygon fill="none" stroke="black" points="172,-173 0,-173 0,-0 172,-0 172,-173"/>
<text text-anchor="middle" x="86" y="-157.8" font-family="Times,serif" font-size="14.00">0x4000000726</text>
<text text-anchor="middle" x="86" y="-142.8" font-family="Times,serif" font-size="14.00">_______________________</text>
<text text-anchor="middle" x="86" y="-127.8" font-family="Times,serif" font-size="14.00">_______________________</text>
<text text-anchor="middle" x="86" y="-112.8" font-family="Times,serif" font-size="14.00">addq $8, %rsp</text>
<text text-anchor="middle" x="86" y="-97.8" font-family="Times,serif" font-size="14.00">popq %rbx</text>
<text text-anchor="middle" x="86" y="-82.8" font-family="Times,serif" font-size="14.00">popq %rbp</text>
<text text-anchor="middle" x="86" y="-67.8" font-family="Times,serif" font-size="14.00">popq %r12</text>
<text text-anchor="middle" x="86" y="-52.8" font-family="Times,serif" font-size="14.00">popq %r13</text>
<text text-anchor="middle" x="86" y="-37.8" font-family="Times,serif" font-size="14.00">popq %r14</text>
<text text-anchor="middle" x="86" y="-22.8" font-family="Times,serif" font-size="14.00">popq %r15</text>
<text text-anchor="middle" x="86" y="-7.8" font-family="Times,serif" font-size="14.00">retq </text>
</g>
<!-- 1270&#45;&gt;1271 -->
<g id="edge4" class="edge"><title>1270&#45;&gt;1271</title>
<path fill="none" stroke="black" d="M86,-208.881C86,-200.775 86,-192.114 86,-183.291"/>
<polygon fill="black" stroke="black" points="89.5001,-183.282 86,-173.282 82.5001,-183.282 89.5001,-183.282"/>
</g>
</g>
</svg>
