<?xml version="1.0" encoding="UTF-8" standalone="no"?>
<!DOCTYPE svg PUBLIC "-//W3C//DTD SVG 1.1//EN"
 "http://www.w3.org/Graphics/SVG/1.1/DTD/svg11.dtd">
<!-- Generated by graphviz version 2.38.0 (20140413.2041)
 -->
<!-- Title: %3 Pages: 1 -->
<svg width="601pt" height="4058pt"
 viewBox="0.00 0.00 600.50 4058.00" xmlns="http://www.w3.org/2000/svg" xmlns:xlink="http://www.w3.org/1999/xlink">
<g id="graph0" class="graph" transform="scale(1 1) rotate(0) translate(4 4054)">
<title>%3</title>
<polygon fill="white" stroke="none" points="-4,4 -4,-4054 596.5,-4054 596.5,4 -4,4"/>
<!-- 1357 -->
<g id="node1" class="node"><title>1357</title>
<polygon fill="none" stroke="black" points="179,-4050 0,-4050 0,-3757 179,-3757 179,-4050"/>
<text text-anchor="middle" x="89.5" y="-4034.8" font-family="Times,serif" font-size="14.00">0x4000d677c0</text>
<text text-anchor="middle" x="89.5" y="-4019.8" font-family="Times,serif" font-size="14.00">_______________________</text>
<text text-anchor="middle" x="89.5" y="-4004.8" font-family="Times,serif" font-size="14.00">_______________________</text>
<text text-anchor="middle" x="89.5" y="-3989.8" font-family="Times,serif" font-size="14.00">pushq %r15</text>
<text text-anchor="middle" x="89.5" y="-3974.8" font-family="Times,serif" font-size="14.00">pushq %r14</text>
<text text-anchor="middle" x="89.5" y="-3959.8" font-family="Times,serif" font-size="14.00">pushq %r13</text>
<text text-anchor="middle" x="89.5" y="-3944.8" font-family="Times,serif" font-size="14.00">pushq %r12</text>
<text text-anchor="middle" x="89.5" y="-3929.8" font-family="Times,serif" font-size="14.00">movq %rsi, %r12</text>
<text text-anchor="middle" x="89.5" y="-3914.8" font-family="Times,serif" font-size="14.00">pushq %rbp</text>
<text text-anchor="middle" x="89.5" y="-3899.8" font-family="Times,serif" font-size="14.00">pushq %rbx</text>
<text text-anchor="middle" x="89.5" y="-3884.8" font-family="Times,serif" font-size="14.00">movq %rdi, %rbx</text>
<text text-anchor="middle" x="89.5" y="-3869.8" font-family="Times,serif" font-size="14.00">subq $0x28, %rsp</text>
<text text-anchor="middle" x="89.5" y="-3854.8" font-family="Times,serif" font-size="14.00">movq 0x27761d(%rip), %r13</text>
<text text-anchor="middle" x="89.5" y="-3839.8" font-family="Times,serif" font-size="14.00">movq %rdx, 8(%rsp)</text>
<text text-anchor="middle" x="89.5" y="-3824.8" font-family="Times,serif" font-size="14.00">movq %rcx, 0x10(%rsp)</text>
<text text-anchor="middle" x="89.5" y="-3809.8" font-family="Times,serif" font-size="14.00">leaq 0x908(%r13), %rdi</text>
<text text-anchor="middle" x="89.5" y="-3794.8" font-family="Times,serif" font-size="14.00">callq *0xf00(%r13)</text>
<text text-anchor="middle" x="89.5" y="-3779.8" font-family="Times,serif" font-size="14.00">_______________________</text>
<text text-anchor="middle" x="89.5" y="-3764.8" font-family="Times,serif" font-size="14.00">CALL 0x4000a03c70</text>
</g>
<!-- 1358 -->
<g id="node2" class="node"><title>1358</title>
<polygon fill="none" stroke="black" points="175.5,-3721 3.5,-3721 3.5,-3608 175.5,-3608 175.5,-3721"/>
<text text-anchor="middle" x="89.5" y="-3705.8" font-family="Times,serif" font-size="14.00">0x4000d677f3</text>
<text text-anchor="middle" x="89.5" y="-3690.8" font-family="Times,serif" font-size="14.00">_______________________</text>
<text text-anchor="middle" x="89.5" y="-3675.8" font-family="Times,serif" font-size="14.00">_______________________</text>
<text text-anchor="middle" x="89.5" y="-3660.8" font-family="Times,serif" font-size="14.00">movq %rbx, %rdi</text>
<text text-anchor="middle" x="89.5" y="-3645.8" font-family="Times,serif" font-size="14.00">callq 0x4000c61b30</text>
<text text-anchor="middle" x="89.5" y="-3630.8" font-family="Times,serif" font-size="14.00">_______________________</text>
<text text-anchor="middle" x="89.5" y="-3615.8" font-family="Times,serif" font-size="14.00">CALL 0x4000c61b30</text>
</g>
<!-- 1357&#45;&gt;1358 -->
<g id="edge1" class="edge"><title>1357&#45;&gt;1358</title>
<path fill="none" stroke="black" d="M89.5,-3756.79C89.5,-3747.99 89.5,-3739.4 89.5,-3731.24"/>
<polygon fill="black" stroke="black" points="93.0001,-3731.13 89.5,-3721.13 86.0001,-3731.13 93.0001,-3731.13"/>
</g>
<!-- 1374 -->
<g id="node3" class="node"><title>1374</title>
<polygon fill="none" stroke="black" points="175.5,-3572 3.5,-3572 3.5,-3489 175.5,-3489 175.5,-3572"/>
<text text-anchor="middle" x="89.5" y="-3556.8" font-family="Times,serif" font-size="14.00">0x4000d677fb</text>
<text text-anchor="middle" x="89.5" y="-3541.8" font-family="Times,serif" font-size="14.00">_______________________</text>
<text text-anchor="middle" x="89.5" y="-3526.8" font-family="Times,serif" font-size="14.00">_______________________</text>
<text text-anchor="middle" x="89.5" y="-3511.8" font-family="Times,serif" font-size="14.00">testq %rax, %rax</text>
<text text-anchor="middle" x="89.5" y="-3496.8" font-family="Times,serif" font-size="14.00">je 0x4000d67a68</text>
</g>
<!-- 1358&#45;&gt;1374 -->
<g id="edge2" class="edge"><title>1358&#45;&gt;1374</title>
<path fill="none" stroke="black" d="M89.5,-3607.9C89.5,-3599.39 89.5,-3590.63 89.5,-3582.23"/>
<polygon fill="black" stroke="black" points="93.0001,-3582.19 89.5,-3572.19 86.0001,-3582.19 93.0001,-3582.19"/>
</g>
<!-- 1375 -->
<g id="node4" class="node"><title>1375</title>
<polygon fill="none" stroke="black" points="175.5,-3453 3.5,-3453 3.5,-3310 175.5,-3310 175.5,-3453"/>
<text text-anchor="middle" x="89.5" y="-3437.8" font-family="Times,serif" font-size="14.00">0x4000d67804</text>
<text text-anchor="middle" x="89.5" y="-3422.8" font-family="Times,serif" font-size="14.00">_______________________</text>
<text text-anchor="middle" x="89.5" y="-3407.8" font-family="Times,serif" font-size="14.00">_______________________</text>
<text text-anchor="middle" x="89.5" y="-3392.8" font-family="Times,serif" font-size="14.00">movq 8(%rax), %rdx</text>
<text text-anchor="middle" x="89.5" y="-3377.8" font-family="Times,serif" font-size="14.00">movq 0x340(%rax), %rcx</text>
<text text-anchor="middle" x="89.5" y="-3362.8" font-family="Times,serif" font-size="14.00">movq %rdx, (%r12)</text>
<text text-anchor="middle" x="89.5" y="-3347.8" font-family="Times,serif" font-size="14.00">movq %rcx, 8(%r12)</text>
<text text-anchor="middle" x="89.5" y="-3332.8" font-family="Times,serif" font-size="14.00">cmpb $0, (%rdx)</text>
<text text-anchor="middle" x="89.5" y="-3317.8" font-family="Times,serif" font-size="14.00">je 0x4000d67a6f</text>
</g>
<!-- 1374&#45;&gt;1375 -->
<g id="edge3" class="edge"><title>1374&#45;&gt;1375</title>
<path fill="none" stroke="black" d="M89.5,-3488.94C89.5,-3480.85 89.5,-3472.09 89.5,-3463.19"/>
<polygon fill="black" stroke="black" points="93.0001,-3463.11 89.5,-3453.11 86.0001,-3463.11 93.0001,-3463.11"/>
</g>
<!-- 1376 -->
<g id="node5" class="node"><title>1376</title>
<polygon fill="none" stroke="black" points="175.5,-3274 3.5,-3274 3.5,-3086 175.5,-3086 175.5,-3274"/>
<text text-anchor="middle" x="89.5" y="-3258.8" font-family="Times,serif" font-size="14.00">0x4000d67821</text>
<text text-anchor="middle" x="89.5" y="-3243.8" font-family="Times,serif" font-size="14.00">_______________________</text>
<text text-anchor="middle" x="89.5" y="-3228.8" font-family="Times,serif" font-size="14.00">_______________________</text>
<text text-anchor="middle" x="89.5" y="-3213.8" font-family="Times,serif" font-size="14.00">movq 0x70(%rax), %rdx</text>
<text text-anchor="middle" x="89.5" y="-3198.8" font-family="Times,serif" font-size="14.00">cmpq $0, 0x298(%rax)</text>
<text text-anchor="middle" x="89.5" y="-3183.8" font-family="Times,serif" font-size="14.00">movq 8(%rdx), %r11</text>
<text text-anchor="middle" x="89.5" y="-3168.8" font-family="Times,serif" font-size="14.00">movq 0x68(%rax), %rdx</text>
<text text-anchor="middle" x="89.5" y="-3153.8" font-family="Times,serif" font-size="14.00">movq 8(%rdx), %rsi</text>
<text text-anchor="middle" x="89.5" y="-3138.8" font-family="Times,serif" font-size="14.00">movq 0x90(%rax), %rdx</text>
<text text-anchor="middle" x="89.5" y="-3123.8" font-family="Times,serif" font-size="14.00">movq %rsi, 0x18(%rsp)</text>
<text text-anchor="middle" x="89.5" y="-3108.8" font-family="Times,serif" font-size="14.00">movl 8(%rdx), %r15d</text>
<text text-anchor="middle" x="89.5" y="-3093.8" font-family="Times,serif" font-size="14.00">je 0x4000d679a1</text>
</g>
<!-- 1375&#45;&gt;1376 -->
<g id="edge4" class="edge"><title>1375&#45;&gt;1376</title>
<path fill="none" stroke="black" d="M89.5,-3309.88C89.5,-3301.58 89.5,-3292.99 89.5,-3284.36"/>
<polygon fill="black" stroke="black" points="93.0001,-3284.23 89.5,-3274.23 86.0001,-3284.23 93.0001,-3284.23"/>
</g>
<!-- 1377 -->
<g id="node6" class="node"><title>1377</title>
<polygon fill="none" stroke="black" points="175.5,-3050 3.5,-3050 3.5,-2952 175.5,-2952 175.5,-3050"/>
<text text-anchor="middle" x="89.5" y="-3034.8" font-family="Times,serif" font-size="14.00">0x4000d6784f</text>
<text text-anchor="middle" x="89.5" y="-3019.8" font-family="Times,serif" font-size="14.00">_______________________</text>
<text text-anchor="middle" x="89.5" y="-3004.8" font-family="Times,serif" font-size="14.00">_______________________</text>
<text text-anchor="middle" x="89.5" y="-2989.8" font-family="Times,serif" font-size="14.00">movl 0x2ec(%rax), %edx</text>
<text text-anchor="middle" x="89.5" y="-2974.8" font-family="Times,serif" font-size="14.00">testl %edx, %edx</text>
<text text-anchor="middle" x="89.5" y="-2959.8" font-family="Times,serif" font-size="14.00">je 0x4000d67a92</text>
</g>
<!-- 1376&#45;&gt;1377 -->
<g id="edge5" class="edge"><title>1376&#45;&gt;1377</title>
<path fill="none" stroke="black" d="M89.5,-3085.83C89.5,-3077.17 89.5,-3068.56 89.5,-3060.35"/>
<polygon fill="black" stroke="black" points="93.0001,-3060.18 89.5,-3050.18 86.0001,-3060.18 93.0001,-3060.18"/>
</g>
<!-- 1378 -->
<g id="node7" class="node"><title>1378</title>
<polygon fill="none" stroke="black" points="178.5,-2916 0.5,-2916 0.5,-2788 178.5,-2788 178.5,-2916"/>
<text text-anchor="middle" x="89.5" y="-2900.8" font-family="Times,serif" font-size="14.00">0x4000d6785d</text>
<text text-anchor="middle" x="89.5" y="-2885.8" font-family="Times,serif" font-size="14.00">_______________________</text>
<text text-anchor="middle" x="89.5" y="-2870.8" font-family="Times,serif" font-size="14.00">_______________________</text>
<text text-anchor="middle" x="89.5" y="-2855.8" font-family="Times,serif" font-size="14.00">movq 0x300(%rax), %rbp</text>
<text text-anchor="middle" x="89.5" y="-2840.8" font-family="Times,serif" font-size="14.00">subl $1, %edx</text>
<text text-anchor="middle" x="89.5" y="-2825.8" font-family="Times,serif" font-size="14.00">xorl %esi, %esi</text>
<text text-anchor="middle" x="89.5" y="-2810.8" font-family="Times,serif" font-size="14.00">leaq 4(%rbp, %rdx, 4), %r14</text>
<text text-anchor="middle" x="89.5" y="-2795.8" font-family="Times,serif" font-size="14.00">nop </text>
</g>
<!-- 1377&#45;&gt;1378 -->
<g id="edge6" class="edge"><title>1377&#45;&gt;1378</title>
<path fill="none" stroke="black" d="M89.5,-2951.87C89.5,-2943.68 89.5,-2935.02 89.5,-2926.36"/>
<polygon fill="black" stroke="black" points="93.0001,-2926.22 89.5,-2916.22 86.0001,-2926.22 93.0001,-2926.22"/>
</g>
<!-- 1380 -->
<g id="node8" class="node"><title>1380</title>
<polygon fill="none" stroke="black" points="175.5,-2752 3.5,-2752 3.5,-2654 175.5,-2654 175.5,-2752"/>
<text text-anchor="middle" x="89.5" y="-2736.8" font-family="Times,serif" font-size="14.00">0x4000d67870</text>
<text text-anchor="middle" x="89.5" y="-2721.8" font-family="Times,serif" font-size="14.00">_______________________</text>
<text text-anchor="middle" x="89.5" y="-2706.8" font-family="Times,serif" font-size="14.00">_______________________</text>
<text text-anchor="middle" x="89.5" y="-2691.8" font-family="Times,serif" font-size="14.00">movl (%rbp), %ecx</text>
<text text-anchor="middle" x="89.5" y="-2676.8" font-family="Times,serif" font-size="14.00">testl %ecx, %ecx</text>
<text text-anchor="middle" x="89.5" y="-2661.8" font-family="Times,serif" font-size="14.00">je 0x4000d67920</text>
</g>
<!-- 1378&#45;&gt;1380 -->
<g id="edge7" class="edge"><title>1378&#45;&gt;1380</title>
<path fill="none" stroke="black" d="M89.5,-2787.81C89.5,-2779.29 89.5,-2770.58 89.5,-2762.15"/>
<polygon fill="black" stroke="black" points="93.0001,-2762.04 89.5,-2752.04 86.0001,-2762.04 93.0001,-2762.04"/>
</g>
<!-- 1379 -->
<g id="node9" class="node"><title>1379</title>
<polygon fill="none" stroke="black" points="175.5,-1067 3.5,-1067 3.5,-939 175.5,-939 175.5,-1067"/>
<text text-anchor="middle" x="89.5" y="-1051.8" font-family="Times,serif" font-size="14.00">0x4000d67920</text>
<text text-anchor="middle" x="89.5" y="-1036.8" font-family="Times,serif" font-size="14.00">_______________________</text>
<text text-anchor="middle" x="89.5" y="-1021.8" font-family="Times,serif" font-size="14.00">_______________________</text>
<text text-anchor="middle" x="89.5" y="-1006.8" font-family="Times,serif" font-size="14.00">addq $4, %rbp</text>
<text text-anchor="middle" x="89.5" y="-991.8" font-family="Times,serif" font-size="14.00">cmpq %rbp, %r14</text>
<text text-anchor="middle" x="89.5" y="-976.8" font-family="Times,serif" font-size="14.00">jne 0x4000d67870</text>
<text text-anchor="middle" x="89.5" y="-961.8" font-family="Times,serif" font-size="14.00">_______________________</text>
<text text-anchor="middle" x="89.5" y="-946.8" font-family="Times,serif" font-size="14.00">LOOP 0x4000d67870</text>
</g>
<!-- 1380&#45;&gt;1379 -->
<g id="edge10" class="edge"><title>1380&#45;&gt;1379</title>
<path fill="none" stroke="black" d="M83.4496,-2654C80.5,-2587.99 80.5,-2465.49 80.5,-2361 80.5,-2361 80.5,-2361 80.5,-1345 80.5,-1252.79 80.5,-1146.56 82.527,-1077.5"/>
<polygon fill="black" stroke="black" points="86.0359,-1077.27 82.8554,-1067.16 79.0394,-1077.05 86.0359,-1077.27"/>
</g>
<!-- 1381 -->
<g id="node11" class="node"><title>1381</title>
<polygon fill="none" stroke="black" points="412.5,-2618 240.5,-2618 240.5,-2475 412.5,-2475 412.5,-2618"/>
<text text-anchor="middle" x="326.5" y="-2602.8" font-family="Times,serif" font-size="14.00">0x4000d6787b</text>
<text text-anchor="middle" x="326.5" y="-2587.8" font-family="Times,serif" font-size="14.00">_______________________</text>
<text text-anchor="middle" x="326.5" y="-2572.8" font-family="Times,serif" font-size="14.00">_______________________</text>
<text text-anchor="middle" x="326.5" y="-2557.8" font-family="Times,serif" font-size="14.00">movq 0x308(%rax), %rdi</text>
<text text-anchor="middle" x="326.5" y="-2542.8" font-family="Times,serif" font-size="14.00">movl %ecx, %edx</text>
<text text-anchor="middle" x="326.5" y="-2527.8" font-family="Times,serif" font-size="14.00">leaq (%rdi, %rdx, 4), %rdi</text>
<text text-anchor="middle" x="326.5" y="-2512.8" font-family="Times,serif" font-size="14.00">jmp 0x4000d678af</text>
<text text-anchor="middle" x="326.5" y="-2497.8" font-family="Times,serif" font-size="14.00">_______________________</text>
<text text-anchor="middle" x="326.5" y="-2482.8" font-family="Times,serif" font-size="14.00">LOOP 0x4000d67870</text>
</g>
<!-- 1380&#45;&gt;1381 -->
<g id="edge11" class="edge"><title>1380&#45;&gt;1381</title>
<path fill="none" stroke="black" d="M163.189,-2653.96C184.877,-2639.82 208.914,-2624.15 231.727,-2609.28"/>
<polygon fill="black" stroke="black" points="233.938,-2612.02 240.403,-2603.63 230.115,-2606.16 233.938,-2612.02"/>
</g>
<!-- 1379&#45;&gt;1380 -->
<g id="edge8" class="edge"><title>1379&#45;&gt;1380</title>
<path fill="none" stroke="black" d="M96.1446,-1067.16C98.5,-1135.61 98.5,-1248.06 98.5,-1345 98.5,-2361 98.5,-2361 98.5,-2361 98.5,-2460.39 98.5,-2576.07 95.9618,-2643.93"/>
<polygon fill="black" stroke="black" points="92.4618,-2643.86 95.5504,-2654 99.456,-2644.15 92.4618,-2643.86"/>
</g>
<!-- 1392 -->
<g id="node10" class="node"><title>1392</title>
<polygon fill="none" stroke="black" points="175.5,-903 3.5,-903 3.5,-805 175.5,-805 175.5,-903"/>
<text text-anchor="middle" x="89.5" y="-887.8" font-family="Times,serif" font-size="14.00">0x4000d6792d</text>
<text text-anchor="middle" x="89.5" y="-872.8" font-family="Times,serif" font-size="14.00">_______________________</text>
<text text-anchor="middle" x="89.5" y="-857.8" font-family="Times,serif" font-size="14.00">_______________________</text>
<text text-anchor="middle" x="89.5" y="-842.8" font-family="Times,serif" font-size="14.00">movq 8(%rsp), %rbx</text>
<text text-anchor="middle" x="89.5" y="-827.8" font-family="Times,serif" font-size="14.00">testq %rbx, %rbx</text>
<text text-anchor="middle" x="89.5" y="-812.8" font-family="Times,serif" font-size="14.00">je 0x4000d6793a</text>
</g>
<!-- 1379&#45;&gt;1392 -->
<g id="edge9" class="edge"><title>1379&#45;&gt;1392</title>
<path fill="none" stroke="black" d="M89.5,-938.806C89.5,-930.286 89.5,-921.578 89.5,-913.151"/>
<polygon fill="black" stroke="black" points="93.0001,-913.044 89.5,-903.044 86.0001,-913.044 93.0001,-913.044"/>
</g>
<!-- 1393 -->
<g id="node22" class="node"><title>1393</title>
<polygon fill="none" stroke="black" points="175.5,-769 3.5,-769 3.5,-656 175.5,-656 175.5,-769"/>
<text text-anchor="middle" x="89.5" y="-753.8" font-family="Times,serif" font-size="14.00">0x4000d67937</text>
<text text-anchor="middle" x="89.5" y="-738.8" font-family="Times,serif" font-size="14.00">_______________________</text>
<text text-anchor="middle" x="89.5" y="-723.8" font-family="Times,serif" font-size="14.00">_______________________</text>
<text text-anchor="middle" x="89.5" y="-708.8" font-family="Times,serif" font-size="14.00">movq %rax, (%rbx)</text>
<text text-anchor="middle" x="89.5" y="-693.8" font-family="Times,serif" font-size="14.00">movq 0x10(%rsp), %rbx</text>
<text text-anchor="middle" x="89.5" y="-678.8" font-family="Times,serif" font-size="14.00">testq %rbx, %rbx</text>
<text text-anchor="middle" x="89.5" y="-663.8" font-family="Times,serif" font-size="14.00">je 0x4000d67947</text>
</g>
<!-- 1392&#45;&gt;1393 -->
<g id="edge27" class="edge"><title>1392&#45;&gt;1393</title>
<path fill="none" stroke="black" d="M89.5,-804.992C89.5,-796.722 89.5,-787.998 89.5,-779.354"/>
<polygon fill="black" stroke="black" points="93.0001,-779.276 89.5,-769.276 86.0001,-779.276 93.0001,-779.276"/>
</g>
<!-- 1382 -->
<g id="node12" class="node"><title>1382</title>
<polygon fill="none" stroke="black" points="460.5,-2439 288.5,-2439 288.5,-2281 460.5,-2281 460.5,-2439"/>
<text text-anchor="middle" x="374.5" y="-2423.8" font-family="Times,serif" font-size="14.00">0x4000d678af</text>
<text text-anchor="middle" x="374.5" y="-2408.8" font-family="Times,serif" font-size="14.00">_______________________</text>
<text text-anchor="middle" x="374.5" y="-2393.8" font-family="Times,serif" font-size="14.00">_______________________</text>
<text text-anchor="middle" x="374.5" y="-2378.8" font-family="Times,serif" font-size="14.00">leaq (%rdx, %rdx, 2), %rdx</text>
<text text-anchor="middle" x="374.5" y="-2363.8" font-family="Times,serif" font-size="14.00">leaq (%r11, %rdx, 8), %rdx</text>
<text text-anchor="middle" x="374.5" y="-2348.8" font-family="Times,serif" font-size="14.00">movzwl 6(%rdx), %r9d</text>
<text text-anchor="middle" x="374.5" y="-2333.8" font-family="Times,serif" font-size="14.00">testw %r9w, %r9w</text>
<text text-anchor="middle" x="374.5" y="-2318.8" font-family="Times,serif" font-size="14.00">jne 0x4000d678c9</text>
<text text-anchor="middle" x="374.5" y="-2303.8" font-family="Times,serif" font-size="14.00">_______________________</text>
<text text-anchor="middle" x="374.5" y="-2288.8" font-family="Times,serif" font-size="14.00">LOOP 0x4000d67870</text>
</g>
<!-- 1381&#45;&gt;1382 -->
<g id="edge12" class="edge"><title>1381&#45;&gt;1382</title>
<path fill="none" stroke="black" d="M344.852,-2474.96C347.064,-2466.46 349.343,-2457.7 351.609,-2448.99"/>
<polygon fill="black" stroke="black" points="355.026,-2449.75 354.157,-2439.19 348.252,-2447.99 355.026,-2449.75"/>
</g>
<!-- 1383 -->
<g id="node13" class="node"><title>1383</title>
<polygon fill="none" stroke="black" points="460.5,-2245 288.5,-2245 288.5,-2102 460.5,-2102 460.5,-2245"/>
<text text-anchor="middle" x="374.5" y="-2229.8" font-family="Times,serif" font-size="14.00">0x4000d678c9</text>
<text text-anchor="middle" x="374.5" y="-2214.8" font-family="Times,serif" font-size="14.00">_______________________</text>
<text text-anchor="middle" x="374.5" y="-2199.8" font-family="Times,serif" font-size="14.00">_______________________</text>
<text text-anchor="middle" x="374.5" y="-2184.8" font-family="Times,serif" font-size="14.00">movzbl 4(%rdx), %r8d</text>
<text text-anchor="middle" x="374.5" y="-2169.8" font-family="Times,serif" font-size="14.00">andl $0xf, %r8d</text>
<text text-anchor="middle" x="374.5" y="-2154.8" font-family="Times,serif" font-size="14.00">cmpb $6, %r8b</text>
<text text-anchor="middle" x="374.5" y="-2139.8" font-family="Times,serif" font-size="14.00">je 0x4000d678a0</text>
<text text-anchor="middle" x="374.5" y="-2124.8" font-family="Times,serif" font-size="14.00">_______________________</text>
<text text-anchor="middle" x="374.5" y="-2109.8" font-family="Times,serif" font-size="14.00">LOOP 0x4000d678af</text>
</g>
<!-- 1382&#45;&gt;1383 -->
<g id="edge13" class="edge"><title>1382&#45;&gt;1383</title>
<path fill="none" stroke="black" d="M374.5,-2280.76C374.5,-2272.38 374.5,-2263.84 374.5,-2255.43"/>
<polygon fill="black" stroke="black" points="378,-2255.26 374.5,-2245.26 371,-2255.26 378,-2255.26"/>
</g>
<!-- 1384 -->
<g id="node14" class="node"><title>1384</title>
<polygon fill="none" stroke="black" points="441.5,-2066 269.5,-2066 269.5,-1908 441.5,-1908 441.5,-2066"/>
<text text-anchor="middle" x="355.5" y="-2050.8" font-family="Times,serif" font-size="14.00">0x4000d678d8</text>
<text text-anchor="middle" x="355.5" y="-2035.8" font-family="Times,serif" font-size="14.00">_______________________</text>
<text text-anchor="middle" x="355.5" y="-2020.8" font-family="Times,serif" font-size="14.00">_______________________</text>
<text text-anchor="middle" x="355.5" y="-2005.8" font-family="Times,serif" font-size="14.00">movq 8(%rdx), %r10</text>
<text text-anchor="middle" x="355.5" y="-1990.8" font-family="Times,serif" font-size="14.00">movq %r10, %r8</text>
<text text-anchor="middle" x="355.5" y="-1975.8" font-family="Times,serif" font-size="14.00">addq (%rax), %r8</text>
<text text-anchor="middle" x="355.5" y="-1960.8" font-family="Times,serif" font-size="14.00">cmpq %r8, %rbx</text>
<text text-anchor="middle" x="355.5" y="-1945.8" font-family="Times,serif" font-size="14.00">jb 0x4000d678a0</text>
<text text-anchor="middle" x="355.5" y="-1930.8" font-family="Times,serif" font-size="14.00">_______________________</text>
<text text-anchor="middle" x="355.5" y="-1915.8" font-family="Times,serif" font-size="14.00">LOOP 0x4000d678af</text>
</g>
<!-- 1383&#45;&gt;1384 -->
<g id="edge14" class="edge"><title>1383&#45;&gt;1384</title>
<path fill="none" stroke="black" d="M367.236,-2101.96C366.37,-2093.55 365.477,-2084.89 364.59,-2076.27"/>
<polygon fill="black" stroke="black" points="368.058,-2075.78 363.552,-2066.19 361.095,-2076.5 368.058,-2075.78"/>
</g>
<!-- 1385 -->
<g id="node15" class="node"><title>1385</title>
<polygon fill="none" stroke="black" points="350.5,-1246 178.5,-1246 178.5,-1103 350.5,-1103 350.5,-1246"/>
<text text-anchor="middle" x="264.5" y="-1230.8" font-family="Times,serif" font-size="14.00">0x4000d678a0</text>
<text text-anchor="middle" x="264.5" y="-1215.8" font-family="Times,serif" font-size="14.00">_______________________</text>
<text text-anchor="middle" x="264.5" y="-1200.8" font-family="Times,serif" font-size="14.00">_______________________</text>
<text text-anchor="middle" x="264.5" y="-1185.8" font-family="Times,serif" font-size="14.00">addq $4, %rdi</text>
<text text-anchor="middle" x="264.5" y="-1170.8" font-family="Times,serif" font-size="14.00">addl $1, %ecx</text>
<text text-anchor="middle" x="264.5" y="-1155.8" font-family="Times,serif" font-size="14.00">testb $1, &#45;4(%rdi)</text>
<text text-anchor="middle" x="264.5" y="-1140.8" font-family="Times,serif" font-size="14.00">jne 0x4000d67920</text>
<text text-anchor="middle" x="264.5" y="-1125.8" font-family="Times,serif" font-size="14.00">_______________________</text>
<text text-anchor="middle" x="264.5" y="-1110.8" font-family="Times,serif" font-size="14.00">LOOP 0x4000d678af</text>
</g>
<!-- 1383&#45;&gt;1385 -->
<g id="edge15" class="edge"><title>1383&#45;&gt;1385</title>
<path fill="none" stroke="black" d="M435.189,-2101.76C487.445,-2033.45 554.5,-1924.71 554.5,-1816.5 554.5,-1816.5 554.5,-1816.5 554.5,-1501.5 554.5,-1403.58 594.083,-1360.46 535.5,-1282 494.461,-1227.03 420.786,-1200.42 360.605,-1187.54"/>
<polygon fill="black" stroke="black" points="361.186,-1184.08 350.688,-1185.51 359.785,-1190.94 361.186,-1184.08"/>
</g>
<!-- 1384&#45;&gt;1385 -->
<g id="edge16" class="edge"><title>1384&#45;&gt;1385</title>
<path fill="none" stroke="black" d="M269.26,-1912.61C207.975,-1851.9 136.5,-1759.72 136.5,-1660 136.5,-1660 136.5,-1660 136.5,-1501.5 136.5,-1403.58 113.644,-1370.52 155.5,-1282 160.089,-1272.29 165.962,-1262.99 172.596,-1254.2"/>
<polygon fill="black" stroke="black" points="175.409,-1256.29 178.888,-1246.28 169.927,-1251.94 175.409,-1256.29"/>
</g>
<!-- 1387 -->
<g id="node16" class="node"><title>1387</title>
<polygon fill="none" stroke="black" points="441.5,-1872 269.5,-1872 269.5,-1759 441.5,-1759 441.5,-1872"/>
<text text-anchor="middle" x="355.5" y="-1856.8" font-family="Times,serif" font-size="14.00">0x4000d678e7</text>
<text text-anchor="middle" x="355.5" y="-1841.8" font-family="Times,serif" font-size="14.00">_______________________</text>
<text text-anchor="middle" x="355.5" y="-1826.8" font-family="Times,serif" font-size="14.00">_______________________</text>
<text text-anchor="middle" x="355.5" y="-1811.8" font-family="Times,serif" font-size="14.00">testw %r9w, %r9w</text>
<text text-anchor="middle" x="355.5" y="-1796.8" font-family="Times,serif" font-size="14.00">jne 0x4000d67890</text>
<text text-anchor="middle" x="355.5" y="-1781.8" font-family="Times,serif" font-size="14.00">_______________________</text>
<text text-anchor="middle" x="355.5" y="-1766.8" font-family="Times,serif" font-size="14.00">LOOP 0x4000d678af</text>
</g>
<!-- 1384&#45;&gt;1387 -->
<g id="edge17" class="edge"><title>1384&#45;&gt;1387</title>
<path fill="none" stroke="black" d="M355.5,-1907.7C355.5,-1899.19 355.5,-1890.59 355.5,-1882.25"/>
<polygon fill="black" stroke="black" points="359,-1882.23 355.5,-1872.23 352,-1882.23 359,-1882.23"/>
</g>
<!-- 1385&#45;&gt;1379 -->
<g id="edge18" class="edge"><title>1385&#45;&gt;1379</title>
<path fill="none" stroke="black" d="M191.551,-1102.84C181.836,-1093.43 171.874,-1083.79 162.163,-1074.38"/>
<polygon fill="black" stroke="black" points="164.413,-1071.69 154.795,-1067.24 159.543,-1076.71 164.413,-1071.69"/>
</g>
<!-- 1386 -->
<g id="node17" class="node"><title>1386</title>
<polygon fill="none" stroke="black" points="521.5,-1052 349.5,-1052 349.5,-954 521.5,-954 521.5,-1052"/>
<text text-anchor="middle" x="435.5" y="-1036.8" font-family="Times,serif" font-size="14.00">0x4000d678ad</text>
<text text-anchor="middle" x="435.5" y="-1021.8" font-family="Times,serif" font-size="14.00">_______________________</text>
<text text-anchor="middle" x="435.5" y="-1006.8" font-family="Times,serif" font-size="14.00">_______________________</text>
<text text-anchor="middle" x="435.5" y="-991.8" font-family="Times,serif" font-size="14.00">movl %ecx, %edx</text>
<text text-anchor="middle" x="435.5" y="-976.8" font-family="Times,serif" font-size="14.00">_______________________</text>
<text text-anchor="middle" x="435.5" y="-961.8" font-family="Times,serif" font-size="14.00">LOOP 0x4000d678af</text>
</g>
<!-- 1385&#45;&gt;1386 -->
<g id="edge19" class="edge"><title>1385&#45;&gt;1386</title>
<path fill="none" stroke="black" d="M336.029,-1102.6C350.602,-1088.15 365.733,-1073.15 379.664,-1059.35"/>
<polygon fill="black" stroke="black" points="382.192,-1061.77 386.831,-1052.24 377.265,-1056.8 382.192,-1061.77"/>
</g>
<!-- 1388 -->
<g id="node18" class="node"><title>1388</title>
<polygon fill="none" stroke="black" points="441.5,-1723 269.5,-1723 269.5,-1595 441.5,-1595 441.5,-1723"/>
<text text-anchor="middle" x="355.5" y="-1707.8" font-family="Times,serif" font-size="14.00">0x4000d67890</text>
<text text-anchor="middle" x="355.5" y="-1692.8" font-family="Times,serif" font-size="14.00">_______________________</text>
<text text-anchor="middle" x="355.5" y="-1677.8" font-family="Times,serif" font-size="14.00">_______________________</text>
<text text-anchor="middle" x="355.5" y="-1662.8" font-family="Times,serif" font-size="14.00">movq 0x10(%rdx), %r9</text>
<text text-anchor="middle" x="355.5" y="-1647.8" font-family="Times,serif" font-size="14.00">testq %r9, %r9</text>
<text text-anchor="middle" x="355.5" y="-1632.8" font-family="Times,serif" font-size="14.00">jne 0x4000d678f6</text>
<text text-anchor="middle" x="355.5" y="-1617.8" font-family="Times,serif" font-size="14.00">_______________________</text>
<text text-anchor="middle" x="355.5" y="-1602.8" font-family="Times,serif" font-size="14.00">LOOP 0x4000d678af</text>
</g>
<!-- 1387&#45;&gt;1388 -->
<g id="edge21" class="edge"><title>1387&#45;&gt;1388</title>
<path fill="none" stroke="black" d="M355.5,-1758.72C355.5,-1750.4 355.5,-1741.71 355.5,-1733.09"/>
<polygon fill="black" stroke="black" points="359,-1733.04 355.5,-1723.04 352,-1733.04 359,-1733.04"/>
</g>
<!-- 1386&#45;&gt;1382 -->
<g id="edge20" class="edge"><title>1386&#45;&gt;1382</title>
<path fill="none" stroke="black" d="M473.907,-1052.19C520.386,-1115.49 592.5,-1231.92 592.5,-1345 592.5,-1988 592.5,-1988 592.5,-1988 592.5,-2097.38 521.19,-2203 460.14,-2273.38"/>
<polygon fill="black" stroke="black" points="457.478,-2271.11 453.511,-2280.94 462.739,-2275.73 457.478,-2271.11"/>
</g>
<!-- 1389 -->
<g id="node19" class="node"><title>1389</title>
<polygon fill="none" stroke="black" points="336.5,-1410 164.5,-1410 164.5,-1282 336.5,-1282 336.5,-1410"/>
<text text-anchor="middle" x="250.5" y="-1394.8" font-family="Times,serif" font-size="14.00">0x4000d678f6</text>
<text text-anchor="middle" x="250.5" y="-1379.8" font-family="Times,serif" font-size="14.00">_______________________</text>
<text text-anchor="middle" x="250.5" y="-1364.8" font-family="Times,serif" font-size="14.00">_______________________</text>
<text text-anchor="middle" x="250.5" y="-1349.8" font-family="Times,serif" font-size="14.00">addq %r9, %r8</text>
<text text-anchor="middle" x="250.5" y="-1334.8" font-family="Times,serif" font-size="14.00">cmpq %r8, %rbx</text>
<text text-anchor="middle" x="250.5" y="-1319.8" font-family="Times,serif" font-size="14.00">jae 0x4000d678a0</text>
<text text-anchor="middle" x="250.5" y="-1304.8" font-family="Times,serif" font-size="14.00">_______________________</text>
<text text-anchor="middle" x="250.5" y="-1289.8" font-family="Times,serif" font-size="14.00">LOOP 0x4000d678af</text>
</g>
<!-- 1388&#45;&gt;1389 -->
<g id="edge22" class="edge"><title>1388&#45;&gt;1389</title>
<path fill="none" stroke="black" d="M334.125,-1594.69C317.021,-1544.03 293.019,-1472.94 275.114,-1419.91"/>
<polygon fill="black" stroke="black" points="278.36,-1418.58 271.845,-1410.22 271.728,-1420.82 278.36,-1418.58"/>
</g>
<!-- 1390 -->
<g id="node20" class="node"><title>1390</title>
<polygon fill="none" stroke="black" points="507.5,-1559 335.5,-1559 335.5,-1446 507.5,-1446 507.5,-1559"/>
<text text-anchor="middle" x="421.5" y="-1543.8" font-family="Times,serif" font-size="14.00">0x4000d67899</text>
<text text-anchor="middle" x="421.5" y="-1528.8" font-family="Times,serif" font-size="14.00">_______________________</text>
<text text-anchor="middle" x="421.5" y="-1513.8" font-family="Times,serif" font-size="14.00">_______________________</text>
<text text-anchor="middle" x="421.5" y="-1498.8" font-family="Times,serif" font-size="14.00">cmpq %r8, %rbx</text>
<text text-anchor="middle" x="421.5" y="-1483.8" font-family="Times,serif" font-size="14.00">je 0x4000d678fe</text>
<text text-anchor="middle" x="421.5" y="-1468.8" font-family="Times,serif" font-size="14.00">_______________________</text>
<text text-anchor="middle" x="421.5" y="-1453.8" font-family="Times,serif" font-size="14.00">LOOP 0x4000d678af</text>
</g>
<!-- 1388&#45;&gt;1390 -->
<g id="edge23" class="edge"><title>1388&#45;&gt;1390</title>
<path fill="none" stroke="black" d="M382.535,-1594.71C386.247,-1586.02 390.064,-1577.09 393.788,-1568.37"/>
<polygon fill="black" stroke="black" points="397.074,-1569.59 397.784,-1559.02 390.637,-1566.84 397.074,-1569.59"/>
</g>
<!-- 1389&#45;&gt;1385 -->
<g id="edge24" class="edge"><title>1389&#45;&gt;1385</title>
<path fill="none" stroke="black" d="M255.713,-1281.88C256.406,-1273.5 257.124,-1264.8 257.837,-1256.17"/>
<polygon fill="black" stroke="black" points="261.335,-1256.33 258.67,-1246.08 254.359,-1255.76 261.335,-1256.33"/>
</g>
<!-- 1391 -->
<g id="node21" class="node"><title>1391</title>
<polygon fill="none" stroke="black" points="526.5,-1395 354.5,-1395 354.5,-1297 526.5,-1297 526.5,-1395"/>
<text text-anchor="middle" x="440.5" y="-1379.8" font-family="Times,serif" font-size="14.00">0x4000d6789e</text>
<text text-anchor="middle" x="440.5" y="-1364.8" font-family="Times,serif" font-size="14.00">_______________________</text>
<text text-anchor="middle" x="440.5" y="-1349.8" font-family="Times,serif" font-size="14.00">_______________________</text>
<text text-anchor="middle" x="440.5" y="-1334.8" font-family="Times,serif" font-size="14.00">nop </text>
<text text-anchor="middle" x="440.5" y="-1319.8" font-family="Times,serif" font-size="14.00">_______________________</text>
<text text-anchor="middle" x="440.5" y="-1304.8" font-family="Times,serif" font-size="14.00">LOOP 0x4000d678af</text>
</g>
<!-- 1390&#45;&gt;1391 -->
<g id="edge25" class="edge"><title>1390&#45;&gt;1391</title>
<path fill="none" stroke="black" d="M428.359,-1445.72C429.986,-1432.5 431.724,-1418.36 433.363,-1405.04"/>
<polygon fill="black" stroke="black" points="436.846,-1405.39 434.592,-1395.04 429.898,-1404.54 436.846,-1405.39"/>
</g>
<!-- 1391&#45;&gt;1385 -->
<g id="edge26" class="edge"><title>1391&#45;&gt;1385</title>
<path fill="none" stroke="black" d="M390.536,-1296.88C376.475,-1283.34 360.81,-1268.25 345.434,-1253.44"/>
<polygon fill="black" stroke="black" points="347.548,-1250.62 337.917,-1246.21 342.692,-1255.66 347.548,-1250.62"/>
</g>
<!-- 1394 -->
<g id="node23" class="node"><title>1394</title>
<polygon fill="none" stroke="black" points="175.5,-620 3.5,-620 3.5,-537 175.5,-537 175.5,-620"/>
<text text-anchor="middle" x="89.5" y="-604.8" font-family="Times,serif" font-size="14.00">0x4000d67947</text>
<text text-anchor="middle" x="89.5" y="-589.8" font-family="Times,serif" font-size="14.00">_______________________</text>
<text text-anchor="middle" x="89.5" y="-574.8" font-family="Times,serif" font-size="14.00">_______________________</text>
<text text-anchor="middle" x="89.5" y="-559.8" font-family="Times,serif" font-size="14.00">testq %rsi, %rsi</text>
<text text-anchor="middle" x="89.5" y="-544.8" font-family="Times,serif" font-size="14.00">je 0x4000d67988</text>
</g>
<!-- 1393&#45;&gt;1394 -->
<g id="edge28" class="edge"><title>1393&#45;&gt;1394</title>
<path fill="none" stroke="black" d="M89.5,-655.903C89.5,-647.387 89.5,-638.635 89.5,-630.231"/>
<polygon fill="black" stroke="black" points="93.0001,-630.194 89.5,-620.194 86.0001,-630.194 93.0001,-630.194"/>
</g>
<!-- 1395 -->
<g id="node24" class="node"><title>1395</title>
<polygon fill="none" stroke="black" points="175.5,-501 3.5,-501 3.5,-388 175.5,-388 175.5,-501"/>
<text text-anchor="middle" x="89.5" y="-485.8" font-family="Times,serif" font-size="14.00">0x4000d67988</text>
<text text-anchor="middle" x="89.5" y="-470.8" font-family="Times,serif" font-size="14.00">_______________________</text>
<text text-anchor="middle" x="89.5" y="-455.8" font-family="Times,serif" font-size="14.00">_______________________</text>
<text text-anchor="middle" x="89.5" y="-440.8" font-family="Times,serif" font-size="14.00">movq $0, 0x10(%r12)</text>
<text text-anchor="middle" x="89.5" y="-425.8" font-family="Times,serif" font-size="14.00">movq $0, 0x18(%r12)</text>
<text text-anchor="middle" x="89.5" y="-410.8" font-family="Times,serif" font-size="14.00">movl $1, %ebx</text>
<text text-anchor="middle" x="89.5" y="-395.8" font-family="Times,serif" font-size="14.00">jmp 0x4000d67969</text>
</g>
<!-- 1394&#45;&gt;1395 -->
<g id="edge29" class="edge"><title>1394&#45;&gt;1395</title>
<path fill="none" stroke="black" d="M89.5,-536.819C89.5,-528.761 89.5,-520.109 89.5,-511.458"/>
<polygon fill="black" stroke="black" points="93.0001,-511.339 89.5,-501.339 86.0001,-511.339 93.0001,-511.339"/>
</g>
<!-- 1396 -->
<g id="node25" class="node"><title>1396</title>
<polygon fill="none" stroke="black" points="175.5,-352 3.5,-352 3.5,-224 175.5,-224 175.5,-352"/>
<text text-anchor="middle" x="89.5" y="-336.8" font-family="Times,serif" font-size="14.00">0x4000d67969</text>
<text text-anchor="middle" x="89.5" y="-321.8" font-family="Times,serif" font-size="14.00">_______________________</text>
<text text-anchor="middle" x="89.5" y="-306.8" font-family="Times,serif" font-size="14.00">_______________________</text>
<text text-anchor="middle" x="89.5" y="-291.8" font-family="Times,serif" font-size="14.00">leaq 0x908(%r13), %rdi</text>
<text text-anchor="middle" x="89.5" y="-276.8" font-family="Times,serif" font-size="14.00">callq *0xf08(%r13)</text>
<text text-anchor="middle" x="89.5" y="-261.8" font-family="Times,serif" font-size="14.00">_______________________</text>
<text text-anchor="middle" x="89.5" y="-246.8" font-family="Times,serif" font-size="14.00">CALL 0x4000a0e0a0</text>
<text text-anchor="middle" x="89.5" y="-231.8" font-family="Times,serif" font-size="14.00">CALL 0x4000a03c80</text>
</g>
<!-- 1395&#45;&gt;1396 -->
<g id="edge30" class="edge"><title>1395&#45;&gt;1396</title>
<path fill="none" stroke="black" d="M89.5,-387.722C89.5,-379.397 89.5,-370.711 89.5,-362.094"/>
<polygon fill="black" stroke="black" points="93.0001,-362.036 89.5,-352.036 86.0001,-362.036 93.0001,-362.036"/>
</g>
<!-- 1397 -->
<g id="node26" class="node"><title>1397</title>
<polygon fill="none" stroke="black" points="175.5,-188 3.5,-188 3.5,-0 175.5,-0 175.5,-188"/>
<text text-anchor="middle" x="89.5" y="-172.8" font-family="Times,serif" font-size="14.00">0x4000d67977</text>
<text text-anchor="middle" x="89.5" y="-157.8" font-family="Times,serif" font-size="14.00">_______________________</text>
<text text-anchor="middle" x="89.5" y="-142.8" font-family="Times,serif" font-size="14.00">_______________________</text>
<text text-anchor="middle" x="89.5" y="-127.8" font-family="Times,serif" font-size="14.00">addq $0x28, %rsp</text>
<text text-anchor="middle" x="89.5" y="-112.8" font-family="Times,serif" font-size="14.00">movl %ebx, %eax</text>
<text text-anchor="middle" x="89.5" y="-97.8" font-family="Times,serif" font-size="14.00">popq %rbx</text>
<text text-anchor="middle" x="89.5" y="-82.8" font-family="Times,serif" font-size="14.00">popq %rbp</text>
<text text-anchor="middle" x="89.5" y="-67.8" font-family="Times,serif" font-size="14.00">popq %r12</text>
<text text-anchor="middle" x="89.5" y="-52.8" font-family="Times,serif" font-size="14.00">popq %r13</text>
<text text-anchor="middle" x="89.5" y="-37.8" font-family="Times,serif" font-size="14.00">popq %r14</text>
<text text-anchor="middle" x="89.5" y="-22.8" font-family="Times,serif" font-size="14.00">popq %r15</text>
<text text-anchor="middle" x="89.5" y="-7.8" font-family="Times,serif" font-size="14.00">retq </text>
</g>
<!-- 1396&#45;&gt;1397 -->
<g id="edge31" class="edge"><title>1396&#45;&gt;1397</title>
<path fill="none" stroke="black" d="M89.5,-223.866C89.5,-215.617 89.5,-207.001 89.5,-198.304"/>
<polygon fill="black" stroke="black" points="93.0001,-198.074 89.5,-188.074 86.0001,-198.074 93.0001,-198.074"/>
</g>
</g>
</svg>
