<?xml version="1.0" encoding="UTF-8" standalone="no"?>
<!DOCTYPE svg PUBLIC "-//W3C//DTD SVG 1.1//EN"
 "http://www.w3.org/Graphics/SVG/1.1/DTD/svg11.dtd">
<!-- Generated by graphviz version 2.38.0 (20140413.2041)
 -->
<!-- Title: %3 Pages: 1 -->
<svg width="180pt" height="629pt"
 viewBox="0.00 0.00 180.00 629.00" xmlns="http://www.w3.org/2000/svg" xmlns:xlink="http://www.w3.org/1999/xlink">
<g id="graph0" class="graph" transform="scale(1 1) rotate(0) translate(4 625)">
<title>%3</title>
<polygon fill="white" stroke="none" points="-4,4 -4,-625 176,-625 176,4 -4,4"/>
<!-- 1276 -->
<g id="node1" class="node"><title>1276</title>
<polygon fill="none" stroke="black" points="172,-621 0,-621 0,-298 172,-298 172,-621"/>
<text text-anchor="middle" x="86" y="-605.8" font-family="Times,serif" font-size="14.00">0x4000c75710</text>
<text text-anchor="middle" x="86" y="-590.8" font-family="Times,serif" font-size="14.00">_______________________</text>
<text text-anchor="middle" x="86" y="-575.8" font-family="Times,serif" font-size="14.00">_______________________</text>
<text text-anchor="middle" x="86" y="-560.8" font-family="Times,serif" font-size="14.00">movq %rbx, (%rdi)</text>
<text text-anchor="middle" x="86" y="-545.8" font-family="Times,serif" font-size="14.00">movq %rbp, %rax</text>
<text text-anchor="middle" x="86" y="-530.8" font-family="Times,serif" font-size="14.00">xorq %fs:0x30, %rax</text>
<text text-anchor="middle" x="86" y="-515.8" font-family="Times,serif" font-size="14.00">rolq $0x11, %rax</text>
<text text-anchor="middle" x="86" y="-500.8" font-family="Times,serif" font-size="14.00">movq %rax, 8(%rdi)</text>
<text text-anchor="middle" x="86" y="-485.8" font-family="Times,serif" font-size="14.00">movq %r12, 0x10(%rdi)</text>
<text text-anchor="middle" x="86" y="-470.8" font-family="Times,serif" font-size="14.00">movq %r13, 0x18(%rdi)</text>
<text text-anchor="middle" x="86" y="-455.8" font-family="Times,serif" font-size="14.00">movq %r14, 0x20(%rdi)</text>
<text text-anchor="middle" x="86" y="-440.8" font-family="Times,serif" font-size="14.00">movq %r15, 0x28(%rdi)</text>
<text text-anchor="middle" x="86" y="-425.8" font-family="Times,serif" font-size="14.00">leaq 8(%rsp), %rdx</text>
<text text-anchor="middle" x="86" y="-410.8" font-family="Times,serif" font-size="14.00">xorq %fs:0x30, %rdx</text>
<text text-anchor="middle" x="86" y="-395.8" font-family="Times,serif" font-size="14.00">rolq $0x11, %rdx</text>
<text text-anchor="middle" x="86" y="-380.8" font-family="Times,serif" font-size="14.00">movq %rdx, 0x30(%rdi)</text>
<text text-anchor="middle" x="86" y="-365.8" font-family="Times,serif" font-size="14.00">movq (%rsp), %rax</text>
<text text-anchor="middle" x="86" y="-350.8" font-family="Times,serif" font-size="14.00">xorq %fs:0x30, %rax</text>
<text text-anchor="middle" x="86" y="-335.8" font-family="Times,serif" font-size="14.00">rolq $0x11, %rax</text>
<text text-anchor="middle" x="86" y="-320.8" font-family="Times,serif" font-size="14.00">movq %rax, 0x38(%rdi)</text>
<text text-anchor="middle" x="86" y="-305.8" font-family="Times,serif" font-size="14.00">jmp 0x4000c75770</text>
</g>
<!-- 1277 -->
<g id="node2" class="node"><title>1277</title>
<polygon fill="none" stroke="black" points="172,-262 0,-262 0,-149 172,-149 172,-262"/>
<text text-anchor="middle" x="86" y="-246.8" font-family="Times,serif" font-size="14.00">0x4000c75770</text>
<text text-anchor="middle" x="86" y="-231.8" font-family="Times,serif" font-size="14.00">_______________________</text>
<text text-anchor="middle" x="86" y="-216.8" font-family="Times,serif" font-size="14.00">_______________________</text>
<text text-anchor="middle" x="86" y="-201.8" font-family="Times,serif" font-size="14.00">testl %esi, %esi</text>
<text text-anchor="middle" x="86" y="-186.8" font-family="Times,serif" font-size="14.00">pushq %rbx</text>
<text text-anchor="middle" x="86" y="-171.8" font-family="Times,serif" font-size="14.00">movq %rdi, %rbx</text>
<text text-anchor="middle" x="86" y="-156.8" font-family="Times,serif" font-size="14.00">je 0x4000c7578d</text>
</g>
<!-- 1276&#45;&gt;1277 -->
<g id="edge1" class="edge"><title>1276&#45;&gt;1277</title>
<path fill="none" stroke="black" d="M86,-297.834C86,-288.989 86,-280.391 86,-272.234"/>
<polygon fill="black" stroke="black" points="89.5001,-272.152 86,-262.152 82.5001,-272.152 89.5001,-272.152"/>
</g>
<!-- 1278 -->
<g id="node3" class="node"><title>1278</title>
<polygon fill="none" stroke="black" points="172,-113 0,-113 0,-0 172,-0 172,-113"/>
<text text-anchor="middle" x="86" y="-97.8" font-family="Times,serif" font-size="14.00">0x4000c7578d</text>
<text text-anchor="middle" x="86" y="-82.8" font-family="Times,serif" font-size="14.00">_______________________</text>
<text text-anchor="middle" x="86" y="-67.8" font-family="Times,serif" font-size="14.00">_______________________</text>
<text text-anchor="middle" x="86" y="-52.8" font-family="Times,serif" font-size="14.00">movl %esi, 0x40(%rbx)</text>
<text text-anchor="middle" x="86" y="-37.8" font-family="Times,serif" font-size="14.00">xorl %eax, %eax</text>
<text text-anchor="middle" x="86" y="-22.8" font-family="Times,serif" font-size="14.00">popq %rbx</text>
<text text-anchor="middle" x="86" y="-7.8" font-family="Times,serif" font-size="14.00">retq </text>
</g>
<!-- 1277&#45;&gt;1278 -->
<g id="edge2" class="edge"><title>1277&#45;&gt;1278</title>
<path fill="none" stroke="black" d="M86,-148.926C86,-140.511 86,-131.762 86,-123.158"/>
<polygon fill="black" stroke="black" points="89.5001,-123.153 86,-113.153 82.5001,-123.153 89.5001,-123.153"/>
</g>
</g>
</svg>
