<?xml version="1.0" encoding="UTF-8" standalone="no"?>
<!DOCTYPE svg PUBLIC "-//W3C//DTD SVG 1.1//EN"
 "http://www.w3.org/Graphics/SVG/1.1/DTD/svg11.dtd">
<!-- Generated by graphviz version 2.38.0 (20140413.2041)
 -->
<!-- Title: %3 Pages: 1 -->
<svg width="370pt" height="1194pt"
 viewBox="0.00 0.00 370.00 1194.00" xmlns="http://www.w3.org/2000/svg" xmlns:xlink="http://www.w3.org/1999/xlink">
<g id="graph0" class="graph" transform="scale(1 1) rotate(0) translate(4 1190)">
<title>%3</title>
<polygon fill="white" stroke="none" points="-4,4 -4,-1190 366,-1190 366,4 -4,4"/>
<!-- 1365 -->
<g id="node1" class="node"><title>1365</title>
<polygon fill="none" stroke="black" points="229,-1186 57,-1186 57,-983 229,-983 229,-1186"/>
<text text-anchor="middle" x="143" y="-1170.8" font-family="Times,serif" font-size="14.00">0x4000a16240</text>
<text text-anchor="middle" x="143" y="-1155.8" font-family="Times,serif" font-size="14.00">_______________________</text>
<text text-anchor="middle" x="143" y="-1140.8" font-family="Times,serif" font-size="14.00">_______________________</text>
<text text-anchor="middle" x="143" y="-1125.8" font-family="Times,serif" font-size="14.00">pushq %r13</text>
<text text-anchor="middle" x="143" y="-1110.8" font-family="Times,serif" font-size="14.00">pushq %r12</text>
<text text-anchor="middle" x="143" y="-1095.8" font-family="Times,serif" font-size="14.00">xorl %r12d, %r12d</text>
<text text-anchor="middle" x="143" y="-1080.8" font-family="Times,serif" font-size="14.00">pushq %rbp</text>
<text text-anchor="middle" x="143" y="-1065.8" font-family="Times,serif" font-size="14.00">pushq %rbx</text>
<text text-anchor="middle" x="143" y="-1050.8" font-family="Times,serif" font-size="14.00">movq %rdi, %rbp</text>
<text text-anchor="middle" x="143" y="-1035.8" font-family="Times,serif" font-size="14.00">leaq 0x20fded(%rip), %r13</text>
<text text-anchor="middle" x="143" y="-1020.8" font-family="Times,serif" font-size="14.00">subq $8, %rsp</text>
<text text-anchor="middle" x="143" y="-1005.8" font-family="Times,serif" font-size="14.00">cmpq $0, 0x2106e1(%rip)</text>
<text text-anchor="middle" x="143" y="-990.8" font-family="Times,serif" font-size="14.00">je 0x4000a162b7</text>
</g>
<!-- 1366 -->
<g id="node2" class="node"><title>1366</title>
<polygon fill="none" stroke="black" points="229,-947 57,-947 57,-849 229,-849 229,-947"/>
<text text-anchor="middle" x="143" y="-931.8" font-family="Times,serif" font-size="14.00">0x4000a16261</text>
<text text-anchor="middle" x="143" y="-916.8" font-family="Times,serif" font-size="14.00">_______________________</text>
<text text-anchor="middle" x="143" y="-901.8" font-family="Times,serif" font-size="14.00">_______________________</text>
<text text-anchor="middle" x="143" y="-886.8" font-family="Times,serif" font-size="14.00">movq (%r13), %rbx</text>
<text text-anchor="middle" x="143" y="-871.8" font-family="Times,serif" font-size="14.00">testq %rbx, %rbx</text>
<text text-anchor="middle" x="143" y="-856.8" font-family="Times,serif" font-size="14.00">je 0x4000a162a3</text>
</g>
<!-- 1365&#45;&gt;1366 -->
<g id="edge1" class="edge"><title>1365&#45;&gt;1366</title>
<path fill="none" stroke="black" d="M143,-982.882C143,-974.226 143,-965.669 143,-957.519"/>
<polygon fill="black" stroke="black" points="146.5,-957.437 143,-947.437 139.5,-957.437 146.5,-957.437"/>
</g>
<!-- 1367 -->
<g id="node3" class="node"><title>1367</title>
<polygon fill="none" stroke="black" points="229,-813 57,-813 57,-745 229,-745 229,-813"/>
<text text-anchor="middle" x="143" y="-797.8" font-family="Times,serif" font-size="14.00">0x4000a1626a</text>
<text text-anchor="middle" x="143" y="-782.8" font-family="Times,serif" font-size="14.00">_______________________</text>
<text text-anchor="middle" x="143" y="-767.8" font-family="Times,serif" font-size="14.00">_______________________</text>
<text text-anchor="middle" x="143" y="-752.8" font-family="Times,serif" font-size="14.00">nopw (%rax, %rax)</text>
</g>
<!-- 1366&#45;&gt;1367 -->
<g id="edge2" class="edge"><title>1366&#45;&gt;1367</title>
<path fill="none" stroke="black" d="M143,-848.736C143,-840.327 143,-831.626 143,-823.359"/>
<polygon fill="black" stroke="black" points="146.5,-823.173 143,-813.173 139.5,-823.173 146.5,-823.173"/>
</g>
<!-- 1370 -->
<g id="node4" class="node"><title>1370</title>
<polygon fill="none" stroke="black" points="229,-709 57,-709 57,-626 229,-626 229,-709"/>
<text text-anchor="middle" x="143" y="-693.8" font-family="Times,serif" font-size="14.00">0x4000a16270</text>
<text text-anchor="middle" x="143" y="-678.8" font-family="Times,serif" font-size="14.00">_______________________</text>
<text text-anchor="middle" x="143" y="-663.8" font-family="Times,serif" font-size="14.00">_______________________</text>
<text text-anchor="middle" x="143" y="-648.8" font-family="Times,serif" font-size="14.00">cmpq %rbp, 0x340(%rbx)</text>
<text text-anchor="middle" x="143" y="-633.8" font-family="Times,serif" font-size="14.00">ja 0x4000a1629a</text>
</g>
<!-- 1367&#45;&gt;1370 -->
<g id="edge3" class="edge"><title>1367&#45;&gt;1370</title>
<path fill="none" stroke="black" d="M143,-744.849C143,-736.796 143,-728 143,-719.336"/>
<polygon fill="black" stroke="black" points="146.5,-719.277 143,-709.277 139.5,-719.277 146.5,-719.277"/>
</g>
<!-- 1368 -->
<g id="node5" class="node"><title>1368</title>
<polygon fill="none" stroke="black" points="286,-590 114,-590 114,-477 286,-477 286,-590"/>
<text text-anchor="middle" x="200" y="-574.8" font-family="Times,serif" font-size="14.00">0x4000a16279</text>
<text text-anchor="middle" x="200" y="-559.8" font-family="Times,serif" font-size="14.00">_______________________</text>
<text text-anchor="middle" x="200" y="-544.8" font-family="Times,serif" font-size="14.00">_______________________</text>
<text text-anchor="middle" x="200" y="-529.8" font-family="Times,serif" font-size="14.00">cmpq 0x348(%rbx), %rbp</text>
<text text-anchor="middle" x="200" y="-514.8" font-family="Times,serif" font-size="14.00">jae 0x4000a1629a</text>
<text text-anchor="middle" x="200" y="-499.8" font-family="Times,serif" font-size="14.00">_______________________</text>
<text text-anchor="middle" x="200" y="-484.8" font-family="Times,serif" font-size="14.00">LOOP 0x4000a16270</text>
</g>
<!-- 1370&#45;&gt;1368 -->
<g id="edge7" class="edge"><title>1370&#45;&gt;1368</title>
<path fill="none" stroke="black" d="M160.567,-625.819C164.16,-617.498 168.026,-608.544 171.883,-599.612"/>
<polygon fill="black" stroke="black" points="175.136,-600.908 175.888,-590.339 168.71,-598.132 175.136,-600.908"/>
</g>
<!-- 1369 -->
<g id="node6" class="node"><title>1369</title>
<polygon fill="none" stroke="black" points="172,-441 0,-441 0,-313 172,-313 172,-441"/>
<text text-anchor="middle" x="86" y="-425.8" font-family="Times,serif" font-size="14.00">0x4000a1629a</text>
<text text-anchor="middle" x="86" y="-410.8" font-family="Times,serif" font-size="14.00">_______________________</text>
<text text-anchor="middle" x="86" y="-395.8" font-family="Times,serif" font-size="14.00">_______________________</text>
<text text-anchor="middle" x="86" y="-380.8" font-family="Times,serif" font-size="14.00">movq 0x18(%rbx), %rbx</text>
<text text-anchor="middle" x="86" y="-365.8" font-family="Times,serif" font-size="14.00">testq %rbx, %rbx</text>
<text text-anchor="middle" x="86" y="-350.8" font-family="Times,serif" font-size="14.00">jne 0x4000a16270</text>
<text text-anchor="middle" x="86" y="-335.8" font-family="Times,serif" font-size="14.00">_______________________</text>
<text text-anchor="middle" x="86" y="-320.8" font-family="Times,serif" font-size="14.00">LOOP 0x4000a16270</text>
</g>
<!-- 1368&#45;&gt;1369 -->
<g id="edge4" class="edge"><title>1368&#45;&gt;1369</title>
<path fill="none" stroke="black" d="M158.843,-476.722C152.233,-467.764 145.315,-458.387 138.483,-449.129"/>
<polygon fill="black" stroke="black" points="141.266,-447.005 132.512,-441.036 135.633,-451.161 141.266,-447.005"/>
</g>
<!-- 1371 -->
<g id="node7" class="node"><title>1371</title>
<polygon fill="none" stroke="black" points="362,-418.5 190,-418.5 190,-335.5 362,-335.5 362,-418.5"/>
<text text-anchor="middle" x="276" y="-403.3" font-family="Times,serif" font-size="14.00">0x4000a16282</text>
<text text-anchor="middle" x="276" y="-388.3" font-family="Times,serif" font-size="14.00">_______________________</text>
<text text-anchor="middle" x="276" y="-373.3" font-family="Times,serif" font-size="14.00">_______________________</text>
<text text-anchor="middle" x="276" y="-358.3" font-family="Times,serif" font-size="14.00">testb $0x40, 0x315(%rbx)</text>
<text text-anchor="middle" x="276" y="-343.3" font-family="Times,serif" font-size="14.00">jne 0x4000a162c0</text>
</g>
<!-- 1368&#45;&gt;1371 -->
<g id="edge5" class="edge"><title>1368&#45;&gt;1371</title>
<path fill="none" stroke="black" d="M227.438,-476.722C235.328,-460.682 243.879,-443.299 251.574,-427.656"/>
<polygon fill="black" stroke="black" points="254.721,-429.187 255.995,-418.669 248.44,-426.097 254.721,-429.187"/>
</g>
<!-- 1369&#45;&gt;1370 -->
<g id="edge6" class="edge"><title>1369&#45;&gt;1370</title>
<path fill="none" stroke="black" d="M85.5817,-441.256C86.7685,-483.99 91.2427,-541.279 105,-590 107.516,-598.909 111.064,-608.021 114.991,-616.708"/>
<polygon fill="black" stroke="black" points="111.922,-618.404 119.371,-625.938 118.246,-615.403 111.922,-618.404"/>
</g>
<!-- 1372 -->
<g id="node8" class="node"><title>1372</title>
<polygon fill="none" stroke="black" points="362,-277 190,-277 190,-194 362,-194 362,-277"/>
<text text-anchor="middle" x="276" y="-261.8" font-family="Times,serif" font-size="14.00">0x4000a162c0</text>
<text text-anchor="middle" x="276" y="-246.8" font-family="Times,serif" font-size="14.00">_______________________</text>
<text text-anchor="middle" x="276" y="-231.8" font-family="Times,serif" font-size="14.00">_______________________</text>
<text text-anchor="middle" x="276" y="-216.8" font-family="Times,serif" font-size="14.00">cmpq %r12, 0x30(%rbx)</text>
<text text-anchor="middle" x="276" y="-201.8" font-family="Times,serif" font-size="14.00">jne 0x4000a162d4</text>
</g>
<!-- 1371&#45;&gt;1372 -->
<g id="edge8" class="edge"><title>1371&#45;&gt;1372</title>
<path fill="none" stroke="black" d="M276,-335.276C276,-320.235 276,-303.002 276,-287.185"/>
<polygon fill="black" stroke="black" points="279.5,-287.034 276,-277.034 272.5,-287.034 279.5,-287.034"/>
</g>
<!-- 1373 -->
<g id="node9" class="node"><title>1373</title>
<polygon fill="none" stroke="black" points="362,-158 190,-158 190,-0 362,-0 362,-158"/>
<text text-anchor="middle" x="276" y="-142.8" font-family="Times,serif" font-size="14.00">0x4000a162c6</text>
<text text-anchor="middle" x="276" y="-127.8" font-family="Times,serif" font-size="14.00">_______________________</text>
<text text-anchor="middle" x="276" y="-112.8" font-family="Times,serif" font-size="14.00">_______________________</text>
<text text-anchor="middle" x="276" y="-97.8" font-family="Times,serif" font-size="14.00">addq $8, %rsp</text>
<text text-anchor="middle" x="276" y="-82.8" font-family="Times,serif" font-size="14.00">movq %rbx, %rax</text>
<text text-anchor="middle" x="276" y="-67.8" font-family="Times,serif" font-size="14.00">popq %rbx</text>
<text text-anchor="middle" x="276" y="-52.8" font-family="Times,serif" font-size="14.00">popq %rbp</text>
<text text-anchor="middle" x="276" y="-37.8" font-family="Times,serif" font-size="14.00">popq %r12</text>
<text text-anchor="middle" x="276" y="-22.8" font-family="Times,serif" font-size="14.00">popq %r13</text>
<text text-anchor="middle" x="276" y="-7.8" font-family="Times,serif" font-size="14.00">retq </text>
</g>
<!-- 1372&#45;&gt;1373 -->
<g id="edge9" class="edge"><title>1372&#45;&gt;1373</title>
<path fill="none" stroke="black" d="M276,-193.907C276,-185.917 276,-177.246 276,-168.375"/>
<polygon fill="black" stroke="black" points="279.5,-168.3 276,-158.3 272.5,-168.3 279.5,-168.3"/>
</g>
</g>
</svg>
