<?xml version="1.0" encoding="UTF-8" standalone="no"?>
<!DOCTYPE svg PUBLIC "-//W3C//DTD SVG 1.1//EN"
 "http://www.w3.org/Graphics/SVG/1.1/DTD/svg11.dtd">
<!-- Generated by graphviz version 2.38.0 (20140413.2041)
 -->
<!-- Title: %3 Pages: 1 -->
<svg width="207pt" height="1343pt"
 viewBox="0.00 0.00 207.00 1343.00" xmlns="http://www.w3.org/2000/svg" xmlns:xlink="http://www.w3.org/1999/xlink">
<g id="graph0" class="graph" transform="scale(1 1) rotate(0) translate(4 1339)">
<title>%3</title>
<polygon fill="white" stroke="none" points="-4,4 -4,-1339 203,-1339 203,4 -4,4"/>
<!-- 1248 -->
<g id="node1" class="node"><title>1248</title>
<polygon fill="none" stroke="black" points="185.5,-1335 13.5,-1335 13.5,-1162 185.5,-1162 185.5,-1335"/>
<text text-anchor="middle" x="99.5" y="-1319.8" font-family="Times,serif" font-size="14.00">0x4000c787d0</text>
<text text-anchor="middle" x="99.5" y="-1304.8" font-family="Times,serif" font-size="14.00">_______________________</text>
<text text-anchor="middle" x="99.5" y="-1289.8" font-family="Times,serif" font-size="14.00">_______________________</text>
<text text-anchor="middle" x="99.5" y="-1274.8" font-family="Times,serif" font-size="14.00">pushq %rbp</text>
<text text-anchor="middle" x="99.5" y="-1259.8" font-family="Times,serif" font-size="14.00">pushq %rbx</text>
<text text-anchor="middle" x="99.5" y="-1244.8" font-family="Times,serif" font-size="14.00">movl $1, %esi</text>
<text text-anchor="middle" x="99.5" y="-1229.8" font-family="Times,serif" font-size="14.00">movq %rdi, %rbx</text>
<text text-anchor="middle" x="99.5" y="-1214.8" font-family="Times,serif" font-size="14.00">xorl %eax, %eax</text>
<text text-anchor="middle" x="99.5" y="-1199.8" font-family="Times,serif" font-size="14.00">subq $8, %rsp</text>
<text text-anchor="middle" x="99.5" y="-1184.8" font-family="Times,serif" font-size="14.00">cmpl $0, 0x36bf19(%rip)</text>
<text text-anchor="middle" x="99.5" y="-1169.8" font-family="Times,serif" font-size="14.00">je 0x4000c787f5</text>
</g>
<!-- 1249 -->
<g id="node2" class="node"><title>1249</title>
<polygon fill="none" stroke="black" points="199,-1126 0,-1126 0,-1043 199,-1043 199,-1126"/>
<text text-anchor="middle" x="99.5" y="-1110.8" font-family="Times,serif" font-size="14.00">0x4000c787f5</text>
<text text-anchor="middle" x="99.5" y="-1095.8" font-family="Times,serif" font-size="14.00">_______________________</text>
<text text-anchor="middle" x="99.5" y="-1080.8" font-family="Times,serif" font-size="14.00">_______________________</text>
<text text-anchor="middle" x="99.5" y="-1065.8" font-family="Times,serif" font-size="14.00">cmpxchgl %esi, 0x368834(%rip)</text>
<text text-anchor="middle" x="99.5" y="-1050.8" font-family="Times,serif" font-size="14.00">je 0x4000c78818</text>
</g>
<!-- 1248&#45;&gt;1249 -->
<g id="edge1" class="edge"><title>1248&#45;&gt;1249</title>
<path fill="none" stroke="black" d="M99.5,-1161.76C99.5,-1153 99.5,-1144.33 99.5,-1136.13"/>
<polygon fill="black" stroke="black" points="103,-1136.05 99.5,-1126.05 96.0001,-1136.05 103,-1136.05"/>
</g>
<!-- 1250 -->
<g id="node3" class="node"><title>1250</title>
<polygon fill="none" stroke="black" points="185.5,-1007 13.5,-1007 13.5,-879 185.5,-879 185.5,-1007"/>
<text text-anchor="middle" x="99.5" y="-991.8" font-family="Times,serif" font-size="14.00">0x4000c78818</text>
<text text-anchor="middle" x="99.5" y="-976.8" font-family="Times,serif" font-size="14.00">_______________________</text>
<text text-anchor="middle" x="99.5" y="-961.8" font-family="Times,serif" font-size="14.00">_______________________</text>
<text text-anchor="middle" x="99.5" y="-946.8" font-family="Times,serif" font-size="14.00">movq (%rbx), %rbp</text>
<text text-anchor="middle" x="99.5" y="-931.8" font-family="Times,serif" font-size="14.00">xorl %edi, %edi</text>
<text text-anchor="middle" x="99.5" y="-916.8" font-family="Times,serif" font-size="14.00">testq %rbp, %rbp</text>
<text text-anchor="middle" x="99.5" y="-901.8" font-family="Times,serif" font-size="14.00">movq %rbp, %rax</text>
<text text-anchor="middle" x="99.5" y="-886.8" font-family="Times,serif" font-size="14.00">je 0x4000c78939</text>
</g>
<!-- 1249&#45;&gt;1250 -->
<g id="edge2" class="edge"><title>1249&#45;&gt;1250</title>
<path fill="none" stroke="black" d="M99.5,-1042.78C99.5,-1034.74 99.5,-1026.08 99.5,-1017.35"/>
<polygon fill="black" stroke="black" points="103,-1017.09 99.5,-1007.09 96.0001,-1017.09 103,-1017.09"/>
</g>
<!-- 1251 -->
<g id="node4" class="node"><title>1251</title>
<polygon fill="none" stroke="black" points="185.5,-843 13.5,-843 13.5,-730 185.5,-730 185.5,-843"/>
<text text-anchor="middle" x="99.5" y="-827.8" font-family="Times,serif" font-size="14.00">0x4000c78829</text>
<text text-anchor="middle" x="99.5" y="-812.8" font-family="Times,serif" font-size="14.00">_______________________</text>
<text text-anchor="middle" x="99.5" y="-797.8" font-family="Times,serif" font-size="14.00">_______________________</text>
<text text-anchor="middle" x="99.5" y="-782.8" font-family="Times,serif" font-size="14.00">nopl (%rax)</text>
<text text-anchor="middle" x="99.5" y="-767.8" font-family="Times,serif" font-size="14.00">movq 8(%rax), %rcx</text>
<text text-anchor="middle" x="99.5" y="-752.8" font-family="Times,serif" font-size="14.00">testq %rcx, %rcx</text>
<text text-anchor="middle" x="99.5" y="-737.8" font-family="Times,serif" font-size="14.00">je 0x4000c78877</text>
</g>
<!-- 1250&#45;&gt;1251 -->
<g id="edge3" class="edge"><title>1250&#45;&gt;1251</title>
<path fill="none" stroke="black" d="M99.5,-878.713C99.5,-870.3 99.5,-861.659 99.5,-853.206"/>
<polygon fill="black" stroke="black" points="103,-853.017 99.5,-843.017 96.0001,-853.017 103,-853.017"/>
</g>
<!-- 1252 -->
<g id="node5" class="node"><title>1252</title>
<polygon fill="none" stroke="black" points="185.5,-694 13.5,-694 13.5,-566 185.5,-566 185.5,-694"/>
<text text-anchor="middle" x="99.5" y="-678.8" font-family="Times,serif" font-size="14.00">0x4000c78877</text>
<text text-anchor="middle" x="99.5" y="-663.8" font-family="Times,serif" font-size="14.00">_______________________</text>
<text text-anchor="middle" x="99.5" y="-648.8" font-family="Times,serif" font-size="14.00">_______________________</text>
<text text-anchor="middle" x="99.5" y="-633.8" font-family="Times,serif" font-size="14.00">movq (%rax), %rdx</text>
<text text-anchor="middle" x="99.5" y="-618.8" font-family="Times,serif" font-size="14.00">movq $0, 8(%rax)</text>
<text text-anchor="middle" x="99.5" y="-603.8" font-family="Times,serif" font-size="14.00">movq %rax, %rdi</text>
<text text-anchor="middle" x="99.5" y="-588.8" font-family="Times,serif" font-size="14.00">testq %rdx, %rdx</text>
<text text-anchor="middle" x="99.5" y="-573.8" font-family="Times,serif" font-size="14.00">je 0x4000c7892b</text>
</g>
<!-- 1251&#45;&gt;1252 -->
<g id="edge4" class="edge"><title>1251&#45;&gt;1252</title>
<path fill="none" stroke="black" d="M99.5,-729.722C99.5,-721.397 99.5,-712.711 99.5,-704.094"/>
<polygon fill="black" stroke="black" points="103,-704.036 99.5,-694.036 96.0001,-704.036 103,-704.036"/>
</g>
<!-- 1253 -->
<g id="node6" class="node"><title>1253</title>
<polygon fill="none" stroke="black" points="185.5,-530 13.5,-530 13.5,-432 185.5,-432 185.5,-530"/>
<text text-anchor="middle" x="99.5" y="-514.8" font-family="Times,serif" font-size="14.00">0x4000c7892b</text>
<text text-anchor="middle" x="99.5" y="-499.8" font-family="Times,serif" font-size="14.00">_______________________</text>
<text text-anchor="middle" x="99.5" y="-484.8" font-family="Times,serif" font-size="14.00">_______________________</text>
<text text-anchor="middle" x="99.5" y="-469.8" font-family="Times,serif" font-size="14.00">leaq 0x10(%rax), %rsi</text>
<text text-anchor="middle" x="99.5" y="-454.8" font-family="Times,serif" font-size="14.00">movq $1, 8(%rax)</text>
<text text-anchor="middle" x="99.5" y="-439.8" font-family="Times,serif" font-size="14.00">jmp 0x4000c788ba</text>
</g>
<!-- 1252&#45;&gt;1253 -->
<g id="edge5" class="edge"><title>1252&#45;&gt;1253</title>
<path fill="none" stroke="black" d="M99.5,-565.806C99.5,-557.286 99.5,-548.578 99.5,-540.151"/>
<polygon fill="black" stroke="black" points="103,-540.044 99.5,-530.044 96.0001,-540.044 103,-540.044"/>
</g>
<!-- 1254 -->
<g id="node7" class="node"><title>1254</title>
<polygon fill="none" stroke="black" points="185.5,-396 13.5,-396 13.5,-283 185.5,-283 185.5,-396"/>
<text text-anchor="middle" x="99.5" y="-380.8" font-family="Times,serif" font-size="14.00">0x4000c788ba</text>
<text text-anchor="middle" x="99.5" y="-365.8" font-family="Times,serif" font-size="14.00">_______________________</text>
<text text-anchor="middle" x="99.5" y="-350.8" font-family="Times,serif" font-size="14.00">_______________________</text>
<text text-anchor="middle" x="99.5" y="-335.8" font-family="Times,serif" font-size="14.00">movq $1, (%rsi)</text>
<text text-anchor="middle" x="99.5" y="-320.8" font-family="Times,serif" font-size="14.00">addq $1, 0x36bb77(%rip)</text>
<text text-anchor="middle" x="99.5" y="-305.8" font-family="Times,serif" font-size="14.00">cmpl $0, 0x36be30(%rip)</text>
<text text-anchor="middle" x="99.5" y="-290.8" font-family="Times,serif" font-size="14.00">je 0x4000c788dd</text>
</g>
<!-- 1253&#45;&gt;1254 -->
<g id="edge6" class="edge"><title>1253&#45;&gt;1254</title>
<path fill="none" stroke="black" d="M99.5,-431.992C99.5,-423.722 99.5,-414.998 99.5,-406.354"/>
<polygon fill="black" stroke="black" points="103,-406.276 99.5,-396.276 96.0001,-406.276 103,-406.276"/>
</g>
<!-- 1255 -->
<g id="node8" class="node"><title>1255</title>
<polygon fill="none" stroke="black" points="185.5,-247 13.5,-247 13.5,-164 185.5,-164 185.5,-247"/>
<text text-anchor="middle" x="99.5" y="-231.8" font-family="Times,serif" font-size="14.00">0x4000c788dd</text>
<text text-anchor="middle" x="99.5" y="-216.8" font-family="Times,serif" font-size="14.00">_______________________</text>
<text text-anchor="middle" x="99.5" y="-201.8" font-family="Times,serif" font-size="14.00">_______________________</text>
<text text-anchor="middle" x="99.5" y="-186.8" font-family="Times,serif" font-size="14.00">decl 0x36874d(%rip)</text>
<text text-anchor="middle" x="99.5" y="-171.8" font-family="Times,serif" font-size="14.00">je 0x4000c788ff</text>
</g>
<!-- 1254&#45;&gt;1255 -->
<g id="edge7" class="edge"><title>1254&#45;&gt;1255</title>
<path fill="none" stroke="black" d="M99.5,-282.903C99.5,-274.387 99.5,-265.635 99.5,-257.231"/>
<polygon fill="black" stroke="black" points="103,-257.194 99.5,-247.194 96.0001,-257.194 103,-257.194"/>
</g>
<!-- 1256 -->
<g id="node9" class="node"><title>1256</title>
<polygon fill="none" stroke="black" points="185.5,-128 13.5,-128 13.5,-0 185.5,-0 185.5,-128"/>
<text text-anchor="middle" x="99.5" y="-112.8" font-family="Times,serif" font-size="14.00">0x4000c788ff</text>
<text text-anchor="middle" x="99.5" y="-97.8" font-family="Times,serif" font-size="14.00">_______________________</text>
<text text-anchor="middle" x="99.5" y="-82.8" font-family="Times,serif" font-size="14.00">_______________________</text>
<text text-anchor="middle" x="99.5" y="-67.8" font-family="Times,serif" font-size="14.00">addq $8, %rsp</text>
<text text-anchor="middle" x="99.5" y="-52.8" font-family="Times,serif" font-size="14.00">movq %rsi, %rax</text>
<text text-anchor="middle" x="99.5" y="-37.8" font-family="Times,serif" font-size="14.00">popq %rbx</text>
<text text-anchor="middle" x="99.5" y="-22.8" font-family="Times,serif" font-size="14.00">popq %rbp</text>
<text text-anchor="middle" x="99.5" y="-7.8" font-family="Times,serif" font-size="14.00">retq </text>
</g>
<!-- 1255&#45;&gt;1256 -->
<g id="edge8" class="edge"><title>1255&#45;&gt;1256</title>
<path fill="none" stroke="black" d="M99.5,-163.776C99.5,-155.741 99.5,-147.081 99.5,-138.346"/>
<polygon fill="black" stroke="black" points="103,-138.09 99.5,-128.09 96.0001,-138.09 103,-138.09"/>
</g>
</g>
</svg>
