<?xml version="1.0" encoding="UTF-8" standalone="no"?>
<!DOCTYPE svg PUBLIC "-//W3C//DTD SVG 1.1//EN"
 "http://www.w3.org/Graphics/SVG/1.1/DTD/svg11.dtd">
<!-- Generated by graphviz version 2.38.0 (20140413.2041)
 -->
<!-- Title: %3 Pages: 1 -->
<svg width="186pt" height="763pt"
 viewBox="0.00 0.00 186.00 763.00" xmlns="http://www.w3.org/2000/svg" xmlns:xlink="http://www.w3.org/1999/xlink">
<g id="graph0" class="graph" transform="scale(1 1) rotate(0) translate(4 759)">
<title>%3</title>
<polygon fill="white" stroke="none" points="-4,4 -4,-759 182,-759 182,4 -4,4"/>
<!-- 1305 -->
<g id="node1" class="node"><title>1305</title>
<polygon fill="none" stroke="black" points="175,-755 3,-755 3,-582 175,-582 175,-755"/>
<text text-anchor="middle" x="89" y="-739.8" font-family="Times,serif" font-size="14.00">0x4000c92e60</text>
<text text-anchor="middle" x="89" y="-724.8" font-family="Times,serif" font-size="14.00">_______________________</text>
<text text-anchor="middle" x="89" y="-709.8" font-family="Times,serif" font-size="14.00">_______________________</text>
<text text-anchor="middle" x="89" y="-694.8" font-family="Times,serif" font-size="14.00">subq $0xd8, %rsp</text>
<text text-anchor="middle" x="89" y="-679.8" font-family="Times,serif" font-size="14.00">testb %al, %al</text>
<text text-anchor="middle" x="89" y="-664.8" font-family="Times,serif" font-size="14.00">movq %rsi, 0x28(%rsp)</text>
<text text-anchor="middle" x="89" y="-649.8" font-family="Times,serif" font-size="14.00">movq %rdx, 0x30(%rsp)</text>
<text text-anchor="middle" x="89" y="-634.8" font-family="Times,serif" font-size="14.00">movq %rcx, 0x38(%rsp)</text>
<text text-anchor="middle" x="89" y="-619.8" font-family="Times,serif" font-size="14.00">movq %r8, 0x40(%rsp)</text>
<text text-anchor="middle" x="89" y="-604.8" font-family="Times,serif" font-size="14.00">movq %r9, 0x48(%rsp)</text>
<text text-anchor="middle" x="89" y="-589.8" font-family="Times,serif" font-size="14.00">je 0x4000c92ebb</text>
</g>
<!-- 1306 -->
<g id="node2" class="node"><title>1306</title>
<polygon fill="none" stroke="black" points="178,-546 0,-546 0,-253 178,-253 178,-546"/>
<text text-anchor="middle" x="89" y="-530.8" font-family="Times,serif" font-size="14.00">0x4000c92ebb</text>
<text text-anchor="middle" x="89" y="-515.8" font-family="Times,serif" font-size="14.00">_______________________</text>
<text text-anchor="middle" x="89" y="-500.8" font-family="Times,serif" font-size="14.00">_______________________</text>
<text text-anchor="middle" x="89" y="-485.8" font-family="Times,serif" font-size="14.00">movq %fs:0x28, %rax</text>
<text text-anchor="middle" x="89" y="-470.8" font-family="Times,serif" font-size="14.00">movq %rax, 0x18(%rsp)</text>
<text text-anchor="middle" x="89" y="-455.8" font-family="Times,serif" font-size="14.00">xorl %eax, %eax</text>
<text text-anchor="middle" x="89" y="-440.8" font-family="Times,serif" font-size="14.00">leaq 0xe0(%rsp), %rax</text>
<text text-anchor="middle" x="89" y="-425.8" font-family="Times,serif" font-size="14.00">movq %rdi, %rsi</text>
<text text-anchor="middle" x="89" y="-410.8" font-family="Times,serif" font-size="14.00">movq %rsp, %rdx</text>
<text text-anchor="middle" x="89" y="-395.8" font-family="Times,serif" font-size="14.00">movq %rax, 8(%rsp)</text>
<text text-anchor="middle" x="89" y="-380.8" font-family="Times,serif" font-size="14.00">leaq 0x20(%rsp), %rax</text>
<text text-anchor="middle" x="89" y="-365.8" font-family="Times,serif" font-size="14.00">movl $8, (%rsp)</text>
<text text-anchor="middle" x="89" y="-350.8" font-family="Times,serif" font-size="14.00">movl $0x30, 4(%rsp)</text>
<text text-anchor="middle" x="89" y="-335.8" font-family="Times,serif" font-size="14.00">movq %rax, 0x10(%rsp)</text>
<text text-anchor="middle" x="89" y="-320.8" font-family="Times,serif" font-size="14.00">movq 0x34c052(%rip), %rax</text>
<text text-anchor="middle" x="89" y="-305.8" font-family="Times,serif" font-size="14.00">movq (%rax), %rdi</text>
<text text-anchor="middle" x="89" y="-290.8" font-family="Times,serif" font-size="14.00">callq 0x4000c8a870</text>
<text text-anchor="middle" x="89" y="-275.8" font-family="Times,serif" font-size="14.00">_______________________</text>
<text text-anchor="middle" x="89" y="-260.8" font-family="Times,serif" font-size="14.00">CALL _IO_vfprintf</text>
</g>
<!-- 1305&#45;&gt;1306 -->
<g id="edge1" class="edge"><title>1305&#45;&gt;1306</title>
<path fill="none" stroke="black" d="M89,-581.918C89,-573.695 89,-565.193 89,-556.562"/>
<polygon fill="black" stroke="black" points="92.5001,-556.378 89,-546.378 85.5001,-556.378 92.5001,-556.378"/>
</g>
<!-- 1639 -->
<g id="node3" class="node"><title>1639</title>
<polygon fill="none" stroke="black" points="175,-217 3,-217 3,-119 175,-119 175,-217"/>
<text text-anchor="middle" x="89" y="-201.8" font-family="Times,serif" font-size="14.00">0x4000c92f06</text>
<text text-anchor="middle" x="89" y="-186.8" font-family="Times,serif" font-size="14.00">_______________________</text>
<text text-anchor="middle" x="89" y="-171.8" font-family="Times,serif" font-size="14.00">_______________________</text>
<text text-anchor="middle" x="89" y="-156.8" font-family="Times,serif" font-size="14.00">movq 0x18(%rsp), %rcx</text>
<text text-anchor="middle" x="89" y="-141.8" font-family="Times,serif" font-size="14.00">xorq %fs:0x28, %rcx</text>
<text text-anchor="middle" x="89" y="-126.8" font-family="Times,serif" font-size="14.00">jne 0x4000c92f1e</text>
</g>
<!-- 1306&#45;&gt;1639 -->
<g id="edge2" class="edge"><title>1306&#45;&gt;1639</title>
<path fill="none" stroke="black" d="M89,-252.829C89,-244.073 89,-235.577 89,-227.566"/>
<polygon fill="black" stroke="black" points="92.5001,-227.333 89,-217.333 85.5001,-227.333 92.5001,-227.333"/>
</g>
<!-- 1640 -->
<g id="node4" class="node"><title>1640</title>
<polygon fill="none" stroke="black" points="175,-83 3,-83 3,-0 175,-0 175,-83"/>
<text text-anchor="middle" x="89" y="-67.8" font-family="Times,serif" font-size="14.00">0x4000c92f16</text>
<text text-anchor="middle" x="89" y="-52.8" font-family="Times,serif" font-size="14.00">_______________________</text>
<text text-anchor="middle" x="89" y="-37.8" font-family="Times,serif" font-size="14.00">_______________________</text>
<text text-anchor="middle" x="89" y="-22.8" font-family="Times,serif" font-size="14.00">addq $0xd8, %rsp</text>
<text text-anchor="middle" x="89" y="-7.8" font-family="Times,serif" font-size="14.00">retq </text>
</g>
<!-- 1639&#45;&gt;1640 -->
<g id="edge3" class="edge"><title>1639&#45;&gt;1640</title>
<path fill="none" stroke="black" d="M89,-118.865C89,-110.498 89,-101.771 89,-93.3346"/>
<polygon fill="black" stroke="black" points="92.5001,-93.2309 89,-83.231 85.5001,-93.231 92.5001,-93.2309"/>
</g>
</g>
</svg>
