<?xml version="1.0" encoding="UTF-8" standalone="no"?>
<!DOCTYPE svg PUBLIC "-//W3C//DTD SVG 1.1//EN"
 "http://www.w3.org/Graphics/SVG/1.1/DTD/svg11.dtd">
<!-- Generated by graphviz version 2.38.0 (20140413.2041)
 -->
<!-- Title: %3 Pages: 1 -->
<svg width="180pt" height="463pt"
 viewBox="0.00 0.00 180.00 463.00" xmlns="http://www.w3.org/2000/svg" xmlns:xlink="http://www.w3.org/1999/xlink">
<g id="graph0" class="graph" transform="scale(1 1) rotate(0) translate(4 459)">
<title>%3</title>
<polygon fill="white" stroke="none" points="-4,4 -4,-459 176,-459 176,4 -4,4"/>
<!-- 430 -->
<g id="node1" class="node"><title>430</title>
<polygon fill="none" stroke="black" points="172,-455 0,-455 0,-372 172,-372 172,-455"/>
<text text-anchor="middle" x="86" y="-439.8" font-family="Times,serif" font-size="14.00">0x4000a1c1a0</text>
<text text-anchor="middle" x="86" y="-424.8" font-family="Times,serif" font-size="14.00">_______________________</text>
<text text-anchor="middle" x="86" y="-409.8" font-family="Times,serif" font-size="14.00">_______________________</text>
<text text-anchor="middle" x="86" y="-394.8" font-family="Times,serif" font-size="14.00">cmpl $1, %edi</text>
<text text-anchor="middle" x="86" y="-379.8" font-family="Times,serif" font-size="14.00">ja 0x4000a1c1d0</text>
</g>
<!-- 431 -->
<g id="node2" class="node"><title>431</title>
<polygon fill="none" stroke="black" points="172,-336 0,-336 0,-223 172,-223 172,-336"/>
<text text-anchor="middle" x="86" y="-320.8" font-family="Times,serif" font-size="14.00">0x4000a1c1a5</text>
<text text-anchor="middle" x="86" y="-305.8" font-family="Times,serif" font-size="14.00">_______________________</text>
<text text-anchor="middle" x="86" y="-290.8" font-family="Times,serif" font-size="14.00">_______________________</text>
<text text-anchor="middle" x="86" y="-275.8" font-family="Times,serif" font-size="14.00">movslq %esi, %rdi</text>
<text text-anchor="middle" x="86" y="-260.8" font-family="Times,serif" font-size="14.00">movl $5, %eax</text>
<text text-anchor="middle" x="86" y="-245.8" font-family="Times,serif" font-size="14.00">movq %rdx, %rsi</text>
<text text-anchor="middle" x="86" y="-230.8" font-family="Times,serif" font-size="14.00">syscall </text>
</g>
<!-- 430&#45;&gt;431 -->
<g id="edge1" class="edge"><title>430&#45;&gt;431</title>
<path fill="none" stroke="black" d="M86,-371.819C86,-363.761 86,-355.109 86,-346.458"/>
<polygon fill="black" stroke="black" points="89.5001,-346.339 86,-336.339 82.5001,-346.339 89.5001,-346.339"/>
</g>
<!-- 432 -->
<g id="node3" class="node"><title>432</title>
<polygon fill="none" stroke="black" points="172,-187 0,-187 0,-104 172,-104 172,-187"/>
<text text-anchor="middle" x="86" y="-171.8" font-family="Times,serif" font-size="14.00">0x4000a1c1b2</text>
<text text-anchor="middle" x="86" y="-156.8" font-family="Times,serif" font-size="14.00">_______________________</text>
<text text-anchor="middle" x="86" y="-141.8" font-family="Times,serif" font-size="14.00">_______________________</text>
<text text-anchor="middle" x="86" y="-126.8" font-family="Times,serif" font-size="14.00">cmpq $&#45;0x1000, %rax</text>
<text text-anchor="middle" x="86" y="-111.8" font-family="Times,serif" font-size="14.00">ja 0x4000a1c1c0</text>
</g>
<!-- 431&#45;&gt;432 -->
<g id="edge2" class="edge"><title>431&#45;&gt;432</title>
<path fill="none" stroke="black" d="M86,-222.903C86,-214.387 86,-205.635 86,-197.231"/>
<polygon fill="black" stroke="black" points="89.5001,-197.194 86,-187.194 82.5001,-197.194 89.5001,-197.194"/>
</g>
<!-- 433 -->
<g id="node4" class="node"><title>433</title>
<polygon fill="none" stroke="black" points="172,-68 0,-68 0,-0 172,-0 172,-68"/>
<text text-anchor="middle" x="86" y="-52.8" font-family="Times,serif" font-size="14.00">0x4000a1c1ba</text>
<text text-anchor="middle" x="86" y="-37.8" font-family="Times,serif" font-size="14.00">_______________________</text>
<text text-anchor="middle" x="86" y="-22.8" font-family="Times,serif" font-size="14.00">_______________________</text>
<text text-anchor="middle" x="86" y="-7.8" font-family="Times,serif" font-size="14.00">retq </text>
</g>
<!-- 432&#45;&gt;433 -->
<g id="edge3" class="edge"><title>432&#45;&gt;433</title>
<path fill="none" stroke="black" d="M86,-103.726C86,-95.5175 86,-86.8595 86,-78.56"/>
<polygon fill="black" stroke="black" points="89.5001,-78.2996 86,-68.2996 82.5001,-78.2996 89.5001,-78.2996"/>
</g>
</g>
</svg>
