<?xml version="1.0" encoding="UTF-8" standalone="no"?>
<!DOCTYPE svg PUBLIC "-//W3C//DTD SVG 1.1//EN"
 "http://www.w3.org/Graphics/SVG/1.1/DTD/svg11.dtd">
<!-- Generated by graphviz version 2.38.0 (20140413.2041)
 -->
<!-- Title: %3 Pages: 1 -->
<svg width="560pt" height="1091pt"
 viewBox="0.00 0.00 560.00 1091.00" xmlns="http://www.w3.org/2000/svg" xmlns:xlink="http://www.w3.org/1999/xlink">
<g id="graph0" class="graph" transform="scale(1 1) rotate(0) translate(4 1087)">
<title>%3</title>
<polygon fill="white" stroke="none" points="-4,4 -4,-1087 556,-1087 556,4 -4,4"/>
<!-- 159 -->
<g id="node1" class="node"><title>159</title>
<polygon fill="none" stroke="black" points="267,-1083 95,-1083 95,-895 267,-895 267,-1083"/>
<text text-anchor="middle" x="181" y="-1067.8" font-family="Times,serif" font-size="14.00">0x4000a0e0a0</text>
<text text-anchor="middle" x="181" y="-1052.8" font-family="Times,serif" font-size="14.00">_______________________</text>
<text text-anchor="middle" x="181" y="-1037.8" font-family="Times,serif" font-size="14.00">_______________________</text>
<text text-anchor="middle" x="181" y="-1022.8" font-family="Times,serif" font-size="14.00">pushq %r12</text>
<text text-anchor="middle" x="181" y="-1007.8" font-family="Times,serif" font-size="14.00">pushq %rbp</text>
<text text-anchor="middle" x="181" y="-992.8" font-family="Times,serif" font-size="14.00">movq %rdi, %r12</text>
<text text-anchor="middle" x="181" y="-977.8" font-family="Times,serif" font-size="14.00">pushq %rbx</text>
<text text-anchor="middle" x="181" y="-962.8" font-family="Times,serif" font-size="14.00">movq %rsi, %rbx</text>
<text text-anchor="middle" x="181" y="-947.8" font-family="Times,serif" font-size="14.00">leaq 0x2188bf(%rip), %rdi</text>
<text text-anchor="middle" x="181" y="-932.8" font-family="Times,serif" font-size="14.00">callq *0x218e89(%rip)</text>
<text text-anchor="middle" x="181" y="-917.8" font-family="Times,serif" font-size="14.00">_______________________</text>
<text text-anchor="middle" x="181" y="-902.8" font-family="Times,serif" font-size="14.00">CALL 0x4000a03c70</text>
</g>
<!-- 161 -->
<g id="node2" class="node"><title>161</title>
<polygon fill="none" stroke="black" points="267,-859 95,-859 95,-701 267,-701 267,-859"/>
<text text-anchor="middle" x="181" y="-843.8" font-family="Times,serif" font-size="14.00">0x4000a0e0b7</text>
<text text-anchor="middle" x="181" y="-828.8" font-family="Times,serif" font-size="14.00">_______________________</text>
<text text-anchor="middle" x="181" y="-813.8" font-family="Times,serif" font-size="14.00">_______________________</text>
<text text-anchor="middle" x="181" y="-798.8" font-family="Times,serif" font-size="14.00">leaq (%rbx, %rbx, 8), %rax</text>
<text text-anchor="middle" x="181" y="-783.8" font-family="Times,serif" font-size="14.00">leaq 0x217f7e(%rip), %rbp</text>
<text text-anchor="middle" x="181" y="-768.8" font-family="Times,serif" font-size="14.00">shlq $4, %rax</text>
<text text-anchor="middle" x="181" y="-753.8" font-family="Times,serif" font-size="14.00">addq %rbp, %rax</text>
<text text-anchor="middle" x="181" y="-738.8" font-family="Times,serif" font-size="14.00">movq (%rax), %rdx</text>
<text text-anchor="middle" x="181" y="-723.8" font-family="Times,serif" font-size="14.00">testq %rdx, %rdx</text>
<text text-anchor="middle" x="181" y="-708.8" font-family="Times,serif" font-size="14.00">jne 0x4000a0e0db</text>
</g>
<!-- 159&#45;&gt;161 -->
<g id="edge1" class="edge"><title>159&#45;&gt;161</title>
<path fill="none" stroke="black" d="M181,-894.794C181,-886.326 181,-877.765 181,-869.341"/>
<polygon fill="black" stroke="black" points="184.5,-869.148 181,-859.148 177.5,-869.148 184.5,-869.148"/>
</g>
<!-- 162 -->
<g id="node3" class="node"><title>162</title>
<polygon fill="none" stroke="black" points="172,-650 0,-650 0,-582 172,-582 172,-650"/>
<text text-anchor="middle" x="86" y="-634.8" font-family="Times,serif" font-size="14.00">0x4000a0e0d1</text>
<text text-anchor="middle" x="86" y="-619.8" font-family="Times,serif" font-size="14.00">_______________________</text>
<text text-anchor="middle" x="86" y="-604.8" font-family="Times,serif" font-size="14.00">_______________________</text>
<text text-anchor="middle" x="86" y="-589.8" font-family="Times,serif" font-size="14.00">jmp 0x4000a0e128</text>
</g>
<!-- 161&#45;&gt;162 -->
<g id="edge2" class="edge"><title>161&#45;&gt;162</title>
<path fill="none" stroke="black" d="M135.17,-700.847C126.77,-686.523 118.3,-672.081 110.814,-659.314"/>
<polygon fill="black" stroke="black" points="113.629,-657.195 105.551,-650.339 107.59,-660.736 113.629,-657.195"/>
</g>
<!-- 718 -->
<g id="node4" class="node"><title>718</title>
<polygon fill="none" stroke="black" points="362,-665 190,-665 190,-567 362,-567 362,-665"/>
<text text-anchor="middle" x="276" y="-649.8" font-family="Times,serif" font-size="14.00">0x4000a0e0db</text>
<text text-anchor="middle" x="276" y="-634.8" font-family="Times,serif" font-size="14.00">_______________________</text>
<text text-anchor="middle" x="276" y="-619.8" font-family="Times,serif" font-size="14.00">_______________________</text>
<text text-anchor="middle" x="276" y="-604.8" font-family="Times,serif" font-size="14.00">movq 0x18(%rdx), %rax</text>
<text text-anchor="middle" x="276" y="-589.8" font-family="Times,serif" font-size="14.00">testq %rax, %rax</text>
<text text-anchor="middle" x="276" y="-574.8" font-family="Times,serif" font-size="14.00">jne 0x4000a0e0d8</text>
</g>
<!-- 161&#45;&gt;718 -->
<g id="edge3" class="edge"><title>161&#45;&gt;718</title>
<path fill="none" stroke="black" d="M226.83,-700.847C232.113,-691.839 237.423,-682.785 242.498,-674.129"/>
<polygon fill="black" stroke="black" points="245.652,-675.67 247.692,-665.273 239.614,-672.129 245.652,-675.67"/>
</g>
<!-- 163 -->
<g id="node5" class="node"><title>163</title>
<polygon fill="none" stroke="black" points="172,-523.5 0,-523.5 0,-440.5 172,-440.5 172,-523.5"/>
<text text-anchor="middle" x="86" y="-508.3" font-family="Times,serif" font-size="14.00">0x4000a0e128</text>
<text text-anchor="middle" x="86" y="-493.3" font-family="Times,serif" font-size="14.00">_______________________</text>
<text text-anchor="middle" x="86" y="-478.3" font-family="Times,serif" font-size="14.00">_______________________</text>
<text text-anchor="middle" x="86" y="-463.3" font-family="Times,serif" font-size="14.00">movq %r12, (%rax)</text>
<text text-anchor="middle" x="86" y="-448.3" font-family="Times,serif" font-size="14.00">jmp 0x4000a0e0ed</text>
</g>
<!-- 162&#45;&gt;163 -->
<g id="edge4" class="edge"><title>162&#45;&gt;163</title>
<path fill="none" stroke="black" d="M86,-581.691C86,-567.281 86,-550.09 86,-534.124"/>
<polygon fill="black" stroke="black" points="89.5001,-533.85 86,-523.85 82.5001,-533.85 89.5001,-533.85"/>
</g>
<!-- 719 -->
<g id="node8" class="node"><title>719</title>
<polygon fill="none" stroke="black" points="362,-531 190,-531 190,-433 362,-433 362,-531"/>
<text text-anchor="middle" x="276" y="-515.8" font-family="Times,serif" font-size="14.00">0x4000a0e0d8</text>
<text text-anchor="middle" x="276" y="-500.8" font-family="Times,serif" font-size="14.00">_______________________</text>
<text text-anchor="middle" x="276" y="-485.8" font-family="Times,serif" font-size="14.00">_______________________</text>
<text text-anchor="middle" x="276" y="-470.8" font-family="Times,serif" font-size="14.00">movq %rax, %rdx</text>
<text text-anchor="middle" x="276" y="-455.8" font-family="Times,serif" font-size="14.00">_______________________</text>
<text text-anchor="middle" x="276" y="-440.8" font-family="Times,serif" font-size="14.00">LOOP 0x4000a0e0db</text>
</g>
<!-- 718&#45;&gt;719 -->
<g id="edge7" class="edge"><title>718&#45;&gt;719</title>
<path fill="none" stroke="black" d="M269.478,-566.972C269.263,-558.691 269.2,-550.003 269.289,-541.483"/>
<polygon fill="black" stroke="black" points="272.793,-541.275 269.473,-531.214 265.794,-541.15 272.793,-541.275"/>
</g>
<!-- 720 -->
<g id="node9" class="node"><title>720</title>
<polygon fill="none" stroke="black" points="552,-523.5 380,-523.5 380,-440.5 552,-440.5 552,-523.5"/>
<text text-anchor="middle" x="466" y="-508.3" font-family="Times,serif" font-size="14.00">0x4000a0e0e4</text>
<text text-anchor="middle" x="466" y="-493.3" font-family="Times,serif" font-size="14.00">_______________________</text>
<text text-anchor="middle" x="466" y="-478.3" font-family="Times,serif" font-size="14.00">_______________________</text>
<text text-anchor="middle" x="466" y="-463.3" font-family="Times,serif" font-size="14.00">movq %rdx, 0x20(%r12)</text>
<text text-anchor="middle" x="466" y="-448.3" font-family="Times,serif" font-size="14.00">movq %r12, 0x18(%rdx)</text>
</g>
<!-- 718&#45;&gt;720 -->
<g id="edge8" class="edge"><title>718&#45;&gt;720</title>
<path fill="none" stroke="black" d="M345.132,-566.972C362.73,-554.745 381.611,-541.628 399.096,-529.481"/>
<polygon fill="black" stroke="black" points="401.34,-532.183 407.556,-523.603 397.346,-526.435 401.34,-532.183"/>
</g>
<!-- 164 -->
<g id="node6" class="node"><title>164</title>
<polygon fill="none" stroke="black" points="365.5,-397 186.5,-397 186.5,-164 365.5,-164 365.5,-397"/>
<text text-anchor="middle" x="276" y="-381.8" font-family="Times,serif" font-size="14.00">0x4000a0e0ed</text>
<text text-anchor="middle" x="276" y="-366.8" font-family="Times,serif" font-size="14.00">_______________________</text>
<text text-anchor="middle" x="276" y="-351.8" font-family="Times,serif" font-size="14.00">_______________________</text>
<text text-anchor="middle" x="276" y="-336.8" font-family="Times,serif" font-size="14.00">leaq (%rbx, %rbx, 8), %rax</text>
<text text-anchor="middle" x="276" y="-321.8" font-family="Times,serif" font-size="14.00">leaq 0x218878(%rip), %rdi</text>
<text text-anchor="middle" x="276" y="-306.8" font-family="Times,serif" font-size="14.00">shlq $4, %rax</text>
<text text-anchor="middle" x="276" y="-291.8" font-family="Times,serif" font-size="14.00">addl $1, 8(%rbp, %rax)</text>
<text text-anchor="middle" x="276" y="-276.8" font-family="Times,serif" font-size="14.00">movq 0x218890(%rip), %rax</text>
<text text-anchor="middle" x="276" y="-261.8" font-family="Times,serif" font-size="14.00">popq %rbx</text>
<text text-anchor="middle" x="276" y="-246.8" font-family="Times,serif" font-size="14.00">popq %rbp</text>
<text text-anchor="middle" x="276" y="-231.8" font-family="Times,serif" font-size="14.00">movq %rax, 0x468(%r12)</text>
<text text-anchor="middle" x="276" y="-216.8" font-family="Times,serif" font-size="14.00">addq $1, %rax</text>
<text text-anchor="middle" x="276" y="-201.8" font-family="Times,serif" font-size="14.00">popq %r12</text>
<text text-anchor="middle" x="276" y="-186.8" font-family="Times,serif" font-size="14.00">movq %rax, 0x218879(%rip)</text>
<text text-anchor="middle" x="276" y="-171.8" font-family="Times,serif" font-size="14.00">jmpq *0x218e23(%rip)</text>
</g>
<!-- 163&#45;&gt;164 -->
<g id="edge5" class="edge"><title>163&#45;&gt;164</title>
<path fill="none" stroke="black" d="M124.908,-440.147C140.766,-423.496 159.872,-403.434 179.083,-383.263"/>
<polygon fill="black" stroke="black" points="181.798,-385.488 186.16,-375.832 176.729,-380.66 181.798,-385.488"/>
</g>
<!-- 165 -->
<g id="node7" class="node"><title>165</title>
<polygon fill="none" stroke="black" points="377.5,-128 174.5,-128 174.5,-0 377.5,-0 377.5,-128"/>
<text text-anchor="middle" x="276" y="-112.8" font-family="Times,serif" font-size="14.00">0x4000a03c80</text>
<text text-anchor="middle" x="276" y="-97.8" font-family="Times,serif" font-size="14.00">_______________________</text>
<text text-anchor="middle" x="276" y="-82.8" font-family="Times,serif" font-size="14.00">_______________________</text>
<text text-anchor="middle" x="276" y="-67.8" font-family="Times,serif" font-size="14.00">subl $1, 4(%rdi)</text>
<text text-anchor="middle" x="276" y="-52.8" font-family="Times,serif" font-size="14.00">retq </text>
<text text-anchor="middle" x="276" y="-37.8" font-family="Times,serif" font-size="14.00">_______________________</text>
<text text-anchor="middle" x="276" y="-22.8" font-family="Times,serif" font-size="14.00">SHARED BLOCK 0x4000a0e0a0</text>
<text text-anchor="middle" x="276" y="-7.8" font-family="Times,serif" font-size="14.00">SHARED BLOCK 0x4000a03c80</text>
</g>
<!-- 164&#45;&gt;165 -->
<g id="edge6" class="edge"><title>164&#45;&gt;165</title>
<path fill="none" stroke="black" d="M276,-163.774C276,-155.052 276,-146.406 276,-138.067"/>
<polygon fill="black" stroke="black" points="279.5,-138.064 276,-128.064 272.5,-138.064 279.5,-138.064"/>
</g>
<!-- 719&#45;&gt;718 -->
<g id="edge9" class="edge"><title>719&#45;&gt;718</title>
<path fill="none" stroke="black" d="M282.527,-531.214C282.74,-539.5 282.8,-548.191 282.709,-556.708"/>
<polygon fill="black" stroke="black" points="279.205,-556.91 282.522,-566.972 286.204,-557.037 279.205,-556.91"/>
</g>
<!-- 720&#45;&gt;164 -->
<g id="edge10" class="edge"><title>720&#45;&gt;164</title>
<path fill="none" stroke="black" d="M427.092,-440.147C411.234,-423.496 392.128,-403.434 372.917,-383.263"/>
<polygon fill="black" stroke="black" points="375.271,-380.66 365.84,-375.832 370.202,-385.488 375.271,-380.66"/>
</g>
</g>
</svg>
