<?xml version="1.0" encoding="UTF-8" standalone="no"?>
<!DOCTYPE svg PUBLIC "-//W3C//DTD SVG 1.1//EN"
 "http://www.w3.org/Graphics/SVG/1.1/DTD/svg11.dtd">
<!-- Generated by graphviz version 2.38.0 (20140413.2041)
 -->
<!-- Title: %3 Pages: 1 -->
<svg width="187pt" height="658pt"
 viewBox="0.00 0.00 187.00 658.00" xmlns="http://www.w3.org/2000/svg" xmlns:xlink="http://www.w3.org/1999/xlink">
<g id="graph0" class="graph" transform="scale(1 1) rotate(0) translate(4 654)">
<title>%3</title>
<polygon fill="white" stroke="none" points="-4,4 -4,-654 183,-654 183,4 -4,4"/>
<!-- 1117 -->
<g id="node1" class="node"><title>1117</title>
<polygon fill="none" stroke="black" points="179,-650 0,-650 0,-402 179,-402 179,-650"/>
<text text-anchor="middle" x="89.5" y="-634.8" font-family="Times,serif" font-size="14.00">0x4000a0e5f0</text>
<text text-anchor="middle" x="89.5" y="-619.8" font-family="Times,serif" font-size="14.00">_______________________</text>
<text text-anchor="middle" x="89.5" y="-604.8" font-family="Times,serif" font-size="14.00">_______________________</text>
<text text-anchor="middle" x="89.5" y="-589.8" font-family="Times,serif" font-size="14.00">pushq %rbx</text>
<text text-anchor="middle" x="89.5" y="-574.8" font-family="Times,serif" font-size="14.00">movq 0x458(%rdi), %rax</text>
<text text-anchor="middle" x="89.5" y="-559.8" font-family="Times,serif" font-size="14.00">movq %rdi, %rbx</text>
<text text-anchor="middle" x="89.5" y="-544.8" font-family="Times,serif" font-size="14.00">addq (%rdi), %rax</text>
<text text-anchor="middle" x="89.5" y="-529.8" font-family="Times,serif" font-size="14.00">movq 0x2176b3(%rip), %rcx</text>
<text text-anchor="middle" x="89.5" y="-514.8" font-family="Times,serif" font-size="14.00">negq %rcx</text>
<text text-anchor="middle" x="89.5" y="-499.8" font-family="Times,serif" font-size="14.00">movq %rax, %rdi</text>
<text text-anchor="middle" x="89.5" y="-484.8" font-family="Times,serif" font-size="14.00">addq 0x460(%rbx), %rax</text>
<text text-anchor="middle" x="89.5" y="-469.8" font-family="Times,serif" font-size="14.00">andq %rcx, %rdi</text>
<text text-anchor="middle" x="89.5" y="-454.8" font-family="Times,serif" font-size="14.00">movq %rax, %rsi</text>
<text text-anchor="middle" x="89.5" y="-439.8" font-family="Times,serif" font-size="14.00">andq %rcx, %rsi</text>
<text text-anchor="middle" x="89.5" y="-424.8" font-family="Times,serif" font-size="14.00">cmpq %rsi, %rdi</text>
<text text-anchor="middle" x="89.5" y="-409.8" font-family="Times,serif" font-size="14.00">je 0x4000a0e631</text>
</g>
<!-- 1118 -->
<g id="node2" class="node"><title>1118</title>
<polygon fill="none" stroke="black" points="175.5,-366 3.5,-366 3.5,-238 175.5,-238 175.5,-366"/>
<text text-anchor="middle" x="89.5" y="-350.8" font-family="Times,serif" font-size="14.00">0x4000a0e620</text>
<text text-anchor="middle" x="89.5" y="-335.8" font-family="Times,serif" font-size="14.00">_______________________</text>
<text text-anchor="middle" x="89.5" y="-320.8" font-family="Times,serif" font-size="14.00">_______________________</text>
<text text-anchor="middle" x="89.5" y="-305.8" font-family="Times,serif" font-size="14.00">subq %rdi, %rsi</text>
<text text-anchor="middle" x="89.5" y="-290.8" font-family="Times,serif" font-size="14.00">movl $1, %edx</text>
<text text-anchor="middle" x="89.5" y="-275.8" font-family="Times,serif" font-size="14.00">callq 0x4000a1c470</text>
<text text-anchor="middle" x="89.5" y="-260.8" font-family="Times,serif" font-size="14.00">_______________________</text>
<text text-anchor="middle" x="89.5" y="-245.8" font-family="Times,serif" font-size="14.00">CALL 0x4000a1c470</text>
</g>
<!-- 1117&#45;&gt;1118 -->
<g id="edge1" class="edge"><title>1117&#45;&gt;1118</title>
<path fill="none" stroke="black" d="M89.5,-401.989C89.5,-393.17 89.5,-384.453 89.5,-376.065"/>
<polygon fill="black" stroke="black" points="93.0001,-376.011 89.5,-366.011 86.0001,-376.011 93.0001,-376.011"/>
</g>
<!-- 1119 -->
<g id="node3" class="node"><title>1119</title>
<polygon fill="none" stroke="black" points="175.5,-202 3.5,-202 3.5,-119 175.5,-119 175.5,-202"/>
<text text-anchor="middle" x="89.5" y="-186.8" font-family="Times,serif" font-size="14.00">0x4000a0e62d</text>
<text text-anchor="middle" x="89.5" y="-171.8" font-family="Times,serif" font-size="14.00">_______________________</text>
<text text-anchor="middle" x="89.5" y="-156.8" font-family="Times,serif" font-size="14.00">_______________________</text>
<text text-anchor="middle" x="89.5" y="-141.8" font-family="Times,serif" font-size="14.00">testl %eax, %eax</text>
<text text-anchor="middle" x="89.5" y="-126.8" font-family="Times,serif" font-size="14.00">js 0x4000a0e633</text>
</g>
<!-- 1118&#45;&gt;1119 -->
<g id="edge2" class="edge"><title>1118&#45;&gt;1119</title>
<path fill="none" stroke="black" d="M89.5,-237.781C89.5,-229.265 89.5,-220.618 89.5,-212.355"/>
<polygon fill="black" stroke="black" points="93.0001,-212.13 89.5,-202.13 86.0001,-212.13 93.0001,-212.13"/>
</g>
<!-- 1120 -->
<g id="node4" class="node"><title>1120</title>
<polygon fill="none" stroke="black" points="175.5,-83 3.5,-83 3.5,-0 175.5,-0 175.5,-83"/>
<text text-anchor="middle" x="89.5" y="-67.8" font-family="Times,serif" font-size="14.00">0x4000a0e631</text>
<text text-anchor="middle" x="89.5" y="-52.8" font-family="Times,serif" font-size="14.00">_______________________</text>
<text text-anchor="middle" x="89.5" y="-37.8" font-family="Times,serif" font-size="14.00">_______________________</text>
<text text-anchor="middle" x="89.5" y="-22.8" font-family="Times,serif" font-size="14.00">popq %rbx</text>
<text text-anchor="middle" x="89.5" y="-7.8" font-family="Times,serif" font-size="14.00">retq </text>
</g>
<!-- 1119&#45;&gt;1120 -->
<g id="edge3" class="edge"><title>1119&#45;&gt;1120</title>
<path fill="none" stroke="black" d="M89.5,-118.907C89.5,-110.649 89.5,-101.864 89.5,-93.3024"/>
<polygon fill="black" stroke="black" points="93.0001,-93.0208 89.5,-83.0208 86.0001,-93.0208 93.0001,-93.0208"/>
</g>
</g>
</svg>
