<?xml version="1.0" encoding="UTF-8" standalone="no"?>
<!DOCTYPE svg PUBLIC "-//W3C//DTD SVG 1.1//EN"
 "http://www.w3.org/Graphics/SVG/1.1/DTD/svg11.dtd">
<!-- Generated by graphviz version 2.38.0 (20140413.2041)
 -->
<!-- Title: %3 Pages: 1 -->
<svg width="186pt" height="493pt"
 viewBox="0.00 0.00 186.00 493.00" xmlns="http://www.w3.org/2000/svg" xmlns:xlink="http://www.w3.org/1999/xlink">
<g id="graph0" class="graph" transform="scale(1 1) rotate(0) translate(4 489)">
<title>%3</title>
<polygon fill="white" stroke="none" points="-4,4 -4,-489 182,-489 182,4 -4,4"/>
<!-- 81 -->
<g id="node1" class="node"><title>81</title>
<polygon fill="none" stroke="black" points="175,-485 3,-485 3,-387 175,-387 175,-485"/>
<text text-anchor="middle" x="89" y="-469.8" font-family="Times,serif" font-size="14.00">0x4000a1b4f0</text>
<text text-anchor="middle" x="89" y="-454.8" font-family="Times,serif" font-size="14.00">_______________________</text>
<text text-anchor="middle" x="89" y="-439.8" font-family="Times,serif" font-size="14.00">_______________________</text>
<text text-anchor="middle" x="89" y="-424.8" font-family="Times,serif" font-size="14.00">movl $0xc, %ecx</text>
<text text-anchor="middle" x="89" y="-409.8" font-family="Times,serif" font-size="14.00">movl %ecx, %eax</text>
<text text-anchor="middle" x="89" y="-394.8" font-family="Times,serif" font-size="14.00">syscall </text>
</g>
<!-- 82 -->
<g id="node2" class="node"><title>82</title>
<polygon fill="none" stroke="black" points="175,-351 3,-351 3,-253 175,-253 175,-351"/>
<text text-anchor="middle" x="89" y="-335.8" font-family="Times,serif" font-size="14.00">0x4000a1b4f9</text>
<text text-anchor="middle" x="89" y="-320.8" font-family="Times,serif" font-size="14.00">_______________________</text>
<text text-anchor="middle" x="89" y="-305.8" font-family="Times,serif" font-size="14.00">_______________________</text>
<text text-anchor="middle" x="89" y="-290.8" font-family="Times,serif" font-size="14.00">cmpq $&#45;0x1000, %rax</text>
<text text-anchor="middle" x="89" y="-275.8" font-family="Times,serif" font-size="14.00">movq %rax, %rdx</text>
<text text-anchor="middle" x="89" y="-260.8" font-family="Times,serif" font-size="14.00">ja 0x4000a1b518</text>
</g>
<!-- 81&#45;&gt;82 -->
<g id="edge1" class="edge"><title>81&#45;&gt;82</title>
<path fill="none" stroke="black" d="M89,-386.972C89,-378.691 89,-370.003 89,-361.483"/>
<polygon fill="black" stroke="black" points="92.5001,-361.214 89,-351.214 85.5001,-361.214 92.5001,-361.214"/>
</g>
<!-- 83 -->
<g id="node3" class="node"><title>83</title>
<polygon fill="none" stroke="black" points="178,-217 0,-217 0,-104 178,-104 178,-217"/>
<text text-anchor="middle" x="89" y="-201.8" font-family="Times,serif" font-size="14.00">0x4000a1b504</text>
<text text-anchor="middle" x="89" y="-186.8" font-family="Times,serif" font-size="14.00">_______________________</text>
<text text-anchor="middle" x="89" y="-171.8" font-family="Times,serif" font-size="14.00">_______________________</text>
<text text-anchor="middle" x="89" y="-156.8" font-family="Times,serif" font-size="14.00">movq %rax, 0x20bbc5(%rip)</text>
<text text-anchor="middle" x="89" y="-141.8" font-family="Times,serif" font-size="14.00">xorl %eax, %eax</text>
<text text-anchor="middle" x="89" y="-126.8" font-family="Times,serif" font-size="14.00">cmpq %rdx, %rdi</text>
<text text-anchor="middle" x="89" y="-111.8" font-family="Times,serif" font-size="14.00">ja 0x4000a1b530</text>
</g>
<!-- 82&#45;&gt;83 -->
<g id="edge2" class="edge"><title>82&#45;&gt;83</title>
<path fill="none" stroke="black" d="M89,-252.992C89,-244.722 89,-235.998 89,-227.354"/>
<polygon fill="black" stroke="black" points="92.5001,-227.276 89,-217.276 85.5001,-227.276 92.5001,-227.276"/>
</g>
<!-- 84 -->
<g id="node4" class="node"><title>84</title>
<polygon fill="none" stroke="black" points="175,-68 3,-68 3,-0 175,-0 175,-68"/>
<text text-anchor="middle" x="89" y="-52.8" font-family="Times,serif" font-size="14.00">0x4000a1b512</text>
<text text-anchor="middle" x="89" y="-37.8" font-family="Times,serif" font-size="14.00">_______________________</text>
<text text-anchor="middle" x="89" y="-22.8" font-family="Times,serif" font-size="14.00">_______________________</text>
<text text-anchor="middle" x="89" y="-7.8" font-family="Times,serif" font-size="14.00">retq </text>
</g>
<!-- 83&#45;&gt;84 -->
<g id="edge3" class="edge"><title>83&#45;&gt;84</title>
<path fill="none" stroke="black" d="M89,-103.805C89,-95.2463 89,-86.5209 89,-78.2851"/>
<polygon fill="black" stroke="black" points="92.5001,-78.1644 89,-68.1644 85.5001,-78.1645 92.5001,-78.1644"/>
</g>
</g>
</svg>
