<?xml version="1.0" encoding="UTF-8" standalone="no"?>
<!DOCTYPE svg PUBLIC "-//W3C//DTD SVG 1.1//EN"
 "http://www.w3.org/Graphics/SVG/1.1/DTD/svg11.dtd">
<!-- Generated by graphviz version 2.38.0 (20140413.2041)
 -->
<!-- Title: %3 Pages: 1 -->
<svg width="408pt" height="1895pt"
 viewBox="0.00 0.00 408.00 1895.00" xmlns="http://www.w3.org/2000/svg" xmlns:xlink="http://www.w3.org/1999/xlink">
<g id="graph0" class="graph" transform="scale(1 1) rotate(0) translate(4 1891)">
<title>%3</title>
<polygon fill="white" stroke="none" points="-4,4 -4,-1891 404,-1891 404,4 -4,4"/>
<!-- 1659 -->
<g id="node1" class="node"><title>1659</title>
<polygon fill="none" stroke="black" points="286,-1887 114,-1887 114,-1684 286,-1684 286,-1887"/>
<text text-anchor="middle" x="200" y="-1871.8" font-family="Times,serif" font-size="14.00">0x4000c78630</text>
<text text-anchor="middle" x="200" y="-1856.8" font-family="Times,serif" font-size="14.00">_______________________</text>
<text text-anchor="middle" x="200" y="-1841.8" font-family="Times,serif" font-size="14.00">_______________________</text>
<text text-anchor="middle" x="200" y="-1826.8" font-family="Times,serif" font-size="14.00">pushq %r13</text>
<text text-anchor="middle" x="200" y="-1811.8" font-family="Times,serif" font-size="14.00">pushq %r12</text>
<text text-anchor="middle" x="200" y="-1796.8" font-family="Times,serif" font-size="14.00">movl %edx, %r12d</text>
<text text-anchor="middle" x="200" y="-1781.8" font-family="Times,serif" font-size="14.00">pushq %rbp</text>
<text text-anchor="middle" x="200" y="-1766.8" font-family="Times,serif" font-size="14.00">pushq %rbx</text>
<text text-anchor="middle" x="200" y="-1751.8" font-family="Times,serif" font-size="14.00">movq %rsi, %rbp</text>
<text text-anchor="middle" x="200" y="-1736.8" font-family="Times,serif" font-size="14.00">movl %edi, %ebx</text>
<text text-anchor="middle" x="200" y="-1721.8" font-family="Times,serif" font-size="14.00">subq $8, %rsp</text>
<text text-anchor="middle" x="200" y="-1706.8" font-family="Times,serif" font-size="14.00">testb %cl, %cl</text>
<text text-anchor="middle" x="200" y="-1691.8" font-family="Times,serif" font-size="14.00">jne 0x4000c78752</text>
</g>
<!-- 1660 -->
<g id="node2" class="node"><title>1660</title>
<polygon fill="none" stroke="black" points="286,-1648 114,-1648 114,-1550 286,-1550 286,-1648"/>
<text text-anchor="middle" x="200" y="-1632.8" font-family="Times,serif" font-size="14.00">0x4000c78752</text>
<text text-anchor="middle" x="200" y="-1617.8" font-family="Times,serif" font-size="14.00">_______________________</text>
<text text-anchor="middle" x="200" y="-1602.8" font-family="Times,serif" font-size="14.00">_______________________</text>
<text text-anchor="middle" x="200" y="-1587.8" font-family="Times,serif" font-size="14.00">callq 0x4000c78c50</text>
<text text-anchor="middle" x="200" y="-1572.8" font-family="Times,serif" font-size="14.00">_______________________</text>
<text text-anchor="middle" x="200" y="-1557.8" font-family="Times,serif" font-size="14.00">CALL __call_tls_dtors</text>
</g>
<!-- 1659&#45;&gt;1660 -->
<g id="edge1" class="edge"><title>1659&#45;&gt;1660</title>
<path fill="none" stroke="black" d="M200,-1683.88C200,-1675.23 200,-1666.67 200,-1658.52"/>
<polygon fill="black" stroke="black" points="203.5,-1658.44 200,-1648.44 196.5,-1658.44 203.5,-1658.44"/>
</g>
<!-- 1663 -->
<g id="node3" class="node"><title>1663</title>
<polygon fill="none" stroke="black" points="286,-1514 114,-1514 114,-1446 286,-1446 286,-1514"/>
<text text-anchor="middle" x="200" y="-1498.8" font-family="Times,serif" font-size="14.00">0x4000c78757</text>
<text text-anchor="middle" x="200" y="-1483.8" font-family="Times,serif" font-size="14.00">_______________________</text>
<text text-anchor="middle" x="200" y="-1468.8" font-family="Times,serif" font-size="14.00">_______________________</text>
<text text-anchor="middle" x="200" y="-1453.8" font-family="Times,serif" font-size="14.00">jmp 0x4000c7864a</text>
</g>
<!-- 1660&#45;&gt;1663 -->
<g id="edge2" class="edge"><title>1660&#45;&gt;1663</title>
<path fill="none" stroke="black" d="M200,-1549.74C200,-1541.33 200,-1532.63 200,-1524.36"/>
<polygon fill="black" stroke="black" points="203.5,-1524.17 200,-1514.17 196.5,-1524.17 203.5,-1524.17"/>
</g>
<!-- 1664 -->
<g id="node4" class="node"><title>1664</title>
<polygon fill="none" stroke="black" points="286,-1410 114,-1410 114,-1312 286,-1312 286,-1410"/>
<text text-anchor="middle" x="200" y="-1394.8" font-family="Times,serif" font-size="14.00">0x4000c7864a</text>
<text text-anchor="middle" x="200" y="-1379.8" font-family="Times,serif" font-size="14.00">_______________________</text>
<text text-anchor="middle" x="200" y="-1364.8" font-family="Times,serif" font-size="14.00">_______________________</text>
<text text-anchor="middle" x="200" y="-1349.8" font-family="Times,serif" font-size="14.00">movq (%rbp), %r13</text>
<text text-anchor="middle" x="200" y="-1334.8" font-family="Times,serif" font-size="14.00">testq %r13, %r13</text>
<text text-anchor="middle" x="200" y="-1319.8" font-family="Times,serif" font-size="14.00">je 0x4000c786a8</text>
</g>
<!-- 1663&#45;&gt;1664 -->
<g id="edge3" class="edge"><title>1663&#45;&gt;1664</title>
<path fill="none" stroke="black" d="M200,-1445.79C200,-1437.82 200,-1429.08 200,-1420.35"/>
<polygon fill="black" stroke="black" points="203.5,-1420.15 200,-1410.15 196.5,-1420.15 203.5,-1420.15"/>
</g>
<!-- 1665 -->
<g id="node5" class="node"><title>1665</title>
<polygon fill="none" stroke="black" points="286,-1276 114,-1276 114,-1208 286,-1208 286,-1276"/>
<text text-anchor="middle" x="200" y="-1260.8" font-family="Times,serif" font-size="14.00">0x4000c78653</text>
<text text-anchor="middle" x="200" y="-1245.8" font-family="Times,serif" font-size="14.00">_______________________</text>
<text text-anchor="middle" x="200" y="-1230.8" font-family="Times,serif" font-size="14.00">_______________________</text>
<text text-anchor="middle" x="200" y="-1215.8" font-family="Times,serif" font-size="14.00">nopl (%rax, %rax)</text>
</g>
<!-- 1664&#45;&gt;1665 -->
<g id="edge4" class="edge"><title>1664&#45;&gt;1665</title>
<path fill="none" stroke="black" d="M200,-1311.74C200,-1303.33 200,-1294.63 200,-1286.36"/>
<polygon fill="black" stroke="black" points="203.5,-1286.17 200,-1276.17 196.5,-1286.17 203.5,-1286.17"/>
</g>
<!-- 1739 -->
<g id="node6" class="node"><title>1739</title>
<polygon fill="none" stroke="black" points="294,-1172 106,-1172 106,-1029 294,-1029 294,-1172"/>
<text text-anchor="middle" x="200" y="-1156.8" font-family="Times,serif" font-size="14.00">0x4000c78658</text>
<text text-anchor="middle" x="200" y="-1141.8" font-family="Times,serif" font-size="14.00">_______________________</text>
<text text-anchor="middle" x="200" y="-1126.8" font-family="Times,serif" font-size="14.00">_______________________</text>
<text text-anchor="middle" x="200" y="-1111.8" font-family="Times,serif" font-size="14.00">movq 8(%r13), %rax</text>
<text text-anchor="middle" x="200" y="-1096.8" font-family="Times,serif" font-size="14.00">movq %rax, %rdx</text>
<text text-anchor="middle" x="200" y="-1081.8" font-family="Times,serif" font-size="14.00">shlq $5, %rdx</text>
<text text-anchor="middle" x="200" y="-1066.8" font-family="Times,serif" font-size="14.00">testq %rax, %rax</text>
<text text-anchor="middle" x="200" y="-1051.8" font-family="Times,serif" font-size="14.00">leaq &#45;0x10(%r13, %rdx), %rcx</text>
<text text-anchor="middle" x="200" y="-1036.8" font-family="Times,serif" font-size="14.00">je 0x4000c78697</text>
</g>
<!-- 1665&#45;&gt;1739 -->
<g id="edge5" class="edge"><title>1665&#45;&gt;1739</title>
<path fill="none" stroke="black" d="M200,-1207.94C200,-1200.1 200,-1191.39 200,-1182.42"/>
<polygon fill="black" stroke="black" points="203.5,-1182.23 200,-1172.23 196.5,-1182.23 203.5,-1182.23"/>
</g>
<!-- 1666 -->
<g id="node7" class="node"><title>1666</title>
<polygon fill="none" stroke="black" points="172,-993 0,-993 0,-835 172,-835 172,-993"/>
<text text-anchor="middle" x="86" y="-977.8" font-family="Times,serif" font-size="14.00">0x4000c7866d</text>
<text text-anchor="middle" x="86" y="-962.8" font-family="Times,serif" font-size="14.00">_______________________</text>
<text text-anchor="middle" x="86" y="-947.8" font-family="Times,serif" font-size="14.00">_______________________</text>
<text text-anchor="middle" x="86" y="-932.8" font-family="Times,serif" font-size="14.00">subq $1, %rax</text>
<text text-anchor="middle" x="86" y="-917.8" font-family="Times,serif" font-size="14.00">movq %rax, 8(%r13)</text>
<text text-anchor="middle" x="86" y="-902.8" font-family="Times,serif" font-size="14.00">movq (%rcx), %rdx</text>
<text text-anchor="middle" x="86" y="-887.8" font-family="Times,serif" font-size="14.00">cmpq $3, %rdx</text>
<text text-anchor="middle" x="86" y="-872.8" font-family="Times,serif" font-size="14.00">je 0x4000c78728</text>
<text text-anchor="middle" x="86" y="-857.8" font-family="Times,serif" font-size="14.00">_______________________</text>
<text text-anchor="middle" x="86" y="-842.8" font-family="Times,serif" font-size="14.00">LOOP 0x4000c78658</text>
</g>
<!-- 1739&#45;&gt;1666 -->
<g id="edge10" class="edge"><title>1739&#45;&gt;1666</title>
<path fill="none" stroke="black" d="M156.414,-1028.96C150.936,-1020.09 145.283,-1010.94 139.673,-1001.86"/>
<polygon fill="black" stroke="black" points="142.548,-999.86 134.314,-993.193 136.593,-1003.54 142.548,-999.86"/>
</g>
<!-- 1740 -->
<g id="node11" class="node"><title>1740</title>
<polygon fill="none" stroke="black" points="400,-970.5 228,-970.5 228,-857.5 400,-857.5 400,-970.5"/>
<text text-anchor="middle" x="314" y="-955.3" font-family="Times,serif" font-size="14.00">0x4000c78697</text>
<text text-anchor="middle" x="314" y="-940.3" font-family="Times,serif" font-size="14.00">_______________________</text>
<text text-anchor="middle" x="314" y="-925.3" font-family="Times,serif" font-size="14.00">_______________________</text>
<text text-anchor="middle" x="314" y="-910.3" font-family="Times,serif" font-size="14.00">movq (%r13), %rax</text>
<text text-anchor="middle" x="314" y="-895.3" font-family="Times,serif" font-size="14.00">testq %rax, %rax</text>
<text text-anchor="middle" x="314" y="-880.3" font-family="Times,serif" font-size="14.00">movq %rax, (%rbp)</text>
<text text-anchor="middle" x="314" y="-865.3" font-family="Times,serif" font-size="14.00">jne 0x4000c78745</text>
</g>
<!-- 1739&#45;&gt;1740 -->
<g id="edge11" class="edge"><title>1739&#45;&gt;1740</title>
<path fill="none" stroke="black" d="M243.586,-1028.96C253.663,-1012.65 264.333,-995.382 274.236,-979.354"/>
<polygon fill="black" stroke="black" points="277.372,-980.938 279.651,-970.592 271.417,-977.259 277.372,-980.938"/>
</g>
<!-- 1667 -->
<g id="node8" class="node"><title>1667</title>
<polygon fill="none" stroke="black" points="172,-799 0,-799 0,-686 172,-686 172,-799"/>
<text text-anchor="middle" x="86" y="-783.8" font-family="Times,serif" font-size="14.00">0x4000c78682</text>
<text text-anchor="middle" x="86" y="-768.8" font-family="Times,serif" font-size="14.00">_______________________</text>
<text text-anchor="middle" x="86" y="-753.8" font-family="Times,serif" font-size="14.00">_______________________</text>
<text text-anchor="middle" x="86" y="-738.8" font-family="Times,serif" font-size="14.00">cmpq $4, %rdx</text>
<text text-anchor="middle" x="86" y="-723.8" font-family="Times,serif" font-size="14.00">je 0x4000c78700</text>
<text text-anchor="middle" x="86" y="-708.8" font-family="Times,serif" font-size="14.00">_______________________</text>
<text text-anchor="middle" x="86" y="-693.8" font-family="Times,serif" font-size="14.00">LOOP 0x4000c78658</text>
</g>
<!-- 1666&#45;&gt;1667 -->
<g id="edge6" class="edge"><title>1666&#45;&gt;1667</title>
<path fill="none" stroke="black" d="M86,-834.7C86,-826.19 86,-817.592 86,-809.254"/>
<polygon fill="black" stroke="black" points="89.5001,-809.234 86,-799.234 82.5001,-809.234 89.5001,-809.234"/>
</g>
<!-- 1668 -->
<g id="node9" class="node"><title>1668</title>
<polygon fill="none" stroke="black" points="172,-650 0,-650 0,-417 172,-417 172,-650"/>
<text text-anchor="middle" x="86" y="-634.8" font-family="Times,serif" font-size="14.00">0x4000c78700</text>
<text text-anchor="middle" x="86" y="-619.8" font-family="Times,serif" font-size="14.00">_______________________</text>
<text text-anchor="middle" x="86" y="-604.8" font-family="Times,serif" font-size="14.00">_______________________</text>
<text text-anchor="middle" x="86" y="-589.8" font-family="Times,serif" font-size="14.00">shlq $5, %rax</text>
<text text-anchor="middle" x="86" y="-574.8" font-family="Times,serif" font-size="14.00">movl %ebx, %esi</text>
<text text-anchor="middle" x="86" y="-559.8" font-family="Times,serif" font-size="14.00">addq %r13, %rax</text>
<text text-anchor="middle" x="86" y="-544.8" font-family="Times,serif" font-size="14.00">movq 0x18(%rax), %rdx</text>
<text text-anchor="middle" x="86" y="-529.8" font-family="Times,serif" font-size="14.00">movq 0x20(%rax), %rdi</text>
<text text-anchor="middle" x="86" y="-514.8" font-family="Times,serif" font-size="14.00">rorq $0x11, %rdx</text>
<text text-anchor="middle" x="86" y="-499.8" font-family="Times,serif" font-size="14.00">xorq %fs:0x30, %rdx</text>
<text text-anchor="middle" x="86" y="-484.8" font-family="Times,serif" font-size="14.00">callq *%rdx</text>
<text text-anchor="middle" x="86" y="-469.8" font-family="Times,serif" font-size="14.00">_______________________</text>
<text text-anchor="middle" x="86" y="-454.8" font-family="Times,serif" font-size="14.00">LOOP 0x4000c78658</text>
<text text-anchor="middle" x="86" y="-439.8" font-family="Times,serif" font-size="14.00">_______________________</text>
<text text-anchor="middle" x="86" y="-424.8" font-family="Times,serif" font-size="14.00">CALL 0x4000a129e0</text>
</g>
<!-- 1667&#45;&gt;1668 -->
<g id="edge7" class="edge"><title>1667&#45;&gt;1668</title>
<path fill="none" stroke="black" d="M86,-685.755C86,-677.664 86,-669.074 86,-660.258"/>
<polygon fill="black" stroke="black" points="89.5001,-660.222 86,-650.223 82.5001,-660.223 89.5001,-660.222"/>
</g>
<!-- 1738 -->
<g id="node10" class="node"><title>1738</title>
<polygon fill="none" stroke="black" points="191,-381 19,-381 19,-283 191,-283 191,-381"/>
<text text-anchor="middle" x="105" y="-365.8" font-family="Times,serif" font-size="14.00">0x4000c78720</text>
<text text-anchor="middle" x="105" y="-350.8" font-family="Times,serif" font-size="14.00">_______________________</text>
<text text-anchor="middle" x="105" y="-335.8" font-family="Times,serif" font-size="14.00">_______________________</text>
<text text-anchor="middle" x="105" y="-320.8" font-family="Times,serif" font-size="14.00">jmp 0x4000c78658</text>
<text text-anchor="middle" x="105" y="-305.8" font-family="Times,serif" font-size="14.00">_______________________</text>
<text text-anchor="middle" x="105" y="-290.8" font-family="Times,serif" font-size="14.00">LOOP 0x4000c78658</text>
</g>
<!-- 1668&#45;&gt;1738 -->
<g id="edge8" class="edge"><title>1668&#45;&gt;1738</title>
<path fill="none" stroke="black" d="M97.0249,-416.739C97.8536,-408.037 98.6665,-399.502 99.4373,-391.408"/>
<polygon fill="black" stroke="black" points="102.925,-391.7 100.389,-381.413 95.9568,-391.036 102.925,-391.7"/>
</g>
<!-- 1738&#45;&gt;1739 -->
<g id="edge9" class="edge"><title>1738&#45;&gt;1739</title>
<path fill="none" stroke="black" d="M158.941,-381.36C167.867,-392.154 175.873,-404.224 181,-417 223.929,-523.971 212.598,-862.301 204.673,-1018.73"/>
<polygon fill="black" stroke="black" points="201.175,-1018.6 204.157,-1028.77 208.166,-1018.96 201.175,-1018.6"/>
</g>
<!-- 1741 -->
<g id="node12" class="node"><title>1741</title>
<polygon fill="none" stroke="black" points="400,-784 228,-784 228,-701 400,-701 400,-784"/>
<text text-anchor="middle" x="314" y="-768.8" font-family="Times,serif" font-size="14.00">0x4000c786a8</text>
<text text-anchor="middle" x="314" y="-753.8" font-family="Times,serif" font-size="14.00">_______________________</text>
<text text-anchor="middle" x="314" y="-738.8" font-family="Times,serif" font-size="14.00">_______________________</text>
<text text-anchor="middle" x="314" y="-723.8" font-family="Times,serif" font-size="14.00">testb %r12b, %r12b</text>
<text text-anchor="middle" x="314" y="-708.8" font-family="Times,serif" font-size="14.00">je 0x4000c786cc</text>
</g>
<!-- 1740&#45;&gt;1741 -->
<g id="edge12" class="edge"><title>1740&#45;&gt;1741</title>
<path fill="none" stroke="black" d="M314,-857.499C314,-837.109 314,-814.145 314,-794.198"/>
<polygon fill="black" stroke="black" points="317.5,-794.073 314,-784.073 310.5,-794.073 317.5,-794.073"/>
</g>
<!-- 1742 -->
<g id="node13" class="node"><title>1742</title>
<polygon fill="none" stroke="black" points="400,-590 228,-590 228,-477 400,-477 400,-590"/>
<text text-anchor="middle" x="314" y="-574.8" font-family="Times,serif" font-size="14.00">0x4000c786ad</text>
<text text-anchor="middle" x="314" y="-559.8" font-family="Times,serif" font-size="14.00">_______________________</text>
<text text-anchor="middle" x="314" y="-544.8" font-family="Times,serif" font-size="14.00">_______________________</text>
<text text-anchor="middle" x="314" y="-529.8" font-family="Times,serif" font-size="14.00">leaq 0x363224(%rip), %rbp</text>
<text text-anchor="middle" x="314" y="-514.8" font-family="Times,serif" font-size="14.00">leaq 0x363225(%rip), %r12</text>
<text text-anchor="middle" x="314" y="-499.8" font-family="Times,serif" font-size="14.00">cmpq %r12, %rbp</text>
<text text-anchor="middle" x="314" y="-484.8" font-family="Times,serif" font-size="14.00">jae 0x4000c786cc</text>
</g>
<!-- 1741&#45;&gt;1742 -->
<g id="edge13" class="edge"><title>1741&#45;&gt;1742</title>
<path fill="none" stroke="black" d="M314,-700.603C314,-671.987 314,-633.143 314,-600.214"/>
<polygon fill="black" stroke="black" points="317.5,-600.202 314,-590.202 310.5,-600.202 317.5,-600.202"/>
</g>
<!-- 1743 -->
<g id="node14" class="node"><title>1743</title>
<polygon fill="none" stroke="black" points="400,-381 228,-381 228,-283 400,-283 400,-381"/>
<text text-anchor="middle" x="314" y="-365.8" font-family="Times,serif" font-size="14.00">0x4000c786c0</text>
<text text-anchor="middle" x="314" y="-350.8" font-family="Times,serif" font-size="14.00">_______________________</text>
<text text-anchor="middle" x="314" y="-335.8" font-family="Times,serif" font-size="14.00">_______________________</text>
<text text-anchor="middle" x="314" y="-320.8" font-family="Times,serif" font-size="14.00">callq *(%rbp)</text>
<text text-anchor="middle" x="314" y="-305.8" font-family="Times,serif" font-size="14.00">_______________________</text>
<text text-anchor="middle" x="314" y="-290.8" font-family="Times,serif" font-size="14.00">CALL 0x4000cb8f20</text>
</g>
<!-- 1742&#45;&gt;1743 -->
<g id="edge14" class="edge"><title>1742&#45;&gt;1743</title>
<path fill="none" stroke="black" d="M314,-476.928C314,-450.245 314,-418.277 314,-391.254"/>
<polygon fill="black" stroke="black" points="317.5,-391.16 314,-381.16 310.5,-391.16 317.5,-391.16"/>
</g>
<!-- 1794 -->
<g id="node15" class="node"><title>1794</title>
<polygon fill="none" stroke="black" points="400,-247 228,-247 228,-149 400,-149 400,-247"/>
<text text-anchor="middle" x="314" y="-231.8" font-family="Times,serif" font-size="14.00">0x4000c786c3</text>
<text text-anchor="middle" x="314" y="-216.8" font-family="Times,serif" font-size="14.00">_______________________</text>
<text text-anchor="middle" x="314" y="-201.8" font-family="Times,serif" font-size="14.00">_______________________</text>
<text text-anchor="middle" x="314" y="-186.8" font-family="Times,serif" font-size="14.00">addq $8, %rbp</text>
<text text-anchor="middle" x="314" y="-171.8" font-family="Times,serif" font-size="14.00">cmpq %r12, %rbp</text>
<text text-anchor="middle" x="314" y="-156.8" font-family="Times,serif" font-size="14.00">jb 0x4000c786c0</text>
</g>
<!-- 1743&#45;&gt;1794 -->
<g id="edge15" class="edge"><title>1743&#45;&gt;1794</title>
<path fill="none" stroke="black" d="M314,-282.972C314,-274.691 314,-266.003 314,-257.483"/>
<polygon fill="black" stroke="black" points="317.5,-257.214 314,-247.214 310.5,-257.214 317.5,-257.214"/>
</g>
<!-- 1795 -->
<g id="node16" class="node"><title>1795</title>
<polygon fill="none" stroke="black" points="400,-113 228,-113 228,-0 400,-0 400,-113"/>
<text text-anchor="middle" x="314" y="-97.8" font-family="Times,serif" font-size="14.00">0x4000c786cc</text>
<text text-anchor="middle" x="314" y="-82.8" font-family="Times,serif" font-size="14.00">_______________________</text>
<text text-anchor="middle" x="314" y="-67.8" font-family="Times,serif" font-size="14.00">_______________________</text>
<text text-anchor="middle" x="314" y="-52.8" font-family="Times,serif" font-size="14.00">movl %ebx, %edi</text>
<text text-anchor="middle" x="314" y="-37.8" font-family="Times,serif" font-size="14.00">callq 0x4000cfca10</text>
<text text-anchor="middle" x="314" y="-22.8" font-family="Times,serif" font-size="14.00">_______________________</text>
<text text-anchor="middle" x="314" y="-7.8" font-family="Times,serif" font-size="14.00">CALL _exit</text>
</g>
<!-- 1794&#45;&gt;1795 -->
<g id="edge16" class="edge"><title>1794&#45;&gt;1795</title>
<path fill="none" stroke="black" d="M314,-148.992C314,-140.722 314,-131.998 314,-123.354"/>
<polygon fill="black" stroke="black" points="317.5,-123.276 314,-113.276 310.5,-123.276 317.5,-123.276"/>
</g>
</g>
</svg>
