<?xml version="1.0" encoding="UTF-8" standalone="no"?>
<!DOCTYPE svg PUBLIC "-//W3C//DTD SVG 1.1//EN"
 "http://www.w3.org/Graphics/SVG/1.1/DTD/svg11.dtd">
<!-- Generated by graphviz version 2.38.0 (20140413.2041)
 -->
<!-- Title: %3 Pages: 1 -->
<svg width="187pt" height="850pt"
 viewBox="0.00 0.00 187.00 850.00" xmlns="http://www.w3.org/2000/svg" xmlns:xlink="http://www.w3.org/1999/xlink">
<g id="graph0" class="graph" transform="scale(1 1) rotate(0) translate(4 846)">
<title>%3</title>
<polygon fill="white" stroke="none" points="-4,4 -4,-846 183,-846 183,4 -4,4"/>
<!-- 1106 -->
<g id="node1" class="node"><title>1106</title>
<polygon fill="none" stroke="black" points="179,-842 0,-842 0,-729 179,-729 179,-842"/>
<text text-anchor="middle" x="89.5" y="-826.8" font-family="Times,serif" font-size="14.00">0x4000cc7660</text>
<text text-anchor="middle" x="89.5" y="-811.8" font-family="Times,serif" font-size="14.00">_______________________</text>
<text text-anchor="middle" x="89.5" y="-796.8" font-family="Times,serif" font-size="14.00">_______________________</text>
<text text-anchor="middle" x="89.5" y="-781.8" font-family="Times,serif" font-size="14.00">movq 0x317801(%rip), %rdx</text>
<text text-anchor="middle" x="89.5" y="-766.8" font-family="Times,serif" font-size="14.00">leaq 0x142(%rip), %rax</text>
<text text-anchor="middle" x="89.5" y="-751.8" font-family="Times,serif" font-size="14.00">testl $0x80000, 0xb8(%rdx)</text>
<text text-anchor="middle" x="89.5" y="-736.8" font-family="Times,serif" font-size="14.00">jne 0x4000cc773c</text>
</g>
<!-- 1107 -->
<g id="node2" class="node"><title>1107</title>
<polygon fill="none" stroke="black" points="178,-693 1,-693 1,-610 178,-610 178,-693"/>
<text text-anchor="middle" x="89.5" y="-677.8" font-family="Times,serif" font-size="14.00">0x4000cc767e</text>
<text text-anchor="middle" x="89.5" y="-662.8" font-family="Times,serif" font-size="14.00">_______________________</text>
<text text-anchor="middle" x="89.5" y="-647.8" font-family="Times,serif" font-size="14.00">_______________________</text>
<text text-anchor="middle" x="89.5" y="-632.8" font-family="Times,serif" font-size="14.00">testl $0x100000, 0xb8(%rdx)</text>
<text text-anchor="middle" x="89.5" y="-617.8" font-family="Times,serif" font-size="14.00">jne 0x4000cc76c8</text>
</g>
<!-- 1106&#45;&gt;1107 -->
<g id="edge1" class="edge"><title>1106&#45;&gt;1107</title>
<path fill="none" stroke="black" d="M89.5,-728.903C89.5,-720.387 89.5,-711.635 89.5,-703.231"/>
<polygon fill="black" stroke="black" points="93.0001,-703.194 89.5,-693.194 86.0001,-703.194 93.0001,-703.194"/>
</g>
<!-- 1108 -->
<g id="node3" class="node"><title>1108</title>
<polygon fill="none" stroke="black" points="175.5,-574 3.5,-574 3.5,-491 175.5,-491 175.5,-574"/>
<text text-anchor="middle" x="89.5" y="-558.8" font-family="Times,serif" font-size="14.00">0x4000cc768a</text>
<text text-anchor="middle" x="89.5" y="-543.8" font-family="Times,serif" font-size="14.00">_______________________</text>
<text text-anchor="middle" x="89.5" y="-528.8" font-family="Times,serif" font-size="14.00">_______________________</text>
<text text-anchor="middle" x="89.5" y="-513.8" font-family="Times,serif" font-size="14.00">testl $0x1000, 0xb8(%rdx)</text>
<text text-anchor="middle" x="89.5" y="-498.8" font-family="Times,serif" font-size="14.00">je 0x4000cc76c8</text>
</g>
<!-- 1107&#45;&gt;1108 -->
<g id="edge2" class="edge"><title>1107&#45;&gt;1108</title>
<path fill="none" stroke="black" d="M89.5,-609.907C89.5,-601.649 89.5,-592.864 89.5,-584.302"/>
<polygon fill="black" stroke="black" points="93.0001,-584.021 89.5,-574.021 86.0001,-584.021 93.0001,-584.021"/>
</g>
<!-- 1109 -->
<g id="node4" class="node"><title>1109</title>
<polygon fill="none" stroke="black" points="175.5,-455 3.5,-455 3.5,-357 175.5,-357 175.5,-455"/>
<text text-anchor="middle" x="89.5" y="-439.8" font-family="Times,serif" font-size="14.00">0x4000cc76c8</text>
<text text-anchor="middle" x="89.5" y="-424.8" font-family="Times,serif" font-size="14.00">_______________________</text>
<text text-anchor="middle" x="89.5" y="-409.8" font-family="Times,serif" font-size="14.00">_______________________</text>
<text text-anchor="middle" x="89.5" y="-394.8" font-family="Times,serif" font-size="14.00">leaq 0xaa6a1(%rip), %rax</text>
<text text-anchor="middle" x="89.5" y="-379.8" font-family="Times,serif" font-size="14.00">testl $0x800, 0xb8(%rdx)</text>
<text text-anchor="middle" x="89.5" y="-364.8" font-family="Times,serif" font-size="14.00">je 0x4000cc76ef</text>
</g>
<!-- 1108&#45;&gt;1109 -->
<g id="edge3" class="edge"><title>1108&#45;&gt;1109</title>
<path fill="none" stroke="black" d="M89.5,-490.734C89.5,-482.579 89.5,-473.862 89.5,-465.249"/>
<polygon fill="black" stroke="black" points="93.0001,-465.224 89.5,-455.224 86.0001,-465.224 93.0001,-465.224"/>
</g>
<!-- 1110 -->
<g id="node5" class="node"><title>1110</title>
<polygon fill="none" stroke="black" points="175.5,-321 3.5,-321 3.5,-223 175.5,-223 175.5,-321"/>
<text text-anchor="middle" x="89.5" y="-305.8" font-family="Times,serif" font-size="14.00">0x4000cc76ef</text>
<text text-anchor="middle" x="89.5" y="-290.8" font-family="Times,serif" font-size="14.00">_______________________</text>
<text text-anchor="middle" x="89.5" y="-275.8" font-family="Times,serif" font-size="14.00">_______________________</text>
<text text-anchor="middle" x="89.5" y="-260.8" font-family="Times,serif" font-size="14.00">leaq 0x7a(%rip), %rax</text>
<text text-anchor="middle" x="89.5" y="-245.8" font-family="Times,serif" font-size="14.00">testl $0x40000, 0xb8(%rdx)</text>
<text text-anchor="middle" x="89.5" y="-230.8" font-family="Times,serif" font-size="14.00">je 0x4000cc7716</text>
</g>
<!-- 1109&#45;&gt;1110 -->
<g id="edge4" class="edge"><title>1109&#45;&gt;1110</title>
<path fill="none" stroke="black" d="M89.5,-356.972C89.5,-348.691 89.5,-340.003 89.5,-331.483"/>
<polygon fill="black" stroke="black" points="93.0001,-331.214 89.5,-321.214 86.0001,-331.214 93.0001,-331.214"/>
</g>
<!-- 1111 -->
<g id="node6" class="node"><title>1111</title>
<polygon fill="none" stroke="black" points="175.5,-187 3.5,-187 3.5,-104 175.5,-104 175.5,-187"/>
<text text-anchor="middle" x="89.5" y="-171.8" font-family="Times,serif" font-size="14.00">0x4000cc7716</text>
<text text-anchor="middle" x="89.5" y="-156.8" font-family="Times,serif" font-size="14.00">_______________________</text>
<text text-anchor="middle" x="89.5" y="-141.8" font-family="Times,serif" font-size="14.00">_______________________</text>
<text text-anchor="middle" x="89.5" y="-126.8" font-family="Times,serif" font-size="14.00">testl $0x200, 0x80(%rdx)</text>
<text text-anchor="middle" x="89.5" y="-111.8" font-family="Times,serif" font-size="14.00">je 0x4000cc773c</text>
</g>
<!-- 1110&#45;&gt;1111 -->
<g id="edge5" class="edge"><title>1110&#45;&gt;1111</title>
<path fill="none" stroke="black" d="M89.5,-222.865C89.5,-214.498 89.5,-205.771 89.5,-197.335"/>
<polygon fill="black" stroke="black" points="93.0001,-197.231 89.5,-187.231 86.0001,-197.231 93.0001,-197.231"/>
</g>
<!-- 1112 -->
<g id="node7" class="node"><title>1112</title>
<polygon fill="none" stroke="black" points="175.5,-68 3.5,-68 3.5,-0 175.5,-0 175.5,-68"/>
<text text-anchor="middle" x="89.5" y="-52.8" font-family="Times,serif" font-size="14.00">0x4000cc773c</text>
<text text-anchor="middle" x="89.5" y="-37.8" font-family="Times,serif" font-size="14.00">_______________________</text>
<text text-anchor="middle" x="89.5" y="-22.8" font-family="Times,serif" font-size="14.00">_______________________</text>
<text text-anchor="middle" x="89.5" y="-7.8" font-family="Times,serif" font-size="14.00">retq </text>
</g>
<!-- 1111&#45;&gt;1112 -->
<g id="edge6" class="edge"><title>1111&#45;&gt;1112</title>
<path fill="none" stroke="black" d="M89.5,-103.726C89.5,-95.5175 89.5,-86.8595 89.5,-78.56"/>
<polygon fill="black" stroke="black" points="93.0001,-78.2996 89.5,-68.2996 86.0001,-78.2996 93.0001,-78.2996"/>
</g>
</g>
</svg>
