<?xml version="1.0" encoding="UTF-8" standalone="no"?>
<!DOCTYPE svg PUBLIC "-//W3C//DTD SVG 1.1//EN"
 "http://www.w3.org/Graphics/SVG/1.1/DTD/svg11.dtd">
<!-- Generated by graphviz version 2.38.0 (20140413.2041)
 -->
<!-- Title: %3 Pages: 1 -->
<svg width="193pt" height="4909pt"
 viewBox="0.00 0.00 193.00 4909.00" xmlns="http://www.w3.org/2000/svg" xmlns:xlink="http://www.w3.org/1999/xlink">
<g id="graph0" class="graph" transform="scale(1 1) rotate(0) translate(4 4905)">
<title>%3</title>
<polygon fill="white" stroke="none" points="-4,4 -4,-4905 189,-4905 189,4 -4,4"/>
<!-- 1442 -->
<g id="node1" class="node"><title>1442</title>
<polygon fill="none" stroke="black" points="181.5,-4901 3.5,-4901 3.5,-4668 181.5,-4668 181.5,-4901"/>
<text text-anchor="middle" x="92.5" y="-4885.8" font-family="Times,serif" font-size="14.00">0x4000cbbd90</text>
<text text-anchor="middle" x="92.5" y="-4870.8" font-family="Times,serif" font-size="14.00">_______________________</text>
<text text-anchor="middle" x="92.5" y="-4855.8" font-family="Times,serif" font-size="14.00">_______________________</text>
<text text-anchor="middle" x="92.5" y="-4840.8" font-family="Times,serif" font-size="14.00">pushq %r15</text>
<text text-anchor="middle" x="92.5" y="-4825.8" font-family="Times,serif" font-size="14.00">pushq %r14</text>
<text text-anchor="middle" x="92.5" y="-4810.8" font-family="Times,serif" font-size="14.00">pushq %r13</text>
<text text-anchor="middle" x="92.5" y="-4795.8" font-family="Times,serif" font-size="14.00">pushq %r12</text>
<text text-anchor="middle" x="92.5" y="-4780.8" font-family="Times,serif" font-size="14.00">pushq %rbp</text>
<text text-anchor="middle" x="92.5" y="-4765.8" font-family="Times,serif" font-size="14.00">pushq %rbx</text>
<text text-anchor="middle" x="92.5" y="-4750.8" font-family="Times,serif" font-size="14.00">movq %rdi, %rbp</text>
<text text-anchor="middle" x="92.5" y="-4735.8" font-family="Times,serif" font-size="14.00">subq $0x48, %rsp</text>
<text text-anchor="middle" x="92.5" y="-4720.8" font-family="Times,serif" font-size="14.00">movq 0x3230c0(%rip), %rax</text>
<text text-anchor="middle" x="92.5" y="-4705.8" font-family="Times,serif" font-size="14.00">testq %rsi, %rsi</text>
<text text-anchor="middle" x="92.5" y="-4690.8" font-family="Times,serif" font-size="14.00">movq 0x18(%rax), %r14</text>
<text text-anchor="middle" x="92.5" y="-4675.8" font-family="Times,serif" font-size="14.00">je 0x4000cbc060</text>
</g>
<!-- 1443 -->
<g id="node2" class="node"><title>1443</title>
<polygon fill="none" stroke="black" points="180.5,-4632 4.5,-4632 4.5,-4534 180.5,-4534 180.5,-4632"/>
<text text-anchor="middle" x="92.5" y="-4616.8" font-family="Times,serif" font-size="14.00">0x4000cbbdb5</text>
<text text-anchor="middle" x="92.5" y="-4601.8" font-family="Times,serif" font-size="14.00">_______________________</text>
<text text-anchor="middle" x="92.5" y="-4586.8" font-family="Times,serif" font-size="14.00">_______________________</text>
<text text-anchor="middle" x="92.5" y="-4571.8" font-family="Times,serif" font-size="14.00">cmpq %rdi, 0x3233b4(%rip)</text>
<text text-anchor="middle" x="92.5" y="-4556.8" font-family="Times,serif" font-size="14.00">movq %rsi, %rbx</text>
<text text-anchor="middle" x="92.5" y="-4541.8" font-family="Times,serif" font-size="14.00">jbe 0x4000cbbf50</text>
</g>
<!-- 1442&#45;&gt;1443 -->
<g id="edge1" class="edge"><title>1442&#45;&gt;1443</title>
<path fill="none" stroke="black" d="M92.5,-4667.74C92.5,-4659.13 92.5,-4650.69 92.5,-4642.68"/>
<polygon fill="black" stroke="black" points="96.0001,-4642.41 92.5,-4632.41 89.0001,-4642.41 96.0001,-4642.41"/>
</g>
<!-- 1444 -->
<g id="node3" class="node"><title>1444</title>
<polygon fill="none" stroke="black" points="178.5,-4498 6.5,-4498 6.5,-4160 178.5,-4160 178.5,-4498"/>
<text text-anchor="middle" x="92.5" y="-4482.8" font-family="Times,serif" font-size="14.00">0x4000cbbdc5</text>
<text text-anchor="middle" x="92.5" y="-4467.8" font-family="Times,serif" font-size="14.00">_______________________</text>
<text text-anchor="middle" x="92.5" y="-4452.8" font-family="Times,serif" font-size="14.00">_______________________</text>
<text text-anchor="middle" x="92.5" y="-4437.8" font-family="Times,serif" font-size="14.00">movb $0, 0x18(%rsp)</text>
<text text-anchor="middle" x="92.5" y="-4422.8" font-family="Times,serif" font-size="14.00">leaq 0x58(%rbx), %rax</text>
<text text-anchor="middle" x="92.5" y="-4407.8" font-family="Times,serif" font-size="14.00">movq %rax, 8(%rsp)</text>
<text text-anchor="middle" x="92.5" y="-4392.8" font-family="Times,serif" font-size="14.00">movq %r14, %rax</text>
<text text-anchor="middle" x="92.5" y="-4377.8" font-family="Times,serif" font-size="14.00">negq %rax</text>
<text text-anchor="middle" x="92.5" y="-4362.8" font-family="Times,serif" font-size="14.00">movq %rax, %rdi</text>
<text text-anchor="middle" x="92.5" y="-4347.8" font-family="Times,serif" font-size="14.00">movq %rax, 0x10(%rsp)</text>
<text text-anchor="middle" x="92.5" y="-4332.8" font-family="Times,serif" font-size="14.00">leaq 7(%r14, %rbp), %rax</text>
<text text-anchor="middle" x="92.5" y="-4317.8" font-family="Times,serif" font-size="14.00">andq %rdi, %rax</text>
<text text-anchor="middle" x="92.5" y="-4302.8" font-family="Times,serif" font-size="14.00">movq %rax, 0x28(%rsp)</text>
<text text-anchor="middle" x="92.5" y="-4287.8" font-family="Times,serif" font-size="14.00">movq 0x58(%rbx), %r13</text>
<text text-anchor="middle" x="92.5" y="-4272.8" font-family="Times,serif" font-size="14.00">movq 8(%r13), %rax</text>
<text text-anchor="middle" x="92.5" y="-4257.8" font-family="Times,serif" font-size="14.00">movq %rax, %r12</text>
<text text-anchor="middle" x="92.5" y="-4242.8" font-family="Times,serif" font-size="14.00">andq $0xfffffff8, %r12</text>
<text text-anchor="middle" x="92.5" y="-4227.8" font-family="Times,serif" font-size="14.00">testq %r12, %r12</text>
<text text-anchor="middle" x="92.5" y="-4212.8" font-family="Times,serif" font-size="14.00">leaq (%r13, %r12), %r10</text>
<text text-anchor="middle" x="92.5" y="-4197.8" font-family="Times,serif" font-size="14.00">setne %r11b</text>
<text text-anchor="middle" x="92.5" y="-4182.8" font-family="Times,serif" font-size="14.00">cmpq 8(%rsp), %r13</text>
<text text-anchor="middle" x="92.5" y="-4167.8" font-family="Times,serif" font-size="14.00">jne 0x4000cbbf10</text>
</g>
<!-- 1443&#45;&gt;1444 -->
<g id="edge2" class="edge"><title>1443&#45;&gt;1444</title>
<path fill="none" stroke="black" d="M92.5,-4533.71C92.5,-4525.87 92.5,-4517.37 92.5,-4508.45"/>
<polygon fill="black" stroke="black" points="96.0001,-4508.2 92.5,-4498.2 89.0001,-4508.2 96.0001,-4508.2"/>
</g>
<!-- 1445 -->
<g id="node4" class="node"><title>1445</title>
<polygon fill="none" stroke="black" points="178.5,-4124 6.5,-4124 6.5,-4041 178.5,-4041 178.5,-4124"/>
<text text-anchor="middle" x="92.5" y="-4108.8" font-family="Times,serif" font-size="14.00">0x4000cbbe14</text>
<text text-anchor="middle" x="92.5" y="-4093.8" font-family="Times,serif" font-size="14.00">_______________________</text>
<text text-anchor="middle" x="92.5" y="-4078.8" font-family="Times,serif" font-size="14.00">_______________________</text>
<text text-anchor="middle" x="92.5" y="-4063.8" font-family="Times,serif" font-size="14.00">testb %r11b, %r11b</text>
<text text-anchor="middle" x="92.5" y="-4048.8" font-family="Times,serif" font-size="14.00">jne 0x4000cbbf10</text>
</g>
<!-- 1444&#45;&gt;1445 -->
<g id="edge3" class="edge"><title>1444&#45;&gt;1445</title>
<path fill="none" stroke="black" d="M92.5,-4159.86C92.5,-4150.85 92.5,-4142.23 92.5,-4134.24"/>
<polygon fill="black" stroke="black" points="96.0001,-4134.13 92.5,-4124.13 89.0001,-4134.13 96.0001,-4134.13"/>
</g>
<!-- 1446 -->
<g id="node5" class="node"><title>1446</title>
<polygon fill="none" stroke="black" points="178.5,-4005 6.5,-4005 6.5,-3907 178.5,-3907 178.5,-4005"/>
<text text-anchor="middle" x="92.5" y="-3989.8" font-family="Times,serif" font-size="14.00">0x4000cbbe1d</text>
<text text-anchor="middle" x="92.5" y="-3974.8" font-family="Times,serif" font-size="14.00">_______________________</text>
<text text-anchor="middle" x="92.5" y="-3959.8" font-family="Times,serif" font-size="14.00">_______________________</text>
<text text-anchor="middle" x="92.5" y="-3944.8" font-family="Times,serif" font-size="14.00">leaq 0x20(%rbp), %r15</text>
<text text-anchor="middle" x="92.5" y="-3929.8" font-family="Times,serif" font-size="14.00">cmpq %r15, %r12</text>
<text text-anchor="middle" x="92.5" y="-3914.8" font-family="Times,serif" font-size="14.00">jae 0x4000cbc595</text>
</g>
<!-- 1445&#45;&gt;1446 -->
<g id="edge4" class="edge"><title>1445&#45;&gt;1446</title>
<path fill="none" stroke="black" d="M92.5,-4040.73C92.5,-4032.58 92.5,-4023.86 92.5,-4015.25"/>
<polygon fill="black" stroke="black" points="96.0001,-4015.22 92.5,-4005.22 89.0001,-4015.22 96.0001,-4015.22"/>
</g>
<!-- 1447 -->
<g id="node6" class="node"><title>1447</title>
<polygon fill="none" stroke="black" points="178.5,-3871 6.5,-3871 6.5,-3773 178.5,-3773 178.5,-3871"/>
<text text-anchor="middle" x="92.5" y="-3855.8" font-family="Times,serif" font-size="14.00">0x4000cbbe2a</text>
<text text-anchor="middle" x="92.5" y="-3840.8" font-family="Times,serif" font-size="14.00">_______________________</text>
<text text-anchor="middle" x="92.5" y="-3825.8" font-family="Times,serif" font-size="14.00">_______________________</text>
<text text-anchor="middle" x="92.5" y="-3810.8" font-family="Times,serif" font-size="14.00">leaq 0x323ccf(%rip), %rax</text>
<text text-anchor="middle" x="92.5" y="-3795.8" font-family="Times,serif" font-size="14.00">cmpq %rax, %rbx</text>
<text text-anchor="middle" x="92.5" y="-3780.8" font-family="Times,serif" font-size="14.00">je 0x4000cbc110</text>
</g>
<!-- 1446&#45;&gt;1447 -->
<g id="edge5" class="edge"><title>1446&#45;&gt;1447</title>
<path fill="none" stroke="black" d="M92.5,-3906.97C92.5,-3898.69 92.5,-3890 92.5,-3881.48"/>
<polygon fill="black" stroke="black" points="96.0001,-3881.21 92.5,-3871.21 89.0001,-3881.21 96.0001,-3881.21"/>
</g>
<!-- 1448 -->
<g id="node7" class="node"><title>1448</title>
<polygon fill="none" stroke="black" points="183.5,-3737 1.5,-3737 1.5,-3564 183.5,-3564 183.5,-3737"/>
<text text-anchor="middle" x="92.5" y="-3721.8" font-family="Times,serif" font-size="14.00">0x4000cbc110</text>
<text text-anchor="middle" x="92.5" y="-3706.8" font-family="Times,serif" font-size="14.00">_______________________</text>
<text text-anchor="middle" x="92.5" y="-3691.8" font-family="Times,serif" font-size="14.00">_______________________</text>
<text text-anchor="middle" x="92.5" y="-3676.8" font-family="Times,serif" font-size="14.00">movq 0x323051(%rip), %rax</text>
<text text-anchor="middle" x="92.5" y="-3661.8" font-family="Times,serif" font-size="14.00">leaq 0x20(%rbp, %rax), %rcx</text>
<text text-anchor="middle" x="92.5" y="-3646.8" font-family="Times,serif" font-size="14.00">leaq &#45;1(%r14), %rax</text>
<text text-anchor="middle" x="92.5" y="-3631.8" font-family="Times,serif" font-size="14.00">negq %r14</text>
<text text-anchor="middle" x="92.5" y="-3616.8" font-family="Times,serif" font-size="14.00">testb $2, 4(%rbx)</text>
<text text-anchor="middle" x="92.5" y="-3601.8" font-family="Times,serif" font-size="14.00">movq %r14, 0x10(%rsp)</text>
<text text-anchor="middle" x="92.5" y="-3586.8" font-family="Times,serif" font-size="14.00">movq %rax, 8(%rsp)</text>
<text text-anchor="middle" x="92.5" y="-3571.8" font-family="Times,serif" font-size="14.00">jne 0x4000cbc270</text>
</g>
<!-- 1447&#45;&gt;1448 -->
<g id="edge6" class="edge"><title>1447&#45;&gt;1448</title>
<path fill="none" stroke="black" d="M92.5,-3772.88C92.5,-3764.77 92.5,-3756.11 92.5,-3747.29"/>
<polygon fill="black" stroke="black" points="96.0001,-3747.28 92.5,-3737.28 89.0001,-3747.28 96.0001,-3747.28"/>
</g>
<!-- 1449 -->
<g id="node8" class="node"><title>1449</title>
<polygon fill="none" stroke="black" points="178.5,-3528 6.5,-3528 6.5,-3385 178.5,-3385 178.5,-3528"/>
<text text-anchor="middle" x="92.5" y="-3512.8" font-family="Times,serif" font-size="14.00">0x4000cbc137</text>
<text text-anchor="middle" x="92.5" y="-3497.8" font-family="Times,serif" font-size="14.00">_______________________</text>
<text text-anchor="middle" x="92.5" y="-3482.8" font-family="Times,serif" font-size="14.00">_______________________</text>
<text text-anchor="middle" x="92.5" y="-3467.8" font-family="Times,serif" font-size="14.00">subq %r12, %rcx</text>
<text text-anchor="middle" x="92.5" y="-3452.8" font-family="Times,serif" font-size="14.00">addq %rax, %rcx</text>
<text text-anchor="middle" x="92.5" y="-3437.8" font-family="Times,serif" font-size="14.00">andq %r14, %rcx</text>
<text text-anchor="middle" x="92.5" y="-3422.8" font-family="Times,serif" font-size="14.00">testq %rcx, %rcx</text>
<text text-anchor="middle" x="92.5" y="-3407.8" font-family="Times,serif" font-size="14.00">movq %rcx, %r14</text>
<text text-anchor="middle" x="92.5" y="-3392.8" font-family="Times,serif" font-size="14.00">jle 0x4000cbc510</text>
</g>
<!-- 1448&#45;&gt;1449 -->
<g id="edge7" class="edge"><title>1448&#45;&gt;1449</title>
<path fill="none" stroke="black" d="M92.5,-3563.89C92.5,-3555.43 92.5,-3546.86 92.5,-3538.45"/>
<polygon fill="black" stroke="black" points="96.0001,-3538.28 92.5,-3528.28 89.0001,-3538.28 96.0001,-3538.28"/>
</g>
<!-- 1450 -->
<g id="node9" class="node"><title>1450</title>
<polygon fill="none" stroke="black" points="181.5,-3349 3.5,-3349 3.5,-3176 181.5,-3176 181.5,-3349"/>
<text text-anchor="middle" x="92.5" y="-3333.8" font-family="Times,serif" font-size="14.00">0x4000cbc14c</text>
<text text-anchor="middle" x="92.5" y="-3318.8" font-family="Times,serif" font-size="14.00">_______________________</text>
<text text-anchor="middle" x="92.5" y="-3303.8" font-family="Times,serif" font-size="14.00">_______________________</text>
<text text-anchor="middle" x="92.5" y="-3288.8" font-family="Times,serif" font-size="14.00">movq 0x322c75(%rip), %rax</text>
<text text-anchor="middle" x="92.5" y="-3273.8" font-family="Times,serif" font-size="14.00">movb %r11b, 0x28(%rsp)</text>
<text text-anchor="middle" x="92.5" y="-3258.8" font-family="Times,serif" font-size="14.00">movq %rcx, %rdi</text>
<text text-anchor="middle" x="92.5" y="-3243.8" font-family="Times,serif" font-size="14.00">movq %r10, 0x20(%rsp)</text>
<text text-anchor="middle" x="92.5" y="-3228.8" font-family="Times,serif" font-size="14.00">movq %rcx, 0x18(%rsp)</text>
<text text-anchor="middle" x="92.5" y="-3213.8" font-family="Times,serif" font-size="14.00">callq *(%rax)</text>
<text text-anchor="middle" x="92.5" y="-3198.8" font-family="Times,serif" font-size="14.00">_______________________</text>
<text text-anchor="middle" x="92.5" y="-3183.8" font-family="Times,serif" font-size="14.00">CALL __default_morecore</text>
</g>
<!-- 1449&#45;&gt;1450 -->
<g id="edge8" class="edge"><title>1449&#45;&gt;1450</title>
<path fill="none" stroke="black" d="M92.5,-3384.82C92.5,-3376.45 92.5,-3367.79 92.5,-3359.14"/>
<polygon fill="black" stroke="black" points="96.0001,-3359.01 92.5,-3349.01 89.0001,-3359.01 96.0001,-3359.01"/>
</g>
<!-- 1468 -->
<g id="node10" class="node"><title>1468</title>
<polygon fill="none" stroke="black" points="178.5,-3140 6.5,-3140 6.5,-2997 178.5,-2997 178.5,-3140"/>
<text text-anchor="middle" x="92.5" y="-3124.8" font-family="Times,serif" font-size="14.00">0x4000cbc167</text>
<text text-anchor="middle" x="92.5" y="-3109.8" font-family="Times,serif" font-size="14.00">_______________________</text>
<text text-anchor="middle" x="92.5" y="-3094.8" font-family="Times,serif" font-size="14.00">_______________________</text>
<text text-anchor="middle" x="92.5" y="-3079.8" font-family="Times,serif" font-size="14.00">testq %rax, %rax</text>
<text text-anchor="middle" x="92.5" y="-3064.8" font-family="Times,serif" font-size="14.00">movq %rax, %rdx</text>
<text text-anchor="middle" x="92.5" y="-3049.8" font-family="Times,serif" font-size="14.00">movq 0x18(%rsp), %rcx</text>
<text text-anchor="middle" x="92.5" y="-3034.8" font-family="Times,serif" font-size="14.00">movq 0x20(%rsp), %r10</text>
<text text-anchor="middle" x="92.5" y="-3019.8" font-family="Times,serif" font-size="14.00">movzbl 0x28(%rsp), %r11d</text>
<text text-anchor="middle" x="92.5" y="-3004.8" font-family="Times,serif" font-size="14.00">je 0x4000cbc4fa</text>
</g>
<!-- 1450&#45;&gt;1468 -->
<g id="edge9" class="edge"><title>1450&#45;&gt;1468</title>
<path fill="none" stroke="black" d="M92.5,-3175.89C92.5,-3167.43 92.5,-3158.86 92.5,-3150.45"/>
<polygon fill="black" stroke="black" points="96.0001,-3150.28 92.5,-3140.28 89.0001,-3150.28 96.0001,-3150.28"/>
</g>
<!-- 1469 -->
<g id="node11" class="node"><title>1469</title>
<polygon fill="none" stroke="black" points="178.5,-2961 6.5,-2961 6.5,-2878 178.5,-2878 178.5,-2961"/>
<text text-anchor="middle" x="92.5" y="-2945.8" font-family="Times,serif" font-size="14.00">0x4000cbc4fa</text>
<text text-anchor="middle" x="92.5" y="-2930.8" font-family="Times,serif" font-size="14.00">_______________________</text>
<text text-anchor="middle" x="92.5" y="-2915.8" font-family="Times,serif" font-size="14.00">_______________________</text>
<text text-anchor="middle" x="92.5" y="-2900.8" font-family="Times,serif" font-size="14.00">testb $2, 0x323603(%rip)</text>
<text text-anchor="middle" x="92.5" y="-2885.8" font-family="Times,serif" font-size="14.00">jne 0x4000cbc282</text>
</g>
<!-- 1468&#45;&gt;1469 -->
<g id="edge10" class="edge"><title>1468&#45;&gt;1469</title>
<path fill="none" stroke="black" d="M92.5,-2996.58C92.5,-2988.01 92.5,-2979.4 92.5,-2971.2"/>
<polygon fill="black" stroke="black" points="96.0001,-2971.08 92.5,-2961.08 89.0001,-2971.08 96.0001,-2971.08"/>
</g>
<!-- 1470 -->
<g id="node12" class="node"><title>1470</title>
<polygon fill="none" stroke="black" points="178.5,-2842 6.5,-2842 6.5,-2699 178.5,-2699 178.5,-2842"/>
<text text-anchor="middle" x="92.5" y="-2826.8" font-family="Times,serif" font-size="14.00">0x4000cbc507</text>
<text text-anchor="middle" x="92.5" y="-2811.8" font-family="Times,serif" font-size="14.00">_______________________</text>
<text text-anchor="middle" x="92.5" y="-2796.8" font-family="Times,serif" font-size="14.00">_______________________</text>
<text text-anchor="middle" x="92.5" y="-2781.8" font-family="Times,serif" font-size="14.00">nopw (%rax, %rax)</text>
<text text-anchor="middle" x="92.5" y="-2766.8" font-family="Times,serif" font-size="14.00">movq 8(%rsp), %rax</text>
<text text-anchor="middle" x="92.5" y="-2751.8" font-family="Times,serif" font-size="14.00">leaq (%r12, %rax), %r14</text>
<text text-anchor="middle" x="92.5" y="-2736.8" font-family="Times,serif" font-size="14.00">addq %rcx, %r14</text>
<text text-anchor="middle" x="92.5" y="-2721.8" font-family="Times,serif" font-size="14.00">andq 0x10(%rsp), %r14</text>
<text text-anchor="middle" x="92.5" y="-2706.8" font-family="Times,serif" font-size="14.00">jmp 0x4000cbc282</text>
</g>
<!-- 1469&#45;&gt;1470 -->
<g id="edge11" class="edge"><title>1469&#45;&gt;1470</title>
<path fill="none" stroke="black" d="M92.5,-2877.94C92.5,-2869.85 92.5,-2861.09 92.5,-2852.19"/>
<polygon fill="black" stroke="black" points="96.0001,-2852.11 92.5,-2842.11 89.0001,-2852.11 96.0001,-2852.11"/>
</g>
<!-- 1471 -->
<g id="node13" class="node"><title>1471</title>
<polygon fill="none" stroke="black" points="178.5,-2663 6.5,-2663 6.5,-2565 178.5,-2565 178.5,-2663"/>
<text text-anchor="middle" x="92.5" y="-2647.8" font-family="Times,serif" font-size="14.00">0x4000cbc282</text>
<text text-anchor="middle" x="92.5" y="-2632.8" font-family="Times,serif" font-size="14.00">_______________________</text>
<text text-anchor="middle" x="92.5" y="-2617.8" font-family="Times,serif" font-size="14.00">_______________________</text>
<text text-anchor="middle" x="92.5" y="-2602.8" font-family="Times,serif" font-size="14.00">cmpq $0xfffff, %r14</text>
<text text-anchor="middle" x="92.5" y="-2587.8" font-family="Times,serif" font-size="14.00">movq %r14, 0x18(%rsp)</text>
<text text-anchor="middle" x="92.5" y="-2572.8" font-family="Times,serif" font-size="14.00">ja 0x4000cbc29f</text>
</g>
<!-- 1470&#45;&gt;1471 -->
<g id="edge12" class="edge"><title>1470&#45;&gt;1471</title>
<path fill="none" stroke="black" d="M92.5,-2698.58C92.5,-2690.21 92.5,-2681.75 92.5,-2673.58"/>
<polygon fill="black" stroke="black" points="96.0001,-2673.42 92.5,-2663.42 89.0001,-2673.42 96.0001,-2673.42"/>
</g>
<!-- 1472 -->
<g id="node14" class="node"><title>1472</title>
<polygon fill="none" stroke="black" points="185,-2529 0,-2529 0,-2416 185,-2416 185,-2529"/>
<text text-anchor="middle" x="92.5" y="-2513.8" font-family="Times,serif" font-size="14.00">0x4000cbc290</text>
<text text-anchor="middle" x="92.5" y="-2498.8" font-family="Times,serif" font-size="14.00">_______________________</text>
<text text-anchor="middle" x="92.5" y="-2483.8" font-family="Times,serif" font-size="14.00">_______________________</text>
<text text-anchor="middle" x="92.5" y="-2468.8" font-family="Times,serif" font-size="14.00">movq $0x100000, 0x18(%rsp)</text>
<text text-anchor="middle" x="92.5" y="-2453.8" font-family="Times,serif" font-size="14.00">movl $0x100000, %r14d</text>
<text text-anchor="middle" x="92.5" y="-2438.8" font-family="Times,serif" font-size="14.00">cmpq 0x18(%rsp), %rbp</text>
<text text-anchor="middle" x="92.5" y="-2423.8" font-family="Times,serif" font-size="14.00">jae 0x4000cbc430</text>
</g>
<!-- 1471&#45;&gt;1472 -->
<g id="edge13" class="edge"><title>1471&#45;&gt;1472</title>
<path fill="none" stroke="black" d="M92.5,-2564.99C92.5,-2556.72 92.5,-2548 92.5,-2539.35"/>
<polygon fill="black" stroke="black" points="96.0001,-2539.28 92.5,-2529.28 89.0001,-2539.28 96.0001,-2539.28"/>
</g>
<!-- 1473 -->
<g id="node15" class="node"><title>1473</title>
<polygon fill="none" stroke="black" points="178.5,-2380 6.5,-2380 6.5,-2162 178.5,-2162 178.5,-2380"/>
<text text-anchor="middle" x="92.5" y="-2364.8" font-family="Times,serif" font-size="14.00">0x4000cbc2aa</text>
<text text-anchor="middle" x="92.5" y="-2349.8" font-family="Times,serif" font-size="14.00">_______________________</text>
<text text-anchor="middle" x="92.5" y="-2334.8" font-family="Times,serif" font-size="14.00">_______________________</text>
<text text-anchor="middle" x="92.5" y="-2319.8" font-family="Times,serif" font-size="14.00">movq 0x18(%rsp), %rsi</text>
<text text-anchor="middle" x="92.5" y="-2304.8" font-family="Times,serif" font-size="14.00">xorl %r9d, %r9d</text>
<text text-anchor="middle" x="92.5" y="-2289.8" font-family="Times,serif" font-size="14.00">movl $3, %edx</text>
<text text-anchor="middle" x="92.5" y="-2274.8" font-family="Times,serif" font-size="14.00">xorl %edi, %edi</text>
<text text-anchor="middle" x="92.5" y="-2259.8" font-family="Times,serif" font-size="14.00">movl $0xffffffff, %r8d</text>
<text text-anchor="middle" x="92.5" y="-2244.8" font-family="Times,serif" font-size="14.00">movl $0x22, %ecx</text>
<text text-anchor="middle" x="92.5" y="-2229.8" font-family="Times,serif" font-size="14.00">movb %r11b, 0x28(%rsp)</text>
<text text-anchor="middle" x="92.5" y="-2214.8" font-family="Times,serif" font-size="14.00">movq %r10, 0x20(%rsp)</text>
<text text-anchor="middle" x="92.5" y="-2199.8" font-family="Times,serif" font-size="14.00">callq 0x4000d29f60</text>
<text text-anchor="middle" x="92.5" y="-2184.8" font-family="Times,serif" font-size="14.00">_______________________</text>
<text text-anchor="middle" x="92.5" y="-2169.8" font-family="Times,serif" font-size="14.00">CALL mmap64</text>
</g>
<!-- 1472&#45;&gt;1473 -->
<g id="edge14" class="edge"><title>1472&#45;&gt;1473</title>
<path fill="none" stroke="black" d="M92.5,-2415.93C92.5,-2407.8 92.5,-2399.19 92.5,-2390.37"/>
<polygon fill="black" stroke="black" points="96.0001,-2390.35 92.5,-2380.35 89.0001,-2390.35 96.0001,-2390.35"/>
</g>
<!-- 1479 -->
<g id="node16" class="node"><title>1479</title>
<polygon fill="none" stroke="black" points="178.5,-2126 6.5,-2126 6.5,-1998 178.5,-1998 178.5,-2126"/>
<text text-anchor="middle" x="92.5" y="-2110.8" font-family="Times,serif" font-size="14.00">0x4000cbc2d3</text>
<text text-anchor="middle" x="92.5" y="-2095.8" font-family="Times,serif" font-size="14.00">_______________________</text>
<text text-anchor="middle" x="92.5" y="-2080.8" font-family="Times,serif" font-size="14.00">_______________________</text>
<text text-anchor="middle" x="92.5" y="-2065.8" font-family="Times,serif" font-size="14.00">cmpq $0xff, %rax</text>
<text text-anchor="middle" x="92.5" y="-2050.8" font-family="Times,serif" font-size="14.00">movq %rax, %rdx</text>
<text text-anchor="middle" x="92.5" y="-2035.8" font-family="Times,serif" font-size="14.00">movq 0x20(%rsp), %r10</text>
<text text-anchor="middle" x="92.5" y="-2020.8" font-family="Times,serif" font-size="14.00">movzbl 0x28(%rsp), %r11d</text>
<text text-anchor="middle" x="92.5" y="-2005.8" font-family="Times,serif" font-size="14.00">je 0x4000cbc430</text>
</g>
<!-- 1473&#45;&gt;1479 -->
<g id="edge15" class="edge"><title>1473&#45;&gt;1479</title>
<path fill="none" stroke="black" d="M92.5,-2161.95C92.5,-2153.24 92.5,-2144.57 92.5,-2136.19"/>
<polygon fill="black" stroke="black" points="96.0001,-2136.14 92.5,-2126.14 89.0001,-2136.14 96.0001,-2136.14"/>
</g>
<!-- 1480 -->
<g id="node17" class="node"><title>1480</title>
<polygon fill="none" stroke="black" points="178.5,-1962 6.5,-1962 6.5,-1864 178.5,-1864 178.5,-1962"/>
<text text-anchor="middle" x="92.5" y="-1946.8" font-family="Times,serif" font-size="14.00">0x4000cbc2eb</text>
<text text-anchor="middle" x="92.5" y="-1931.8" font-family="Times,serif" font-size="14.00">_______________________</text>
<text text-anchor="middle" x="92.5" y="-1916.8" font-family="Times,serif" font-size="14.00">_______________________</text>
<text text-anchor="middle" x="92.5" y="-1901.8" font-family="Times,serif" font-size="14.00">orl $2, 0x323812(%rip)</text>
<text text-anchor="middle" x="92.5" y="-1886.8" font-family="Times,serif" font-size="14.00">testq %rax, %rax</text>
<text text-anchor="middle" x="92.5" y="-1871.8" font-family="Times,serif" font-size="14.00">je 0x4000cbc430</text>
</g>
<!-- 1479&#45;&gt;1480 -->
<g id="edge16" class="edge"><title>1479&#45;&gt;1480</title>
<path fill="none" stroke="black" d="M92.5,-1997.81C92.5,-1989.29 92.5,-1980.58 92.5,-1972.15"/>
<polygon fill="black" stroke="black" points="96.0001,-1972.04 92.5,-1962.04 89.0001,-1972.04 96.0001,-1972.04"/>
</g>
<!-- 1481 -->
<g id="node18" class="node"><title>1481</title>
<polygon fill="none" stroke="black" points="178.5,-1828 6.5,-1828 6.5,-1715 178.5,-1715 178.5,-1828"/>
<text text-anchor="middle" x="92.5" y="-1812.8" font-family="Times,serif" font-size="14.00">0x4000cbc2fb</text>
<text text-anchor="middle" x="92.5" y="-1797.8" font-family="Times,serif" font-size="14.00">_______________________</text>
<text text-anchor="middle" x="92.5" y="-1782.8" font-family="Times,serif" font-size="14.00">_______________________</text>
<text text-anchor="middle" x="92.5" y="-1767.8" font-family="Times,serif" font-size="14.00">movq 0x18(%rsp), %rax</text>
<text text-anchor="middle" x="92.5" y="-1752.8" font-family="Times,serif" font-size="14.00">addq %rdx, %rax</text>
<text text-anchor="middle" x="92.5" y="-1737.8" font-family="Times,serif" font-size="14.00">sete %dil</text>
<text text-anchor="middle" x="92.5" y="-1722.8" font-family="Times,serif" font-size="14.00">jmp 0x4000cbc19d</text>
</g>
<!-- 1480&#45;&gt;1481 -->
<g id="edge17" class="edge"><title>1480&#45;&gt;1481</title>
<path fill="none" stroke="black" d="M92.5,-1863.99C92.5,-1855.72 92.5,-1847 92.5,-1838.35"/>
<polygon fill="black" stroke="black" points="96.0001,-1838.28 92.5,-1828.28 89.0001,-1838.28 96.0001,-1838.28"/>
</g>
<!-- 1482 -->
<g id="node19" class="node"><title>1482</title>
<polygon fill="none" stroke="black" points="178.5,-1679 6.5,-1679 6.5,-1596 178.5,-1596 178.5,-1679"/>
<text text-anchor="middle" x="92.5" y="-1663.8" font-family="Times,serif" font-size="14.00">0x4000cbc19d</text>
<text text-anchor="middle" x="92.5" y="-1648.8" font-family="Times,serif" font-size="14.00">_______________________</text>
<text text-anchor="middle" x="92.5" y="-1633.8" font-family="Times,serif" font-size="14.00">_______________________</text>
<text text-anchor="middle" x="92.5" y="-1618.8" font-family="Times,serif" font-size="14.00">cmpq $0, 0x323003(%rip)</text>
<text text-anchor="middle" x="92.5" y="-1603.8" font-family="Times,serif" font-size="14.00">je 0x4000cbc4b0</text>
</g>
<!-- 1481&#45;&gt;1482 -->
<g id="edge18" class="edge"><title>1481&#45;&gt;1482</title>
<path fill="none" stroke="black" d="M92.5,-1714.9C92.5,-1706.39 92.5,-1697.63 92.5,-1689.23"/>
<polygon fill="black" stroke="black" points="96.0001,-1689.19 92.5,-1679.19 89.0001,-1689.19 96.0001,-1689.19"/>
</g>
<!-- 1483 -->
<g id="node20" class="node"><title>1483</title>
<polygon fill="none" stroke="black" points="180.5,-1560 4.5,-1560 4.5,-1477 180.5,-1477 180.5,-1560"/>
<text text-anchor="middle" x="92.5" y="-1544.8" font-family="Times,serif" font-size="14.00">0x4000cbc4b0</text>
<text text-anchor="middle" x="92.5" y="-1529.8" font-family="Times,serif" font-size="14.00">_______________________</text>
<text text-anchor="middle" x="92.5" y="-1514.8" font-family="Times,serif" font-size="14.00">_______________________</text>
<text text-anchor="middle" x="92.5" y="-1499.8" font-family="Times,serif" font-size="14.00">movq %rdx, 0x322cf1(%rip)</text>
<text text-anchor="middle" x="92.5" y="-1484.8" font-family="Times,serif" font-size="14.00">jmp 0x4000cbc1ab</text>
</g>
<!-- 1482&#45;&gt;1483 -->
<g id="edge19" class="edge"><title>1482&#45;&gt;1483</title>
<path fill="none" stroke="black" d="M92.5,-1595.91C92.5,-1587.65 92.5,-1578.86 92.5,-1570.3"/>
<polygon fill="black" stroke="black" points="96.0001,-1570.02 92.5,-1560.02 89.0001,-1570.02 96.0001,-1570.02"/>
</g>
<!-- 1484 -->
<g id="node21" class="node"><title>1484</title>
<polygon fill="none" stroke="black" points="179.5,-1441 5.5,-1441 5.5,-1313 179.5,-1313 179.5,-1441"/>
<text text-anchor="middle" x="92.5" y="-1425.8" font-family="Times,serif" font-size="14.00">0x4000cbc1ab</text>
<text text-anchor="middle" x="92.5" y="-1410.8" font-family="Times,serif" font-size="14.00">_______________________</text>
<text text-anchor="middle" x="92.5" y="-1395.8" font-family="Times,serif" font-size="14.00">_______________________</text>
<text text-anchor="middle" x="92.5" y="-1380.8" font-family="Times,serif" font-size="14.00">movq %r14, %rsi</text>
<text text-anchor="middle" x="92.5" y="-1365.8" font-family="Times,serif" font-size="14.00">addq 0x3241cb(%rip), %rsi</text>
<text text-anchor="middle" x="92.5" y="-1350.8" font-family="Times,serif" font-size="14.00">cmpq %rdx, %r10</text>
<text text-anchor="middle" x="92.5" y="-1335.8" font-family="Times,serif" font-size="14.00">movq %rsi, 0x3241c1(%rip)</text>
<text text-anchor="middle" x="92.5" y="-1320.8" font-family="Times,serif" font-size="14.00">jne 0x4000cbc310</text>
</g>
<!-- 1483&#45;&gt;1484 -->
<g id="edge20" class="edge"><title>1483&#45;&gt;1484</title>
<path fill="none" stroke="black" d="M92.5,-1476.78C92.5,-1468.74 92.5,-1460.08 92.5,-1451.35"/>
<polygon fill="black" stroke="black" points="96.0001,-1451.09 92.5,-1441.09 89.0001,-1451.09 96.0001,-1451.09"/>
</g>
<!-- 1485 -->
<g id="node22" class="node"><title>1485</title>
<polygon fill="none" stroke="black" points="178.5,-1277 6.5,-1277 6.5,-1194 178.5,-1194 178.5,-1277"/>
<text text-anchor="middle" x="92.5" y="-1261.8" font-family="Times,serif" font-size="14.00">0x4000cbc310</text>
<text text-anchor="middle" x="92.5" y="-1246.8" font-family="Times,serif" font-size="14.00">_______________________</text>
<text text-anchor="middle" x="92.5" y="-1231.8" font-family="Times,serif" font-size="14.00">_______________________</text>
<text text-anchor="middle" x="92.5" y="-1216.8" font-family="Times,serif" font-size="14.00">testb $2, 0x3237ed(%rip)</text>
<text text-anchor="middle" x="92.5" y="-1201.8" font-family="Times,serif" font-size="14.00">jne 0x4000cbc460</text>
</g>
<!-- 1484&#45;&gt;1485 -->
<g id="edge21" class="edge"><title>1484&#45;&gt;1485</title>
<path fill="none" stroke="black" d="M92.5,-1312.78C92.5,-1304.26 92.5,-1295.62 92.5,-1287.35"/>
<polygon fill="black" stroke="black" points="96.0001,-1287.13 92.5,-1277.13 89.0001,-1287.13 96.0001,-1287.13"/>
</g>
<!-- 1486 -->
<g id="node23" class="node"><title>1486</title>
<polygon fill="none" stroke="black" points="178.5,-1158 6.5,-1158 6.5,-1075 178.5,-1075 178.5,-1158"/>
<text text-anchor="middle" x="92.5" y="-1142.8" font-family="Times,serif" font-size="14.00">0x4000cbc460</text>
<text text-anchor="middle" x="92.5" y="-1127.8" font-family="Times,serif" font-size="14.00">_______________________</text>
<text text-anchor="middle" x="92.5" y="-1112.8" font-family="Times,serif" font-size="14.00">_______________________</text>
<text text-anchor="middle" x="92.5" y="-1097.8" font-family="Times,serif" font-size="14.00">testb $0xf, %dl</text>
<text text-anchor="middle" x="92.5" y="-1082.8" font-family="Times,serif" font-size="14.00">jne 0x4000cbc646</text>
</g>
<!-- 1485&#45;&gt;1486 -->
<g id="edge22" class="edge"><title>1485&#45;&gt;1486</title>
<path fill="none" stroke="black" d="M92.5,-1193.91C92.5,-1185.65 92.5,-1176.86 92.5,-1168.3"/>
<polygon fill="black" stroke="black" points="96.0001,-1168.02 92.5,-1158.02 89.0001,-1168.02 96.0001,-1168.02"/>
</g>
<!-- 1487 -->
<g id="node24" class="node"><title>1487</title>
<polygon fill="none" stroke="black" points="178.5,-1039 6.5,-1039 6.5,-926 178.5,-926 178.5,-1039"/>
<text text-anchor="middle" x="92.5" y="-1023.8" font-family="Times,serif" font-size="14.00">0x4000cbc469</text>
<text text-anchor="middle" x="92.5" y="-1008.8" font-family="Times,serif" font-size="14.00">_______________________</text>
<text text-anchor="middle" x="92.5" y="-993.8" font-family="Times,serif" font-size="14.00">_______________________</text>
<text text-anchor="middle" x="92.5" y="-978.8" font-family="Times,serif" font-size="14.00">xorl %r14d, %r14d</text>
<text text-anchor="middle" x="92.5" y="-963.8" font-family="Times,serif" font-size="14.00">xorl %r9d, %r9d</text>
<text text-anchor="middle" x="92.5" y="-948.8" font-family="Times,serif" font-size="14.00">testq %rax, %rax</text>
<text text-anchor="middle" x="92.5" y="-933.8" font-family="Times,serif" font-size="14.00">jne 0x4000cbc3c5</text>
</g>
<!-- 1486&#45;&gt;1487 -->
<g id="edge23" class="edge"><title>1486&#45;&gt;1487</title>
<path fill="none" stroke="black" d="M92.5,-1074.82C92.5,-1066.76 92.5,-1058.11 92.5,-1049.46"/>
<polygon fill="black" stroke="black" points="96.0001,-1049.34 92.5,-1039.34 89.0001,-1049.34 96.0001,-1049.34"/>
</g>
<!-- 1488 -->
<g id="node25" class="node"><title>1488</title>
<polygon fill="none" stroke="black" points="182,-890 3,-890 3,-702 182,-702 182,-890"/>
<text text-anchor="middle" x="92.5" y="-874.8" font-family="Times,serif" font-size="14.00">0x4000cbc3c5</text>
<text text-anchor="middle" x="92.5" y="-859.8" font-family="Times,serif" font-size="14.00">_______________________</text>
<text text-anchor="middle" x="92.5" y="-844.8" font-family="Times,serif" font-size="14.00">_______________________</text>
<text text-anchor="middle" x="92.5" y="-829.8" font-family="Times,serif" font-size="14.00">subq %rdx, %rax</text>
<text text-anchor="middle" x="92.5" y="-814.8" font-family="Times,serif" font-size="14.00">addq %r14, %rsi</text>
<text text-anchor="middle" x="92.5" y="-799.8" font-family="Times,serif" font-size="14.00">movq %rdx, 0x323786(%rip)</text>
<text text-anchor="middle" x="92.5" y="-784.8" font-family="Times,serif" font-size="14.00">addq %r9, %rax</text>
<text text-anchor="middle" x="92.5" y="-769.8" font-family="Times,serif" font-size="14.00">orq $1, %rax</text>
<text text-anchor="middle" x="92.5" y="-754.8" font-family="Times,serif" font-size="14.00">testq %r12, %r12</text>
<text text-anchor="middle" x="92.5" y="-739.8" font-family="Times,serif" font-size="14.00">movq %rax, 8(%rdx)</text>
<text text-anchor="middle" x="92.5" y="-724.8" font-family="Times,serif" font-size="14.00">movq %rsi, 0x323f99(%rip)</text>
<text text-anchor="middle" x="92.5" y="-709.8" font-family="Times,serif" font-size="14.00">je 0x4000cbbea7</text>
</g>
<!-- 1487&#45;&gt;1488 -->
<g id="edge24" class="edge"><title>1487&#45;&gt;1488</title>
<path fill="none" stroke="black" d="M92.5,-925.894C92.5,-917.645 92.5,-908.93 92.5,-900.079"/>
<polygon fill="black" stroke="black" points="96.0001,-900.048 92.5,-890.048 89.0001,-900.048 96.0001,-900.048"/>
</g>
<!-- 1489 -->
<g id="node26" class="node"><title>1489</title>
<polygon fill="none" stroke="black" points="178.5,-666 6.5,-666 6.5,-583 178.5,-583 178.5,-666"/>
<text text-anchor="middle" x="92.5" y="-650.8" font-family="Times,serif" font-size="14.00">0x4000cbbea7</text>
<text text-anchor="middle" x="92.5" y="-635.8" font-family="Times,serif" font-size="14.00">_______________________</text>
<text text-anchor="middle" x="92.5" y="-620.8" font-family="Times,serif" font-size="14.00">_______________________</text>
<text text-anchor="middle" x="92.5" y="-605.8" font-family="Times,serif" font-size="14.00">cmpq %rsi, 0x888(%rbx)</text>
<text text-anchor="middle" x="92.5" y="-590.8" font-family="Times,serif" font-size="14.00">jae 0x4000cbbeb7</text>
</g>
<!-- 1488&#45;&gt;1489 -->
<g id="edge25" class="edge"><title>1488&#45;&gt;1489</title>
<path fill="none" stroke="black" d="M92.5,-701.821C92.5,-693.058 92.5,-684.417 92.5,-676.277"/>
<polygon fill="black" stroke="black" points="96.0001,-676.263 92.5,-666.263 89.0001,-676.263 96.0001,-676.263"/>
</g>
<!-- 1490 -->
<g id="node27" class="node"><title>1490</title>
<polygon fill="none" stroke="black" points="178.5,-547 6.5,-547 6.5,-419 178.5,-419 178.5,-547"/>
<text text-anchor="middle" x="92.5" y="-531.8" font-family="Times,serif" font-size="14.00">0x4000cbbeb0</text>
<text text-anchor="middle" x="92.5" y="-516.8" font-family="Times,serif" font-size="14.00">_______________________</text>
<text text-anchor="middle" x="92.5" y="-501.8" font-family="Times,serif" font-size="14.00">_______________________</text>
<text text-anchor="middle" x="92.5" y="-486.8" font-family="Times,serif" font-size="14.00">movq %rsi, 0x888(%rbx)</text>
<text text-anchor="middle" x="92.5" y="-471.8" font-family="Times,serif" font-size="14.00">movq 8(%rdx), %rax</text>
<text text-anchor="middle" x="92.5" y="-456.8" font-family="Times,serif" font-size="14.00">andq $0xfffffff8, %rax</text>
<text text-anchor="middle" x="92.5" y="-441.8" font-family="Times,serif" font-size="14.00">cmpq %rax, %r15</text>
<text text-anchor="middle" x="92.5" y="-426.8" font-family="Times,serif" font-size="14.00">ja 0x4000cbc220</text>
</g>
<!-- 1489&#45;&gt;1490 -->
<g id="edge26" class="edge"><title>1489&#45;&gt;1490</title>
<path fill="none" stroke="black" d="M92.5,-582.776C92.5,-574.741 92.5,-566.081 92.5,-557.346"/>
<polygon fill="black" stroke="black" points="96.0001,-557.09 92.5,-547.09 89.0001,-557.09 96.0001,-557.09"/>
</g>
<!-- 1491 -->
<g id="node28" class="node"><title>1491</title>
<polygon fill="none" stroke="black" points="178.5,-383 6.5,-383 6.5,-0 178.5,-0 178.5,-383"/>
<text text-anchor="middle" x="92.5" y="-367.8" font-family="Times,serif" font-size="14.00">0x4000cbbec8</text>
<text text-anchor="middle" x="92.5" y="-352.8" font-family="Times,serif" font-size="14.00">_______________________</text>
<text text-anchor="middle" x="92.5" y="-337.8" font-family="Times,serif" font-size="14.00">_______________________</text>
<text text-anchor="middle" x="92.5" y="-322.8" font-family="Times,serif" font-size="14.00">leaq 0x323c31(%rip), %rdi</text>
<text text-anchor="middle" x="92.5" y="-307.8" font-family="Times,serif" font-size="14.00">subq %rbp, %rax</text>
<text text-anchor="middle" x="92.5" y="-292.8" font-family="Times,serif" font-size="14.00">xorl %ecx, %ecx</text>
<text text-anchor="middle" x="92.5" y="-277.8" font-family="Times,serif" font-size="14.00">leaq (%rdx, %rbp), %rsi</text>
<text text-anchor="middle" x="92.5" y="-262.8" font-family="Times,serif" font-size="14.00">cmpq %rdi, %rbx</text>
<text text-anchor="middle" x="92.5" y="-247.8" font-family="Times,serif" font-size="14.00">setne %cl</text>
<text text-anchor="middle" x="92.5" y="-232.8" font-family="Times,serif" font-size="14.00">orq $1, %rbp</text>
<text text-anchor="middle" x="92.5" y="-217.8" font-family="Times,serif" font-size="14.00">orq $1, %rax</text>
<text text-anchor="middle" x="92.5" y="-202.8" font-family="Times,serif" font-size="14.00">shlq $2, %rcx</text>
<text text-anchor="middle" x="92.5" y="-187.8" font-family="Times,serif" font-size="14.00">movq %rsi, 0x58(%rbx)</text>
<text text-anchor="middle" x="92.5" y="-172.8" font-family="Times,serif" font-size="14.00">orq %rcx, %rbp</text>
<text text-anchor="middle" x="92.5" y="-157.8" font-family="Times,serif" font-size="14.00">movq %rbp, 8(%rdx)</text>
<text text-anchor="middle" x="92.5" y="-142.8" font-family="Times,serif" font-size="14.00">movq %rax, 8(%rsi)</text>
<text text-anchor="middle" x="92.5" y="-127.8" font-family="Times,serif" font-size="14.00">leaq 0x10(%rdx), %rax</text>
<text text-anchor="middle" x="92.5" y="-112.8" font-family="Times,serif" font-size="14.00">addq $0x48, %rsp</text>
<text text-anchor="middle" x="92.5" y="-97.8" font-family="Times,serif" font-size="14.00">popq %rbx</text>
<text text-anchor="middle" x="92.5" y="-82.8" font-family="Times,serif" font-size="14.00">popq %rbp</text>
<text text-anchor="middle" x="92.5" y="-67.8" font-family="Times,serif" font-size="14.00">popq %r12</text>
<text text-anchor="middle" x="92.5" y="-52.8" font-family="Times,serif" font-size="14.00">popq %r13</text>
<text text-anchor="middle" x="92.5" y="-37.8" font-family="Times,serif" font-size="14.00">popq %r14</text>
<text text-anchor="middle" x="92.5" y="-22.8" font-family="Times,serif" font-size="14.00">popq %r15</text>
<text text-anchor="middle" x="92.5" y="-7.8" font-family="Times,serif" font-size="14.00">retq </text>
</g>
<!-- 1490&#45;&gt;1491 -->
<g id="edge27" class="edge"><title>1490&#45;&gt;1491</title>
<path fill="none" stroke="black" d="M92.5,-418.826C92.5,-410.787 92.5,-402.25 92.5,-393.381"/>
<polygon fill="black" stroke="black" points="96.0001,-393.234 92.5,-383.234 89.0001,-393.234 96.0001,-393.234"/>
</g>
</g>
</svg>
