<?xml version="1.0" encoding="UTF-8" standalone="no"?>
<!DOCTYPE svg PUBLIC "-//W3C//DTD SVG 1.1//EN"
 "http://www.w3.org/Graphics/SVG/1.1/DTD/svg11.dtd">
<!-- Generated by graphviz version 2.38.0 (20140413.2041)
 -->
<!-- Title: %3 Pages: 1 -->
<svg width="192pt" height="539pt"
 viewBox="0.00 0.00 192.00 539.00" xmlns="http://www.w3.org/2000/svg" xmlns:xlink="http://www.w3.org/1999/xlink">
<g id="graph0" class="graph" transform="scale(1 1) rotate(0) translate(4 535)">
<title>%3</title>
<polygon fill="white" stroke="none" points="-4,4 -4,-535 188,-535 188,4 -4,4"/>
<!-- 1312 -->
<g id="node1" class="node"><title>1312</title>
<polygon fill="none" stroke="black" points="184,-531 0,-531 0,-358 184,-358 184,-531"/>
<text text-anchor="middle" x="92" y="-515.8" font-family="Times,serif" font-size="14.00">0x4000cce050</text>
<text text-anchor="middle" x="92" y="-500.8" font-family="Times,serif" font-size="14.00">_______________________</text>
<text text-anchor="middle" x="92" y="-485.8" font-family="Times,serif" font-size="14.00">_______________________</text>
<text text-anchor="middle" x="92" y="-470.8" font-family="Times,serif" font-size="14.00">movd %esi, %xmm1</text>
<text text-anchor="middle" x="92" y="-455.8" font-family="Times,serif" font-size="14.00">movl %edi, %eax</text>
<text text-anchor="middle" x="92" y="-440.8" font-family="Times,serif" font-size="14.00">andl $0xfff, %eax</text>
<text text-anchor="middle" x="92" y="-425.8" font-family="Times,serif" font-size="14.00">punpcklbw %xmm1, %xmm1</text>
<text text-anchor="middle" x="92" y="-410.8" font-family="Times,serif" font-size="14.00">cmpl $0xfc0, %eax</text>
<text text-anchor="middle" x="92" y="-395.8" font-family="Times,serif" font-size="14.00">punpcklwd %xmm1, %xmm1</text>
<text text-anchor="middle" x="92" y="-380.8" font-family="Times,serif" font-size="14.00">pshufd $0, %xmm1, %xmm1</text>
<text text-anchor="middle" x="92" y="-365.8" font-family="Times,serif" font-size="14.00">jg 0x4000cce1c0</text>
</g>
<!-- 1313 -->
<g id="node2" class="node"><title>1313</title>
<polygon fill="none" stroke="black" points="179,-322 5,-322 5,-134 179,-134 179,-322"/>
<text text-anchor="middle" x="92" y="-306.8" font-family="Times,serif" font-size="14.00">0x4000cce073</text>
<text text-anchor="middle" x="92" y="-291.8" font-family="Times,serif" font-size="14.00">_______________________</text>
<text text-anchor="middle" x="92" y="-276.8" font-family="Times,serif" font-size="14.00">_______________________</text>
<text text-anchor="middle" x="92" y="-261.8" font-family="Times,serif" font-size="14.00">movdqu (%rdi), %xmm0</text>
<text text-anchor="middle" x="92" y="-246.8" font-family="Times,serif" font-size="14.00">pxor %xmm3, %xmm3</text>
<text text-anchor="middle" x="92" y="-231.8" font-family="Times,serif" font-size="14.00">movdqa %xmm0, %xmm4</text>
<text text-anchor="middle" x="92" y="-216.8" font-family="Times,serif" font-size="14.00">pcmpeqb %xmm1, %xmm0</text>
<text text-anchor="middle" x="92" y="-201.8" font-family="Times,serif" font-size="14.00">pcmpeqb %xmm3, %xmm4</text>
<text text-anchor="middle" x="92" y="-186.8" font-family="Times,serif" font-size="14.00">por %xmm4, %xmm0</text>
<text text-anchor="middle" x="92" y="-171.8" font-family="Times,serif" font-size="14.00">pmovmskb %xmm0, %eax</text>
<text text-anchor="middle" x="92" y="-156.8" font-family="Times,serif" font-size="14.00">testl %eax, %eax</text>
<text text-anchor="middle" x="92" y="-141.8" font-family="Times,serif" font-size="14.00">je 0x4000cce0a0</text>
</g>
<!-- 1312&#45;&gt;1313 -->
<g id="edge1" class="edge"><title>1312&#45;&gt;1313</title>
<path fill="none" stroke="black" d="M92,-357.799C92,-349.503 92,-341.028 92,-332.582"/>
<polygon fill="black" stroke="black" points="95.5001,-332.31 92,-322.31 88.5001,-332.31 95.5001,-332.31"/>
</g>
<!-- 1314 -->
<g id="node3" class="node"><title>1314</title>
<polygon fill="none" stroke="black" points="178,-98 6,-98 6,-0 178,-0 178,-98"/>
<text text-anchor="middle" x="92" y="-82.8" font-family="Times,serif" font-size="14.00">0x4000cce093</text>
<text text-anchor="middle" x="92" y="-67.8" font-family="Times,serif" font-size="14.00">_______________________</text>
<text text-anchor="middle" x="92" y="-52.8" font-family="Times,serif" font-size="14.00">_______________________</text>
<text text-anchor="middle" x="92" y="-37.8" font-family="Times,serif" font-size="14.00">bsfl %eax, %eax</text>
<text text-anchor="middle" x="92" y="-22.8" font-family="Times,serif" font-size="14.00">leaq (%rdi, %rax), %rax</text>
<text text-anchor="middle" x="92" y="-7.8" font-family="Times,serif" font-size="14.00">retq </text>
</g>
<!-- 1313&#45;&gt;1314 -->
<g id="edge2" class="edge"><title>1313&#45;&gt;1314</title>
<path fill="none" stroke="black" d="M92,-133.835C92,-125.168 92,-116.561 92,-108.348"/>
<polygon fill="black" stroke="black" points="95.5001,-108.18 92,-98.1797 88.5001,-108.18 95.5001,-108.18"/>
</g>
</g>
</svg>
