<?xml version="1.0" encoding="UTF-8" standalone="no"?>
<!DOCTYPE svg PUBLIC "-//W3C//DTD SVG 1.1//EN"
 "http://www.w3.org/Graphics/SVG/1.1/DTD/svg11.dtd">
<!-- Generated by graphviz version 2.38.0 (20140413.2041)
 -->
<!-- Title: %3 Pages: 1 -->
<svg width="185pt" height="225pt"
 viewBox="0.00 0.00 185.00 225.00" xmlns="http://www.w3.org/2000/svg" xmlns:xlink="http://www.w3.org/1999/xlink">
<g id="graph0" class="graph" transform="scale(1 1) rotate(0) translate(4 221)">
<title>%3</title>
<polygon fill="white" stroke="none" points="-4,4 -4,-221 181,-221 181,4 -4,4"/>
<!-- 1090 -->
<g id="node1" class="node"><title>1090</title>
<polygon fill="none" stroke="black" points="177,-217 0,-217 0,-104 177,-104 177,-217"/>
<text text-anchor="middle" x="88.5" y="-201.8" font-family="Times,serif" font-size="14.00">0x4000cc3a70</text>
<text text-anchor="middle" x="88.5" y="-186.8" font-family="Times,serif" font-size="14.00">_______________________</text>
<text text-anchor="middle" x="88.5" y="-171.8" font-family="Times,serif" font-size="14.00">_______________________</text>
<text text-anchor="middle" x="88.5" y="-156.8" font-family="Times,serif" font-size="14.00">movq 0x31b3f1(%rip), %rdx</text>
<text text-anchor="middle" x="88.5" y="-141.8" font-family="Times,serif" font-size="14.00">leaq 0x22(%rip), %rax</text>
<text text-anchor="middle" x="88.5" y="-126.8" font-family="Times,serif" font-size="14.00">testl $0x100000, 0x80(%rdx)</text>
<text text-anchor="middle" x="88.5" y="-111.8" font-family="Times,serif" font-size="14.00">je 0x4000cc3a91</text>
</g>
<!-- 1091 -->
<g id="node2" class="node"><title>1091</title>
<polygon fill="none" stroke="black" points="174.5,-68 2.5,-68 2.5,-0 174.5,-0 174.5,-68"/>
<text text-anchor="middle" x="88.5" y="-52.8" font-family="Times,serif" font-size="14.00">0x4000cc3a91</text>
<text text-anchor="middle" x="88.5" y="-37.8" font-family="Times,serif" font-size="14.00">_______________________</text>
<text text-anchor="middle" x="88.5" y="-22.8" font-family="Times,serif" font-size="14.00">_______________________</text>
<text text-anchor="middle" x="88.5" y="-7.8" font-family="Times,serif" font-size="14.00">retq </text>
</g>
<!-- 1090&#45;&gt;1091 -->
<g id="edge1" class="edge"><title>1090&#45;&gt;1091</title>
<path fill="none" stroke="black" d="M88.5,-103.805C88.5,-95.2463 88.5,-86.5209 88.5,-78.2851"/>
<polygon fill="black" stroke="black" points="92.0001,-78.1644 88.5,-68.1644 85.0001,-78.1645 92.0001,-78.1644"/>
</g>
</g>
</svg>
