<?xml version="1.0" encoding="UTF-8" standalone="no"?>
<!DOCTYPE svg PUBLIC "-//W3C//DTD SVG 1.1//EN"
 "http://www.w3.org/Graphics/SVG/1.1/DTD/svg11.dtd">
<!-- Generated by graphviz version 2.38.0 (20140413.2041)
 -->
<!-- Title: %3 Pages: 1 -->
<svg width="196pt" height="2074pt"
 viewBox="0.00 0.00 196.00 2074.00" xmlns="http://www.w3.org/2000/svg" xmlns:xlink="http://www.w3.org/1999/xlink">
<g id="graph0" class="graph" transform="scale(1 1) rotate(0) translate(4 2070)">
<title>%3</title>
<polygon fill="white" stroke="none" points="-4,4 -4,-2070 192,-2070 192,4 -4,4"/>
<!-- 1706 -->
<g id="node1" class="node"><title>1706</title>
<polygon fill="none" stroke="black" points="183.5,-2066 4.5,-2066 4.5,-1833 183.5,-1833 183.5,-2066"/>
<text text-anchor="middle" x="94" y="-2050.8" font-family="Times,serif" font-size="14.00">0x4000c78a00</text>
<text text-anchor="middle" x="94" y="-2035.8" font-family="Times,serif" font-size="14.00">_______________________</text>
<text text-anchor="middle" x="94" y="-2020.8" font-family="Times,serif" font-size="14.00">_______________________</text>
<text text-anchor="middle" x="94" y="-2005.8" font-family="Times,serif" font-size="14.00">pushq %r15</text>
<text text-anchor="middle" x="94" y="-1990.8" font-family="Times,serif" font-size="14.00">pushq %r14</text>
<text text-anchor="middle" x="94" y="-1975.8" font-family="Times,serif" font-size="14.00">pushq %r13</text>
<text text-anchor="middle" x="94" y="-1960.8" font-family="Times,serif" font-size="14.00">pushq %r12</text>
<text text-anchor="middle" x="94" y="-1945.8" font-family="Times,serif" font-size="14.00">xorl %r13d, %r13d</text>
<text text-anchor="middle" x="94" y="-1930.8" font-family="Times,serif" font-size="14.00">pushq %rbp</text>
<text text-anchor="middle" x="94" y="-1915.8" font-family="Times,serif" font-size="14.00">pushq %rbx</text>
<text text-anchor="middle" x="94" y="-1900.8" font-family="Times,serif" font-size="14.00">movq %rdi, %rbp</text>
<text text-anchor="middle" x="94" y="-1885.8" font-family="Times,serif" font-size="14.00">subq $8, %rsp</text>
<text text-anchor="middle" x="94" y="-1870.8" font-family="Times,serif" font-size="14.00">movq 0x366bbd(%rip), %r14</text>
<text text-anchor="middle" x="94" y="-1855.8" font-family="Times,serif" font-size="14.00">testq %r14, %r14</text>
<text text-anchor="middle" x="94" y="-1840.8" font-family="Times,serif" font-size="14.00">je 0x4000c78ab4</text>
</g>
<!-- 1707 -->
<g id="node2" class="node"><title>1707</title>
<polygon fill="none" stroke="black" points="188,-1797 -1.42109e-14,-1797 -1.42109e-14,-1639 188,-1639 188,-1797"/>
<text text-anchor="middle" x="94" y="-1781.8" font-family="Times,serif" font-size="14.00">0x4000c78a24</text>
<text text-anchor="middle" x="94" y="-1766.8" font-family="Times,serif" font-size="14.00">_______________________</text>
<text text-anchor="middle" x="94" y="-1751.8" font-family="Times,serif" font-size="14.00">_______________________</text>
<text text-anchor="middle" x="94" y="-1736.8" font-family="Times,serif" font-size="14.00">nopl (%rax)</text>
<text text-anchor="middle" x="94" y="-1721.8" font-family="Times,serif" font-size="14.00">movq 8(%r14), %rax</text>
<text text-anchor="middle" x="94" y="-1706.8" font-family="Times,serif" font-size="14.00">leaq 0x10(%r14), %r12</text>
<text text-anchor="middle" x="94" y="-1691.8" font-family="Times,serif" font-size="14.00">shlq $5, %rax</text>
<text text-anchor="middle" x="94" y="-1676.8" font-family="Times,serif" font-size="14.00">leaq &#45;0x10(%r14, %rax), %rbx</text>
<text text-anchor="middle" x="94" y="-1661.8" font-family="Times,serif" font-size="14.00">cmpq %r12, %rbx</text>
<text text-anchor="middle" x="94" y="-1646.8" font-family="Times,serif" font-size="14.00">jae 0x4000c78a4f</text>
</g>
<!-- 1706&#45;&gt;1707 -->
<g id="edge1" class="edge"><title>1706&#45;&gt;1707</title>
<path fill="none" stroke="black" d="M94,-1832.74C94,-1824.19 94,-1815.64 94,-1807.29"/>
<polygon fill="black" stroke="black" points="97.5001,-1807.22 94,-1797.22 90.5001,-1807.22 97.5001,-1807.22"/>
</g>
<!-- 1708 -->
<g id="node3" class="node"><title>1708</title>
<polygon fill="none" stroke="black" points="180,-1603 8,-1603 8,-1535 180,-1535 180,-1603"/>
<text text-anchor="middle" x="94" y="-1587.8" font-family="Times,serif" font-size="14.00">0x4000c78a3e</text>
<text text-anchor="middle" x="94" y="-1572.8" font-family="Times,serif" font-size="14.00">_______________________</text>
<text text-anchor="middle" x="94" y="-1557.8" font-family="Times,serif" font-size="14.00">_______________________</text>
<text text-anchor="middle" x="94" y="-1542.8" font-family="Times,serif" font-size="14.00">jmp 0x4000c78aa8</text>
</g>
<!-- 1707&#45;&gt;1708 -->
<g id="edge2" class="edge"><title>1707&#45;&gt;1708</title>
<path fill="none" stroke="black" d="M94,-1638.77C94,-1630.09 94,-1621.5 94,-1613.49"/>
<polygon fill="black" stroke="black" points="97.5001,-1613.32 94,-1603.32 90.5001,-1613.32 97.5001,-1613.32"/>
</g>
<!-- 1709 -->
<g id="node4" class="node"><title>1709</title>
<polygon fill="none" stroke="black" points="180,-1499 8,-1499 8,-1401 180,-1401 180,-1499"/>
<text text-anchor="middle" x="94" y="-1483.8" font-family="Times,serif" font-size="14.00">0x4000c78aa8</text>
<text text-anchor="middle" x="94" y="-1468.8" font-family="Times,serif" font-size="14.00">_______________________</text>
<text text-anchor="middle" x="94" y="-1453.8" font-family="Times,serif" font-size="14.00">_______________________</text>
<text text-anchor="middle" x="94" y="-1438.8" font-family="Times,serif" font-size="14.00">movq (%r14), %r14</text>
<text text-anchor="middle" x="94" y="-1423.8" font-family="Times,serif" font-size="14.00">testq %r14, %r14</text>
<text text-anchor="middle" x="94" y="-1408.8" font-family="Times,serif" font-size="14.00">jne 0x4000c78a28</text>
</g>
<!-- 1708&#45;&gt;1709 -->
<g id="edge3" class="edge"><title>1708&#45;&gt;1709</title>
<path fill="none" stroke="black" d="M94,-1534.79C94,-1526.82 94,-1518.08 94,-1509.35"/>
<polygon fill="black" stroke="black" points="97.5001,-1509.15 94,-1499.15 90.5001,-1509.15 97.5001,-1509.15"/>
</g>
<!-- 1710 -->
<g id="node5" class="node"><title>1710</title>
<polygon fill="none" stroke="black" points="183.5,-1365 4.5,-1365 4.5,-1267 183.5,-1267 183.5,-1365"/>
<text text-anchor="middle" x="94" y="-1349.8" font-family="Times,serif" font-size="14.00">0x4000c78ab4</text>
<text text-anchor="middle" x="94" y="-1334.8" font-family="Times,serif" font-size="14.00">_______________________</text>
<text text-anchor="middle" x="94" y="-1319.8" font-family="Times,serif" font-size="14.00">_______________________</text>
<text text-anchor="middle" x="94" y="-1304.8" font-family="Times,serif" font-size="14.00">movq 0x366b25(%rip), %rcx</text>
<text text-anchor="middle" x="94" y="-1289.8" font-family="Times,serif" font-size="14.00">testq %rcx, %rcx</text>
<text text-anchor="middle" x="94" y="-1274.8" font-family="Times,serif" font-size="14.00">je 0x4000c78b0c</text>
</g>
<!-- 1709&#45;&gt;1710 -->
<g id="edge4" class="edge"><title>1709&#45;&gt;1710</title>
<path fill="none" stroke="black" d="M94,-1400.97C94,-1392.69 94,-1384 94,-1375.48"/>
<polygon fill="black" stroke="black" points="97.5001,-1375.21 94,-1365.21 90.5001,-1375.21 97.5001,-1375.21"/>
</g>
<!-- 1711 -->
<g id="node6" class="node"><title>1711</title>
<polygon fill="none" stroke="black" points="187,-1231 1,-1231 1,-1088 187,-1088 187,-1231"/>
<text text-anchor="middle" x="94" y="-1215.8" font-family="Times,serif" font-size="14.00">0x4000c78ac0</text>
<text text-anchor="middle" x="94" y="-1200.8" font-family="Times,serif" font-size="14.00">_______________________</text>
<text text-anchor="middle" x="94" y="-1185.8" font-family="Times,serif" font-size="14.00">_______________________</text>
<text text-anchor="middle" x="94" y="-1170.8" font-family="Times,serif" font-size="14.00">movq 8(%rcx), %rax</text>
<text text-anchor="middle" x="94" y="-1155.8" font-family="Times,serif" font-size="14.00">leaq 0x10(%rcx), %rdx</text>
<text text-anchor="middle" x="94" y="-1140.8" font-family="Times,serif" font-size="14.00">shlq $5, %rax</text>
<text text-anchor="middle" x="94" y="-1125.8" font-family="Times,serif" font-size="14.00">leaq &#45;0x10(%rcx, %rax), %rax</text>
<text text-anchor="middle" x="94" y="-1110.8" font-family="Times,serif" font-size="14.00">cmpq %rdx, %rax</text>
<text text-anchor="middle" x="94" y="-1095.8" font-family="Times,serif" font-size="14.00">jae 0x4000c78aef</text>
</g>
<!-- 1710&#45;&gt;1711 -->
<g id="edge5" class="edge"><title>1710&#45;&gt;1711</title>
<path fill="none" stroke="black" d="M94,-1266.96C94,-1258.81 94,-1250.15 94,-1241.43"/>
<polygon fill="black" stroke="black" points="97.5001,-1241.19 94,-1231.19 90.5001,-1241.19 97.5001,-1241.19"/>
</g>
<!-- 1712 -->
<g id="node7" class="node"><title>1712</title>
<polygon fill="none" stroke="black" points="180,-1052 8,-1052 8,-984 180,-984 180,-1052"/>
<text text-anchor="middle" x="94" y="-1036.8" font-family="Times,serif" font-size="14.00">0x4000c78ad6</text>
<text text-anchor="middle" x="94" y="-1021.8" font-family="Times,serif" font-size="14.00">_______________________</text>
<text text-anchor="middle" x="94" y="-1006.8" font-family="Times,serif" font-size="14.00">_______________________</text>
<text text-anchor="middle" x="94" y="-991.8" font-family="Times,serif" font-size="14.00">jmp 0x4000c78b04</text>
</g>
<!-- 1711&#45;&gt;1712 -->
<g id="edge6" class="edge"><title>1711&#45;&gt;1712</title>
<path fill="none" stroke="black" d="M94,-1087.93C94,-1079.29 94,-1070.66 94,-1062.58"/>
<polygon fill="black" stroke="black" points="97.5001,-1062.31 94,-1052.31 90.5001,-1062.31 97.5001,-1062.31"/>
</g>
<!-- 1713 -->
<g id="node8" class="node"><title>1713</title>
<polygon fill="none" stroke="black" points="180,-948 8,-948 8,-850 180,-850 180,-948"/>
<text text-anchor="middle" x="94" y="-932.8" font-family="Times,serif" font-size="14.00">0x4000c78b04</text>
<text text-anchor="middle" x="94" y="-917.8" font-family="Times,serif" font-size="14.00">_______________________</text>
<text text-anchor="middle" x="94" y="-902.8" font-family="Times,serif" font-size="14.00">_______________________</text>
<text text-anchor="middle" x="94" y="-887.8" font-family="Times,serif" font-size="14.00">movq (%rcx), %rcx</text>
<text text-anchor="middle" x="94" y="-872.8" font-family="Times,serif" font-size="14.00">testq %rcx, %rcx</text>
<text text-anchor="middle" x="94" y="-857.8" font-family="Times,serif" font-size="14.00">jne 0x4000c78ac0</text>
</g>
<!-- 1712&#45;&gt;1713 -->
<g id="edge7" class="edge"><title>1712&#45;&gt;1713</title>
<path fill="none" stroke="black" d="M94,-983.785C94,-975.822 94,-967.084 94,-958.351"/>
<polygon fill="black" stroke="black" points="97.5001,-958.148 94,-948.148 90.5001,-958.148 97.5001,-958.148"/>
</g>
<!-- 1714 -->
<g id="node9" class="node"><title>1714</title>
<polygon fill="none" stroke="black" points="180,-814 8,-814 8,-731 180,-731 180,-814"/>
<text text-anchor="middle" x="94" y="-798.8" font-family="Times,serif" font-size="14.00">0x4000c78b0c</text>
<text text-anchor="middle" x="94" y="-783.8" font-family="Times,serif" font-size="14.00">_______________________</text>
<text text-anchor="middle" x="94" y="-768.8" font-family="Times,serif" font-size="14.00">_______________________</text>
<text text-anchor="middle" x="94" y="-753.8" font-family="Times,serif" font-size="14.00">testq %rbp, %rbp</text>
<text text-anchor="middle" x="94" y="-738.8" font-family="Times,serif" font-size="14.00">je 0x4000c78b27</text>
</g>
<!-- 1713&#45;&gt;1714 -->
<g id="edge8" class="edge"><title>1713&#45;&gt;1714</title>
<path fill="none" stroke="black" d="M94,-849.865C94,-841.498 94,-832.771 94,-824.335"/>
<polygon fill="black" stroke="black" points="97.5001,-824.231 94,-814.231 90.5001,-824.231 97.5001,-824.231"/>
</g>
<!-- 1715 -->
<g id="node10" class="node"><title>1715</title>
<polygon fill="none" stroke="black" points="180,-695 8,-695 8,-507 180,-507 180,-695"/>
<text text-anchor="middle" x="94" y="-679.8" font-family="Times,serif" font-size="14.00">0x4000c78b11</text>
<text text-anchor="middle" x="94" y="-664.8" font-family="Times,serif" font-size="14.00">_______________________</text>
<text text-anchor="middle" x="94" y="-649.8" font-family="Times,serif" font-size="14.00">_______________________</text>
<text text-anchor="middle" x="94" y="-634.8" font-family="Times,serif" font-size="14.00">addq $8, %rsp</text>
<text text-anchor="middle" x="94" y="-619.8" font-family="Times,serif" font-size="14.00">movq %rbp, %rdi</text>
<text text-anchor="middle" x="94" y="-604.8" font-family="Times,serif" font-size="14.00">popq %rbx</text>
<text text-anchor="middle" x="94" y="-589.8" font-family="Times,serif" font-size="14.00">popq %rbp</text>
<text text-anchor="middle" x="94" y="-574.8" font-family="Times,serif" font-size="14.00">popq %r12</text>
<text text-anchor="middle" x="94" y="-559.8" font-family="Times,serif" font-size="14.00">popq %r13</text>
<text text-anchor="middle" x="94" y="-544.8" font-family="Times,serif" font-size="14.00">popq %r14</text>
<text text-anchor="middle" x="94" y="-529.8" font-family="Times,serif" font-size="14.00">popq %r15</text>
<text text-anchor="middle" x="94" y="-514.8" font-family="Times,serif" font-size="14.00">jmp 0x4000d3b930</text>
</g>
<!-- 1714&#45;&gt;1715 -->
<g id="edge9" class="edge"><title>1714&#45;&gt;1715</title>
<path fill="none" stroke="black" d="M94,-730.901C94,-722.931 94,-714.238 94,-705.254"/>
<polygon fill="black" stroke="black" points="97.5001,-705.009 94,-695.01 90.5001,-705.01 97.5001,-705.009"/>
</g>
<!-- 1716 -->
<g id="node11" class="node"><title>1716</title>
<polygon fill="none" stroke="black" points="180,-471 8,-471 8,-268 180,-268 180,-471"/>
<text text-anchor="middle" x="94" y="-455.8" font-family="Times,serif" font-size="14.00">0x4000d3b930</text>
<text text-anchor="middle" x="94" y="-440.8" font-family="Times,serif" font-size="14.00">_______________________</text>
<text text-anchor="middle" x="94" y="-425.8" font-family="Times,serif" font-size="14.00">_______________________</text>
<text text-anchor="middle" x="94" y="-410.8" font-family="Times,serif" font-size="14.00">pushq %rbp</text>
<text text-anchor="middle" x="94" y="-395.8" font-family="Times,serif" font-size="14.00">movq %rsp, %rbp</text>
<text text-anchor="middle" x="94" y="-380.8" font-family="Times,serif" font-size="14.00">pushq %rbx</text>
<text text-anchor="middle" x="94" y="-365.8" font-family="Times,serif" font-size="14.00">subq $0x18, %rsp</text>
<text text-anchor="middle" x="94" y="-350.8" font-family="Times,serif" font-size="14.00">movq 0x2a8dc8(%rip), %r9</text>
<text text-anchor="middle" x="94" y="-335.8" font-family="Times,serif" font-size="14.00">movq %fs:0x28, %rax</text>
<text text-anchor="middle" x="94" y="-320.8" font-family="Times,serif" font-size="14.00">movq %rax, &#45;0x18(%rbp)</text>
<text text-anchor="middle" x="94" y="-305.8" font-family="Times,serif" font-size="14.00">xorl %eax, %eax</text>
<text text-anchor="middle" x="94" y="-290.8" font-family="Times,serif" font-size="14.00">testq %r9, %r9</text>
<text text-anchor="middle" x="94" y="-275.8" font-family="Times,serif" font-size="14.00">je 0x4000d3b971</text>
</g>
<!-- 1715&#45;&gt;1716 -->
<g id="edge10" class="edge"><title>1715&#45;&gt;1716</title>
<path fill="none" stroke="black" d="M94,-506.984C94,-498.5 94,-489.852 94,-481.233"/>
<polygon fill="black" stroke="black" points="97.5001,-481.142 94,-471.142 90.5001,-481.142 97.5001,-481.142"/>
</g>
<!-- 1717 -->
<g id="node12" class="node"><title>1717</title>
<polygon fill="none" stroke="black" points="180,-232 8,-232 8,-134 180,-134 180,-232"/>
<text text-anchor="middle" x="94" y="-216.8" font-family="Times,serif" font-size="14.00">0x4000d3b971</text>
<text text-anchor="middle" x="94" y="-201.8" font-family="Times,serif" font-size="14.00">_______________________</text>
<text text-anchor="middle" x="94" y="-186.8" font-family="Times,serif" font-size="14.00">_______________________</text>
<text text-anchor="middle" x="94" y="-171.8" font-family="Times,serif" font-size="14.00">movq &#45;0x18(%rbp), %rax</text>
<text text-anchor="middle" x="94" y="-156.8" font-family="Times,serif" font-size="14.00">xorq %fs:0x28, %rax</text>
<text text-anchor="middle" x="94" y="-141.8" font-family="Times,serif" font-size="14.00">jne 0x4000d3bb14</text>
</g>
<!-- 1716&#45;&gt;1717 -->
<g id="edge11" class="edge"><title>1716&#45;&gt;1717</title>
<path fill="none" stroke="black" d="M94,-267.882C94,-259.226 94,-250.669 94,-242.519"/>
<polygon fill="black" stroke="black" points="97.5001,-242.437 94,-232.437 90.5001,-242.437 97.5001,-242.437"/>
</g>
<!-- 1718 -->
<g id="node13" class="node"><title>1718</title>
<polygon fill="none" stroke="black" points="180,-98 8,-98 8,-0 180,-0 180,-98"/>
<text text-anchor="middle" x="94" y="-82.8" font-family="Times,serif" font-size="14.00">0x4000d3b984</text>
<text text-anchor="middle" x="94" y="-67.8" font-family="Times,serif" font-size="14.00">_______________________</text>
<text text-anchor="middle" x="94" y="-52.8" font-family="Times,serif" font-size="14.00">_______________________</text>
<text text-anchor="middle" x="94" y="-37.8" font-family="Times,serif" font-size="14.00">movq &#45;8(%rbp), %rbx</text>
<text text-anchor="middle" x="94" y="-22.8" font-family="Times,serif" font-size="14.00">leave </text>
<text text-anchor="middle" x="94" y="-7.8" font-family="Times,serif" font-size="14.00">retq </text>
</g>
<!-- 1717&#45;&gt;1718 -->
<g id="edge12" class="edge"><title>1717&#45;&gt;1718</title>
<path fill="none" stroke="black" d="M94,-133.972C94,-125.691 94,-117.003 94,-108.483"/>
<polygon fill="black" stroke="black" points="97.5001,-108.214 94,-98.2139 90.5001,-108.214 97.5001,-108.214"/>
</g>
</g>
</svg>
