<?xml version="1.0" encoding="UTF-8" standalone="no"?>
<!DOCTYPE svg PUBLIC "-//W3C//DTD SVG 1.1//EN"
 "http://www.w3.org/Graphics/SVG/1.1/DTD/svg11.dtd">
<!-- Generated by graphviz version 2.38.0 (20140413.2041)
 -->
<!-- Title: %3 Pages: 1 -->
<svg width="187pt" height="627pt"
 viewBox="0.00 0.00 187.00 627.00" xmlns="http://www.w3.org/2000/svg" xmlns:xlink="http://www.w3.org/1999/xlink">
<g id="graph0" class="graph" transform="scale(1 1) rotate(0) translate(4 623)">
<title>%3</title>
<polygon fill="white" stroke="none" points="-4,4 -4,-623 183,-623 183,4 -4,4"/>
<!-- 1092 -->
<g id="node1" class="node"><title>1092</title>
<polygon fill="none" stroke="black" points="179,-619 0,-619 0,-506 179,-506 179,-619"/>
<text text-anchor="middle" x="89.5" y="-603.8" font-family="Times,serif" font-size="14.00">0x4000cca2e0</text>
<text text-anchor="middle" x="89.5" y="-588.8" font-family="Times,serif" font-size="14.00">_______________________</text>
<text text-anchor="middle" x="89.5" y="-573.8" font-family="Times,serif" font-size="14.00">_______________________</text>
<text text-anchor="middle" x="89.5" y="-558.8" font-family="Times,serif" font-size="14.00">movq 0x314b81(%rip), %rdx</text>
<text text-anchor="middle" x="89.5" y="-543.8" font-family="Times,serif" font-size="14.00">leaq 0xa60a2(%rip), %rax</text>
<text text-anchor="middle" x="89.5" y="-528.8" font-family="Times,serif" font-size="14.00">testl $0x40, 0xb8(%rdx)</text>
<text text-anchor="middle" x="89.5" y="-513.8" font-family="Times,serif" font-size="14.00">jne 0x4000cca333</text>
</g>
<!-- 1093 -->
<g id="node2" class="node"><title>1093</title>
<polygon fill="none" stroke="black" points="175.5,-470 3.5,-470 3.5,-387 175.5,-387 175.5,-470"/>
<text text-anchor="middle" x="89.5" y="-454.8" font-family="Times,serif" font-size="14.00">0x4000cca2fa</text>
<text text-anchor="middle" x="89.5" y="-439.8" font-family="Times,serif" font-size="14.00">_______________________</text>
<text text-anchor="middle" x="89.5" y="-424.8" font-family="Times,serif" font-size="14.00">_______________________</text>
<text text-anchor="middle" x="89.5" y="-409.8" font-family="Times,serif" font-size="14.00">testl $0x200, 0xb8(%rdx)</text>
<text text-anchor="middle" x="89.5" y="-394.8" font-family="Times,serif" font-size="14.00">jne 0x4000cca319</text>
</g>
<!-- 1092&#45;&gt;1093 -->
<g id="edge1" class="edge"><title>1092&#45;&gt;1093</title>
<path fill="none" stroke="black" d="M89.5,-505.903C89.5,-497.387 89.5,-488.635 89.5,-480.231"/>
<polygon fill="black" stroke="black" points="93.0001,-480.194 89.5,-470.194 86.0001,-480.194 93.0001,-480.194"/>
</g>
<!-- 1094 -->
<g id="node3" class="node"><title>1094</title>
<polygon fill="none" stroke="black" points="178,-351 1,-351 1,-253 178,-253 178,-351"/>
<text text-anchor="middle" x="89.5" y="-335.8" font-family="Times,serif" font-size="14.00">0x4000cca306</text>
<text text-anchor="middle" x="89.5" y="-320.8" font-family="Times,serif" font-size="14.00">_______________________</text>
<text text-anchor="middle" x="89.5" y="-305.8" font-family="Times,serif" font-size="14.00">_______________________</text>
<text text-anchor="middle" x="89.5" y="-290.8" font-family="Times,serif" font-size="14.00">leaq 0xa26b3(%rip), %rax</text>
<text text-anchor="middle" x="89.5" y="-275.8" font-family="Times,serif" font-size="14.00">testl $0x100000, 0x80(%rdx)</text>
<text text-anchor="middle" x="89.5" y="-260.8" font-family="Times,serif" font-size="14.00">jne 0x4000cca333</text>
</g>
<!-- 1093&#45;&gt;1094 -->
<g id="edge2" class="edge"><title>1093&#45;&gt;1094</title>
<path fill="none" stroke="black" d="M89.5,-386.734C89.5,-378.579 89.5,-369.862 89.5,-361.249"/>
<polygon fill="black" stroke="black" points="93.0001,-361.224 89.5,-351.224 86.0001,-361.224 93.0001,-361.224"/>
</g>
<!-- 1095 -->
<g id="node4" class="node"><title>1095</title>
<polygon fill="none" stroke="black" points="175.5,-217 3.5,-217 3.5,-119 175.5,-119 175.5,-217"/>
<text text-anchor="middle" x="89.5" y="-201.8" font-family="Times,serif" font-size="14.00">0x4000cca319</text>
<text text-anchor="middle" x="89.5" y="-186.8" font-family="Times,serif" font-size="14.00">_______________________</text>
<text text-anchor="middle" x="89.5" y="-171.8" font-family="Times,serif" font-size="14.00">_______________________</text>
<text text-anchor="middle" x="89.5" y="-156.8" font-family="Times,serif" font-size="14.00">leaq 0xb76a0(%rip), %rax</text>
<text text-anchor="middle" x="89.5" y="-141.8" font-family="Times,serif" font-size="14.00">testl $0x200, 0x80(%rdx)</text>
<text text-anchor="middle" x="89.5" y="-126.8" font-family="Times,serif" font-size="14.00">jne 0x4000cca333</text>
</g>
<!-- 1094&#45;&gt;1095 -->
<g id="edge3" class="edge"><title>1094&#45;&gt;1095</title>
<path fill="none" stroke="black" d="M89.5,-252.972C89.5,-244.691 89.5,-236.003 89.5,-227.483"/>
<polygon fill="black" stroke="black" points="93.0001,-227.214 89.5,-217.214 86.0001,-227.214 93.0001,-227.214"/>
</g>
<!-- 1096 -->
<g id="node5" class="node"><title>1096</title>
<polygon fill="none" stroke="black" points="175.5,-83 3.5,-83 3.5,-0 175.5,-0 175.5,-83"/>
<text text-anchor="middle" x="89.5" y="-67.8" font-family="Times,serif" font-size="14.00">0x4000cca32c</text>
<text text-anchor="middle" x="89.5" y="-52.8" font-family="Times,serif" font-size="14.00">_______________________</text>
<text text-anchor="middle" x="89.5" y="-37.8" font-family="Times,serif" font-size="14.00">_______________________</text>
<text text-anchor="middle" x="89.5" y="-22.8" font-family="Times,serif" font-size="14.00">leaq 0xd(%rip), %rax</text>
<text text-anchor="middle" x="89.5" y="-7.8" font-family="Times,serif" font-size="14.00">retq </text>
</g>
<!-- 1095&#45;&gt;1096 -->
<g id="edge4" class="edge"><title>1095&#45;&gt;1096</title>
<path fill="none" stroke="black" d="M89.5,-118.865C89.5,-110.498 89.5,-101.771 89.5,-93.3346"/>
<polygon fill="black" stroke="black" points="93.0001,-93.2309 89.5,-83.231 86.0001,-93.231 93.0001,-93.2309"/>
</g>
</g>
</svg>
