<?xml version="1.0" encoding="UTF-8" standalone="no"?>
<!DOCTYPE svg PUBLIC "-//W3C//DTD SVG 1.1//EN"
 "http://www.w3.org/Graphics/SVG/1.1/DTD/svg11.dtd">
<!-- Generated by graphviz version 2.38.0 (20140413.2041)
 -->
<!-- Title: %3 Pages: 1 -->
<svg width="352pt" height="3835pt"
 viewBox="0.00 0.00 352.00 3835.00" xmlns="http://www.w3.org/2000/svg" xmlns:xlink="http://www.w3.org/1999/xlink">
<g id="graph0" class="graph" transform="scale(1 1) rotate(0) translate(4 3831)">
<title>%3</title>
<polygon fill="white" stroke="none" points="-4,4 -4,-3831 348,-3831 348,4 -4,4"/>
<!-- 1744 -->
<g id="node1" class="node"><title>1744</title>
<polygon fill="none" stroke="black" points="175.5,-3827 3.5,-3827 3.5,-3609 175.5,-3609 175.5,-3827"/>
<text text-anchor="middle" x="89.5" y="-3811.8" font-family="Times,serif" font-size="14.00">0x4000cb8f20</text>
<text text-anchor="middle" x="89.5" y="-3796.8" font-family="Times,serif" font-size="14.00">_______________________</text>
<text text-anchor="middle" x="89.5" y="-3781.8" font-family="Times,serif" font-size="14.00">_______________________</text>
<text text-anchor="middle" x="89.5" y="-3766.8" font-family="Times,serif" font-size="14.00">pushq %r15</text>
<text text-anchor="middle" x="89.5" y="-3751.8" font-family="Times,serif" font-size="14.00">pushq %r14</text>
<text text-anchor="middle" x="89.5" y="-3736.8" font-family="Times,serif" font-size="14.00">xorl %edi, %edi</text>
<text text-anchor="middle" x="89.5" y="-3721.8" font-family="Times,serif" font-size="14.00">pushq %r13</text>
<text text-anchor="middle" x="89.5" y="-3706.8" font-family="Times,serif" font-size="14.00">pushq %r12</text>
<text text-anchor="middle" x="89.5" y="-3691.8" font-family="Times,serif" font-size="14.00">pushq %rbp</text>
<text text-anchor="middle" x="89.5" y="-3676.8" font-family="Times,serif" font-size="14.00">pushq %rbx</text>
<text text-anchor="middle" x="89.5" y="-3661.8" font-family="Times,serif" font-size="14.00">subq $0x18, %rsp</text>
<text text-anchor="middle" x="89.5" y="-3646.8" font-family="Times,serif" font-size="14.00">callq 0x4000cb8ba0</text>
<text text-anchor="middle" x="89.5" y="-3631.8" font-family="Times,serif" font-size="14.00">_______________________</text>
<text text-anchor="middle" x="89.5" y="-3616.8" font-family="Times,serif" font-size="14.00">CALL 0x4000cb8ba0</text>
</g>
<!-- 1759 -->
<g id="node2" class="node"><title>1759</title>
<polygon fill="none" stroke="black" points="179,-3573 0,-3573 0,-3460 179,-3460 179,-3573"/>
<text text-anchor="middle" x="89.5" y="-3557.8" font-family="Times,serif" font-size="14.00">0x4000cb8f35</text>
<text text-anchor="middle" x="89.5" y="-3542.8" font-family="Times,serif" font-size="14.00">_______________________</text>
<text text-anchor="middle" x="89.5" y="-3527.8" font-family="Times,serif" font-size="14.00">_______________________</text>
<text text-anchor="middle" x="89.5" y="-3512.8" font-family="Times,serif" font-size="14.00">movq 0x3275c4(%rip), %rbx</text>
<text text-anchor="middle" x="89.5" y="-3497.8" font-family="Times,serif" font-size="14.00">movl %eax, %r15d</text>
<text text-anchor="middle" x="89.5" y="-3482.8" font-family="Times,serif" font-size="14.00">testq %rbx, %rbx</text>
<text text-anchor="middle" x="89.5" y="-3467.8" font-family="Times,serif" font-size="14.00">je 0x4000cb9078</text>
</g>
<!-- 1744&#45;&gt;1759 -->
<g id="edge1" class="edge"><title>1744&#45;&gt;1759</title>
<path fill="none" stroke="black" d="M89.5,-3608.78C89.5,-3600.15 89.5,-3591.61 89.5,-3583.41"/>
<polygon fill="black" stroke="black" points="93.0001,-3583.23 89.5,-3573.23 86.0001,-3583.23 93.0001,-3583.23"/>
</g>
<!-- 1760 -->
<g id="node3" class="node"><title>1760</title>
<polygon fill="none" stroke="black" points="175.5,-3424 3.5,-3424 3.5,-3296 175.5,-3296 175.5,-3424"/>
<text text-anchor="middle" x="89.5" y="-3408.8" font-family="Times,serif" font-size="14.00">0x4000cb8f48</text>
<text text-anchor="middle" x="89.5" y="-3393.8" font-family="Times,serif" font-size="14.00">_______________________</text>
<text text-anchor="middle" x="89.5" y="-3378.8" font-family="Times,serif" font-size="14.00">_______________________</text>
<text text-anchor="middle" x="89.5" y="-3363.8" font-family="Times,serif" font-size="14.00">leaq 0x3229b1(%rip), %r14</text>
<text text-anchor="middle" x="89.5" y="-3348.8" font-family="Times,serif" font-size="14.00">leaq 0x323712(%rip), %r13</text>
<text text-anchor="middle" x="89.5" y="-3333.8" font-family="Times,serif" font-size="14.00">movq %fs:0x10, %r12</text>
<text text-anchor="middle" x="89.5" y="-3318.8" font-family="Times,serif" font-size="14.00">subq %r14, %r13</text>
<text text-anchor="middle" x="89.5" y="-3303.8" font-family="Times,serif" font-size="14.00">jmp 0x4000cb9013</text>
</g>
<!-- 1759&#45;&gt;1760 -->
<g id="edge2" class="edge"><title>1759&#45;&gt;1760</title>
<path fill="none" stroke="black" d="M89.5,-3459.72C89.5,-3451.4 89.5,-3442.71 89.5,-3434.09"/>
<polygon fill="black" stroke="black" points="93.0001,-3434.04 89.5,-3424.04 86.0001,-3434.04 93.0001,-3434.04"/>
</g>
<!-- 1761 -->
<g id="node4" class="node"><title>1761</title>
<polygon fill="none" stroke="black" points="175.5,-3260 3.5,-3260 3.5,-3162 175.5,-3162 175.5,-3260"/>
<text text-anchor="middle" x="89.5" y="-3244.8" font-family="Times,serif" font-size="14.00">0x4000cb9013</text>
<text text-anchor="middle" x="89.5" y="-3229.8" font-family="Times,serif" font-size="14.00">_______________________</text>
<text text-anchor="middle" x="89.5" y="-3214.8" font-family="Times,serif" font-size="14.00">_______________________</text>
<text text-anchor="middle" x="89.5" y="-3199.8" font-family="Times,serif" font-size="14.00">movl (%rbx), %ebp</text>
<text text-anchor="middle" x="89.5" y="-3184.8" font-family="Times,serif" font-size="14.00">andl $2, %ebp</text>
<text text-anchor="middle" x="89.5" y="-3169.8" font-family="Times,serif" font-size="14.00">jne 0x4000cb9000</text>
</g>
<!-- 1760&#45;&gt;1761 -->
<g id="edge3" class="edge"><title>1760&#45;&gt;1761</title>
<path fill="none" stroke="black" d="M89.5,-3295.81C89.5,-3287.29 89.5,-3278.58 89.5,-3270.15"/>
<polygon fill="black" stroke="black" points="93.0001,-3270.04 89.5,-3260.04 86.0001,-3270.04 93.0001,-3270.04"/>
</g>
<!-- 1762 -->
<g id="node5" class="node"><title>1762</title>
<polygon fill="none" stroke="black" points="201.5,-367 23.5,-367 23.5,-224 201.5,-224 201.5,-367"/>
<text text-anchor="middle" x="112.5" y="-351.8" font-family="Times,serif" font-size="14.00">0x4000cb9000</text>
<text text-anchor="middle" x="112.5" y="-336.8" font-family="Times,serif" font-size="14.00">_______________________</text>
<text text-anchor="middle" x="112.5" y="-321.8" font-family="Times,serif" font-size="14.00">_______________________</text>
<text text-anchor="middle" x="112.5" y="-306.8" font-family="Times,serif" font-size="14.00">movl $0xffffffff, 0xc0(%rbx)</text>
<text text-anchor="middle" x="112.5" y="-291.8" font-family="Times,serif" font-size="14.00">movq 0x68(%rbx), %rbx</text>
<text text-anchor="middle" x="112.5" y="-276.8" font-family="Times,serif" font-size="14.00">testq %rbx, %rbx</text>
<text text-anchor="middle" x="112.5" y="-261.8" font-family="Times,serif" font-size="14.00">je 0x4000cb9078</text>
<text text-anchor="middle" x="112.5" y="-246.8" font-family="Times,serif" font-size="14.00">_______________________</text>
<text text-anchor="middle" x="112.5" y="-231.8" font-family="Times,serif" font-size="14.00">LOOP 0x4000cb9013</text>
</g>
<!-- 1761&#45;&gt;1762 -->
<g id="edge4" class="edge"><title>1761&#45;&gt;1762</title>
<path fill="none" stroke="black" d="M83.2416,-3161.78C80.5,-3100.65 80.5,-2992 80.5,-2899 80.5,-2899 80.5,-2899 80.5,-592.5 80.5,-519.534 87.5329,-436.755 95.3424,-377.326"/>
<polygon fill="black" stroke="black" points="98.8329,-377.631 96.7044,-367.252 91.896,-376.693 98.8329,-377.631"/>
</g>
<!-- 1763 -->
<g id="node6" class="node"><title>1763</title>
<polygon fill="none" stroke="black" points="298.5,-3126 126.5,-3126 126.5,-2998 298.5,-2998 298.5,-3126"/>
<text text-anchor="middle" x="212.5" y="-3110.8" font-family="Times,serif" font-size="14.00">0x4000cb901a</text>
<text text-anchor="middle" x="212.5" y="-3095.8" font-family="Times,serif" font-size="14.00">_______________________</text>
<text text-anchor="middle" x="212.5" y="-3080.8" font-family="Times,serif" font-size="14.00">_______________________</text>
<text text-anchor="middle" x="212.5" y="-3065.8" font-family="Times,serif" font-size="14.00">movl 0xc0(%rbx), %edx</text>
<text text-anchor="middle" x="212.5" y="-3050.8" font-family="Times,serif" font-size="14.00">testl %edx, %edx</text>
<text text-anchor="middle" x="212.5" y="-3035.8" font-family="Times,serif" font-size="14.00">je 0x4000cb9000</text>
<text text-anchor="middle" x="212.5" y="-3020.8" font-family="Times,serif" font-size="14.00">_______________________</text>
<text text-anchor="middle" x="212.5" y="-3005.8" font-family="Times,serif" font-size="14.00">LOOP 0x4000cb9013</text>
</g>
<!-- 1761&#45;&gt;1763 -->
<g id="edge5" class="edge"><title>1761&#45;&gt;1763</title>
<path fill="none" stroke="black" d="M129.775,-3161.87C137.219,-3152.97 145.136,-3143.51 153.009,-3134.1"/>
<polygon fill="black" stroke="black" points="155.868,-3136.14 159.601,-3126.22 150.499,-3131.64 155.868,-3136.14"/>
</g>
<!-- 1762&#45;&gt;1761 -->
<g id="edge6" class="edge"><title>1762&#45;&gt;1761</title>
<path fill="none" stroke="black" d="M111.101,-367.252C106.37,-427.144 98.5,-515.313 98.5,-592.5 98.5,-2899 98.5,-2899 98.5,-2899 98.5,-2987.1 98.5,-3089.23 96.1697,-3151.73"/>
<polygon fill="black" stroke="black" points="92.67,-3151.65 95.7584,-3161.78 99.6641,-3151.94 92.67,-3151.65"/>
</g>
<!-- 1793 -->
<g id="node7" class="node"><title>1793</title>
<polygon fill="none" stroke="black" points="198.5,-188 26.5,-188 26.5,-0 198.5,-0 198.5,-188"/>
<text text-anchor="middle" x="112.5" y="-172.8" font-family="Times,serif" font-size="14.00">0x4000cb9078</text>
<text text-anchor="middle" x="112.5" y="-157.8" font-family="Times,serif" font-size="14.00">_______________________</text>
<text text-anchor="middle" x="112.5" y="-142.8" font-family="Times,serif" font-size="14.00">_______________________</text>
<text text-anchor="middle" x="112.5" y="-127.8" font-family="Times,serif" font-size="14.00">addq $0x18, %rsp</text>
<text text-anchor="middle" x="112.5" y="-112.8" font-family="Times,serif" font-size="14.00">movl %r15d, %eax</text>
<text text-anchor="middle" x="112.5" y="-97.8" font-family="Times,serif" font-size="14.00">popq %rbx</text>
<text text-anchor="middle" x="112.5" y="-82.8" font-family="Times,serif" font-size="14.00">popq %rbp</text>
<text text-anchor="middle" x="112.5" y="-67.8" font-family="Times,serif" font-size="14.00">popq %r12</text>
<text text-anchor="middle" x="112.5" y="-52.8" font-family="Times,serif" font-size="14.00">popq %r13</text>
<text text-anchor="middle" x="112.5" y="-37.8" font-family="Times,serif" font-size="14.00">popq %r14</text>
<text text-anchor="middle" x="112.5" y="-22.8" font-family="Times,serif" font-size="14.00">popq %r15</text>
<text text-anchor="middle" x="112.5" y="-7.8" font-family="Times,serif" font-size="14.00">retq </text>
</g>
<!-- 1762&#45;&gt;1793 -->
<g id="edge7" class="edge"><title>1762&#45;&gt;1793</title>
<path fill="none" stroke="black" d="M112.5,-223.883C112.5,-215.585 112.5,-206.992 112.5,-198.363"/>
<polygon fill="black" stroke="black" points="116,-198.232 112.5,-188.232 109,-198.232 116,-198.232"/>
</g>
<!-- 1763&#45;&gt;1762 -->
<g id="edge8" class="edge"><title>1763&#45;&gt;1762</title>
<path fill="none" stroke="black" d="M170.826,-2997.9C164.769,-2986.35 159.304,-2974.11 155.5,-2962 126.154,-2868.58 136.5,-2840.42 136.5,-2742.5 136.5,-2742.5 136.5,-2742.5 136.5,-592.5 136.5,-519.515 129.161,-436.737 122.6,-377.314"/>
<polygon fill="black" stroke="black" points="126.063,-376.789 121.471,-367.242 119.107,-377.57 126.063,-376.789"/>
</g>
<!-- 1764 -->
<g id="node8" class="node"><title>1764</title>
<polygon fill="none" stroke="black" points="336.5,-2962 164.5,-2962 164.5,-2834 336.5,-2834 336.5,-2962"/>
<text text-anchor="middle" x="250.5" y="-2946.8" font-family="Times,serif" font-size="14.00">0x4000cb9024</text>
<text text-anchor="middle" x="250.5" y="-2931.8" font-family="Times,serif" font-size="14.00">_______________________</text>
<text text-anchor="middle" x="250.5" y="-2916.8" font-family="Times,serif" font-size="14.00">_______________________</text>
<text text-anchor="middle" x="250.5" y="-2901.8" font-family="Times,serif" font-size="14.00">movq 0x88(%rbx), %rdx</text>
<text text-anchor="middle" x="250.5" y="-2886.8" font-family="Times,serif" font-size="14.00">testq %rdx, %rdx</text>
<text text-anchor="middle" x="250.5" y="-2871.8" font-family="Times,serif" font-size="14.00">je 0x4000cb8f82</text>
<text text-anchor="middle" x="250.5" y="-2856.8" font-family="Times,serif" font-size="14.00">_______________________</text>
<text text-anchor="middle" x="250.5" y="-2841.8" font-family="Times,serif" font-size="14.00">LOOP 0x4000cb9013</text>
</g>
<!-- 1763&#45;&gt;1764 -->
<g id="edge9" class="edge"><title>1763&#45;&gt;1764</title>
<path fill="none" stroke="black" d="M227.301,-2997.9C229.278,-2989.47 231.319,-2980.77 233.332,-2972.19"/>
<polygon fill="black" stroke="black" points="236.801,-2972.73 235.677,-2962.19 229.986,-2971.13 236.801,-2972.73"/>
</g>
<!-- 1765 -->
<g id="node9" class="node"><title>1765</title>
<polygon fill="none" stroke="black" points="336.5,-2798 164.5,-2798 164.5,-2685 336.5,-2685 336.5,-2798"/>
<text text-anchor="middle" x="250.5" y="-2782.8" font-family="Times,serif" font-size="14.00">0x4000cb9034</text>
<text text-anchor="middle" x="250.5" y="-2767.8" font-family="Times,serif" font-size="14.00">_______________________</text>
<text text-anchor="middle" x="250.5" y="-2752.8" font-family="Times,serif" font-size="14.00">_______________________</text>
<text text-anchor="middle" x="250.5" y="-2737.8" font-family="Times,serif" font-size="14.00">cmpq 8(%rdx), %r12</text>
<text text-anchor="middle" x="250.5" y="-2722.8" font-family="Times,serif" font-size="14.00">je 0x4000cb90e8</text>
<text text-anchor="middle" x="250.5" y="-2707.8" font-family="Times,serif" font-size="14.00">_______________________</text>
<text text-anchor="middle" x="250.5" y="-2692.8" font-family="Times,serif" font-size="14.00">LOOP 0x4000cb9013</text>
</g>
<!-- 1764&#45;&gt;1765 -->
<g id="edge10" class="edge"><title>1764&#45;&gt;1765</title>
<path fill="none" stroke="black" d="M250.5,-2833.71C250.5,-2825.3 250.5,-2816.66 250.5,-2808.21"/>
<polygon fill="black" stroke="black" points="254,-2808.02 250.5,-2798.02 247,-2808.02 254,-2808.02"/>
</g>
<!-- 1766 -->
<g id="node10" class="node"><title>1766</title>
<polygon fill="none" stroke="black" points="336.5,-2649 164.5,-2649 164.5,-2506 336.5,-2506 336.5,-2649"/>
<text text-anchor="middle" x="250.5" y="-2633.8" font-family="Times,serif" font-size="14.00">0x4000cb903e</text>
<text text-anchor="middle" x="250.5" y="-2618.8" font-family="Times,serif" font-size="14.00">_______________________</text>
<text text-anchor="middle" x="250.5" y="-2603.8" font-family="Times,serif" font-size="14.00">_______________________</text>
<text text-anchor="middle" x="250.5" y="-2588.8" font-family="Times,serif" font-size="14.00">xorl %eax, %eax</text>
<text text-anchor="middle" x="250.5" y="-2573.8" font-family="Times,serif" font-size="14.00">movl $1, %ecx</text>
<text text-anchor="middle" x="250.5" y="-2558.8" font-family="Times,serif" font-size="14.00">cmpl $0, 0x32b6b4(%rip)</text>
<text text-anchor="middle" x="250.5" y="-2543.8" font-family="Times,serif" font-size="14.00">je 0x4000cb9054</text>
<text text-anchor="middle" x="250.5" y="-2528.8" font-family="Times,serif" font-size="14.00">_______________________</text>
<text text-anchor="middle" x="250.5" y="-2513.8" font-family="Times,serif" font-size="14.00">LOOP 0x4000cb9013</text>
</g>
<!-- 1765&#45;&gt;1766 -->
<g id="edge11" class="edge"><title>1765&#45;&gt;1766</title>
<path fill="none" stroke="black" d="M250.5,-2684.75C250.5,-2676.53 250.5,-2667.92 250.5,-2659.31"/>
<polygon fill="black" stroke="black" points="254,-2659.23 250.5,-2649.23 247,-2659.23 254,-2659.23"/>
</g>
<!-- 1767 -->
<g id="node11" class="node"><title>1767</title>
<polygon fill="none" stroke="black" points="336.5,-2470 164.5,-2470 164.5,-2342 336.5,-2342 336.5,-2470"/>
<text text-anchor="middle" x="250.5" y="-2454.8" font-family="Times,serif" font-size="14.00">0x4000cb9054</text>
<text text-anchor="middle" x="250.5" y="-2439.8" font-family="Times,serif" font-size="14.00">_______________________</text>
<text text-anchor="middle" x="250.5" y="-2424.8" font-family="Times,serif" font-size="14.00">_______________________</text>
<text text-anchor="middle" x="250.5" y="-2409.8" font-family="Times,serif" font-size="14.00">cmpxchgl %ecx, (%rdx)</text>
<text text-anchor="middle" x="250.5" y="-2394.8" font-family="Times,serif" font-size="14.00">testl %eax, %eax</text>
<text text-anchor="middle" x="250.5" y="-2379.8" font-family="Times,serif" font-size="14.00">je 0x4000cb8f70</text>
<text text-anchor="middle" x="250.5" y="-2364.8" font-family="Times,serif" font-size="14.00">_______________________</text>
<text text-anchor="middle" x="250.5" y="-2349.8" font-family="Times,serif" font-size="14.00">LOOP 0x4000cb9013</text>
</g>
<!-- 1766&#45;&gt;1767 -->
<g id="edge12" class="edge"><title>1766&#45;&gt;1767</title>
<path fill="none" stroke="black" d="M250.5,-2505.6C250.5,-2497.21 250.5,-2488.64 250.5,-2480.23"/>
<polygon fill="black" stroke="black" points="254,-2480.06 250.5,-2470.06 247,-2480.06 254,-2480.06"/>
</g>
<!-- 1768 -->
<g id="node12" class="node"><title>1768</title>
<polygon fill="none" stroke="black" points="337.5,-2306 165.5,-2306 165.5,-2148 337.5,-2148 337.5,-2306"/>
<text text-anchor="middle" x="251.5" y="-2290.8" font-family="Times,serif" font-size="14.00">0x4000cb8f70</text>
<text text-anchor="middle" x="251.5" y="-2275.8" font-family="Times,serif" font-size="14.00">_______________________</text>
<text text-anchor="middle" x="251.5" y="-2260.8" font-family="Times,serif" font-size="14.00">_______________________</text>
<text text-anchor="middle" x="251.5" y="-2245.8" font-family="Times,serif" font-size="14.00">movq 0x88(%rbx), %rax</text>
<text text-anchor="middle" x="251.5" y="-2230.8" font-family="Times,serif" font-size="14.00">movq %r12, 8(%rax)</text>
<text text-anchor="middle" x="251.5" y="-2215.8" font-family="Times,serif" font-size="14.00">movl $1, 4(%rax)</text>
<text text-anchor="middle" x="251.5" y="-2200.8" font-family="Times,serif" font-size="14.00">cmpb $0, 0x32879f(%rip)</text>
<text text-anchor="middle" x="251.5" y="-2185.8" font-family="Times,serif" font-size="14.00">jne 0x4000cb8fb6</text>
<text text-anchor="middle" x="251.5" y="-2170.8" font-family="Times,serif" font-size="14.00">_______________________</text>
<text text-anchor="middle" x="251.5" y="-2155.8" font-family="Times,serif" font-size="14.00">LOOP 0x4000cb9013</text>
</g>
<!-- 1767&#45;&gt;1768 -->
<g id="edge13" class="edge"><title>1767&#45;&gt;1768</title>
<path fill="none" stroke="black" d="M250.858,-2341.6C250.905,-2333.33 250.953,-2324.74 251.002,-2316.15"/>
<polygon fill="black" stroke="black" points="254.502,-2316.12 251.059,-2306.1 247.502,-2316.08 254.502,-2316.12"/>
</g>
<!-- 1769 -->
<g id="node13" class="node"><title>1769</title>
<polygon fill="none" stroke="black" points="339.5,-2112 167.5,-2112 167.5,-1984 339.5,-1984 339.5,-2112"/>
<text text-anchor="middle" x="253.5" y="-2096.8" font-family="Times,serif" font-size="14.00">0x4000cb8f8b</text>
<text text-anchor="middle" x="253.5" y="-2081.8" font-family="Times,serif" font-size="14.00">_______________________</text>
<text text-anchor="middle" x="253.5" y="-2066.8" font-family="Times,serif" font-size="14.00">_______________________</text>
<text text-anchor="middle" x="253.5" y="-2051.8" font-family="Times,serif" font-size="14.00">movl (%rbx), %eax</text>
<text text-anchor="middle" x="253.5" y="-2036.8" font-family="Times,serif" font-size="14.00">testb $1, %al</text>
<text text-anchor="middle" x="253.5" y="-2021.8" font-family="Times,serif" font-size="14.00">jne 0x4000cb8fb6</text>
<text text-anchor="middle" x="253.5" y="-2006.8" font-family="Times,serif" font-size="14.00">_______________________</text>
<text text-anchor="middle" x="253.5" y="-1991.8" font-family="Times,serif" font-size="14.00">LOOP 0x4000cb9013</text>
</g>
<!-- 1768&#45;&gt;1769 -->
<g id="edge14" class="edge"><title>1768&#45;&gt;1769</title>
<path fill="none" stroke="black" d="M252.383,-2147.85C252.479,-2139.36 252.576,-2130.73 252.672,-2122.3"/>
<polygon fill="black" stroke="black" points="256.173,-2122.17 252.787,-2112.13 249.174,-2122.09 256.173,-2122.17"/>
</g>
<!-- 1770 -->
<g id="node14" class="node"><title>1770</title>
<polygon fill="none" stroke="black" points="344,-1948 165,-1948 165,-1685 344,-1685 344,-1948"/>
<text text-anchor="middle" x="254.5" y="-1932.8" font-family="Times,serif" font-size="14.00">0x4000cb8f91</text>
<text text-anchor="middle" x="254.5" y="-1917.8" font-family="Times,serif" font-size="14.00">_______________________</text>
<text text-anchor="middle" x="254.5" y="-1902.8" font-family="Times,serif" font-size="14.00">_______________________</text>
<text text-anchor="middle" x="254.5" y="-1887.8" font-family="Times,serif" font-size="14.00">orl $1, %eax</text>
<text text-anchor="middle" x="254.5" y="-1872.8" font-family="Times,serif" font-size="14.00">movl %eax, (%rbx)</text>
<text text-anchor="middle" x="254.5" y="-1857.8" font-family="Times,serif" font-size="14.00">movq 0x328783(%rip), %rax</text>
<text text-anchor="middle" x="254.5" y="-1842.8" font-family="Times,serif" font-size="14.00">movq %rbx, 0x32877c(%rip)</text>
<text text-anchor="middle" x="254.5" y="-1827.8" font-family="Times,serif" font-size="14.00">movq %rax, 0xa8(%rbx)</text>
<text text-anchor="middle" x="254.5" y="-1812.8" font-family="Times,serif" font-size="14.00">movq 0x38(%rbx), %rax</text>
<text text-anchor="middle" x="254.5" y="-1797.8" font-family="Times,serif" font-size="14.00">movq %rax, 0xb0(%rbx)</text>
<text text-anchor="middle" x="254.5" y="-1782.8" font-family="Times,serif" font-size="14.00">movq 0xd8(%rbx), %rax</text>
<text text-anchor="middle" x="254.5" y="-1767.8" font-family="Times,serif" font-size="14.00">movq %rax, %rdx</text>
<text text-anchor="middle" x="254.5" y="-1752.8" font-family="Times,serif" font-size="14.00">subq %r14, %rdx</text>
<text text-anchor="middle" x="254.5" y="-1737.8" font-family="Times,serif" font-size="14.00">cmpq %rdx, %r13</text>
<text text-anchor="middle" x="254.5" y="-1722.8" font-family="Times,serif" font-size="14.00">jbe 0x4000cb90f8</text>
<text text-anchor="middle" x="254.5" y="-1707.8" font-family="Times,serif" font-size="14.00">_______________________</text>
<text text-anchor="middle" x="254.5" y="-1692.8" font-family="Times,serif" font-size="14.00">LOOP 0x4000cb9013</text>
</g>
<!-- 1769&#45;&gt;1770 -->
<g id="edge15" class="edge"><title>1769&#45;&gt;1770</title>
<path fill="none" stroke="black" d="M253.775,-1983.98C253.81,-1975.79 253.848,-1967.15 253.887,-1958.29"/>
<polygon fill="black" stroke="black" points="257.387,-1958.22 253.93,-1948.21 250.387,-1958.19 257.387,-1958.22"/>
</g>
<!-- 1771 -->
<g id="node15" class="node"><title>1771</title>
<polygon fill="none" stroke="black" points="339.5,-1649 167.5,-1649 167.5,-1476 339.5,-1476 339.5,-1649"/>
<text text-anchor="middle" x="253.5" y="-1633.8" font-family="Times,serif" font-size="14.00">0x4000cb8fcc</text>
<text text-anchor="middle" x="253.5" y="-1618.8" font-family="Times,serif" font-size="14.00">_______________________</text>
<text text-anchor="middle" x="253.5" y="-1603.8" font-family="Times,serif" font-size="14.00">_______________________</text>
<text text-anchor="middle" x="253.5" y="-1588.8" font-family="Times,serif" font-size="14.00">xorl %edx, %edx</text>
<text text-anchor="middle" x="253.5" y="-1573.8" font-family="Times,serif" font-size="14.00">xorl %esi, %esi</text>
<text text-anchor="middle" x="253.5" y="-1558.8" font-family="Times,serif" font-size="14.00">movq %rbx, %rdi</text>
<text text-anchor="middle" x="253.5" y="-1543.8" font-family="Times,serif" font-size="14.00">callq *0x58(%rax)</text>
<text text-anchor="middle" x="253.5" y="-1528.8" font-family="Times,serif" font-size="14.00">_______________________</text>
<text text-anchor="middle" x="253.5" y="-1513.8" font-family="Times,serif" font-size="14.00">LOOP 0x4000cb9013</text>
<text text-anchor="middle" x="253.5" y="-1498.8" font-family="Times,serif" font-size="14.00">_______________________</text>
<text text-anchor="middle" x="253.5" y="-1483.8" font-family="Times,serif" font-size="14.00">CALL _IO_file_setbuf</text>
</g>
<!-- 1770&#45;&gt;1771 -->
<g id="edge16" class="edge"><title>1770&#45;&gt;1771</title>
<path fill="none" stroke="black" d="M253.981,-1684.7C253.947,-1676.1 253.913,-1667.52 253.88,-1659.14"/>
<polygon fill="black" stroke="black" points="257.379,-1659 253.839,-1649.01 250.379,-1659.03 257.379,-1659"/>
</g>
<!-- 1786 -->
<g id="node16" class="node"><title>1786</title>
<polygon fill="none" stroke="black" points="339.5,-1440 167.5,-1440 167.5,-1312 339.5,-1312 339.5,-1440"/>
<text text-anchor="middle" x="253.5" y="-1424.8" font-family="Times,serif" font-size="14.00">0x4000cb8fd6</text>
<text text-anchor="middle" x="253.5" y="-1409.8" font-family="Times,serif" font-size="14.00">_______________________</text>
<text text-anchor="middle" x="253.5" y="-1394.8" font-family="Times,serif" font-size="14.00">_______________________</text>
<text text-anchor="middle" x="253.5" y="-1379.8" font-family="Times,serif" font-size="14.00">movl 0xc0(%rbx), %eax</text>
<text text-anchor="middle" x="253.5" y="-1364.8" font-family="Times,serif" font-size="14.00">testl %eax, %eax</text>
<text text-anchor="middle" x="253.5" y="-1349.8" font-family="Times,serif" font-size="14.00">jle 0x4000cb8fee</text>
<text text-anchor="middle" x="253.5" y="-1334.8" font-family="Times,serif" font-size="14.00">_______________________</text>
<text text-anchor="middle" x="253.5" y="-1319.8" font-family="Times,serif" font-size="14.00">LOOP 0x4000cb9013</text>
</g>
<!-- 1771&#45;&gt;1786 -->
<g id="edge17" class="edge"><title>1771&#45;&gt;1786</title>
<path fill="none" stroke="black" d="M253.5,-1475.73C253.5,-1467.24 253.5,-1458.66 253.5,-1450.31"/>
<polygon fill="black" stroke="black" points="257,-1450.25 253.5,-1440.25 250,-1450.25 257,-1450.25"/>
</g>
<!-- 1787 -->
<g id="node17" class="node"><title>1787</title>
<polygon fill="none" stroke="black" points="339.5,-1276 167.5,-1276 167.5,-1163 339.5,-1163 339.5,-1276"/>
<text text-anchor="middle" x="253.5" y="-1260.8" font-family="Times,serif" font-size="14.00">0x4000cb8fee</text>
<text text-anchor="middle" x="253.5" y="-1245.8" font-family="Times,serif" font-size="14.00">_______________________</text>
<text text-anchor="middle" x="253.5" y="-1230.8" font-family="Times,serif" font-size="14.00">_______________________</text>
<text text-anchor="middle" x="253.5" y="-1215.8" font-family="Times,serif" font-size="14.00">cmpl $2, %ebp</text>
<text text-anchor="middle" x="253.5" y="-1200.8" font-family="Times,serif" font-size="14.00">jne 0x4000cb9090</text>
<text text-anchor="middle" x="253.5" y="-1185.8" font-family="Times,serif" font-size="14.00">_______________________</text>
<text text-anchor="middle" x="253.5" y="-1170.8" font-family="Times,serif" font-size="14.00">LOOP 0x4000cb9013</text>
</g>
<!-- 1786&#45;&gt;1787 -->
<g id="edge18" class="edge"><title>1786&#45;&gt;1787</title>
<path fill="none" stroke="black" d="M253.5,-1311.71C253.5,-1303.3 253.5,-1294.66 253.5,-1286.21"/>
<polygon fill="black" stroke="black" points="257,-1286.02 253.5,-1276.02 250,-1286.02 257,-1286.02"/>
</g>
<!-- 1788 -->
<g id="node18" class="node"><title>1788</title>
<polygon fill="none" stroke="black" points="338.5,-1127 166.5,-1127 166.5,-999 338.5,-999 338.5,-1127"/>
<text text-anchor="middle" x="252.5" y="-1111.8" font-family="Times,serif" font-size="14.00">0x4000cb9090</text>
<text text-anchor="middle" x="252.5" y="-1096.8" font-family="Times,serif" font-size="14.00">_______________________</text>
<text text-anchor="middle" x="252.5" y="-1081.8" font-family="Times,serif" font-size="14.00">_______________________</text>
<text text-anchor="middle" x="252.5" y="-1066.8" font-family="Times,serif" font-size="14.00">movq 0x88(%rbx), %rdx</text>
<text text-anchor="middle" x="252.5" y="-1051.8" font-family="Times,serif" font-size="14.00">testq %rdx, %rdx</text>
<text text-anchor="middle" x="252.5" y="-1036.8" font-family="Times,serif" font-size="14.00">je 0x4000cb9000</text>
<text text-anchor="middle" x="252.5" y="-1021.8" font-family="Times,serif" font-size="14.00">_______________________</text>
<text text-anchor="middle" x="252.5" y="-1006.8" font-family="Times,serif" font-size="14.00">LOOP 0x4000cb9013</text>
</g>
<!-- 1787&#45;&gt;1788 -->
<g id="edge19" class="edge"><title>1787&#45;&gt;1788</title>
<path fill="none" stroke="black" d="M253.139,-1162.72C253.085,-1154.4 253.029,-1145.71 252.973,-1137.09"/>
<polygon fill="black" stroke="black" points="256.473,-1137.01 252.908,-1127.04 249.473,-1137.06 256.473,-1137.01"/>
</g>
<!-- 1789 -->
<g id="node19" class="node"><title>1789</title>
<polygon fill="none" stroke="black" points="338.5,-963 166.5,-963 166.5,-850 338.5,-850 338.5,-963"/>
<text text-anchor="middle" x="252.5" y="-947.8" font-family="Times,serif" font-size="14.00">0x4000cb90a0</text>
<text text-anchor="middle" x="252.5" y="-932.8" font-family="Times,serif" font-size="14.00">_______________________</text>
<text text-anchor="middle" x="252.5" y="-917.8" font-family="Times,serif" font-size="14.00">_______________________</text>
<text text-anchor="middle" x="252.5" y="-902.8" font-family="Times,serif" font-size="14.00">subl $1, 4(%rdx)</text>
<text text-anchor="middle" x="252.5" y="-887.8" font-family="Times,serif" font-size="14.00">jne 0x4000cb9000</text>
<text text-anchor="middle" x="252.5" y="-872.8" font-family="Times,serif" font-size="14.00">_______________________</text>
<text text-anchor="middle" x="252.5" y="-857.8" font-family="Times,serif" font-size="14.00">LOOP 0x4000cb9013</text>
</g>
<!-- 1788&#45;&gt;1789 -->
<g id="edge20" class="edge"><title>1788&#45;&gt;1789</title>
<path fill="none" stroke="black" d="M252.5,-998.713C252.5,-990.3 252.5,-981.659 252.5,-973.206"/>
<polygon fill="black" stroke="black" points="256,-973.017 252.5,-963.017 249,-973.017 256,-973.017"/>
</g>
<!-- 1790 -->
<g id="node20" class="node"><title>1790</title>
<polygon fill="none" stroke="black" points="338.5,-814 166.5,-814 166.5,-686 338.5,-686 338.5,-814"/>
<text text-anchor="middle" x="252.5" y="-798.8" font-family="Times,serif" font-size="14.00">0x4000cb90aa</text>
<text text-anchor="middle" x="252.5" y="-783.8" font-family="Times,serif" font-size="14.00">_______________________</text>
<text text-anchor="middle" x="252.5" y="-768.8" font-family="Times,serif" font-size="14.00">_______________________</text>
<text text-anchor="middle" x="252.5" y="-753.8" font-family="Times,serif" font-size="14.00">movq $0, 8(%rdx)</text>
<text text-anchor="middle" x="252.5" y="-738.8" font-family="Times,serif" font-size="14.00">cmpl $0, 0x32b647(%rip)</text>
<text text-anchor="middle" x="252.5" y="-723.8" font-family="Times,serif" font-size="14.00">je 0x4000cb90c2</text>
<text text-anchor="middle" x="252.5" y="-708.8" font-family="Times,serif" font-size="14.00">_______________________</text>
<text text-anchor="middle" x="252.5" y="-693.8" font-family="Times,serif" font-size="14.00">LOOP 0x4000cb9013</text>
</g>
<!-- 1789&#45;&gt;1790 -->
<g id="edge21" class="edge"><title>1789&#45;&gt;1790</title>
<path fill="none" stroke="black" d="M252.5,-849.722C252.5,-841.397 252.5,-832.711 252.5,-824.094"/>
<polygon fill="black" stroke="black" points="256,-824.036 252.5,-814.036 249,-824.036 256,-824.036"/>
</g>
<!-- 1791 -->
<g id="node21" class="node"><title>1791</title>
<polygon fill="none" stroke="black" points="337.5,-650 165.5,-650 165.5,-537 337.5,-537 337.5,-650"/>
<text text-anchor="middle" x="251.5" y="-634.8" font-family="Times,serif" font-size="14.00">0x4000cb90c2</text>
<text text-anchor="middle" x="251.5" y="-619.8" font-family="Times,serif" font-size="14.00">_______________________</text>
<text text-anchor="middle" x="251.5" y="-604.8" font-family="Times,serif" font-size="14.00">_______________________</text>
<text text-anchor="middle" x="251.5" y="-589.8" font-family="Times,serif" font-size="14.00">decl (%rdx)</text>
<text text-anchor="middle" x="251.5" y="-574.8" font-family="Times,serif" font-size="14.00">je 0x4000cb90dc</text>
<text text-anchor="middle" x="251.5" y="-559.8" font-family="Times,serif" font-size="14.00">_______________________</text>
<text text-anchor="middle" x="251.5" y="-544.8" font-family="Times,serif" font-size="14.00">LOOP 0x4000cb9013</text>
</g>
<!-- 1790&#45;&gt;1791 -->
<g id="edge22" class="edge"><title>1790&#45;&gt;1791</title>
<path fill="none" stroke="black" d="M252.09,-685.713C252.036,-677.3 251.98,-668.659 251.925,-660.206"/>
<polygon fill="black" stroke="black" points="255.424,-659.994 251.859,-650.017 248.424,-660.04 255.424,-659.994"/>
</g>
<!-- 1792 -->
<g id="node22" class="node"><title>1792</title>
<polygon fill="none" stroke="black" points="337.5,-501 165.5,-501 165.5,-403 337.5,-403 337.5,-501"/>
<text text-anchor="middle" x="251.5" y="-485.8" font-family="Times,serif" font-size="14.00">0x4000cb90dc</text>
<text text-anchor="middle" x="251.5" y="-470.8" font-family="Times,serif" font-size="14.00">_______________________</text>
<text text-anchor="middle" x="251.5" y="-455.8" font-family="Times,serif" font-size="14.00">_______________________</text>
<text text-anchor="middle" x="251.5" y="-440.8" font-family="Times,serif" font-size="14.00">jmp 0x4000cb9000</text>
<text text-anchor="middle" x="251.5" y="-425.8" font-family="Times,serif" font-size="14.00">_______________________</text>
<text text-anchor="middle" x="251.5" y="-410.8" font-family="Times,serif" font-size="14.00">LOOP 0x4000cb9013</text>
</g>
<!-- 1791&#45;&gt;1792 -->
<g id="edge23" class="edge"><title>1791&#45;&gt;1792</title>
<path fill="none" stroke="black" d="M251.5,-536.965C251.5,-528.538 251.5,-519.823 251.5,-511.338"/>
<polygon fill="black" stroke="black" points="255,-511.139 251.5,-501.139 248,-511.139 255,-511.139"/>
</g>
<!-- 1792&#45;&gt;1762 -->
<g id="edge24" class="edge"><title>1792&#45;&gt;1762</title>
<path fill="none" stroke="black" d="M208.281,-402.962C200.232,-394.015 191.632,-384.456 183.01,-374.873"/>
<polygon fill="black" stroke="black" points="185.392,-372.287 176.102,-367.194 180.188,-376.969 185.392,-372.287"/>
</g>
</g>
</svg>
