<?xml version="1.0" encoding="UTF-8" standalone="no"?>
<!DOCTYPE svg PUBLIC "-//W3C//DTD SVG 1.1//EN"
 "http://www.w3.org/Graphics/SVG/1.1/DTD/svg11.dtd">
<!-- Generated by graphviz version 2.38.0 (20140413.2041)
 -->
<!-- Title: %3 Pages: 1 -->
<svg width="378pt" height="553pt"
 viewBox="0.00 0.00 377.50 553.00" xmlns="http://www.w3.org/2000/svg" xmlns:xlink="http://www.w3.org/1999/xlink">
<g id="graph0" class="graph" transform="scale(1 1) rotate(0) translate(4 549)">
<title>%3</title>
<polygon fill="white" stroke="none" points="-4,4 -4,-549 373.5,-549 373.5,4 -4,4"/>
<!-- 1454 -->
<g id="node1" class="node"><title>1454</title>
<polygon fill="none" stroke="black" points="269,-545 97,-545 97,-447 269,-447 269,-545"/>
<text text-anchor="middle" x="183" y="-529.8" font-family="Times,serif" font-size="14.00">0x4000d264b0</text>
<text text-anchor="middle" x="183" y="-514.8" font-family="Times,serif" font-size="14.00">_______________________</text>
<text text-anchor="middle" x="183" y="-499.8" font-family="Times,serif" font-size="14.00">_______________________</text>
<text text-anchor="middle" x="183" y="-484.8" font-family="Times,serif" font-size="14.00">movl $0xc, %ecx</text>
<text text-anchor="middle" x="183" y="-469.8" font-family="Times,serif" font-size="14.00">movl %ecx, %eax</text>
<text text-anchor="middle" x="183" y="-454.8" font-family="Times,serif" font-size="14.00">syscall </text>
</g>
<!-- 1455 -->
<g id="node2" class="node"><title>1455</title>
<polygon fill="none" stroke="black" points="269,-411 97,-411 97,-313 269,-313 269,-411"/>
<text text-anchor="middle" x="183" y="-395.8" font-family="Times,serif" font-size="14.00">0x4000d264b9</text>
<text text-anchor="middle" x="183" y="-380.8" font-family="Times,serif" font-size="14.00">_______________________</text>
<text text-anchor="middle" x="183" y="-365.8" font-family="Times,serif" font-size="14.00">_______________________</text>
<text text-anchor="middle" x="183" y="-350.8" font-family="Times,serif" font-size="14.00">cmpq $&#45;0x1000, %rax</text>
<text text-anchor="middle" x="183" y="-335.8" font-family="Times,serif" font-size="14.00">movq %rax, %rdx</text>
<text text-anchor="middle" x="183" y="-320.8" font-family="Times,serif" font-size="14.00">ja 0x4000d264e0</text>
</g>
<!-- 1454&#45;&gt;1455 -->
<g id="edge1" class="edge"><title>1454&#45;&gt;1455</title>
<path fill="none" stroke="black" d="M183,-446.972C183,-438.691 183,-430.003 183,-421.483"/>
<polygon fill="black" stroke="black" points="186.5,-421.214 183,-411.214 179.5,-421.214 186.5,-421.214"/>
</g>
<!-- 1456 -->
<g id="node3" class="node"><title>1456</title>
<polygon fill="none" stroke="black" points="271,-277 95,-277 95,-149 271,-149 271,-277"/>
<text text-anchor="middle" x="183" y="-261.8" font-family="Times,serif" font-size="14.00">0x4000d264c4</text>
<text text-anchor="middle" x="183" y="-246.8" font-family="Times,serif" font-size="14.00">_______________________</text>
<text text-anchor="middle" x="183" y="-231.8" font-family="Times,serif" font-size="14.00">_______________________</text>
<text text-anchor="middle" x="183" y="-216.8" font-family="Times,serif" font-size="14.00">movq 0x2b89fd(%rip), %rax</text>
<text text-anchor="middle" x="183" y="-201.8" font-family="Times,serif" font-size="14.00">movq %rdx, (%rax)</text>
<text text-anchor="middle" x="183" y="-186.8" font-family="Times,serif" font-size="14.00">xorl %eax, %eax</text>
<text text-anchor="middle" x="183" y="-171.8" font-family="Times,serif" font-size="14.00">cmpq %rdx, %rdi</text>
<text text-anchor="middle" x="183" y="-156.8" font-family="Times,serif" font-size="14.00">ja 0x4000d26500</text>
</g>
<!-- 1455&#45;&gt;1456 -->
<g id="edge2" class="edge"><title>1455&#45;&gt;1456</title>
<path fill="none" stroke="black" d="M183,-312.867C183,-304.682 183,-296.018 183,-287.358"/>
<polygon fill="black" stroke="black" points="186.5,-287.221 183,-277.221 179.5,-287.221 186.5,-287.221"/>
</g>
<!-- 1457 -->
<g id="node4" class="node"><title>1457</title>
<polygon fill="none" stroke="black" points="172,-90.5 0,-90.5 0,-22.5 172,-22.5 172,-90.5"/>
<text text-anchor="middle" x="86" y="-75.3" font-family="Times,serif" font-size="14.00">0x4000d264d5</text>
<text text-anchor="middle" x="86" y="-60.3" font-family="Times,serif" font-size="14.00">_______________________</text>
<text text-anchor="middle" x="86" y="-45.3" font-family="Times,serif" font-size="14.00">_______________________</text>
<text text-anchor="middle" x="86" y="-30.3" font-family="Times,serif" font-size="14.00">retq </text>
</g>
<!-- 1456&#45;&gt;1457 -->
<g id="edge3" class="edge"><title>1456&#45;&gt;1457</title>
<path fill="none" stroke="black" d="M143.267,-148.713C132.857,-132.133 121.891,-114.666 112.372,-99.5045"/>
<polygon fill="black" stroke="black" points="115.231,-97.4763 106.95,-90.8681 109.303,-101.198 115.231,-97.4763"/>
</g>
<!-- 1464 -->
<g id="node5" class="node"><title>1464</title>
<polygon fill="none" stroke="black" points="369.5,-113 190.5,-113 190.5,-0 369.5,-0 369.5,-113"/>
<text text-anchor="middle" x="280" y="-97.8" font-family="Times,serif" font-size="14.00">0x4000d26500</text>
<text text-anchor="middle" x="280" y="-82.8" font-family="Times,serif" font-size="14.00">_______________________</text>
<text text-anchor="middle" x="280" y="-67.8" font-family="Times,serif" font-size="14.00">_______________________</text>
<text text-anchor="middle" x="280" y="-52.8" font-family="Times,serif" font-size="14.00">movq 0x2b8971(%rip), %rax</text>
<text text-anchor="middle" x="280" y="-37.8" font-family="Times,serif" font-size="14.00">movl $0xc, %fs:(%rax)</text>
<text text-anchor="middle" x="280" y="-22.8" font-family="Times,serif" font-size="14.00">movl $0xffffffff, %eax</text>
<text text-anchor="middle" x="280" y="-7.8" font-family="Times,serif" font-size="14.00">retq </text>
</g>
<!-- 1456&#45;&gt;1464 -->
<g id="edge4" class="edge"><title>1456&#45;&gt;1464</title>
<path fill="none" stroke="black" d="M222.733,-148.713C228.364,-139.746 234.157,-130.518 239.796,-121.537"/>
<polygon fill="black" stroke="black" points="242.792,-123.347 245.145,-113.017 236.863,-119.625 242.792,-123.347"/>
</g>
</g>
</svg>
