<?xml version="1.0" encoding="UTF-8" standalone="no"?>
<!DOCTYPE svg PUBLIC "-//W3C//DTD SVG 1.1//EN"
 "http://www.w3.org/Graphics/SVG/1.1/DTD/svg11.dtd">
<!-- Generated by graphviz version 2.38.0 (20140413.2041)
 -->
<!-- Title: %3 Pages: 1 -->
<svg width="180pt" height="1358pt"
 viewBox="0.00 0.00 180.00 1358.00" xmlns="http://www.w3.org/2000/svg" xmlns:xlink="http://www.w3.org/1999/xlink">
<g id="graph0" class="graph" transform="scale(1 1) rotate(0) translate(4 1354)">
<title>%3</title>
<polygon fill="white" stroke="none" points="-4,4 -4,-1354 176,-1354 176,4 -4,4"/>
<!-- 1612 -->
<g id="node1" class="node"><title>1612</title>
<polygon fill="none" stroke="black" points="172,-1350 0,-1350 0,-1177 172,-1177 172,-1350"/>
<text text-anchor="middle" x="86" y="-1334.8" font-family="Times,serif" font-size="14.00">0x4000cb5fc0</text>
<text text-anchor="middle" x="86" y="-1319.8" font-family="Times,serif" font-size="14.00">_______________________</text>
<text text-anchor="middle" x="86" y="-1304.8" font-family="Times,serif" font-size="14.00">_______________________</text>
<text text-anchor="middle" x="86" y="-1289.8" font-family="Times,serif" font-size="14.00">testq %rdx, %rdx</text>
<text text-anchor="middle" x="86" y="-1274.8" font-family="Times,serif" font-size="14.00">pushq %r14</text>
<text text-anchor="middle" x="86" y="-1259.8" font-family="Times,serif" font-size="14.00">movq %rdi, %r14</text>
<text text-anchor="middle" x="86" y="-1244.8" font-family="Times,serif" font-size="14.00">pushq %r13</text>
<text text-anchor="middle" x="86" y="-1229.8" font-family="Times,serif" font-size="14.00">pushq %r12</text>
<text text-anchor="middle" x="86" y="-1214.8" font-family="Times,serif" font-size="14.00">pushq %rbp</text>
<text text-anchor="middle" x="86" y="-1199.8" font-family="Times,serif" font-size="14.00">pushq %rbx</text>
<text text-anchor="middle" x="86" y="-1184.8" font-family="Times,serif" font-size="14.00">jle 0x4000cb6068</text>
</g>
<!-- 1613 -->
<g id="node2" class="node"><title>1613</title>
<polygon fill="none" stroke="black" points="172,-1141 0,-1141 0,-1013 172,-1013 172,-1141"/>
<text text-anchor="middle" x="86" y="-1125.8" font-family="Times,serif" font-size="14.00">0x4000cb5fd4</text>
<text text-anchor="middle" x="86" y="-1110.8" font-family="Times,serif" font-size="14.00">_______________________</text>
<text text-anchor="middle" x="86" y="-1095.8" font-family="Times,serif" font-size="14.00">_______________________</text>
<text text-anchor="middle" x="86" y="-1080.8" font-family="Times,serif" font-size="14.00">movq %rsi, %rbp</text>
<text text-anchor="middle" x="86" y="-1065.8" font-family="Times,serif" font-size="14.00">movq %rdx, %r12</text>
<text text-anchor="middle" x="86" y="-1050.8" font-family="Times,serif" font-size="14.00">movq %rdx, %rbx</text>
<text text-anchor="middle" x="86" y="-1035.8" font-family="Times,serif" font-size="14.00">movl $1, %r13d</text>
<text text-anchor="middle" x="86" y="-1020.8" font-family="Times,serif" font-size="14.00">jmp 0x4000cb6007</text>
</g>
<!-- 1612&#45;&gt;1613 -->
<g id="edge1" class="edge"><title>1612&#45;&gt;1613</title>
<path fill="none" stroke="black" d="M86,-1176.73C86,-1168.24 86,-1159.66 86,-1151.31"/>
<polygon fill="black" stroke="black" points="89.5001,-1151.25 86,-1141.25 82.5001,-1151.25 89.5001,-1151.25"/>
</g>
<!-- 1614 -->
<g id="node3" class="node"><title>1614</title>
<polygon fill="none" stroke="black" points="172,-977 0,-977 0,-894 172,-894 172,-977"/>
<text text-anchor="middle" x="86" y="-961.8" font-family="Times,serif" font-size="14.00">0x4000cb6007</text>
<text text-anchor="middle" x="86" y="-946.8" font-family="Times,serif" font-size="14.00">_______________________</text>
<text text-anchor="middle" x="86" y="-931.8" font-family="Times,serif" font-size="14.00">_______________________</text>
<text text-anchor="middle" x="86" y="-916.8" font-family="Times,serif" font-size="14.00">testb $2, 0x74(%r14)</text>
<text text-anchor="middle" x="86" y="-901.8" font-family="Times,serif" font-size="14.00">je 0x4000cb5fe8</text>
</g>
<!-- 1613&#45;&gt;1614 -->
<g id="edge2" class="edge"><title>1613&#45;&gt;1614</title>
<path fill="none" stroke="black" d="M86,-1012.78C86,-1004.26 86,-995.618 86,-987.355"/>
<polygon fill="black" stroke="black" points="89.5001,-987.13 86,-977.13 82.5001,-987.13 89.5001,-987.13"/>
</g>
<!-- 1615 -->
<g id="node4" class="node"><title>1615</title>
<polygon fill="none" stroke="black" points="172,-858 0,-858 0,-715 172,-715 172,-858"/>
<text text-anchor="middle" x="86" y="-842.8" font-family="Times,serif" font-size="14.00">0x4000cb5fe8</text>
<text text-anchor="middle" x="86" y="-827.8" font-family="Times,serif" font-size="14.00">_______________________</text>
<text text-anchor="middle" x="86" y="-812.8" font-family="Times,serif" font-size="14.00">_______________________</text>
<text text-anchor="middle" x="86" y="-797.8" font-family="Times,serif" font-size="14.00">movl 0x70(%r14), %edi</text>
<text text-anchor="middle" x="86" y="-782.8" font-family="Times,serif" font-size="14.00">movq %rbx, %rdx</text>
<text text-anchor="middle" x="86" y="-767.8" font-family="Times,serif" font-size="14.00">movq %rbp, %rsi</text>
<text text-anchor="middle" x="86" y="-752.8" font-family="Times,serif" font-size="14.00">callq 0x4000d207a0</text>
<text text-anchor="middle" x="86" y="-737.8" font-family="Times,serif" font-size="14.00">_______________________</text>
<text text-anchor="middle" x="86" y="-722.8" font-family="Times,serif" font-size="14.00">CALL __write</text>
</g>
<!-- 1614&#45;&gt;1615 -->
<g id="edge3" class="edge"><title>1614&#45;&gt;1615</title>
<path fill="none" stroke="black" d="M86,-893.942C86,-885.854 86,-877.094 86,-868.192"/>
<polygon fill="black" stroke="black" points="89.5001,-868.11 86,-858.11 82.5001,-868.11 89.5001,-868.11"/>
</g>
<!-- 1620 -->
<g id="node5" class="node"><title>1620</title>
<polygon fill="none" stroke="black" points="172,-679 0,-679 0,-596 172,-596 172,-679"/>
<text text-anchor="middle" x="86" y="-663.8" font-family="Times,serif" font-size="14.00">0x4000cb5ff7</text>
<text text-anchor="middle" x="86" y="-648.8" font-family="Times,serif" font-size="14.00">_______________________</text>
<text text-anchor="middle" x="86" y="-633.8" font-family="Times,serif" font-size="14.00">_______________________</text>
<text text-anchor="middle" x="86" y="-618.8" font-family="Times,serif" font-size="14.00">testq %rax, %rax</text>
<text text-anchor="middle" x="86" y="-603.8" font-family="Times,serif" font-size="14.00">js 0x4000cb6031</text>
</g>
<!-- 1615&#45;&gt;1620 -->
<g id="edge4" class="edge"><title>1615&#45;&gt;1620</title>
<path fill="none" stroke="black" d="M86,-714.584C86,-706.014 86,-697.398 86,-689.201"/>
<polygon fill="black" stroke="black" points="89.5001,-689.079 86,-679.079 82.5001,-689.079 89.5001,-689.079"/>
</g>
<!-- 1621 -->
<g id="node6" class="node"><title>1621</title>
<polygon fill="none" stroke="black" points="172,-560 0,-560 0,-447 172,-447 172,-560"/>
<text text-anchor="middle" x="86" y="-544.8" font-family="Times,serif" font-size="14.00">0x4000cb5ffc</text>
<text text-anchor="middle" x="86" y="-529.8" font-family="Times,serif" font-size="14.00">_______________________</text>
<text text-anchor="middle" x="86" y="-514.8" font-family="Times,serif" font-size="14.00">_______________________</text>
<text text-anchor="middle" x="86" y="-499.8" font-family="Times,serif" font-size="14.00">subq %rax, %rbx</text>
<text text-anchor="middle" x="86" y="-484.8" font-family="Times,serif" font-size="14.00">addq %rax, %rbp</text>
<text text-anchor="middle" x="86" y="-469.8" font-family="Times,serif" font-size="14.00">testq %rbx, %rbx</text>
<text text-anchor="middle" x="86" y="-454.8" font-family="Times,serif" font-size="14.00">jle 0x4000cb6060</text>
</g>
<!-- 1620&#45;&gt;1621 -->
<g id="edge5" class="edge"><title>1620&#45;&gt;1621</title>
<path fill="none" stroke="black" d="M86,-595.819C86,-587.761 86,-579.109 86,-570.458"/>
<polygon fill="black" stroke="black" points="89.5001,-570.339 86,-560.339 82.5001,-570.339 89.5001,-570.339"/>
</g>
<!-- 1622 -->
<g id="node7" class="node"><title>1622</title>
<polygon fill="none" stroke="black" points="172,-411 0,-411 0,-313 172,-313 172,-411"/>
<text text-anchor="middle" x="86" y="-395.8" font-family="Times,serif" font-size="14.00">0x4000cb6060</text>
<text text-anchor="middle" x="86" y="-380.8" font-family="Times,serif" font-size="14.00">_______________________</text>
<text text-anchor="middle" x="86" y="-365.8" font-family="Times,serif" font-size="14.00">_______________________</text>
<text text-anchor="middle" x="86" y="-350.8" font-family="Times,serif" font-size="14.00">movq %r12, %rax</text>
<text text-anchor="middle" x="86" y="-335.8" font-family="Times,serif" font-size="14.00">subq %rbx, %rax</text>
<text text-anchor="middle" x="86" y="-320.8" font-family="Times,serif" font-size="14.00">jmp 0x4000cb603b</text>
</g>
<!-- 1621&#45;&gt;1622 -->
<g id="edge6" class="edge"><title>1621&#45;&gt;1622</title>
<path fill="none" stroke="black" d="M86,-446.965C86,-438.538 86,-429.823 86,-421.338"/>
<polygon fill="black" stroke="black" points="89.5001,-421.139 86,-411.139 82.5001,-421.139 89.5001,-421.139"/>
</g>
<!-- 1623 -->
<g id="node8" class="node"><title>1623</title>
<polygon fill="none" stroke="black" points="172,-277 0,-277 0,-179 172,-179 172,-277"/>
<text text-anchor="middle" x="86" y="-261.8" font-family="Times,serif" font-size="14.00">0x4000cb603b</text>
<text text-anchor="middle" x="86" y="-246.8" font-family="Times,serif" font-size="14.00">_______________________</text>
<text text-anchor="middle" x="86" y="-231.8" font-family="Times,serif" font-size="14.00">_______________________</text>
<text text-anchor="middle" x="86" y="-216.8" font-family="Times,serif" font-size="14.00">movq 0x90(%r14), %rdx</text>
<text text-anchor="middle" x="86" y="-201.8" font-family="Times,serif" font-size="14.00">testq %rdx, %rdx</text>
<text text-anchor="middle" x="86" y="-186.8" font-family="Times,serif" font-size="14.00">js 0x4000cb6051</text>
</g>
<!-- 1622&#45;&gt;1623 -->
<g id="edge7" class="edge"><title>1622&#45;&gt;1623</title>
<path fill="none" stroke="black" d="M86,-312.972C86,-304.691 86,-296.003 86,-287.483"/>
<polygon fill="black" stroke="black" points="89.5001,-287.214 86,-277.214 82.5001,-287.214 89.5001,-287.214"/>
</g>
<!-- 1624 -->
<g id="node9" class="node"><title>1624</title>
<polygon fill="none" stroke="black" points="172,-143 0,-143 0,-0 172,-0 172,-143"/>
<text text-anchor="middle" x="86" y="-127.8" font-family="Times,serif" font-size="14.00">0x4000cb6051</text>
<text text-anchor="middle" x="86" y="-112.8" font-family="Times,serif" font-size="14.00">_______________________</text>
<text text-anchor="middle" x="86" y="-97.8" font-family="Times,serif" font-size="14.00">_______________________</text>
<text text-anchor="middle" x="86" y="-82.8" font-family="Times,serif" font-size="14.00">popq %rbx</text>
<text text-anchor="middle" x="86" y="-67.8" font-family="Times,serif" font-size="14.00">popq %rbp</text>
<text text-anchor="middle" x="86" y="-52.8" font-family="Times,serif" font-size="14.00">popq %r12</text>
<text text-anchor="middle" x="86" y="-37.8" font-family="Times,serif" font-size="14.00">popq %r13</text>
<text text-anchor="middle" x="86" y="-22.8" font-family="Times,serif" font-size="14.00">popq %r14</text>
<text text-anchor="middle" x="86" y="-7.8" font-family="Times,serif" font-size="14.00">retq </text>
</g>
<!-- 1623&#45;&gt;1624 -->
<g id="edge8" class="edge"><title>1623&#45;&gt;1624</title>
<path fill="none" stroke="black" d="M86,-178.962C86,-170.813 86,-162.154 86,-153.434"/>
<polygon fill="black" stroke="black" points="89.5001,-153.194 86,-143.194 82.5001,-153.194 89.5001,-153.194"/>
</g>
</g>
</svg>
