<?xml version="1.0" encoding="UTF-8" standalone="no"?>
<!DOCTYPE svg PUBLIC "-//W3C//DTD SVG 1.1//EN"
 "http://www.w3.org/Graphics/SVG/1.1/DTD/svg11.dtd">
<!-- Generated by graphviz version 2.38.0 (20140413.2041)
 -->
<!-- Title: %3 Pages: 1 -->
<svg width="197pt" height="987pt"
 viewBox="0.00 0.00 197.00 987.00" xmlns="http://www.w3.org/2000/svg" xmlns:xlink="http://www.w3.org/1999/xlink">
<g id="graph0" class="graph" transform="scale(1 1) rotate(0) translate(4 983)">
<title>%3</title>
<polygon fill="white" stroke="none" points="-4,4 -4,-983 193,-983 193,4 -4,4"/>
<!-- 1292 -->
<g id="node1" class="node"><title>1292</title>
<polygon fill="none" stroke="black" points="180.5,-637 8.5,-637 8.5,-329 180.5,-329 180.5,-637"/>
<text text-anchor="middle" x="94.5" y="-621.8" font-family="Times,serif" font-size="14.00">0x4000a18df0</text>
<text text-anchor="middle" x="94.5" y="-606.8" font-family="Times,serif" font-size="14.00">_______________________</text>
<text text-anchor="middle" x="94.5" y="-591.8" font-family="Times,serif" font-size="14.00">_______________________</text>
<text text-anchor="middle" x="94.5" y="-576.8" font-family="Times,serif" font-size="14.00">pushq %rbx</text>
<text text-anchor="middle" x="94.5" y="-561.8" font-family="Times,serif" font-size="14.00">movq %rsp, %rbx</text>
<text text-anchor="middle" x="94.5" y="-546.8" font-family="Times,serif" font-size="14.00">andq $0xfffffff0, %rsp</text>
<text text-anchor="middle" x="94.5" y="-531.8" font-family="Times,serif" font-size="14.00">subq $0x240, %rsp</text>
<text text-anchor="middle" x="94.5" y="-516.8" font-family="Times,serif" font-size="14.00">movq %rax, (%rsp)</text>
<text text-anchor="middle" x="94.5" y="-501.8" font-family="Times,serif" font-size="14.00">movq %rcx, 8(%rsp)</text>
<text text-anchor="middle" x="94.5" y="-486.8" font-family="Times,serif" font-size="14.00">movq %rdx, 0x10(%rsp)</text>
<text text-anchor="middle" x="94.5" y="-471.8" font-family="Times,serif" font-size="14.00">movq %rsi, 0x18(%rsp)</text>
<text text-anchor="middle" x="94.5" y="-456.8" font-family="Times,serif" font-size="14.00">movq %rdi, 0x20(%rsp)</text>
<text text-anchor="middle" x="94.5" y="-441.8" font-family="Times,serif" font-size="14.00">movq %r8, 0x28(%rsp)</text>
<text text-anchor="middle" x="94.5" y="-426.8" font-family="Times,serif" font-size="14.00">movq %r9, 0x30(%rsp)</text>
<text text-anchor="middle" x="94.5" y="-411.8" font-family="Times,serif" font-size="14.00">fxsave 0x40(%rsp)</text>
<text text-anchor="middle" x="94.5" y="-396.8" font-family="Times,serif" font-size="14.00">movq 0x10(%rbx), %rsi</text>
<text text-anchor="middle" x="94.5" y="-381.8" font-family="Times,serif" font-size="14.00">movq 8(%rbx), %rdi</text>
<text text-anchor="middle" x="94.5" y="-366.8" font-family="Times,serif" font-size="14.00">callq 0x4000a11c70</text>
<text text-anchor="middle" x="94.5" y="-351.8" font-family="Times,serif" font-size="14.00">_______________________</text>
<text text-anchor="middle" x="94.5" y="-336.8" font-family="Times,serif" font-size="14.00">CALL 0x4000a11c70</text>
</g>
<!-- 1304 -->
<g id="node2" class="node"><title>1304</title>
<polygon fill="none" stroke="black" points="189,-293 0,-293 0,-0 189,-0 189,-293"/>
<text text-anchor="middle" x="94.5" y="-277.8" font-family="Times,serif" font-size="14.00">0x4000a18e33</text>
<text text-anchor="middle" x="94.5" y="-262.8" font-family="Times,serif" font-size="14.00">_______________________</text>
<text text-anchor="middle" x="94.5" y="-247.8" font-family="Times,serif" font-size="14.00">_______________________</text>
<text text-anchor="middle" x="94.5" y="-232.8" font-family="Times,serif" font-size="14.00">movq %rax, %r11</text>
<text text-anchor="middle" x="94.5" y="-217.8" font-family="Times,serif" font-size="14.00">fxrstor 0x40(%rsp)</text>
<text text-anchor="middle" x="94.5" y="-202.8" font-family="Times,serif" font-size="14.00">movq 0x30(%rsp), %r9</text>
<text text-anchor="middle" x="94.5" y="-187.8" font-family="Times,serif" font-size="14.00">movq 0x28(%rsp), %r8</text>
<text text-anchor="middle" x="94.5" y="-172.8" font-family="Times,serif" font-size="14.00">movq 0x20(%rsp), %rdi</text>
<text text-anchor="middle" x="94.5" y="-157.8" font-family="Times,serif" font-size="14.00">movq 0x18(%rsp), %rsi</text>
<text text-anchor="middle" x="94.5" y="-142.8" font-family="Times,serif" font-size="14.00">movq 0x10(%rsp), %rdx</text>
<text text-anchor="middle" x="94.5" y="-127.8" font-family="Times,serif" font-size="14.00">movq 8(%rsp), %rcx</text>
<text text-anchor="middle" x="94.5" y="-112.8" font-family="Times,serif" font-size="14.00">movq (%rsp), %rax</text>
<text text-anchor="middle" x="94.5" y="-97.8" font-family="Times,serif" font-size="14.00">movq %rbx, %rsp</text>
<text text-anchor="middle" x="94.5" y="-82.8" font-family="Times,serif" font-size="14.00">movq (%rsp), %rbx</text>
<text text-anchor="middle" x="94.5" y="-67.8" font-family="Times,serif" font-size="14.00">addq $0x18, %rsp</text>
<text text-anchor="middle" x="94.5" y="-52.8" font-family="Times,serif" font-size="14.00">jmpq *%r11</text>
<text text-anchor="middle" x="94.5" y="-37.8" font-family="Times,serif" font-size="14.00">_______________________</text>
<text text-anchor="middle" x="94.5" y="-22.8" font-family="Times,serif" font-size="14.00">CALL _IO_printf</text>
<text text-anchor="middle" x="94.5" y="-7.8" font-family="Times,serif" font-size="14.00">CALL _dl_find_dso_for_object</text>
</g>
<!-- 1292&#45;&gt;1304 -->
<g id="edge1" class="edge"><title>1292&#45;&gt;1304</title>
<path fill="none" stroke="black" d="M94.5,-328.945C94.5,-320.351 94.5,-311.708 94.5,-303.105"/>
<polygon fill="black" stroke="black" points="98.0001,-303.031 94.5,-293.031 91.0001,-303.031 98.0001,-303.031"/>
</g>
<!-- 1359 -->
<g id="node3" class="node"><title>1359</title>
<polygon fill="none" stroke="black" points="180.5,-979 8.5,-979 8.5,-911 180.5,-911 180.5,-979"/>
<text text-anchor="middle" x="94.5" y="-963.8" font-family="Times,serif" font-size="14.00">0x4000c61b30</text>
<text text-anchor="middle" x="94.5" y="-948.8" font-family="Times,serif" font-size="14.00">_______________________</text>
<text text-anchor="middle" x="94.5" y="-933.8" font-family="Times,serif" font-size="14.00">_______________________</text>
<text text-anchor="middle" x="94.5" y="-918.8" font-family="Times,serif" font-size="14.00">jmpq *0x37d522(%rip)</text>
</g>
<!-- 1360 -->
<g id="node4" class="node"><title>1360</title>
<polygon fill="none" stroke="black" points="180.5,-875 8.5,-875 8.5,-792 180.5,-792 180.5,-875"/>
<text text-anchor="middle" x="94.5" y="-859.8" font-family="Times,serif" font-size="14.00">0x4000c61b36</text>
<text text-anchor="middle" x="94.5" y="-844.8" font-family="Times,serif" font-size="14.00">_______________________</text>
<text text-anchor="middle" x="94.5" y="-829.8" font-family="Times,serif" font-size="14.00">_______________________</text>
<text text-anchor="middle" x="94.5" y="-814.8" font-family="Times,serif" font-size="14.00">pushq $3</text>
<text text-anchor="middle" x="94.5" y="-799.8" font-family="Times,serif" font-size="14.00">jmp 0x4000c61aa0</text>
</g>
<!-- 1359&#45;&gt;1360 -->
<g id="edge2" class="edge"><title>1359&#45;&gt;1360</title>
<path fill="none" stroke="black" d="M94.5,-910.849C94.5,-902.796 94.5,-894 94.5,-885.336"/>
<polygon fill="black" stroke="black" points="98.0001,-885.277 94.5,-875.277 91.0001,-885.277 98.0001,-885.277"/>
</g>
<!-- 1361 -->
<g id="node5" class="node"><title>1361</title>
<polygon fill="none" stroke="black" points="180.5,-756 8.5,-756 8.5,-673 180.5,-673 180.5,-756"/>
<text text-anchor="middle" x="94.5" y="-740.8" font-family="Times,serif" font-size="14.00">0x4000c61aa0</text>
<text text-anchor="middle" x="94.5" y="-725.8" font-family="Times,serif" font-size="14.00">_______________________</text>
<text text-anchor="middle" x="94.5" y="-710.8" font-family="Times,serif" font-size="14.00">_______________________</text>
<text text-anchor="middle" x="94.5" y="-695.8" font-family="Times,serif" font-size="14.00">pushq 0x37d562(%rip)</text>
<text text-anchor="middle" x="94.5" y="-680.8" font-family="Times,serif" font-size="14.00">jmpq *0x37d564(%rip)</text>
</g>
<!-- 1360&#45;&gt;1361 -->
<g id="edge3" class="edge"><title>1360&#45;&gt;1361</title>
<path fill="none" stroke="black" d="M94.5,-791.907C94.5,-783.649 94.5,-774.864 94.5,-766.302"/>
<polygon fill="black" stroke="black" points="98.0001,-766.021 94.5,-756.021 91.0001,-766.021 98.0001,-766.021"/>
</g>
<!-- 1361&#45;&gt;1292 -->
<g id="edge4" class="edge"><title>1361&#45;&gt;1292</title>
<path fill="none" stroke="black" d="M94.5,-672.998C94.5,-665.155 94.5,-656.5 94.5,-647.339"/>
<polygon fill="black" stroke="black" points="98.0001,-647.213 94.5,-637.213 91.0001,-647.213 98.0001,-647.213"/>
</g>
</g>
</svg>
