<?xml version="1.0" encoding="UTF-8" standalone="no"?>
<!DOCTYPE svg PUBLIC "-//W3C//DTD SVG 1.1//EN"
 "http://www.w3.org/Graphics/SVG/1.1/DTD/svg11.dtd">
<!-- Generated by graphviz version 2.38.0 (20140413.2041)
 -->
<!-- Title: %3 Pages: 1 -->
<svg width="180pt" height="314pt"
 viewBox="0.00 0.00 180.00 314.00" xmlns="http://www.w3.org/2000/svg" xmlns:xlink="http://www.w3.org/1999/xlink">
<g id="graph0" class="graph" transform="scale(1 1) rotate(0) translate(4 310)">
<title>%3</title>
<polygon fill="white" stroke="none" points="-4,4 -4,-310 176,-310 176,4 -4,4"/>
<!-- 1168 -->
<g id="node1" class="node"><title>1168</title>
<polygon fill="none" stroke="black" points="172,-306 0,-306 0,-223 172,-223 172,-306"/>
<text text-anchor="middle" x="86" y="-290.8" font-family="Times,serif" font-size="14.00">0x4000a1c450</text>
<text text-anchor="middle" x="86" y="-275.8" font-family="Times,serif" font-size="14.00">_______________________</text>
<text text-anchor="middle" x="86" y="-260.8" font-family="Times,serif" font-size="14.00">_______________________</text>
<text text-anchor="middle" x="86" y="-245.8" font-family="Times,serif" font-size="14.00">movl $0xb, %eax</text>
<text text-anchor="middle" x="86" y="-230.8" font-family="Times,serif" font-size="14.00">syscall </text>
</g>
<!-- 1169 -->
<g id="node2" class="node"><title>1169</title>
<polygon fill="none" stroke="black" points="172,-187 0,-187 0,-104 172,-104 172,-187"/>
<text text-anchor="middle" x="86" y="-171.8" font-family="Times,serif" font-size="14.00">0x4000a1c457</text>
<text text-anchor="middle" x="86" y="-156.8" font-family="Times,serif" font-size="14.00">_______________________</text>
<text text-anchor="middle" x="86" y="-141.8" font-family="Times,serif" font-size="14.00">_______________________</text>
<text text-anchor="middle" x="86" y="-126.8" font-family="Times,serif" font-size="14.00">cmpq $&#45;0xfff, %rax</text>
<text text-anchor="middle" x="86" y="-111.8" font-family="Times,serif" font-size="14.00">jae 0x4000a1c460</text>
</g>
<!-- 1168&#45;&gt;1169 -->
<g id="edge1" class="edge"><title>1168&#45;&gt;1169</title>
<path fill="none" stroke="black" d="M86,-222.907C86,-214.649 86,-205.864 86,-197.302"/>
<polygon fill="black" stroke="black" points="89.5001,-197.021 86,-187.021 82.5001,-197.021 89.5001,-197.021"/>
</g>
<!-- 1170 -->
<g id="node3" class="node"><title>1170</title>
<polygon fill="none" stroke="black" points="172,-68 0,-68 0,-0 172,-0 172,-68"/>
<text text-anchor="middle" x="86" y="-52.8" font-family="Times,serif" font-size="14.00">0x4000a1c45f</text>
<text text-anchor="middle" x="86" y="-37.8" font-family="Times,serif" font-size="14.00">_______________________</text>
<text text-anchor="middle" x="86" y="-22.8" font-family="Times,serif" font-size="14.00">_______________________</text>
<text text-anchor="middle" x="86" y="-7.8" font-family="Times,serif" font-size="14.00">retq </text>
</g>
<!-- 1169&#45;&gt;1170 -->
<g id="edge2" class="edge"><title>1169&#45;&gt;1170</title>
<path fill="none" stroke="black" d="M86,-103.726C86,-95.5175 86,-86.8595 86,-78.56"/>
<polygon fill="black" stroke="black" points="89.5001,-78.2996 86,-68.2996 82.5001,-78.2996 89.5001,-78.2996"/>
</g>
</g>
</svg>
