<?xml version="1.0" encoding="UTF-8" standalone="no"?>
<!DOCTYPE svg PUBLIC "-//W3C//DTD SVG 1.1//EN"
 "http://www.w3.org/Graphics/SVG/1.1/DTD/svg11.dtd">
<!-- Generated by graphviz version 2.38.0 (20140413.2041)
 -->
<!-- Title: %3 Pages: 1 -->
<svg width="396pt" height="2431pt"
 viewBox="0.00 0.00 396.00 2431.00" xmlns="http://www.w3.org/2000/svg" xmlns:xlink="http://www.w3.org/1999/xlink">
<g id="graph0" class="graph" transform="scale(1 1) rotate(0) translate(4 2427)">
<title>%3</title>
<polygon fill="white" stroke="none" points="-4,4 -4,-2427 392,-2427 392,4 -4,4"/>
<!-- 1328 -->
<g id="node1" class="node"><title>1328</title>
<polygon fill="none" stroke="black" points="267,-2423 95,-2423 95,-2325 267,-2325 267,-2423"/>
<text text-anchor="middle" x="181" y="-2407.8" font-family="Times,serif" font-size="14.00">0x4000cb7400</text>
<text text-anchor="middle" x="181" y="-2392.8" font-family="Times,serif" font-size="14.00">_______________________</text>
<text text-anchor="middle" x="181" y="-2377.8" font-family="Times,serif" font-size="14.00">_______________________</text>
<text text-anchor="middle" x="181" y="-2362.8" font-family="Times,serif" font-size="14.00">movl (%rdi), %ecx</text>
<text text-anchor="middle" x="181" y="-2347.8" font-family="Times,serif" font-size="14.00">testb $8, %cl</text>
<text text-anchor="middle" x="181" y="-2332.8" font-family="Times,serif" font-size="14.00">jne 0x4000cb75b0</text>
</g>
<!-- 1329 -->
<g id="node2" class="node"><title>1329</title>
<polygon fill="none" stroke="black" points="267,-2289 95,-2289 95,-2131 267,-2131 267,-2289"/>
<text text-anchor="middle" x="181" y="-2273.8" font-family="Times,serif" font-size="14.00">0x4000cb740b</text>
<text text-anchor="middle" x="181" y="-2258.8" font-family="Times,serif" font-size="14.00">_______________________</text>
<text text-anchor="middle" x="181" y="-2243.8" font-family="Times,serif" font-size="14.00">_______________________</text>
<text text-anchor="middle" x="181" y="-2228.8" font-family="Times,serif" font-size="14.00">testb $8, %ch</text>
<text text-anchor="middle" x="181" y="-2213.8" font-family="Times,serif" font-size="14.00">pushq %r12</text>
<text text-anchor="middle" x="181" y="-2198.8" font-family="Times,serif" font-size="14.00">pushq %rbp</text>
<text text-anchor="middle" x="181" y="-2183.8" font-family="Times,serif" font-size="14.00">movl %esi, %ebp</text>
<text text-anchor="middle" x="181" y="-2168.8" font-family="Times,serif" font-size="14.00">pushq %rbx</text>
<text text-anchor="middle" x="181" y="-2153.8" font-family="Times,serif" font-size="14.00">movq %rdi, %rbx</text>
<text text-anchor="middle" x="181" y="-2138.8" font-family="Times,serif" font-size="14.00">je 0x4000cb7468</text>
</g>
<!-- 1328&#45;&gt;1329 -->
<g id="edge1" class="edge"><title>1328&#45;&gt;1329</title>
<path fill="none" stroke="black" d="M181,-2324.83C181,-2316.63 181,-2307.89 181,-2299.04"/>
<polygon fill="black" stroke="black" points="184.5,-2299.02 181,-2289.02 177.5,-2299.02 184.5,-2299.02"/>
</g>
<!-- 1330 -->
<g id="node3" class="node"><title>1330</title>
<polygon fill="none" stroke="black" points="191,-2095 19,-2095 19,-2012 191,-2012 191,-2095"/>
<text text-anchor="middle" x="105" y="-2079.8" font-family="Times,serif" font-size="14.00">0x4000cb7468</text>
<text text-anchor="middle" x="105" y="-2064.8" font-family="Times,serif" font-size="14.00">_______________________</text>
<text text-anchor="middle" x="105" y="-2049.8" font-family="Times,serif" font-size="14.00">_______________________</text>
<text text-anchor="middle" x="105" y="-2034.8" font-family="Times,serif" font-size="14.00">cmpq $0, 0x20(%rdi)</text>
<text text-anchor="middle" x="105" y="-2019.8" font-family="Times,serif" font-size="14.00">je 0x4000cb75d0</text>
</g>
<!-- 1329&#45;&gt;1330 -->
<g id="edge2" class="edge"><title>1329&#45;&gt;1330</title>
<path fill="none" stroke="black" d="M142.555,-2130.84C138.121,-2121.83 133.694,-2112.83 129.518,-2104.34"/>
<polygon fill="black" stroke="black" points="132.65,-2102.78 125.096,-2095.35 126.369,-2105.87 132.65,-2102.78"/>
</g>
<!-- 1531 -->
<g id="node4" class="node"><title>1531</title>
<polygon fill="none" stroke="black" points="362,-1961 190,-1961 190,-1878 362,-1878 362,-1961"/>
<text text-anchor="middle" x="276" y="-1945.8" font-family="Times,serif" font-size="14.00">0x4000cb7419</text>
<text text-anchor="middle" x="276" y="-1930.8" font-family="Times,serif" font-size="14.00">_______________________</text>
<text text-anchor="middle" x="276" y="-1915.8" font-family="Times,serif" font-size="14.00">_______________________</text>
<text text-anchor="middle" x="276" y="-1900.8" font-family="Times,serif" font-size="14.00">cmpq $0, 0x20(%rdi)</text>
<text text-anchor="middle" x="276" y="-1885.8" font-family="Times,serif" font-size="14.00">je 0x4000cb75d0</text>
</g>
<!-- 1329&#45;&gt;1531 -->
<g id="edge3" class="edge"><title>1329&#45;&gt;1531</title>
<path fill="none" stroke="black" d="M206.708,-2130.93C223.465,-2080.04 244.841,-2015.13 259.389,-1970.94"/>
<polygon fill="black" stroke="black" points="262.765,-1971.88 262.568,-1961.29 256.116,-1969.69 262.765,-1971.88"/>
</g>
<!-- 1331 -->
<g id="node5" class="node"><title>1331</title>
<polygon fill="none" stroke="black" points="172,-1976 0,-1976 0,-1863 172,-1863 172,-1976"/>
<text text-anchor="middle" x="86" y="-1960.8" font-family="Times,serif" font-size="14.00">0x4000cb75d0</text>
<text text-anchor="middle" x="86" y="-1945.8" font-family="Times,serif" font-size="14.00">_______________________</text>
<text text-anchor="middle" x="86" y="-1930.8" font-family="Times,serif" font-size="14.00">_______________________</text>
<text text-anchor="middle" x="86" y="-1915.8" font-family="Times,serif" font-size="14.00">movq %rbx, %rdi</text>
<text text-anchor="middle" x="86" y="-1900.8" font-family="Times,serif" font-size="14.00">callq 0x4000cb82a0</text>
<text text-anchor="middle" x="86" y="-1885.8" font-family="Times,serif" font-size="14.00">_______________________</text>
<text text-anchor="middle" x="86" y="-1870.8" font-family="Times,serif" font-size="14.00">CALL _IO_doallocbuf</text>
</g>
<!-- 1330&#45;&gt;1331 -->
<g id="edge4" class="edge"><title>1330&#45;&gt;1331</title>
<path fill="none" stroke="black" d="M99.1443,-2011.82C97.9845,-2003.76 96.7392,-1995.11 95.494,-1986.46"/>
<polygon fill="black" stroke="black" points="98.9266,-1985.74 94.0375,-1976.34 91.998,-1986.74 98.9266,-1985.74"/>
</g>
<!-- 1532 -->
<g id="node15" class="node"><title>1532</title>
<polygon fill="none" stroke="black" points="362,-1789.5 190,-1789.5 190,-1721.5 362,-1721.5 362,-1789.5"/>
<text text-anchor="middle" x="276" y="-1774.3" font-family="Times,serif" font-size="14.00">0x4000cb7424</text>
<text text-anchor="middle" x="276" y="-1759.3" font-family="Times,serif" font-size="14.00">_______________________</text>
<text text-anchor="middle" x="276" y="-1744.3" font-family="Times,serif" font-size="14.00">_______________________</text>
<text text-anchor="middle" x="276" y="-1729.3" font-family="Times,serif" font-size="14.00">movq 0x28(%rdi), %rdx</text>
</g>
<!-- 1531&#45;&gt;1532 -->
<g id="edge14" class="edge"><title>1531&#45;&gt;1532</title>
<path fill="none" stroke="black" d="M276,-1877.62C276,-1853.94 276,-1824.14 276,-1800.03"/>
<polygon fill="black" stroke="black" points="279.5,-1799.74 276,-1789.74 272.5,-1799.74 279.5,-1799.74"/>
</g>
<!-- 1511 -->
<g id="node6" class="node"><title>1511</title>
<polygon fill="none" stroke="black" points="172,-1827 0,-1827 0,-1684 172,-1684 172,-1827"/>
<text text-anchor="middle" x="86" y="-1811.8" font-family="Times,serif" font-size="14.00">0x4000cb75d8</text>
<text text-anchor="middle" x="86" y="-1796.8" font-family="Times,serif" font-size="14.00">_______________________</text>
<text text-anchor="middle" x="86" y="-1781.8" font-family="Times,serif" font-size="14.00">_______________________</text>
<text text-anchor="middle" x="86" y="-1766.8" font-family="Times,serif" font-size="14.00">movq 0x38(%rbx), %rdx</text>
<text text-anchor="middle" x="86" y="-1751.8" font-family="Times,serif" font-size="14.00">movl (%rbx), %ecx</text>
<text text-anchor="middle" x="86" y="-1736.8" font-family="Times,serif" font-size="14.00">movq %rdx, 0x18(%rbx)</text>
<text text-anchor="middle" x="86" y="-1721.8" font-family="Times,serif" font-size="14.00">movq %rdx, 8(%rbx)</text>
<text text-anchor="middle" x="86" y="-1706.8" font-family="Times,serif" font-size="14.00">movq %rdx, 0x10(%rbx)</text>
<text text-anchor="middle" x="86" y="-1691.8" font-family="Times,serif" font-size="14.00">jmp 0x4000cb7477</text>
</g>
<!-- 1331&#45;&gt;1511 -->
<g id="edge5" class="edge"><title>1331&#45;&gt;1511</title>
<path fill="none" stroke="black" d="M86,-1862.75C86,-1854.53 86,-1845.92 86,-1837.31"/>
<polygon fill="black" stroke="black" points="89.5001,-1837.23 86,-1827.23 82.5001,-1837.23 89.5001,-1837.23"/>
</g>
<!-- 1512 -->
<g id="node7" class="node"><title>1512</title>
<polygon fill="none" stroke="black" points="210,-1648 38,-1648 38,-1565 210,-1565 210,-1648"/>
<text text-anchor="middle" x="124" y="-1632.8" font-family="Times,serif" font-size="14.00">0x4000cb7477</text>
<text text-anchor="middle" x="124" y="-1617.8" font-family="Times,serif" font-size="14.00">_______________________</text>
<text text-anchor="middle" x="124" y="-1602.8" font-family="Times,serif" font-size="14.00">_______________________</text>
<text text-anchor="middle" x="124" y="-1587.8" font-family="Times,serif" font-size="14.00">testb $1, %ch</text>
<text text-anchor="middle" x="124" y="-1572.8" font-family="Times,serif" font-size="14.00">jne 0x4000cb7570</text>
</g>
<!-- 1511&#45;&gt;1512 -->
<g id="edge6" class="edge"><title>1511&#45;&gt;1512</title>
<path fill="none" stroke="black" d="M104.332,-1683.58C106.572,-1674.92 108.824,-1666.21 110.964,-1657.93"/>
<polygon fill="black" stroke="black" points="114.396,-1658.64 113.51,-1648.08 107.619,-1656.88 114.396,-1658.64"/>
</g>
<!-- 1513 -->
<g id="node8" class="node"><title>1513</title>
<polygon fill="none" stroke="black" points="219,-1529 47,-1529 47,-1431 219,-1431 219,-1529"/>
<text text-anchor="middle" x="133" y="-1513.8" font-family="Times,serif" font-size="14.00">0x4000cb7480</text>
<text text-anchor="middle" x="133" y="-1498.8" font-family="Times,serif" font-size="14.00">_______________________</text>
<text text-anchor="middle" x="133" y="-1483.8" font-family="Times,serif" font-size="14.00">_______________________</text>
<text text-anchor="middle" x="133" y="-1468.8" font-family="Times,serif" font-size="14.00">movq 0x40(%rbx), %rax</text>
<text text-anchor="middle" x="133" y="-1453.8" font-family="Times,serif" font-size="14.00">cmpq %rdx, %rax</text>
<text text-anchor="middle" x="133" y="-1438.8" font-family="Times,serif" font-size="14.00">je 0x4000cb7558</text>
</g>
<!-- 1512&#45;&gt;1513 -->
<g id="edge7" class="edge"><title>1512&#45;&gt;1513</title>
<path fill="none" stroke="black" d="M126.947,-1564.73C127.536,-1556.58 128.167,-1547.86 128.789,-1539.25"/>
<polygon fill="black" stroke="black" points="132.284,-1539.45 129.514,-1529.22 125.302,-1538.95 132.284,-1539.45"/>
</g>
<!-- 1514 -->
<g id="node9" class="node"><title>1514</title>
<polygon fill="none" stroke="black" points="224,-1395 52,-1395 52,-1162 224,-1162 224,-1395"/>
<text text-anchor="middle" x="138" y="-1379.8" font-family="Times,serif" font-size="14.00">0x4000cb748d</text>
<text text-anchor="middle" x="138" y="-1364.8" font-family="Times,serif" font-size="14.00">_______________________</text>
<text text-anchor="middle" x="138" y="-1349.8" font-family="Times,serif" font-size="14.00">_______________________</text>
<text text-anchor="middle" x="138" y="-1334.8" font-family="Times,serif" font-size="14.00">movq 0x10(%rbx), %rsi</text>
<text text-anchor="middle" x="138" y="-1319.8" font-family="Times,serif" font-size="14.00">movq %rsi, 8(%rbx)</text>
<text text-anchor="middle" x="138" y="-1304.8" font-family="Times,serif" font-size="14.00">movq %rsi, 0x18(%rbx)</text>
<text text-anchor="middle" x="138" y="-1289.8" font-family="Times,serif" font-size="14.00">movl 0xc0(%rbx), %esi</text>
<text text-anchor="middle" x="138" y="-1274.8" font-family="Times,serif" font-size="14.00">movq %rax, 0x30(%rbx)</text>
<text text-anchor="middle" x="138" y="-1259.8" font-family="Times,serif" font-size="14.00">movl %ecx, %eax</text>
<text text-anchor="middle" x="138" y="-1244.8" font-family="Times,serif" font-size="14.00">orb $8, %ah</text>
<text text-anchor="middle" x="138" y="-1229.8" font-family="Times,serif" font-size="14.00">movq %rdx, 0x28(%rbx)</text>
<text text-anchor="middle" x="138" y="-1214.8" font-family="Times,serif" font-size="14.00">movq %rdx, 0x20(%rbx)</text>
<text text-anchor="middle" x="138" y="-1199.8" font-family="Times,serif" font-size="14.00">movl %eax, (%rbx)</text>
<text text-anchor="middle" x="138" y="-1184.8" font-family="Times,serif" font-size="14.00">testl %esi, %esi</text>
<text text-anchor="middle" x="138" y="-1169.8" font-family="Times,serif" font-size="14.00">jg 0x4000cb7428</text>
</g>
<!-- 1513&#45;&gt;1514 -->
<g id="edge8" class="edge"><title>1513&#45;&gt;1514</title>
<path fill="none" stroke="black" d="M134.204,-1430.96C134.406,-1422.92 134.623,-1414.26 134.847,-1405.29"/>
<polygon fill="black" stroke="black" points="138.352,-1405.15 135.104,-1395.06 131.354,-1404.97 138.352,-1405.15"/>
</g>
<!-- 1515 -->
<g id="node10" class="node"><title>1515</title>
<polygon fill="none" stroke="black" points="229,-1126 57,-1126 57,-1043 229,-1043 229,-1126"/>
<text text-anchor="middle" x="143" y="-1110.8" font-family="Times,serif" font-size="14.00">0x4000cb74ba</text>
<text text-anchor="middle" x="143" y="-1095.8" font-family="Times,serif" font-size="14.00">_______________________</text>
<text text-anchor="middle" x="143" y="-1080.8" font-family="Times,serif" font-size="14.00">_______________________</text>
<text text-anchor="middle" x="143" y="-1065.8" font-family="Times,serif" font-size="14.00">andl $0x202, %ecx</text>
<text text-anchor="middle" x="143" y="-1050.8" font-family="Times,serif" font-size="14.00">je 0x4000cb7428</text>
</g>
<!-- 1514&#45;&gt;1515 -->
<g id="edge9" class="edge"><title>1514&#45;&gt;1515</title>
<path fill="none" stroke="black" d="M141.01,-1161.94C141.24,-1153.1 141.464,-1144.5 141.673,-1136.44"/>
<polygon fill="black" stroke="black" points="145.179,-1136.28 141.94,-1126.19 138.181,-1136.09 145.179,-1136.28"/>
</g>
<!-- 1516 -->
<g id="node11" class="node"><title>1516</title>
<polygon fill="none" stroke="black" points="234,-1007 62,-1007 62,-924 234,-924 234,-1007"/>
<text text-anchor="middle" x="148" y="-991.8" font-family="Times,serif" font-size="14.00">0x4000cb74c6</text>
<text text-anchor="middle" x="148" y="-976.8" font-family="Times,serif" font-size="14.00">_______________________</text>
<text text-anchor="middle" x="148" y="-961.8" font-family="Times,serif" font-size="14.00">_______________________</text>
<text text-anchor="middle" x="148" y="-946.8" font-family="Times,serif" font-size="14.00">movq %rdx, 0x30(%rbx)</text>
<text text-anchor="middle" x="148" y="-931.8" font-family="Times,serif" font-size="14.00">jmp 0x4000cb7428</text>
</g>
<!-- 1515&#45;&gt;1516 -->
<g id="edge10" class="edge"><title>1515&#45;&gt;1516</title>
<path fill="none" stroke="black" d="M144.735,-1042.91C145.092,-1034.56 145.471,-1025.67 145.841,-1017.02"/>
<polygon fill="black" stroke="black" points="149.338,-1017.16 146.268,-1007.02 142.344,-1016.86 149.338,-1017.16"/>
</g>
<!-- 1517 -->
<g id="node12" class="node"><title>1517</title>
<polygon fill="none" stroke="black" points="293,-888 121,-888 121,-805 293,-805 293,-888"/>
<text text-anchor="middle" x="207" y="-872.8" font-family="Times,serif" font-size="14.00">0x4000cb7428</text>
<text text-anchor="middle" x="207" y="-857.8" font-family="Times,serif" font-size="14.00">_______________________</text>
<text text-anchor="middle" x="207" y="-842.8" font-family="Times,serif" font-size="14.00">_______________________</text>
<text text-anchor="middle" x="207" y="-827.8" font-family="Times,serif" font-size="14.00">cmpl $0xff, %ebp</text>
<text text-anchor="middle" x="207" y="-812.8" font-family="Times,serif" font-size="14.00">je 0x4000cb7540</text>
</g>
<!-- 1516&#45;&gt;1517 -->
<g id="edge11" class="edge"><title>1516&#45;&gt;1517</title>
<path fill="none" stroke="black" d="M168.47,-923.907C172.817,-915.286 177.454,-906.09 181.95,-897.175"/>
<polygon fill="black" stroke="black" points="185.189,-898.526 186.566,-888.021 178.939,-895.374 185.189,-898.526"/>
</g>
<!-- 1518 -->
<g id="node13" class="node"><title>1518</title>
<polygon fill="none" stroke="black" points="198,-769 26,-769 26,-581 198,-581 198,-769"/>
<text text-anchor="middle" x="112" y="-753.8" font-family="Times,serif" font-size="14.00">0x4000cb7540</text>
<text text-anchor="middle" x="112" y="-738.8" font-family="Times,serif" font-size="14.00">_______________________</text>
<text text-anchor="middle" x="112" y="-723.8" font-family="Times,serif" font-size="14.00">_______________________</text>
<text text-anchor="middle" x="112" y="-708.8" font-family="Times,serif" font-size="14.00">movq 0x20(%rbx), %rsi</text>
<text text-anchor="middle" x="112" y="-693.8" font-family="Times,serif" font-size="14.00">movq %rbx, %rdi</text>
<text text-anchor="middle" x="112" y="-678.8" font-family="Times,serif" font-size="14.00">popq %rbx</text>
<text text-anchor="middle" x="112" y="-663.8" font-family="Times,serif" font-size="14.00">popq %rbp</text>
<text text-anchor="middle" x="112" y="-648.8" font-family="Times,serif" font-size="14.00">popq %r12</text>
<text text-anchor="middle" x="112" y="-633.8" font-family="Times,serif" font-size="14.00">subq %rsi, %rdx</text>
<text text-anchor="middle" x="112" y="-618.8" font-family="Times,serif" font-size="14.00">jmp 0x4000cb70c0</text>
<text text-anchor="middle" x="112" y="-603.8" font-family="Times,serif" font-size="14.00">_______________________</text>
<text text-anchor="middle" x="112" y="-588.8" font-family="Times,serif" font-size="14.00">CALL _IO_do_write</text>
</g>
<!-- 1517&#45;&gt;1518 -->
<g id="edge12" class="edge"><title>1517&#45;&gt;1518</title>
<path fill="none" stroke="black" d="M184.245,-804.901C179.538,-796.502 174.381,-787.301 169.057,-777.802"/>
<polygon fill="black" stroke="black" points="172.072,-776.022 164.129,-769.01 165.965,-779.444 172.072,-776.022"/>
</g>
<!-- 1533 -->
<g id="node14" class="node"><title>1533</title>
<polygon fill="none" stroke="black" points="388,-716.5 216,-716.5 216,-633.5 388,-633.5 388,-716.5"/>
<text text-anchor="middle" x="302" y="-701.3" font-family="Times,serif" font-size="14.00">0x4000cb7431</text>
<text text-anchor="middle" x="302" y="-686.3" font-family="Times,serif" font-size="14.00">_______________________</text>
<text text-anchor="middle" x="302" y="-671.3" font-family="Times,serif" font-size="14.00">_______________________</text>
<text text-anchor="middle" x="302" y="-656.3" font-family="Times,serif" font-size="14.00">cmpq %rdx, 0x40(%rbx)</text>
<text text-anchor="middle" x="302" y="-641.3" font-family="Times,serif" font-size="14.00">je 0x4000cb7500</text>
</g>
<!-- 1517&#45;&gt;1533 -->
<g id="edge13" class="edge"><title>1517&#45;&gt;1533</title>
<path fill="none" stroke="black" d="M229.755,-804.901C243.101,-781.087 260.064,-750.822 274.199,-725.603"/>
<polygon fill="black" stroke="black" points="277.43,-726.996 279.266,-716.562 271.324,-723.574 277.43,-726.996"/>
</g>
<!-- 1534 -->
<g id="node16" class="node"><title>1534</title>
<polygon fill="none" stroke="black" points="388,-545 216,-545 216,-402 388,-402 388,-545"/>
<text text-anchor="middle" x="302" y="-529.8" font-family="Times,serif" font-size="14.00">0x4000cb743b</text>
<text text-anchor="middle" x="302" y="-514.8" font-family="Times,serif" font-size="14.00">_______________________</text>
<text text-anchor="middle" x="302" y="-499.8" font-family="Times,serif" font-size="14.00">_______________________</text>
<text text-anchor="middle" x="302" y="-484.8" font-family="Times,serif" font-size="14.00">leaq 1(%rdx), %rax</text>
<text text-anchor="middle" x="302" y="-469.8" font-family="Times,serif" font-size="14.00">movq %rax, 0x28(%rbx)</text>
<text text-anchor="middle" x="302" y="-454.8" font-family="Times,serif" font-size="14.00">movb %bpl, (%rdx)</text>
<text text-anchor="middle" x="302" y="-439.8" font-family="Times,serif" font-size="14.00">movl (%rbx), %eax</text>
<text text-anchor="middle" x="302" y="-424.8" font-family="Times,serif" font-size="14.00">testb $2, %al</text>
<text text-anchor="middle" x="302" y="-409.8" font-family="Times,serif" font-size="14.00">jne 0x4000cb74d0</text>
</g>
<!-- 1533&#45;&gt;1534 -->
<g id="edge16" class="edge"><title>1533&#45;&gt;1534</title>
<path fill="none" stroke="black" d="M302,-633.147C302,-610.706 302,-582.07 302,-555.319"/>
<polygon fill="black" stroke="black" points="305.5,-555.176 302,-545.176 298.5,-555.176 305.5,-555.176"/>
</g>
<!-- 1532&#45;&gt;1517 -->
<g id="edge15" class="edge"><title>1532&#45;&gt;1517</title>
<path fill="none" stroke="black" d="M274,-1721.25C271.082,-1669.79 266,-1567.71 266,-1481 266,-1481 266,-1481 266,-1083.5 266,-1011.88 263.585,-992.6 243,-924 240.367,-915.224 236.877,-906.18 233.105,-897.519"/>
<polygon fill="black" stroke="black" points="236.245,-895.967 228.929,-888.303 229.869,-898.857 236.245,-895.967"/>
</g>
<!-- 1535 -->
<g id="node17" class="node"><title>1535</title>
<polygon fill="none" stroke="black" points="388,-366 216,-366 216,-283 388,-283 388,-366"/>
<text text-anchor="middle" x="302" y="-350.8" font-family="Times,serif" font-size="14.00">0x4000cb7450</text>
<text text-anchor="middle" x="302" y="-335.8" font-family="Times,serif" font-size="14.00">_______________________</text>
<text text-anchor="middle" x="302" y="-320.8" font-family="Times,serif" font-size="14.00">_______________________</text>
<text text-anchor="middle" x="302" y="-305.8" font-family="Times,serif" font-size="14.00">testb $2, %ah</text>
<text text-anchor="middle" x="302" y="-290.8" font-family="Times,serif" font-size="14.00">je 0x4000cb745a</text>
</g>
<!-- 1534&#45;&gt;1535 -->
<g id="edge17" class="edge"><title>1534&#45;&gt;1535</title>
<path fill="none" stroke="black" d="M302,-401.584C302,-393.014 302,-384.398 302,-376.201"/>
<polygon fill="black" stroke="black" points="305.5,-376.079 302,-366.079 298.5,-376.079 305.5,-376.079"/>
</g>
<!-- 1536 -->
<g id="node18" class="node"><title>1536</title>
<polygon fill="none" stroke="black" points="388,-247 216,-247 216,-164 388,-164 388,-247"/>
<text text-anchor="middle" x="302" y="-231.8" font-family="Times,serif" font-size="14.00">0x4000cb7455</text>
<text text-anchor="middle" x="302" y="-216.8" font-family="Times,serif" font-size="14.00">_______________________</text>
<text text-anchor="middle" x="302" y="-201.8" font-family="Times,serif" font-size="14.00">_______________________</text>
<text text-anchor="middle" x="302" y="-186.8" font-family="Times,serif" font-size="14.00">cmpl $0xa, %ebp</text>
<text text-anchor="middle" x="302" y="-171.8" font-family="Times,serif" font-size="14.00">je 0x4000cb74d0</text>
</g>
<!-- 1535&#45;&gt;1536 -->
<g id="edge18" class="edge"><title>1535&#45;&gt;1536</title>
<path fill="none" stroke="black" d="M302,-282.907C302,-274.649 302,-265.864 302,-257.302"/>
<polygon fill="black" stroke="black" points="305.5,-257.021 302,-247.021 298.5,-257.021 305.5,-257.021"/>
</g>
<!-- 1537 -->
<g id="node19" class="node"><title>1537</title>
<polygon fill="none" stroke="black" points="388,-128 216,-128 216,-0 388,-0 388,-128"/>
<text text-anchor="middle" x="302" y="-112.8" font-family="Times,serif" font-size="14.00">0x4000cb745a</text>
<text text-anchor="middle" x="302" y="-97.8" font-family="Times,serif" font-size="14.00">_______________________</text>
<text text-anchor="middle" x="302" y="-82.8" font-family="Times,serif" font-size="14.00">_______________________</text>
<text text-anchor="middle" x="302" y="-67.8" font-family="Times,serif" font-size="14.00">movzbl %bpl, %eax</text>
<text text-anchor="middle" x="302" y="-52.8" font-family="Times,serif" font-size="14.00">popq %rbx</text>
<text text-anchor="middle" x="302" y="-37.8" font-family="Times,serif" font-size="14.00">popq %rbp</text>
<text text-anchor="middle" x="302" y="-22.8" font-family="Times,serif" font-size="14.00">popq %r12</text>
<text text-anchor="middle" x="302" y="-7.8" font-family="Times,serif" font-size="14.00">retq </text>
</g>
<!-- 1536&#45;&gt;1537 -->
<g id="edge19" class="edge"><title>1536&#45;&gt;1537</title>
<path fill="none" stroke="black" d="M302,-163.776C302,-155.741 302,-147.081 302,-138.346"/>
<polygon fill="black" stroke="black" points="305.5,-138.09 302,-128.09 298.5,-138.09 305.5,-138.09"/>
</g>
</g>
</svg>
