<?xml version="1.0" encoding="UTF-8" standalone="no"?>
<!DOCTYPE svg PUBLIC "-//W3C//DTD SVG 1.1//EN"
 "http://www.w3.org/Graphics/SVG/1.1/DTD/svg11.dtd">
<!-- Generated by graphviz version 2.38.0 (20140413.2041)
 -->
<!-- Title: %3 Pages: 1 -->
<svg width="180pt" height="1508pt"
 viewBox="0.00 0.00 180.00 1508.00" xmlns="http://www.w3.org/2000/svg" xmlns:xlink="http://www.w3.org/1999/xlink">
<g id="graph0" class="graph" transform="scale(1 1) rotate(0) translate(4 1504)">
<title>%3</title>
<polygon fill="white" stroke="none" points="-4,4 -4,-1504 176,-1504 176,4 -4,4"/>
<!-- 424 -->
<g id="node1" class="node"><title>424</title>
<polygon fill="none" stroke="black" points="172,-1500 0,-1500 0,-1252 172,-1252 172,-1500"/>
<text text-anchor="middle" x="86" y="-1484.8" font-family="Times,serif" font-size="14.00">0x4000a133e0</text>
<text text-anchor="middle" x="86" y="-1469.8" font-family="Times,serif" font-size="14.00">_______________________</text>
<text text-anchor="middle" x="86" y="-1454.8" font-family="Times,serif" font-size="14.00">_______________________</text>
<text text-anchor="middle" x="86" y="-1439.8" font-family="Times,serif" font-size="14.00">pushq %r13</text>
<text text-anchor="middle" x="86" y="-1424.8" font-family="Times,serif" font-size="14.00">pushq %r12</text>
<text text-anchor="middle" x="86" y="-1409.8" font-family="Times,serif" font-size="14.00">xorl %eax, %eax</text>
<text text-anchor="middle" x="86" y="-1394.8" font-family="Times,serif" font-size="14.00">pushq %rbp</text>
<text text-anchor="middle" x="86" y="-1379.8" font-family="Times,serif" font-size="14.00">pushq %rbx</text>
<text text-anchor="middle" x="86" y="-1364.8" font-family="Times,serif" font-size="14.00">movq %rsi, %r12</text>
<text text-anchor="middle" x="86" y="-1349.8" font-family="Times,serif" font-size="14.00">movl $0x80000, %esi</text>
<text text-anchor="middle" x="86" y="-1334.8" font-family="Times,serif" font-size="14.00">movl %edx, %r13d</text>
<text text-anchor="middle" x="86" y="-1319.8" font-family="Times,serif" font-size="14.00">movq $&#45;1, %rbp</text>
<text text-anchor="middle" x="86" y="-1304.8" font-family="Times,serif" font-size="14.00">subq $0x98, %rsp</text>
<text text-anchor="middle" x="86" y="-1289.8" font-family="Times,serif" font-size="14.00">callq 0x4000a1c220</text>
<text text-anchor="middle" x="86" y="-1274.8" font-family="Times,serif" font-size="14.00">_______________________</text>
<text text-anchor="middle" x="86" y="-1259.8" font-family="Times,serif" font-size="14.00">CALL 0x4000a1c220</text>
</g>
<!-- 428 -->
<g id="node2" class="node"><title>428</title>
<polygon fill="none" stroke="black" points="172,-1216 0,-1216 0,-1133 172,-1133 172,-1216"/>
<text text-anchor="middle" x="86" y="-1200.8" font-family="Times,serif" font-size="14.00">0x4000a13406</text>
<text text-anchor="middle" x="86" y="-1185.8" font-family="Times,serif" font-size="14.00">_______________________</text>
<text text-anchor="middle" x="86" y="-1170.8" font-family="Times,serif" font-size="14.00">_______________________</text>
<text text-anchor="middle" x="86" y="-1155.8" font-family="Times,serif" font-size="14.00">testl %eax, %eax</text>
<text text-anchor="middle" x="86" y="-1140.8" font-family="Times,serif" font-size="14.00">js 0x4000a1343b</text>
</g>
<!-- 424&#45;&gt;428 -->
<g id="edge1" class="edge"><title>424&#45;&gt;428</title>
<path fill="none" stroke="black" d="M86,-1251.78C86,-1242.99 86,-1234.47 86,-1226.49"/>
<polygon fill="black" stroke="black" points="89.5001,-1226.35 86,-1216.35 82.5001,-1226.35 89.5001,-1226.35"/>
</g>
<!-- 429 -->
<g id="node3" class="node"><title>429</title>
<polygon fill="none" stroke="black" points="172,-1097 0,-1097 0,-939 172,-939 172,-1097"/>
<text text-anchor="middle" x="86" y="-1081.8" font-family="Times,serif" font-size="14.00">0x4000a1340a</text>
<text text-anchor="middle" x="86" y="-1066.8" font-family="Times,serif" font-size="14.00">_______________________</text>
<text text-anchor="middle" x="86" y="-1051.8" font-family="Times,serif" font-size="14.00">_______________________</text>
<text text-anchor="middle" x="86" y="-1036.8" font-family="Times,serif" font-size="14.00">movq %rsp, %rdx</text>
<text text-anchor="middle" x="86" y="-1021.8" font-family="Times,serif" font-size="14.00">movl %eax, %esi</text>
<text text-anchor="middle" x="86" y="-1006.8" font-family="Times,serif" font-size="14.00">movl $1, %edi</text>
<text text-anchor="middle" x="86" y="-991.8" font-family="Times,serif" font-size="14.00">movl %eax, %ebx</text>
<text text-anchor="middle" x="86" y="-976.8" font-family="Times,serif" font-size="14.00">callq 0x4000a1c1a0</text>
<text text-anchor="middle" x="86" y="-961.8" font-family="Times,serif" font-size="14.00">_______________________</text>
<text text-anchor="middle" x="86" y="-946.8" font-family="Times,serif" font-size="14.00">CALL 0x4000a1c1a0</text>
</g>
<!-- 428&#45;&gt;429 -->
<g id="edge2" class="edge"><title>428&#45;&gt;429</title>
<path fill="none" stroke="black" d="M86,-1132.91C86,-1124.92 86,-1116.25 86,-1107.38"/>
<polygon fill="black" stroke="black" points="89.5001,-1107.3 86,-1097.3 82.5001,-1107.3 89.5001,-1107.3"/>
</g>
<!-- 434 -->
<g id="node4" class="node"><title>434</title>
<polygon fill="none" stroke="black" points="172,-903 0,-903 0,-820 172,-820 172,-903"/>
<text text-anchor="middle" x="86" y="-887.8" font-family="Times,serif" font-size="14.00">0x4000a1341b</text>
<text text-anchor="middle" x="86" y="-872.8" font-family="Times,serif" font-size="14.00">_______________________</text>
<text text-anchor="middle" x="86" y="-857.8" font-family="Times,serif" font-size="14.00">_______________________</text>
<text text-anchor="middle" x="86" y="-842.8" font-family="Times,serif" font-size="14.00">testl %eax, %eax</text>
<text text-anchor="middle" x="86" y="-827.8" font-family="Times,serif" font-size="14.00">js 0x4000a1342d</text>
</g>
<!-- 429&#45;&gt;434 -->
<g id="edge3" class="edge"><title>429&#45;&gt;434</title>
<path fill="none" stroke="black" d="M86,-938.845C86,-930.214 86,-921.599 86,-913.429"/>
<polygon fill="black" stroke="black" points="89.5001,-913.352 86,-903.352 82.5001,-913.352 89.5001,-913.352"/>
</g>
<!-- 435 -->
<g id="node5" class="node"><title>435</title>
<polygon fill="none" stroke="black" points="172,-784 0,-784 0,-671 172,-671 172,-784"/>
<text text-anchor="middle" x="86" y="-768.8" font-family="Times,serif" font-size="14.00">0x4000a1341f</text>
<text text-anchor="middle" x="86" y="-753.8" font-family="Times,serif" font-size="14.00">_______________________</text>
<text text-anchor="middle" x="86" y="-738.8" font-family="Times,serif" font-size="14.00">_______________________</text>
<text text-anchor="middle" x="86" y="-723.8" font-family="Times,serif" font-size="14.00">movq 0x30(%rsp), %rsi</text>
<text text-anchor="middle" x="86" y="-708.8" font-family="Times,serif" font-size="14.00">testq %rsi, %rsi</text>
<text text-anchor="middle" x="86" y="-693.8" font-family="Times,serif" font-size="14.00">movq %rsi, (%r12)</text>
<text text-anchor="middle" x="86" y="-678.8" font-family="Times,serif" font-size="14.00">jne 0x4000a13450</text>
</g>
<!-- 434&#45;&gt;435 -->
<g id="edge4" class="edge"><title>434&#45;&gt;435</title>
<path fill="none" stroke="black" d="M86,-819.819C86,-811.761 86,-803.109 86,-794.458"/>
<polygon fill="black" stroke="black" points="89.5001,-794.339 86,-784.339 82.5001,-794.339 89.5001,-794.339"/>
</g>
<!-- 436 -->
<g id="node6" class="node"><title>436</title>
<polygon fill="none" stroke="black" points="172,-635 0,-635 0,-462 172,-462 172,-635"/>
<text text-anchor="middle" x="86" y="-619.8" font-family="Times,serif" font-size="14.00">0x4000a13450</text>
<text text-anchor="middle" x="86" y="-604.8" font-family="Times,serif" font-size="14.00">_______________________</text>
<text text-anchor="middle" x="86" y="-589.8" font-family="Times,serif" font-size="14.00">_______________________</text>
<text text-anchor="middle" x="86" y="-574.8" font-family="Times,serif" font-size="14.00">xorl %r9d, %r9d</text>
<text text-anchor="middle" x="86" y="-559.8" font-family="Times,serif" font-size="14.00">movl %ebx, %r8d</text>
<text text-anchor="middle" x="86" y="-544.8" font-family="Times,serif" font-size="14.00">movl $2, %ecx</text>
<text text-anchor="middle" x="86" y="-529.8" font-family="Times,serif" font-size="14.00">movl %r13d, %edx</text>
<text text-anchor="middle" x="86" y="-514.8" font-family="Times,serif" font-size="14.00">xorl %edi, %edi</text>
<text text-anchor="middle" x="86" y="-499.8" font-family="Times,serif" font-size="14.00">callq 0x4000a1c3a0</text>
<text text-anchor="middle" x="86" y="-484.8" font-family="Times,serif" font-size="14.00">_______________________</text>
<text text-anchor="middle" x="86" y="-469.8" font-family="Times,serif" font-size="14.00">CALL 0x4000a1c3a0</text>
</g>
<!-- 435&#45;&gt;436 -->
<g id="edge5" class="edge"><title>435&#45;&gt;436</title>
<path fill="none" stroke="black" d="M86,-670.982C86,-662.82 86,-654.222 86,-645.527"/>
<polygon fill="black" stroke="black" points="89.5001,-645.294 86,-635.294 82.5001,-645.294 89.5001,-645.294"/>
</g>
<!-- 437 -->
<g id="node7" class="node"><title>437</title>
<polygon fill="none" stroke="black" points="172,-426 0,-426 0,-343 172,-343 172,-426"/>
<text text-anchor="middle" x="86" y="-410.8" font-family="Times,serif" font-size="14.00">0x4000a13465</text>
<text text-anchor="middle" x="86" y="-395.8" font-family="Times,serif" font-size="14.00">_______________________</text>
<text text-anchor="middle" x="86" y="-380.8" font-family="Times,serif" font-size="14.00">_______________________</text>
<text text-anchor="middle" x="86" y="-365.8" font-family="Times,serif" font-size="14.00">movq %rax, %rbp</text>
<text text-anchor="middle" x="86" y="-350.8" font-family="Times,serif" font-size="14.00">jmp 0x4000a13434</text>
</g>
<!-- 436&#45;&gt;437 -->
<g id="edge6" class="edge"><title>436&#45;&gt;437</title>
<path fill="none" stroke="black" d="M86,-461.756C86,-453.005 86,-444.327 86,-436.134"/>
<polygon fill="black" stroke="black" points="89.5001,-436.046 86,-426.046 82.5001,-436.046 89.5001,-436.046"/>
</g>
<!-- 438 -->
<g id="node8" class="node"><title>438</title>
<polygon fill="none" stroke="black" points="172,-307 0,-307 0,-194 172,-194 172,-307"/>
<text text-anchor="middle" x="86" y="-291.8" font-family="Times,serif" font-size="14.00">0x4000a13434</text>
<text text-anchor="middle" x="86" y="-276.8" font-family="Times,serif" font-size="14.00">_______________________</text>
<text text-anchor="middle" x="86" y="-261.8" font-family="Times,serif" font-size="14.00">_______________________</text>
<text text-anchor="middle" x="86" y="-246.8" font-family="Times,serif" font-size="14.00">movl %ebx, %edi</text>
<text text-anchor="middle" x="86" y="-231.8" font-family="Times,serif" font-size="14.00">callq 0x4000a1c380</text>
<text text-anchor="middle" x="86" y="-216.8" font-family="Times,serif" font-size="14.00">_______________________</text>
<text text-anchor="middle" x="86" y="-201.8" font-family="Times,serif" font-size="14.00">CALL 0x4000a1c380</text>
</g>
<!-- 437&#45;&gt;438 -->
<g id="edge7" class="edge"><title>437&#45;&gt;438</title>
<path fill="none" stroke="black" d="M86,-342.819C86,-334.761 86,-326.109 86,-317.458"/>
<polygon fill="black" stroke="black" points="89.5001,-317.339 86,-307.339 82.5001,-317.339 89.5001,-317.339"/>
</g>
<!-- 442 -->
<g id="node9" class="node"><title>442</title>
<polygon fill="none" stroke="black" points="172,-158 0,-158 0,-0 172,-0 172,-158"/>
<text text-anchor="middle" x="86" y="-142.8" font-family="Times,serif" font-size="14.00">0x4000a1343b</text>
<text text-anchor="middle" x="86" y="-127.8" font-family="Times,serif" font-size="14.00">_______________________</text>
<text text-anchor="middle" x="86" y="-112.8" font-family="Times,serif" font-size="14.00">_______________________</text>
<text text-anchor="middle" x="86" y="-97.8" font-family="Times,serif" font-size="14.00">addq $0x98, %rsp</text>
<text text-anchor="middle" x="86" y="-82.8" font-family="Times,serif" font-size="14.00">movq %rbp, %rax</text>
<text text-anchor="middle" x="86" y="-67.8" font-family="Times,serif" font-size="14.00">popq %rbx</text>
<text text-anchor="middle" x="86" y="-52.8" font-family="Times,serif" font-size="14.00">popq %rbp</text>
<text text-anchor="middle" x="86" y="-37.8" font-family="Times,serif" font-size="14.00">popq %r12</text>
<text text-anchor="middle" x="86" y="-22.8" font-family="Times,serif" font-size="14.00">popq %r13</text>
<text text-anchor="middle" x="86" y="-7.8" font-family="Times,serif" font-size="14.00">retq </text>
</g>
<!-- 438&#45;&gt;442 -->
<g id="edge8" class="edge"><title>438&#45;&gt;442</title>
<path fill="none" stroke="black" d="M86,-193.999C86,-185.741 86,-177.061 86,-168.33"/>
<polygon fill="black" stroke="black" points="89.5001,-168.079 86,-158.079 82.5001,-168.079 89.5001,-168.079"/>
</g>
</g>
</svg>
