<?xml version="1.0" encoding="UTF-8" standalone="no"?>
<!DOCTYPE svg PUBLIC "-//W3C//DTD SVG 1.1//EN"
 "http://www.w3.org/Graphics/SVG/1.1/DTD/svg11.dtd">
<!-- Generated by graphviz version 2.38.0 (20140413.2041)
 -->
<!-- Title: %3 Pages: 1 -->
<svg width="187pt" height="583pt"
 viewBox="0.00 0.00 187.00 583.00" xmlns="http://www.w3.org/2000/svg" xmlns:xlink="http://www.w3.org/1999/xlink">
<g id="graph0" class="graph" transform="scale(1 1) rotate(0) translate(4 579)">
<title>%3</title>
<polygon fill="white" stroke="none" points="-4,4 -4,-579 183,-579 183,4 -4,4"/>
<!-- 108 -->
<g id="node1" class="node"><title>108</title>
<polygon fill="none" stroke="black" points="179,-575 0,-575 0,-417 179,-417 179,-575"/>
<text text-anchor="middle" x="89.5" y="-559.8" font-family="Times,serif" font-size="14.00">0x4000a1b540</text>
<text text-anchor="middle" x="89.5" y="-544.8" font-family="Times,serif" font-size="14.00">_______________________</text>
<text text-anchor="middle" x="89.5" y="-529.8" font-family="Times,serif" font-size="14.00">_______________________</text>
<text text-anchor="middle" x="89.5" y="-514.8" font-family="Times,serif" font-size="14.00">pushq %rbp</text>
<text text-anchor="middle" x="89.5" y="-499.8" font-family="Times,serif" font-size="14.00">pushq %rbx</text>
<text text-anchor="middle" x="89.5" y="-484.8" font-family="Times,serif" font-size="14.00">movq %rdi, %rbp</text>
<text text-anchor="middle" x="89.5" y="-469.8" font-family="Times,serif" font-size="14.00">subq $8, %rsp</text>
<text text-anchor="middle" x="89.5" y="-454.8" font-family="Times,serif" font-size="14.00">movq 0x20bb80(%rip), %rbx</text>
<text text-anchor="middle" x="89.5" y="-439.8" font-family="Times,serif" font-size="14.00">testq %rbx, %rbx</text>
<text text-anchor="middle" x="89.5" y="-424.8" font-family="Times,serif" font-size="14.00">je 0x4000a1b590</text>
</g>
<!-- 109 -->
<g id="node2" class="node"><title>109</title>
<polygon fill="none" stroke="black" points="178,-381 1,-381 1,-283 178,-283 178,-381"/>
<text text-anchor="middle" x="89.5" y="-365.8" font-family="Times,serif" font-size="14.00">0x4000a1b555</text>
<text text-anchor="middle" x="89.5" y="-350.8" font-family="Times,serif" font-size="14.00">_______________________</text>
<text text-anchor="middle" x="89.5" y="-335.8" font-family="Times,serif" font-size="14.00">_______________________</text>
<text text-anchor="middle" x="89.5" y="-320.8" font-family="Times,serif" font-size="14.00">movl 0x20bb45(%rip), %eax</text>
<text text-anchor="middle" x="89.5" y="-305.8" font-family="Times,serif" font-size="14.00">testl %eax, %eax</text>
<text text-anchor="middle" x="89.5" y="-290.8" font-family="Times,serif" font-size="14.00">jne 0x4000a1b590</text>
</g>
<!-- 108&#45;&gt;109 -->
<g id="edge1" class="edge"><title>108&#45;&gt;109</title>
<path fill="none" stroke="black" d="M89.5,-416.847C89.5,-408.314 89.5,-399.738 89.5,-391.499"/>
<polygon fill="black" stroke="black" points="93.0001,-391.273 89.5,-381.273 86.0001,-391.273 93.0001,-391.273"/>
</g>
<!-- 110 -->
<g id="node3" class="node"><title>110</title>
<polygon fill="none" stroke="black" points="175.5,-247 3.5,-247 3.5,-164 175.5,-164 175.5,-247"/>
<text text-anchor="middle" x="89.5" y="-231.8" font-family="Times,serif" font-size="14.00">0x4000a1b55f</text>
<text text-anchor="middle" x="89.5" y="-216.8" font-family="Times,serif" font-size="14.00">_______________________</text>
<text text-anchor="middle" x="89.5" y="-201.8" font-family="Times,serif" font-size="14.00">_______________________</text>
<text text-anchor="middle" x="89.5" y="-186.8" font-family="Times,serif" font-size="14.00">cmpq $0, %rbp</text>
<text text-anchor="middle" x="89.5" y="-171.8" font-family="Times,serif" font-size="14.00">je 0x4000a1b585</text>
</g>
<!-- 109&#45;&gt;110 -->
<g id="edge2" class="edge"><title>109&#45;&gt;110</title>
<path fill="none" stroke="black" d="M89.5,-282.865C89.5,-274.498 89.5,-265.771 89.5,-257.335"/>
<polygon fill="black" stroke="black" points="93.0001,-257.231 89.5,-247.231 86.0001,-257.231 93.0001,-257.231"/>
</g>
<!-- 111 -->
<g id="node4" class="node"><title>111</title>
<polygon fill="none" stroke="black" points="175.5,-128 3.5,-128 3.5,-0 175.5,-0 175.5,-128"/>
<text text-anchor="middle" x="89.5" y="-112.8" font-family="Times,serif" font-size="14.00">0x4000a1b585</text>
<text text-anchor="middle" x="89.5" y="-97.8" font-family="Times,serif" font-size="14.00">_______________________</text>
<text text-anchor="middle" x="89.5" y="-82.8" font-family="Times,serif" font-size="14.00">_______________________</text>
<text text-anchor="middle" x="89.5" y="-67.8" font-family="Times,serif" font-size="14.00">addq $8, %rsp</text>
<text text-anchor="middle" x="89.5" y="-52.8" font-family="Times,serif" font-size="14.00">movq %rbx, %rax</text>
<text text-anchor="middle" x="89.5" y="-37.8" font-family="Times,serif" font-size="14.00">popq %rbx</text>
<text text-anchor="middle" x="89.5" y="-22.8" font-family="Times,serif" font-size="14.00">popq %rbp</text>
<text text-anchor="middle" x="89.5" y="-7.8" font-family="Times,serif" font-size="14.00">retq </text>
</g>
<!-- 110&#45;&gt;111 -->
<g id="edge3" class="edge"><title>110&#45;&gt;111</title>
<path fill="none" stroke="black" d="M89.5,-163.776C89.5,-155.741 89.5,-147.081 89.5,-138.346"/>
<polygon fill="black" stroke="black" points="93.0001,-138.09 89.5,-128.09 86.0001,-138.09 93.0001,-138.09"/>
</g>
</g>
</svg>
