<?xml version="1.0" encoding="UTF-8" standalone="no"?>
<!DOCTYPE svg PUBLIC "-//W3C//DTD SVG 1.1//EN"
 "http://www.w3.org/Graphics/SVG/1.1/DTD/svg11.dtd">
<!-- Generated by graphviz version 2.38.0 (20140413.2041)
 -->
<!-- Title: %3 Pages: 1 -->
<svg width="427pt" height="1464pt"
 viewBox="0.00 0.00 427.00 1464.00" xmlns="http://www.w3.org/2000/svg" xmlns:xlink="http://www.w3.org/1999/xlink">
<g id="graph0" class="graph" transform="scale(1 1) rotate(0) translate(4 1460)">
<title>%3</title>
<polygon fill="white" stroke="none" points="-4,4 -4,-1460 423,-1460 423,4 -4,4"/>
<!-- 1526 -->
<g id="node1" class="node"><title>1526</title>
<polygon fill="none" stroke="black" points="419,-1456 247,-1456 247,-1373 419,-1373 419,-1456"/>
<text text-anchor="middle" x="333" y="-1440.8" font-family="Times,serif" font-size="14.00">0x4000cb83d0</text>
<text text-anchor="middle" x="333" y="-1425.8" font-family="Times,serif" font-size="14.00">_______________________</text>
<text text-anchor="middle" x="333" y="-1410.8" font-family="Times,serif" font-size="14.00">_______________________</text>
<text text-anchor="middle" x="333" y="-1395.8" font-family="Times,serif" font-size="14.00">testq %rdx, %rdx</text>
<text text-anchor="middle" x="333" y="-1380.8" font-family="Times,serif" font-size="14.00">je 0x4000cb84e0</text>
</g>
<!-- 1527 -->
<g id="node2" class="node"><title>1527</title>
<polygon fill="none" stroke="black" points="419,-1337 247,-1337 247,-1059 419,-1059 419,-1337"/>
<text text-anchor="middle" x="333" y="-1321.8" font-family="Times,serif" font-size="14.00">0x4000cb83d9</text>
<text text-anchor="middle" x="333" y="-1306.8" font-family="Times,serif" font-size="14.00">_______________________</text>
<text text-anchor="middle" x="333" y="-1291.8" font-family="Times,serif" font-size="14.00">_______________________</text>
<text text-anchor="middle" x="333" y="-1276.8" font-family="Times,serif" font-size="14.00">pushq %r15</text>
<text text-anchor="middle" x="333" y="-1261.8" font-family="Times,serif" font-size="14.00">pushq %r14</text>
<text text-anchor="middle" x="333" y="-1246.8" font-family="Times,serif" font-size="14.00">movq %rdx, %r15</text>
<text text-anchor="middle" x="333" y="-1231.8" font-family="Times,serif" font-size="14.00">pushq %r13</text>
<text text-anchor="middle" x="333" y="-1216.8" font-family="Times,serif" font-size="14.00">pushq %r12</text>
<text text-anchor="middle" x="333" y="-1201.8" font-family="Times,serif" font-size="14.00">leaq 0x323515(%rip), %r13</text>
<text text-anchor="middle" x="333" y="-1186.8" font-family="Times,serif" font-size="14.00">pushq %rbp</text>
<text text-anchor="middle" x="333" y="-1171.8" font-family="Times,serif" font-size="14.00">pushq %rbx</text>
<text text-anchor="middle" x="333" y="-1156.8" font-family="Times,serif" font-size="14.00">leaq 0x324274(%rip), %r12</text>
<text text-anchor="middle" x="333" y="-1141.8" font-family="Times,serif" font-size="14.00">movq %rdi, %r14</text>
<text text-anchor="middle" x="333" y="-1126.8" font-family="Times,serif" font-size="14.00">movq %rsi, %rbp</text>
<text text-anchor="middle" x="333" y="-1111.8" font-family="Times,serif" font-size="14.00">subq $0x18, %rsp</text>
<text text-anchor="middle" x="333" y="-1096.8" font-family="Times,serif" font-size="14.00">subq %r13, %r12</text>
<text text-anchor="middle" x="333" y="-1081.8" font-family="Times,serif" font-size="14.00">movq %rdx, 8(%rsp)</text>
<text text-anchor="middle" x="333" y="-1066.8" font-family="Times,serif" font-size="14.00">nopw %cs:(%rax, %rax)</text>
</g>
<!-- 1526&#45;&gt;1527 -->
<g id="edge1" class="edge"><title>1526&#45;&gt;1527</title>
<path fill="none" stroke="black" d="M333,-1372.9C333,-1365.05 333,-1356.41 333,-1347.31"/>
<polygon fill="black" stroke="black" points="336.5,-1347.27 333,-1337.27 329.5,-1347.27 336.5,-1347.27"/>
</g>
<!-- 1540 -->
<g id="node3" class="node"><title>1540</title>
<polygon fill="none" stroke="black" points="419,-1023 247,-1023 247,-910 419,-910 419,-1023"/>
<text text-anchor="middle" x="333" y="-1007.8" font-family="Times,serif" font-size="14.00">0x4000cb8410</text>
<text text-anchor="middle" x="333" y="-992.8" font-family="Times,serif" font-size="14.00">_______________________</text>
<text text-anchor="middle" x="333" y="-977.8" font-family="Times,serif" font-size="14.00">_______________________</text>
<text text-anchor="middle" x="333" y="-962.8" font-family="Times,serif" font-size="14.00">movq 0x28(%r14), %rdi</text>
<text text-anchor="middle" x="333" y="-947.8" font-family="Times,serif" font-size="14.00">movq 0x30(%r14), %rbx</text>
<text text-anchor="middle" x="333" y="-932.8" font-family="Times,serif" font-size="14.00">cmpq %rbx, %rdi</text>
<text text-anchor="middle" x="333" y="-917.8" font-family="Times,serif" font-size="14.00">jae 0x4000cb8457</text>
</g>
<!-- 1527&#45;&gt;1540 -->
<g id="edge2" class="edge"><title>1527&#45;&gt;1540</title>
<path fill="none" stroke="black" d="M333,-1058.86C333,-1050.05 333,-1041.43 333,-1033.23"/>
<polygon fill="black" stroke="black" points="336.5,-1033.07 333,-1023.07 329.5,-1033.07 336.5,-1033.07"/>
</g>
<!-- 1528 -->
<g id="node4" class="node"><title>1528</title>
<polygon fill="none" stroke="black" points="362,-874 190,-874 190,-761 362,-761 362,-874"/>
<text text-anchor="middle" x="276" y="-858.8" font-family="Times,serif" font-size="14.00">0x4000cb8457</text>
<text text-anchor="middle" x="276" y="-843.8" font-family="Times,serif" font-size="14.00">_______________________</text>
<text text-anchor="middle" x="276" y="-828.8" font-family="Times,serif" font-size="14.00">_______________________</text>
<text text-anchor="middle" x="276" y="-813.8" font-family="Times,serif" font-size="14.00">testq %r15, %r15</text>
<text text-anchor="middle" x="276" y="-798.8" font-family="Times,serif" font-size="14.00">je 0x4000cb84c0</text>
<text text-anchor="middle" x="276" y="-783.8" font-family="Times,serif" font-size="14.00">_______________________</text>
<text text-anchor="middle" x="276" y="-768.8" font-family="Times,serif" font-size="14.00">LOOP 0x4000cb8410</text>
</g>
<!-- 1540&#45;&gt;1528 -->
<g id="edge9" class="edge"><title>1540&#45;&gt;1528</title>
<path fill="none" stroke="black" d="M311.451,-909.926C308.117,-901.328 304.648,-892.381 301.242,-883.597"/>
<polygon fill="black" stroke="black" points="304.458,-882.211 297.58,-874.153 297.932,-884.742 304.458,-882.211"/>
</g>
<!-- 1529 -->
<g id="node5" class="node"><title>1529</title>
<polygon fill="none" stroke="black" points="172,-702.5 0,-702.5 0,-544.5 172,-544.5 172,-702.5"/>
<text text-anchor="middle" x="86" y="-687.3" font-family="Times,serif" font-size="14.00">0x4000cb845c</text>
<text text-anchor="middle" x="86" y="-672.3" font-family="Times,serif" font-size="14.00">_______________________</text>
<text text-anchor="middle" x="86" y="-657.3" font-family="Times,serif" font-size="14.00">_______________________</text>
<text text-anchor="middle" x="86" y="-642.3" font-family="Times,serif" font-size="14.00">movq 0xd8(%r14), %rax</text>
<text text-anchor="middle" x="86" y="-627.3" font-family="Times,serif" font-size="14.00">movq %rax, %rdx</text>
<text text-anchor="middle" x="86" y="-612.3" font-family="Times,serif" font-size="14.00">subq %r13, %rdx</text>
<text text-anchor="middle" x="86" y="-597.3" font-family="Times,serif" font-size="14.00">cmpq %rdx, %r12</text>
<text text-anchor="middle" x="86" y="-582.3" font-family="Times,serif" font-size="14.00">jbe 0x4000cb84a8</text>
<text text-anchor="middle" x="86" y="-567.3" font-family="Times,serif" font-size="14.00">_______________________</text>
<text text-anchor="middle" x="86" y="-552.3" font-family="Times,serif" font-size="14.00">LOOP 0x4000cb8410</text>
</g>
<!-- 1528&#45;&gt;1529 -->
<g id="edge3" class="edge"><title>1528&#45;&gt;1529</title>
<path fill="none" stroke="black" d="M217.3,-760.795C205.195,-749.075 192.604,-736.713 181,-725 176.232,-720.187 171.36,-715.214 166.467,-710.174"/>
<polygon fill="black" stroke="black" points="168.758,-707.509 159.29,-702.754 163.726,-712.376 168.758,-707.509"/>
</g>
<!-- 1541 -->
<g id="node6" class="node"><title>1541</title>
<polygon fill="none" stroke="black" points="362,-725 190,-725 190,-522 362,-522 362,-725"/>
<text text-anchor="middle" x="276" y="-709.8" font-family="Times,serif" font-size="14.00">0x4000cb84c0</text>
<text text-anchor="middle" x="276" y="-694.8" font-family="Times,serif" font-size="14.00">_______________________</text>
<text text-anchor="middle" x="276" y="-679.8" font-family="Times,serif" font-size="14.00">_______________________</text>
<text text-anchor="middle" x="276" y="-664.8" font-family="Times,serif" font-size="14.00">movq 8(%rsp), %rax</text>
<text text-anchor="middle" x="276" y="-649.8" font-family="Times,serif" font-size="14.00">addq $0x18, %rsp</text>
<text text-anchor="middle" x="276" y="-634.8" font-family="Times,serif" font-size="14.00">popq %rbx</text>
<text text-anchor="middle" x="276" y="-619.8" font-family="Times,serif" font-size="14.00">popq %rbp</text>
<text text-anchor="middle" x="276" y="-604.8" font-family="Times,serif" font-size="14.00">subq %r15, %rax</text>
<text text-anchor="middle" x="276" y="-589.8" font-family="Times,serif" font-size="14.00">popq %r12</text>
<text text-anchor="middle" x="276" y="-574.8" font-family="Times,serif" font-size="14.00">popq %r13</text>
<text text-anchor="middle" x="276" y="-559.8" font-family="Times,serif" font-size="14.00">popq %r14</text>
<text text-anchor="middle" x="276" y="-544.8" font-family="Times,serif" font-size="14.00">popq %r15</text>
<text text-anchor="middle" x="276" y="-529.8" font-family="Times,serif" font-size="14.00">retq </text>
</g>
<!-- 1528&#45;&gt;1541 -->
<g id="edge4" class="edge"><title>1528&#45;&gt;1541</title>
<path fill="none" stroke="black" d="M276,-760.966C276,-752.758 276,-744.067 276,-735.205"/>
<polygon fill="black" stroke="black" points="279.5,-735.143 276,-725.143 272.5,-735.143 279.5,-735.143"/>
</g>
<!-- 1530 -->
<g id="node7" class="node"><title>1530</title>
<polygon fill="none" stroke="black" points="220,-486 48,-486 48,-313 220,-313 220,-486"/>
<text text-anchor="middle" x="134" y="-470.8" font-family="Times,serif" font-size="14.00">0x4000cb846e</text>
<text text-anchor="middle" x="134" y="-455.8" font-family="Times,serif" font-size="14.00">_______________________</text>
<text text-anchor="middle" x="134" y="-440.8" font-family="Times,serif" font-size="14.00">_______________________</text>
<text text-anchor="middle" x="134" y="-425.8" font-family="Times,serif" font-size="14.00">movzbl (%rbp), %esi</text>
<text text-anchor="middle" x="134" y="-410.8" font-family="Times,serif" font-size="14.00">movq %r14, %rdi</text>
<text text-anchor="middle" x="134" y="-395.8" font-family="Times,serif" font-size="14.00">leaq 1(%rbp), %rbx</text>
<text text-anchor="middle" x="134" y="-380.8" font-family="Times,serif" font-size="14.00">callq *0x18(%rax)</text>
<text text-anchor="middle" x="134" y="-365.8" font-family="Times,serif" font-size="14.00">_______________________</text>
<text text-anchor="middle" x="134" y="-350.8" font-family="Times,serif" font-size="14.00">LOOP 0x4000cb8410</text>
<text text-anchor="middle" x="134" y="-335.8" font-family="Times,serif" font-size="14.00">_______________________</text>
<text text-anchor="middle" x="134" y="-320.8" font-family="Times,serif" font-size="14.00">CALL _IO_file_overflow</text>
</g>
<!-- 1529&#45;&gt;1530 -->
<g id="edge5" class="edge"><title>1529&#45;&gt;1530</title>
<path fill="none" stroke="black" d="M102.923,-544.231C106.276,-528.724 109.831,-512.282 113.293,-496.27"/>
<polygon fill="black" stroke="black" points="116.741,-496.882 115.434,-486.368 109.9,-495.403 116.741,-496.882"/>
</g>
<!-- 1538 -->
<g id="node8" class="node"><title>1538</title>
<polygon fill="none" stroke="black" points="267,-277 95,-277 95,-164 267,-164 267,-277"/>
<text text-anchor="middle" x="181" y="-261.8" font-family="Times,serif" font-size="14.00">0x4000cb847c</text>
<text text-anchor="middle" x="181" y="-246.8" font-family="Times,serif" font-size="14.00">_______________________</text>
<text text-anchor="middle" x="181" y="-231.8" font-family="Times,serif" font-size="14.00">_______________________</text>
<text text-anchor="middle" x="181" y="-216.8" font-family="Times,serif" font-size="14.00">cmpl $0xff, %eax</text>
<text text-anchor="middle" x="181" y="-201.8" font-family="Times,serif" font-size="14.00">je 0x4000cb84c0</text>
<text text-anchor="middle" x="181" y="-186.8" font-family="Times,serif" font-size="14.00">_______________________</text>
<text text-anchor="middle" x="181" y="-171.8" font-family="Times,serif" font-size="14.00">LOOP 0x4000cb8410</text>
</g>
<!-- 1530&#45;&gt;1538 -->
<g id="edge6" class="edge"><title>1530&#45;&gt;1538</title>
<path fill="none" stroke="black" d="M156.743,-312.852C159.067,-304.099 161.401,-295.309 163.654,-286.825"/>
<polygon fill="black" stroke="black" points="167.072,-287.59 166.256,-277.027 160.306,-285.794 167.072,-287.59"/>
</g>
<!-- 1539 -->
<g id="node9" class="node"><title>1539</title>
<polygon fill="none" stroke="black" points="371,-128 199,-128 199,-0 371,-0 371,-128"/>
<text text-anchor="middle" x="285" y="-112.8" font-family="Times,serif" font-size="14.00">0x4000cb8481</text>
<text text-anchor="middle" x="285" y="-97.8" font-family="Times,serif" font-size="14.00">_______________________</text>
<text text-anchor="middle" x="285" y="-82.8" font-family="Times,serif" font-size="14.00">_______________________</text>
<text text-anchor="middle" x="285" y="-67.8" font-family="Times,serif" font-size="14.00">subq $1, %r15</text>
<text text-anchor="middle" x="285" y="-52.8" font-family="Times,serif" font-size="14.00">movq %rbx, %rbp</text>
<text text-anchor="middle" x="285" y="-37.8" font-family="Times,serif" font-size="14.00">jmp 0x4000cb8410</text>
<text text-anchor="middle" x="285" y="-22.8" font-family="Times,serif" font-size="14.00">_______________________</text>
<text text-anchor="middle" x="285" y="-7.8" font-family="Times,serif" font-size="14.00">LOOP 0x4000cb8410</text>
</g>
<!-- 1538&#45;&gt;1539 -->
<g id="edge7" class="edge"><title>1538&#45;&gt;1539</title>
<path fill="none" stroke="black" d="M218.546,-163.722C224.516,-154.854 230.761,-145.577 236.932,-136.409"/>
<polygon fill="black" stroke="black" points="239.887,-138.286 242.568,-128.036 234.08,-134.377 239.887,-138.286"/>
</g>
<!-- 1539&#45;&gt;1540 -->
<g id="edge8" class="edge"><title>1539&#45;&gt;1540</title>
<path fill="none" stroke="black" d="M317.504,-128.013C348.341,-193.728 390,-300.619 390,-398.5 390,-624.5 390,-624.5 390,-624.5 390,-735.71 396.875,-765.842 371,-874 368.913,-882.723 366.1,-891.688 362.943,-900.435"/>
<polygon fill="black" stroke="black" points="359.658,-899.227 359.401,-909.819 366.207,-901.699 359.658,-899.227"/>
</g>
</g>
</svg>
