<?xml version="1.0" encoding="UTF-8" standalone="no"?>
<!DOCTYPE svg PUBLIC "-//W3C//DTD SVG 1.1//EN"
 "http://www.w3.org/Graphics/SVG/1.1/DTD/svg11.dtd">
<!-- Generated by graphviz version 2.38.0 (20140413.2041)
 -->
<!-- Title: %3 Pages: 1 -->
<svg width="184pt" height="420pt"
 viewBox="0.00 0.00 184.00 420.00" xmlns="http://www.w3.org/2000/svg" xmlns:xlink="http://www.w3.org/1999/xlink">
<g id="graph0" class="graph" transform="scale(1 1) rotate(0) translate(4 416)">
<title>%3</title>
<polygon fill="white" stroke="none" points="-4,4 -4,-416 180,-416 180,4 -4,4"/>
<!-- 1505 -->
<g id="node1" class="node"><title>1505</title>
<polygon fill="none" stroke="black" points="174,-412 2,-412 2,-254 174,-254 174,-412"/>
<text text-anchor="middle" x="88" y="-396.8" font-family="Times,serif" font-size="14.00">0x4000cb8240</text>
<text text-anchor="middle" x="88" y="-381.8" font-family="Times,serif" font-size="14.00">_______________________</text>
<text text-anchor="middle" x="88" y="-366.8" font-family="Times,serif" font-size="14.00">_______________________</text>
<text text-anchor="middle" x="88" y="-351.8" font-family="Times,serif" font-size="14.00">pushq %rbx</text>
<text text-anchor="middle" x="88" y="-336.8" font-family="Times,serif" font-size="14.00">movq %rdi, %rbx</text>
<text text-anchor="middle" x="88" y="-321.8" font-family="Times,serif" font-size="14.00">subq $0x20, %rsp</text>
<text text-anchor="middle" x="88" y="-306.8" font-family="Times,serif" font-size="14.00">movq 0x38(%rdi), %rdi</text>
<text text-anchor="middle" x="88" y="-291.8" font-family="Times,serif" font-size="14.00">movl (%rbx), %eax</text>
<text text-anchor="middle" x="88" y="-276.8" font-family="Times,serif" font-size="14.00">testq %rdi, %rdi</text>
<text text-anchor="middle" x="88" y="-261.8" font-family="Times,serif" font-size="14.00">je 0x4000cb8257</text>
</g>
<!-- 1506 -->
<g id="node2" class="node"><title>1506</title>
<polygon fill="none" stroke="black" points="176,-218 0,-218 0,-0 176,-0 176,-218"/>
<text text-anchor="middle" x="88" y="-202.8" font-family="Times,serif" font-size="14.00">0x4000cb8257</text>
<text text-anchor="middle" x="88" y="-187.8" font-family="Times,serif" font-size="14.00">_______________________</text>
<text text-anchor="middle" x="88" y="-172.8" font-family="Times,serif" font-size="14.00">_______________________</text>
<text text-anchor="middle" x="88" y="-157.8" font-family="Times,serif" font-size="14.00">movq %rdx, 0x40(%rbx)</text>
<text text-anchor="middle" x="88" y="-142.8" font-family="Times,serif" font-size="14.00">movl %eax, %edx</text>
<text text-anchor="middle" x="88" y="-127.8" font-family="Times,serif" font-size="14.00">andl $0xfffffffffffffffe, %eax</text>
<text text-anchor="middle" x="88" y="-112.8" font-family="Times,serif" font-size="14.00">orl $1, %edx</text>
<text text-anchor="middle" x="88" y="-97.8" font-family="Times,serif" font-size="14.00">testl %ecx, %ecx</text>
<text text-anchor="middle" x="88" y="-82.8" font-family="Times,serif" font-size="14.00">movq %rsi, 0x38(%rbx)</text>
<text text-anchor="middle" x="88" y="-67.8" font-family="Times,serif" font-size="14.00">cmovel %edx, %eax</text>
<text text-anchor="middle" x="88" y="-52.8" font-family="Times,serif" font-size="14.00">movl %eax, (%rbx)</text>
<text text-anchor="middle" x="88" y="-37.8" font-family="Times,serif" font-size="14.00">addq $0x20, %rsp</text>
<text text-anchor="middle" x="88" y="-22.8" font-family="Times,serif" font-size="14.00">popq %rbx</text>
<text text-anchor="middle" x="88" y="-7.8" font-family="Times,serif" font-size="14.00">retq </text>
</g>
<!-- 1505&#45;&gt;1506 -->
<g id="edge1" class="edge"><title>1505&#45;&gt;1506</title>
<path fill="none" stroke="black" d="M88,-253.731C88,-245.476 88,-236.957 88,-228.378"/>
<polygon fill="black" stroke="black" points="91.5001,-228.292 88,-218.292 84.5001,-228.292 91.5001,-228.292"/>
</g>
</g>
</svg>
