<?xml version="1.0" encoding="UTF-8" standalone="no"?>
<!DOCTYPE svg PUBLIC "-//W3C//DTD SVG 1.1//EN"
 "http://www.w3.org/Graphics/SVG/1.1/DTD/svg11.dtd">
<!-- Generated by graphviz version 2.38.0 (20140413.2041)
 -->
<!-- Title: %3 Pages: 1 -->
<svg width="186pt" height="539pt"
 viewBox="0.00 0.00 186.00 539.00" xmlns="http://www.w3.org/2000/svg" xmlns:xlink="http://www.w3.org/1999/xlink">
<g id="graph0" class="graph" transform="scale(1 1) rotate(0) translate(4 535)">
<title>%3</title>
<polygon fill="white" stroke="none" points="-4,4 -4,-535 182,-535 182,4 -4,4"/>
<!-- 1124 -->
<g id="node1" class="node"><title>1124</title>
<polygon fill="none" stroke="black" points="178,-531 0,-531 0,-373 178,-373 178,-531"/>
<text text-anchor="middle" x="89" y="-515.8" font-family="Times,serif" font-size="14.00">0x4000a159b0</text>
<text text-anchor="middle" x="89" y="-500.8" font-family="Times,serif" font-size="14.00">_______________________</text>
<text text-anchor="middle" x="89" y="-485.8" font-family="Times,serif" font-size="14.00">_______________________</text>
<text text-anchor="middle" x="89" y="-470.8" font-family="Times,serif" font-size="14.00">pushq %r12</text>
<text text-anchor="middle" x="89" y="-455.8" font-family="Times,serif" font-size="14.00">movq %rdi, %r12</text>
<text text-anchor="middle" x="89" y="-440.8" font-family="Times,serif" font-size="14.00">pushq %rbp</text>
<text text-anchor="middle" x="89" y="-425.8" font-family="Times,serif" font-size="14.00">pushq %rbx</text>
<text text-anchor="middle" x="89" y="-410.8" font-family="Times,serif" font-size="14.00">movq 0x2115aa(%rip), %rbx</text>
<text text-anchor="middle" x="89" y="-395.8" font-family="Times,serif" font-size="14.00">movq 0x448(%rdi), %rbp</text>
<text text-anchor="middle" x="89" y="-380.8" font-family="Times,serif" font-size="14.00">jmp 0x4000a159df</text>
</g>
<!-- 1125 -->
<g id="node2" class="node"><title>1125</title>
<polygon fill="none" stroke="black" points="175,-337 3,-337 3,-239 175,-239 175,-337"/>
<text text-anchor="middle" x="89" y="-321.8" font-family="Times,serif" font-size="14.00">0x4000a159df</text>
<text text-anchor="middle" x="89" y="-306.8" font-family="Times,serif" font-size="14.00">_______________________</text>
<text text-anchor="middle" x="89" y="-291.8" font-family="Times,serif" font-size="14.00">_______________________</text>
<text text-anchor="middle" x="89" y="-276.8" font-family="Times,serif" font-size="14.00">movq (%rbx), %rax</text>
<text text-anchor="middle" x="89" y="-261.8" font-family="Times,serif" font-size="14.00">cmpq %rax, %rbp</text>
<text text-anchor="middle" x="89" y="-246.8" font-family="Times,serif" font-size="14.00">jae 0x4000a159d0</text>
</g>
<!-- 1124&#45;&gt;1125 -->
<g id="edge1" class="edge"><title>1124&#45;&gt;1125</title>
<path fill="none" stroke="black" d="M89,-372.847C89,-364.314 89,-355.738 89,-347.499"/>
<polygon fill="black" stroke="black" points="92.5001,-347.273 89,-337.273 85.5001,-347.273 92.5001,-347.273"/>
</g>
<!-- 1126 -->
<g id="node3" class="node"><title>1126</title>
<polygon fill="none" stroke="black" points="177.5,-203 0.5,-203 0.5,-0 177.5,-0 177.5,-203"/>
<text text-anchor="middle" x="89" y="-187.8" font-family="Times,serif" font-size="14.00">0x4000a159e7</text>
<text text-anchor="middle" x="89" y="-172.8" font-family="Times,serif" font-size="14.00">_______________________</text>
<text text-anchor="middle" x="89" y="-157.8" font-family="Times,serif" font-size="14.00">_______________________</text>
<text text-anchor="middle" x="89" y="-142.8" font-family="Times,serif" font-size="14.00">movq 0x2115aa(%rip), %rax</text>
<text text-anchor="middle" x="89" y="-127.8" font-family="Times,serif" font-size="14.00">shlq $4, %rbp</text>
<text text-anchor="middle" x="89" y="-112.8" font-family="Times,serif" font-size="14.00">addq %rbp, %rbx</text>
<text text-anchor="middle" x="89" y="-97.8" font-family="Times,serif" font-size="14.00">movq %r12, 0x18(%rbx)</text>
<text text-anchor="middle" x="89" y="-82.8" font-family="Times,serif" font-size="14.00">addq $1, %rax</text>
<text text-anchor="middle" x="89" y="-67.8" font-family="Times,serif" font-size="14.00">movq %rax, 0x10(%rbx)</text>
<text text-anchor="middle" x="89" y="-52.8" font-family="Times,serif" font-size="14.00">popq %rbx</text>
<text text-anchor="middle" x="89" y="-37.8" font-family="Times,serif" font-size="14.00">popq %rbp</text>
<text text-anchor="middle" x="89" y="-22.8" font-family="Times,serif" font-size="14.00">popq %r12</text>
<text text-anchor="middle" x="89" y="-7.8" font-family="Times,serif" font-size="14.00">retq </text>
</g>
<!-- 1125&#45;&gt;1126 -->
<g id="edge2" class="edge"><title>1125&#45;&gt;1126</title>
<path fill="none" stroke="black" d="M89,-238.525C89,-230.535 89,-221.975 89,-213.181"/>
<polygon fill="black" stroke="black" points="92.5001,-213.173 89,-203.173 85.5001,-213.173 92.5001,-213.173"/>
</g>
</g>
</svg>
