<?xml version="1.0" encoding="UTF-8" standalone="no"?>
<!DOCTYPE svg PUBLIC "-//W3C//DTD SVG 1.1//EN"
 "http://www.w3.org/Graphics/SVG/1.1/DTD/svg11.dtd">
<!-- Generated by graphviz version 2.38.0 (20140413.2041)
 -->
<!-- Title: %3 Pages: 1 -->
<svg width="185pt" height="1077pt"
 viewBox="0.00 0.00 185.00 1077.00" xmlns="http://www.w3.org/2000/svg" xmlns:xlink="http://www.w3.org/1999/xlink">
<g id="graph0" class="graph" transform="scale(1 1) rotate(0) translate(4 1073)">
<title>%3</title>
<polygon fill="white" stroke="none" points="-4,4 -4,-1073 181,-1073 181,4 -4,4"/>
<!-- 91 -->
<g id="node1" class="node"><title>91</title>
<polygon fill="none" stroke="black" points="174.5,-1069 2.5,-1069 2.5,-956 174.5,-956 174.5,-1069"/>
<text text-anchor="middle" x="88.5" y="-1053.8" font-family="Times,serif" font-size="14.00">0x4000a19e70</text>
<text text-anchor="middle" x="88.5" y="-1038.8" font-family="Times,serif" font-size="14.00">_______________________</text>
<text text-anchor="middle" x="88.5" y="-1023.8" font-family="Times,serif" font-size="14.00">_______________________</text>
<text text-anchor="middle" x="88.5" y="-1008.8" font-family="Times,serif" font-size="14.00">pushq %rbx</text>
<text text-anchor="middle" x="88.5" y="-993.8" font-family="Times,serif" font-size="14.00">subq $0x88, %rsp</text>
<text text-anchor="middle" x="88.5" y="-978.8" font-family="Times,serif" font-size="14.00">testq %rdi, %rdi</text>
<text text-anchor="middle" x="88.5" y="-963.8" font-family="Times,serif" font-size="14.00">je 0x4000a19ed5</text>
</g>
<!-- 92 -->
<g id="node2" class="node"><title>92</title>
<polygon fill="none" stroke="black" points="177,-920 0,-920 0,-492 177,-492 177,-920"/>
<text text-anchor="middle" x="88.5" y="-904.8" font-family="Times,serif" font-size="14.00">0x4000a19e7d</text>
<text text-anchor="middle" x="88.5" y="-889.8" font-family="Times,serif" font-size="14.00">_______________________</text>
<text text-anchor="middle" x="88.5" y="-874.8" font-family="Times,serif" font-size="14.00">_______________________</text>
<text text-anchor="middle" x="88.5" y="-859.8" font-family="Times,serif" font-size="14.00">movq %rdx, %r8</text>
<text text-anchor="middle" x="88.5" y="-844.8" font-family="Times,serif" font-size="14.00">movq %rcx, %r9</text>
<text text-anchor="middle" x="88.5" y="-829.8" font-family="Times,serif" font-size="14.00">movl $1, %eax</text>
<text text-anchor="middle" x="88.5" y="-814.8" font-family="Times,serif" font-size="14.00">cpuid </text>
<text text-anchor="middle" x="88.5" y="-799.8" font-family="Times,serif" font-size="14.00">movl %edx, 0x20be94(%rip)</text>
<text text-anchor="middle" x="88.5" y="-784.8" font-family="Times,serif" font-size="14.00">movl %eax, %edx</text>
<text text-anchor="middle" x="88.5" y="-769.8" font-family="Times,serif" font-size="14.00">movl %ebx, 0x20be84(%rip)</text>
<text text-anchor="middle" x="88.5" y="-754.8" font-family="Times,serif" font-size="14.00">shrl $8, %edx</text>
<text text-anchor="middle" x="88.5" y="-739.8" font-family="Times,serif" font-size="14.00">movl %ecx, 0x20be7f(%rip)</text>
<text text-anchor="middle" x="88.5" y="-724.8" font-family="Times,serif" font-size="14.00">movl %eax, 0x20be71(%rip)</text>
<text text-anchor="middle" x="88.5" y="-709.8" font-family="Times,serif" font-size="14.00">andl $0xf, %edx</text>
<text text-anchor="middle" x="88.5" y="-694.8" font-family="Times,serif" font-size="14.00">movl %edx, (%rdi)</text>
<text text-anchor="middle" x="88.5" y="-679.8" font-family="Times,serif" font-size="14.00">movl %eax, %edx</text>
<text text-anchor="middle" x="88.5" y="-664.8" font-family="Times,serif" font-size="14.00">shrl $4, %edx</text>
<text text-anchor="middle" x="88.5" y="-649.8" font-family="Times,serif" font-size="14.00">andl $0xf, %edx</text>
<text text-anchor="middle" x="88.5" y="-634.8" font-family="Times,serif" font-size="14.00">movl %edx, (%rsi)</text>
<text text-anchor="middle" x="88.5" y="-619.8" font-family="Times,serif" font-size="14.00">movl %eax, %edx</text>
<text text-anchor="middle" x="88.5" y="-604.8" font-family="Times,serif" font-size="14.00">shrl $0xc, %edx</text>
<text text-anchor="middle" x="88.5" y="-589.8" font-family="Times,serif" font-size="14.00">andl $0xf0, %edx</text>
<text text-anchor="middle" x="88.5" y="-574.8" font-family="Times,serif" font-size="14.00">movl %edx, (%r8)</text>
<text text-anchor="middle" x="88.5" y="-559.8" font-family="Times,serif" font-size="14.00">movl %eax, %edx</text>
<text text-anchor="middle" x="88.5" y="-544.8" font-family="Times,serif" font-size="14.00">andl $0xf, %edx</text>
<text text-anchor="middle" x="88.5" y="-529.8" font-family="Times,serif" font-size="14.00">movl %edx, (%r9)</text>
<text text-anchor="middle" x="88.5" y="-514.8" font-family="Times,serif" font-size="14.00">cmpl $0xf, (%rdi)</text>
<text text-anchor="middle" x="88.5" y="-499.8" font-family="Times,serif" font-size="14.00">je 0x4000a1a040</text>
</g>
<!-- 91&#45;&gt;92 -->
<g id="edge1" class="edge"><title>91&#45;&gt;92</title>
<path fill="none" stroke="black" d="M88.5,-955.65C88.5,-947.729 88.5,-939.216 88.5,-930.283"/>
<polygon fill="black" stroke="black" points="92.0001,-930.027 88.5,-920.027 85.0001,-930.027 92.0001,-930.027"/>
</g>
<!-- 93 -->
<g id="node3" class="node"><title>93</title>
<polygon fill="none" stroke="black" points="174.5,-456 2.5,-456 2.5,-373 174.5,-373 174.5,-456"/>
<text text-anchor="middle" x="88.5" y="-440.8" font-family="Times,serif" font-size="14.00">0x4000a19ed5</text>
<text text-anchor="middle" x="88.5" y="-425.8" font-family="Times,serif" font-size="14.00">_______________________</text>
<text text-anchor="middle" x="88.5" y="-410.8" font-family="Times,serif" font-size="14.00">_______________________</text>
<text text-anchor="middle" x="88.5" y="-395.8" font-family="Times,serif" font-size="14.00">cmpl $6, 0x20be38(%rip)</text>
<text text-anchor="middle" x="88.5" y="-380.8" font-family="Times,serif" font-size="14.00">jle 0x4000a19eff</text>
</g>
<!-- 92&#45;&gt;93 -->
<g id="edge2" class="edge"><title>92&#45;&gt;93</title>
<path fill="none" stroke="black" d="M88.5,-491.941C88.5,-482.827 88.5,-474.182 88.5,-466.208"/>
<polygon fill="black" stroke="black" points="92.0001,-466.129 88.5,-456.129 85.0001,-466.129 92.0001,-466.129"/>
</g>
<!-- 94 -->
<g id="node4" class="node"><title>94</title>
<polygon fill="none" stroke="black" points="177,-337 0,-337 0,-134 177,-134 177,-337"/>
<text text-anchor="middle" x="88.5" y="-321.8" font-family="Times,serif" font-size="14.00">0x4000a19ede</text>
<text text-anchor="middle" x="88.5" y="-306.8" font-family="Times,serif" font-size="14.00">_______________________</text>
<text text-anchor="middle" x="88.5" y="-291.8" font-family="Times,serif" font-size="14.00">_______________________</text>
<text text-anchor="middle" x="88.5" y="-276.8" font-family="Times,serif" font-size="14.00">movl $7, %eax</text>
<text text-anchor="middle" x="88.5" y="-261.8" font-family="Times,serif" font-size="14.00">xorl %ecx, %ecx</text>
<text text-anchor="middle" x="88.5" y="-246.8" font-family="Times,serif" font-size="14.00">cpuid </text>
<text text-anchor="middle" x="88.5" y="-231.8" font-family="Times,serif" font-size="14.00">movl %eax, 0x20be3b(%rip)</text>
<text text-anchor="middle" x="88.5" y="-216.8" font-family="Times,serif" font-size="14.00">movl %ebx, 0x20be39(%rip)</text>
<text text-anchor="middle" x="88.5" y="-201.8" font-family="Times,serif" font-size="14.00">movl %ecx, 0x20be37(%rip)</text>
<text text-anchor="middle" x="88.5" y="-186.8" font-family="Times,serif" font-size="14.00">movl %edx, 0x20be35(%rip)</text>
<text text-anchor="middle" x="88.5" y="-171.8" font-family="Times,serif" font-size="14.00">movl 0x20be1b(%rip), %esi</text>
<text text-anchor="middle" x="88.5" y="-156.8" font-family="Times,serif" font-size="14.00">testl $0x8000000, %esi</text>
<text text-anchor="middle" x="88.5" y="-141.8" font-family="Times,serif" font-size="14.00">je 0x4000a1a031</text>
</g>
<!-- 93&#45;&gt;94 -->
<g id="edge3" class="edge"><title>93&#45;&gt;94</title>
<path fill="none" stroke="black" d="M88.5,-372.893C88.5,-364.958 88.5,-356.288 88.5,-347.29"/>
<polygon fill="black" stroke="black" points="92.0001,-347.012 88.5,-337.012 85.0001,-347.012 92.0001,-347.012"/>
</g>
<!-- 95 -->
<g id="node5" class="node"><title>95</title>
<polygon fill="none" stroke="black" points="174.5,-98 2.5,-98 2.5,-0 174.5,-0 174.5,-98"/>
<text text-anchor="middle" x="88.5" y="-82.8" font-family="Times,serif" font-size="14.00">0x4000a1a031</text>
<text text-anchor="middle" x="88.5" y="-67.8" font-family="Times,serif" font-size="14.00">_______________________</text>
<text text-anchor="middle" x="88.5" y="-52.8" font-family="Times,serif" font-size="14.00">_______________________</text>
<text text-anchor="middle" x="88.5" y="-37.8" font-family="Times,serif" font-size="14.00">addq $0x88, %rsp</text>
<text text-anchor="middle" x="88.5" y="-22.8" font-family="Times,serif" font-size="14.00">popq %rbx</text>
<text text-anchor="middle" x="88.5" y="-7.8" font-family="Times,serif" font-size="14.00">retq </text>
</g>
<!-- 94&#45;&gt;95 -->
<g id="edge4" class="edge"><title>94&#45;&gt;95</title>
<path fill="none" stroke="black" d="M88.5,-133.882C88.5,-125.226 88.5,-116.669 88.5,-108.519"/>
<polygon fill="black" stroke="black" points="92.0001,-108.437 88.5,-98.4366 85.0001,-108.437 92.0001,-108.437"/>
</g>
</g>
</svg>
