<?xml version="1.0" encoding="UTF-8" standalone="no"?>
<!DOCTYPE svg PUBLIC "-//W3C//DTD SVG 1.1//EN"
 "http://www.w3.org/Graphics/SVG/1.1/DTD/svg11.dtd">
<!-- Generated by graphviz version 2.38.0 (20140413.2041)
 -->
<!-- Title: %3 Pages: 1 -->
<svg width="180pt" height="270pt"
 viewBox="0.00 0.00 180.00 270.00" xmlns="http://www.w3.org/2000/svg" xmlns:xlink="http://www.w3.org/1999/xlink">
<g id="graph0" class="graph" transform="scale(1 1) rotate(0) translate(4 266)">
<title>%3</title>
<polygon fill="white" stroke="none" points="-4,4 -4,-266 176,-266 176,4 -4,4"/>
<!-- 1796 -->
<g id="node1" class="node"><title>1796</title>
<polygon fill="none" stroke="black" points="172,-262 0,-262 0,-134 172,-134 172,-262"/>
<text text-anchor="middle" x="86" y="-246.8" font-family="Times,serif" font-size="14.00">0x4000cfca10</text>
<text text-anchor="middle" x="86" y="-231.8" font-family="Times,serif" font-size="14.00">_______________________</text>
<text text-anchor="middle" x="86" y="-216.8" font-family="Times,serif" font-size="14.00">_______________________</text>
<text text-anchor="middle" x="86" y="-201.8" font-family="Times,serif" font-size="14.00">movslq %edi, %rdx</text>
<text text-anchor="middle" x="86" y="-186.8" font-family="Times,serif" font-size="14.00">movq 0x2e245e(%rip), %r9</text>
<text text-anchor="middle" x="86" y="-171.8" font-family="Times,serif" font-size="14.00">movl $0xe7, %r8d</text>
<text text-anchor="middle" x="86" y="-156.8" font-family="Times,serif" font-size="14.00">movl $0x3c, %esi</text>
<text text-anchor="middle" x="86" y="-141.8" font-family="Times,serif" font-size="14.00">jmp 0x4000cfca40</text>
</g>
<!-- 1797 -->
<g id="node2" class="node"><title>1797</title>
<polygon fill="none" stroke="black" points="172,-98 0,-98 0,-0 172,-0 172,-98"/>
<text text-anchor="middle" x="86" y="-82.8" font-family="Times,serif" font-size="14.00">0x4000cfca40</text>
<text text-anchor="middle" x="86" y="-67.8" font-family="Times,serif" font-size="14.00">_______________________</text>
<text text-anchor="middle" x="86" y="-52.8" font-family="Times,serif" font-size="14.00">_______________________</text>
<text text-anchor="middle" x="86" y="-37.8" font-family="Times,serif" font-size="14.00">movq %rdx, %rdi</text>
<text text-anchor="middle" x="86" y="-22.8" font-family="Times,serif" font-size="14.00">movl %r8d, %eax</text>
<text text-anchor="middle" x="86" y="-7.8" font-family="Times,serif" font-size="14.00">syscall </text>
</g>
<!-- 1796&#45;&gt;1797 -->
<g id="edge1" class="edge"><title>1796&#45;&gt;1797</title>
<path fill="none" stroke="black" d="M86,-133.806C86,-125.286 86,-116.578 86,-108.151"/>
<polygon fill="black" stroke="black" points="89.5001,-108.044 86,-98.0443 82.5001,-108.044 89.5001,-108.044"/>
</g>
</g>
</svg>
