<?xml version="1.0" encoding="UTF-8" standalone="no"?>
<!DOCTYPE svg PUBLIC "-//W3C//DTD SVG 1.1//EN"
 "http://www.w3.org/Graphics/SVG/1.1/DTD/svg11.dtd">
<!-- Generated by graphviz version 2.38.0 (20140413.2041)
 -->
<!-- Title: %3 Pages: 1 -->
<svg width="560pt" height="2296pt"
 viewBox="0.00 0.00 560.00 2296.00" xmlns="http://www.w3.org/2000/svg" xmlns:xlink="http://www.w3.org/1999/xlink">
<g id="graph0" class="graph" transform="scale(1 1) rotate(0) translate(4 2292)">
<title>%3</title>
<polygon fill="white" stroke="none" points="-4,4 -4,-2292 556,-2292 556,4 -4,4"/>
<!-- 446 -->
<g id="node1" class="node"><title>446</title>
<polygon fill="none" stroke="black" points="312,-2288 140,-2288 140,-2205 312,-2205 312,-2288"/>
<text text-anchor="middle" x="226" y="-2272.8" font-family="Times,serif" font-size="14.00">0x4000a1e690</text>
<text text-anchor="middle" x="226" y="-2257.8" font-family="Times,serif" font-size="14.00">_______________________</text>
<text text-anchor="middle" x="226" y="-2242.8" font-family="Times,serif" font-size="14.00">_______________________</text>
<text text-anchor="middle" x="226" y="-2227.8" font-family="Times,serif" font-size="14.00">testq %rdx, %rdx</text>
<text text-anchor="middle" x="226" y="-2212.8" font-family="Times,serif" font-size="14.00">je 0x4000a1e790</text>
</g>
<!-- 447 -->
<g id="node2" class="node"><title>447</title>
<polygon fill="none" stroke="black" points="312,-2169 140,-2169 140,-2086 312,-2086 312,-2169"/>
<text text-anchor="middle" x="226" y="-2153.8" font-family="Times,serif" font-size="14.00">0x4000a1e699</text>
<text text-anchor="middle" x="226" y="-2138.8" font-family="Times,serif" font-size="14.00">_______________________</text>
<text text-anchor="middle" x="226" y="-2123.8" font-family="Times,serif" font-size="14.00">_______________________</text>
<text text-anchor="middle" x="226" y="-2108.8" font-family="Times,serif" font-size="14.00">cmpq $1, %rdx</text>
<text text-anchor="middle" x="226" y="-2093.8" font-family="Times,serif" font-size="14.00">jle 0x4000a1e760</text>
</g>
<!-- 446&#45;&gt;447 -->
<g id="edge1" class="edge"><title>446&#45;&gt;447</title>
<path fill="none" stroke="black" d="M226,-2204.91C226,-2196.65 226,-2187.86 226,-2179.3"/>
<polygon fill="black" stroke="black" points="229.5,-2179.02 226,-2169.02 222.5,-2179.02 229.5,-2179.02"/>
</g>
<!-- 448 -->
<g id="node3" class="node"><title>448</title>
<polygon fill="none" stroke="black" points="312,-2050 140,-2050 140,-1937 312,-1937 312,-2050"/>
<text text-anchor="middle" x="226" y="-2034.8" font-family="Times,serif" font-size="14.00">0x4000a1e6a3</text>
<text text-anchor="middle" x="226" y="-2019.8" font-family="Times,serif" font-size="14.00">_______________________</text>
<text text-anchor="middle" x="226" y="-2004.8" font-family="Times,serif" font-size="14.00">_______________________</text>
<text text-anchor="middle" x="226" y="-1989.8" font-family="Times,serif" font-size="14.00">subq %rdi, %rsi</text>
<text text-anchor="middle" x="226" y="-1974.8" font-family="Times,serif" font-size="14.00">movq %rdx, %r10</text>
<text text-anchor="middle" x="226" y="-1959.8" font-family="Times,serif" font-size="14.00">cmpq $0x20, %r10</text>
<text text-anchor="middle" x="226" y="-1944.8" font-family="Times,serif" font-size="14.00">jge 0x4000a1e793</text>
</g>
<!-- 447&#45;&gt;448 -->
<g id="edge2" class="edge"><title>447&#45;&gt;448</title>
<path fill="none" stroke="black" d="M226,-2085.82C226,-2077.76 226,-2069.11 226,-2060.46"/>
<polygon fill="black" stroke="black" points="229.5,-2060.34 226,-2050.34 222.5,-2060.34 229.5,-2060.34"/>
</g>
<!-- 449 -->
<g id="node4" class="node"><title>449</title>
<polygon fill="none" stroke="black" points="312,-1901 140,-1901 140,-1818 312,-1818 312,-1901"/>
<text text-anchor="middle" x="226" y="-1885.8" font-family="Times,serif" font-size="14.00">0x4000a1e6b3</text>
<text text-anchor="middle" x="226" y="-1870.8" font-family="Times,serif" font-size="14.00">_______________________</text>
<text text-anchor="middle" x="226" y="-1855.8" font-family="Times,serif" font-size="14.00">_______________________</text>
<text text-anchor="middle" x="226" y="-1840.8" font-family="Times,serif" font-size="14.00">testq $1, %r10</text>
<text text-anchor="middle" x="226" y="-1825.8" font-family="Times,serif" font-size="14.00">je 0x4000a1e6d9</text>
</g>
<!-- 448&#45;&gt;449 -->
<g id="edge3" class="edge"><title>448&#45;&gt;449</title>
<path fill="none" stroke="black" d="M226,-1936.9C226,-1928.39 226,-1919.63 226,-1911.23"/>
<polygon fill="black" stroke="black" points="229.5,-1911.19 226,-1901.19 222.5,-1911.19 229.5,-1911.19"/>
</g>
<!-- 450 -->
<g id="node5" class="node"><title>450</title>
<polygon fill="none" stroke="black" points="255,-1782 83,-1782 83,-1669 255,-1669 255,-1782"/>
<text text-anchor="middle" x="169" y="-1766.8" font-family="Times,serif" font-size="14.00">0x4000a1e6bc</text>
<text text-anchor="middle" x="169" y="-1751.8" font-family="Times,serif" font-size="14.00">_______________________</text>
<text text-anchor="middle" x="169" y="-1736.8" font-family="Times,serif" font-size="14.00">_______________________</text>
<text text-anchor="middle" x="169" y="-1721.8" font-family="Times,serif" font-size="14.00">movzbl (%rdi), %eax</text>
<text text-anchor="middle" x="169" y="-1706.8" font-family="Times,serif" font-size="14.00">movzbl (%rdi, %rsi), %edx</text>
<text text-anchor="middle" x="169" y="-1691.8" font-family="Times,serif" font-size="14.00">subq $1, %r10</text>
<text text-anchor="middle" x="169" y="-1676.8" font-family="Times,serif" font-size="14.00">je 0x4000a1e766</text>
</g>
<!-- 449&#45;&gt;450 -->
<g id="edge4" class="edge"><title>449&#45;&gt;450</title>
<path fill="none" stroke="black" d="M208.433,-1817.82C204.84,-1809.5 200.974,-1800.54 197.117,-1791.61"/>
<polygon fill="black" stroke="black" points="200.29,-1790.13 193.112,-1782.34 193.864,-1792.91 200.29,-1790.13"/>
</g>
<!-- 452 -->
<g id="node6" class="node"><title>452</title>
<polygon fill="none" stroke="black" points="312,-1499 140,-1499 140,-1416 312,-1416 312,-1499"/>
<text text-anchor="middle" x="226" y="-1483.8" font-family="Times,serif" font-size="14.00">0x4000a1e6d9</text>
<text text-anchor="middle" x="226" y="-1468.8" font-family="Times,serif" font-size="14.00">_______________________</text>
<text text-anchor="middle" x="226" y="-1453.8" font-family="Times,serif" font-size="14.00">_______________________</text>
<text text-anchor="middle" x="226" y="-1438.8" font-family="Times,serif" font-size="14.00">testq $2, %r10</text>
<text text-anchor="middle" x="226" y="-1423.8" font-family="Times,serif" font-size="14.00">je 0x4000a1e6f7</text>
</g>
<!-- 449&#45;&gt;452 -->
<g id="edge5" class="edge"><title>449&#45;&gt;452</title>
<path fill="none" stroke="black" d="M250.557,-1817.73C256.084,-1806.53 261.154,-1794.13 264,-1782 289.082,-1675.13 289.082,-1641.87 264,-1535 261.91,-1526.09 258.621,-1517.04 254.831,-1508.42"/>
<polygon fill="black" stroke="black" points="257.961,-1506.85 250.557,-1499.27 251.619,-1509.81 257.961,-1506.85"/>
</g>
<!-- 451 -->
<g id="node7" class="node"><title>451</title>
<polygon fill="none" stroke="black" points="255,-1633 83,-1633 83,-1535 255,-1535 255,-1633"/>
<text text-anchor="middle" x="169" y="-1617.8" font-family="Times,serif" font-size="14.00">0x4000a1e6cd</text>
<text text-anchor="middle" x="169" y="-1602.8" font-family="Times,serif" font-size="14.00">_______________________</text>
<text text-anchor="middle" x="169" y="-1587.8" font-family="Times,serif" font-size="14.00">_______________________</text>
<text text-anchor="middle" x="169" y="-1572.8" font-family="Times,serif" font-size="14.00">addq $1, %rdi</text>
<text text-anchor="middle" x="169" y="-1557.8" font-family="Times,serif" font-size="14.00">subl %edx, %eax</text>
<text text-anchor="middle" x="169" y="-1542.8" font-family="Times,serif" font-size="14.00">jne 0x4000a1e768</text>
</g>
<!-- 450&#45;&gt;451 -->
<g id="edge6" class="edge"><title>450&#45;&gt;451</title>
<path fill="none" stroke="black" d="M169,-1668.97C169,-1660.54 169,-1651.82 169,-1643.34"/>
<polygon fill="black" stroke="black" points="172.5,-1643.14 169,-1633.14 165.5,-1643.14 172.5,-1643.14"/>
</g>
<!-- 453 -->
<g id="node8" class="node"><title>453</title>
<polygon fill="none" stroke="black" points="255.5,-1380 82.5,-1380 82.5,-1267 255.5,-1267 255.5,-1380"/>
<text text-anchor="middle" x="169" y="-1364.8" font-family="Times,serif" font-size="14.00">0x4000a1e6e2</text>
<text text-anchor="middle" x="169" y="-1349.8" font-family="Times,serif" font-size="14.00">_______________________</text>
<text text-anchor="middle" x="169" y="-1334.8" font-family="Times,serif" font-size="14.00">_______________________</text>
<text text-anchor="middle" x="169" y="-1319.8" font-family="Times,serif" font-size="14.00">movzwl (%rdi), %eax</text>
<text text-anchor="middle" x="169" y="-1304.8" font-family="Times,serif" font-size="14.00">movzwl (%rdi, %rsi), %edx</text>
<text text-anchor="middle" x="169" y="-1289.8" font-family="Times,serif" font-size="14.00">subq $2, %r10</text>
<text text-anchor="middle" x="169" y="-1274.8" font-family="Times,serif" font-size="14.00">je 0x4000a1e769</text>
</g>
<!-- 452&#45;&gt;453 -->
<g id="edge8" class="edge"><title>452&#45;&gt;453</title>
<path fill="none" stroke="black" d="M208.433,-1415.82C204.84,-1407.5 200.974,-1398.54 197.117,-1389.61"/>
<polygon fill="black" stroke="black" points="200.29,-1388.13 193.112,-1380.34 193.864,-1390.91 200.29,-1388.13"/>
</g>
<!-- 455 -->
<g id="node9" class="node"><title>455</title>
<polygon fill="none" stroke="black" points="313,-1097 141,-1097 141,-1014 313,-1014 313,-1097"/>
<text text-anchor="middle" x="227" y="-1081.8" font-family="Times,serif" font-size="14.00">0x4000a1e6f7</text>
<text text-anchor="middle" x="227" y="-1066.8" font-family="Times,serif" font-size="14.00">_______________________</text>
<text text-anchor="middle" x="227" y="-1051.8" font-family="Times,serif" font-size="14.00">_______________________</text>
<text text-anchor="middle" x="227" y="-1036.8" font-family="Times,serif" font-size="14.00">testq $4, %r10</text>
<text text-anchor="middle" x="227" y="-1021.8" font-family="Times,serif" font-size="14.00">je 0x4000a1e713</text>
</g>
<!-- 452&#45;&gt;455 -->
<g id="edge9" class="edge"><title>452&#45;&gt;455</title>
<path fill="none" stroke="black" d="M250.502,-1415.71C256.03,-1404.52 261.113,-1392.12 264,-1380 289.441,-1273.21 290.082,-1239.87 265,-1133 262.91,-1124.09 259.621,-1115.04 255.831,-1106.42"/>
<polygon fill="black" stroke="black" points="258.961,-1104.85 251.557,-1097.27 252.619,-1107.81 258.961,-1104.85"/>
</g>
<!-- 451&#45;&gt;452 -->
<g id="edge7" class="edge"><title>451&#45;&gt;452</title>
<path fill="none" stroke="black" d="M191.038,-1534.87C194.995,-1526.22 199.127,-1517.2 203.108,-1508.5"/>
<polygon fill="black" stroke="black" points="206.372,-1509.78 207.352,-1499.23 200.007,-1506.87 206.372,-1509.78"/>
</g>
<!-- 454 -->
<g id="node10" class="node"><title>454</title>
<polygon fill="none" stroke="black" points="256,-1231 84,-1231 84,-1133 256,-1133 256,-1231"/>
<text text-anchor="middle" x="170" y="-1215.8" font-family="Times,serif" font-size="14.00">0x4000a1e6ef</text>
<text text-anchor="middle" x="170" y="-1200.8" font-family="Times,serif" font-size="14.00">_______________________</text>
<text text-anchor="middle" x="170" y="-1185.8" font-family="Times,serif" font-size="14.00">_______________________</text>
<text text-anchor="middle" x="170" y="-1170.8" font-family="Times,serif" font-size="14.00">addq $2, %rdi</text>
<text text-anchor="middle" x="170" y="-1155.8" font-family="Times,serif" font-size="14.00">cmpl %edx, %eax</text>
<text text-anchor="middle" x="170" y="-1140.8" font-family="Times,serif" font-size="14.00">jne 0x4000a1e769</text>
</g>
<!-- 453&#45;&gt;454 -->
<g id="edge10" class="edge"><title>453&#45;&gt;454</title>
<path fill="none" stroke="black" d="M169.398,-1266.97C169.459,-1258.54 169.521,-1249.82 169.582,-1241.34"/>
<polygon fill="black" stroke="black" points="173.083,-1241.16 169.655,-1231.14 166.083,-1241.11 173.083,-1241.16"/>
</g>
<!-- 456 -->
<g id="node11" class="node"><title>456</title>
<polygon fill="none" stroke="black" points="313,-695 141,-695 141,-612 313,-612 313,-695"/>
<text text-anchor="middle" x="227" y="-679.8" font-family="Times,serif" font-size="14.00">0x4000a1e713</text>
<text text-anchor="middle" x="227" y="-664.8" font-family="Times,serif" font-size="14.00">_______________________</text>
<text text-anchor="middle" x="227" y="-649.8" font-family="Times,serif" font-size="14.00">_______________________</text>
<text text-anchor="middle" x="227" y="-634.8" font-family="Times,serif" font-size="14.00">testq $8, %r10</text>
<text text-anchor="middle" x="227" y="-619.8" font-family="Times,serif" font-size="14.00">je 0x4000a1e732</text>
</g>
<!-- 455&#45;&gt;456 -->
<g id="edge12" class="edge"><title>455&#45;&gt;456</title>
<path fill="none" stroke="black" d="M251.557,-1013.73C257.084,-1002.53 262.154,-990.127 265,-978 290.082,-871.126 290.082,-837.874 265,-731 262.91,-722.094 259.621,-713.038 255.831,-704.422"/>
<polygon fill="black" stroke="black" points="258.961,-702.851 251.557,-695.272 252.619,-705.814 258.961,-702.851"/>
</g>
<!-- 463 -->
<g id="node12" class="node"><title>463</title>
<polygon fill="none" stroke="black" points="256,-978 84,-978 84,-865 256,-865 256,-978"/>
<text text-anchor="middle" x="170" y="-962.8" font-family="Times,serif" font-size="14.00">0x4000a1e700</text>
<text text-anchor="middle" x="170" y="-947.8" font-family="Times,serif" font-size="14.00">_______________________</text>
<text text-anchor="middle" x="170" y="-932.8" font-family="Times,serif" font-size="14.00">_______________________</text>
<text text-anchor="middle" x="170" y="-917.8" font-family="Times,serif" font-size="14.00">movl (%rdi), %eax</text>
<text text-anchor="middle" x="170" y="-902.8" font-family="Times,serif" font-size="14.00">movl (%rdi, %rsi), %edx</text>
<text text-anchor="middle" x="170" y="-887.8" font-family="Times,serif" font-size="14.00">subq $4, %r10</text>
<text text-anchor="middle" x="170" y="-872.8" font-family="Times,serif" font-size="14.00">je 0x4000a1e769</text>
</g>
<!-- 455&#45;&gt;463 -->
<g id="edge13" class="edge"><title>455&#45;&gt;463</title>
<path fill="none" stroke="black" d="M209.433,-1013.82C205.84,-1005.5 201.974,-996.544 198.117,-987.612"/>
<polygon fill="black" stroke="black" points="201.29,-986.132 194.112,-978.339 194.864,-988.908 201.29,-986.132"/>
</g>
<!-- 454&#45;&gt;455 -->
<g id="edge11" class="edge"><title>454&#45;&gt;455</title>
<path fill="none" stroke="black" d="M192.038,-1132.87C195.995,-1124.22 200.127,-1115.2 204.108,-1106.5"/>
<polygon fill="black" stroke="black" points="207.372,-1107.78 208.352,-1097.23 201.007,-1104.87 207.372,-1107.78"/>
</g>
<!-- 457 -->
<g id="node13" class="node"><title>457</title>
<polygon fill="none" stroke="black" points="256,-553.5 84,-553.5 84,-440.5 256,-440.5 256,-553.5"/>
<text text-anchor="middle" x="170" y="-538.3" font-family="Times,serif" font-size="14.00">0x4000a1e71c</text>
<text text-anchor="middle" x="170" y="-523.3" font-family="Times,serif" font-size="14.00">_______________________</text>
<text text-anchor="middle" x="170" y="-508.3" font-family="Times,serif" font-size="14.00">_______________________</text>
<text text-anchor="middle" x="170" y="-493.3" font-family="Times,serif" font-size="14.00">movq (%rdi), %rax</text>
<text text-anchor="middle" x="170" y="-478.3" font-family="Times,serif" font-size="14.00">movq (%rdi, %rsi), %rdx</text>
<text text-anchor="middle" x="170" y="-463.3" font-family="Times,serif" font-size="14.00">subq $8, %r10</text>
<text text-anchor="middle" x="170" y="-448.3" font-family="Times,serif" font-size="14.00">je 0x4000a1e769</text>
</g>
<!-- 456&#45;&gt;457 -->
<g id="edge14" class="edge"><title>456&#45;&gt;457</title>
<path fill="none" stroke="black" d="M212.024,-611.907C206.537,-597.034 200.179,-579.801 194.096,-563.312"/>
<polygon fill="black" stroke="black" points="197.299,-561.884 190.554,-553.713 190.732,-564.307 197.299,-561.884"/>
</g>
<!-- 465 -->
<g id="node14" class="node"><title>465</title>
<polygon fill="none" stroke="black" points="464,-576 274,-576 274,-418 464,-418 464,-576"/>
<text text-anchor="middle" x="369" y="-560.8" font-family="Times,serif" font-size="14.00">0x4000a1e732</text>
<text text-anchor="middle" x="369" y="-545.8" font-family="Times,serif" font-size="14.00">_______________________</text>
<text text-anchor="middle" x="369" y="-530.8" font-family="Times,serif" font-size="14.00">_______________________</text>
<text text-anchor="middle" x="369" y="-515.8" font-family="Times,serif" font-size="14.00">movdqu (%rdi), %xmm1</text>
<text text-anchor="middle" x="369" y="-500.8" font-family="Times,serif" font-size="14.00">movdqu (%rdi, %rsi), %xmm0</text>
<text text-anchor="middle" x="369" y="-485.8" font-family="Times,serif" font-size="14.00">pcmpeqb %xmm0, %xmm1</text>
<text text-anchor="middle" x="369" y="-470.8" font-family="Times,serif" font-size="14.00">pmovmskb %xmm1, %edx</text>
<text text-anchor="middle" x="369" y="-455.8" font-family="Times,serif" font-size="14.00">xorl %eax, %eax</text>
<text text-anchor="middle" x="369" y="-440.8" font-family="Times,serif" font-size="14.00">subl $0xffff, %edx</text>
<text text-anchor="middle" x="369" y="-425.8" font-family="Times,serif" font-size="14.00">je 0x4000a1e790</text>
</g>
<!-- 456&#45;&gt;465 -->
<g id="edge15" class="edge"><title>456&#45;&gt;465</title>
<path fill="none" stroke="black" d="M264.309,-611.907C272.363,-603.144 281.17,-593.561 290.147,-583.794"/>
<polygon fill="black" stroke="black" points="292.845,-586.031 297.035,-576.3 287.691,-581.294 292.845,-586.031"/>
</g>
<!-- 458 -->
<g id="node15" class="node"><title>458</title>
<polygon fill="none" stroke="black" points="214,-359.5 42,-359.5 42,-276.5 214,-276.5 214,-359.5"/>
<text text-anchor="middle" x="128" y="-344.3" font-family="Times,serif" font-size="14.00">0x4000a1e769</text>
<text text-anchor="middle" x="128" y="-329.3" font-family="Times,serif" font-size="14.00">_______________________</text>
<text text-anchor="middle" x="128" y="-314.3" font-family="Times,serif" font-size="14.00">_______________________</text>
<text text-anchor="middle" x="128" y="-299.3" font-family="Times,serif" font-size="14.00">cmpq %rdx, %rax</text>
<text text-anchor="middle" x="128" y="-284.3" font-family="Times,serif" font-size="14.00">je 0x4000a1e790</text>
</g>
<!-- 463&#45;&gt;458 -->
<g id="edge19" class="edge"><title>463&#45;&gt;458</title>
<path fill="none" stroke="black" d="M98.3576,-864.748C88.857,-853.974 80.5111,-841.96 75,-829 3.51622,-660.901 30.5576,-595.178 75,-418 79.2822,-400.928 87.1357,-383.585 95.509,-368.285"/>
<polygon fill="black" stroke="black" points="98.5856,-369.955 100.476,-359.53 92.4972,-366.5 98.5856,-369.955"/>
</g>
<!-- 464 -->
<g id="node18" class="node"><title>464</title>
<polygon fill="none" stroke="black" points="256,-829 84,-829 84,-731 256,-731 256,-829"/>
<text text-anchor="middle" x="170" y="-813.8" font-family="Times,serif" font-size="14.00">0x4000a1e70b</text>
<text text-anchor="middle" x="170" y="-798.8" font-family="Times,serif" font-size="14.00">_______________________</text>
<text text-anchor="middle" x="170" y="-783.8" font-family="Times,serif" font-size="14.00">_______________________</text>
<text text-anchor="middle" x="170" y="-768.8" font-family="Times,serif" font-size="14.00">addq $4, %rdi</text>
<text text-anchor="middle" x="170" y="-753.8" font-family="Times,serif" font-size="14.00">cmpl %edx, %eax</text>
<text text-anchor="middle" x="170" y="-738.8" font-family="Times,serif" font-size="14.00">jne 0x4000a1e769</text>
</g>
<!-- 463&#45;&gt;464 -->
<g id="edge20" class="edge"><title>463&#45;&gt;464</title>
<path fill="none" stroke="black" d="M170,-864.965C170,-856.538 170,-847.823 170,-839.338"/>
<polygon fill="black" stroke="black" points="173.5,-839.139 170,-829.139 166.5,-839.139 173.5,-839.139"/>
</g>
<!-- 457&#45;&gt;458 -->
<g id="edge16" class="edge"><title>457&#45;&gt;458</title>
<path fill="none" stroke="black" d="M156.826,-440.482C151.444,-417.799 145.261,-391.743 140.005,-369.593"/>
<polygon fill="black" stroke="black" points="143.376,-368.638 137.662,-359.717 136.565,-370.255 143.376,-368.638"/>
</g>
<!-- 459 -->
<g id="node16" class="node"><title>459</title>
<polygon fill="none" stroke="black" points="362,-150.5 190,-150.5 190,-67.5 362,-67.5 362,-150.5"/>
<text text-anchor="middle" x="276" y="-135.3" font-family="Times,serif" font-size="14.00">0x4000a1e790</text>
<text text-anchor="middle" x="276" y="-120.3" font-family="Times,serif" font-size="14.00">_______________________</text>
<text text-anchor="middle" x="276" y="-105.3" font-family="Times,serif" font-size="14.00">_______________________</text>
<text text-anchor="middle" x="276" y="-90.3" font-family="Times,serif" font-size="14.00">xorl %eax, %eax</text>
<text text-anchor="middle" x="276" y="-75.3" font-family="Times,serif" font-size="14.00">retq </text>
</g>
<!-- 465&#45;&gt;459 -->
<g id="edge22" class="edge"><title>465&#45;&gt;459</title>
<path fill="none" stroke="black" d="M339.033,-417.71C335.018,-405.841 331.192,-393.665 328,-382 307.2,-305.979 291.716,-215.781 283.268,-160.737"/>
<polygon fill="black" stroke="black" points="286.683,-159.908 281.723,-150.546 279.762,-160.958 286.683,-159.908"/>
</g>
<!-- 556 -->
<g id="node19" class="node"><title>556</title>
<polygon fill="none" stroke="black" points="509,-382 337,-382 337,-254 509,-254 509,-382"/>
<text text-anchor="middle" x="423" y="-366.8" font-family="Times,serif" font-size="14.00">0x4000a1e74d</text>
<text text-anchor="middle" x="423" y="-351.8" font-family="Times,serif" font-size="14.00">_______________________</text>
<text text-anchor="middle" x="423" y="-336.8" font-family="Times,serif" font-size="14.00">_______________________</text>
<text text-anchor="middle" x="423" y="-321.8" font-family="Times,serif" font-size="14.00">bsfl %edx, %ecx</text>
<text text-anchor="middle" x="423" y="-306.8" font-family="Times,serif" font-size="14.00">leaq (%rdi, %rcx), %rcx</text>
<text text-anchor="middle" x="423" y="-291.8" font-family="Times,serif" font-size="14.00">movzbl (%rcx), %eax</text>
<text text-anchor="middle" x="423" y="-276.8" font-family="Times,serif" font-size="14.00">movzbl (%rsi, %rcx), %edx</text>
<text text-anchor="middle" x="423" y="-261.8" font-family="Times,serif" font-size="14.00">jmp 0x4000a1e766</text>
</g>
<!-- 465&#45;&gt;556 -->
<g id="edge23" class="edge"><title>465&#45;&gt;556</title>
<path fill="none" stroke="black" d="M392.842,-417.85C395.49,-409.17 398.18,-400.355 400.806,-391.746"/>
<polygon fill="black" stroke="black" points="404.169,-392.718 403.739,-382.132 397.474,-390.675 404.169,-392.718"/>
</g>
<!-- 458&#45;&gt;459 -->
<g id="edge17" class="edge"><title>458&#45;&gt;459</title>
<path fill="none" stroke="black" d="M157.24,-276.103C181.261,-242.507 215.36,-194.813 240.863,-159.145"/>
<polygon fill="black" stroke="black" points="243.852,-160.982 246.821,-150.812 238.157,-156.911 243.852,-160.982"/>
</g>
<!-- 534 -->
<g id="node17" class="node"><title>534</title>
<polygon fill="none" stroke="black" points="172,-218 0,-218 0,-0 172,-0 172,-218"/>
<text text-anchor="middle" x="86" y="-202.8" font-family="Times,serif" font-size="14.00">0x4000a1e76e</text>
<text text-anchor="middle" x="86" y="-187.8" font-family="Times,serif" font-size="14.00">_______________________</text>
<text text-anchor="middle" x="86" y="-172.8" font-family="Times,serif" font-size="14.00">_______________________</text>
<text text-anchor="middle" x="86" y="-157.8" font-family="Times,serif" font-size="14.00">movq %rax, %r11</text>
<text text-anchor="middle" x="86" y="-142.8" font-family="Times,serif" font-size="14.00">subq %rdx, %r11</text>
<text text-anchor="middle" x="86" y="-127.8" font-family="Times,serif" font-size="14.00">bsfq %r11, %rcx</text>
<text text-anchor="middle" x="86" y="-112.8" font-family="Times,serif" font-size="14.00">sarq $3, %rcx</text>
<text text-anchor="middle" x="86" y="-97.8" font-family="Times,serif" font-size="14.00">shlq $3, %rcx</text>
<text text-anchor="middle" x="86" y="-82.8" font-family="Times,serif" font-size="14.00">sarq %cl, %rax</text>
<text text-anchor="middle" x="86" y="-67.8" font-family="Times,serif" font-size="14.00">movzbl %al, %eax</text>
<text text-anchor="middle" x="86" y="-52.8" font-family="Times,serif" font-size="14.00">sarq %cl, %rdx</text>
<text text-anchor="middle" x="86" y="-37.8" font-family="Times,serif" font-size="14.00">movzbl %dl, %edx</text>
<text text-anchor="middle" x="86" y="-22.8" font-family="Times,serif" font-size="14.00">subl %edx, %eax</text>
<text text-anchor="middle" x="86" y="-7.8" font-family="Times,serif" font-size="14.00">retq </text>
</g>
<!-- 458&#45;&gt;534 -->
<g id="edge18" class="edge"><title>458&#45;&gt;534</title>
<path fill="none" stroke="black" d="M119.702,-276.103C116.844,-262.019 113.484,-245.457 110.011,-228.342"/>
<polygon fill="black" stroke="black" points="113.375,-227.319 107.957,-218.215 106.515,-228.711 113.375,-227.319"/>
</g>
<!-- 464&#45;&gt;456 -->
<g id="edge21" class="edge"><title>464&#45;&gt;456</title>
<path fill="none" stroke="black" d="M192.038,-730.865C195.995,-722.222 200.127,-713.196 204.108,-704.501"/>
<polygon fill="black" stroke="black" points="207.372,-705.78 208.352,-695.231 201.007,-702.866 207.372,-705.78"/>
</g>
<!-- 557 -->
<g id="node20" class="node"><title>557</title>
<polygon fill="none" stroke="black" points="552,-150.5 380,-150.5 380,-67.5 552,-67.5 552,-150.5"/>
<text text-anchor="middle" x="466" y="-135.3" font-family="Times,serif" font-size="14.00">0x4000a1e766</text>
<text text-anchor="middle" x="466" y="-120.3" font-family="Times,serif" font-size="14.00">_______________________</text>
<text text-anchor="middle" x="466" y="-105.3" font-family="Times,serif" font-size="14.00">_______________________</text>
<text text-anchor="middle" x="466" y="-90.3" font-family="Times,serif" font-size="14.00">subl %edx, %eax</text>
<text text-anchor="middle" x="466" y="-75.3" font-family="Times,serif" font-size="14.00">retq </text>
</g>
<!-- 556&#45;&gt;557 -->
<g id="edge24" class="edge"><title>556&#45;&gt;557</title>
<path fill="none" stroke="black" d="M436.135,-253.768C442.338,-223.907 449.642,-188.747 455.474,-160.672"/>
<polygon fill="black" stroke="black" points="458.944,-161.176 457.551,-150.673 452.09,-159.752 458.944,-161.176"/>
</g>
</g>
</svg>
