<?xml version="1.0" encoding="UTF-8" standalone="no"?>
<!DOCTYPE svg PUBLIC "-//W3C//DTD SVG 1.1//EN"
 "http://www.w3.org/Graphics/SVG/1.1/DTD/svg11.dtd">
<!-- Generated by graphviz version 2.38.0 (20140413.2041)
 -->
<!-- Title: %3 Pages: 1 -->
<svg width="180pt" height="1628pt"
 viewBox="0.00 0.00 180.00 1628.00" xmlns="http://www.w3.org/2000/svg" xmlns:xlink="http://www.w3.org/1999/xlink">
<g id="graph0" class="graph" transform="scale(1 1) rotate(0) translate(4 1624)">
<title>%3</title>
<polygon fill="white" stroke="none" points="-4,4 -4,-1624 176,-1624 176,4 -4,4"/>
<!-- 1608 -->
<g id="node1" class="node"><title>1608</title>
<polygon fill="none" stroke="black" points="172,-1620 0,-1620 0,-1387 172,-1387 172,-1620"/>
<text text-anchor="middle" x="86" y="-1604.8" font-family="Times,serif" font-size="14.00">0x4000cb5230</text>
<text text-anchor="middle" x="86" y="-1589.8" font-family="Times,serif" font-size="14.00">_______________________</text>
<text text-anchor="middle" x="86" y="-1574.8" font-family="Times,serif" font-size="14.00">_______________________</text>
<text text-anchor="middle" x="86" y="-1559.8" font-family="Times,serif" font-size="14.00">pushq %r15</text>
<text text-anchor="middle" x="86" y="-1544.8" font-family="Times,serif" font-size="14.00">pushq %r14</text>
<text text-anchor="middle" x="86" y="-1529.8" font-family="Times,serif" font-size="14.00">movq %rdx, %r15</text>
<text text-anchor="middle" x="86" y="-1514.8" font-family="Times,serif" font-size="14.00">pushq %r13</text>
<text text-anchor="middle" x="86" y="-1499.8" font-family="Times,serif" font-size="14.00">pushq %r12</text>
<text text-anchor="middle" x="86" y="-1484.8" font-family="Times,serif" font-size="14.00">movq %rsi, %r14</text>
<text text-anchor="middle" x="86" y="-1469.8" font-family="Times,serif" font-size="14.00">pushq %rbp</text>
<text text-anchor="middle" x="86" y="-1454.8" font-family="Times,serif" font-size="14.00">pushq %rbx</text>
<text text-anchor="middle" x="86" y="-1439.8" font-family="Times,serif" font-size="14.00">movq %rdi, %rbx</text>
<text text-anchor="middle" x="86" y="-1424.8" font-family="Times,serif" font-size="14.00">subq $8, %rsp</text>
<text text-anchor="middle" x="86" y="-1409.8" font-family="Times,serif" font-size="14.00">testl $0x1000, (%rdi)</text>
<text text-anchor="middle" x="86" y="-1394.8" font-family="Times,serif" font-size="14.00">je 0x4000cb52f0</text>
</g>
<!-- 1609 -->
<g id="node2" class="node"><title>1609</title>
<polygon fill="none" stroke="black" points="172,-1351 0,-1351 0,-1193 172,-1193 172,-1351"/>
<text text-anchor="middle" x="86" y="-1335.8" font-family="Times,serif" font-size="14.00">0x4000cb52f0</text>
<text text-anchor="middle" x="86" y="-1320.8" font-family="Times,serif" font-size="14.00">_______________________</text>
<text text-anchor="middle" x="86" y="-1305.8" font-family="Times,serif" font-size="14.00">_______________________</text>
<text text-anchor="middle" x="86" y="-1290.8" font-family="Times,serif" font-size="14.00">movq 0x10(%rdi), %rax</text>
<text text-anchor="middle" x="86" y="-1275.8" font-family="Times,serif" font-size="14.00">movq 0x20(%rdi), %rsi</text>
<text text-anchor="middle" x="86" y="-1260.8" font-family="Times,serif" font-size="14.00">leaq 0x326601(%rip), %r12</text>
<text text-anchor="middle" x="86" y="-1245.8" font-family="Times,serif" font-size="14.00">leaq 0x327362(%rip), %rbp</text>
<text text-anchor="middle" x="86" y="-1230.8" font-family="Times,serif" font-size="14.00">subq %r12, %rbp</text>
<text text-anchor="middle" x="86" y="-1215.8" font-family="Times,serif" font-size="14.00">cmpq %rsi, %rax</text>
<text text-anchor="middle" x="86" y="-1200.8" font-family="Times,serif" font-size="14.00">je 0x4000cb526f</text>
</g>
<!-- 1608&#45;&gt;1609 -->
<g id="edge1" class="edge"><title>1608&#45;&gt;1609</title>
<path fill="none" stroke="black" d="M86,-1386.74C86,-1378.19 86,-1369.64 86,-1361.29"/>
<polygon fill="black" stroke="black" points="89.5001,-1361.22 86,-1351.22 82.5001,-1361.22 89.5001,-1361.22"/>
</g>
<!-- 1610 -->
<g id="node3" class="node"><title>1610</title>
<polygon fill="none" stroke="black" points="172,-1157 0,-1157 0,-1029 172,-1029 172,-1157"/>
<text text-anchor="middle" x="86" y="-1141.8" font-family="Times,serif" font-size="14.00">0x4000cb526f</text>
<text text-anchor="middle" x="86" y="-1126.8" font-family="Times,serif" font-size="14.00">_______________________</text>
<text text-anchor="middle" x="86" y="-1111.8" font-family="Times,serif" font-size="14.00">_______________________</text>
<text text-anchor="middle" x="86" y="-1096.8" font-family="Times,serif" font-size="14.00">movq 0xd8(%rbx), %r13</text>
<text text-anchor="middle" x="86" y="-1081.8" font-family="Times,serif" font-size="14.00">movq %r13, %rax</text>
<text text-anchor="middle" x="86" y="-1066.8" font-family="Times,serif" font-size="14.00">subq %r12, %rax</text>
<text text-anchor="middle" x="86" y="-1051.8" font-family="Times,serif" font-size="14.00">cmpq %rbp, %rax</text>
<text text-anchor="middle" x="86" y="-1036.8" font-family="Times,serif" font-size="14.00">jae 0x4000cb5398</text>
</g>
<!-- 1609&#45;&gt;1610 -->
<g id="edge2" class="edge"><title>1609&#45;&gt;1610</title>
<path fill="none" stroke="black" d="M86,-1192.85C86,-1184.36 86,-1175.73 86,-1167.3"/>
<polygon fill="black" stroke="black" points="89.5001,-1167.13 86,-1157.13 82.5001,-1167.13 89.5001,-1167.13"/>
</g>
<!-- 1611 -->
<g id="node4" class="node"><title>1611</title>
<polygon fill="none" stroke="black" points="172,-993 0,-993 0,-850 172,-850 172,-993"/>
<text text-anchor="middle" x="86" y="-977.8" font-family="Times,serif" font-size="14.00">0x4000cb5285</text>
<text text-anchor="middle" x="86" y="-962.8" font-family="Times,serif" font-size="14.00">_______________________</text>
<text text-anchor="middle" x="86" y="-947.8" font-family="Times,serif" font-size="14.00">_______________________</text>
<text text-anchor="middle" x="86" y="-932.8" font-family="Times,serif" font-size="14.00">movq %rbx, %rdi</text>
<text text-anchor="middle" x="86" y="-917.8" font-family="Times,serif" font-size="14.00">movq %r15, %rdx</text>
<text text-anchor="middle" x="86" y="-902.8" font-family="Times,serif" font-size="14.00">movq %r14, %rsi</text>
<text text-anchor="middle" x="86" y="-887.8" font-family="Times,serif" font-size="14.00">callq *0x78(%r13)</text>
<text text-anchor="middle" x="86" y="-872.8" font-family="Times,serif" font-size="14.00">_______________________</text>
<text text-anchor="middle" x="86" y="-857.8" font-family="Times,serif" font-size="14.00">CALL _IO_file_write</text>
</g>
<!-- 1610&#45;&gt;1611 -->
<g id="edge3" class="edge"><title>1610&#45;&gt;1611</title>
<path fill="none" stroke="black" d="M86,-1028.88C86,-1020.5 86,-1011.8 86,-1003.17"/>
<polygon fill="black" stroke="black" points="89.5001,-1003.08 86,-993.079 82.5001,-1003.08 89.5001,-1003.08"/>
</g>
<!-- 1625 -->
<g id="node5" class="node"><title>1625</title>
<polygon fill="none" stroke="black" points="172,-814 0,-814 0,-701 172,-701 172,-814"/>
<text text-anchor="middle" x="86" y="-798.8" font-family="Times,serif" font-size="14.00">0x4000cb5292</text>
<text text-anchor="middle" x="86" y="-783.8" font-family="Times,serif" font-size="14.00">_______________________</text>
<text text-anchor="middle" x="86" y="-768.8" font-family="Times,serif" font-size="14.00">_______________________</text>
<text text-anchor="middle" x="86" y="-753.8" font-family="Times,serif" font-size="14.00">testq %rax, %rax</text>
<text text-anchor="middle" x="86" y="-738.8" font-family="Times,serif" font-size="14.00">movq %rax, %rbp</text>
<text text-anchor="middle" x="86" y="-723.8" font-family="Times,serif" font-size="14.00">movzwl 0x80(%rbx), %edi</text>
<text text-anchor="middle" x="86" y="-708.8" font-family="Times,serif" font-size="14.00">je 0x4000cb52aa</text>
</g>
<!-- 1611&#45;&gt;1625 -->
<g id="edge4" class="edge"><title>1611&#45;&gt;1625</title>
<path fill="none" stroke="black" d="M86,-849.916C86,-841.429 86,-832.788 86,-824.372"/>
<polygon fill="black" stroke="black" points="89.5001,-824.244 86,-814.244 82.5001,-824.244 89.5001,-824.244"/>
</g>
<!-- 1626 -->
<g id="node6" class="node"><title>1626</title>
<polygon fill="none" stroke="black" points="172,-665 0,-665 0,-582 172,-582 172,-665"/>
<text text-anchor="middle" x="86" y="-649.8" font-family="Times,serif" font-size="14.00">0x4000cb52a1</text>
<text text-anchor="middle" x="86" y="-634.8" font-family="Times,serif" font-size="14.00">_______________________</text>
<text text-anchor="middle" x="86" y="-619.8" font-family="Times,serif" font-size="14.00">_______________________</text>
<text text-anchor="middle" x="86" y="-604.8" font-family="Times,serif" font-size="14.00">testw %di, %di</text>
<text text-anchor="middle" x="86" y="-589.8" font-family="Times,serif" font-size="14.00">jne 0x4000cb5378</text>
</g>
<!-- 1625&#45;&gt;1626 -->
<g id="edge5" class="edge"><title>1625&#45;&gt;1626</title>
<path fill="none" stroke="black" d="M86,-700.903C86,-692.387 86,-683.635 86,-675.231"/>
<polygon fill="black" stroke="black" points="89.5001,-675.194 86,-665.194 82.5001,-675.194 89.5001,-675.194"/>
</g>
<!-- 1627 -->
<g id="node7" class="node"><title>1627</title>
<polygon fill="none" stroke="black" points="172,-546 0,-546 0,-358 172,-358 172,-546"/>
<text text-anchor="middle" x="86" y="-530.8" font-family="Times,serif" font-size="14.00">0x4000cb52aa</text>
<text text-anchor="middle" x="86" y="-515.8" font-family="Times,serif" font-size="14.00">_______________________</text>
<text text-anchor="middle" x="86" y="-500.8" font-family="Times,serif" font-size="14.00">_______________________</text>
<text text-anchor="middle" x="86" y="-485.8" font-family="Times,serif" font-size="14.00">movl 0xc0(%rbx), %edx</text>
<text text-anchor="middle" x="86" y="-470.8" font-family="Times,serif" font-size="14.00">movq 0x38(%rbx), %rax</text>
<text text-anchor="middle" x="86" y="-455.8" font-family="Times,serif" font-size="14.00">testl %edx, %edx</text>
<text text-anchor="middle" x="86" y="-440.8" font-family="Times,serif" font-size="14.00">movq %rax, 0x18(%rbx)</text>
<text text-anchor="middle" x="86" y="-425.8" font-family="Times,serif" font-size="14.00">movq %rax, 8(%rbx)</text>
<text text-anchor="middle" x="86" y="-410.8" font-family="Times,serif" font-size="14.00">movq %rax, 0x10(%rbx)</text>
<text text-anchor="middle" x="86" y="-395.8" font-family="Times,serif" font-size="14.00">movq %rax, 0x28(%rbx)</text>
<text text-anchor="middle" x="86" y="-380.8" font-family="Times,serif" font-size="14.00">movq %rax, 0x20(%rbx)</text>
<text text-anchor="middle" x="86" y="-365.8" font-family="Times,serif" font-size="14.00">jle 0x4000cb5360</text>
</g>
<!-- 1626&#45;&gt;1627 -->
<g id="edge6" class="edge"><title>1626&#45;&gt;1627</title>
<path fill="none" stroke="black" d="M86,-581.901C86,-573.931 86,-565.238 86,-556.254"/>
<polygon fill="black" stroke="black" points="89.5001,-556.009 86,-546.01 82.5001,-556.01 89.5001,-556.009"/>
</g>
<!-- 1628 -->
<g id="node8" class="node"><title>1628</title>
<polygon fill="none" stroke="black" points="172,-322 0,-322 0,-239 172,-239 172,-322"/>
<text text-anchor="middle" x="86" y="-306.8" font-family="Times,serif" font-size="14.00">0x4000cb5360</text>
<text text-anchor="middle" x="86" y="-291.8" font-family="Times,serif" font-size="14.00">_______________________</text>
<text text-anchor="middle" x="86" y="-276.8" font-family="Times,serif" font-size="14.00">_______________________</text>
<text text-anchor="middle" x="86" y="-261.8" font-family="Times,serif" font-size="14.00">testl $0x202, (%rbx)</text>
<text text-anchor="middle" x="86" y="-246.8" font-family="Times,serif" font-size="14.00">jne 0x4000cb52d4</text>
</g>
<!-- 1627&#45;&gt;1628 -->
<g id="edge7" class="edge"><title>1627&#45;&gt;1628</title>
<path fill="none" stroke="black" d="M86,-357.821C86,-349.058 86,-340.417 86,-332.277"/>
<polygon fill="black" stroke="black" points="89.5001,-332.263 86,-322.263 82.5001,-332.263 89.5001,-332.263"/>
</g>
<!-- 1629 -->
<g id="node9" class="node"><title>1629</title>
<polygon fill="none" stroke="black" points="172,-203 0,-203 0,-0 172,-0 172,-203"/>
<text text-anchor="middle" x="86" y="-187.8" font-family="Times,serif" font-size="14.00">0x4000cb52d4</text>
<text text-anchor="middle" x="86" y="-172.8" font-family="Times,serif" font-size="14.00">_______________________</text>
<text text-anchor="middle" x="86" y="-157.8" font-family="Times,serif" font-size="14.00">_______________________</text>
<text text-anchor="middle" x="86" y="-142.8" font-family="Times,serif" font-size="14.00">movq %rax, 0x30(%rbx)</text>
<text text-anchor="middle" x="86" y="-127.8" font-family="Times,serif" font-size="14.00">addq $8, %rsp</text>
<text text-anchor="middle" x="86" y="-112.8" font-family="Times,serif" font-size="14.00">movq %rbp, %rax</text>
<text text-anchor="middle" x="86" y="-97.8" font-family="Times,serif" font-size="14.00">popq %rbx</text>
<text text-anchor="middle" x="86" y="-82.8" font-family="Times,serif" font-size="14.00">popq %rbp</text>
<text text-anchor="middle" x="86" y="-67.8" font-family="Times,serif" font-size="14.00">popq %r12</text>
<text text-anchor="middle" x="86" y="-52.8" font-family="Times,serif" font-size="14.00">popq %r13</text>
<text text-anchor="middle" x="86" y="-37.8" font-family="Times,serif" font-size="14.00">popq %r14</text>
<text text-anchor="middle" x="86" y="-22.8" font-family="Times,serif" font-size="14.00">popq %r15</text>
<text text-anchor="middle" x="86" y="-7.8" font-family="Times,serif" font-size="14.00">retq </text>
</g>
<!-- 1628&#45;&gt;1629 -->
<g id="edge8" class="edge"><title>1628&#45;&gt;1629</title>
<path fill="none" stroke="black" d="M86,-238.893C86,-230.958 86,-222.288 86,-213.29"/>
<polygon fill="black" stroke="black" points="89.5001,-213.012 86,-203.012 82.5001,-213.012 89.5001,-213.012"/>
</g>
</g>
</svg>
