<?xml version="1.0" encoding="UTF-8" standalone="no"?>
<!DOCTYPE svg PUBLIC "-//W3C//DTD SVG 1.1//EN"
 "http://www.w3.org/Graphics/SVG/1.1/DTD/svg11.dtd">
<!-- Generated by graphviz version 2.38.0 (20140413.2041)
 -->
<!-- Title: %3 Pages: 1 -->
<svg width="245pt" height="2313pt"
 viewBox="0.00 0.00 245.00 2313.00" xmlns="http://www.w3.org/2000/svg" xmlns:xlink="http://www.w3.org/1999/xlink">
<g id="graph0" class="graph" transform="scale(1 1) rotate(0) translate(4 2309)">
<title>%3</title>
<polygon fill="white" stroke="none" points="-4,4 -4,-2309 241,-2309 241,4 -4,4"/>
<!-- 1745 -->
<g id="node1" class="node"><title>1745</title>
<polygon fill="none" stroke="black" points="232,-2305 60,-2305 60,-2057 232,-2057 232,-2305"/>
<text text-anchor="middle" x="146" y="-2289.8" font-family="Times,serif" font-size="14.00">0x4000cb8ba0</text>
<text text-anchor="middle" x="146" y="-2274.8" font-family="Times,serif" font-size="14.00">_______________________</text>
<text text-anchor="middle" x="146" y="-2259.8" font-family="Times,serif" font-size="14.00">_______________________</text>
<text text-anchor="middle" x="146" y="-2244.8" font-family="Times,serif" font-size="14.00">pushq %r15</text>
<text text-anchor="middle" x="146" y="-2229.8" font-family="Times,serif" font-size="14.00">pushq %r14</text>
<text text-anchor="middle" x="146" y="-2214.8" font-family="Times,serif" font-size="14.00">pushq %r13</text>
<text text-anchor="middle" x="146" y="-2199.8" font-family="Times,serif" font-size="14.00">pushq %r12</text>
<text text-anchor="middle" x="146" y="-2184.8" font-family="Times,serif" font-size="14.00">movl %edi, %r13d</text>
<text text-anchor="middle" x="146" y="-2169.8" font-family="Times,serif" font-size="14.00">pushq %rbp</text>
<text text-anchor="middle" x="146" y="-2154.8" font-family="Times,serif" font-size="14.00">pushq %rbx</text>
<text text-anchor="middle" x="146" y="-2139.8" font-family="Times,serif" font-size="14.00">subq $0x48, %rsp</text>
<text text-anchor="middle" x="146" y="-2124.8" font-family="Times,serif" font-size="14.00">movq %fs:0x28, %rax</text>
<text text-anchor="middle" x="146" y="-2109.8" font-family="Times,serif" font-size="14.00">movq %rax, 0x38(%rsp)</text>
<text text-anchor="middle" x="146" y="-2094.8" font-family="Times,serif" font-size="14.00">xorl %eax, %eax</text>
<text text-anchor="middle" x="146" y="-2079.8" font-family="Times,serif" font-size="14.00">testl %edi, %edi</text>
<text text-anchor="middle" x="146" y="-2064.8" font-family="Times,serif" font-size="14.00">je 0x4000cb8e40</text>
</g>
<!-- 1746 -->
<g id="node2" class="node"><title>1746</title>
<polygon fill="none" stroke="black" points="237,-2021 55,-2021 55,-1893 237,-1893 237,-2021"/>
<text text-anchor="middle" x="146" y="-2005.8" font-family="Times,serif" font-size="14.00">0x4000cb8e40</text>
<text text-anchor="middle" x="146" y="-1990.8" font-family="Times,serif" font-size="14.00">_______________________</text>
<text text-anchor="middle" x="146" y="-1975.8" font-family="Times,serif" font-size="14.00">_______________________</text>
<text text-anchor="middle" x="146" y="-1960.8" font-family="Times,serif" font-size="14.00">movq 0x3276b9(%rip), %rbx</text>
<text text-anchor="middle" x="146" y="-1945.8" font-family="Times,serif" font-size="14.00">movl 0x3288ea(%rip), %r15d</text>
<text text-anchor="middle" x="146" y="-1930.8" font-family="Times,serif" font-size="14.00">movl $0, 4(%rsp)</text>
<text text-anchor="middle" x="146" y="-1915.8" font-family="Times,serif" font-size="14.00">testq %rbx, %rbx</text>
<text text-anchor="middle" x="146" y="-1900.8" font-family="Times,serif" font-size="14.00">jne 0x4000cb8c6e</text>
</g>
<!-- 1745&#45;&gt;1746 -->
<g id="edge1" class="edge"><title>1745&#45;&gt;1746</title>
<path fill="none" stroke="black" d="M146,-2056.99C146,-2048.17 146,-2039.45 146,-2031.06"/>
<polygon fill="black" stroke="black" points="149.5,-2031.01 146,-2021.01 142.5,-2031.01 149.5,-2031.01"/>
</g>
<!-- 1747 -->
<g id="node3" class="node"><title>1747</title>
<polygon fill="none" stroke="black" points="232,-1857 60,-1857 60,-1714 232,-1714 232,-1857"/>
<text text-anchor="middle" x="146" y="-1841.8" font-family="Times,serif" font-size="14.00">0x4000cb8c6e</text>
<text text-anchor="middle" x="146" y="-1826.8" font-family="Times,serif" font-size="14.00">_______________________</text>
<text text-anchor="middle" x="146" y="-1811.8" font-family="Times,serif" font-size="14.00">_______________________</text>
<text text-anchor="middle" x="146" y="-1796.8" font-family="Times,serif" font-size="14.00">leaq 0x3239f3(%rip), %r12</text>
<text text-anchor="middle" x="146" y="-1781.8" font-family="Times,serif" font-size="14.00">leaq 0x322c84(%rip), %rax</text>
<text text-anchor="middle" x="146" y="-1766.8" font-family="Times,serif" font-size="14.00">xorl %ebp, %ebp</text>
<text text-anchor="middle" x="146" y="-1751.8" font-family="Times,serif" font-size="14.00">movq %fs:0x10, %r14</text>
<text text-anchor="middle" x="146" y="-1736.8" font-family="Times,serif" font-size="14.00">subq %rax, %r12</text>
<text text-anchor="middle" x="146" y="-1721.8" font-family="Times,serif" font-size="14.00">jmp 0x4000cb8ca3</text>
</g>
<!-- 1746&#45;&gt;1747 -->
<g id="edge2" class="edge"><title>1746&#45;&gt;1747</title>
<path fill="none" stroke="black" d="M146,-1892.88C146,-1884.5 146,-1875.8 146,-1867.17"/>
<polygon fill="black" stroke="black" points="149.5,-1867.08 146,-1857.08 142.5,-1867.08 149.5,-1867.08"/>
</g>
<!-- 1748 -->
<g id="node4" class="node"><title>1748</title>
<polygon fill="none" stroke="black" points="235.5,-1678 56.5,-1678 56.5,-1580 235.5,-1580 235.5,-1678"/>
<text text-anchor="middle" x="146" y="-1662.8" font-family="Times,serif" font-size="14.00">0x4000cb8ca3</text>
<text text-anchor="middle" x="146" y="-1647.8" font-family="Times,serif" font-size="14.00">_______________________</text>
<text text-anchor="middle" x="146" y="-1632.8" font-family="Times,serif" font-size="14.00">_______________________</text>
<text text-anchor="middle" x="146" y="-1617.8" font-family="Times,serif" font-size="14.00">testl %r13d, %r13d</text>
<text text-anchor="middle" x="146" y="-1602.8" font-family="Times,serif" font-size="14.00">movq %rbx, 0x328a83(%rip)</text>
<text text-anchor="middle" x="146" y="-1587.8" font-family="Times,serif" font-size="14.00">je 0x4000cb8d05</text>
</g>
<!-- 1747&#45;&gt;1748 -->
<g id="edge3" class="edge"><title>1747&#45;&gt;1748</title>
<path fill="none" stroke="black" d="M146,-1713.58C146,-1705.21 146,-1696.75 146,-1688.58"/>
<polygon fill="black" stroke="black" points="149.5,-1688.42 146,-1678.42 142.5,-1688.42 149.5,-1688.42"/>
</g>
<!-- 1749 -->
<g id="node5" class="node"><title>1749</title>
<polygon fill="none" stroke="black" points="175,-1544 3,-1544 3,-1416 175,-1416 175,-1544"/>
<text text-anchor="middle" x="89" y="-1528.8" font-family="Times,serif" font-size="14.00">0x4000cb8d05</text>
<text text-anchor="middle" x="89" y="-1513.8" font-family="Times,serif" font-size="14.00">_______________________</text>
<text text-anchor="middle" x="89" y="-1498.8" font-family="Times,serif" font-size="14.00">_______________________</text>
<text text-anchor="middle" x="89" y="-1483.8" font-family="Times,serif" font-size="14.00">movl 0xc0(%rbx), %edx</text>
<text text-anchor="middle" x="89" y="-1468.8" font-family="Times,serif" font-size="14.00">testl %edx, %edx</text>
<text text-anchor="middle" x="89" y="-1453.8" font-family="Times,serif" font-size="14.00">jle 0x4000cb8e68</text>
<text text-anchor="middle" x="89" y="-1438.8" font-family="Times,serif" font-size="14.00">_______________________</text>
<text text-anchor="middle" x="89" y="-1423.8" font-family="Times,serif" font-size="14.00">LOOP 0x4000cb8ca3</text>
</g>
<!-- 1748&#45;&gt;1749 -->
<g id="edge4" class="edge"><title>1748&#45;&gt;1749</title>
<path fill="none" stroke="black" d="M127.336,-1579.87C124.093,-1571.5 120.657,-1562.64 117.226,-1553.79"/>
<polygon fill="black" stroke="black" points="120.393,-1552.28 113.514,-1544.22 113.866,-1554.81 120.393,-1552.28"/>
</g>
<!-- 1750 -->
<g id="node6" class="node"><title>1750</title>
<polygon fill="none" stroke="black" points="175,-1380 3,-1380 3,-1252 175,-1252 175,-1380"/>
<text text-anchor="middle" x="89" y="-1364.8" font-family="Times,serif" font-size="14.00">0x4000cb8e68</text>
<text text-anchor="middle" x="89" y="-1349.8" font-family="Times,serif" font-size="14.00">_______________________</text>
<text text-anchor="middle" x="89" y="-1334.8" font-family="Times,serif" font-size="14.00">_______________________</text>
<text text-anchor="middle" x="89" y="-1319.8" font-family="Times,serif" font-size="14.00">movq 0x20(%rbx), %rax</text>
<text text-anchor="middle" x="89" y="-1304.8" font-family="Times,serif" font-size="14.00">cmpq %rax, 0x28(%rbx)</text>
<text text-anchor="middle" x="89" y="-1289.8" font-family="Times,serif" font-size="14.00">ja 0x4000cb8d24</text>
<text text-anchor="middle" x="89" y="-1274.8" font-family="Times,serif" font-size="14.00">_______________________</text>
<text text-anchor="middle" x="89" y="-1259.8" font-family="Times,serif" font-size="14.00">LOOP 0x4000cb8ca3</text>
</g>
<!-- 1749&#45;&gt;1750 -->
<g id="edge5" class="edge"><title>1749&#45;&gt;1750</title>
<path fill="none" stroke="black" d="M89,-1415.9C89,-1407.57 89,-1398.96 89,-1390.47"/>
<polygon fill="black" stroke="black" points="92.5001,-1390.19 89,-1380.19 85.5001,-1390.19 92.5001,-1390.19"/>
</g>
<!-- 1751 -->
<g id="node7" class="node"><title>1751</title>
<polygon fill="none" stroke="black" points="174,-1216 2,-1216 2,-1118 174,-1118 174,-1216"/>
<text text-anchor="middle" x="88" y="-1200.8" font-family="Times,serif" font-size="14.00">0x4000cb8e76</text>
<text text-anchor="middle" x="88" y="-1185.8" font-family="Times,serif" font-size="14.00">_______________________</text>
<text text-anchor="middle" x="88" y="-1170.8" font-family="Times,serif" font-size="14.00">_______________________</text>
<text text-anchor="middle" x="88" y="-1155.8" font-family="Times,serif" font-size="14.00">jmp 0x4000cb8d57</text>
<text text-anchor="middle" x="88" y="-1140.8" font-family="Times,serif" font-size="14.00">_______________________</text>
<text text-anchor="middle" x="88" y="-1125.8" font-family="Times,serif" font-size="14.00">LOOP 0x4000cb8ca3</text>
</g>
<!-- 1750&#45;&gt;1751 -->
<g id="edge6" class="edge"><title>1750&#45;&gt;1751</title>
<path fill="none" stroke="black" d="M88.5701,-1251.81C88.5121,-1243.29 88.4529,-1234.58 88.3956,-1226.15"/>
<polygon fill="black" stroke="black" points="91.8949,-1226.02 88.3268,-1216.04 84.895,-1226.07 91.8949,-1226.02"/>
</g>
<!-- 1752 -->
<g id="node8" class="node"><title>1752</title>
<polygon fill="none" stroke="black" points="174,-1082 2,-1082 2,-969 174,-969 174,-1082"/>
<text text-anchor="middle" x="88" y="-1066.8" font-family="Times,serif" font-size="14.00">0x4000cb8d57</text>
<text text-anchor="middle" x="88" y="-1051.8" font-family="Times,serif" font-size="14.00">_______________________</text>
<text text-anchor="middle" x="88" y="-1036.8" font-family="Times,serif" font-size="14.00">_______________________</text>
<text text-anchor="middle" x="88" y="-1021.8" font-family="Times,serif" font-size="14.00">testl %r13d, %r13d</text>
<text text-anchor="middle" x="88" y="-1006.8" font-family="Times,serif" font-size="14.00">je 0x4000cb8da8</text>
<text text-anchor="middle" x="88" y="-991.8" font-family="Times,serif" font-size="14.00">_______________________</text>
<text text-anchor="middle" x="88" y="-976.8" font-family="Times,serif" font-size="14.00">LOOP 0x4000cb8ca3</text>
</g>
<!-- 1751&#45;&gt;1752 -->
<g id="edge7" class="edge"><title>1751&#45;&gt;1752</title>
<path fill="none" stroke="black" d="M88,-1117.99C88,-1109.72 88,-1101 88,-1092.35"/>
<polygon fill="black" stroke="black" points="91.5001,-1092.28 88,-1082.28 84.5001,-1092.28 91.5001,-1092.28"/>
</g>
<!-- 1753 -->
<g id="node9" class="node"><title>1753</title>
<polygon fill="none" stroke="black" points="176,-933 1.42109e-14,-933 1.42109e-14,-790 176,-790 176,-933"/>
<text text-anchor="middle" x="88" y="-917.8" font-family="Times,serif" font-size="14.00">0x4000cb8da8</text>
<text text-anchor="middle" x="88" y="-902.8" font-family="Times,serif" font-size="14.00">_______________________</text>
<text text-anchor="middle" x="88" y="-887.8" font-family="Times,serif" font-size="14.00">_______________________</text>
<text text-anchor="middle" x="88" y="-872.8" font-family="Times,serif" font-size="14.00">movl 0x32898a(%rip), %eax</text>
<text text-anchor="middle" x="88" y="-857.8" font-family="Times,serif" font-size="14.00">movq $0, 0x328977(%rip)</text>
<text text-anchor="middle" x="88" y="-842.8" font-family="Times,serif" font-size="14.00">cmpl %r15d, %eax</text>
<text text-anchor="middle" x="88" y="-827.8" font-family="Times,serif" font-size="14.00">jne 0x4000cb8c90</text>
<text text-anchor="middle" x="88" y="-812.8" font-family="Times,serif" font-size="14.00">_______________________</text>
<text text-anchor="middle" x="88" y="-797.8" font-family="Times,serif" font-size="14.00">LOOP 0x4000cb8ca3</text>
</g>
<!-- 1752&#45;&gt;1753 -->
<g id="edge8" class="edge"><title>1752&#45;&gt;1753</title>
<path fill="none" stroke="black" d="M88,-968.749C88,-960.526 88,-951.917 88,-943.311"/>
<polygon fill="black" stroke="black" points="91.5001,-943.233 88,-933.233 84.5001,-943.233 91.5001,-943.233"/>
</g>
<!-- 1754 -->
<g id="node10" class="node"><title>1754</title>
<polygon fill="none" stroke="black" points="232,-754 60,-754 60,-611 232,-611 232,-754"/>
<text text-anchor="middle" x="146" y="-738.8" font-family="Times,serif" font-size="14.00">0x4000cb8dc2</text>
<text text-anchor="middle" x="146" y="-723.8" font-family="Times,serif" font-size="14.00">_______________________</text>
<text text-anchor="middle" x="146" y="-708.8" font-family="Times,serif" font-size="14.00">_______________________</text>
<text text-anchor="middle" x="146" y="-693.8" font-family="Times,serif" font-size="14.00">movq 0x68(%rbx), %rbx</text>
<text text-anchor="middle" x="146" y="-678.8" font-family="Times,serif" font-size="14.00">movl %eax, %r15d</text>
<text text-anchor="middle" x="146" y="-663.8" font-family="Times,serif" font-size="14.00">testq %rbx, %rbx</text>
<text text-anchor="middle" x="146" y="-648.8" font-family="Times,serif" font-size="14.00">jne 0x4000cb8ca3</text>
<text text-anchor="middle" x="146" y="-633.8" font-family="Times,serif" font-size="14.00">_______________________</text>
<text text-anchor="middle" x="146" y="-618.8" font-family="Times,serif" font-size="14.00">LOOP 0x4000cb8ca3</text>
</g>
<!-- 1753&#45;&gt;1754 -->
<g id="edge9" class="edge"><title>1753&#45;&gt;1754</title>
<path fill="none" stroke="black" d="M111.173,-789.782C113.97,-781.246 116.842,-772.481 119.68,-763.821"/>
<polygon fill="black" stroke="black" points="123.076,-764.699 122.864,-754.106 116.424,-762.519 123.076,-764.699"/>
</g>
<!-- 1754&#45;&gt;1748 -->
<g id="edge10" class="edge"><title>1754&#45;&gt;1748</title>
<path fill="none" stroke="black" d="M174.836,-754.031C178.807,-765.88 182.405,-778.172 185,-790 207.404,-892.135 204,-919.936 204,-1024.5 204,-1317 204,-1317 204,-1317 204,-1418.28 209.68,-1446.03 184,-1544 181.705,-1552.76 178.57,-1561.74 175.078,-1570.43"/>
<polygon fill="black" stroke="black" points="171.823,-1569.14 171.171,-1579.71 178.276,-1571.85 171.823,-1569.14"/>
</g>
<!-- 1755 -->
<g id="node11" class="node"><title>1755</title>
<polygon fill="none" stroke="black" points="232,-575 60,-575 60,-492 232,-492 232,-575"/>
<text text-anchor="middle" x="146" y="-559.8" font-family="Times,serif" font-size="14.00">0x4000cb8dd2</text>
<text text-anchor="middle" x="146" y="-544.8" font-family="Times,serif" font-size="14.00">_______________________</text>
<text text-anchor="middle" x="146" y="-529.8" font-family="Times,serif" font-size="14.00">_______________________</text>
<text text-anchor="middle" x="146" y="-514.8" font-family="Times,serif" font-size="14.00">testl %r13d, %r13d</text>
<text text-anchor="middle" x="146" y="-499.8" font-family="Times,serif" font-size="14.00">je 0x4000cb8dee</text>
</g>
<!-- 1754&#45;&gt;1755 -->
<g id="edge11" class="edge"><title>1754&#45;&gt;1755</title>
<path fill="none" stroke="black" d="M146,-610.584C146,-602.014 146,-593.398 146,-585.201"/>
<polygon fill="black" stroke="black" points="149.5,-585.079 146,-575.079 142.5,-585.079 149.5,-585.079"/>
</g>
<!-- 1756 -->
<g id="node12" class="node"><title>1756</title>
<polygon fill="none" stroke="black" points="232,-456 60,-456 60,-358 232,-358 232,-456"/>
<text text-anchor="middle" x="146" y="-440.8" font-family="Times,serif" font-size="14.00">0x4000cb8dee</text>
<text text-anchor="middle" x="146" y="-425.8" font-family="Times,serif" font-size="14.00">_______________________</text>
<text text-anchor="middle" x="146" y="-410.8" font-family="Times,serif" font-size="14.00">_______________________</text>
<text text-anchor="middle" x="146" y="-395.8" font-family="Times,serif" font-size="14.00">movl 4(%rsp), %eax</text>
<text text-anchor="middle" x="146" y="-380.8" font-family="Times,serif" font-size="14.00">testl %eax, %eax</text>
<text text-anchor="middle" x="146" y="-365.8" font-family="Times,serif" font-size="14.00">je 0x4000cb8e13</text>
</g>
<!-- 1755&#45;&gt;1756 -->
<g id="edge12" class="edge"><title>1755&#45;&gt;1756</title>
<path fill="none" stroke="black" d="M146,-491.734C146,-483.579 146,-474.862 146,-466.249"/>
<polygon fill="black" stroke="black" points="149.5,-466.224 146,-456.224 142.5,-466.224 149.5,-466.224"/>
</g>
<!-- 1757 -->
<g id="node13" class="node"><title>1757</title>
<polygon fill="none" stroke="black" points="232,-322 60,-322 60,-209 232,-209 232,-322"/>
<text text-anchor="middle" x="146" y="-306.8" font-family="Times,serif" font-size="14.00">0x4000cb8e13</text>
<text text-anchor="middle" x="146" y="-291.8" font-family="Times,serif" font-size="14.00">_______________________</text>
<text text-anchor="middle" x="146" y="-276.8" font-family="Times,serif" font-size="14.00">_______________________</text>
<text text-anchor="middle" x="146" y="-261.8" font-family="Times,serif" font-size="14.00">movq 0x38(%rsp), %rdi</text>
<text text-anchor="middle" x="146" y="-246.8" font-family="Times,serif" font-size="14.00">xorq %fs:0x28, %rdi</text>
<text text-anchor="middle" x="146" y="-231.8" font-family="Times,serif" font-size="14.00">movl %ebp, %eax</text>
<text text-anchor="middle" x="146" y="-216.8" font-family="Times,serif" font-size="14.00">jne 0x4000cb8f18</text>
</g>
<!-- 1756&#45;&gt;1757 -->
<g id="edge13" class="edge"><title>1756&#45;&gt;1757</title>
<path fill="none" stroke="black" d="M146,-357.992C146,-349.722 146,-340.998 146,-332.354"/>
<polygon fill="black" stroke="black" points="149.5,-332.276 146,-322.276 142.5,-332.276 149.5,-332.276"/>
</g>
<!-- 1758 -->
<g id="node14" class="node"><title>1758</title>
<polygon fill="none" stroke="black" points="232,-173 60,-173 60,-0 232,-0 232,-173"/>
<text text-anchor="middle" x="146" y="-157.8" font-family="Times,serif" font-size="14.00">0x4000cb8e29</text>
<text text-anchor="middle" x="146" y="-142.8" font-family="Times,serif" font-size="14.00">_______________________</text>
<text text-anchor="middle" x="146" y="-127.8" font-family="Times,serif" font-size="14.00">_______________________</text>
<text text-anchor="middle" x="146" y="-112.8" font-family="Times,serif" font-size="14.00">addq $0x48, %rsp</text>
<text text-anchor="middle" x="146" y="-97.8" font-family="Times,serif" font-size="14.00">popq %rbx</text>
<text text-anchor="middle" x="146" y="-82.8" font-family="Times,serif" font-size="14.00">popq %rbp</text>
<text text-anchor="middle" x="146" y="-67.8" font-family="Times,serif" font-size="14.00">popq %r12</text>
<text text-anchor="middle" x="146" y="-52.8" font-family="Times,serif" font-size="14.00">popq %r13</text>
<text text-anchor="middle" x="146" y="-37.8" font-family="Times,serif" font-size="14.00">popq %r14</text>
<text text-anchor="middle" x="146" y="-22.8" font-family="Times,serif" font-size="14.00">popq %r15</text>
<text text-anchor="middle" x="146" y="-7.8" font-family="Times,serif" font-size="14.00">retq </text>
</g>
<!-- 1757&#45;&gt;1758 -->
<g id="edge14" class="edge"><title>1757&#45;&gt;1758</title>
<path fill="none" stroke="black" d="M146,-208.982C146,-200.82 146,-192.222 146,-183.527"/>
<polygon fill="black" stroke="black" points="149.5,-183.294 146,-173.294 142.5,-183.294 149.5,-183.294"/>
</g>
</g>
</svg>
