<?xml version="1.0" encoding="UTF-8" standalone="no"?>
<!DOCTYPE svg PUBLIC "-//W3C//DTD SVG 1.1//EN"
 "http://www.w3.org/Graphics/SVG/1.1/DTD/svg11.dtd">
<!-- Generated by graphviz version 2.38.0 (20140413.2041)
 -->
<!-- Title: %3 Pages: 1 -->
<svg width="185pt" height="240pt"
 viewBox="0.00 0.00 185.00 240.00" xmlns="http://www.w3.org/2000/svg" xmlns:xlink="http://www.w3.org/1999/xlink">
<g id="graph0" class="graph" transform="scale(1 1) rotate(0) translate(4 236)">
<title>%3</title>
<polygon fill="white" stroke="none" points="-4,4 -4,-236 181,-236 181,4 -4,4"/>
<!-- 1263 -->
<g id="node1" class="node"><title>1263</title>
<polygon fill="none" stroke="black" points="177,-232 0,-232 0,-119 177,-119 177,-232"/>
<text text-anchor="middle" x="88.5" y="-216.8" font-family="Times,serif" font-size="14.00">0x40000004f0</text>
<text text-anchor="middle" x="88.5" y="-201.8" font-family="Times,serif" font-size="14.00">_______________________</text>
<text text-anchor="middle" x="88.5" y="-186.8" font-family="Times,serif" font-size="14.00">_______________________</text>
<text text-anchor="middle" x="88.5" y="-171.8" font-family="Times,serif" font-size="14.00">subq $8, %rsp</text>
<text text-anchor="middle" x="88.5" y="-156.8" font-family="Times,serif" font-size="14.00">movq 0x200aed(%rip), %rax</text>
<text text-anchor="middle" x="88.5" y="-141.8" font-family="Times,serif" font-size="14.00">testq %rax, %rax</text>
<text text-anchor="middle" x="88.5" y="-126.8" font-family="Times,serif" font-size="14.00">je 0x4000000502</text>
</g>
<!-- 1264 -->
<g id="node2" class="node"><title>1264</title>
<polygon fill="none" stroke="black" points="174.5,-83 2.5,-83 2.5,-0 174.5,-0 174.5,-83"/>
<text text-anchor="middle" x="88.5" y="-67.8" font-family="Times,serif" font-size="14.00">0x4000000502</text>
<text text-anchor="middle" x="88.5" y="-52.8" font-family="Times,serif" font-size="14.00">_______________________</text>
<text text-anchor="middle" x="88.5" y="-37.8" font-family="Times,serif" font-size="14.00">_______________________</text>
<text text-anchor="middle" x="88.5" y="-22.8" font-family="Times,serif" font-size="14.00">addq $8, %rsp</text>
<text text-anchor="middle" x="88.5" y="-7.8" font-family="Times,serif" font-size="14.00">retq </text>
</g>
<!-- 1263&#45;&gt;1264 -->
<g id="edge1" class="edge"><title>1263&#45;&gt;1264</title>
<path fill="none" stroke="black" d="M88.5,-118.903C88.5,-110.387 88.5,-101.635 88.5,-93.2314"/>
<polygon fill="black" stroke="black" points="92.0001,-93.1941 88.5,-83.1941 85.0001,-93.1941 92.0001,-93.1941"/>
</g>
</g>
</svg>
