<?xml version="1.0" encoding="UTF-8" standalone="no"?>
<!DOCTYPE svg PUBLIC "-//W3C//DTD SVG 1.1//EN"
 "http://www.w3.org/Graphics/SVG/1.1/DTD/svg11.dtd">
<!-- Generated by graphviz version 2.38.0 (20140413.2041)
 -->
<!-- Title: %3 Pages: 1 -->
<svg width="610pt" height="956pt"
 viewBox="0.00 0.00 609.65 956.00" xmlns="http://www.w3.org/2000/svg" xmlns:xlink="http://www.w3.org/1999/xlink">
<g id="graph0" class="graph" transform="scale(1 1) rotate(0) translate(4 952)">
<title>%3</title>
<polygon fill="white" stroke="none" points="-4,4 -4,-952 605.655,-952 605.655,4 -4,4"/>
<!-- 473 -->
<g id="node1" class="node"><title>473</title>
<polygon fill="none" stroke="black" points="552,-948 380,-948 380,-850 552,-850 552,-948"/>
<text text-anchor="middle" x="466" y="-932.8" font-family="Times,serif" font-size="14.00">0x4000a19000</text>
<text text-anchor="middle" x="466" y="-917.8" font-family="Times,serif" font-size="14.00">_______________________</text>
<text text-anchor="middle" x="466" y="-902.8" font-family="Times,serif" font-size="14.00">_______________________</text>
<text text-anchor="middle" x="466" y="-887.8" font-family="Times,serif" font-size="14.00">movsbl (%rdi), %edx</text>
<text text-anchor="middle" x="466" y="-872.8" font-family="Times,serif" font-size="14.00">testb %dl, %dl</text>
<text text-anchor="middle" x="466" y="-857.8" font-family="Times,serif" font-size="14.00">je 0x4000a190ba</text>
</g>
<!-- 474 -->
<g id="node2" class="node"><title>474</title>
<polygon fill="none" stroke="black" points="362,-814 190,-814 190,-716 362,-716 362,-814"/>
<text text-anchor="middle" x="276" y="-798.8" font-family="Times,serif" font-size="14.00">0x4000a1900b</text>
<text text-anchor="middle" x="276" y="-783.8" font-family="Times,serif" font-size="14.00">_______________________</text>
<text text-anchor="middle" x="276" y="-768.8" font-family="Times,serif" font-size="14.00">_______________________</text>
<text text-anchor="middle" x="276" y="-753.8" font-family="Times,serif" font-size="14.00">leal &#45;0x30(%rdx), %eax</text>
<text text-anchor="middle" x="276" y="-738.8" font-family="Times,serif" font-size="14.00">cmpb $9, %al</text>
<text text-anchor="middle" x="276" y="-723.8" font-family="Times,serif" font-size="14.00">ja 0x4000a19098</text>
</g>
<!-- 473&#45;&gt;474 -->
<g id="edge1" class="edge"><title>473&#45;&gt;474</title>
<path fill="none" stroke="black" d="M396.868,-849.972C382.854,-840.235 368.027,-829.934 353.739,-820.008"/>
<polygon fill="black" stroke="black" points="355.608,-817.045 345.399,-814.214 351.614,-822.794 355.608,-817.045"/>
</g>
<!-- 488 -->
<g id="node3" class="node"><title>488</title>
<polygon fill="none" stroke="black" points="552,-814 380,-814 380,-716 552,-716 552,-814"/>
<text text-anchor="middle" x="466" y="-798.8" font-family="Times,serif" font-size="14.00">0x4000a190ba</text>
<text text-anchor="middle" x="466" y="-783.8" font-family="Times,serif" font-size="14.00">_______________________</text>
<text text-anchor="middle" x="466" y="-768.8" font-family="Times,serif" font-size="14.00">_______________________</text>
<text text-anchor="middle" x="466" y="-753.8" font-family="Times,serif" font-size="14.00">movsbl (%rsi), %eax</text>
<text text-anchor="middle" x="466" y="-738.8" font-family="Times,serif" font-size="14.00">negl %eax</text>
<text text-anchor="middle" x="466" y="-723.8" font-family="Times,serif" font-size="14.00">retq </text>
</g>
<!-- 473&#45;&gt;488 -->
<g id="edge2" class="edge"><title>473&#45;&gt;488</title>
<path fill="none" stroke="black" d="M466,-849.972C466,-841.691 466,-833.003 466,-824.483"/>
<polygon fill="black" stroke="black" points="469.5,-824.214 466,-814.214 462.5,-824.214 469.5,-824.214"/>
</g>
<!-- 475 -->
<g id="node4" class="node"><title>475</title>
<polygon fill="none" stroke="black" points="476,-680 304,-680 304,-537 476,-537 476,-680"/>
<text text-anchor="middle" x="390" y="-664.8" font-family="Times,serif" font-size="14.00">0x4000a19098</text>
<text text-anchor="middle" x="390" y="-649.8" font-family="Times,serif" font-size="14.00">_______________________</text>
<text text-anchor="middle" x="390" y="-634.8" font-family="Times,serif" font-size="14.00">_______________________</text>
<text text-anchor="middle" x="390" y="-619.8" font-family="Times,serif" font-size="14.00">movsbl (%rsi), %eax</text>
<text text-anchor="middle" x="390" y="-604.8" font-family="Times,serif" font-size="14.00">leal &#45;0x30(%rax), %ecx</text>
<text text-anchor="middle" x="390" y="-589.8" font-family="Times,serif" font-size="14.00">cmpb $9, %cl</text>
<text text-anchor="middle" x="390" y="-574.8" font-family="Times,serif" font-size="14.00">jbe 0x4000a190c0</text>
<text text-anchor="middle" x="390" y="-559.8" font-family="Times,serif" font-size="14.00">_______________________</text>
<text text-anchor="middle" x="390" y="-544.8" font-family="Times,serif" font-size="14.00">LOOP 0x4000a1900b</text>
</g>
<!-- 474&#45;&gt;475 -->
<g id="edge3" class="edge"><title>474&#45;&gt;475</title>
<path fill="none" stroke="black" d="M311.445,-715.962C317.916,-707.193 324.822,-697.834 331.752,-688.442"/>
<polygon fill="black" stroke="black" points="334.717,-690.319 337.838,-680.194 329.084,-686.162 334.717,-690.319"/>
</g>
<!-- 484 -->
<g id="node5" class="node"><title>484</title>
<polygon fill="none" stroke="black" points="229,-665 57,-665 57,-552 229,-552 229,-665"/>
<text text-anchor="middle" x="143" y="-649.8" font-family="Times,serif" font-size="14.00">0x4000a19016</text>
<text text-anchor="middle" x="143" y="-634.8" font-family="Times,serif" font-size="14.00">_______________________</text>
<text text-anchor="middle" x="143" y="-619.8" font-family="Times,serif" font-size="14.00">_______________________</text>
<text text-anchor="middle" x="143" y="-604.8" font-family="Times,serif" font-size="14.00">movsbl (%rsi), %ecx</text>
<text text-anchor="middle" x="143" y="-589.8" font-family="Times,serif" font-size="14.00">leal &#45;0x30(%rcx), %eax</text>
<text text-anchor="middle" x="143" y="-574.8" font-family="Times,serif" font-size="14.00">cmpb $9, %al</text>
<text text-anchor="middle" x="143" y="-559.8" font-family="Times,serif" font-size="14.00">ja 0x4000a190cb</text>
</g>
<!-- 474&#45;&gt;484 -->
<g id="edge4" class="edge"><title>474&#45;&gt;484</title>
<path fill="none" stroke="black" d="M234.647,-715.962C222.937,-702.359 210.007,-687.339 197.643,-672.976"/>
<polygon fill="black" stroke="black" points="200.019,-670.372 190.843,-665.077 194.714,-674.939 200.019,-670.372"/>
</g>
<!-- 476 -->
<g id="node6" class="node"><title>476</title>
<polygon fill="none" stroke="black" points="476,-463.5 304,-463.5 304,-350.5 476,-350.5 476,-463.5"/>
<text text-anchor="middle" x="390" y="-448.3" font-family="Times,serif" font-size="14.00">0x4000a190a3</text>
<text text-anchor="middle" x="390" y="-433.3" font-family="Times,serif" font-size="14.00">_______________________</text>
<text text-anchor="middle" x="390" y="-418.3" font-family="Times,serif" font-size="14.00">_______________________</text>
<text text-anchor="middle" x="390" y="-403.3" font-family="Times,serif" font-size="14.00">cmpb %al, %dl</text>
<text text-anchor="middle" x="390" y="-388.3" font-family="Times,serif" font-size="14.00">jne 0x4000a190c6</text>
<text text-anchor="middle" x="390" y="-373.3" font-family="Times,serif" font-size="14.00">_______________________</text>
<text text-anchor="middle" x="390" y="-358.3" font-family="Times,serif" font-size="14.00">LOOP 0x4000a1900b</text>
</g>
<!-- 475&#45;&gt;476 -->
<g id="edge5" class="edge"><title>475&#45;&gt;476</title>
<path fill="none" stroke="black" d="M390,-536.883C390,-516.363 390,-494.039 390,-473.826"/>
<polygon fill="black" stroke="black" points="393.5,-473.78 390,-463.78 386.5,-473.78 393.5,-473.78"/>
</g>
<!-- 485 -->
<g id="node9" class="node"><title>485</title>
<polygon fill="none" stroke="black" points="191,-501 19,-501 19,-313 191,-313 191,-501"/>
<text text-anchor="middle" x="105" y="-485.8" font-family="Times,serif" font-size="14.00">0x4000a19024</text>
<text text-anchor="middle" x="105" y="-470.8" font-family="Times,serif" font-size="14.00">_______________________</text>
<text text-anchor="middle" x="105" y="-455.8" font-family="Times,serif" font-size="14.00">_______________________</text>
<text text-anchor="middle" x="105" y="-440.8" font-family="Times,serif" font-size="14.00">movsbl 1(%rdi), %eax</text>
<text text-anchor="middle" x="105" y="-425.8" font-family="Times,serif" font-size="14.00">leaq 1(%rdi), %r8</text>
<text text-anchor="middle" x="105" y="-410.8" font-family="Times,serif" font-size="14.00">subl $0x30, %edx</text>
<text text-anchor="middle" x="105" y="-395.8" font-family="Times,serif" font-size="14.00">subl $0x30, %ecx</text>
<text text-anchor="middle" x="105" y="-380.8" font-family="Times,serif" font-size="14.00">leaq 1(%rsi), %r9</text>
<text text-anchor="middle" x="105" y="-365.8" font-family="Times,serif" font-size="14.00">leal &#45;0x30(%rax), %edi</text>
<text text-anchor="middle" x="105" y="-350.8" font-family="Times,serif" font-size="14.00">cmpb $9, %dil</text>
<text text-anchor="middle" x="105" y="-335.8" font-family="Times,serif" font-size="14.00">movq %r8, %rdi</text>
<text text-anchor="middle" x="105" y="-320.8" font-family="Times,serif" font-size="14.00">ja 0x4000a19060</text>
</g>
<!-- 484&#45;&gt;485 -->
<g id="edge9" class="edge"><title>484&#45;&gt;485</title>
<path fill="none" stroke="black" d="M132.415,-551.928C129.994,-539.218 127.344,-525.308 124.677,-511.305"/>
<polygon fill="black" stroke="black" points="128.044,-510.277 122.735,-501.108 121.168,-511.587 128.044,-510.277"/>
</g>
<!-- 477 -->
<g id="node7" class="node"><title>477</title>
<polygon fill="none" stroke="black" points="362,-277 190,-277 190,-119 362,-119 362,-277"/>
<text text-anchor="middle" x="276" y="-261.8" font-family="Times,serif" font-size="14.00">0x4000a190a7</text>
<text text-anchor="middle" x="276" y="-246.8" font-family="Times,serif" font-size="14.00">_______________________</text>
<text text-anchor="middle" x="276" y="-231.8" font-family="Times,serif" font-size="14.00">_______________________</text>
<text text-anchor="middle" x="276" y="-216.8" font-family="Times,serif" font-size="14.00">addq $1, %rdi</text>
<text text-anchor="middle" x="276" y="-201.8" font-family="Times,serif" font-size="14.00">movsbl (%rdi), %edx</text>
<text text-anchor="middle" x="276" y="-186.8" font-family="Times,serif" font-size="14.00">addq $1, %rsi</text>
<text text-anchor="middle" x="276" y="-171.8" font-family="Times,serif" font-size="14.00">testb %dl, %dl</text>
<text text-anchor="middle" x="276" y="-156.8" font-family="Times,serif" font-size="14.00">jne 0x4000a1900b</text>
<text text-anchor="middle" x="276" y="-141.8" font-family="Times,serif" font-size="14.00">_______________________</text>
<text text-anchor="middle" x="276" y="-126.8" font-family="Times,serif" font-size="14.00">LOOP 0x4000a1900b</text>
</g>
<!-- 476&#45;&gt;477 -->
<g id="edge6" class="edge"><title>476&#45;&gt;477</title>
<path fill="none" stroke="black" d="M359.3,-350.255C348.403,-330.469 335.864,-307.701 323.877,-285.935"/>
<polygon fill="black" stroke="black" points="326.85,-284.078 318.96,-277.007 320.718,-287.455 326.85,-284.078"/>
</g>
<!-- 478 -->
<g id="node8" class="node"><title>478</title>
<polygon fill="none" stroke="black" points="552,-247 380,-247 380,-149 552,-149 552,-247"/>
<text text-anchor="middle" x="466" y="-231.8" font-family="Times,serif" font-size="14.00">0x4000a190c6</text>
<text text-anchor="middle" x="466" y="-216.8" font-family="Times,serif" font-size="14.00">_______________________</text>
<text text-anchor="middle" x="466" y="-201.8" font-family="Times,serif" font-size="14.00">_______________________</text>
<text text-anchor="middle" x="466" y="-186.8" font-family="Times,serif" font-size="14.00">subl %eax, %edx</text>
<text text-anchor="middle" x="466" y="-171.8" font-family="Times,serif" font-size="14.00">movl %edx, %eax</text>
<text text-anchor="middle" x="466" y="-156.8" font-family="Times,serif" font-size="14.00">retq </text>
</g>
<!-- 476&#45;&gt;478 -->
<g id="edge7" class="edge"><title>476&#45;&gt;478</title>
<path fill="none" stroke="black" d="M410.467,-350.255C421.092,-321.315 434.06,-285.995 444.791,-256.765"/>
<polygon fill="black" stroke="black" points="448.177,-257.698 448.338,-247.104 441.606,-255.285 448.177,-257.698"/>
</g>
<!-- 477&#45;&gt;474 -->
<g id="edge8" class="edge"><title>477&#45;&gt;474</title>
<path fill="none" stroke="black" d="M276,-277.283C276,-392.083 276,-603.52 276,-705.696"/>
<polygon fill="black" stroke="black" points="272.5,-705.828 276,-715.828 279.5,-705.828 272.5,-705.828"/>
</g>
<!-- 486 -->
<g id="node10" class="node"><title>486</title>
<polygon fill="none" stroke="black" points="172,-262 0,-262 0,-134 172,-134 172,-262"/>
<text text-anchor="middle" x="86" y="-246.8" font-family="Times,serif" font-size="14.00">0x4000a19060</text>
<text text-anchor="middle" x="86" y="-231.8" font-family="Times,serif" font-size="14.00">_______________________</text>
<text text-anchor="middle" x="86" y="-216.8" font-family="Times,serif" font-size="14.00">_______________________</text>
<text text-anchor="middle" x="86" y="-201.8" font-family="Times,serif" font-size="14.00">movsbl 1(%rsi), %eax</text>
<text text-anchor="middle" x="86" y="-186.8" font-family="Times,serif" font-size="14.00">leal &#45;0x30(%rax), %esi</text>
<text text-anchor="middle" x="86" y="-171.8" font-family="Times,serif" font-size="14.00">cmpb $9, %sil</text>
<text text-anchor="middle" x="86" y="-156.8" font-family="Times,serif" font-size="14.00">movq %r9, %rsi</text>
<text text-anchor="middle" x="86" y="-141.8" font-family="Times,serif" font-size="14.00">ja 0x4000a19088</text>
</g>
<!-- 485&#45;&gt;486 -->
<g id="edge10" class="edge"><title>485&#45;&gt;486</title>
<path fill="none" stroke="black" d="M96.4449,-312.794C95.2014,-299.246 93.936,-285.461 92.7352,-272.379"/>
<polygon fill="black" stroke="black" points="96.1872,-271.694 91.7877,-262.056 89.2165,-272.334 96.1872,-271.694"/>
</g>
<!-- 487 -->
<g id="node11" class="node"><title>487</title>
<polygon fill="none" stroke="black" points="419,-83 247,-83 247,-0 419,-0 419,-83"/>
<text text-anchor="middle" x="333" y="-67.8" font-family="Times,serif" font-size="14.00">0x4000a19088</text>
<text text-anchor="middle" x="333" y="-52.8" font-family="Times,serif" font-size="14.00">_______________________</text>
<text text-anchor="middle" x="333" y="-37.8" font-family="Times,serif" font-size="14.00">_______________________</text>
<text text-anchor="middle" x="333" y="-22.8" font-family="Times,serif" font-size="14.00">cmpl %edx, %ecx</text>
<text text-anchor="middle" x="333" y="-7.8" font-family="Times,serif" font-size="14.00">je 0x4000a19000</text>
</g>
<!-- 486&#45;&gt;487 -->
<g id="edge11" class="edge"><title>486&#45;&gt;487</title>
<path fill="none" stroke="black" d="M159.753,-133.862C166.788,-128.633 173.935,-123.597 181,-119 198.743,-107.455 218.461,-96.3799 237.659,-86.4158"/>
<polygon fill="black" stroke="black" points="239.427,-89.4426 246.731,-81.7679 236.235,-83.2127 239.427,-89.4426"/>
</g>
<!-- 487&#45;&gt;473 -->
<g id="edge12" class="edge"><title>487&#45;&gt;473</title>
<path fill="none" stroke="black" d="M419.113,-48.4186C468.692,-56.6605 527.613,-75.6771 561,-119 639.033,-220.255 580,-278.165 580,-406 580,-609.5 580,-609.5 580,-609.5 580,-700.78 602.316,-732.605 561,-814 555.836,-824.173 548.87,-833.67 541.043,-842.346"/>
<polygon fill="black" stroke="black" points="538.342,-840.108 533.967,-849.757 543.405,-844.942 538.342,-840.108"/>
</g>
</g>
</svg>
