<?xml version="1.0" encoding="UTF-8" standalone="no"?>
<!DOCTYPE svg PUBLIC "-//W3C//DTD SVG 1.1//EN"
 "http://www.w3.org/Graphics/SVG/1.1/DTD/svg11.dtd">
<!-- Generated by graphviz version 2.38.0 (20140413.2041)
 -->
<!-- Title: %3 Pages: 1 -->
<svg width="180pt" height="285pt"
 viewBox="0.00 0.00 180.00 285.00" xmlns="http://www.w3.org/2000/svg" xmlns:xlink="http://www.w3.org/1999/xlink">
<g id="graph0" class="graph" transform="scale(1 1) rotate(0) translate(4 281)">
<title>%3</title>
<polygon fill="white" stroke="none" points="-4,4 -4,-281 176,-281 176,4 -4,4"/>
<!-- 1451 -->
<g id="node1" class="node"><title>1451</title>
<polygon fill="none" stroke="black" points="172,-277 0,-277 0,-164 172,-164 172,-277"/>
<text text-anchor="middle" x="86" y="-261.8" font-family="Times,serif" font-size="14.00">0x4000cc07e0</text>
<text text-anchor="middle" x="86" y="-246.8" font-family="Times,serif" font-size="14.00">_______________________</text>
<text text-anchor="middle" x="86" y="-231.8" font-family="Times,serif" font-size="14.00">_______________________</text>
<text text-anchor="middle" x="86" y="-216.8" font-family="Times,serif" font-size="14.00">subq $8, %rsp</text>
<text text-anchor="middle" x="86" y="-201.8" font-family="Times,serif" font-size="14.00">callq 0x4000d26520</text>
<text text-anchor="middle" x="86" y="-186.8" font-family="Times,serif" font-size="14.00">_______________________</text>
<text text-anchor="middle" x="86" y="-171.8" font-family="Times,serif" font-size="14.00">CALL __sbrk</text>
</g>
<!-- 1467 -->
<g id="node2" class="node"><title>1467</title>
<polygon fill="none" stroke="black" points="172,-128 0,-128 0,-0 172,-0 172,-128"/>
<text text-anchor="middle" x="86" y="-112.8" font-family="Times,serif" font-size="14.00">0x4000cc07e9</text>
<text text-anchor="middle" x="86" y="-97.8" font-family="Times,serif" font-size="14.00">_______________________</text>
<text text-anchor="middle" x="86" y="-82.8" font-family="Times,serif" font-size="14.00">_______________________</text>
<text text-anchor="middle" x="86" y="-67.8" font-family="Times,serif" font-size="14.00">movl $0, %edx</text>
<text text-anchor="middle" x="86" y="-52.8" font-family="Times,serif" font-size="14.00">cmpq $0xff, %rax</text>
<text text-anchor="middle" x="86" y="-37.8" font-family="Times,serif" font-size="14.00">cmoveq %rdx, %rax</text>
<text text-anchor="middle" x="86" y="-22.8" font-family="Times,serif" font-size="14.00">addq $8, %rsp</text>
<text text-anchor="middle" x="86" y="-7.8" font-family="Times,serif" font-size="14.00">retq </text>
</g>
<!-- 1451&#45;&gt;1467 -->
<g id="edge1" class="edge"><title>1451&#45;&gt;1467</title>
<path fill="none" stroke="black" d="M86,-163.722C86,-155.397 86,-146.711 86,-138.094"/>
<polygon fill="black" stroke="black" points="89.5001,-138.036 86,-128.036 82.5001,-138.036 89.5001,-138.036"/>
</g>
</g>
</svg>
