<?xml version="1.0" encoding="UTF-8" standalone="no"?>
<!DOCTYPE svg PUBLIC "-//W3C//DTD SVG 1.1//EN"
 "http://www.w3.org/Graphics/SVG/1.1/DTD/svg11.dtd">
<!-- Generated by graphviz version 2.38.0 (20140413.2041)
 -->
<!-- Title: %3 Pages: 1 -->
<svg width="180pt" height="2164pt"
 viewBox="0.00 0.00 180.00 2164.00" xmlns="http://www.w3.org/2000/svg" xmlns:xlink="http://www.w3.org/1999/xlink">
<g id="graph0" class="graph" transform="scale(1 1) rotate(0) translate(4 2160)">
<title>%3</title>
<polygon fill="white" stroke="none" points="-4,4 -4,-2160 176,-2160 176,4 -4,4"/>
<!-- 1336 -->
<g id="node1" class="node"><title>1336</title>
<polygon fill="none" stroke="black" points="172,-2156 0,-2156 0,-1938 172,-1938 172,-2156"/>
<text text-anchor="middle" x="86" y="-2140.8" font-family="Times,serif" font-size="14.00">0x4000ca9b40</text>
<text text-anchor="middle" x="86" y="-2125.8" font-family="Times,serif" font-size="14.00">_______________________</text>
<text text-anchor="middle" x="86" y="-2110.8" font-family="Times,serif" font-size="14.00">_______________________</text>
<text text-anchor="middle" x="86" y="-2095.8" font-family="Times,serif" font-size="14.00">pushq %r12</text>
<text text-anchor="middle" x="86" y="-2080.8" font-family="Times,serif" font-size="14.00">pushq %rbp</text>
<text text-anchor="middle" x="86" y="-2065.8" font-family="Times,serif" font-size="14.00">movq %rdi, %rbp</text>
<text text-anchor="middle" x="86" y="-2050.8" font-family="Times,serif" font-size="14.00">pushq %rbx</text>
<text text-anchor="middle" x="86" y="-2035.8" font-family="Times,serif" font-size="14.00">subq $0xa0, %rsp</text>
<text text-anchor="middle" x="86" y="-2020.8" font-family="Times,serif" font-size="14.00">movq %fs:0x28, %rax</text>
<text text-anchor="middle" x="86" y="-2005.8" font-family="Times,serif" font-size="14.00">movq %rax, 0x98(%rsp)</text>
<text text-anchor="middle" x="86" y="-1990.8" font-family="Times,serif" font-size="14.00">xorl %eax, %eax</text>
<text text-anchor="middle" x="86" y="-1975.8" font-family="Times,serif" font-size="14.00">movl 0x70(%rdi), %eax</text>
<text text-anchor="middle" x="86" y="-1960.8" font-family="Times,serif" font-size="14.00">testl %eax, %eax</text>
<text text-anchor="middle" x="86" y="-1945.8" font-family="Times,serif" font-size="14.00">js 0x4000ca9c18</text>
</g>
<!-- 1337 -->
<g id="node2" class="node"><title>1337</title>
<polygon fill="none" stroke="black" points="172,-1902 0,-1902 0,-1729 172,-1729 172,-1902"/>
<text text-anchor="middle" x="86" y="-1886.8" font-family="Times,serif" font-size="14.00">0x4000ca9b6c</text>
<text text-anchor="middle" x="86" y="-1871.8" font-family="Times,serif" font-size="14.00">_______________________</text>
<text text-anchor="middle" x="86" y="-1856.8" font-family="Times,serif" font-size="14.00">_______________________</text>
<text text-anchor="middle" x="86" y="-1841.8" font-family="Times,serif" font-size="14.00">movq 0xd8(%rdi), %rbx</text>
<text text-anchor="middle" x="86" y="-1826.8" font-family="Times,serif" font-size="14.00">leaq 0x331d86(%rip), %rdx</text>
<text text-anchor="middle" x="86" y="-1811.8" font-family="Times,serif" font-size="14.00">leaq 0x332ae7(%rip), %rax</text>
<text text-anchor="middle" x="86" y="-1796.8" font-family="Times,serif" font-size="14.00">subq %rdx, %rax</text>
<text text-anchor="middle" x="86" y="-1781.8" font-family="Times,serif" font-size="14.00">movq %rbx, %rcx</text>
<text text-anchor="middle" x="86" y="-1766.8" font-family="Times,serif" font-size="14.00">subq %rdx, %rcx</text>
<text text-anchor="middle" x="86" y="-1751.8" font-family="Times,serif" font-size="14.00">cmpq %rcx, %rax</text>
<text text-anchor="middle" x="86" y="-1736.8" font-family="Times,serif" font-size="14.00">jbe 0x4000ca9c58</text>
</g>
<!-- 1336&#45;&gt;1337 -->
<g id="edge1" class="edge"><title>1336&#45;&gt;1337</title>
<path fill="none" stroke="black" d="M86,-1937.97C86,-1929.46 86,-1920.89 86,-1912.47"/>
<polygon fill="black" stroke="black" points="89.5001,-1912.28 86,-1902.28 82.5001,-1912.28 89.5001,-1912.28"/>
</g>
<!-- 1338 -->
<g id="node3" class="node"><title>1338</title>
<polygon fill="none" stroke="black" points="172,-1693 0,-1693 0,-1565 172,-1565 172,-1693"/>
<text text-anchor="middle" x="86" y="-1677.8" font-family="Times,serif" font-size="14.00">0x4000ca9b93</text>
<text text-anchor="middle" x="86" y="-1662.8" font-family="Times,serif" font-size="14.00">_______________________</text>
<text text-anchor="middle" x="86" y="-1647.8" font-family="Times,serif" font-size="14.00">_______________________</text>
<text text-anchor="middle" x="86" y="-1632.8" font-family="Times,serif" font-size="14.00">movq %rsp, %rsi</text>
<text text-anchor="middle" x="86" y="-1617.8" font-family="Times,serif" font-size="14.00">movq %rbp, %rdi</text>
<text text-anchor="middle" x="86" y="-1602.8" font-family="Times,serif" font-size="14.00">callq *0x90(%rbx)</text>
<text text-anchor="middle" x="86" y="-1587.8" font-family="Times,serif" font-size="14.00">_______________________</text>
<text text-anchor="middle" x="86" y="-1572.8" font-family="Times,serif" font-size="14.00">CALL _IO_file_stat</text>
</g>
<!-- 1337&#45;&gt;1338 -->
<g id="edge2" class="edge"><title>1337&#45;&gt;1338</title>
<path fill="none" stroke="black" d="M86,-1728.73C86,-1720.24 86,-1711.66 86,-1703.31"/>
<polygon fill="black" stroke="black" points="89.5001,-1703.25 86,-1693.25 82.5001,-1703.25 89.5001,-1703.25"/>
</g>
<!-- 1344 -->
<g id="node4" class="node"><title>1344</title>
<polygon fill="none" stroke="black" points="172,-1529 0,-1529 0,-1446 172,-1446 172,-1529"/>
<text text-anchor="middle" x="86" y="-1513.8" font-family="Times,serif" font-size="14.00">0x4000ca9b9f</text>
<text text-anchor="middle" x="86" y="-1498.8" font-family="Times,serif" font-size="14.00">_______________________</text>
<text text-anchor="middle" x="86" y="-1483.8" font-family="Times,serif" font-size="14.00">_______________________</text>
<text text-anchor="middle" x="86" y="-1468.8" font-family="Times,serif" font-size="14.00">testl %eax, %eax</text>
<text text-anchor="middle" x="86" y="-1453.8" font-family="Times,serif" font-size="14.00">js 0x4000ca9c18</text>
</g>
<!-- 1338&#45;&gt;1344 -->
<g id="edge3" class="edge"><title>1338&#45;&gt;1344</title>
<path fill="none" stroke="black" d="M86,-1564.78C86,-1556.26 86,-1547.62 86,-1539.35"/>
<polygon fill="black" stroke="black" points="89.5001,-1539.13 86,-1529.13 82.5001,-1539.13 89.5001,-1539.13"/>
</g>
<!-- 1345 -->
<g id="node5" class="node"><title>1345</title>
<polygon fill="none" stroke="black" points="172,-1410 0,-1410 0,-1297 172,-1297 172,-1410"/>
<text text-anchor="middle" x="86" y="-1394.8" font-family="Times,serif" font-size="14.00">0x4000ca9ba3</text>
<text text-anchor="middle" x="86" y="-1379.8" font-family="Times,serif" font-size="14.00">_______________________</text>
<text text-anchor="middle" x="86" y="-1364.8" font-family="Times,serif" font-size="14.00">_______________________</text>
<text text-anchor="middle" x="86" y="-1349.8" font-family="Times,serif" font-size="14.00">movl 0x18(%rsp), %eax</text>
<text text-anchor="middle" x="86" y="-1334.8" font-family="Times,serif" font-size="14.00">andl $0xf000, %eax</text>
<text text-anchor="middle" x="86" y="-1319.8" font-family="Times,serif" font-size="14.00">cmpl $0x2000, %eax</text>
<text text-anchor="middle" x="86" y="-1304.8" font-family="Times,serif" font-size="14.00">je 0x4000ca9c20</text>
</g>
<!-- 1344&#45;&gt;1345 -->
<g id="edge4" class="edge"><title>1344&#45;&gt;1345</title>
<path fill="none" stroke="black" d="M86,-1445.82C86,-1437.76 86,-1429.11 86,-1420.46"/>
<polygon fill="black" stroke="black" points="89.5001,-1420.34 86,-1410.34 82.5001,-1420.34 89.5001,-1420.34"/>
</g>
<!-- 1346 -->
<g id="node6" class="node"><title>1346</title>
<polygon fill="none" stroke="black" points="172,-1261 0,-1261 0,-1058 172,-1058 172,-1261"/>
<text text-anchor="middle" x="86" y="-1245.8" font-family="Times,serif" font-size="14.00">0x4000ca9c20</text>
<text text-anchor="middle" x="86" y="-1230.8" font-family="Times,serif" font-size="14.00">_______________________</text>
<text text-anchor="middle" x="86" y="-1215.8" font-family="Times,serif" font-size="14.00">_______________________</text>
<text text-anchor="middle" x="86" y="-1200.8" font-family="Times,serif" font-size="14.00">movq 0x28(%rsp), %rax</text>
<text text-anchor="middle" x="86" y="-1185.8" font-family="Times,serif" font-size="14.00">movq %rax, %rdx</text>
<text text-anchor="middle" x="86" y="-1170.8" font-family="Times,serif" font-size="14.00">shrq $0x20, %rax</text>
<text text-anchor="middle" x="86" y="-1155.8" font-family="Times,serif" font-size="14.00">shrq $8, %rdx</text>
<text text-anchor="middle" x="86" y="-1140.8" font-family="Times,serif" font-size="14.00">andl $0xfffff000, %eax</text>
<text text-anchor="middle" x="86" y="-1125.8" font-family="Times,serif" font-size="14.00">andl $0xfff, %edx</text>
<text text-anchor="middle" x="86" y="-1110.8" font-family="Times,serif" font-size="14.00">orl %edx, %eax</text>
<text text-anchor="middle" x="86" y="-1095.8" font-family="Times,serif" font-size="14.00">subl $0x88, %eax</text>
<text text-anchor="middle" x="86" y="-1080.8" font-family="Times,serif" font-size="14.00">cmpl $7, %eax</text>
<text text-anchor="middle" x="86" y="-1065.8" font-family="Times,serif" font-size="14.00">ja 0x4000ca9c68</text>
</g>
<!-- 1345&#45;&gt;1346 -->
<g id="edge5" class="edge"><title>1345&#45;&gt;1346</title>
<path fill="none" stroke="black" d="M86,-1296.97C86,-1288.76 86,-1280.07 86,-1271.21"/>
<polygon fill="black" stroke="black" points="89.5001,-1271.14 86,-1261.14 82.5001,-1271.14 89.5001,-1271.14"/>
</g>
<!-- 1347 -->
<g id="node7" class="node"><title>1347</title>
<polygon fill="none" stroke="black" points="172,-1022 0,-1022 0,-939 172,-939 172,-1022"/>
<text text-anchor="middle" x="86" y="-1006.8" font-family="Times,serif" font-size="14.00">0x4000ca9c47</text>
<text text-anchor="middle" x="86" y="-991.8" font-family="Times,serif" font-size="14.00">_______________________</text>
<text text-anchor="middle" x="86" y="-976.8" font-family="Times,serif" font-size="14.00">_______________________</text>
<text text-anchor="middle" x="86" y="-961.8" font-family="Times,serif" font-size="14.00">orl $0x200, (%rbp)</text>
<text text-anchor="middle" x="86" y="-946.8" font-family="Times,serif" font-size="14.00">jmp 0x4000ca9bb3</text>
</g>
<!-- 1346&#45;&gt;1347 -->
<g id="edge6" class="edge"><title>1346&#45;&gt;1347</title>
<path fill="none" stroke="black" d="M86,-1057.85C86,-1048.98 86,-1040.28 86,-1032.11"/>
<polygon fill="black" stroke="black" points="89.5001,-1032.08 86,-1022.08 82.5001,-1032.08 89.5001,-1032.08"/>
</g>
<!-- 1348 -->
<g id="node8" class="node"><title>1348</title>
<polygon fill="none" stroke="black" points="172,-903 0,-903 0,-790 172,-790 172,-903"/>
<text text-anchor="middle" x="86" y="-887.8" font-family="Times,serif" font-size="14.00">0x4000ca9bb3</text>
<text text-anchor="middle" x="86" y="-872.8" font-family="Times,serif" font-size="14.00">_______________________</text>
<text text-anchor="middle" x="86" y="-857.8" font-family="Times,serif" font-size="14.00">_______________________</text>
<text text-anchor="middle" x="86" y="-842.8" font-family="Times,serif" font-size="14.00">movq 0x38(%rsp), %rbx</text>
<text text-anchor="middle" x="86" y="-827.8" font-family="Times,serif" font-size="14.00">leaq &#45;1(%rbx), %rax</text>
<text text-anchor="middle" x="86" y="-812.8" font-family="Times,serif" font-size="14.00">cmpq $0x1ffe, %rax</text>
<text text-anchor="middle" x="86" y="-797.8" font-family="Times,serif" font-size="14.00">ja 0x4000ca9c18</text>
</g>
<!-- 1347&#45;&gt;1348 -->
<g id="edge7" class="edge"><title>1347&#45;&gt;1348</title>
<path fill="none" stroke="black" d="M86,-938.819C86,-930.761 86,-922.109 86,-913.458"/>
<polygon fill="black" stroke="black" points="89.5001,-913.339 86,-903.339 82.5001,-913.339 89.5001,-913.339"/>
</g>
<!-- 1349 -->
<g id="node9" class="node"><title>1349</title>
<polygon fill="none" stroke="black" points="172,-754 0,-754 0,-641 172,-641 172,-754"/>
<text text-anchor="middle" x="86" y="-738.8" font-family="Times,serif" font-size="14.00">0x4000ca9bc4</text>
<text text-anchor="middle" x="86" y="-723.8" font-family="Times,serif" font-size="14.00">_______________________</text>
<text text-anchor="middle" x="86" y="-708.8" font-family="Times,serif" font-size="14.00">_______________________</text>
<text text-anchor="middle" x="86" y="-693.8" font-family="Times,serif" font-size="14.00">movq %rbx, %rdi</text>
<text text-anchor="middle" x="86" y="-678.8" font-family="Times,serif" font-size="14.00">callq 0x4000c61b80</text>
<text text-anchor="middle" x="86" y="-663.8" font-family="Times,serif" font-size="14.00">_______________________</text>
<text text-anchor="middle" x="86" y="-648.8" font-family="Times,serif" font-size="14.00">CALL 0x4000c61b80</text>
</g>
<!-- 1348&#45;&gt;1349 -->
<g id="edge8" class="edge"><title>1348&#45;&gt;1349</title>
<path fill="none" stroke="black" d="M86,-789.926C86,-781.511 86,-772.762 86,-764.158"/>
<polygon fill="black" stroke="black" points="89.5001,-764.153 86,-754.153 82.5001,-764.153 89.5001,-764.153"/>
</g>
<!-- 1503 -->
<g id="node10" class="node"><title>1503</title>
<polygon fill="none" stroke="black" points="172,-605 0,-605 0,-492 172,-492 172,-605"/>
<text text-anchor="middle" x="86" y="-589.8" font-family="Times,serif" font-size="14.00">0x4000ca9bcc</text>
<text text-anchor="middle" x="86" y="-574.8" font-family="Times,serif" font-size="14.00">_______________________</text>
<text text-anchor="middle" x="86" y="-559.8" font-family="Times,serif" font-size="14.00">_______________________</text>
<text text-anchor="middle" x="86" y="-544.8" font-family="Times,serif" font-size="14.00">movq %rax, %rsi</text>
<text text-anchor="middle" x="86" y="-529.8" font-family="Times,serif" font-size="14.00">movl $0xffffffff, %eax</text>
<text text-anchor="middle" x="86" y="-514.8" font-family="Times,serif" font-size="14.00">testq %rsi, %rsi</text>
<text text-anchor="middle" x="86" y="-499.8" font-family="Times,serif" font-size="14.00">je 0x4000ca9bef</text>
</g>
<!-- 1349&#45;&gt;1503 -->
<g id="edge9" class="edge"><title>1349&#45;&gt;1503</title>
<path fill="none" stroke="black" d="M86,-640.926C86,-632.511 86,-623.762 86,-615.158"/>
<polygon fill="black" stroke="black" points="89.5001,-615.153 86,-605.153 82.5001,-615.153 89.5001,-615.153"/>
</g>
<!-- 1504 -->
<g id="node11" class="node"><title>1504</title>
<polygon fill="none" stroke="black" points="172,-456 0,-456 0,-313 172,-313 172,-456"/>
<text text-anchor="middle" x="86" y="-440.8" font-family="Times,serif" font-size="14.00">0x4000ca9bd9</text>
<text text-anchor="middle" x="86" y="-425.8" font-family="Times,serif" font-size="14.00">_______________________</text>
<text text-anchor="middle" x="86" y="-410.8" font-family="Times,serif" font-size="14.00">_______________________</text>
<text text-anchor="middle" x="86" y="-395.8" font-family="Times,serif" font-size="14.00">leaq (%rsi, %rbx), %rdx</text>
<text text-anchor="middle" x="86" y="-380.8" font-family="Times,serif" font-size="14.00">movl $1, %ecx</text>
<text text-anchor="middle" x="86" y="-365.8" font-family="Times,serif" font-size="14.00">movq %rbp, %rdi</text>
<text text-anchor="middle" x="86" y="-350.8" font-family="Times,serif" font-size="14.00">callq 0x4000cb8240</text>
<text text-anchor="middle" x="86" y="-335.8" font-family="Times,serif" font-size="14.00">_______________________</text>
<text text-anchor="middle" x="86" y="-320.8" font-family="Times,serif" font-size="14.00">CALL _IO_setb</text>
</g>
<!-- 1503&#45;&gt;1504 -->
<g id="edge10" class="edge"><title>1503&#45;&gt;1504</title>
<path fill="none" stroke="black" d="M86,-491.749C86,-483.526 86,-474.917 86,-466.311"/>
<polygon fill="black" stroke="black" points="89.5001,-466.233 86,-456.233 82.5001,-466.233 89.5001,-466.233"/>
</g>
<!-- 1507 -->
<g id="node12" class="node"><title>1507</title>
<polygon fill="none" stroke="black" points="172,-277 0,-277 0,-164 172,-164 172,-277"/>
<text text-anchor="middle" x="86" y="-261.8" font-family="Times,serif" font-size="14.00">0x4000ca9bea</text>
<text text-anchor="middle" x="86" y="-246.8" font-family="Times,serif" font-size="14.00">_______________________</text>
<text text-anchor="middle" x="86" y="-231.8" font-family="Times,serif" font-size="14.00">_______________________</text>
<text text-anchor="middle" x="86" y="-216.8" font-family="Times,serif" font-size="14.00">movl $1, %eax</text>
<text text-anchor="middle" x="86" y="-201.8" font-family="Times,serif" font-size="14.00">movq 0x98(%rsp), %rcx</text>
<text text-anchor="middle" x="86" y="-186.8" font-family="Times,serif" font-size="14.00">xorq %fs:0x28, %rcx</text>
<text text-anchor="middle" x="86" y="-171.8" font-family="Times,serif" font-size="14.00">jne 0x4000ca9c88</text>
</g>
<!-- 1504&#45;&gt;1507 -->
<g id="edge11" class="edge"><title>1504&#45;&gt;1507</title>
<path fill="none" stroke="black" d="M86,-312.916C86,-304.429 86,-295.788 86,-287.372"/>
<polygon fill="black" stroke="black" points="89.5001,-287.244 86,-277.244 82.5001,-287.244 89.5001,-287.244"/>
</g>
<!-- 1508 -->
<g id="node13" class="node"><title>1508</title>
<polygon fill="none" stroke="black" points="172,-128 0,-128 0,-0 172,-0 172,-128"/>
<text text-anchor="middle" x="86" y="-112.8" font-family="Times,serif" font-size="14.00">0x4000ca9c06</text>
<text text-anchor="middle" x="86" y="-97.8" font-family="Times,serif" font-size="14.00">_______________________</text>
<text text-anchor="middle" x="86" y="-82.8" font-family="Times,serif" font-size="14.00">_______________________</text>
<text text-anchor="middle" x="86" y="-67.8" font-family="Times,serif" font-size="14.00">addq $0xa0, %rsp</text>
<text text-anchor="middle" x="86" y="-52.8" font-family="Times,serif" font-size="14.00">popq %rbx</text>
<text text-anchor="middle" x="86" y="-37.8" font-family="Times,serif" font-size="14.00">popq %rbp</text>
<text text-anchor="middle" x="86" y="-22.8" font-family="Times,serif" font-size="14.00">popq %r12</text>
<text text-anchor="middle" x="86" y="-7.8" font-family="Times,serif" font-size="14.00">retq </text>
</g>
<!-- 1507&#45;&gt;1508 -->
<g id="edge12" class="edge"><title>1507&#45;&gt;1508</title>
<path fill="none" stroke="black" d="M86,-163.722C86,-155.397 86,-146.711 86,-138.094"/>
<polygon fill="black" stroke="black" points="89.5001,-138.036 86,-128.036 82.5001,-138.036 89.5001,-138.036"/>
</g>
</g>
</svg>
