<?xml version="1.0" encoding="UTF-8" standalone="no"?>
<!DOCTYPE svg PUBLIC "-//W3C//DTD SVG 1.1//EN"
 "http://www.w3.org/Graphics/SVG/1.1/DTD/svg11.dtd">
<!-- Generated by graphviz version 2.38.0 (20140413.2041)
 -->
<!-- Title: %3 Pages: 1 -->
<svg width="204pt" height="821pt"
 viewBox="0.00 0.00 203.50 821.00" xmlns="http://www.w3.org/2000/svg" xmlns:xlink="http://www.w3.org/1999/xlink">
<g id="graph0" class="graph" transform="scale(1 1) rotate(0) translate(4 817)">
<title>%3</title>
<polygon fill="white" stroke="none" points="-4,4 -4,-817 199.5,-817 199.5,4 -4,4"/>
<!-- 1425 -->
<g id="node1" class="node"><title>1425</title>
<polygon fill="none" stroke="black" points="177.5,-813 5.5,-813 5.5,-730 177.5,-730 177.5,-813"/>
<text text-anchor="middle" x="91.5" y="-797.8" font-family="Times,serif" font-size="14.00">0x4000cbab00</text>
<text text-anchor="middle" x="91.5" y="-782.8" font-family="Times,serif" font-size="14.00">_______________________</text>
<text text-anchor="middle" x="91.5" y="-767.8" font-family="Times,serif" font-size="14.00">_______________________</text>
<text text-anchor="middle" x="91.5" y="-752.8" font-family="Times,serif" font-size="14.00">cmpq $0, 0x326cc8(%rip)</text>
<text text-anchor="middle" x="91.5" y="-737.8" font-family="Times,serif" font-size="14.00">je 0x4000cbade7</text>
</g>
<!-- 1426 -->
<g id="node2" class="node"><title>1426</title>
<polygon fill="none" stroke="black" points="177.5,-694 5.5,-694 5.5,-626 177.5,-626 177.5,-694"/>
<text text-anchor="middle" x="91.5" y="-678.8" font-family="Times,serif" font-size="14.00">0x4000cbade7</text>
<text text-anchor="middle" x="91.5" y="-663.8" font-family="Times,serif" font-size="14.00">_______________________</text>
<text text-anchor="middle" x="91.5" y="-648.8" font-family="Times,serif" font-size="14.00">_______________________</text>
<text text-anchor="middle" x="91.5" y="-633.8" font-family="Times,serif" font-size="14.00">jmp 0x4000cb9fd0</text>
</g>
<!-- 1425&#45;&gt;1426 -->
<g id="edge1" class="edge"><title>1425&#45;&gt;1426</title>
<path fill="none" stroke="black" d="M91.5,-729.726C91.5,-721.518 91.5,-712.86 91.5,-704.56"/>
<polygon fill="black" stroke="black" points="95.0001,-704.3 91.5,-694.3 88.0001,-704.3 95.0001,-704.3"/>
</g>
<!-- 1427 -->
<g id="node3" class="node"><title>1427</title>
<polygon fill="none" stroke="black" points="177.5,-590 5.5,-590 5.5,-477 177.5,-477 177.5,-590"/>
<text text-anchor="middle" x="91.5" y="-574.8" font-family="Times,serif" font-size="14.00">0x4000cb9fd0</text>
<text text-anchor="middle" x="91.5" y="-559.8" font-family="Times,serif" font-size="14.00">_______________________</text>
<text text-anchor="middle" x="91.5" y="-544.8" font-family="Times,serif" font-size="14.00">_______________________</text>
<text text-anchor="middle" x="91.5" y="-529.8" font-family="Times,serif" font-size="14.00">leaq 0x58(%rdi), %rcx</text>
<text text-anchor="middle" x="91.5" y="-514.8" font-family="Times,serif" font-size="14.00">leaq 0x848(%rdi), %rdx</text>
<text text-anchor="middle" x="91.5" y="-499.8" font-family="Times,serif" font-size="14.00">movq %rcx, %rax</text>
<text text-anchor="middle" x="91.5" y="-484.8" font-family="Times,serif" font-size="14.00">nop </text>
</g>
<!-- 1426&#45;&gt;1427 -->
<g id="edge2" class="edge"><title>1426&#45;&gt;1427</title>
<path fill="none" stroke="black" d="M91.5,-625.963C91.5,-618.007 91.5,-609.228 91.5,-600.351"/>
<polygon fill="black" stroke="black" points="95.0001,-600.326 91.5,-590.326 88.0001,-600.326 95.0001,-600.326"/>
</g>
<!-- 1428 -->
<g id="node4" class="node"><title>1428</title>
<polygon fill="none" stroke="black" points="177.5,-441 5.5,-441 5.5,-313 177.5,-313 177.5,-441"/>
<text text-anchor="middle" x="91.5" y="-425.8" font-family="Times,serif" font-size="14.00">0x4000cb9fe0</text>
<text text-anchor="middle" x="91.5" y="-410.8" font-family="Times,serif" font-size="14.00">_______________________</text>
<text text-anchor="middle" x="91.5" y="-395.8" font-family="Times,serif" font-size="14.00">_______________________</text>
<text text-anchor="middle" x="91.5" y="-380.8" font-family="Times,serif" font-size="14.00">movq %rax, 0x18(%rax)</text>
<text text-anchor="middle" x="91.5" y="-365.8" font-family="Times,serif" font-size="14.00">movq %rax, 0x10(%rax)</text>
<text text-anchor="middle" x="91.5" y="-350.8" font-family="Times,serif" font-size="14.00">addq $0x10, %rax</text>
<text text-anchor="middle" x="91.5" y="-335.8" font-family="Times,serif" font-size="14.00">cmpq %rax, %rdx</text>
<text text-anchor="middle" x="91.5" y="-320.8" font-family="Times,serif" font-size="14.00">jne 0x4000cb9fe0</text>
</g>
<!-- 1427&#45;&gt;1428 -->
<g id="edge3" class="edge"><title>1427&#45;&gt;1428</title>
<path fill="none" stroke="black" d="M91.5,-476.722C91.5,-468.397 91.5,-459.711 91.5,-451.094"/>
<polygon fill="black" stroke="black" points="95.0001,-451.036 91.5,-441.036 88.0001,-451.036 95.0001,-451.036"/>
</g>
<!-- 1428&#45;&gt;1428 -->
<g id="edge4" class="edge"><title>1428&#45;&gt;1428</title>
<path fill="none" stroke="black" d="M177.577,-401.166C188.386,-396.907 195.5,-388.852 195.5,-377 195.5,-368.852 192.138,-362.498 186.524,-357.939"/>
<polygon fill="black" stroke="black" points="187.997,-354.75 177.577,-352.834 184.528,-360.83 187.997,-354.75"/>
</g>
<!-- 1429 -->
<g id="node5" class="node"><title>1429</title>
<polygon fill="none" stroke="black" points="177.5,-277 5.5,-277 5.5,-179 177.5,-179 177.5,-277"/>
<text text-anchor="middle" x="91.5" y="-261.8" font-family="Times,serif" font-size="14.00">0x4000cb9ff1</text>
<text text-anchor="middle" x="91.5" y="-246.8" font-family="Times,serif" font-size="14.00">_______________________</text>
<text text-anchor="middle" x="91.5" y="-231.8" font-family="Times,serif" font-size="14.00">_______________________</text>
<text text-anchor="middle" x="91.5" y="-216.8" font-family="Times,serif" font-size="14.00">leaq 0x325b08(%rip), %rax</text>
<text text-anchor="middle" x="91.5" y="-201.8" font-family="Times,serif" font-size="14.00">cmpq %rax, %rdi</text>
<text text-anchor="middle" x="91.5" y="-186.8" font-family="Times,serif" font-size="14.00">je 0x4000cba00e</text>
</g>
<!-- 1428&#45;&gt;1429 -->
<g id="edge5" class="edge"><title>1428&#45;&gt;1429</title>
<path fill="none" stroke="black" d="M91.5,-312.806C91.5,-304.286 91.5,-295.578 91.5,-287.151"/>
<polygon fill="black" stroke="black" points="95.0001,-287.044 91.5,-277.044 88.0001,-287.044 95.0001,-287.044"/>
</g>
<!-- 1430 -->
<g id="node6" class="node"><title>1430</title>
<polygon fill="none" stroke="black" points="183,-143 0,-143 0,-0 183,-0 183,-143"/>
<text text-anchor="middle" x="91.5" y="-127.8" font-family="Times,serif" font-size="14.00">0x4000cba00e</text>
<text text-anchor="middle" x="91.5" y="-112.8" font-family="Times,serif" font-size="14.00">_______________________</text>
<text text-anchor="middle" x="91.5" y="-97.8" font-family="Times,serif" font-size="14.00">_______________________</text>
<text text-anchor="middle" x="91.5" y="-82.8" font-family="Times,serif" font-size="14.00">movl 4(%rdi), %eax</text>
<text text-anchor="middle" x="91.5" y="-67.8" font-family="Times,serif" font-size="14.00">movq $0x80, 0x3277b4(%rip)</text>
<text text-anchor="middle" x="91.5" y="-52.8" font-family="Times,serif" font-size="14.00">movq %rcx, 0x58(%rdi)</text>
<text text-anchor="middle" x="91.5" y="-37.8" font-family="Times,serif" font-size="14.00">orl $1, %eax</text>
<text text-anchor="middle" x="91.5" y="-22.8" font-family="Times,serif" font-size="14.00">movl %eax, 4(%rdi)</text>
<text text-anchor="middle" x="91.5" y="-7.8" font-family="Times,serif" font-size="14.00">retq </text>
</g>
<!-- 1429&#45;&gt;1430 -->
<g id="edge6" class="edge"><title>1429&#45;&gt;1430</title>
<path fill="none" stroke="black" d="M91.5,-178.962C91.5,-170.813 91.5,-162.154 91.5,-153.434"/>
<polygon fill="black" stroke="black" points="95.0001,-153.194 91.5,-143.194 88.0001,-153.194 95.0001,-153.194"/>
</g>
</g>
</svg>
