<?xml version="1.0" encoding="UTF-8" standalone="no"?>
<!DOCTYPE svg PUBLIC "-//W3C//DTD SVG 1.1//EN"
 "http://www.w3.org/Graphics/SVG/1.1/DTD/svg11.dtd">
<!-- Generated by graphviz version 2.38.0 (20140413.2041)
 -->
<!-- Title: %3 Pages: 1 -->
<svg width="372pt" height="3566pt"
 viewBox="0.00 0.00 371.50 3566.00" xmlns="http://www.w3.org/2000/svg" xmlns:xlink="http://www.w3.org/1999/xlink">
<g id="graph0" class="graph" transform="scale(1 1) rotate(0) translate(4 3562)">
<title>%3</title>
<polygon fill="white" stroke="none" points="-4,4 -4,-3562 367.5,-3562 367.5,4 -4,4"/>
<!-- 959 -->
<g id="node1" class="node"><title>959</title>
<polygon fill="none" stroke="black" points="248.5,-3558 76.5,-3558 76.5,-3235 248.5,-3235 248.5,-3558"/>
<text text-anchor="middle" x="162.5" y="-3542.8" font-family="Times,serif" font-size="14.00">0x4000a0ce40</text>
<text text-anchor="middle" x="162.5" y="-3527.8" font-family="Times,serif" font-size="14.00">_______________________</text>
<text text-anchor="middle" x="162.5" y="-3512.8" font-family="Times,serif" font-size="14.00">_______________________</text>
<text text-anchor="middle" x="162.5" y="-3497.8" font-family="Times,serif" font-size="14.00">pushq %rbp</text>
<text text-anchor="middle" x="162.5" y="-3482.8" font-family="Times,serif" font-size="14.00">movq %rsp, %rbp</text>
<text text-anchor="middle" x="162.5" y="-3467.8" font-family="Times,serif" font-size="14.00">pushq %r15</text>
<text text-anchor="middle" x="162.5" y="-3452.8" font-family="Times,serif" font-size="14.00">pushq %r14</text>
<text text-anchor="middle" x="162.5" y="-3437.8" font-family="Times,serif" font-size="14.00">pushq %r13</text>
<text text-anchor="middle" x="162.5" y="-3422.8" font-family="Times,serif" font-size="14.00">pushq %r12</text>
<text text-anchor="middle" x="162.5" y="-3407.8" font-family="Times,serif" font-size="14.00">movq %rdx, %r15</text>
<text text-anchor="middle" x="162.5" y="-3392.8" font-family="Times,serif" font-size="14.00">pushq %rbx</text>
<text text-anchor="middle" x="162.5" y="-3377.8" font-family="Times,serif" font-size="14.00">movq %r8, %r12</text>
<text text-anchor="middle" x="162.5" y="-3362.8" font-family="Times,serif" font-size="14.00">subq $0xc8, %rsp</text>
<text text-anchor="middle" x="162.5" y="-3347.8" font-family="Times,serif" font-size="14.00">movzbl (%rdi), %edx</text>
<text text-anchor="middle" x="162.5" y="-3332.8" font-family="Times,serif" font-size="14.00">movq %rdi, &#45;0xb0(%rbp)</text>
<text text-anchor="middle" x="162.5" y="-3317.8" font-family="Times,serif" font-size="14.00">movq %rsi, &#45;0xc0(%rbp)</text>
<text text-anchor="middle" x="162.5" y="-3302.8" font-family="Times,serif" font-size="14.00">movq %rcx, &#45;0xd8(%rbp)</text>
<text text-anchor="middle" x="162.5" y="-3287.8" font-family="Times,serif" font-size="14.00">movl %r9d, &#45;0xc4(%rbp)</text>
<text text-anchor="middle" x="162.5" y="-3272.8" font-family="Times,serif" font-size="14.00">movq 0x18(%rbp), %r14</text>
<text text-anchor="middle" x="162.5" y="-3257.8" font-family="Times,serif" font-size="14.00">testb %dl, %dl</text>
<text text-anchor="middle" x="162.5" y="-3242.8" font-family="Times,serif" font-size="14.00">je 0x4000a0d28d</text>
</g>
<!-- 960 -->
<g id="node2" class="node"><title>960</title>
<polygon fill="none" stroke="black" points="248.5,-3199 76.5,-3199 76.5,-3101 248.5,-3101 248.5,-3199"/>
<text text-anchor="middle" x="162.5" y="-3183.8" font-family="Times,serif" font-size="14.00">0x4000a0ce85</text>
<text text-anchor="middle" x="162.5" y="-3168.8" font-family="Times,serif" font-size="14.00">_______________________</text>
<text text-anchor="middle" x="162.5" y="-3153.8" font-family="Times,serif" font-size="14.00">_______________________</text>
<text text-anchor="middle" x="162.5" y="-3138.8" font-family="Times,serif" font-size="14.00">movq %rdi, %rcx</text>
<text text-anchor="middle" x="162.5" y="-3123.8" font-family="Times,serif" font-size="14.00">movl $0x1505, %eax</text>
<text text-anchor="middle" x="162.5" y="-3108.8" font-family="Times,serif" font-size="14.00">nopl (%rax)</text>
</g>
<!-- 959&#45;&gt;960 -->
<g id="edge1" class="edge"><title>959&#45;&gt;960</title>
<path fill="none" stroke="black" d="M162.5,-3234.8C162.5,-3225.94 162.5,-3217.39 162.5,-3209.34"/>
<polygon fill="black" stroke="black" points="166,-3209.08 162.5,-3199.08 159,-3209.08 166,-3209.08"/>
</g>
<!-- 961 -->
<g id="node3" class="node"><title>961</title>
<polygon fill="none" stroke="black" points="248.5,-3065 76.5,-3065 76.5,-2892 248.5,-2892 248.5,-3065"/>
<text text-anchor="middle" x="162.5" y="-3049.8" font-family="Times,serif" font-size="14.00">0x4000a0ce90</text>
<text text-anchor="middle" x="162.5" y="-3034.8" font-family="Times,serif" font-size="14.00">_______________________</text>
<text text-anchor="middle" x="162.5" y="-3019.8" font-family="Times,serif" font-size="14.00">_______________________</text>
<text text-anchor="middle" x="162.5" y="-3004.8" font-family="Times,serif" font-size="14.00">movq %rax, %rsi</text>
<text text-anchor="middle" x="162.5" y="-2989.8" font-family="Times,serif" font-size="14.00">addq $1, %rcx</text>
<text text-anchor="middle" x="162.5" y="-2974.8" font-family="Times,serif" font-size="14.00">shlq $5, %rsi</text>
<text text-anchor="middle" x="162.5" y="-2959.8" font-family="Times,serif" font-size="14.00">addq %rsi, %rax</text>
<text text-anchor="middle" x="162.5" y="-2944.8" font-family="Times,serif" font-size="14.00">addq %rdx, %rax</text>
<text text-anchor="middle" x="162.5" y="-2929.8" font-family="Times,serif" font-size="14.00">movzbl (%rcx), %edx</text>
<text text-anchor="middle" x="162.5" y="-2914.8" font-family="Times,serif" font-size="14.00">testb %dl, %dl</text>
<text text-anchor="middle" x="162.5" y="-2899.8" font-family="Times,serif" font-size="14.00">jne 0x4000a0ce90</text>
</g>
<!-- 960&#45;&gt;961 -->
<g id="edge2" class="edge"><title>960&#45;&gt;961</title>
<path fill="none" stroke="black" d="M162.5,-3100.88C162.5,-3092.77 162.5,-3084.11 162.5,-3075.29"/>
<polygon fill="black" stroke="black" points="166,-3075.28 162.5,-3065.28 159,-3075.28 166,-3075.28"/>
</g>
<!-- 961&#45;&gt;961 -->
<g id="edge3" class="edge"><title>961&#45;&gt;961</title>
<path fill="none" stroke="black" d="M248.577,-3006.26C259.386,-3001.37 266.5,-2992.11 266.5,-2978.5 266.5,-2968.93 262.983,-2961.51 257.138,-2956.25"/>
<polygon fill="black" stroke="black" points="258.88,-2953.21 248.577,-2950.74 255.091,-2959.1 258.88,-2953.21"/>
</g>
<!-- 962 -->
<g id="node4" class="node"><title>962</title>
<polygon fill="none" stroke="black" points="248.5,-2856 76.5,-2856 76.5,-2683 248.5,-2683 248.5,-2856"/>
<text text-anchor="middle" x="162.5" y="-2840.8" font-family="Times,serif" font-size="14.00">0x4000a0cea8</text>
<text text-anchor="middle" x="162.5" y="-2825.8" font-family="Times,serif" font-size="14.00">_______________________</text>
<text text-anchor="middle" x="162.5" y="-2810.8" font-family="Times,serif" font-size="14.00">_______________________</text>
<text text-anchor="middle" x="162.5" y="-2795.8" font-family="Times,serif" font-size="14.00">movl %eax, %ebx</text>
<text text-anchor="middle" x="162.5" y="-2780.8" font-family="Times,serif" font-size="14.00">movl $0xffffffff, %eax</text>
<text text-anchor="middle" x="162.5" y="-2765.8" font-family="Times,serif" font-size="14.00">addq $1, 0x219b01(%rip)</text>
<text text-anchor="middle" x="162.5" y="-2750.8" font-family="Times,serif" font-size="14.00">testq %r12, %r12</text>
<text text-anchor="middle" x="162.5" y="-2735.8" font-family="Times,serif" font-size="14.00">movq %rax, &#45;0xa0(%rbp)</text>
<text text-anchor="middle" x="162.5" y="-2720.8" font-family="Times,serif" font-size="14.00">movq $0, &#45;0x90(%rbp)</text>
<text text-anchor="middle" x="162.5" y="-2705.8" font-family="Times,serif" font-size="14.00">movq $0, &#45;0x88(%rbp)</text>
<text text-anchor="middle" x="162.5" y="-2690.8" font-family="Times,serif" font-size="14.00">je 0x4000a0cee6</text>
</g>
<!-- 961&#45;&gt;962 -->
<g id="edge4" class="edge"><title>961&#45;&gt;962</title>
<path fill="none" stroke="black" d="M162.5,-2891.81C162.5,-2883.34 162.5,-2874.7 162.5,-2866.13"/>
<polygon fill="black" stroke="black" points="166,-2866.12 162.5,-2856.12 159,-2866.12 166,-2866.12"/>
</g>
<!-- 963 -->
<g id="node5" class="node"><title>963</title>
<polygon fill="none" stroke="black" points="192.5,-2647 18.5,-2647 18.5,-2564 192.5,-2564 192.5,-2647"/>
<text text-anchor="middle" x="105.5" y="-2631.8" font-family="Times,serif" font-size="14.00">0x4000a0ced9</text>
<text text-anchor="middle" x="105.5" y="-2616.8" font-family="Times,serif" font-size="14.00">_______________________</text>
<text text-anchor="middle" x="105.5" y="-2601.8" font-family="Times,serif" font-size="14.00">_______________________</text>
<text text-anchor="middle" x="105.5" y="-2586.8" font-family="Times,serif" font-size="14.00">testl $0xfffffffa, 0x10(%rbp)</text>
<text text-anchor="middle" x="105.5" y="-2571.8" font-family="Times,serif" font-size="14.00">jne 0x4000a0dceb</text>
</g>
<!-- 962&#45;&gt;963 -->
<g id="edge5" class="edge"><title>962&#45;&gt;963</title>
<path fill="none" stroke="black" d="M132.331,-2682.76C129.183,-2673.81 126.063,-2664.94 123.124,-2656.59"/>
<polygon fill="black" stroke="black" points="126.387,-2655.32 119.766,-2647.05 119.784,-2657.64 126.387,-2655.32"/>
</g>
<!-- 964 -->
<g id="node6" class="node"><title>964</title>
<polygon fill="none" stroke="black" points="248.5,-2528 76.5,-2528 76.5,-2415 248.5,-2415 248.5,-2528"/>
<text text-anchor="middle" x="162.5" y="-2512.8" font-family="Times,serif" font-size="14.00">0x4000a0cee6</text>
<text text-anchor="middle" x="162.5" y="-2497.8" font-family="Times,serif" font-size="14.00">_______________________</text>
<text text-anchor="middle" x="162.5" y="-2482.8" font-family="Times,serif" font-size="14.00">_______________________</text>
<text text-anchor="middle" x="162.5" y="-2467.8" font-family="Times,serif" font-size="14.00">movq &#45;0xd8(%rbp), %rax</text>
<text text-anchor="middle" x="162.5" y="-2452.8" font-family="Times,serif" font-size="14.00">testq %r14, %r14</text>
<text text-anchor="middle" x="162.5" y="-2437.8" font-family="Times,serif" font-size="14.00">movq (%rax), %r9</text>
<text text-anchor="middle" x="162.5" y="-2422.8" font-family="Times,serif" font-size="14.00">jne 0x4000a0d13c</text>
</g>
<!-- 962&#45;&gt;964 -->
<g id="edge6" class="edge"><title>962&#45;&gt;964</title>
<path fill="none" stroke="black" d="M193.661,-2682.68C196.896,-2670.83 199.667,-2658.71 201.5,-2647 207.206,-2610.56 208.881,-2600.14 201.5,-2564 199.743,-2555.4 197.144,-2546.6 194.108,-2538.02"/>
<polygon fill="black" stroke="black" points="197.309,-2536.59 190.516,-2528.46 190.756,-2539.05 197.309,-2536.59"/>
</g>
<!-- 963&#45;&gt;964 -->
<g id="edge7" class="edge"><title>963&#45;&gt;964</title>
<path fill="none" stroke="black" d="M123.067,-2563.82C126.66,-2555.5 130.526,-2546.54 134.383,-2537.61"/>
<polygon fill="black" stroke="black" points="137.636,-2538.91 138.388,-2528.34 131.21,-2536.13 137.636,-2538.91"/>
</g>
<!-- 965 -->
<g id="node7" class="node"><title>965</title>
<polygon fill="none" stroke="black" points="248.5,-2379 76.5,-2379 76.5,-2281 248.5,-2281 248.5,-2379"/>
<text text-anchor="middle" x="162.5" y="-2363.8" font-family="Times,serif" font-size="14.00">0x4000a0cef9</text>
<text text-anchor="middle" x="162.5" y="-2348.8" font-family="Times,serif" font-size="14.00">_______________________</text>
<text text-anchor="middle" x="162.5" y="-2333.8" font-family="Times,serif" font-size="14.00">_______________________</text>
<text text-anchor="middle" x="162.5" y="-2318.8" font-family="Times,serif" font-size="14.00">testq %r9, %r9</text>
<text text-anchor="middle" x="162.5" y="-2303.8" font-family="Times,serif" font-size="14.00">movq $0, &#45;0xe0(%rbp)</text>
<text text-anchor="middle" x="162.5" y="-2288.8" font-family="Times,serif" font-size="14.00">je 0x4000a0d166</text>
</g>
<!-- 964&#45;&gt;965 -->
<g id="edge8" class="edge"><title>964&#45;&gt;965</title>
<path fill="none" stroke="black" d="M162.5,-2414.97C162.5,-2406.54 162.5,-2397.82 162.5,-2389.34"/>
<polygon fill="black" stroke="black" points="166,-2389.14 162.5,-2379.14 159,-2389.14 166,-2389.14"/>
</g>
<!-- 966 -->
<g id="node8" class="node"><title>966</title>
<polygon fill="none" stroke="black" points="248.5,-2245 76.5,-2245 76.5,-2042 248.5,-2042 248.5,-2245"/>
<text text-anchor="middle" x="162.5" y="-2229.8" font-family="Times,serif" font-size="14.00">0x4000a0cf0d</text>
<text text-anchor="middle" x="162.5" y="-2214.8" font-family="Times,serif" font-size="14.00">_______________________</text>
<text text-anchor="middle" x="162.5" y="-2199.8" font-family="Times,serif" font-size="14.00">_______________________</text>
<text text-anchor="middle" x="162.5" y="-2184.8" font-family="Times,serif" font-size="14.00">leaq &#45;0x90(%rbp), %rcx</text>
<text text-anchor="middle" x="162.5" y="-2169.8" font-family="Times,serif" font-size="14.00">movq &#45;0xd8(%rbp), %r13</text>
<text text-anchor="middle" x="162.5" y="-2154.8" font-family="Times,serif" font-size="14.00">movq %rbx, &#45;0xa8(%rbp)</text>
<text text-anchor="middle" x="162.5" y="-2139.8" font-family="Times,serif" font-size="14.00">movq &#45;0xe0(%rbp), %rax</text>
<text text-anchor="middle" x="162.5" y="-2124.8" font-family="Times,serif" font-size="14.00">movq %rcx, &#45;0xd0(%rbp)</text>
<text text-anchor="middle" x="162.5" y="-2109.8" font-family="Times,serif" font-size="14.00">leaq &#45;0xa0(%rbp), %rcx</text>
<text text-anchor="middle" x="162.5" y="-2094.8" font-family="Times,serif" font-size="14.00">movq %r13, %rbx</text>
<text text-anchor="middle" x="162.5" y="-2079.8" font-family="Times,serif" font-size="14.00">movl 0x10(%rbp), %r13d</text>
<text text-anchor="middle" x="162.5" y="-2064.8" font-family="Times,serif" font-size="14.00">movq %rcx, &#45;0xb8(%rbp)</text>
<text text-anchor="middle" x="162.5" y="-2049.8" font-family="Times,serif" font-size="14.00">jmp 0x4000a0cf69</text>
</g>
<!-- 965&#45;&gt;966 -->
<g id="edge9" class="edge"><title>965&#45;&gt;966</title>
<path fill="none" stroke="black" d="M162.5,-2280.52C162.5,-2272.53 162.5,-2263.97 162.5,-2255.18"/>
<polygon fill="black" stroke="black" points="166,-2255.17 162.5,-2245.17 159,-2255.17 166,-2255.17"/>
</g>
<!-- 967 -->
<g id="node9" class="node"><title>967</title>
<polygon fill="none" stroke="black" points="248.5,-2006 76.5,-2006 76.5,-1728 248.5,-1728 248.5,-2006"/>
<text text-anchor="middle" x="162.5" y="-1990.8" font-family="Times,serif" font-size="14.00">0x4000a0cf69</text>
<text text-anchor="middle" x="162.5" y="-1975.8" font-family="Times,serif" font-size="14.00">_______________________</text>
<text text-anchor="middle" x="162.5" y="-1960.8" font-family="Times,serif" font-size="14.00">_______________________</text>
<text text-anchor="middle" x="162.5" y="-1945.8" font-family="Times,serif" font-size="14.00">movl &#45;0xc4(%rbp), %edi</text>
<text text-anchor="middle" x="162.5" y="-1930.8" font-family="Times,serif" font-size="14.00">pushq &#45;0xc0(%rbp)</text>
<text text-anchor="middle" x="162.5" y="-1915.8" font-family="Times,serif" font-size="14.00">movq &#45;0xd0(%rbp), %r8</text>
<text text-anchor="middle" x="162.5" y="-1900.8" font-family="Times,serif" font-size="14.00">movq (%r15), %rcx</text>
<text text-anchor="middle" x="162.5" y="-1885.8" font-family="Times,serif" font-size="14.00">movq &#45;0xb8(%rbp), %rdx</text>
<text text-anchor="middle" x="162.5" y="-1870.8" font-family="Times,serif" font-size="14.00">movq &#45;0xa8(%rbp), %rsi</text>
<text text-anchor="middle" x="162.5" y="-1855.8" font-family="Times,serif" font-size="14.00">pushq %rdi</text>
<text text-anchor="middle" x="162.5" y="-1840.8" font-family="Times,serif" font-size="14.00">movq &#45;0xb0(%rbp), %rdi</text>
<text text-anchor="middle" x="162.5" y="-1825.8" font-family="Times,serif" font-size="14.00">pushq %r14</text>
<text text-anchor="middle" x="162.5" y="-1810.8" font-family="Times,serif" font-size="14.00">pushq %r13</text>
<text text-anchor="middle" x="162.5" y="-1795.8" font-family="Times,serif" font-size="14.00">pushq %r12</text>
<text text-anchor="middle" x="162.5" y="-1780.8" font-family="Times,serif" font-size="14.00">pushq %rax</text>
<text text-anchor="middle" x="162.5" y="-1765.8" font-family="Times,serif" font-size="14.00">callq 0x4000a0c2b0</text>
<text text-anchor="middle" x="162.5" y="-1750.8" font-family="Times,serif" font-size="14.00">_______________________</text>
<text text-anchor="middle" x="162.5" y="-1735.8" font-family="Times,serif" font-size="14.00">CALL 0x4000a0c2b0</text>
</g>
<!-- 966&#45;&gt;967 -->
<g id="edge10" class="edge"><title>966&#45;&gt;967</title>
<path fill="none" stroke="black" d="M162.5,-2041.85C162.5,-2033.49 162.5,-2024.93 162.5,-2016.32"/>
<polygon fill="black" stroke="black" points="166,-2016.19 162.5,-2006.19 159,-2016.19 166,-2016.19"/>
</g>
<!-- 1006 -->
<g id="node10" class="node"><title>1006</title>
<polygon fill="none" stroke="black" points="248.5,-1692 76.5,-1692 76.5,-1594 248.5,-1594 248.5,-1692"/>
<text text-anchor="middle" x="162.5" y="-1676.8" font-family="Times,serif" font-size="14.00">0x4000a0cfa1</text>
<text text-anchor="middle" x="162.5" y="-1661.8" font-family="Times,serif" font-size="14.00">_______________________</text>
<text text-anchor="middle" x="162.5" y="-1646.8" font-family="Times,serif" font-size="14.00">_______________________</text>
<text text-anchor="middle" x="162.5" y="-1631.8" font-family="Times,serif" font-size="14.00">addq $0x30, %rsp</text>
<text text-anchor="middle" x="162.5" y="-1616.8" font-family="Times,serif" font-size="14.00">cmpl $0, %eax</text>
<text text-anchor="middle" x="162.5" y="-1601.8" font-family="Times,serif" font-size="14.00">jle 0x4000a0cf50</text>
</g>
<!-- 967&#45;&gt;1006 -->
<g id="edge11" class="edge"><title>967&#45;&gt;1006</title>
<path fill="none" stroke="black" d="M162.5,-1727.93C162.5,-1719 162.5,-1710.32 162.5,-1702.14"/>
<polygon fill="black" stroke="black" points="166,-1702.07 162.5,-1692.07 159,-1702.07 166,-1702.07"/>
</g>
<!-- 1007 -->
<g id="node11" class="node"><title>1007</title>
<polygon fill="none" stroke="black" points="248.5,-1290 76.5,-1290 76.5,-1192 248.5,-1192 248.5,-1290"/>
<text text-anchor="middle" x="162.5" y="-1274.8" font-family="Times,serif" font-size="14.00">0x4000a0cfaa</text>
<text text-anchor="middle" x="162.5" y="-1259.8" font-family="Times,serif" font-size="14.00">_______________________</text>
<text text-anchor="middle" x="162.5" y="-1244.8" font-family="Times,serif" font-size="14.00">_______________________</text>
<text text-anchor="middle" x="162.5" y="-1229.8" font-family="Times,serif" font-size="14.00">cmpq $0, &#45;0x90(%rbp)</text>
<text text-anchor="middle" x="162.5" y="-1214.8" font-family="Times,serif" font-size="14.00">movq &#45;0xa8(%rbp), %rbx</text>
<text text-anchor="middle" x="162.5" y="-1199.8" font-family="Times,serif" font-size="14.00">je 0x4000a0d166</text>
</g>
<!-- 1006&#45;&gt;1007 -->
<g id="edge12" class="edge"><title>1006&#45;&gt;1007</title>
<path fill="none" stroke="black" d="M136.556,-1593.9C131.571,-1582.45 127.098,-1570.05 124.5,-1558 102.762,-1457.21 102.762,-1426.79 124.5,-1326 126.408,-1317.15 129.327,-1308.12 132.718,-1299.4"/>
<polygon fill="black" stroke="black" points="135.977,-1300.68 136.556,-1290.1 129.506,-1298.01 135.977,-1300.68"/>
</g>
<!-- 1043 -->
<g id="node12" class="node"><title>1043</title>
<polygon fill="none" stroke="black" points="305.5,-1558 133.5,-1558 133.5,-1490 305.5,-1490 305.5,-1558"/>
<text text-anchor="middle" x="219.5" y="-1542.8" font-family="Times,serif" font-size="14.00">0x4000a0cf50</text>
<text text-anchor="middle" x="219.5" y="-1527.8" font-family="Times,serif" font-size="14.00">_______________________</text>
<text text-anchor="middle" x="219.5" y="-1512.8" font-family="Times,serif" font-size="14.00">_______________________</text>
<text text-anchor="middle" x="219.5" y="-1497.8" font-family="Times,serif" font-size="14.00">je 0x4000a0cf5b</text>
</g>
<!-- 1006&#45;&gt;1043 -->
<g id="edge13" class="edge"><title>1006&#45;&gt;1043</title>
<path fill="none" stroke="black" d="M186.013,-1593.74C190.292,-1584.95 194.726,-1575.85 198.912,-1567.26"/>
<polygon fill="black" stroke="black" points="202.105,-1568.7 203.339,-1558.17 195.813,-1565.63 202.105,-1568.7"/>
</g>
<!-- 1008 -->
<g id="node13" class="node"><title>1008</title>
<polygon fill="none" stroke="black" points="191.5,-1156 19.5,-1156 19.5,-1058 191.5,-1058 191.5,-1156"/>
<text text-anchor="middle" x="105.5" y="-1140.8" font-family="Times,serif" font-size="14.00">0x4000a0cfbf</text>
<text text-anchor="middle" x="105.5" y="-1125.8" font-family="Times,serif" font-size="14.00">_______________________</text>
<text text-anchor="middle" x="105.5" y="-1110.8" font-family="Times,serif" font-size="14.00">_______________________</text>
<text text-anchor="middle" x="105.5" y="-1095.8" font-family="Times,serif" font-size="14.00">movq (%r15), %rcx</text>
<text text-anchor="middle" x="105.5" y="-1080.8" font-family="Times,serif" font-size="14.00">testq %rcx, %rcx</text>
<text text-anchor="middle" x="105.5" y="-1065.8" font-family="Times,serif" font-size="14.00">je 0x4000a0cfd2</text>
</g>
<!-- 1007&#45;&gt;1008 -->
<g id="edge14" class="edge"><title>1007&#45;&gt;1008</title>
<path fill="none" stroke="black" d="M141.76,-1191.97C138.067,-1183.42 134.185,-1174.43 130.39,-1165.64"/>
<polygon fill="black" stroke="black" points="133.497,-1164.01 126.32,-1156.21 127.071,-1166.78 133.497,-1164.01"/>
</g>
<!-- 1045 -->
<g id="node14" class="node"><title>1045</title>
<polygon fill="none" stroke="black" points="362.5,-1014.5 190.5,-1014.5 190.5,-916.5 362.5,-916.5 362.5,-1014.5"/>
<text text-anchor="middle" x="276.5" y="-999.3" font-family="Times,serif" font-size="14.00">0x4000a0d166</text>
<text text-anchor="middle" x="276.5" y="-984.3" font-family="Times,serif" font-size="14.00">_______________________</text>
<text text-anchor="middle" x="276.5" y="-969.3" font-family="Times,serif" font-size="14.00">_______________________</text>
<text text-anchor="middle" x="276.5" y="-954.3" font-family="Times,serif" font-size="14.00">movq (%r15), %rax</text>
<text text-anchor="middle" x="276.5" y="-939.3" font-family="Times,serif" font-size="14.00">testq %rax, %rax</text>
<text text-anchor="middle" x="276.5" y="-924.3" font-family="Times,serif" font-size="14.00">je 0x4000a0d17d</text>
</g>
<!-- 1007&#45;&gt;1045 -->
<g id="edge15" class="edge"><title>1007&#45;&gt;1045</title>
<path fill="none" stroke="black" d="M184.763,-1191.74C190.022,-1180.08 195.539,-1167.63 200.5,-1156 219.2,-1112.15 239.227,-1062.08 254.025,-1024.42"/>
<polygon fill="black" stroke="black" points="257.47,-1025.22 257.862,-1014.63 250.953,-1022.67 257.47,-1025.22"/>
</g>
<!-- 1044 -->
<g id="node22" class="node"><title>1044</title>
<polygon fill="none" stroke="black" points="305.5,-1454 133.5,-1454 133.5,-1326 305.5,-1326 305.5,-1454"/>
<text text-anchor="middle" x="219.5" y="-1438.8" font-family="Times,serif" font-size="14.00">0x4000a0cf5b</text>
<text text-anchor="middle" x="219.5" y="-1423.8" font-family="Times,serif" font-size="14.00">_______________________</text>
<text text-anchor="middle" x="219.5" y="-1408.8" font-family="Times,serif" font-size="14.00">_______________________</text>
<text text-anchor="middle" x="219.5" y="-1393.8" font-family="Times,serif" font-size="14.00">addq $8, %rbx</text>
<text text-anchor="middle" x="219.5" y="-1378.8" font-family="Times,serif" font-size="14.00">movq (%rbx), %r9</text>
<text text-anchor="middle" x="219.5" y="-1363.8" font-family="Times,serif" font-size="14.00">xorl %eax, %eax</text>
<text text-anchor="middle" x="219.5" y="-1348.8" font-family="Times,serif" font-size="14.00">testq %r9, %r9</text>
<text text-anchor="middle" x="219.5" y="-1333.8" font-family="Times,serif" font-size="14.00">je 0x4000a0cfaa</text>
</g>
<!-- 1043&#45;&gt;1044 -->
<g id="edge24" class="edge"><title>1043&#45;&gt;1044</title>
<path fill="none" stroke="black" d="M219.5,-1489.69C219.5,-1481.81 219.5,-1473.1 219.5,-1464.21"/>
<polygon fill="black" stroke="black" points="223,-1464.14 219.5,-1454.14 216,-1464.14 223,-1464.14"/>
</g>
<!-- 1009 -->
<g id="node15" class="node"><title>1009</title>
<polygon fill="none" stroke="black" points="172.5,-1022 0.5,-1022 0.5,-909 172.5,-909 172.5,-1022"/>
<text text-anchor="middle" x="86.5" y="-1006.8" font-family="Times,serif" font-size="14.00">0x4000a0cfc7</text>
<text text-anchor="middle" x="86.5" y="-991.8" font-family="Times,serif" font-size="14.00">_______________________</text>
<text text-anchor="middle" x="86.5" y="-976.8" font-family="Times,serif" font-size="14.00">_______________________</text>
<text text-anchor="middle" x="86.5" y="-961.8" font-family="Times,serif" font-size="14.00">movzbl 5(%rcx), %eax</text>
<text text-anchor="middle" x="86.5" y="-946.8" font-family="Times,serif" font-size="14.00">andl $3, %eax</text>
<text text-anchor="middle" x="86.5" y="-931.8" font-family="Times,serif" font-size="14.00">cmpb $3, %al</text>
<text text-anchor="middle" x="86.5" y="-916.8" font-family="Times,serif" font-size="14.00">je 0x4000a0d030</text>
</g>
<!-- 1008&#45;&gt;1009 -->
<g id="edge16" class="edge"><title>1008&#45;&gt;1009</title>
<path fill="none" stroke="black" d="M98.9613,-1057.99C97.8348,-1049.72 96.6467,-1041 95.4694,-1032.35"/>
<polygon fill="black" stroke="black" points="98.9144,-1031.71 94.0968,-1022.28 91.9784,-1032.66 98.9144,-1031.71"/>
</g>
<!-- 1046 -->
<g id="node23" class="node"><title>1046</title>
<polygon fill="none" stroke="black" points="363.5,-858 191.5,-858 191.5,-745 363.5,-745 363.5,-858"/>
<text text-anchor="middle" x="277.5" y="-842.8" font-family="Times,serif" font-size="14.00">0x4000a0d16e</text>
<text text-anchor="middle" x="277.5" y="-827.8" font-family="Times,serif" font-size="14.00">_______________________</text>
<text text-anchor="middle" x="277.5" y="-812.8" font-family="Times,serif" font-size="14.00">_______________________</text>
<text text-anchor="middle" x="277.5" y="-797.8" font-family="Times,serif" font-size="14.00">movzbl 4(%rax), %eax</text>
<text text-anchor="middle" x="277.5" y="-782.8" font-family="Times,serif" font-size="14.00">shrb $4, %al</text>
<text text-anchor="middle" x="277.5" y="-767.8" font-family="Times,serif" font-size="14.00">cmpb $2, %al</text>
<text text-anchor="middle" x="277.5" y="-752.8" font-family="Times,serif" font-size="14.00">je 0x4000a0d27e</text>
</g>
<!-- 1045&#45;&gt;1046 -->
<g id="edge26" class="edge"><title>1045&#45;&gt;1046</title>
<path fill="none" stroke="black" d="M276.797,-916.333C276.89,-901.338 276.994,-884.535 277.092,-868.538"/>
<polygon fill="black" stroke="black" points="280.594,-868.191 277.156,-858.17 273.595,-868.148 280.594,-868.191"/>
</g>
<!-- 1010 -->
<g id="node16" class="node"><title>1010</title>
<polygon fill="none" stroke="black" points="173,-873 0,-873 0,-730 173,-730 173,-873"/>
<text text-anchor="middle" x="86.5" y="-857.8" font-family="Times,serif" font-size="14.00">0x4000a0cfd2</text>
<text text-anchor="middle" x="86.5" y="-842.8" font-family="Times,serif" font-size="14.00">_______________________</text>
<text text-anchor="middle" x="86.5" y="-827.8" font-family="Times,serif" font-size="14.00">_______________________</text>
<text text-anchor="middle" x="86.5" y="-812.8" font-family="Times,serif" font-size="14.00">movq &#45;0x88(%rbp), %r13</text>
<text text-anchor="middle" x="86.5" y="-797.8" font-family="Times,serif" font-size="14.00">xorl %ebx, %ebx</text>
<text text-anchor="middle" x="86.5" y="-782.8" font-family="Times,serif" font-size="14.00">movzbl 0x314(%r13), %eax</text>
<text text-anchor="middle" x="86.5" y="-767.8" font-family="Times,serif" font-size="14.00">andl $3, %eax</text>
<text text-anchor="middle" x="86.5" y="-752.8" font-family="Times,serif" font-size="14.00">cmpb $2, %al</text>
<text text-anchor="middle" x="86.5" y="-737.8" font-family="Times,serif" font-size="14.00">je 0x4000a0d485</text>
</g>
<!-- 1009&#45;&gt;1010 -->
<g id="edge17" class="edge"><title>1009&#45;&gt;1010</title>
<path fill="none" stroke="black" d="M86.5,-908.749C86.5,-900.526 86.5,-891.917 86.5,-883.311"/>
<polygon fill="black" stroke="black" points="90.0001,-883.233 86.5,-873.233 83.0001,-883.233 90.0001,-883.233"/>
</g>
<!-- 1011 -->
<g id="node17" class="node"><title>1011</title>
<polygon fill="none" stroke="black" points="172.5,-694 0.5,-694 0.5,-596 172.5,-596 172.5,-694"/>
<text text-anchor="middle" x="86.5" y="-678.8" font-family="Times,serif" font-size="14.00">0x4000a0cfee</text>
<text text-anchor="middle" x="86.5" y="-663.8" font-family="Times,serif" font-size="14.00">_______________________</text>
<text text-anchor="middle" x="86.5" y="-648.8" font-family="Times,serif" font-size="14.00">_______________________</text>
<text text-anchor="middle" x="86.5" y="-633.8" font-family="Times,serif" font-size="14.00">movl 0x3cc(%r13), %edi</text>
<text text-anchor="middle" x="86.5" y="-618.8" font-family="Times,serif" font-size="14.00">testl %edi, %edi</text>
<text text-anchor="middle" x="86.5" y="-603.8" font-family="Times,serif" font-size="14.00">je 0x4000a0d514</text>
</g>
<!-- 1010&#45;&gt;1011 -->
<g id="edge18" class="edge"><title>1010&#45;&gt;1011</title>
<path fill="none" stroke="black" d="M86.5,-729.581C86.5,-721.214 86.5,-712.748 86.5,-704.578"/>
<polygon fill="black" stroke="black" points="90.0001,-704.418 86.5,-694.418 83.0001,-704.418 90.0001,-704.418"/>
</g>
<!-- 1012 -->
<g id="node18" class="node"><title>1012</title>
<polygon fill="none" stroke="black" points="250,-441 73,-441 73,-328 250,-328 250,-441"/>
<text text-anchor="middle" x="161.5" y="-425.8" font-family="Times,serif" font-size="14.00">0x4000a0cffd</text>
<text text-anchor="middle" x="161.5" y="-410.8" font-family="Times,serif" font-size="14.00">_______________________</text>
<text text-anchor="middle" x="161.5" y="-395.8" font-family="Times,serif" font-size="14.00">_______________________</text>
<text text-anchor="middle" x="161.5" y="-380.8" font-family="Times,serif" font-size="14.00">movl 0x218c9d(%rip), %edx</text>
<text text-anchor="middle" x="161.5" y="-365.8" font-family="Times,serif" font-size="14.00">movq &#45;0x90(%rbp), %rax</text>
<text text-anchor="middle" x="161.5" y="-350.8" font-family="Times,serif" font-size="14.00">testl $0x804, %edx</text>
<text text-anchor="middle" x="161.5" y="-335.8" font-family="Times,serif" font-size="14.00">jne 0x4000a0d297</text>
</g>
<!-- 1011&#45;&gt;1012 -->
<g id="edge19" class="edge"><title>1011&#45;&gt;1012</title>
<path fill="none" stroke="black" d="M68.6506,-595.758C58.8359,-561.385 51.5559,-514.771 67.5,-477 71.7043,-467.04 77.5813,-457.628 84.3663,-448.903"/>
<polygon fill="black" stroke="black" points="87.1543,-451.024 90.8307,-441.087 81.7602,-446.562 87.1543,-451.024"/>
</g>
<!-- 1036 -->
<g id="node19" class="node"><title>1036</title>
<polygon fill="none" stroke="black" points="248.5,-560 76.5,-560 76.5,-477 248.5,-477 248.5,-560"/>
<text text-anchor="middle" x="162.5" y="-544.8" font-family="Times,serif" font-size="14.00">0x4000a0d514</text>
<text text-anchor="middle" x="162.5" y="-529.8" font-family="Times,serif" font-size="14.00">_______________________</text>
<text text-anchor="middle" x="162.5" y="-514.8" font-family="Times,serif" font-size="14.00">_______________________</text>
<text text-anchor="middle" x="162.5" y="-499.8" font-family="Times,serif" font-size="14.00">movl $1, 0x3cc(%r13)</text>
<text text-anchor="middle" x="162.5" y="-484.8" font-family="Times,serif" font-size="14.00">jmp 0x4000a0cffd</text>
</g>
<!-- 1011&#45;&gt;1036 -->
<g id="edge20" class="edge"><title>1011&#45;&gt;1036</title>
<path fill="none" stroke="black" d="M115.884,-595.865C121.272,-587.038 126.904,-577.811 132.316,-568.947"/>
<polygon fill="black" stroke="black" points="135.413,-570.59 137.636,-560.231 129.438,-566.943 135.413,-570.59"/>
</g>
<!-- 1013 -->
<g id="node20" class="node"><title>1013</title>
<polygon fill="none" stroke="black" points="248.5,-292 76.5,-292 76.5,-224 248.5,-224 248.5,-292"/>
<text text-anchor="middle" x="162.5" y="-276.8" font-family="Times,serif" font-size="14.00">0x4000a0d016</text>
<text text-anchor="middle" x="162.5" y="-261.8" font-family="Times,serif" font-size="14.00">_______________________</text>
<text text-anchor="middle" x="162.5" y="-246.8" font-family="Times,serif" font-size="14.00">_______________________</text>
<text text-anchor="middle" x="162.5" y="-231.8" font-family="Times,serif" font-size="14.00">movq %rax, (%r15)</text>
</g>
<!-- 1012&#45;&gt;1013 -->
<g id="edge21" class="edge"><title>1012&#45;&gt;1013</title>
<path fill="none" stroke="black" d="M161.947,-327.805C162.016,-319.246 162.086,-310.521 162.152,-302.285"/>
<polygon fill="black" stroke="black" points="165.653,-302.192 162.234,-292.164 158.653,-302.136 165.653,-302.192"/>
</g>
<!-- 1036&#45;&gt;1012 -->
<g id="edge23" class="edge"><title>1036&#45;&gt;1012</title>
<path fill="none" stroke="black" d="M162.192,-476.819C162.131,-468.761 162.065,-460.109 162,-451.458"/>
<polygon fill="black" stroke="black" points="165.499,-451.313 161.923,-441.339 158.499,-451.366 165.499,-451.313"/>
</g>
<!-- 1048 -->
<g id="node21" class="node"><title>1048</title>
<polygon fill="none" stroke="black" points="305.5,-188 133.5,-188 133.5,-0 305.5,-0 305.5,-188"/>
<text text-anchor="middle" x="219.5" y="-172.8" font-family="Times,serif" font-size="14.00">0x4000a0d019</text>
<text text-anchor="middle" x="219.5" y="-157.8" font-family="Times,serif" font-size="14.00">_______________________</text>
<text text-anchor="middle" x="219.5" y="-142.8" font-family="Times,serif" font-size="14.00">_______________________</text>
<text text-anchor="middle" x="219.5" y="-127.8" font-family="Times,serif" font-size="14.00">leaq &#45;0x28(%rbp), %rsp</text>
<text text-anchor="middle" x="219.5" y="-112.8" font-family="Times,serif" font-size="14.00">movq %r13, %rax</text>
<text text-anchor="middle" x="219.5" y="-97.8" font-family="Times,serif" font-size="14.00">popq %rbx</text>
<text text-anchor="middle" x="219.5" y="-82.8" font-family="Times,serif" font-size="14.00">popq %r12</text>
<text text-anchor="middle" x="219.5" y="-67.8" font-family="Times,serif" font-size="14.00">popq %r13</text>
<text text-anchor="middle" x="219.5" y="-52.8" font-family="Times,serif" font-size="14.00">popq %r14</text>
<text text-anchor="middle" x="219.5" y="-37.8" font-family="Times,serif" font-size="14.00">popq %r15</text>
<text text-anchor="middle" x="219.5" y="-22.8" font-family="Times,serif" font-size="14.00">popq %rbp</text>
<text text-anchor="middle" x="219.5" y="-7.8" font-family="Times,serif" font-size="14.00">retq </text>
</g>
<!-- 1013&#45;&gt;1048 -->
<g id="edge22" class="edge"><title>1013&#45;&gt;1048</title>
<path fill="none" stroke="black" d="M174.172,-223.826C176.982,-215.842 180.131,-206.892 183.425,-197.528"/>
<polygon fill="black" stroke="black" points="186.744,-198.642 186.761,-188.047 180.141,-196.318 186.744,-198.642"/>
</g>
<!-- 1044&#45;&gt;1007 -->
<g id="edge25" class="edge"><title>1044&#45;&gt;1007</title>
<path fill="none" stroke="black" d="M194.996,-1325.81C191.62,-1317.1 188.167,-1308.19 184.833,-1299.6"/>
<polygon fill="black" stroke="black" points="188.008,-1298.1 181.129,-1290.04 181.481,-1300.63 188.008,-1298.1"/>
</g>
<!-- 1047 -->
<g id="node24" class="node"><title>1047</title>
<polygon fill="none" stroke="black" points="363.5,-694 191.5,-694 191.5,-596 363.5,-596 363.5,-694"/>
<text text-anchor="middle" x="277.5" y="-678.8" font-family="Times,serif" font-size="14.00">0x4000a0d27e</text>
<text text-anchor="middle" x="277.5" y="-663.8" font-family="Times,serif" font-size="14.00">_______________________</text>
<text text-anchor="middle" x="277.5" y="-648.8" font-family="Times,serif" font-size="14.00">_______________________</text>
<text text-anchor="middle" x="277.5" y="-633.8" font-family="Times,serif" font-size="14.00">movq $0, (%r15)</text>
<text text-anchor="middle" x="277.5" y="-618.8" font-family="Times,serif" font-size="14.00">xorl %r13d, %r13d</text>
<text text-anchor="middle" x="277.5" y="-603.8" font-family="Times,serif" font-size="14.00">jmp 0x4000a0d019</text>
</g>
<!-- 1046&#45;&gt;1047 -->
<g id="edge27" class="edge"><title>1046&#45;&gt;1047</title>
<path fill="none" stroke="black" d="M277.5,-744.722C277.5,-731.497 277.5,-717.361 277.5,-704.038"/>
<polygon fill="black" stroke="black" points="281,-704.038 277.5,-694.038 274,-704.038 281,-704.038"/>
</g>
<!-- 1047&#45;&gt;1048 -->
<g id="edge28" class="edge"><title>1047&#45;&gt;1048</title>
<path fill="none" stroke="black" d="M278.919,-595.731C280.399,-517.205 279.952,-357.169 257.5,-224 256.062,-215.469 254.244,-206.705 252.186,-197.954"/>
<polygon fill="black" stroke="black" points="255.549,-196.972 249.768,-188.093 248.75,-198.639 255.549,-196.972"/>
</g>
</g>
</svg>
