<?xml version="1.0" encoding="UTF-8" standalone="no"?>
<!DOCTYPE svg PUBLIC "-//W3C//DTD SVG 1.1//EN"
 "http://www.w3.org/Graphics/SVG/1.1/DTD/svg11.dtd">
<!-- Generated by graphviz version 2.38.0 (20140413.2041)
 -->
<!-- Title: %3 Pages: 1 -->
<svg width="370pt" height="1031pt"
 viewBox="0.00 0.00 370.00 1031.00" xmlns="http://www.w3.org/2000/svg" xmlns:xlink="http://www.w3.org/1999/xlink">
<g id="graph0" class="graph" transform="scale(1 1) rotate(0) translate(4 1027)">
<title>%3</title>
<polygon fill="white" stroke="none" points="-4,4 -4,-1027 366,-1027 366,4 -4,4"/>
<!-- 306 -->
<g id="node1" class="node"><title>306</title>
<polygon fill="none" stroke="black" points="229,-1023 57,-1023 57,-790 229,-790 229,-1023"/>
<text text-anchor="middle" x="143" y="-1007.8" font-family="Times,serif" font-size="14.00">0x4000a1c3a0</text>
<text text-anchor="middle" x="143" y="-992.8" font-family="Times,serif" font-size="14.00">_______________________</text>
<text text-anchor="middle" x="143" y="-977.8" font-family="Times,serif" font-size="14.00">_______________________</text>
<text text-anchor="middle" x="143" y="-962.8" font-family="Times,serif" font-size="14.00">testq %rdi, %rdi</text>
<text text-anchor="middle" x="143" y="-947.8" font-family="Times,serif" font-size="14.00">pushq %r15</text>
<text text-anchor="middle" x="143" y="-932.8" font-family="Times,serif" font-size="14.00">movq %r9, %r15</text>
<text text-anchor="middle" x="143" y="-917.8" font-family="Times,serif" font-size="14.00">pushq %r14</text>
<text text-anchor="middle" x="143" y="-902.8" font-family="Times,serif" font-size="14.00">movl %ecx, %r14d</text>
<text text-anchor="middle" x="143" y="-887.8" font-family="Times,serif" font-size="14.00">pushq %r13</text>
<text text-anchor="middle" x="143" y="-872.8" font-family="Times,serif" font-size="14.00">movq %rsi, %r13</text>
<text text-anchor="middle" x="143" y="-857.8" font-family="Times,serif" font-size="14.00">pushq %r12</text>
<text text-anchor="middle" x="143" y="-842.8" font-family="Times,serif" font-size="14.00">movq %rdi, %r12</text>
<text text-anchor="middle" x="143" y="-827.8" font-family="Times,serif" font-size="14.00">pushq %rbp</text>
<text text-anchor="middle" x="143" y="-812.8" font-family="Times,serif" font-size="14.00">pushq %rbx</text>
<text text-anchor="middle" x="143" y="-797.8" font-family="Times,serif" font-size="14.00">je 0x4000a1c3f0</text>
</g>
<!-- 307 -->
<g id="node2" class="node"><title>307</title>
<polygon fill="none" stroke="black" points="286,-754 114,-754 114,-671 286,-671 286,-754"/>
<text text-anchor="middle" x="200" y="-738.8" font-family="Times,serif" font-size="14.00">0x4000a1c3f0</text>
<text text-anchor="middle" x="200" y="-723.8" font-family="Times,serif" font-size="14.00">_______________________</text>
<text text-anchor="middle" x="200" y="-708.8" font-family="Times,serif" font-size="14.00">_______________________</text>
<text text-anchor="middle" x="200" y="-693.8" font-family="Times,serif" font-size="14.00">testb $4, %dl</text>
<text text-anchor="middle" x="200" y="-678.8" font-family="Times,serif" font-size="14.00">je 0x4000a1c3bb</text>
</g>
<!-- 306&#45;&gt;307 -->
<g id="edge1" class="edge"><title>306&#45;&gt;307</title>
<path fill="none" stroke="black" d="M177.308,-789.935C179.99,-780.901 182.601,-772.109 185.039,-763.896"/>
<polygon fill="black" stroke="black" points="188.43,-764.772 187.92,-754.189 181.719,-762.779 188.43,-764.772"/>
</g>
<!-- 308 -->
<g id="node3" class="node"><title>308</title>
<polygon fill="none" stroke="black" points="172,-620 0,-620 0,-537 172,-537 172,-620"/>
<text text-anchor="middle" x="86" y="-604.8" font-family="Times,serif" font-size="14.00">0x4000a1c3bb</text>
<text text-anchor="middle" x="86" y="-589.8" font-family="Times,serif" font-size="14.00">_______________________</text>
<text text-anchor="middle" x="86" y="-574.8" font-family="Times,serif" font-size="14.00">_______________________</text>
<text text-anchor="middle" x="86" y="-559.8" font-family="Times,serif" font-size="14.00">movslq %r8d, %rbp</text>
<text text-anchor="middle" x="86" y="-544.8" font-family="Times,serif" font-size="14.00">movslq %edx, %rbx</text>
</g>
<!-- 306&#45;&gt;308 -->
<g id="edge2" class="edge"><title>306&#45;&gt;308</title>
<path fill="none" stroke="black" d="M112.215,-789.638C109.547,-777.651 107.078,-765.611 105,-754 97.5968,-712.637 92.6565,-665.206 89.6737,-630.245"/>
<polygon fill="black" stroke="black" points="93.1614,-629.951 88.8471,-620.274 86.1853,-630.529 93.1614,-629.951"/>
</g>
<!-- 307&#45;&gt;308 -->
<g id="edge3" class="edge"><title>307&#45;&gt;308</title>
<path fill="none" stroke="black" d="M164.866,-670.819C153.164,-657.269 140.012,-642.04 127.852,-627.96"/>
<polygon fill="black" stroke="black" points="130.399,-625.555 121.214,-620.274 125.102,-630.13 130.399,-625.555"/>
</g>
<!-- 639 -->
<g id="node4" class="node"><title>639</title>
<polygon fill="none" stroke="black" points="362,-635 190,-635 190,-522 362,-522 362,-635"/>
<text text-anchor="middle" x="276" y="-619.8" font-family="Times,serif" font-size="14.00">0x4000a1c3f5</text>
<text text-anchor="middle" x="276" y="-604.8" font-family="Times,serif" font-size="14.00">_______________________</text>
<text text-anchor="middle" x="276" y="-589.8" font-family="Times,serif" font-size="14.00">_______________________</text>
<text text-anchor="middle" x="276" y="-574.8" font-family="Times,serif" font-size="14.00">testb $1, 0x20995e(%rip)</text>
<text text-anchor="middle" x="276" y="-559.8" font-family="Times,serif" font-size="14.00">movslq %r8d, %rbp</text>
<text text-anchor="middle" x="276" y="-544.8" font-family="Times,serif" font-size="14.00">movslq %edx, %rbx</text>
<text text-anchor="middle" x="276" y="-529.8" font-family="Times,serif" font-size="14.00">je 0x4000a1c3c1</text>
</g>
<!-- 307&#45;&gt;639 -->
<g id="edge4" class="edge"><title>307&#45;&gt;639</title>
<path fill="none" stroke="black" d="M223.423,-670.819C228.314,-662.323 233.586,-653.167 238.836,-644.048"/>
<polygon fill="black" stroke="black" points="241.894,-645.752 243.85,-635.339 235.827,-642.259 241.894,-645.752"/>
</g>
<!-- 640 -->
<g id="node5" class="node"><title>640</title>
<polygon fill="none" stroke="black" points="267,-486 95,-486 95,-313 267,-313 267,-486"/>
<text text-anchor="middle" x="181" y="-470.8" font-family="Times,serif" font-size="14.00">0x4000a1c3c1</text>
<text text-anchor="middle" x="181" y="-455.8" font-family="Times,serif" font-size="14.00">_______________________</text>
<text text-anchor="middle" x="181" y="-440.8" font-family="Times,serif" font-size="14.00">_______________________</text>
<text text-anchor="middle" x="181" y="-425.8" font-family="Times,serif" font-size="14.00">movq %r15, %r9</text>
<text text-anchor="middle" x="181" y="-410.8" font-family="Times,serif" font-size="14.00">movq %rbp, %r8</text>
<text text-anchor="middle" x="181" y="-395.8" font-family="Times,serif" font-size="14.00">movslq %r14d, %r10</text>
<text text-anchor="middle" x="181" y="-380.8" font-family="Times,serif" font-size="14.00">movq %rbx, %rdx</text>
<text text-anchor="middle" x="181" y="-365.8" font-family="Times,serif" font-size="14.00">movq %r13, %rsi</text>
<text text-anchor="middle" x="181" y="-350.8" font-family="Times,serif" font-size="14.00">movq %r12, %rdi</text>
<text text-anchor="middle" x="181" y="-335.8" font-family="Times,serif" font-size="14.00">movl $9, %eax</text>
<text text-anchor="middle" x="181" y="-320.8" font-family="Times,serif" font-size="14.00">syscall </text>
</g>
<!-- 308&#45;&gt;640 -->
<g id="edge5" class="edge"><title>308&#45;&gt;640</title>
<path fill="none" stroke="black" d="M107.795,-536.893C114.554,-524.299 122.307,-509.854 130.183,-495.181"/>
<polygon fill="black" stroke="black" points="133.449,-496.496 135.094,-486.03 127.281,-493.186 133.449,-496.496"/>
</g>
<!-- 639&#45;&gt;640 -->
<g id="edge7" class="edge"><title>639&#45;&gt;640</title>
<path fill="none" stroke="black" d="M246.202,-521.982C241.584,-513.377 236.705,-504.286 231.778,-495.108"/>
<polygon fill="black" stroke="black" points="234.861,-493.45 227.048,-486.294 228.693,-496.76 234.861,-493.45"/>
</g>
<!-- 309 -->
<g id="node6" class="node"><title>309</title>
<polygon fill="none" stroke="black" points="267,-277 95,-277 95,-194 267,-194 267,-277"/>
<text text-anchor="middle" x="181" y="-261.8" font-family="Times,serif" font-size="14.00">0x4000a1c3da</text>
<text text-anchor="middle" x="181" y="-246.8" font-family="Times,serif" font-size="14.00">_______________________</text>
<text text-anchor="middle" x="181" y="-231.8" font-family="Times,serif" font-size="14.00">_______________________</text>
<text text-anchor="middle" x="181" y="-216.8" font-family="Times,serif" font-size="14.00">cmpq $&#45;0x1000, %rax</text>
<text text-anchor="middle" x="181" y="-201.8" font-family="Times,serif" font-size="14.00">ja 0x4000a1c430</text>
</g>
<!-- 640&#45;&gt;309 -->
<g id="edge8" class="edge"><title>640&#45;&gt;309</title>
<path fill="none" stroke="black" d="M181,-312.756C181,-304.005 181,-295.327 181,-287.134"/>
<polygon fill="black" stroke="black" points="184.5,-287.046 181,-277.046 177.5,-287.046 184.5,-287.046"/>
</g>
<!-- 310 -->
<g id="node7" class="node"><title>310</title>
<polygon fill="none" stroke="black" points="267,-158 95,-158 95,-0 267,-0 267,-158"/>
<text text-anchor="middle" x="181" y="-142.8" font-family="Times,serif" font-size="14.00">0x4000a1c3e2</text>
<text text-anchor="middle" x="181" y="-127.8" font-family="Times,serif" font-size="14.00">_______________________</text>
<text text-anchor="middle" x="181" y="-112.8" font-family="Times,serif" font-size="14.00">_______________________</text>
<text text-anchor="middle" x="181" y="-97.8" font-family="Times,serif" font-size="14.00">popq %rbx</text>
<text text-anchor="middle" x="181" y="-82.8" font-family="Times,serif" font-size="14.00">popq %rbp</text>
<text text-anchor="middle" x="181" y="-67.8" font-family="Times,serif" font-size="14.00">popq %r12</text>
<text text-anchor="middle" x="181" y="-52.8" font-family="Times,serif" font-size="14.00">popq %r13</text>
<text text-anchor="middle" x="181" y="-37.8" font-family="Times,serif" font-size="14.00">popq %r14</text>
<text text-anchor="middle" x="181" y="-22.8" font-family="Times,serif" font-size="14.00">popq %r15</text>
<text text-anchor="middle" x="181" y="-7.8" font-family="Times,serif" font-size="14.00">retq </text>
</g>
<!-- 309&#45;&gt;310 -->
<g id="edge6" class="edge"><title>309&#45;&gt;310</title>
<path fill="none" stroke="black" d="M181,-193.907C181,-185.917 181,-177.246 181,-168.375"/>
<polygon fill="black" stroke="black" points="184.5,-168.3 181,-158.3 177.5,-168.3 184.5,-168.3"/>
</g>
</g>
</svg>
