<?xml version="1.0" encoding="UTF-8" standalone="no"?>
<!DOCTYPE svg PUBLIC "-//W3C//DTD SVG 1.1//EN"
 "http://www.w3.org/Graphics/SVG/1.1/DTD/svg11.dtd">
<!-- Generated by graphviz version 2.38.0 (20140413.2041)
 -->
<!-- Title: %3 Pages: 1 -->
<svg width="484pt" height="1835pt"
 viewBox="0.00 0.00 484.00 1835.00" xmlns="http://www.w3.org/2000/svg" xmlns:xlink="http://www.w3.org/1999/xlink">
<g id="graph0" class="graph" transform="scale(1 1) rotate(0) translate(4 1831)">
<title>%3</title>
<polygon fill="white" stroke="none" points="-4,4 -4,-1831 480,-1831 480,4 -4,4"/>
<!-- 871 -->
<g id="node1" class="node"><title>871</title>
<polygon fill="none" stroke="black" points="346.5,-1827 167.5,-1827 167.5,-1684 346.5,-1684 346.5,-1827"/>
<text text-anchor="middle" x="257" y="-1811.8" font-family="Times,serif" font-size="14.00">0x4000a03aa0</text>
<text text-anchor="middle" x="257" y="-1796.8" font-family="Times,serif" font-size="14.00">_______________________</text>
<text text-anchor="middle" x="257" y="-1781.8" font-family="Times,serif" font-size="14.00">_______________________</text>
<text text-anchor="middle" x="257" y="-1766.8" font-family="Times,serif" font-size="14.00">xorl %esi, %esi</text>
<text text-anchor="middle" x="257" y="-1751.8" font-family="Times,serif" font-size="14.00">cmpq $0, 0x2234e6(%rip)</text>
<text text-anchor="middle" x="257" y="-1736.8" font-family="Times,serif" font-size="14.00">pushq %rbx</text>
<text text-anchor="middle" x="257" y="-1721.8" font-family="Times,serif" font-size="14.00">movq 0x2234ae(%rip), %rbx</text>
<text text-anchor="middle" x="257" y="-1706.8" font-family="Times,serif" font-size="14.00">movq %rbx, 0x2234b7(%rip)</text>
<text text-anchor="middle" x="257" y="-1691.8" font-family="Times,serif" font-size="14.00">jne 0x4000a03bec</text>
</g>
<!-- 872 -->
<g id="node2" class="node"><title>872</title>
<polygon fill="none" stroke="black" points="343,-1648 171,-1648 171,-1505 343,-1505 343,-1648"/>
<text text-anchor="middle" x="257" y="-1632.8" font-family="Times,serif" font-size="14.00">0x4000a03abf</text>
<text text-anchor="middle" x="257" y="-1617.8" font-family="Times,serif" font-size="14.00">_______________________</text>
<text text-anchor="middle" x="257" y="-1602.8" font-family="Times,serif" font-size="14.00">_______________________</text>
<text text-anchor="middle" x="257" y="-1587.8" font-family="Times,serif" font-size="14.00">leaq 0x40(%rbx), %rdi</text>
<text text-anchor="middle" x="257" y="-1572.8" font-family="Times,serif" font-size="14.00">movl $1, %esi</text>
<text text-anchor="middle" x="257" y="-1557.8" font-family="Times,serif" font-size="14.00">shlq $4, %rdi</text>
<text text-anchor="middle" x="257" y="-1542.8" font-family="Times,serif" font-size="14.00">callq 0x4000a03a50</text>
<text text-anchor="middle" x="257" y="-1527.8" font-family="Times,serif" font-size="14.00">_______________________</text>
<text text-anchor="middle" x="257" y="-1512.8" font-family="Times,serif" font-size="14.00">CALL 0x4000a03a50</text>
</g>
<!-- 871&#45;&gt;872 -->
<g id="edge1" class="edge"><title>871&#45;&gt;872</title>
<path fill="none" stroke="black" d="M257,-1683.78C257,-1675.43 257,-1666.86 257,-1658.38"/>
<polygon fill="black" stroke="black" points="260.5,-1658.11 257,-1648.11 253.5,-1658.11 260.5,-1658.11"/>
</g>
<!-- 873 -->
<g id="node3" class="node"><title>873</title>
<polygon fill="none" stroke="black" points="346.5,-1469 167.5,-1469 167.5,-1311 346.5,-1311 346.5,-1469"/>
<text text-anchor="middle" x="257" y="-1453.8" font-family="Times,serif" font-size="14.00">0x4000a03ad1</text>
<text text-anchor="middle" x="257" y="-1438.8" font-family="Times,serif" font-size="14.00">_______________________</text>
<text text-anchor="middle" x="257" y="-1423.8" font-family="Times,serif" font-size="14.00">_______________________</text>
<text text-anchor="middle" x="257" y="-1408.8" font-family="Times,serif" font-size="14.00">cmpq $0, 0x2225f7(%rip)</text>
<text text-anchor="middle" x="257" y="-1393.8" font-family="Times,serif" font-size="14.00">leaq 0x3f(%rbx), %rdx</text>
<text text-anchor="middle" x="257" y="-1378.8" font-family="Times,serif" font-size="14.00">movq %rax, 0x223484(%rip)</text>
<text text-anchor="middle" x="257" y="-1363.8" font-family="Times,serif" font-size="14.00">leaq 0x10(%rax), %rsi</text>
<text text-anchor="middle" x="257" y="-1348.8" font-family="Times,serif" font-size="14.00">movq $0, 8(%rax)</text>
<text text-anchor="middle" x="257" y="-1333.8" font-family="Times,serif" font-size="14.00">movq %rdx, (%rax)</text>
<text text-anchor="middle" x="257" y="-1318.8" font-family="Times,serif" font-size="14.00">je 0x4000a03b14</text>
</g>
<!-- 872&#45;&gt;873 -->
<g id="edge2" class="edge"><title>872&#45;&gt;873</title>
<path fill="none" stroke="black" d="M257,-1504.96C257,-1496.55 257,-1487.89 257,-1479.27"/>
<polygon fill="black" stroke="black" points="260.5,-1479.19 257,-1469.19 253.5,-1479.19 260.5,-1479.19"/>
</g>
<!-- 874 -->
<g id="node4" class="node"><title>874</title>
<polygon fill="none" stroke="black" points="346.5,-1275 167.5,-1275 167.5,-1192 346.5,-1192 346.5,-1275"/>
<text text-anchor="middle" x="257" y="-1259.8" font-family="Times,serif" font-size="14.00">0x4000a03b14</text>
<text text-anchor="middle" x="257" y="-1244.8" font-family="Times,serif" font-size="14.00">_______________________</text>
<text text-anchor="middle" x="257" y="-1229.8" font-family="Times,serif" font-size="14.00">_______________________</text>
<text text-anchor="middle" x="257" y="-1214.8" font-family="Times,serif" font-size="14.00">movq 0x222525(%rip), %rdx</text>
<text text-anchor="middle" x="257" y="-1199.8" font-family="Times,serif" font-size="14.00">xorl %eax, %eax</text>
</g>
<!-- 873&#45;&gt;874 -->
<g id="edge3" class="edge"><title>873&#45;&gt;874</title>
<path fill="none" stroke="black" d="M257,-1310.84C257,-1302.21 257,-1293.6 257,-1285.43"/>
<polygon fill="black" stroke="black" points="260.5,-1285.35 257,-1275.35 253.5,-1285.35 260.5,-1285.35"/>
</g>
<!-- 877 -->
<g id="node5" class="node"><title>877</title>
<polygon fill="none" stroke="black" points="343,-1156 171,-1156 171,-1073 343,-1073 343,-1156"/>
<text text-anchor="middle" x="257" y="-1140.8" font-family="Times,serif" font-size="14.00">0x4000a03b1d</text>
<text text-anchor="middle" x="257" y="-1125.8" font-family="Times,serif" font-size="14.00">_______________________</text>
<text text-anchor="middle" x="257" y="-1110.8" font-family="Times,serif" font-size="14.00">_______________________</text>
<text text-anchor="middle" x="257" y="-1095.8" font-family="Times,serif" font-size="14.00">testq %rdx, %rdx</text>
<text text-anchor="middle" x="257" y="-1080.8" font-family="Times,serif" font-size="14.00">je 0x4000a03b40</text>
</g>
<!-- 874&#45;&gt;877 -->
<g id="edge4" class="edge"><title>874&#45;&gt;877</title>
<path fill="none" stroke="black" d="M257,-1191.91C257,-1183.65 257,-1174.86 257,-1166.3"/>
<polygon fill="black" stroke="black" points="260.5,-1166.02 257,-1156.02 253.5,-1166.02 260.5,-1166.02"/>
</g>
<!-- 875 -->
<g id="node6" class="node"><title>875</title>
<polygon fill="none" stroke="black" points="229,-1037 57,-1037 57,-924 229,-924 229,-1037"/>
<text text-anchor="middle" x="143" y="-1021.8" font-family="Times,serif" font-size="14.00">0x4000a03b22</text>
<text text-anchor="middle" x="143" y="-1006.8" font-family="Times,serif" font-size="14.00">_______________________</text>
<text text-anchor="middle" x="143" y="-991.8" font-family="Times,serif" font-size="14.00">_______________________</text>
<text text-anchor="middle" x="143" y="-976.8" font-family="Times,serif" font-size="14.00">cmpq $0, 0x428(%rdx)</text>
<text text-anchor="middle" x="143" y="-961.8" font-family="Times,serif" font-size="14.00">je 0x4000a03b3a</text>
<text text-anchor="middle" x="143" y="-946.8" font-family="Times,serif" font-size="14.00">_______________________</text>
<text text-anchor="middle" x="143" y="-931.8" font-family="Times,serif" font-size="14.00">LOOP 0x4000a03b1d</text>
</g>
<!-- 877&#45;&gt;875 -->
<g id="edge8" class="edge"><title>877&#45;&gt;875</title>
<path fill="none" stroke="black" d="M221.866,-1072.82C214.226,-1063.97 205.968,-1054.41 197.772,-1044.92"/>
<polygon fill="black" stroke="black" points="200.41,-1042.62 191.225,-1037.34 195.112,-1047.2 200.41,-1042.62"/>
</g>
<!-- 879 -->
<g id="node9" class="node"><title>879</title>
<polygon fill="none" stroke="black" points="462,-1029.5 290,-1029.5 290,-931.5 462,-931.5 462,-1029.5"/>
<text text-anchor="middle" x="376" y="-1014.3" font-family="Times,serif" font-size="14.00">0x4000a03b40</text>
<text text-anchor="middle" x="376" y="-999.3" font-family="Times,serif" font-size="14.00">_______________________</text>
<text text-anchor="middle" x="376" y="-984.3" font-family="Times,serif" font-size="14.00">_______________________</text>
<text text-anchor="middle" x="376" y="-969.3" font-family="Times,serif" font-size="14.00">cltq </text>
<text text-anchor="middle" x="376" y="-954.3" font-family="Times,serif" font-size="14.00">cmpq %rax, %rbx</text>
<text text-anchor="middle" x="376" y="-939.3" font-family="Times,serif" font-size="14.00">je 0x4000a03b66</text>
</g>
<!-- 877&#45;&gt;879 -->
<g id="edge9" class="edge"><title>877&#45;&gt;879</title>
<path fill="none" stroke="black" d="M293.675,-1072.82C303.759,-1061.63 314.873,-1049.3 325.585,-1037.42"/>
<polygon fill="black" stroke="black" points="328.455,-1039.47 332.552,-1029.69 323.256,-1034.78 328.455,-1039.47"/>
</g>
<!-- 876 -->
<g id="node7" class="node"><title>876</title>
<polygon fill="none" stroke="black" points="283,-709 111,-709 111,-596 283,-596 283,-709"/>
<text text-anchor="middle" x="197" y="-693.8" font-family="Times,serif" font-size="14.00">0x4000a03b3a</text>
<text text-anchor="middle" x="197" y="-678.8" font-family="Times,serif" font-size="14.00">_______________________</text>
<text text-anchor="middle" x="197" y="-663.8" font-family="Times,serif" font-size="14.00">_______________________</text>
<text text-anchor="middle" x="197" y="-648.8" font-family="Times,serif" font-size="14.00">movq 0x18(%rdx), %rdx</text>
<text text-anchor="middle" x="197" y="-633.8" font-family="Times,serif" font-size="14.00">jmp 0x4000a03b1d</text>
<text text-anchor="middle" x="197" y="-618.8" font-family="Times,serif" font-size="14.00">_______________________</text>
<text text-anchor="middle" x="197" y="-603.8" font-family="Times,serif" font-size="14.00">LOOP 0x4000a03b1d</text>
</g>
<!-- 875&#45;&gt;876 -->
<g id="edge5" class="edge"><title>875&#45;&gt;876</title>
<path fill="none" stroke="black" d="M169.474,-923.836C174.038,-912.221 178.205,-899.889 181,-888 194.136,-832.118 197.667,-766.839 198.182,-719.367"/>
<polygon fill="black" stroke="black" points="201.683,-719.238 198.249,-709.215 194.683,-719.192 201.683,-719.238"/>
</g>
<!-- 878 -->
<g id="node8" class="node"><title>878</title>
<polygon fill="none" stroke="black" points="172,-888 0,-888 0,-745 172,-745 172,-888"/>
<text text-anchor="middle" x="86" y="-872.8" font-family="Times,serif" font-size="14.00">0x4000a03b2c</text>
<text text-anchor="middle" x="86" y="-857.8" font-family="Times,serif" font-size="14.00">_______________________</text>
<text text-anchor="middle" x="86" y="-842.8" font-family="Times,serif" font-size="14.00">_______________________</text>
<text text-anchor="middle" x="86" y="-827.8" font-family="Times,serif" font-size="14.00">movslq %eax, %rcx</text>
<text text-anchor="middle" x="86" y="-812.8" font-family="Times,serif" font-size="14.00">incl %eax</text>
<text text-anchor="middle" x="86" y="-797.8" font-family="Times,serif" font-size="14.00">shlq $4, %rcx</text>
<text text-anchor="middle" x="86" y="-782.8" font-family="Times,serif" font-size="14.00">movq %rdx, 8(%rsi, %rcx)</text>
<text text-anchor="middle" x="86" y="-767.8" font-family="Times,serif" font-size="14.00">_______________________</text>
<text text-anchor="middle" x="86" y="-752.8" font-family="Times,serif" font-size="14.00">LOOP 0x4000a03b1d</text>
</g>
<!-- 875&#45;&gt;878 -->
<g id="edge6" class="edge"><title>875&#45;&gt;878</title>
<path fill="none" stroke="black" d="M123.384,-923.749C120.428,-915.347 117.33,-906.543 114.236,-897.75"/>
<polygon fill="black" stroke="black" points="117.508,-896.505 110.888,-888.233 110.905,-898.828 117.508,-896.505"/>
</g>
<!-- 876&#45;&gt;877 -->
<g id="edge7" class="edge"><title>876&#45;&gt;877</title>
<path fill="none" stroke="black" d="M206.263,-709.078C215.166,-763.682 228.615,-849.422 238,-924 243.886,-970.779 249.11,-1024.24 252.583,-1062.42"/>
<polygon fill="black" stroke="black" points="249.132,-1063.13 253.515,-1072.77 256.104,-1062.5 249.132,-1063.13"/>
</g>
<!-- 878&#45;&gt;876 -->
<g id="edge10" class="edge"><title>878&#45;&gt;876</title>
<path fill="none" stroke="black" d="M134.363,-744.916C140.562,-735.87 146.881,-726.647 153.004,-717.71"/>
<polygon fill="black" stroke="black" points="156.04,-719.472 158.805,-709.244 150.265,-715.515 156.04,-719.472"/>
</g>
<!-- 880 -->
<g id="node10" class="node"><title>880</title>
<polygon fill="none" stroke="black" points="471,-865.5 299,-865.5 299,-767.5 471,-767.5 471,-865.5"/>
<text text-anchor="middle" x="385" y="-850.3" font-family="Times,serif" font-size="14.00">0x4000a03b66</text>
<text text-anchor="middle" x="385" y="-835.3" font-family="Times,serif" font-size="14.00">_______________________</text>
<text text-anchor="middle" x="385" y="-820.3" font-family="Times,serif" font-size="14.00">_______________________</text>
<text text-anchor="middle" x="385" y="-805.3" font-family="Times,serif" font-size="14.00">callq 0x4000a150b0</text>
<text text-anchor="middle" x="385" y="-790.3" font-family="Times,serif" font-size="14.00">_______________________</text>
<text text-anchor="middle" x="385" y="-775.3" font-family="Times,serif" font-size="14.00">CALL 0x4000a150b0</text>
</g>
<!-- 879&#45;&gt;880 -->
<g id="edge11" class="edge"><title>879&#45;&gt;880</title>
<path fill="none" stroke="black" d="M378.676,-931.333C379.642,-913.944 380.743,-894.124 381.753,-875.95"/>
<polygon fill="black" stroke="black" points="385.259,-875.94 382.319,-865.761 378.269,-875.551 385.259,-875.94"/>
</g>
<!-- 890 -->
<g id="node11" class="node"><title>890</title>
<polygon fill="none" stroke="black" points="473,-701.5 301,-701.5 301,-603.5 473,-603.5 473,-701.5"/>
<text text-anchor="middle" x="387" y="-686.3" font-family="Times,serif" font-size="14.00">0x4000a03b6b</text>
<text text-anchor="middle" x="387" y="-671.3" font-family="Times,serif" font-size="14.00">_______________________</text>
<text text-anchor="middle" x="387" y="-656.3" font-family="Times,serif" font-size="14.00">_______________________</text>
<text text-anchor="middle" x="387" y="-641.3" font-family="Times,serif" font-size="14.00">callq 0x4000a15280</text>
<text text-anchor="middle" x="387" y="-626.3" font-family="Times,serif" font-size="14.00">_______________________</text>
<text text-anchor="middle" x="387" y="-611.3" font-family="Times,serif" font-size="14.00">CALL 0x4000a15280</text>
</g>
<!-- 880&#45;&gt;890 -->
<g id="edge12" class="edge"><title>880&#45;&gt;890</title>
<path fill="none" stroke="black" d="M385.595,-767.333C385.809,-749.944 386.054,-730.124 386.278,-711.95"/>
<polygon fill="black" stroke="black" points="389.78,-711.803 386.404,-701.761 382.781,-711.717 389.78,-711.803"/>
</g>
<!-- 901 -->
<g id="node12" class="node"><title>901</title>
<polygon fill="none" stroke="black" points="473,-560 301,-560 301,-462 473,-462 473,-560"/>
<text text-anchor="middle" x="387" y="-544.8" font-family="Times,serif" font-size="14.00">0x4000a03b70</text>
<text text-anchor="middle" x="387" y="-529.8" font-family="Times,serif" font-size="14.00">_______________________</text>
<text text-anchor="middle" x="387" y="-514.8" font-family="Times,serif" font-size="14.00">_______________________</text>
<text text-anchor="middle" x="387" y="-499.8" font-family="Times,serif" font-size="14.00">testq %rax, %rax</text>
<text text-anchor="middle" x="387" y="-484.8" font-family="Times,serif" font-size="14.00">movq %rax, %rsi</text>
<text text-anchor="middle" x="387" y="-469.8" font-family="Times,serif" font-size="14.00">jne 0x4000a03b9a</text>
</g>
<!-- 890&#45;&gt;901 -->
<g id="edge13" class="edge"><title>890&#45;&gt;901</title>
<path fill="none" stroke="black" d="M387,-603.492C387,-592.751 387,-581.246 387,-570.145"/>
<polygon fill="black" stroke="black" points="390.5,-570.096 387,-560.096 383.5,-570.097 390.5,-570.096"/>
</g>
<!-- 902 -->
<g id="node13" class="node"><title>902</title>
<polygon fill="none" stroke="black" points="476,-426 298,-426 298,-268 476,-268 476,-426"/>
<text text-anchor="middle" x="387" y="-410.8" font-family="Times,serif" font-size="14.00">0x4000a03b9a</text>
<text text-anchor="middle" x="387" y="-395.8" font-family="Times,serif" font-size="14.00">_______________________</text>
<text text-anchor="middle" x="387" y="-380.8" font-family="Times,serif" font-size="14.00">_______________________</text>
<text text-anchor="middle" x="387" y="-365.8" font-family="Times,serif" font-size="14.00">movq 8(%rax), %rax</text>
<text text-anchor="middle" x="387" y="-350.8" font-family="Times,serif" font-size="14.00">movl $0x1002, %edi</text>
<text text-anchor="middle" x="387" y="-335.8" font-family="Times,serif" font-size="14.00">movq %rax, 0x2233e6(%rip)</text>
<text text-anchor="middle" x="387" y="-320.8" font-family="Times,serif" font-size="14.00">movq %rsi, (%rsi)</text>
<text text-anchor="middle" x="387" y="-305.8" font-family="Times,serif" font-size="14.00">movl $0x9e, %eax</text>
<text text-anchor="middle" x="387" y="-290.8" font-family="Times,serif" font-size="14.00">movq %rsi, 0x10(%rsi)</text>
<text text-anchor="middle" x="387" y="-275.8" font-family="Times,serif" font-size="14.00">syscall </text>
</g>
<!-- 901&#45;&gt;902 -->
<g id="edge14" class="edge"><title>901&#45;&gt;902</title>
<path fill="none" stroke="black" d="M387,-461.833C387,-453.634 387,-444.894 387,-436.041"/>
<polygon fill="black" stroke="black" points="390.5,-436.02 387,-426.02 383.5,-436.02 390.5,-436.02"/>
</g>
<!-- 903 -->
<g id="node14" class="node"><title>903</title>
<polygon fill="none" stroke="black" points="473,-232 301,-232 301,-149 473,-149 473,-232"/>
<text text-anchor="middle" x="387" y="-216.8" font-family="Times,serif" font-size="14.00">0x4000a03bb8</text>
<text text-anchor="middle" x="387" y="-201.8" font-family="Times,serif" font-size="14.00">_______________________</text>
<text text-anchor="middle" x="387" y="-186.8" font-family="Times,serif" font-size="14.00">_______________________</text>
<text text-anchor="middle" x="387" y="-171.8" font-family="Times,serif" font-size="14.00">testl %eax, %eax</text>
<text text-anchor="middle" x="387" y="-156.8" font-family="Times,serif" font-size="14.00">je 0x4000a03be5</text>
</g>
<!-- 902&#45;&gt;903 -->
<g id="edge15" class="edge"><title>902&#45;&gt;903</title>
<path fill="none" stroke="black" d="M387,-267.845C387,-259.214 387,-250.599 387,-242.429"/>
<polygon fill="black" stroke="black" points="390.5,-242.352 387,-232.352 383.5,-242.352 390.5,-242.352"/>
</g>
<!-- 904 -->
<g id="node15" class="node"><title>904</title>
<polygon fill="none" stroke="black" points="473,-113 301,-113 301,-0 473,-0 473,-113"/>
<text text-anchor="middle" x="387" y="-97.8" font-family="Times,serif" font-size="14.00">0x4000a03be5</text>
<text text-anchor="middle" x="387" y="-82.8" font-family="Times,serif" font-size="14.00">_______________________</text>
<text text-anchor="middle" x="387" y="-67.8" font-family="Times,serif" font-size="14.00">_______________________</text>
<text text-anchor="middle" x="387" y="-52.8" font-family="Times,serif" font-size="14.00">movb $1, 0x2233ec(%rip)</text>
<text text-anchor="middle" x="387" y="-37.8" font-family="Times,serif" font-size="14.00">movq %rsi, %rax</text>
<text text-anchor="middle" x="387" y="-22.8" font-family="Times,serif" font-size="14.00">popq %rbx</text>
<text text-anchor="middle" x="387" y="-7.8" font-family="Times,serif" font-size="14.00">retq </text>
</g>
<!-- 903&#45;&gt;904 -->
<g id="edge16" class="edge"><title>903&#45;&gt;904</title>
<path fill="none" stroke="black" d="M387,-148.819C387,-140.761 387,-132.109 387,-123.458"/>
<polygon fill="black" stroke="black" points="390.5,-123.339 387,-113.339 383.5,-123.339 390.5,-123.339"/>
</g>
</g>
</svg>
