<?xml version="1.0" encoding="UTF-8" standalone="no"?>
<!DOCTYPE svg PUBLIC "-//W3C//DTD SVG 1.1//EN"
 "http://www.w3.org/Graphics/SVG/1.1/DTD/svg11.dtd">
<!-- Generated by graphviz version 2.38.0 (20140413.2041)
 -->
<!-- Title: %3 Pages: 1 -->
<svg width="370pt" height="1807pt"
 viewBox="0.00 0.00 370.00 1807.00" xmlns="http://www.w3.org/2000/svg" xmlns:xlink="http://www.w3.org/1999/xlink">
<g id="graph0" class="graph" transform="scale(1 1) rotate(0) translate(4 1803)">
<title>%3</title>
<polygon fill="white" stroke="none" points="-4,4 -4,-1803 366,-1803 366,4 -4,4"/>
<!-- 242 -->
<g id="node1" class="node"><title>242</title>
<polygon fill="none" stroke="black" points="301.5,-1799 122.5,-1799 122.5,-1581 301.5,-1581 301.5,-1799"/>
<text text-anchor="middle" x="212" y="-1783.8" font-family="Times,serif" font-size="14.00">0x4000a1a850</text>
<text text-anchor="middle" x="212" y="-1768.8" font-family="Times,serif" font-size="14.00">_______________________</text>
<text text-anchor="middle" x="212" y="-1753.8" font-family="Times,serif" font-size="14.00">_______________________</text>
<text text-anchor="middle" x="212" y="-1738.8" font-family="Times,serif" font-size="14.00">pushq %r15</text>
<text text-anchor="middle" x="212" y="-1723.8" font-family="Times,serif" font-size="14.00">pushq %r14</text>
<text text-anchor="middle" x="212" y="-1708.8" font-family="Times,serif" font-size="14.00">pushq %r13</text>
<text text-anchor="middle" x="212" y="-1693.8" font-family="Times,serif" font-size="14.00">pushq %r12</text>
<text text-anchor="middle" x="212" y="-1678.8" font-family="Times,serif" font-size="14.00">pushq %rbp</text>
<text text-anchor="middle" x="212" y="-1663.8" font-family="Times,serif" font-size="14.00">pushq %rbx</text>
<text text-anchor="middle" x="212" y="-1648.8" font-family="Times,serif" font-size="14.00">subq $0x1e8, %rsp</text>
<text text-anchor="middle" x="212" y="-1633.8" font-family="Times,serif" font-size="14.00">movq 0x20b540(%rip), %rax</text>
<text text-anchor="middle" x="212" y="-1618.8" font-family="Times,serif" font-size="14.00">testq %rax, %rax</text>
<text text-anchor="middle" x="212" y="-1603.8" font-family="Times,serif" font-size="14.00">movq %rax, 8(%rsp)</text>
<text text-anchor="middle" x="212" y="-1588.8" font-family="Times,serif" font-size="14.00">je 0x4000a1a938</text>
</g>
<!-- 243 -->
<g id="node2" class="node"><title>243</title>
<polygon fill="none" stroke="black" points="298,-1545 126,-1545 126,-1417 298,-1417 298,-1545"/>
<text text-anchor="middle" x="212" y="-1529.8" font-family="Times,serif" font-size="14.00">0x4000a1a938</text>
<text text-anchor="middle" x="212" y="-1514.8" font-family="Times,serif" font-size="14.00">_______________________</text>
<text text-anchor="middle" x="212" y="-1499.8" font-family="Times,serif" font-size="14.00">_______________________</text>
<text text-anchor="middle" x="212" y="-1484.8" font-family="Times,serif" font-size="14.00">leaq 0x50(%rsp), %rbx</text>
<text text-anchor="middle" x="212" y="-1469.8" font-family="Times,serif" font-size="14.00">movq %rbx, %rdi</text>
<text text-anchor="middle" x="212" y="-1454.8" font-family="Times,serif" font-size="14.00">callq 0x4000a1c490</text>
<text text-anchor="middle" x="212" y="-1439.8" font-family="Times,serif" font-size="14.00">_______________________</text>
<text text-anchor="middle" x="212" y="-1424.8" font-family="Times,serif" font-size="14.00">CALL 0x4000a1c490</text>
</g>
<!-- 242&#45;&gt;243 -->
<g id="edge1" class="edge"><title>242&#45;&gt;243</title>
<path fill="none" stroke="black" d="M212,-1580.95C212,-1572.24 212,-1563.57 212,-1555.19"/>
<polygon fill="black" stroke="black" points="215.5,-1555.14 212,-1545.14 208.5,-1555.14 215.5,-1555.14"/>
</g>
<!-- 247 -->
<g id="node3" class="node"><title>247</title>
<polygon fill="none" stroke="black" points="298,-1381 126,-1381 126,-1283 298,-1283 298,-1381"/>
<text text-anchor="middle" x="212" y="-1365.8" font-family="Times,serif" font-size="14.00">0x4000a1a945</text>
<text text-anchor="middle" x="212" y="-1350.8" font-family="Times,serif" font-size="14.00">_______________________</text>
<text text-anchor="middle" x="212" y="-1335.8" font-family="Times,serif" font-size="14.00">_______________________</text>
<text text-anchor="middle" x="212" y="-1320.8" font-family="Times,serif" font-size="14.00">testl %eax, %eax</text>
<text text-anchor="middle" x="212" y="-1305.8" font-family="Times,serif" font-size="14.00">leaq 0x82(%rbx), %rdi</text>
<text text-anchor="middle" x="212" y="-1290.8" font-family="Times,serif" font-size="14.00">jne 0x4000a1a9c8</text>
</g>
<!-- 243&#45;&gt;247 -->
<g id="edge2" class="edge"><title>243&#45;&gt;247</title>
<path fill="none" stroke="black" d="M212,-1416.81C212,-1408.29 212,-1399.58 212,-1391.15"/>
<polygon fill="black" stroke="black" points="215.5,-1391.04 212,-1381.04 208.5,-1391.04 215.5,-1391.04"/>
</g>
<!-- 248 -->
<g id="node4" class="node"><title>248</title>
<polygon fill="none" stroke="black" points="298,-1247 126,-1247 126,-1164 298,-1164 298,-1247"/>
<text text-anchor="middle" x="212" y="-1231.8" font-family="Times,serif" font-size="14.00">0x4000a1a950</text>
<text text-anchor="middle" x="212" y="-1216.8" font-family="Times,serif" font-size="14.00">_______________________</text>
<text text-anchor="middle" x="212" y="-1201.8" font-family="Times,serif" font-size="14.00">_______________________</text>
<text text-anchor="middle" x="212" y="-1186.8" font-family="Times,serif" font-size="14.00">xorl %r8d, %r8d</text>
<text text-anchor="middle" x="212" y="-1171.8" font-family="Times,serif" font-size="14.00">xorl %eax, %eax</text>
</g>
<!-- 247&#45;&gt;248 -->
<g id="edge3" class="edge"><title>247&#45;&gt;248</title>
<path fill="none" stroke="black" d="M212,-1282.87C212,-1274.5 212,-1265.77 212,-1257.33"/>
<polygon fill="black" stroke="black" points="215.5,-1257.23 212,-1247.23 208.5,-1257.23 215.5,-1257.23"/>
</g>
<!-- 252 -->
<g id="node5" class="node"><title>252</title>
<polygon fill="none" stroke="black" points="298,-1128 126,-1128 126,-1015 298,-1015 298,-1128"/>
<text text-anchor="middle" x="212" y="-1112.8" font-family="Times,serif" font-size="14.00">0x4000a1a955</text>
<text text-anchor="middle" x="212" y="-1097.8" font-family="Times,serif" font-size="14.00">_______________________</text>
<text text-anchor="middle" x="212" y="-1082.8" font-family="Times,serif" font-size="14.00">_______________________</text>
<text text-anchor="middle" x="212" y="-1067.8" font-family="Times,serif" font-size="14.00">movsbl (%rdi), %ecx</text>
<text text-anchor="middle" x="212" y="-1052.8" font-family="Times,serif" font-size="14.00">leal &#45;0x30(%rcx), %edx</text>
<text text-anchor="middle" x="212" y="-1037.8" font-family="Times,serif" font-size="14.00">cmpb $9, %dl</text>
<text text-anchor="middle" x="212" y="-1022.8" font-family="Times,serif" font-size="14.00">ja 0x4000a1a9b6</text>
</g>
<!-- 248&#45;&gt;252 -->
<g id="edge4" class="edge"><title>248&#45;&gt;252</title>
<path fill="none" stroke="black" d="M212,-1163.82C212,-1155.76 212,-1147.11 212,-1138.46"/>
<polygon fill="black" stroke="black" points="215.5,-1138.34 212,-1128.34 208.5,-1138.34 215.5,-1138.34"/>
</g>
<!-- 249 -->
<g id="node6" class="node"><title>249</title>
<polygon fill="none" stroke="black" points="234,-979 62,-979 62,-806 234,-806 234,-979"/>
<text text-anchor="middle" x="148" y="-963.8" font-family="Times,serif" font-size="14.00">0x4000a1a960</text>
<text text-anchor="middle" x="148" y="-948.8" font-family="Times,serif" font-size="14.00">_______________________</text>
<text text-anchor="middle" x="148" y="-933.8" font-family="Times,serif" font-size="14.00">_______________________</text>
<text text-anchor="middle" x="148" y="-918.8" font-family="Times,serif" font-size="14.00">movsbl 1(%rdi), %edx</text>
<text text-anchor="middle" x="148" y="-903.8" font-family="Times,serif" font-size="14.00">leaq 1(%rdi), %rsi</text>
<text text-anchor="middle" x="148" y="-888.8" font-family="Times,serif" font-size="14.00">subl $0x30, %ecx</text>
<text text-anchor="middle" x="148" y="-873.8" font-family="Times,serif" font-size="14.00">leal &#45;0x30(%rdx), %edi</text>
<text text-anchor="middle" x="148" y="-858.8" font-family="Times,serif" font-size="14.00">cmpb $9, %dil</text>
<text text-anchor="middle" x="148" y="-843.8" font-family="Times,serif" font-size="14.00">ja 0x4000a1a98f</text>
<text text-anchor="middle" x="148" y="-828.8" font-family="Times,serif" font-size="14.00">_______________________</text>
<text text-anchor="middle" x="148" y="-813.8" font-family="Times,serif" font-size="14.00">LOOP 0x4000a1a955</text>
</g>
<!-- 252&#45;&gt;249 -->
<g id="edge10" class="edge"><title>252&#45;&gt;249</title>
<path fill="none" stroke="black" d="M191.926,-1014.98C188.91,-1006.64 185.73,-997.848 182.516,-988.959"/>
<polygon fill="black" stroke="black" points="185.713,-987.508 179.022,-979.294 179.131,-989.888 185.713,-987.508"/>
</g>
<!-- 250 -->
<g id="node7" class="node"><title>250</title>
<polygon fill="none" stroke="black" points="203,-531 31,-531 31,-358 203,-358 203,-531"/>
<text text-anchor="middle" x="117" y="-515.8" font-family="Times,serif" font-size="14.00">0x4000a1a98f</text>
<text text-anchor="middle" x="117" y="-500.8" font-family="Times,serif" font-size="14.00">_______________________</text>
<text text-anchor="middle" x="117" y="-485.8" font-family="Times,serif" font-size="14.00">_______________________</text>
<text text-anchor="middle" x="117" y="-470.8" font-family="Times,serif" font-size="14.00">shll $8, %eax</text>
<text text-anchor="middle" x="117" y="-455.8" font-family="Times,serif" font-size="14.00">addl $1, %r8d</text>
<text text-anchor="middle" x="117" y="-440.8" font-family="Times,serif" font-size="14.00">leaq 1(%rsi), %rdi</text>
<text text-anchor="middle" x="117" y="-425.8" font-family="Times,serif" font-size="14.00">orl %ecx, %eax</text>
<text text-anchor="middle" x="117" y="-410.8" font-family="Times,serif" font-size="14.00">cmpb $0x2e, %dl</text>
<text text-anchor="middle" x="117" y="-395.8" font-family="Times,serif" font-size="14.00">jne 0x4000a1a9ac</text>
<text text-anchor="middle" x="117" y="-380.8" font-family="Times,serif" font-size="14.00">_______________________</text>
<text text-anchor="middle" x="117" y="-365.8" font-family="Times,serif" font-size="14.00">LOOP 0x4000a1a955</text>
</g>
<!-- 249&#45;&gt;250 -->
<g id="edge5" class="edge"><title>249&#45;&gt;250</title>
<path fill="none" stroke="black" d="M61.9796,-810.983C52.6324,-798.212 44.5216,-784.423 39,-770 6.74378,-685.741 13.6025,-653.574 39,-567 41.6447,-557.985 45.1869,-549.005 49.3072,-540.244"/>
<polygon fill="black" stroke="black" points="52.4851,-541.713 53.7968,-531.2 46.2152,-538.601 52.4851,-541.713"/>
</g>
<!-- 253 -->
<g id="node8" class="node"><title>253</title>
<polygon fill="none" stroke="black" points="248,-770 48,-770 48,-567 248,-567 248,-770"/>
<text text-anchor="middle" x="148" y="-754.8" font-family="Times,serif" font-size="14.00">0x4000a1a974</text>
<text text-anchor="middle" x="148" y="-739.8" font-family="Times,serif" font-size="14.00">_______________________</text>
<text text-anchor="middle" x="148" y="-724.8" font-family="Times,serif" font-size="14.00">_______________________</text>
<text text-anchor="middle" x="148" y="-709.8" font-family="Times,serif" font-size="14.00">nopl (%rax)</text>
<text text-anchor="middle" x="148" y="-694.8" font-family="Times,serif" font-size="14.00">leal (%rcx, %rcx, 4), %ecx</text>
<text text-anchor="middle" x="148" y="-679.8" font-family="Times,serif" font-size="14.00">addq $1, %rsi</text>
<text text-anchor="middle" x="148" y="-664.8" font-family="Times,serif" font-size="14.00">leal &#45;0x30(%rdx, %rcx, 2), %ecx</text>
<text text-anchor="middle" x="148" y="-649.8" font-family="Times,serif" font-size="14.00">movsbl (%rsi), %edx</text>
<text text-anchor="middle" x="148" y="-634.8" font-family="Times,serif" font-size="14.00">leal &#45;0x30(%rdx), %edi</text>
<text text-anchor="middle" x="148" y="-619.8" font-family="Times,serif" font-size="14.00">cmpb $9, %dil</text>
<text text-anchor="middle" x="148" y="-604.8" font-family="Times,serif" font-size="14.00">jbe 0x4000a1a978</text>
<text text-anchor="middle" x="148" y="-589.8" font-family="Times,serif" font-size="14.00">_______________________</text>
<text text-anchor="middle" x="148" y="-574.8" font-family="Times,serif" font-size="14.00">LOOP 0x4000a1a955</text>
</g>
<!-- 249&#45;&gt;253 -->
<g id="edge6" class="edge"><title>249&#45;&gt;253</title>
<path fill="none" stroke="black" d="M148,-805.987C148,-797.559 148,-788.923 148,-780.29"/>
<polygon fill="black" stroke="black" points="151.5,-780.168 148,-770.168 144.5,-780.168 151.5,-780.168"/>
</g>
<!-- 251 -->
<g id="node9" class="node"><title>251</title>
<polygon fill="none" stroke="black" points="362,-322 190,-322 190,-209 362,-209 362,-322"/>
<text text-anchor="middle" x="276" y="-306.8" font-family="Times,serif" font-size="14.00">0x4000a1a9a1</text>
<text text-anchor="middle" x="276" y="-291.8" font-family="Times,serif" font-size="14.00">_______________________</text>
<text text-anchor="middle" x="276" y="-276.8" font-family="Times,serif" font-size="14.00">_______________________</text>
<text text-anchor="middle" x="276" y="-261.8" font-family="Times,serif" font-size="14.00">cmpl $3, %r8d</text>
<text text-anchor="middle" x="276" y="-246.8" font-family="Times,serif" font-size="14.00">jne 0x4000a1a955</text>
<text text-anchor="middle" x="276" y="-231.8" font-family="Times,serif" font-size="14.00">_______________________</text>
<text text-anchor="middle" x="276" y="-216.8" font-family="Times,serif" font-size="14.00">LOOP 0x4000a1a955</text>
</g>
<!-- 250&#45;&gt;251 -->
<g id="edge7" class="edge"><title>250&#45;&gt;251</title>
<path fill="none" stroke="black" d="M193.938,-357.852C202.484,-348.338 211.07,-338.78 219.3,-329.619"/>
<polygon fill="black" stroke="black" points="222.041,-331.805 226.12,-322.027 216.834,-327.127 222.041,-331.805"/>
</g>
<!-- 254 -->
<g id="node10" class="node"><title>254</title>
<polygon fill="none" stroke="black" points="172,-307 0,-307 0,-224 172,-224 172,-307"/>
<text text-anchor="middle" x="86" y="-291.8" font-family="Times,serif" font-size="14.00">0x4000a1a9ac</text>
<text text-anchor="middle" x="86" y="-276.8" font-family="Times,serif" font-size="14.00">_______________________</text>
<text text-anchor="middle" x="86" y="-261.8" font-family="Times,serif" font-size="14.00">_______________________</text>
<text text-anchor="middle" x="86" y="-246.8" font-family="Times,serif" font-size="14.00">cmpl $3, %r8d</text>
<text text-anchor="middle" x="86" y="-231.8" font-family="Times,serif" font-size="14.00">je 0x4000a1a923</text>
</g>
<!-- 250&#45;&gt;254 -->
<g id="edge8" class="edge"><title>250&#45;&gt;254</title>
<path fill="none" stroke="black" d="M101.999,-357.852C99.5605,-343.926 97.105,-329.906 94.8749,-317.173"/>
<polygon fill="black" stroke="black" points="98.3121,-316.51 93.1394,-307.264 91.4171,-317.718 98.3121,-316.51"/>
</g>
<!-- 253&#45;&gt;250 -->
<g id="edge11" class="edge"><title>253&#45;&gt;250</title>
<path fill="none" stroke="black" d="M133.951,-566.893C132.754,-558.317 131.545,-549.658 130.353,-541.123"/>
<polygon fill="black" stroke="black" points="133.813,-540.592 128.963,-531.172 126.88,-541.56 133.813,-540.592"/>
</g>
<!-- 251&#45;&gt;252 -->
<g id="edge9" class="edge"><title>251&#45;&gt;252</title>
<path fill="none" stroke="black" d="M279.047,-322.161C284.445,-443.079 290.995,-738.243 243,-979 241.285,-987.605 238.976,-996.514 236.388,-1005.24"/>
<polygon fill="black" stroke="black" points="232.982,-1004.41 233.364,-1015 239.668,-1006.48 232.982,-1004.41"/>
</g>
<!-- 255 -->
<g id="node11" class="node"><title>255</title>
<polygon fill="none" stroke="black" points="172,-173 0,-173 0,-0 172,-0 172,-173"/>
<text text-anchor="middle" x="86" y="-157.8" font-family="Times,serif" font-size="14.00">0x4000a1a923</text>
<text text-anchor="middle" x="86" y="-142.8" font-family="Times,serif" font-size="14.00">_______________________</text>
<text text-anchor="middle" x="86" y="-127.8" font-family="Times,serif" font-size="14.00">_______________________</text>
<text text-anchor="middle" x="86" y="-112.8" font-family="Times,serif" font-size="14.00">addq $0x1e8, %rsp</text>
<text text-anchor="middle" x="86" y="-97.8" font-family="Times,serif" font-size="14.00">popq %rbx</text>
<text text-anchor="middle" x="86" y="-82.8" font-family="Times,serif" font-size="14.00">popq %rbp</text>
<text text-anchor="middle" x="86" y="-67.8" font-family="Times,serif" font-size="14.00">popq %r12</text>
<text text-anchor="middle" x="86" y="-52.8" font-family="Times,serif" font-size="14.00">popq %r13</text>
<text text-anchor="middle" x="86" y="-37.8" font-family="Times,serif" font-size="14.00">popq %r14</text>
<text text-anchor="middle" x="86" y="-22.8" font-family="Times,serif" font-size="14.00">popq %r15</text>
<text text-anchor="middle" x="86" y="-7.8" font-family="Times,serif" font-size="14.00">retq </text>
</g>
<!-- 254&#45;&gt;255 -->
<g id="edge12" class="edge"><title>254&#45;&gt;255</title>
<path fill="none" stroke="black" d="M86,-223.893C86,-211.655 86,-197.67 86,-183.426"/>
<polygon fill="black" stroke="black" points="89.5001,-183.03 86,-173.03 82.5001,-183.03 89.5001,-183.03"/>
</g>
</g>
</svg>
