<?xml version="1.0" encoding="UTF-8" standalone="no"?>
<!DOCTYPE svg PUBLIC "-//W3C//DTD SVG 1.1//EN"
 "http://www.w3.org/Graphics/SVG/1.1/DTD/svg11.dtd">
<!-- Generated by graphviz version 2.38.0 (20140413.2041)
 -->
<!-- Title: %3 Pages: 1 -->
<svg width="180pt" height="1479pt"
 viewBox="0.00 0.00 180.00 1479.00" xmlns="http://www.w3.org/2000/svg" xmlns:xlink="http://www.w3.org/1999/xlink">
<g id="graph0" class="graph" transform="scale(1 1) rotate(0) translate(4 1475)">
<title>%3</title>
<polygon fill="white" stroke="none" points="-4,4 -4,-1475 176,-1475 176,4 -4,4"/>
<!-- 1773 -->
<g id="node1" class="node"><title>1773</title>
<polygon fill="none" stroke="black" points="172,-1471 0,-1471 0,-1178 172,-1178 172,-1471"/>
<text text-anchor="middle" x="86" y="-1455.8" font-family="Times,serif" font-size="14.00">0x4000cb8610</text>
<text text-anchor="middle" x="86" y="-1440.8" font-family="Times,serif" font-size="14.00">_______________________</text>
<text text-anchor="middle" x="86" y="-1425.8" font-family="Times,serif" font-size="14.00">_______________________</text>
<text text-anchor="middle" x="86" y="-1410.8" font-family="Times,serif" font-size="14.00">pushq %r13</text>
<text text-anchor="middle" x="86" y="-1395.8" font-family="Times,serif" font-size="14.00">pushq %r12</text>
<text text-anchor="middle" x="86" y="-1380.8" font-family="Times,serif" font-size="14.00">leaq 0x32404d(%rip), %rax</text>
<text text-anchor="middle" x="86" y="-1365.8" font-family="Times,serif" font-size="14.00">pushq %rbp</text>
<text text-anchor="middle" x="86" y="-1350.8" font-family="Times,serif" font-size="14.00">pushq %rbx</text>
<text text-anchor="middle" x="86" y="-1335.8" font-family="Times,serif" font-size="14.00">movq %rdx, %rbp</text>
<text text-anchor="middle" x="86" y="-1320.8" font-family="Times,serif" font-size="14.00">leaq 0x3232d9(%rip), %rdx</text>
<text text-anchor="middle" x="86" y="-1305.8" font-family="Times,serif" font-size="14.00">movq %rdi, %rbx</text>
<text text-anchor="middle" x="86" y="-1290.8" font-family="Times,serif" font-size="14.00">movq %rsi, %r13</text>
<text text-anchor="middle" x="86" y="-1275.8" font-family="Times,serif" font-size="14.00">subq $8, %rsp</text>
<text text-anchor="middle" x="86" y="-1260.8" font-family="Times,serif" font-size="14.00">movq 0xd8(%rdi), %r12</text>
<text text-anchor="middle" x="86" y="-1245.8" font-family="Times,serif" font-size="14.00">subq %rdx, %rax</text>
<text text-anchor="middle" x="86" y="-1230.8" font-family="Times,serif" font-size="14.00">movq %r12, %rcx</text>
<text text-anchor="middle" x="86" y="-1215.8" font-family="Times,serif" font-size="14.00">subq %rdx, %rcx</text>
<text text-anchor="middle" x="86" y="-1200.8" font-family="Times,serif" font-size="14.00">cmpq %rcx, %rax</text>
<text text-anchor="middle" x="86" y="-1185.8" font-family="Times,serif" font-size="14.00">jbe 0x4000cb8720</text>
</g>
<!-- 1774 -->
<g id="node2" class="node"><title>1774</title>
<polygon fill="none" stroke="black" points="172,-1142 0,-1142 0,-1029 172,-1029 172,-1142"/>
<text text-anchor="middle" x="86" y="-1126.8" font-family="Times,serif" font-size="14.00">0x4000cb864a</text>
<text text-anchor="middle" x="86" y="-1111.8" font-family="Times,serif" font-size="14.00">_______________________</text>
<text text-anchor="middle" x="86" y="-1096.8" font-family="Times,serif" font-size="14.00">_______________________</text>
<text text-anchor="middle" x="86" y="-1081.8" font-family="Times,serif" font-size="14.00">movq %rbx, %rdi</text>
<text text-anchor="middle" x="86" y="-1066.8" font-family="Times,serif" font-size="14.00">callq *0x60(%r12)</text>
<text text-anchor="middle" x="86" y="-1051.8" font-family="Times,serif" font-size="14.00">_______________________</text>
<text text-anchor="middle" x="86" y="-1036.8" font-family="Times,serif" font-size="14.00">CALL _IO_file_sync</text>
</g>
<!-- 1773&#45;&gt;1774 -->
<g id="edge1" class="edge"><title>1773&#45;&gt;1774</title>
<path fill="none" stroke="black" d="M86,-1177.79C86,-1168.99 86,-1160.4 86,-1152.24"/>
<polygon fill="black" stroke="black" points="89.5001,-1152.13 86,-1142.13 82.5001,-1152.13 89.5001,-1152.13"/>
</g>
<!-- 1778 -->
<g id="node3" class="node"><title>1778</title>
<polygon fill="none" stroke="black" points="172,-993 0,-993 0,-910 172,-910 172,-993"/>
<text text-anchor="middle" x="86" y="-977.8" font-family="Times,serif" font-size="14.00">0x4000cb8652</text>
<text text-anchor="middle" x="86" y="-962.8" font-family="Times,serif" font-size="14.00">_______________________</text>
<text text-anchor="middle" x="86" y="-947.8" font-family="Times,serif" font-size="14.00">_______________________</text>
<text text-anchor="middle" x="86" y="-932.8" font-family="Times,serif" font-size="14.00">cmpl $0xff, %eax</text>
<text text-anchor="middle" x="86" y="-917.8" font-family="Times,serif" font-size="14.00">je 0x4000cb8730</text>
</g>
<!-- 1774&#45;&gt;1778 -->
<g id="edge2" class="edge"><title>1774&#45;&gt;1778</title>
<path fill="none" stroke="black" d="M86,-1028.9C86,-1020.39 86,-1011.63 86,-1003.23"/>
<polygon fill="black" stroke="black" points="89.5001,-1003.19 86,-993.194 82.5001,-1003.19 89.5001,-1003.19"/>
</g>
<!-- 1779 -->
<g id="node4" class="node"><title>1779</title>
<polygon fill="none" stroke="black" points="172,-874 0,-874 0,-761 172,-761 172,-874"/>
<text text-anchor="middle" x="86" y="-858.8" font-family="Times,serif" font-size="14.00">0x4000cb865b</text>
<text text-anchor="middle" x="86" y="-843.8" font-family="Times,serif" font-size="14.00">_______________________</text>
<text text-anchor="middle" x="86" y="-828.8" font-family="Times,serif" font-size="14.00">_______________________</text>
<text text-anchor="middle" x="86" y="-813.8" font-family="Times,serif" font-size="14.00">movl (%rbx), %edx</text>
<text text-anchor="middle" x="86" y="-798.8" font-family="Times,serif" font-size="14.00">testq %r13, %r13</text>
<text text-anchor="middle" x="86" y="-783.8" font-family="Times,serif" font-size="14.00">movl %edx, %eax</text>
<text text-anchor="middle" x="86" y="-768.8" font-family="Times,serif" font-size="14.00">je 0x4000cb86d0</text>
</g>
<!-- 1778&#45;&gt;1779 -->
<g id="edge3" class="edge"><title>1778&#45;&gt;1779</title>
<path fill="none" stroke="black" d="M86,-909.819C86,-901.761 86,-893.109 86,-884.458"/>
<polygon fill="black" stroke="black" points="89.5001,-884.339 86,-874.339 82.5001,-884.339 89.5001,-884.339"/>
</g>
<!-- 1780 -->
<g id="node5" class="node"><title>1780</title>
<polygon fill="none" stroke="black" points="172,-725 0,-725 0,-567 172,-567 172,-725"/>
<text text-anchor="middle" x="86" y="-709.8" font-family="Times,serif" font-size="14.00">0x4000cb86d0</text>
<text text-anchor="middle" x="86" y="-694.8" font-family="Times,serif" font-size="14.00">_______________________</text>
<text text-anchor="middle" x="86" y="-679.8" font-family="Times,serif" font-size="14.00">_______________________</text>
<text text-anchor="middle" x="86" y="-664.8" font-family="Times,serif" font-size="14.00">movq 0x38(%rbx), %rdi</text>
<text text-anchor="middle" x="86" y="-649.8" font-family="Times,serif" font-size="14.00">orl $2, %eax</text>
<text text-anchor="middle" x="86" y="-634.8" font-family="Times,serif" font-size="14.00">leaq 0x84(%rbx), %rbp</text>
<text text-anchor="middle" x="86" y="-619.8" font-family="Times,serif" font-size="14.00">movl %eax, (%rbx)</text>
<text text-anchor="middle" x="86" y="-604.8" font-family="Times,serif" font-size="14.00">leaq 0x83(%rbx), %r12</text>
<text text-anchor="middle" x="86" y="-589.8" font-family="Times,serif" font-size="14.00">testq %rdi, %rdi</text>
<text text-anchor="middle" x="86" y="-574.8" font-family="Times,serif" font-size="14.00">je 0x4000cb86f1</text>
</g>
<!-- 1779&#45;&gt;1780 -->
<g id="edge4" class="edge"><title>1779&#45;&gt;1780</title>
<path fill="none" stroke="black" d="M86,-760.999C86,-752.741 86,-744.061 86,-735.33"/>
<polygon fill="black" stroke="black" points="89.5001,-735.079 86,-725.079 82.5001,-735.079 89.5001,-735.079"/>
</g>
<!-- 1781 -->
<g id="node6" class="node"><title>1781</title>
<polygon fill="none" stroke="black" points="172,-531 0,-531 0,-448 172,-448 172,-531"/>
<text text-anchor="middle" x="86" y="-515.8" font-family="Times,serif" font-size="14.00">0x4000cb86ec</text>
<text text-anchor="middle" x="86" y="-500.8" font-family="Times,serif" font-size="14.00">_______________________</text>
<text text-anchor="middle" x="86" y="-485.8" font-family="Times,serif" font-size="14.00">_______________________</text>
<text text-anchor="middle" x="86" y="-470.8" font-family="Times,serif" font-size="14.00">andl $1, %edx</text>
<text text-anchor="middle" x="86" y="-455.8" font-family="Times,serif" font-size="14.00">je 0x4000cb8710</text>
</g>
<!-- 1780&#45;&gt;1781 -->
<g id="edge5" class="edge"><title>1780&#45;&gt;1781</title>
<path fill="none" stroke="black" d="M86,-566.845C86,-558.214 86,-549.599 86,-541.429"/>
<polygon fill="black" stroke="black" points="89.5001,-541.352 86,-531.352 82.5001,-541.352 89.5001,-541.352"/>
</g>
<!-- 1782 -->
<g id="node7" class="node"><title>1782</title>
<polygon fill="none" stroke="black" points="172,-412 0,-412 0,-284 172,-284 172,-412"/>
<text text-anchor="middle" x="86" y="-396.8" font-family="Times,serif" font-size="14.00">0x4000cb86f1</text>
<text text-anchor="middle" x="86" y="-381.8" font-family="Times,serif" font-size="14.00">_______________________</text>
<text text-anchor="middle" x="86" y="-366.8" font-family="Times,serif" font-size="14.00">_______________________</text>
<text text-anchor="middle" x="86" y="-351.8" font-family="Times,serif" font-size="14.00">orl $1, %eax</text>
<text text-anchor="middle" x="86" y="-336.8" font-family="Times,serif" font-size="14.00">movq %r12, 0x38(%rbx)</text>
<text text-anchor="middle" x="86" y="-321.8" font-family="Times,serif" font-size="14.00">movq %rbp, 0x40(%rbx)</text>
<text text-anchor="middle" x="86" y="-306.8" font-family="Times,serif" font-size="14.00">movl %eax, (%rbx)</text>
<text text-anchor="middle" x="86" y="-291.8" font-family="Times,serif" font-size="14.00">jmp 0x4000cb8690</text>
</g>
<!-- 1781&#45;&gt;1782 -->
<g id="edge6" class="edge"><title>1781&#45;&gt;1782</title>
<path fill="none" stroke="black" d="M86,-447.776C86,-439.741 86,-431.081 86,-422.346"/>
<polygon fill="black" stroke="black" points="89.5001,-422.09 86,-412.09 82.5001,-422.09 89.5001,-422.09"/>
</g>
<!-- 1783 -->
<g id="node8" class="node"><title>1783</title>
<polygon fill="none" stroke="black" points="172,-248 0,-248 0,-0 172,-0 172,-248"/>
<text text-anchor="middle" x="86" y="-232.8" font-family="Times,serif" font-size="14.00">0x4000cb8690</text>
<text text-anchor="middle" x="86" y="-217.8" font-family="Times,serif" font-size="14.00">_______________________</text>
<text text-anchor="middle" x="86" y="-202.8" font-family="Times,serif" font-size="14.00">_______________________</text>
<text text-anchor="middle" x="86" y="-187.8" font-family="Times,serif" font-size="14.00">movq $0, 0x30(%rbx)</text>
<text text-anchor="middle" x="86" y="-172.8" font-family="Times,serif" font-size="14.00">movq $0, 0x28(%rbx)</text>
<text text-anchor="middle" x="86" y="-157.8" font-family="Times,serif" font-size="14.00">movq %rbx, %rax</text>
<text text-anchor="middle" x="86" y="-142.8" font-family="Times,serif" font-size="14.00">movq $0, 0x20(%rbx)</text>
<text text-anchor="middle" x="86" y="-127.8" font-family="Times,serif" font-size="14.00">movq $0, 0x10(%rbx)</text>
<text text-anchor="middle" x="86" y="-112.8" font-family="Times,serif" font-size="14.00">movq $0, 8(%rbx)</text>
<text text-anchor="middle" x="86" y="-97.8" font-family="Times,serif" font-size="14.00">movq $0, 0x18(%rbx)</text>
<text text-anchor="middle" x="86" y="-82.8" font-family="Times,serif" font-size="14.00">addq $8, %rsp</text>
<text text-anchor="middle" x="86" y="-67.8" font-family="Times,serif" font-size="14.00">popq %rbx</text>
<text text-anchor="middle" x="86" y="-52.8" font-family="Times,serif" font-size="14.00">popq %rbp</text>
<text text-anchor="middle" x="86" y="-37.8" font-family="Times,serif" font-size="14.00">popq %r12</text>
<text text-anchor="middle" x="86" y="-22.8" font-family="Times,serif" font-size="14.00">popq %r13</text>
<text text-anchor="middle" x="86" y="-7.8" font-family="Times,serif" font-size="14.00">retq </text>
</g>
<!-- 1782&#45;&gt;1783 -->
<g id="edge7" class="edge"><title>1782&#45;&gt;1783</title>
<path fill="none" stroke="black" d="M86,-283.978C86,-275.781 86,-267.153 86,-258.329"/>
<polygon fill="black" stroke="black" points="89.5001,-258.294 86,-248.294 82.5001,-258.294 89.5001,-258.294"/>
</g>
</g>
</svg>
