<?xml version="1.0" encoding="UTF-8" standalone="no"?>
<!DOCTYPE svg PUBLIC "-//W3C//DTD SVG 1.1//EN"
 "http://www.w3.org/Graphics/SVG/1.1/DTD/svg11.dtd">
<!-- Generated by graphviz version 2.38.0 (20140413.2041)
 -->
<!-- Title: %3 Pages: 1 -->
<svg width="187pt" height="2404pt"
 viewBox="0.00 0.00 187.00 2404.00" xmlns="http://www.w3.org/2000/svg" xmlns:xlink="http://www.w3.org/1999/xlink">
<g id="graph0" class="graph" transform="scale(1 1) rotate(0) translate(4 2400)">
<title>%3</title>
<polygon fill="white" stroke="none" points="-4,4 -4,-2400 183,-2400 183,4 -4,4"/>
<!-- 1216 -->
<g id="node1" class="node"><title>1216</title>
<polygon fill="none" stroke="black" points="177.5,-2396 1.5,-2396 1.5,-2178 177.5,-2178 177.5,-2396"/>
<text text-anchor="middle" x="89.5" y="-2380.8" font-family="Times,serif" font-size="14.00">0x4000c61ea0</text>
<text text-anchor="middle" x="89.5" y="-2365.8" font-family="Times,serif" font-size="14.00">_______________________</text>
<text text-anchor="middle" x="89.5" y="-2350.8" font-family="Times,serif" font-size="14.00">_______________________</text>
<text text-anchor="middle" x="89.5" y="-2335.8" font-family="Times,serif" font-size="14.00">pushq %r15</text>
<text text-anchor="middle" x="89.5" y="-2320.8" font-family="Times,serif" font-size="14.00">pushq %r14</text>
<text text-anchor="middle" x="89.5" y="-2305.8" font-family="Times,serif" font-size="14.00">pushq %r13</text>
<text text-anchor="middle" x="89.5" y="-2290.8" font-family="Times,serif" font-size="14.00">pushq %r12</text>
<text text-anchor="middle" x="89.5" y="-2275.8" font-family="Times,serif" font-size="14.00">pushq %rbp</text>
<text text-anchor="middle" x="89.5" y="-2260.8" font-family="Times,serif" font-size="14.00">pushq %rbx</text>
<text text-anchor="middle" x="89.5" y="-2245.8" font-family="Times,serif" font-size="14.00">subq $0x18, %rsp</text>
<text text-anchor="middle" x="89.5" y="-2230.8" font-family="Times,serif" font-size="14.00">movq 0x37cfb3(%rip), %r14</text>
<text text-anchor="middle" x="89.5" y="-2215.8" font-family="Times,serif" font-size="14.00">movl 0x70(%r14), %eax</text>
<text text-anchor="middle" x="89.5" y="-2200.8" font-family="Times,serif" font-size="14.00">cmpl $1, %eax</text>
<text text-anchor="middle" x="89.5" y="-2185.8" font-family="Times,serif" font-size="14.00">je 0x4000c61eec</text>
</g>
<!-- 1217 -->
<g id="node2" class="node"><title>1217</title>
<polygon fill="none" stroke="black" points="175.5,-2142 3.5,-2142 3.5,-2059 175.5,-2059 175.5,-2142"/>
<text text-anchor="middle" x="89.5" y="-2126.8" font-family="Times,serif" font-size="14.00">0x4000c61ebe</text>
<text text-anchor="middle" x="89.5" y="-2111.8" font-family="Times,serif" font-size="14.00">_______________________</text>
<text text-anchor="middle" x="89.5" y="-2096.8" font-family="Times,serif" font-size="14.00">_______________________</text>
<text text-anchor="middle" x="89.5" y="-2081.8" font-family="Times,serif" font-size="14.00">cmpl $2, %eax</text>
<text text-anchor="middle" x="89.5" y="-2066.8" font-family="Times,serif" font-size="14.00">je 0x4000c62072</text>
</g>
<!-- 1216&#45;&gt;1217 -->
<g id="edge1" class="edge"><title>1216&#45;&gt;1217</title>
<path fill="none" stroke="black" d="M89.5,-2177.88C89.5,-2169.13 89.5,-2160.57 89.5,-2152.54"/>
<polygon fill="black" stroke="black" points="93.0001,-2152.32 89.5,-2142.32 86.0001,-2152.32 93.0001,-2152.32"/>
</g>
<!-- 1218 -->
<g id="node3" class="node"><title>1218</title>
<polygon fill="none" stroke="black" points="175.5,-2023 3.5,-2023 3.5,-1910 175.5,-1910 175.5,-2023"/>
<text text-anchor="middle" x="89.5" y="-2007.8" font-family="Times,serif" font-size="14.00">0x4000c62072</text>
<text text-anchor="middle" x="89.5" y="-1992.8" font-family="Times,serif" font-size="14.00">_______________________</text>
<text text-anchor="middle" x="89.5" y="-1977.8" font-family="Times,serif" font-size="14.00">_______________________</text>
<text text-anchor="middle" x="89.5" y="-1962.8" font-family="Times,serif" font-size="14.00">movl $0xbc, %edi</text>
<text text-anchor="middle" x="89.5" y="-1947.8" font-family="Times,serif" font-size="14.00">callq 0x4000cdca80</text>
<text text-anchor="middle" x="89.5" y="-1932.8" font-family="Times,serif" font-size="14.00">_______________________</text>
<text text-anchor="middle" x="89.5" y="-1917.8" font-family="Times,serif" font-size="14.00">CALL 0x4000cdca80</text>
</g>
<!-- 1217&#45;&gt;1218 -->
<g id="edge2" class="edge"><title>1217&#45;&gt;1218</title>
<path fill="none" stroke="black" d="M89.5,-2058.82C89.5,-2050.76 89.5,-2042.11 89.5,-2033.46"/>
<polygon fill="black" stroke="black" points="93.0001,-2033.34 89.5,-2023.34 86.0001,-2033.34 93.0001,-2033.34"/>
</g>
<!-- 1225 -->
<g id="node4" class="node"><title>1225</title>
<polygon fill="none" stroke="black" points="175.5,-1874 3.5,-1874 3.5,-1746 175.5,-1746 175.5,-1874"/>
<text text-anchor="middle" x="89.5" y="-1858.8" font-family="Times,serif" font-size="14.00">0x4000c6207c</text>
<text text-anchor="middle" x="89.5" y="-1843.8" font-family="Times,serif" font-size="14.00">_______________________</text>
<text text-anchor="middle" x="89.5" y="-1828.8" font-family="Times,serif" font-size="14.00">_______________________</text>
<text text-anchor="middle" x="89.5" y="-1813.8" font-family="Times,serif" font-size="14.00">movl $0xbf, %edi</text>
<text text-anchor="middle" x="89.5" y="-1798.8" font-family="Times,serif" font-size="14.00">movq %rax, %r12</text>
<text text-anchor="middle" x="89.5" y="-1783.8" font-family="Times,serif" font-size="14.00">callq 0x4000cdca80</text>
<text text-anchor="middle" x="89.5" y="-1768.8" font-family="Times,serif" font-size="14.00">_______________________</text>
<text text-anchor="middle" x="89.5" y="-1753.8" font-family="Times,serif" font-size="14.00">CALL 0x4000cdca80</text>
</g>
<!-- 1218&#45;&gt;1225 -->
<g id="edge3" class="edge"><title>1218&#45;&gt;1225</title>
<path fill="none" stroke="black" d="M89.5,-1909.72C89.5,-1901.4 89.5,-1892.71 89.5,-1884.09"/>
<polygon fill="black" stroke="black" points="93.0001,-1884.04 89.5,-1874.04 86.0001,-1884.04 93.0001,-1884.04"/>
</g>
<!-- 1227 -->
<g id="node5" class="node"><title>1227</title>
<polygon fill="none" stroke="black" points="175.5,-1710 3.5,-1710 3.5,-1582 175.5,-1582 175.5,-1710"/>
<text text-anchor="middle" x="89.5" y="-1694.8" font-family="Times,serif" font-size="14.00">0x4000c62089</text>
<text text-anchor="middle" x="89.5" y="-1679.8" font-family="Times,serif" font-size="14.00">_______________________</text>
<text text-anchor="middle" x="89.5" y="-1664.8" font-family="Times,serif" font-size="14.00">_______________________</text>
<text text-anchor="middle" x="89.5" y="-1649.8" font-family="Times,serif" font-size="14.00">movl $0xc2, %edi</text>
<text text-anchor="middle" x="89.5" y="-1634.8" font-family="Times,serif" font-size="14.00">movq %rax, %rbp</text>
<text text-anchor="middle" x="89.5" y="-1619.8" font-family="Times,serif" font-size="14.00">callq 0x4000cdca80</text>
<text text-anchor="middle" x="89.5" y="-1604.8" font-family="Times,serif" font-size="14.00">_______________________</text>
<text text-anchor="middle" x="89.5" y="-1589.8" font-family="Times,serif" font-size="14.00">CALL 0x4000cdca80</text>
</g>
<!-- 1225&#45;&gt;1227 -->
<g id="edge4" class="edge"><title>1225&#45;&gt;1227</title>
<path fill="none" stroke="black" d="M89.5,-1745.9C89.5,-1737.57 89.5,-1728.96 89.5,-1720.47"/>
<polygon fill="black" stroke="black" points="93.0001,-1720.19 89.5,-1710.19 86.0001,-1720.19 93.0001,-1720.19"/>
</g>
<!-- 1229 -->
<g id="node6" class="node"><title>1229</title>
<polygon fill="none" stroke="black" points="175.5,-1546 3.5,-1546 3.5,-1403 175.5,-1403 175.5,-1546"/>
<text text-anchor="middle" x="89.5" y="-1530.8" font-family="Times,serif" font-size="14.00">0x4000c62096</text>
<text text-anchor="middle" x="89.5" y="-1515.8" font-family="Times,serif" font-size="14.00">_______________________</text>
<text text-anchor="middle" x="89.5" y="-1500.8" font-family="Times,serif" font-size="14.00">_______________________</text>
<text text-anchor="middle" x="89.5" y="-1485.8" font-family="Times,serif" font-size="14.00">movq %rax, %rdi</text>
<text text-anchor="middle" x="89.5" y="-1470.8" font-family="Times,serif" font-size="14.00">movl $0x80000000, %eax</text>
<text text-anchor="middle" x="89.5" y="-1455.8" font-family="Times,serif" font-size="14.00">cpuid </text>
<text text-anchor="middle" x="89.5" y="-1440.8" font-family="Times,serif" font-size="14.00">testq %rdi, %rdi</text>
<text text-anchor="middle" x="89.5" y="-1425.8" font-family="Times,serif" font-size="14.00">movl %eax, %esi</text>
<text text-anchor="middle" x="89.5" y="-1410.8" font-family="Times,serif" font-size="14.00">jle 0x4000c620cc</text>
</g>
<!-- 1227&#45;&gt;1229 -->
<g id="edge5" class="edge"><title>1227&#45;&gt;1229</title>
<path fill="none" stroke="black" d="M89.5,-1581.88C89.5,-1573.5 89.5,-1564.8 89.5,-1556.17"/>
<polygon fill="black" stroke="black" points="93.0001,-1556.08 89.5,-1546.08 86.0001,-1556.08 93.0001,-1556.08"/>
</g>
<!-- 1230 -->
<g id="node7" class="node"><title>1230</title>
<polygon fill="none" stroke="black" points="175.5,-1367 3.5,-1367 3.5,-1284 175.5,-1284 175.5,-1367"/>
<text text-anchor="middle" x="89.5" y="-1351.8" font-family="Times,serif" font-size="14.00">0x4000c620a7</text>
<text text-anchor="middle" x="89.5" y="-1336.8" font-family="Times,serif" font-size="14.00">_______________________</text>
<text text-anchor="middle" x="89.5" y="-1321.8" font-family="Times,serif" font-size="14.00">_______________________</text>
<text text-anchor="middle" x="89.5" y="-1306.8" font-family="Times,serif" font-size="14.00">cmpl $0x80000007, %eax</text>
<text text-anchor="middle" x="89.5" y="-1291.8" font-family="Times,serif" font-size="14.00">ja 0x4000c620f3</text>
</g>
<!-- 1229&#45;&gt;1230 -->
<g id="edge6" class="edge"><title>1229&#45;&gt;1230</title>
<path fill="none" stroke="black" d="M89.5,-1402.58C89.5,-1394.01 89.5,-1385.4 89.5,-1377.2"/>
<polygon fill="black" stroke="black" points="93.0001,-1377.08 89.5,-1367.08 86.0001,-1377.08 93.0001,-1377.08"/>
</g>
<!-- 1231 -->
<g id="node8" class="node"><title>1231</title>
<polygon fill="none" stroke="black" points="175.5,-1248 3.5,-1248 3.5,-1000 175.5,-1000 175.5,-1248"/>
<text text-anchor="middle" x="89.5" y="-1232.8" font-family="Times,serif" font-size="14.00">0x4000c620f3</text>
<text text-anchor="middle" x="89.5" y="-1217.8" font-family="Times,serif" font-size="14.00">_______________________</text>
<text text-anchor="middle" x="89.5" y="-1202.8" font-family="Times,serif" font-size="14.00">_______________________</text>
<text text-anchor="middle" x="89.5" y="-1187.8" font-family="Times,serif" font-size="14.00">movl $0x80000008, %eax</text>
<text text-anchor="middle" x="89.5" y="-1172.8" font-family="Times,serif" font-size="14.00">cpuid </text>
<text text-anchor="middle" x="89.5" y="-1157.8" font-family="Times,serif" font-size="14.00">shrl $0xc, %ecx</text>
<text text-anchor="middle" x="89.5" y="-1142.8" font-family="Times,serif" font-size="14.00">movl %eax, %esi</text>
<text text-anchor="middle" x="89.5" y="-1127.8" font-family="Times,serif" font-size="14.00">movl $1, %eax</text>
<text text-anchor="middle" x="89.5" y="-1112.8" font-family="Times,serif" font-size="14.00">andl $0xf, %ecx</text>
<text text-anchor="middle" x="89.5" y="-1097.8" font-family="Times,serif" font-size="14.00">shll %cl, %eax</text>
<text text-anchor="middle" x="89.5" y="-1082.8" font-family="Times,serif" font-size="14.00">movl %eax, %ecx</text>
<text text-anchor="middle" x="89.5" y="-1067.8" font-family="Times,serif" font-size="14.00">movq %rdi, %rax</text>
<text text-anchor="middle" x="89.5" y="-1052.8" font-family="Times,serif" font-size="14.00">cqto </text>
<text text-anchor="middle" x="89.5" y="-1037.8" font-family="Times,serif" font-size="14.00">idivq %rcx</text>
<text text-anchor="middle" x="89.5" y="-1022.8" font-family="Times,serif" font-size="14.00">movq %rax, %rdi</text>
<text text-anchor="middle" x="89.5" y="-1007.8" font-family="Times,serif" font-size="14.00">jmp 0x4000c620c9</text>
</g>
<!-- 1230&#45;&gt;1231 -->
<g id="edge7" class="edge"><title>1230&#45;&gt;1231</title>
<path fill="none" stroke="black" d="M89.5,-1283.65C89.5,-1275.86 89.5,-1267.33 89.5,-1258.39"/>
<polygon fill="black" stroke="black" points="93.0001,-1258.14 89.5,-1248.14 86.0001,-1258.14 93.0001,-1258.14"/>
</g>
<!-- 1232 -->
<g id="node9" class="node"><title>1232</title>
<polygon fill="none" stroke="black" points="175.5,-964 3.5,-964 3.5,-866 175.5,-866 175.5,-964"/>
<text text-anchor="middle" x="89.5" y="-948.8" font-family="Times,serif" font-size="14.00">0x4000c620c9</text>
<text text-anchor="middle" x="89.5" y="-933.8" font-family="Times,serif" font-size="14.00">_______________________</text>
<text text-anchor="middle" x="89.5" y="-918.8" font-family="Times,serif" font-size="14.00">_______________________</text>
<text text-anchor="middle" x="89.5" y="-903.8" font-family="Times,serif" font-size="14.00">addq %rdi, %rbp</text>
<text text-anchor="middle" x="89.5" y="-888.8" font-family="Times,serif" font-size="14.00">cmpl $0x80000000, %esi</text>
<text text-anchor="middle" x="89.5" y="-873.8" font-family="Times,serif" font-size="14.00">jbe 0x4000c62009</text>
</g>
<!-- 1231&#45;&gt;1232 -->
<g id="edge8" class="edge"><title>1231&#45;&gt;1232</title>
<path fill="none" stroke="black" d="M89.5,-999.896C89.5,-991.106 89.5,-982.511 89.5,-974.379"/>
<polygon fill="black" stroke="black" points="93.0001,-974.344 89.5,-964.344 86.0001,-974.345 93.0001,-974.344"/>
</g>
<!-- 1233 -->
<g id="node10" class="node"><title>1233</title>
<polygon fill="none" stroke="black" points="175.5,-830 3.5,-830 3.5,-747 175.5,-747 175.5,-830"/>
<text text-anchor="middle" x="89.5" y="-814.8" font-family="Times,serif" font-size="14.00">0x4000c62009</text>
<text text-anchor="middle" x="89.5" y="-799.8" font-family="Times,serif" font-size="14.00">_______________________</text>
<text text-anchor="middle" x="89.5" y="-784.8" font-family="Times,serif" font-size="14.00">_______________________</text>
<text text-anchor="middle" x="89.5" y="-769.8" font-family="Times,serif" font-size="14.00">testq %r12, %r12</text>
<text text-anchor="middle" x="89.5" y="-754.8" font-family="Times,serif" font-size="14.00">jle 0x4000c62039</text>
</g>
<!-- 1232&#45;&gt;1233 -->
<g id="edge9" class="edge"><title>1232&#45;&gt;1233</title>
<path fill="none" stroke="black" d="M89.5,-865.865C89.5,-857.498 89.5,-848.771 89.5,-840.335"/>
<polygon fill="black" stroke="black" points="93.0001,-840.231 89.5,-830.231 86.0001,-840.231 93.0001,-840.231"/>
</g>
<!-- 1234 -->
<g id="node11" class="node"><title>1234</title>
<polygon fill="none" stroke="black" points="179,-711 0,-711 0,-493 179,-493 179,-711"/>
<text text-anchor="middle" x="89.5" y="-695.8" font-family="Times,serif" font-size="14.00">0x4000c6200e</text>
<text text-anchor="middle" x="89.5" y="-680.8" font-family="Times,serif" font-size="14.00">_______________________</text>
<text text-anchor="middle" x="89.5" y="-665.8" font-family="Times,serif" font-size="14.00">_______________________</text>
<text text-anchor="middle" x="89.5" y="-650.8" font-family="Times,serif" font-size="14.00">movq %r12, %rax</text>
<text text-anchor="middle" x="89.5" y="-635.8" font-family="Times,serif" font-size="14.00">movq %r12, 0x37d1c0(%rip)</text>
<text text-anchor="middle" x="89.5" y="-620.8" font-family="Times,serif" font-size="14.00">xorb %r12b, %r12b</text>
<text text-anchor="middle" x="89.5" y="-605.8" font-family="Times,serif" font-size="14.00">sarq $1, %rax</text>
<text text-anchor="middle" x="89.5" y="-590.8" font-family="Times,serif" font-size="14.00">movq %r12, 0x37d1c3(%rip)</text>
<text text-anchor="middle" x="89.5" y="-575.8" font-family="Times,serif" font-size="14.00">movq %rax, 0x37d1b4(%rip)</text>
<text text-anchor="middle" x="89.5" y="-560.8" font-family="Times,serif" font-size="14.00">movq %r12, %rax</text>
<text text-anchor="middle" x="89.5" y="-545.8" font-family="Times,serif" font-size="14.00">sarq $1, %rax</text>
<text text-anchor="middle" x="89.5" y="-530.8" font-family="Times,serif" font-size="14.00">movq %rax, 0x37d1b7(%rip)</text>
<text text-anchor="middle" x="89.5" y="-515.8" font-family="Times,serif" font-size="14.00">testq %rbp, %rbp</text>
<text text-anchor="middle" x="89.5" y="-500.8" font-family="Times,serif" font-size="14.00">jle 0x4000c61ec7</text>
</g>
<!-- 1233&#45;&gt;1234 -->
<g id="edge10" class="edge"><title>1233&#45;&gt;1234</title>
<path fill="none" stroke="black" d="M89.5,-746.553C89.5,-738.763 89.5,-730.257 89.5,-721.4"/>
<polygon fill="black" stroke="black" points="93.0001,-721.271 89.5,-711.271 86.0001,-721.271 93.0001,-721.271"/>
</g>
<!-- 1235 -->
<g id="node12" class="node"><title>1235</title>
<polygon fill="none" stroke="black" points="179,-457 0,-457 0,-254 179,-254 179,-457"/>
<text text-anchor="middle" x="89.5" y="-441.8" font-family="Times,serif" font-size="14.00">0x4000c62042</text>
<text text-anchor="middle" x="89.5" y="-426.8" font-family="Times,serif" font-size="14.00">_______________________</text>
<text text-anchor="middle" x="89.5" y="-411.8" font-family="Times,serif" font-size="14.00">_______________________</text>
<text text-anchor="middle" x="89.5" y="-396.8" font-family="Times,serif" font-size="14.00">movq %rbp, %rax</text>
<text text-anchor="middle" x="89.5" y="-381.8" font-family="Times,serif" font-size="14.00">movq %rbp, 0x37d16c(%rip)</text>
<text text-anchor="middle" x="89.5" y="-366.8" font-family="Times,serif" font-size="14.00">xorb %bpl, %bpl</text>
<text text-anchor="middle" x="89.5" y="-351.8" font-family="Times,serif" font-size="14.00">sarq $1, %rax</text>
<text text-anchor="middle" x="89.5" y="-336.8" font-family="Times,serif" font-size="14.00">movq %rbp, 0x37d16f(%rip)</text>
<text text-anchor="middle" x="89.5" y="-321.8" font-family="Times,serif" font-size="14.00">movq %rax, 0x37d160(%rip)</text>
<text text-anchor="middle" x="89.5" y="-306.8" font-family="Times,serif" font-size="14.00">movq %rbp, %rax</text>
<text text-anchor="middle" x="89.5" y="-291.8" font-family="Times,serif" font-size="14.00">sarq $1, %rax</text>
<text text-anchor="middle" x="89.5" y="-276.8" font-family="Times,serif" font-size="14.00">movq %rax, 0x37d163(%rip)</text>
<text text-anchor="middle" x="89.5" y="-261.8" font-family="Times,serif" font-size="14.00">jmp 0x4000c61ece</text>
</g>
<!-- 1234&#45;&gt;1235 -->
<g id="edge11" class="edge"><title>1234&#45;&gt;1235</title>
<path fill="none" stroke="black" d="M89.5,-492.691C89.5,-484.336 89.5,-475.894 89.5,-467.522"/>
<polygon fill="black" stroke="black" points="93.0001,-467.356 89.5,-457.356 86.0001,-467.356 93.0001,-467.356"/>
</g>
<!-- 1236 -->
<g id="node13" class="node"><title>1236</title>
<polygon fill="none" stroke="black" points="178.5,-218 0.5,-218 0.5,-0 178.5,-0 178.5,-218"/>
<text text-anchor="middle" x="89.5" y="-202.8" font-family="Times,serif" font-size="14.00">0x4000c61ece</text>
<text text-anchor="middle" x="89.5" y="-187.8" font-family="Times,serif" font-size="14.00">_______________________</text>
<text text-anchor="middle" x="89.5" y="-172.8" font-family="Times,serif" font-size="14.00">_______________________</text>
<text text-anchor="middle" x="89.5" y="-157.8" font-family="Times,serif" font-size="14.00">leaq (%rbp, %rbp, 2), %rax</text>
<text text-anchor="middle" x="89.5" y="-142.8" font-family="Times,serif" font-size="14.00">addq %rax, %rax</text>
<text text-anchor="middle" x="89.5" y="-127.8" font-family="Times,serif" font-size="14.00">movq %rax, 0x3825ab(%rip)</text>
<text text-anchor="middle" x="89.5" y="-112.8" font-family="Times,serif" font-size="14.00">addq $0x18, %rsp</text>
<text text-anchor="middle" x="89.5" y="-97.8" font-family="Times,serif" font-size="14.00">popq %rbx</text>
<text text-anchor="middle" x="89.5" y="-82.8" font-family="Times,serif" font-size="14.00">popq %rbp</text>
<text text-anchor="middle" x="89.5" y="-67.8" font-family="Times,serif" font-size="14.00">popq %r12</text>
<text text-anchor="middle" x="89.5" y="-52.8" font-family="Times,serif" font-size="14.00">popq %r13</text>
<text text-anchor="middle" x="89.5" y="-37.8" font-family="Times,serif" font-size="14.00">popq %r14</text>
<text text-anchor="middle" x="89.5" y="-22.8" font-family="Times,serif" font-size="14.00">popq %r15</text>
<text text-anchor="middle" x="89.5" y="-7.8" font-family="Times,serif" font-size="14.00">retq </text>
</g>
<!-- 1235&#45;&gt;1236 -->
<g id="edge12" class="edge"><title>1235&#45;&gt;1236</title>
<path fill="none" stroke="black" d="M89.5,-253.994C89.5,-245.474 89.5,-236.808 89.5,-228.17"/>
<polygon fill="black" stroke="black" points="93.0001,-228.052 89.5,-218.052 86.0001,-228.052 93.0001,-228.052"/>
</g>
</g>
</svg>
