<?xml version="1.0" encoding="UTF-8" standalone="no"?>
<!DOCTYPE svg PUBLIC "-//W3C//DTD SVG 1.1//EN"
 "http://www.w3.org/Graphics/SVG/1.1/DTD/svg11.dtd">
<!-- Generated by graphviz version 2.38.0 (20140413.2041)
 -->
<!-- Title: %3 Pages: 1 -->
<svg width="189pt" height="1763pt"
 viewBox="0.00 0.00 189.00 1763.00" xmlns="http://www.w3.org/2000/svg" xmlns:xlink="http://www.w3.org/1999/xlink">
<g id="graph0" class="graph" transform="scale(1 1) rotate(0) translate(4 1759)">
<title>%3</title>
<polygon fill="white" stroke="none" points="-4,4 -4,-1759 185,-1759 185,4 -4,4"/>
<!-- 881 -->
<g id="node1" class="node"><title>881</title>
<polygon fill="none" stroke="black" points="180,-1755 1,-1755 1,-1582 180,-1582 180,-1755"/>
<text text-anchor="middle" x="90.5" y="-1739.8" font-family="Times,serif" font-size="14.00">0x4000a150b0</text>
<text text-anchor="middle" x="90.5" y="-1724.8" font-family="Times,serif" font-size="14.00">_______________________</text>
<text text-anchor="middle" x="90.5" y="-1709.8" font-family="Times,serif" font-size="14.00">_______________________</text>
<text text-anchor="middle" x="90.5" y="-1694.8" font-family="Times,serif" font-size="14.00">movq 0x211eb1(%rip), %r10</text>
<text text-anchor="middle" x="90.5" y="-1679.8" font-family="Times,serif" font-size="14.00">pushq %r14</text>
<text text-anchor="middle" x="90.5" y="-1664.8" font-family="Times,serif" font-size="14.00">pushq %r13</text>
<text text-anchor="middle" x="90.5" y="-1649.8" font-family="Times,serif" font-size="14.00">pushq %r12</text>
<text text-anchor="middle" x="90.5" y="-1634.8" font-family="Times,serif" font-size="14.00">pushq %rbp</text>
<text text-anchor="middle" x="90.5" y="-1619.8" font-family="Times,serif" font-size="14.00">pushq %rbx</text>
<text text-anchor="middle" x="90.5" y="-1604.8" font-family="Times,serif" font-size="14.00">testq %r10, %r10</text>
<text text-anchor="middle" x="90.5" y="-1589.8" font-family="Times,serif" font-size="14.00">je 0x4000a1523b</text>
</g>
<!-- 882 -->
<g id="node2" class="node"><title>882</title>
<polygon fill="none" stroke="black" points="176.5,-1546 4.5,-1546 4.5,-1463 176.5,-1463 176.5,-1546"/>
<text text-anchor="middle" x="90.5" y="-1530.8" font-family="Times,serif" font-size="14.00">0x4000a150c8</text>
<text text-anchor="middle" x="90.5" y="-1515.8" font-family="Times,serif" font-size="14.00">_______________________</text>
<text text-anchor="middle" x="90.5" y="-1500.8" font-family="Times,serif" font-size="14.00">_______________________</text>
<text text-anchor="middle" x="90.5" y="-1485.8" font-family="Times,serif" font-size="14.00">cmpq $0, 8(%r10)</text>
<text text-anchor="middle" x="90.5" y="-1470.8" font-family="Times,serif" font-size="14.00">jne 0x4000a1521c</text>
</g>
<!-- 881&#45;&gt;882 -->
<g id="edge1" class="edge"><title>881&#45;&gt;882</title>
<path fill="none" stroke="black" d="M90.5,-1581.76C90.5,-1573 90.5,-1564.33 90.5,-1556.13"/>
<polygon fill="black" stroke="black" points="94.0001,-1556.05 90.5,-1546.05 87.0001,-1556.05 94.0001,-1556.05"/>
</g>
<!-- 883 -->
<g id="node3" class="node"><title>883</title>
<polygon fill="none" stroke="black" points="176.5,-1427 4.5,-1427 4.5,-1329 176.5,-1329 176.5,-1427"/>
<text text-anchor="middle" x="90.5" y="-1411.8" font-family="Times,serif" font-size="14.00">0x4000a150d3</text>
<text text-anchor="middle" x="90.5" y="-1396.8" font-family="Times,serif" font-size="14.00">_______________________</text>
<text text-anchor="middle" x="90.5" y="-1381.8" font-family="Times,serif" font-size="14.00">_______________________</text>
<text text-anchor="middle" x="90.5" y="-1366.8" font-family="Times,serif" font-size="14.00">movq 0x18(%r10), %rsi</text>
<text text-anchor="middle" x="90.5" y="-1351.8" font-family="Times,serif" font-size="14.00">testq %rsi, %rsi</text>
<text text-anchor="middle" x="90.5" y="-1336.8" font-family="Times,serif" font-size="14.00">je 0x4000a151ee</text>
</g>
<!-- 882&#45;&gt;883 -->
<g id="edge2" class="edge"><title>882&#45;&gt;883</title>
<path fill="none" stroke="black" d="M90.5,-1462.73C90.5,-1454.58 90.5,-1445.86 90.5,-1437.25"/>
<polygon fill="black" stroke="black" points="94.0001,-1437.22 90.5,-1427.22 87.0001,-1437.22 94.0001,-1437.22"/>
</g>
<!-- 884 -->
<g id="node4" class="node"><title>884</title>
<polygon fill="none" stroke="black" points="176.5,-1293 4.5,-1293 4.5,-1195 176.5,-1195 176.5,-1293"/>
<text text-anchor="middle" x="90.5" y="-1277.8" font-family="Times,serif" font-size="14.00">0x4000a150e0</text>
<text text-anchor="middle" x="90.5" y="-1262.8" font-family="Times,serif" font-size="14.00">_______________________</text>
<text text-anchor="middle" x="90.5" y="-1247.8" font-family="Times,serif" font-size="14.00">_______________________</text>
<text text-anchor="middle" x="90.5" y="-1232.8" font-family="Times,serif" font-size="14.00">movq (%r10), %r13</text>
<text text-anchor="middle" x="90.5" y="-1217.8" font-family="Times,serif" font-size="14.00">testq %r13, %r13</text>
<text text-anchor="middle" x="90.5" y="-1202.8" font-family="Times,serif" font-size="14.00">je 0x4000a151fd</text>
</g>
<!-- 883&#45;&gt;884 -->
<g id="edge3" class="edge"><title>883&#45;&gt;884</title>
<path fill="none" stroke="black" d="M90.5,-1328.97C90.5,-1320.69 90.5,-1312 90.5,-1303.48"/>
<polygon fill="black" stroke="black" points="94.0001,-1303.21 90.5,-1293.21 87.0001,-1303.21 94.0001,-1303.21"/>
</g>
<!-- 885 -->
<g id="node5" class="node"><title>885</title>
<polygon fill="none" stroke="black" points="176.5,-1159 4.5,-1159 4.5,-1001 176.5,-1001 176.5,-1159"/>
<text text-anchor="middle" x="90.5" y="-1143.8" font-family="Times,serif" font-size="14.00">0x4000a150ec</text>
<text text-anchor="middle" x="90.5" y="-1128.8" font-family="Times,serif" font-size="14.00">_______________________</text>
<text text-anchor="middle" x="90.5" y="-1113.8" font-family="Times,serif" font-size="14.00">_______________________</text>
<text text-anchor="middle" x="90.5" y="-1098.8" font-family="Times,serif" font-size="14.00">addq $0x28, %r10</text>
<text text-anchor="middle" x="90.5" y="-1083.8" font-family="Times,serif" font-size="14.00">xorl %r11d, %r11d</text>
<text text-anchor="middle" x="90.5" y="-1068.8" font-family="Times,serif" font-size="14.00">xorl %ebx, %ebx</text>
<text text-anchor="middle" x="90.5" y="-1053.8" font-family="Times,serif" font-size="14.00">xorl %r12d, %r12d</text>
<text text-anchor="middle" x="90.5" y="-1038.8" font-family="Times,serif" font-size="14.00">xorl %ebp, %ebp</text>
<text text-anchor="middle" x="90.5" y="-1023.8" font-family="Times,serif" font-size="14.00">movl $0x40, %r9d</text>
<text text-anchor="middle" x="90.5" y="-1008.8" font-family="Times,serif" font-size="14.00">jmp 0x4000a15147</text>
</g>
<!-- 884&#45;&gt;885 -->
<g id="edge4" class="edge"><title>884&#45;&gt;885</title>
<path fill="none" stroke="black" d="M90.5,-1194.83C90.5,-1186.63 90.5,-1177.89 90.5,-1169.04"/>
<polygon fill="black" stroke="black" points="94.0001,-1169.02 90.5,-1159.02 87.0001,-1169.02 94.0001,-1169.02"/>
</g>
<!-- 886 -->
<g id="node6" class="node"><title>886</title>
<polygon fill="none" stroke="black" points="176.5,-965 4.5,-965 4.5,-732 176.5,-732 176.5,-965"/>
<text text-anchor="middle" x="90.5" y="-949.8" font-family="Times,serif" font-size="14.00">0x4000a15147</text>
<text text-anchor="middle" x="90.5" y="-934.8" font-family="Times,serif" font-size="14.00">_______________________</text>
<text text-anchor="middle" x="90.5" y="-919.8" font-family="Times,serif" font-size="14.00">_______________________</text>
<text text-anchor="middle" x="90.5" y="-904.8" font-family="Times,serif" font-size="14.00">movq 0x430(%rsi), %rcx</text>
<text text-anchor="middle" x="90.5" y="-889.8" font-family="Times,serif" font-size="14.00">movq 0x438(%rsi), %rax</text>
<text text-anchor="middle" x="90.5" y="-874.8" font-family="Times,serif" font-size="14.00">movq %r12, %rdi</text>
<text text-anchor="middle" x="90.5" y="-859.8" font-family="Times,serif" font-size="14.00">movq 0x428(%rsi), %r8</text>
<text text-anchor="middle" x="90.5" y="-844.8" font-family="Times,serif" font-size="14.00">leaq &#45;1(%rcx), %r14</text>
<text text-anchor="middle" x="90.5" y="-829.8" font-family="Times,serif" font-size="14.00">negq %rax</text>
<text text-anchor="middle" x="90.5" y="-814.8" font-family="Times,serif" font-size="14.00">andq %rax, %r14</text>
<text text-anchor="middle" x="90.5" y="-799.8" font-family="Times,serif" font-size="14.00">cmpq %rcx, %r9</text>
<text text-anchor="middle" x="90.5" y="-784.8" font-family="Times,serif" font-size="14.00">cmovbq %rcx, %r9</text>
<text text-anchor="middle" x="90.5" y="-769.8" font-family="Times,serif" font-size="14.00">subq %rbp, %rdi</text>
<text text-anchor="middle" x="90.5" y="-754.8" font-family="Times,serif" font-size="14.00">cmpq %r8, %rdi</text>
<text text-anchor="middle" x="90.5" y="-739.8" font-family="Times,serif" font-size="14.00">jae 0x4000a15108</text>
</g>
<!-- 885&#45;&gt;886 -->
<g id="edge5" class="edge"><title>885&#45;&gt;886</title>
<path fill="none" stroke="black" d="M90.5,-1000.98C90.5,-992.669 90.5,-984.069 90.5,-975.383"/>
<polygon fill="black" stroke="black" points="94.0001,-975.159 90.5,-965.159 87.0001,-975.159 94.0001,-975.159"/>
</g>
<!-- 887 -->
<g id="node7" class="node"><title>887</title>
<polygon fill="none" stroke="black" points="176.5,-696 4.5,-696 4.5,-478 176.5,-478 176.5,-696"/>
<text text-anchor="middle" x="90.5" y="-680.8" font-family="Times,serif" font-size="14.00">0x4000a15178</text>
<text text-anchor="middle" x="90.5" y="-665.8" font-family="Times,serif" font-size="14.00">_______________________</text>
<text text-anchor="middle" x="90.5" y="-650.8" font-family="Times,serif" font-size="14.00">_______________________</text>
<text text-anchor="middle" x="90.5" y="-635.8" font-family="Times,serif" font-size="14.00">leaq &#45;1(%rbx, %rcx), %rax</text>
<text text-anchor="middle" x="90.5" y="-620.8" font-family="Times,serif" font-size="14.00">xorl %edx, %edx</text>
<text text-anchor="middle" x="90.5" y="-605.8" font-family="Times,serif" font-size="14.00">addq %r8, %rdi</text>
<text text-anchor="middle" x="90.5" y="-590.8" font-family="Times,serif" font-size="14.00">addq %rbx, %rdi</text>
<text text-anchor="middle" x="90.5" y="-575.8" font-family="Times,serif" font-size="14.00">addq %r8, %rax</text>
<text text-anchor="middle" x="90.5" y="-560.8" font-family="Times,serif" font-size="14.00">subq %r14, %rax</text>
<text text-anchor="middle" x="90.5" y="-545.8" font-family="Times,serif" font-size="14.00">divq %rcx</text>
<text text-anchor="middle" x="90.5" y="-530.8" font-family="Times,serif" font-size="14.00">imulq %rcx, %rax</text>
<text text-anchor="middle" x="90.5" y="-515.8" font-family="Times,serif" font-size="14.00">addq %r14, %rax</text>
<text text-anchor="middle" x="90.5" y="-500.8" font-family="Times,serif" font-size="14.00">cmpq %rdi, %rax</text>
<text text-anchor="middle" x="90.5" y="-485.8" font-family="Times,serif" font-size="14.00">jbe 0x4000a151a3</text>
</g>
<!-- 886&#45;&gt;887 -->
<g id="edge6" class="edge"><title>886&#45;&gt;887</title>
<path fill="none" stroke="black" d="M90.5,-731.79C90.5,-723.242 90.5,-714.611 90.5,-706.048"/>
<polygon fill="black" stroke="black" points="94.0001,-706.037 90.5,-696.037 87.0001,-706.037 94.0001,-706.037"/>
</g>
<!-- 888 -->
<g id="node8" class="node"><title>888</title>
<polygon fill="none" stroke="black" points="176.5,-442 4.5,-442 4.5,-299 176.5,-299 176.5,-442"/>
<text text-anchor="middle" x="90.5" y="-426.8" font-family="Times,serif" font-size="14.00">0x4000a151a3</text>
<text text-anchor="middle" x="90.5" y="-411.8" font-family="Times,serif" font-size="14.00">_______________________</text>
<text text-anchor="middle" x="90.5" y="-396.8" font-family="Times,serif" font-size="14.00">_______________________</text>
<text text-anchor="middle" x="90.5" y="-381.8" font-family="Times,serif" font-size="14.00">movq %rax, 0x440(%rsi)</text>
<text text-anchor="middle" x="90.5" y="-366.8" font-family="Times,serif" font-size="14.00">movq (%r10), %rsi</text>
<text text-anchor="middle" x="90.5" y="-351.8" font-family="Times,serif" font-size="14.00">addq $1, %r11</text>
<text text-anchor="middle" x="90.5" y="-336.8" font-family="Times,serif" font-size="14.00">movq %rax, %rbx</text>
<text text-anchor="middle" x="90.5" y="-321.8" font-family="Times,serif" font-size="14.00">testq %rsi, %rsi</text>
<text text-anchor="middle" x="90.5" y="-306.8" font-family="Times,serif" font-size="14.00">jne 0x4000a1513a</text>
</g>
<!-- 887&#45;&gt;888 -->
<g id="edge7" class="edge"><title>887&#45;&gt;888</title>
<path fill="none" stroke="black" d="M90.5,-477.807C90.5,-469.221 90.5,-460.642 90.5,-452.292"/>
<polygon fill="black" stroke="black" points="94.0001,-452.234 90.5,-442.235 87.0001,-452.235 94.0001,-452.234"/>
</g>
<!-- 889 -->
<g id="node9" class="node"><title>889</title>
<polygon fill="none" stroke="black" points="181,-263 0,-263 0,-0 181,-0 181,-263"/>
<text text-anchor="middle" x="90.5" y="-247.8" font-family="Times,serif" font-size="14.00">0x4000a151b9</text>
<text text-anchor="middle" x="90.5" y="-232.8" font-family="Times,serif" font-size="14.00">_______________________</text>
<text text-anchor="middle" x="90.5" y="-217.8" font-family="Times,serif" font-size="14.00">_______________________</text>
<text text-anchor="middle" x="90.5" y="-202.8" font-family="Times,serif" font-size="14.00">leaq 0x67f(%rbx, %r9), %rax</text>
<text text-anchor="middle" x="90.5" y="-187.8" font-family="Times,serif" font-size="14.00">xorl %edx, %edx</text>
<text text-anchor="middle" x="90.5" y="-172.8" font-family="Times,serif" font-size="14.00">divq %r9</text>
<text text-anchor="middle" x="90.5" y="-157.8" font-family="Times,serif" font-size="14.00">imulq %r9, %rax</text>
<text text-anchor="middle" x="90.5" y="-142.8" font-family="Times,serif" font-size="14.00">addq $0x900, %rax</text>
<text text-anchor="middle" x="90.5" y="-127.8" font-family="Times,serif" font-size="14.00">movq %rbx, 0x211da9(%rip)</text>
<text text-anchor="middle" x="90.5" y="-112.8" font-family="Times,serif" font-size="14.00">movq %rax, 0x211d9a(%rip)</text>
<text text-anchor="middle" x="90.5" y="-97.8" font-family="Times,serif" font-size="14.00">popq %rbx</text>
<text text-anchor="middle" x="90.5" y="-82.8" font-family="Times,serif" font-size="14.00">movq %r9, 0x211da2(%rip)</text>
<text text-anchor="middle" x="90.5" y="-67.8" font-family="Times,serif" font-size="14.00">popq %rbp</text>
<text text-anchor="middle" x="90.5" y="-52.8" font-family="Times,serif" font-size="14.00">popq %r12</text>
<text text-anchor="middle" x="90.5" y="-37.8" font-family="Times,serif" font-size="14.00">popq %r13</text>
<text text-anchor="middle" x="90.5" y="-22.8" font-family="Times,serif" font-size="14.00">popq %r14</text>
<text text-anchor="middle" x="90.5" y="-7.8" font-family="Times,serif" font-size="14.00">retq </text>
</g>
<!-- 888&#45;&gt;889 -->
<g id="edge8" class="edge"><title>888&#45;&gt;889</title>
<path fill="none" stroke="black" d="M90.5,-298.713C90.5,-290.576 90.5,-282.079 90.5,-273.416"/>
<polygon fill="black" stroke="black" points="94.0001,-273.181 90.5,-263.181 87.0001,-273.181 94.0001,-273.181"/>
</g>
</g>
</svg>
