<?xml version="1.0" encoding="UTF-8" standalone="no"?>
<!DOCTYPE svg PUBLIC "-//W3C//DTD SVG 1.1//EN"
 "http://www.w3.org/Graphics/SVG/1.1/DTD/svg11.dtd">
<!-- Generated by graphviz version 2.38.0 (20140413.2041)
 -->
<!-- Title: %3 Pages: 1 -->
<svg width="201pt" height="2210pt"
 viewBox="0.00 0.00 201.00 2210.00" xmlns="http://www.w3.org/2000/svg" xmlns:xlink="http://www.w3.org/1999/xlink">
<g id="graph0" class="graph" transform="scale(1 1) rotate(0) translate(4 2206)">
<title>%3</title>
<polygon fill="white" stroke="none" points="-4,4 -4,-2206 197,-2206 197,4 -4,4"/>
<!-- 1191 -->
<g id="node1" class="node"><title>1191</title>
<polygon fill="none" stroke="black" points="176.5,-2202 1.5,-2202 1.5,-1984 176.5,-1984 176.5,-2202"/>
<text text-anchor="middle" x="89" y="-2186.8" font-family="Times,serif" font-size="14.00">0x4000c622d0</text>
<text text-anchor="middle" x="89" y="-2171.8" font-family="Times,serif" font-size="14.00">_______________________</text>
<text text-anchor="middle" x="89" y="-2156.8" font-family="Times,serif" font-size="14.00">_______________________</text>
<text text-anchor="middle" x="89" y="-2141.8" font-family="Times,serif" font-size="14.00">pushq %r13</text>
<text text-anchor="middle" x="89" y="-2126.8" font-family="Times,serif" font-size="14.00">pushq %r12</text>
<text text-anchor="middle" x="89" y="-2111.8" font-family="Times,serif" font-size="14.00">movq %rdx, %r12</text>
<text text-anchor="middle" x="89" y="-2096.8" font-family="Times,serif" font-size="14.00">pushq %rbp</text>
<text text-anchor="middle" x="89" y="-2081.8" font-family="Times,serif" font-size="14.00">pushq %rbx</text>
<text text-anchor="middle" x="89" y="-2066.8" font-family="Times,serif" font-size="14.00">movq %rsi, %rbp</text>
<text text-anchor="middle" x="89" y="-2051.8" font-family="Times,serif" font-size="14.00">movl %edi, %ebx</text>
<text text-anchor="middle" x="89" y="-2036.8" font-family="Times,serif" font-size="14.00">subq $0x28, %rsp</text>
<text text-anchor="middle" x="89" y="-2021.8" font-family="Times,serif" font-size="14.00">movq 0x37cc5f(%rip), %rax</text>
<text text-anchor="middle" x="89" y="-2006.8" font-family="Times,serif" font-size="14.00">testq %rax, %rax</text>
<text text-anchor="middle" x="89" y="-1991.8" font-family="Times,serif" font-size="14.00">je 0x4000c623f8</text>
</g>
<!-- 1192 -->
<g id="node2" class="node"><title>1192</title>
<polygon fill="none" stroke="black" points="178,-1948 0,-1948 0,-1805 178,-1805 178,-1948"/>
<text text-anchor="middle" x="89" y="-1932.8" font-family="Times,serif" font-size="14.00">0x4000c623f8</text>
<text text-anchor="middle" x="89" y="-1917.8" font-family="Times,serif" font-size="14.00">_______________________</text>
<text text-anchor="middle" x="89" y="-1902.8" font-family="Times,serif" font-size="14.00">_______________________</text>
<text text-anchor="middle" x="89" y="-1887.8" font-family="Times,serif" font-size="14.00">movq 0x37cbb1(%rip), %rax</text>
<text text-anchor="middle" x="89" y="-1872.8" font-family="Times,serif" font-size="14.00">movl $0, 0x37cc77(%rip)</text>
<text text-anchor="middle" x="89" y="-1857.8" font-family="Times,serif" font-size="14.00">movzwl (%rax), %edi</text>
<text text-anchor="middle" x="89" y="-1842.8" font-family="Times,serif" font-size="14.00">movq 0x37ca55(%rip), %rax</text>
<text text-anchor="middle" x="89" y="-1827.8" font-family="Times,serif" font-size="14.00">cmpw %di, 0x50(%rax)</text>
<text text-anchor="middle" x="89" y="-1812.8" font-family="Times,serif" font-size="14.00">je 0x4000c62306</text>
</g>
<!-- 1191&#45;&gt;1192 -->
<g id="edge1" class="edge"><title>1191&#45;&gt;1192</title>
<path fill="none" stroke="black" d="M89,-1983.81C89,-1975.22 89,-1966.64 89,-1958.29"/>
<polygon fill="black" stroke="black" points="92.5001,-1958.23 89,-1948.23 85.5001,-1958.23 92.5001,-1958.23"/>
</g>
<!-- 1193 -->
<g id="node3" class="node"><title>1193</title>
<polygon fill="none" stroke="black" points="177.5,-1769 0.5,-1769 0.5,-1551 177.5,-1551 177.5,-1769"/>
<text text-anchor="middle" x="89" y="-1753.8" font-family="Times,serif" font-size="14.00">0x4000c62306</text>
<text text-anchor="middle" x="89" y="-1738.8" font-family="Times,serif" font-size="14.00">_______________________</text>
<text text-anchor="middle" x="89" y="-1723.8" font-family="Times,serif" font-size="14.00">_______________________</text>
<text text-anchor="middle" x="89" y="-1708.8" font-family="Times,serif" font-size="14.00">movq 0x37cbab(%rip), %rax</text>
<text text-anchor="middle" x="89" y="-1693.8" font-family="Times,serif" font-size="14.00">leaq 0x147ef9(%rip), %rcx</text>
<text text-anchor="middle" x="89" y="-1678.8" font-family="Times,serif" font-size="14.00">movl %ebx, 0x381fe6(%rip)</text>
<text text-anchor="middle" x="89" y="-1663.8" font-family="Times,serif" font-size="14.00">movq %rbp, 0x381fd7(%rip)</text>
<text text-anchor="middle" x="89" y="-1648.8" font-family="Times,serif" font-size="14.00">movl $1, 0xc(%rsp)</text>
<text text-anchor="middle" x="89" y="-1633.8" font-family="Times,serif" font-size="14.00">movl $0x5f, %edx</text>
<text text-anchor="middle" x="89" y="-1618.8" font-family="Times,serif" font-size="14.00">movl $0x3ae75f6, 8(%rsp)</text>
<text text-anchor="middle" x="89" y="-1603.8" font-family="Times,serif" font-size="14.00">movq %r12, (%rax)</text>
<text text-anchor="middle" x="89" y="-1588.8" font-family="Times,serif" font-size="14.00">leaq 0x147ec8(%rip), %rax</text>
<text text-anchor="middle" x="89" y="-1573.8" font-family="Times,serif" font-size="14.00">movq %rax, (%rsp)</text>
<text text-anchor="middle" x="89" y="-1558.8" font-family="Times,serif" font-size="14.00">movl $0x50e3a8, %eax</text>
</g>
<!-- 1192&#45;&gt;1193 -->
<g id="edge2" class="edge"><title>1192&#45;&gt;1193</title>
<path fill="none" stroke="black" d="M89,-1804.97C89,-1796.72 89,-1788.14 89,-1779.46"/>
<polygon fill="black" stroke="black" points="92.5001,-1779.24 89,-1769.24 85.5001,-1779.24 92.5001,-1779.24"/>
</g>
<!-- 1194 -->
<g id="node4" class="node"><title>1194</title>
<polygon fill="none" stroke="black" points="175,-1515 3,-1515 3,-1312 175,-1312 175,-1515"/>
<text text-anchor="middle" x="89" y="-1499.8" font-family="Times,serif" font-size="14.00">0x4000c62349</text>
<text text-anchor="middle" x="89" y="-1484.8" font-family="Times,serif" font-size="14.00">_______________________</text>
<text text-anchor="middle" x="89" y="-1469.8" font-family="Times,serif" font-size="14.00">_______________________</text>
<text text-anchor="middle" x="89" y="-1454.8" font-family="Times,serif" font-size="14.00">shlq $4, %rax</text>
<text text-anchor="middle" x="89" y="-1439.8" font-family="Times,serif" font-size="14.00">addq $1, %rcx</text>
<text text-anchor="middle" x="89" y="-1424.8" font-family="Times,serif" font-size="14.00">addq %rdx, %rax</text>
<text text-anchor="middle" x="89" y="-1409.8" font-family="Times,serif" font-size="14.00">movq %rax, %rdx</text>
<text text-anchor="middle" x="89" y="-1394.8" font-family="Times,serif" font-size="14.00">shrq $0x18, %rdx</text>
<text text-anchor="middle" x="89" y="-1379.8" font-family="Times,serif" font-size="14.00">andl $0xf0, %edx</text>
<text text-anchor="middle" x="89" y="-1364.8" font-family="Times,serif" font-size="14.00">xorq %rdx, %rax</text>
<text text-anchor="middle" x="89" y="-1349.8" font-family="Times,serif" font-size="14.00">movzbl (%rcx), %edx</text>
<text text-anchor="middle" x="89" y="-1334.8" font-family="Times,serif" font-size="14.00">testb %dl, %dl</text>
<text text-anchor="middle" x="89" y="-1319.8" font-family="Times,serif" font-size="14.00">jne 0x4000c62349</text>
</g>
<!-- 1193&#45;&gt;1194 -->
<g id="edge3" class="edge"><title>1193&#45;&gt;1194</title>
<path fill="none" stroke="black" d="M89,-1550.69C89,-1542.34 89,-1533.89 89,-1525.52"/>
<polygon fill="black" stroke="black" points="92.5001,-1525.36 89,-1515.36 85.5001,-1525.36 92.5001,-1525.36"/>
</g>
<!-- 1194&#45;&gt;1194 -->
<g id="edge4" class="edge"><title>1194&#45;&gt;1194</title>
<path fill="none" stroke="black" d="M175.077,-1443.87C185.886,-1438.52 193,-1428.39 193,-1413.5 193,-1403.03 189.483,-1394.91 183.638,-1389.16"/>
<polygon fill="black" stroke="black" points="185.268,-1386.03 175.077,-1383.13 181.238,-1391.75 185.268,-1386.03"/>
</g>
<!-- 1195 -->
<g id="node5" class="node"><title>1195</title>
<polygon fill="none" stroke="black" points="175,-1276 3,-1276 3,-1178 175,-1178 175,-1276"/>
<text text-anchor="middle" x="89" y="-1260.8" font-family="Times,serif" font-size="14.00">0x4000c6236b</text>
<text text-anchor="middle" x="89" y="-1245.8" font-family="Times,serif" font-size="14.00">_______________________</text>
<text text-anchor="middle" x="89" y="-1230.8" font-family="Times,serif" font-size="14.00">_______________________</text>
<text text-anchor="middle" x="89" y="-1215.8" font-family="Times,serif" font-size="14.00">andl $0xfffffff, %eax</text>
<text text-anchor="middle" x="89" y="-1200.8" font-family="Times,serif" font-size="14.00">cmpq $0x3ae75f6, %rax</text>
<text text-anchor="middle" x="89" y="-1185.8" font-family="Times,serif" font-size="14.00">jne 0x4000c6243c</text>
</g>
<!-- 1194&#45;&gt;1195 -->
<g id="edge5" class="edge"><title>1194&#45;&gt;1195</title>
<path fill="none" stroke="black" d="M89,-1311.88C89,-1303.23 89,-1294.67 89,-1286.52"/>
<polygon fill="black" stroke="black" points="92.5001,-1286.44 89,-1276.44 85.5001,-1286.44 92.5001,-1286.44"/>
</g>
<!-- 1196 -->
<g id="node6" class="node"><title>1196</title>
<polygon fill="none" stroke="black" points="175,-1142 3,-1142 3,-984 175,-984 175,-1142"/>
<text text-anchor="middle" x="89" y="-1126.8" font-family="Times,serif" font-size="14.00">0x4000c6237c</text>
<text text-anchor="middle" x="89" y="-1111.8" font-family="Times,serif" font-size="14.00">_______________________</text>
<text text-anchor="middle" x="89" y="-1096.8" font-family="Times,serif" font-size="14.00">_______________________</text>
<text text-anchor="middle" x="89" y="-1081.8" font-family="Times,serif" font-size="14.00">leaq 0x147e8f(%rip), %rdi</text>
<text text-anchor="middle" x="89" y="-1066.8" font-family="Times,serif" font-size="14.00">movq %rsp, %rsi</text>
<text text-anchor="middle" x="89" y="-1051.8" font-family="Times,serif" font-size="14.00">movq $0, 0x10(%rsp)</text>
<text text-anchor="middle" x="89" y="-1036.8" font-family="Times,serif" font-size="14.00">movq %rsp, %r13</text>
<text text-anchor="middle" x="89" y="-1021.8" font-family="Times,serif" font-size="14.00">callq 0x4000d68670</text>
<text text-anchor="middle" x="89" y="-1006.8" font-family="Times,serif" font-size="14.00">_______________________</text>
<text text-anchor="middle" x="89" y="-991.8" font-family="Times,serif" font-size="14.00">CALL 0x4000d68670</text>
</g>
<!-- 1195&#45;&gt;1196 -->
<g id="edge6" class="edge"><title>1195&#45;&gt;1196</title>
<path fill="none" stroke="black" d="M89,-1177.83C89,-1169.63 89,-1160.89 89,-1152.04"/>
<polygon fill="black" stroke="black" points="92.5001,-1152.02 89,-1142.02 85.5001,-1152.02 92.5001,-1152.02"/>
</g>
<!-- 1197 -->
<g id="node7" class="node"><title>1197</title>
<polygon fill="none" stroke="black" points="175,-948 3,-948 3,-865 175,-865 175,-948"/>
<text text-anchor="middle" x="89" y="-932.8" font-family="Times,serif" font-size="14.00">0x4000c62397</text>
<text text-anchor="middle" x="89" y="-917.8" font-family="Times,serif" font-size="14.00">_______________________</text>
<text text-anchor="middle" x="89" y="-902.8" font-family="Times,serif" font-size="14.00">_______________________</text>
<text text-anchor="middle" x="89" y="-887.8" font-family="Times,serif" font-size="14.00">testq %rax, %rax</text>
<text text-anchor="middle" x="89" y="-872.8" font-family="Times,serif" font-size="14.00">je 0x4000c62430</text>
</g>
<!-- 1196&#45;&gt;1197 -->
<g id="edge7" class="edge"><title>1196&#45;&gt;1197</title>
<path fill="none" stroke="black" d="M89,-983.845C89,-975.214 89,-966.599 89,-958.429"/>
<polygon fill="black" stroke="black" points="92.5001,-958.352 89,-948.352 85.5001,-958.352 92.5001,-958.352"/>
</g>
<!-- 1198 -->
<g id="node8" class="node"><title>1198</title>
<polygon fill="none" stroke="black" points="175,-829 3,-829 3,-746 175,-746 175,-829"/>
<text text-anchor="middle" x="89" y="-813.8" font-family="Times,serif" font-size="14.00">0x4000c62430</text>
<text text-anchor="middle" x="89" y="-798.8" font-family="Times,serif" font-size="14.00">_______________________</text>
<text text-anchor="middle" x="89" y="-783.8" font-family="Times,serif" font-size="14.00">_______________________</text>
<text text-anchor="middle" x="89" y="-768.8" font-family="Times,serif" font-size="14.00">leaq 0xcc959(%rip), %rax</text>
<text text-anchor="middle" x="89" y="-753.8" font-family="Times,serif" font-size="14.00">jmp 0x4000c623a0</text>
</g>
<!-- 1197&#45;&gt;1198 -->
<g id="edge8" class="edge"><title>1197&#45;&gt;1198</title>
<path fill="none" stroke="black" d="M89,-864.907C89,-856.649 89,-847.864 89,-839.302"/>
<polygon fill="black" stroke="black" points="92.5001,-839.021 89,-829.021 85.5001,-839.021 92.5001,-839.021"/>
</g>
<!-- 1199 -->
<g id="node9" class="node"><title>1199</title>
<polygon fill="none" stroke="black" points="177,-710 1,-710 1,-537 177,-537 177,-710"/>
<text text-anchor="middle" x="89" y="-694.8" font-family="Times,serif" font-size="14.00">0x4000c623a0</text>
<text text-anchor="middle" x="89" y="-679.8" font-family="Times,serif" font-size="14.00">_______________________</text>
<text text-anchor="middle" x="89" y="-664.8" font-family="Times,serif" font-size="14.00">_______________________</text>
<text text-anchor="middle" x="89" y="-649.8" font-family="Times,serif" font-size="14.00">leaq 0x147e80(%rip), %rdi</text>
<text text-anchor="middle" x="89" y="-634.8" font-family="Times,serif" font-size="14.00">movq %r13, %rsi</text>
<text text-anchor="middle" x="89" y="-619.8" font-family="Times,serif" font-size="14.00">xorq %fs:0x30, %rax</text>
<text text-anchor="middle" x="89" y="-604.8" font-family="Times,serif" font-size="14.00">rolq $0x11, %rax</text>
<text text-anchor="middle" x="89" y="-589.8" font-family="Times,serif" font-size="14.00">movq %rax, 0x381f2a(%rip)</text>
<text text-anchor="middle" x="89" y="-574.8" font-family="Times,serif" font-size="14.00">callq 0x4000d68670</text>
<text text-anchor="middle" x="89" y="-559.8" font-family="Times,serif" font-size="14.00">_______________________</text>
<text text-anchor="middle" x="89" y="-544.8" font-family="Times,serif" font-size="14.00">CALL 0x4000d68670</text>
</g>
<!-- 1198&#45;&gt;1199 -->
<g id="edge9" class="edge"><title>1198&#45;&gt;1199</title>
<path fill="none" stroke="black" d="M89,-745.621C89,-737.721 89,-729.14 89,-720.316"/>
<polygon fill="black" stroke="black" points="92.5001,-720.273 89,-710.273 85.5001,-720.273 92.5001,-720.273"/>
</g>
<!-- 1200 -->
<g id="node10" class="node"><title>1200</title>
<polygon fill="none" stroke="black" points="177,-501 1,-501 1,-313 177,-313 177,-501"/>
<text text-anchor="middle" x="89" y="-485.8" font-family="Times,serif" font-size="14.00">0x4000c623c3</text>
<text text-anchor="middle" x="89" y="-470.8" font-family="Times,serif" font-size="14.00">_______________________</text>
<text text-anchor="middle" x="89" y="-455.8" font-family="Times,serif" font-size="14.00">_______________________</text>
<text text-anchor="middle" x="89" y="-440.8" font-family="Times,serif" font-size="14.00">movq %r12, %rdx</text>
<text text-anchor="middle" x="89" y="-425.8" font-family="Times,serif" font-size="14.00">movq %rbp, %rsi</text>
<text text-anchor="middle" x="89" y="-410.8" font-family="Times,serif" font-size="14.00">movl %ebx, %edi</text>
<text text-anchor="middle" x="89" y="-395.8" font-family="Times,serif" font-size="14.00">xorq %fs:0x30, %rax</text>
<text text-anchor="middle" x="89" y="-380.8" font-family="Times,serif" font-size="14.00">rolq $0x11, %rax</text>
<text text-anchor="middle" x="89" y="-365.8" font-family="Times,serif" font-size="14.00">movq %rax, 0x381f11(%rip)</text>
<text text-anchor="middle" x="89" y="-350.8" font-family="Times,serif" font-size="14.00">callq 0x4000d2e8d0</text>
<text text-anchor="middle" x="89" y="-335.8" font-family="Times,serif" font-size="14.00">_______________________</text>
<text text-anchor="middle" x="89" y="-320.8" font-family="Times,serif" font-size="14.00">CALL 0x4000d2e8d0</text>
</g>
<!-- 1199&#45;&gt;1200 -->
<g id="edge10" class="edge"><title>1199&#45;&gt;1200</title>
<path fill="none" stroke="black" d="M89,-536.799C89,-528.503 89,-520.028 89,-511.582"/>
<polygon fill="black" stroke="black" points="92.5001,-511.31 89,-501.31 85.5001,-511.31 92.5001,-511.31"/>
</g>
<!-- 1210 -->
<g id="node11" class="node"><title>1210</title>
<polygon fill="none" stroke="black" points="175,-277 3,-277 3,-179 175,-179 175,-277"/>
<text text-anchor="middle" x="89" y="-261.8" font-family="Times,serif" font-size="14.00">0x4000c623e4</text>
<text text-anchor="middle" x="89" y="-246.8" font-family="Times,serif" font-size="14.00">_______________________</text>
<text text-anchor="middle" x="89" y="-231.8" font-family="Times,serif" font-size="14.00">_______________________</text>
<text text-anchor="middle" x="89" y="-216.8" font-family="Times,serif" font-size="14.00">callq 0x4000c6ebf0</text>
<text text-anchor="middle" x="89" y="-201.8" font-family="Times,serif" font-size="14.00">_______________________</text>
<text text-anchor="middle" x="89" y="-186.8" font-family="Times,serif" font-size="14.00">CALL __ctype_init</text>
</g>
<!-- 1200&#45;&gt;1210 -->
<g id="edge11" class="edge"><title>1200&#45;&gt;1210</title>
<path fill="none" stroke="black" d="M89,-312.835C89,-304.168 89,-295.561 89,-287.348"/>
<polygon fill="black" stroke="black" points="92.5001,-287.18 89,-277.18 85.5001,-287.18 92.5001,-287.18"/>
</g>
<!-- 1212 -->
<g id="node12" class="node"><title>1212</title>
<polygon fill="none" stroke="black" points="175,-143 3,-143 3,-0 175,-0 175,-143"/>
<text text-anchor="middle" x="89" y="-127.8" font-family="Times,serif" font-size="14.00">0x4000c623e9</text>
<text text-anchor="middle" x="89" y="-112.8" font-family="Times,serif" font-size="14.00">_______________________</text>
<text text-anchor="middle" x="89" y="-97.8" font-family="Times,serif" font-size="14.00">_______________________</text>
<text text-anchor="middle" x="89" y="-82.8" font-family="Times,serif" font-size="14.00">addq $0x28, %rsp</text>
<text text-anchor="middle" x="89" y="-67.8" font-family="Times,serif" font-size="14.00">popq %rbx</text>
<text text-anchor="middle" x="89" y="-52.8" font-family="Times,serif" font-size="14.00">popq %rbp</text>
<text text-anchor="middle" x="89" y="-37.8" font-family="Times,serif" font-size="14.00">popq %r12</text>
<text text-anchor="middle" x="89" y="-22.8" font-family="Times,serif" font-size="14.00">popq %r13</text>
<text text-anchor="middle" x="89" y="-7.8" font-family="Times,serif" font-size="14.00">retq </text>
</g>
<!-- 1210&#45;&gt;1212 -->
<g id="edge12" class="edge"><title>1210&#45;&gt;1212</title>
<path fill="none" stroke="black" d="M89,-178.962C89,-170.813 89,-162.154 89,-153.434"/>
<polygon fill="black" stroke="black" points="92.5001,-153.194 89,-143.194 85.5001,-153.194 92.5001,-153.194"/>
</g>
</g>
</svg>
