<?xml version="1.0" encoding="UTF-8" standalone="no"?>
<!DOCTYPE svg PUBLIC "-//W3C//DTD SVG 1.1//EN"
 "http://www.w3.org/Graphics/SVG/1.1/DTD/svg11.dtd">
<!-- Generated by graphviz version 2.38.0 (20140413.2041)
 -->
<!-- Title: %3 Pages: 1 -->
<svg width="192pt" height="688pt"
 viewBox="0.00 0.00 192.00 688.00" xmlns="http://www.w3.org/2000/svg" xmlns:xlink="http://www.w3.org/1999/xlink">
<g id="graph0" class="graph" transform="scale(1 1) rotate(0) translate(4 684)">
<title>%3</title>
<polygon fill="white" stroke="none" points="-4,4 -4,-684 188,-684 188,4 -4,4"/>
<!-- 1204 -->
<g id="node1" class="node"><title>1204</title>
<polygon fill="none" stroke="black" points="184,-680 0,-680 0,-507 184,-507 184,-680"/>
<text text-anchor="middle" x="92" y="-664.8" font-family="Times,serif" font-size="14.00">0x4000cc5c00</text>
<text text-anchor="middle" x="92" y="-649.8" font-family="Times,serif" font-size="14.00">_______________________</text>
<text text-anchor="middle" x="92" y="-634.8" font-family="Times,serif" font-size="14.00">_______________________</text>
<text text-anchor="middle" x="92" y="-619.8" font-family="Times,serif" font-size="14.00">movd %esi, %xmm1</text>
<text text-anchor="middle" x="92" y="-604.8" font-family="Times,serif" font-size="14.00">movq %rdi, %rax</text>
<text text-anchor="middle" x="92" y="-589.8" font-family="Times,serif" font-size="14.00">andl $0xfff, %eax</text>
<text text-anchor="middle" x="92" y="-574.8" font-family="Times,serif" font-size="14.00">punpcklbw %xmm1, %xmm1</text>
<text text-anchor="middle" x="92" y="-559.8" font-family="Times,serif" font-size="14.00">cmpq $0xfc0, %rax</text>
<text text-anchor="middle" x="92" y="-544.8" font-family="Times,serif" font-size="14.00">punpcklwd %xmm1, %xmm1</text>
<text text-anchor="middle" x="92" y="-529.8" font-family="Times,serif" font-size="14.00">pshufd $0, %xmm1, %xmm1</text>
<text text-anchor="middle" x="92" y="-514.8" font-family="Times,serif" font-size="14.00">ja 0x4000cc5e20</text>
</g>
<!-- 1205 -->
<g id="node2" class="node"><title>1205</title>
<polygon fill="none" stroke="black" points="179,-471 5,-471 5,-283 179,-283 179,-471"/>
<text text-anchor="middle" x="92" y="-455.8" font-family="Times,serif" font-size="14.00">0x4000cc5c25</text>
<text text-anchor="middle" x="92" y="-440.8" font-family="Times,serif" font-size="14.00">_______________________</text>
<text text-anchor="middle" x="92" y="-425.8" font-family="Times,serif" font-size="14.00">_______________________</text>
<text text-anchor="middle" x="92" y="-410.8" font-family="Times,serif" font-size="14.00">movdqu (%rdi), %xmm0</text>
<text text-anchor="middle" x="92" y="-395.8" font-family="Times,serif" font-size="14.00">pxor %xmm2, %xmm2</text>
<text text-anchor="middle" x="92" y="-380.8" font-family="Times,serif" font-size="14.00">movdqa %xmm0, %xmm3</text>
<text text-anchor="middle" x="92" y="-365.8" font-family="Times,serif" font-size="14.00">pcmpeqb %xmm1, %xmm0</text>
<text text-anchor="middle" x="92" y="-350.8" font-family="Times,serif" font-size="14.00">pcmpeqb %xmm2, %xmm3</text>
<text text-anchor="middle" x="92" y="-335.8" font-family="Times,serif" font-size="14.00">pmovmskb %xmm0, %ecx</text>
<text text-anchor="middle" x="92" y="-320.8" font-family="Times,serif" font-size="14.00">pmovmskb %xmm3, %edx</text>
<text text-anchor="middle" x="92" y="-305.8" font-family="Times,serif" font-size="14.00">testq %rdx, %rdx</text>
<text text-anchor="middle" x="92" y="-290.8" font-family="Times,serif" font-size="14.00">je 0x4000cc5c60</text>
</g>
<!-- 1204&#45;&gt;1205 -->
<g id="edge1" class="edge"><title>1204&#45;&gt;1205</title>
<path fill="none" stroke="black" d="M92,-506.799C92,-498.503 92,-490.028 92,-481.582"/>
<polygon fill="black" stroke="black" points="95.5001,-481.31 92,-471.31 88.5001,-481.31 95.5001,-481.31"/>
</g>
<!-- 1206 -->
<g id="node3" class="node"><title>1206</title>
<polygon fill="none" stroke="black" points="178,-247 6,-247 6,-134 178,-134 178,-247"/>
<text text-anchor="middle" x="92" y="-231.8" font-family="Times,serif" font-size="14.00">0x4000cc5c46</text>
<text text-anchor="middle" x="92" y="-216.8" font-family="Times,serif" font-size="14.00">_______________________</text>
<text text-anchor="middle" x="92" y="-201.8" font-family="Times,serif" font-size="14.00">_______________________</text>
<text text-anchor="middle" x="92" y="-186.8" font-family="Times,serif" font-size="14.00">leaq &#45;1(%rdx), %rax</text>
<text text-anchor="middle" x="92" y="-171.8" font-family="Times,serif" font-size="14.00">xorq %rdx, %rax</text>
<text text-anchor="middle" x="92" y="-156.8" font-family="Times,serif" font-size="14.00">andq %rcx, %rax</text>
<text text-anchor="middle" x="92" y="-141.8" font-family="Times,serif" font-size="14.00">je 0x4000cc5e10</text>
</g>
<!-- 1205&#45;&gt;1206 -->
<g id="edge2" class="edge"><title>1205&#45;&gt;1206</title>
<path fill="none" stroke="black" d="M92,-282.939C92,-274.375 92,-265.821 92,-257.571"/>
<polygon fill="black" stroke="black" points="95.5001,-257.306 92,-247.306 88.5001,-257.306 95.5001,-257.306"/>
</g>
<!-- 1207 -->
<g id="node4" class="node"><title>1207</title>
<polygon fill="none" stroke="black" points="178,-98 6,-98 6,-0 178,-0 178,-98"/>
<text text-anchor="middle" x="92" y="-82.8" font-family="Times,serif" font-size="14.00">0x4000cc5c56</text>
<text text-anchor="middle" x="92" y="-67.8" font-family="Times,serif" font-size="14.00">_______________________</text>
<text text-anchor="middle" x="92" y="-52.8" font-family="Times,serif" font-size="14.00">_______________________</text>
<text text-anchor="middle" x="92" y="-37.8" font-family="Times,serif" font-size="14.00">bsrq %rax, %rax</text>
<text text-anchor="middle" x="92" y="-22.8" font-family="Times,serif" font-size="14.00">addq %rdi, %rax</text>
<text text-anchor="middle" x="92" y="-7.8" font-family="Times,serif" font-size="14.00">retq </text>
</g>
<!-- 1206&#45;&gt;1207 -->
<g id="edge3" class="edge"><title>1206&#45;&gt;1207</title>
<path fill="none" stroke="black" d="M92,-133.965C92,-125.538 92,-116.823 92,-108.338"/>
<polygon fill="black" stroke="black" points="95.5001,-108.139 92,-98.1392 88.5001,-108.139 95.5001,-108.139"/>
</g>
</g>
</svg>
