<?xml version="1.0" encoding="UTF-8" standalone="no"?>
<!DOCTYPE svg PUBLIC "-//W3C//DTD SVG 1.1//EN"
 "http://www.w3.org/Graphics/SVG/1.1/DTD/svg11.dtd">
<!-- Generated by graphviz version 2.38.0 (20140413.2041)
 -->
<!-- Title: %3 Pages: 1 -->
<svg width="560pt" height="956pt"
 viewBox="0.00 0.00 560.00 956.00" xmlns="http://www.w3.org/2000/svg" xmlns:xlink="http://www.w3.org/1999/xlink">
<g id="graph0" class="graph" transform="scale(1 1) rotate(0) translate(4 952)">
<title>%3</title>
<polygon fill="white" stroke="none" points="-4,4 -4,-952 556,-952 556,4 -4,4"/>
<!-- 1219 -->
<g id="node1" class="node"><title>1219</title>
<polygon fill="none" stroke="black" points="362,-948 190,-948 190,-820 362,-820 362,-948"/>
<text text-anchor="middle" x="276" y="-932.8" font-family="Times,serif" font-size="14.00">0x4000cdca80</text>
<text text-anchor="middle" x="276" y="-917.8" font-family="Times,serif" font-size="14.00">_______________________</text>
<text text-anchor="middle" x="276" y="-902.8" font-family="Times,serif" font-size="14.00">_______________________</text>
<text text-anchor="middle" x="276" y="-887.8" font-family="Times,serif" font-size="14.00">pushq %rbx</text>
<text text-anchor="middle" x="276" y="-872.8" font-family="Times,serif" font-size="14.00">movl $0x80000000, %eax</text>
<text text-anchor="middle" x="276" y="-857.8" font-family="Times,serif" font-size="14.00">cpuid </text>
<text text-anchor="middle" x="276" y="-842.8" font-family="Times,serif" font-size="14.00">cmpl $0xc4, %edi</text>
<text text-anchor="middle" x="276" y="-827.8" font-family="Times,serif" font-size="14.00">jg 0x4000cdcad0</text>
</g>
<!-- 1220 -->
<g id="node2" class="node"><title>1220</title>
<polygon fill="none" stroke="black" points="362,-784 190,-784 190,-641 362,-641 362,-784"/>
<text text-anchor="middle" x="276" y="-768.8" font-family="Times,serif" font-size="14.00">0x4000cdca90</text>
<text text-anchor="middle" x="276" y="-753.8" font-family="Times,serif" font-size="14.00">_______________________</text>
<text text-anchor="middle" x="276" y="-738.8" font-family="Times,serif" font-size="14.00">_______________________</text>
<text text-anchor="middle" x="276" y="-723.8" font-family="Times,serif" font-size="14.00">xorl %edx, %edx</text>
<text text-anchor="middle" x="276" y="-708.8" font-family="Times,serif" font-size="14.00">cmpl $0xbe, %edi</text>
<text text-anchor="middle" x="276" y="-693.8" font-family="Times,serif" font-size="14.00">setg %dl</text>
<text text-anchor="middle" x="276" y="-678.8" font-family="Times,serif" font-size="14.00">subl $0x7ffffffb, %edx</text>
<text text-anchor="middle" x="276" y="-663.8" font-family="Times,serif" font-size="14.00">cmpl %eax, %edx</text>
<text text-anchor="middle" x="276" y="-648.8" font-family="Times,serif" font-size="14.00">ja 0x4000cdcad0</text>
</g>
<!-- 1219&#45;&gt;1220 -->
<g id="edge1" class="edge"><title>1219&#45;&gt;1220</title>
<path fill="none" stroke="black" d="M276,-819.884C276,-811.496 276,-802.804 276,-794.169"/>
<polygon fill="black" stroke="black" points="279.5,-794.079 276,-784.079 272.5,-794.079 279.5,-794.079"/>
</g>
<!-- 1221 -->
<g id="node3" class="node"><title>1221</title>
<polygon fill="none" stroke="black" points="362,-605 190,-605 190,-492 362,-492 362,-605"/>
<text text-anchor="middle" x="276" y="-589.8" font-family="Times,serif" font-size="14.00">0x4000cdcaa5</text>
<text text-anchor="middle" x="276" y="-574.8" font-family="Times,serif" font-size="14.00">_______________________</text>
<text text-anchor="middle" x="276" y="-559.8" font-family="Times,serif" font-size="14.00">_______________________</text>
<text text-anchor="middle" x="276" y="-544.8" font-family="Times,serif" font-size="14.00">movl %edx, %eax</text>
<text text-anchor="middle" x="276" y="-529.8" font-family="Times,serif" font-size="14.00">cpuid </text>
<text text-anchor="middle" x="276" y="-514.8" font-family="Times,serif" font-size="14.00">cmpl $0xbb, %edi</text>
<text text-anchor="middle" x="276" y="-499.8" font-family="Times,serif" font-size="14.00">jle 0x4000cdcad8</text>
</g>
<!-- 1220&#45;&gt;1221 -->
<g id="edge2" class="edge"><title>1220&#45;&gt;1221</title>
<path fill="none" stroke="black" d="M276,-640.916C276,-632.429 276,-623.788 276,-615.372"/>
<polygon fill="black" stroke="black" points="279.5,-615.244 276,-605.244 272.5,-615.244 279.5,-615.244"/>
</g>
<!-- 1222 -->
<g id="node4" class="node"><title>1222</title>
<polygon fill="none" stroke="black" points="362,-456 190,-456 190,-358 362,-358 362,-456"/>
<text text-anchor="middle" x="276" y="-440.8" font-family="Times,serif" font-size="14.00">0x4000cdcab1</text>
<text text-anchor="middle" x="276" y="-425.8" font-family="Times,serif" font-size="14.00">_______________________</text>
<text text-anchor="middle" x="276" y="-410.8" font-family="Times,serif" font-size="14.00">_______________________</text>
<text text-anchor="middle" x="276" y="-395.8" font-family="Times,serif" font-size="14.00">subl $0xbc, %edi</text>
<text text-anchor="middle" x="276" y="-380.8" font-family="Times,serif" font-size="14.00">cmpl $8, %edi</text>
<text text-anchor="middle" x="276" y="-365.8" font-family="Times,serif" font-size="14.00">ja 0x4000cdcc20</text>
</g>
<!-- 1221&#45;&gt;1222 -->
<g id="edge3" class="edge"><title>1221&#45;&gt;1222</title>
<path fill="none" stroke="black" d="M276,-491.965C276,-483.538 276,-474.823 276,-466.338"/>
<polygon fill="black" stroke="black" points="279.5,-466.139 276,-456.139 272.5,-466.139 279.5,-466.139"/>
</g>
<!-- 1223 -->
<g id="node5" class="node"><title>1223</title>
<polygon fill="none" stroke="black" points="366.5,-322 185.5,-322 185.5,-209 366.5,-209 366.5,-322"/>
<text text-anchor="middle" x="276" y="-306.8" font-family="Times,serif" font-size="14.00">0x4000cdcac0</text>
<text text-anchor="middle" x="276" y="-291.8" font-family="Times,serif" font-size="14.00">_______________________</text>
<text text-anchor="middle" x="276" y="-276.8" font-family="Times,serif" font-size="14.00">_______________________</text>
<text text-anchor="middle" x="276" y="-261.8" font-family="Times,serif" font-size="14.00">leaq 0xc97f9(%rip), %rsi</text>
<text text-anchor="middle" x="276" y="-246.8" font-family="Times,serif" font-size="14.00">movslq (%rsi, %rdi, 4), %rax</text>
<text text-anchor="middle" x="276" y="-231.8" font-family="Times,serif" font-size="14.00">addq %rsi, %rax</text>
<text text-anchor="middle" x="276" y="-216.8" font-family="Times,serif" font-size="14.00">jmpq *%rax</text>
</g>
<!-- 1222&#45;&gt;1223 -->
<g id="edge4" class="edge"><title>1222&#45;&gt;1223</title>
<path fill="none" stroke="black" d="M276,-357.992C276,-349.722 276,-340.998 276,-332.354"/>
<polygon fill="black" stroke="black" points="279.5,-332.276 276,-322.276 272.5,-332.276 279.5,-332.276"/>
</g>
<!-- 1224 -->
<g id="node6" class="node"><title>1224</title>
<polygon fill="none" stroke="black" points="172,-150.5 0,-150.5 0,-22.5 172,-22.5 172,-150.5"/>
<text text-anchor="middle" x="86" y="-135.3" font-family="Times,serif" font-size="14.00">0x4000cdcb18</text>
<text text-anchor="middle" x="86" y="-120.3" font-family="Times,serif" font-size="14.00">_______________________</text>
<text text-anchor="middle" x="86" y="-105.3" font-family="Times,serif" font-size="14.00">_______________________</text>
<text text-anchor="middle" x="86" y="-90.3" font-family="Times,serif" font-size="14.00">movl %ecx, %eax</text>
<text text-anchor="middle" x="86" y="-75.3" font-family="Times,serif" font-size="14.00">shrl $0xe, %eax</text>
<text text-anchor="middle" x="86" y="-60.3" font-family="Times,serif" font-size="14.00">andl $0x3fc00, %eax</text>
<text text-anchor="middle" x="86" y="-45.3" font-family="Times,serif" font-size="14.00">popq %rbx</text>
<text text-anchor="middle" x="86" y="-30.3" font-family="Times,serif" font-size="14.00">retq </text>
</g>
<!-- 1223&#45;&gt;1224 -->
<g id="edge5" class="edge"><title>1223&#45;&gt;1224</title>
<path fill="none" stroke="black" d="M216.404,-208.982C198.978,-192.748 179.697,-174.786 161.426,-157.765"/>
<polygon fill="black" stroke="black" points="163.368,-154.791 153.665,-150.535 158.596,-159.913 163.368,-154.791"/>
</g>
<!-- 1226 -->
<g id="node7" class="node"><title>1226</title>
<polygon fill="none" stroke="black" points="362,-173 190,-173 190,-0 362,-0 362,-173"/>
<text text-anchor="middle" x="276" y="-157.8" font-family="Times,serif" font-size="14.00">0x4000cdcb58</text>
<text text-anchor="middle" x="276" y="-142.8" font-family="Times,serif" font-size="14.00">_______________________</text>
<text text-anchor="middle" x="276" y="-127.8" font-family="Times,serif" font-size="14.00">_______________________</text>
<text text-anchor="middle" x="276" y="-112.8" font-family="Times,serif" font-size="14.00">movl %ecx, %edx</text>
<text text-anchor="middle" x="276" y="-97.8" font-family="Times,serif" font-size="14.00">movl $0, %eax</text>
<text text-anchor="middle" x="276" y="-82.8" font-family="Times,serif" font-size="14.00">shrl $6, %edx</text>
<text text-anchor="middle" x="276" y="-67.8" font-family="Times,serif" font-size="14.00">andl $0x3fffc00, %edx</text>
<text text-anchor="middle" x="276" y="-52.8" font-family="Times,serif" font-size="14.00">andb $0xf0, %ch</text>
<text text-anchor="middle" x="276" y="-37.8" font-family="Times,serif" font-size="14.00">cmovneq %rdx, %rax</text>
<text text-anchor="middle" x="276" y="-22.8" font-family="Times,serif" font-size="14.00">popq %rbx</text>
<text text-anchor="middle" x="276" y="-7.8" font-family="Times,serif" font-size="14.00">retq </text>
</g>
<!-- 1223&#45;&gt;1226 -->
<g id="edge6" class="edge"><title>1223&#45;&gt;1226</title>
<path fill="none" stroke="black" d="M276,-208.982C276,-200.82 276,-192.222 276,-183.527"/>
<polygon fill="black" stroke="black" points="279.5,-183.294 276,-173.294 272.5,-183.294 279.5,-183.294"/>
</g>
<!-- 1228 -->
<g id="node8" class="node"><title>1228</title>
<polygon fill="none" stroke="black" points="552,-165.5 380,-165.5 380,-7.5 552,-7.5 552,-165.5"/>
<text text-anchor="middle" x="466" y="-150.3" font-family="Times,serif" font-size="14.00">0x4000cdcba8</text>
<text text-anchor="middle" x="466" y="-135.3" font-family="Times,serif" font-size="14.00">_______________________</text>
<text text-anchor="middle" x="466" y="-120.3" font-family="Times,serif" font-size="14.00">_______________________</text>
<text text-anchor="middle" x="466" y="-105.3" font-family="Times,serif" font-size="14.00">leal (%rdx, %rdx), %eax</text>
<text text-anchor="middle" x="466" y="-90.3" font-family="Times,serif" font-size="14.00">popq %rbx</text>
<text text-anchor="middle" x="466" y="-75.3" font-family="Times,serif" font-size="14.00">andl $0x7ff80000, %eax</text>
<text text-anchor="middle" x="466" y="-60.3" font-family="Times,serif" font-size="14.00">andb $0xf0, %dh</text>
<text text-anchor="middle" x="466" y="-45.3" font-family="Times,serif" font-size="14.00">movl $0, %edx</text>
<text text-anchor="middle" x="466" y="-30.3" font-family="Times,serif" font-size="14.00">cmoveq %rdx, %rax</text>
<text text-anchor="middle" x="466" y="-15.3" font-family="Times,serif" font-size="14.00">retq </text>
</g>
<!-- 1223&#45;&gt;1228 -->
<g id="edge7" class="edge"><title>1223&#45;&gt;1228</title>
<path fill="none" stroke="black" d="M335.596,-208.982C348.084,-197.348 361.525,-184.827 374.864,-172.401"/>
<polygon fill="black" stroke="black" points="377.326,-174.89 382.257,-165.513 372.554,-169.769 377.326,-174.89"/>
</g>
</g>
</svg>
