<?xml version="1.0" encoding="UTF-8" standalone="no"?>
<!DOCTYPE svg PUBLIC "-//W3C//DTD SVG 1.1//EN"
 "http://www.w3.org/Graphics/SVG/1.1/DTD/svg11.dtd">
<!-- Generated by graphviz version 2.38.0 (20140413.2041)
 -->
<!-- Title: %3 Pages: 1 -->
<svg width="180pt" height="420pt"
 viewBox="0.00 0.00 180.00 420.00" xmlns="http://www.w3.org/2000/svg" xmlns:xlink="http://www.w3.org/1999/xlink">
<g id="graph0" class="graph" transform="scale(1 1) rotate(0) translate(4 416)">
<title>%3</title>
<polygon fill="white" stroke="none" points="-4,4 -4,-416 176,-416 176,4 -4,4"/>
<!-- 377 -->
<g id="node1" class="node"><title>377</title>
<polygon fill="none" stroke="black" points="172,-412 0,-412 0,-134 172,-134 172,-412"/>
<text text-anchor="middle" x="86" y="-396.8" font-family="Times,serif" font-size="14.00">0x4000a10140</text>
<text text-anchor="middle" x="86" y="-381.8" font-family="Times,serif" font-size="14.00">_______________________</text>
<text text-anchor="middle" x="86" y="-366.8" font-family="Times,serif" font-size="14.00">_______________________</text>
<text text-anchor="middle" x="86" y="-351.8" font-family="Times,serif" font-size="14.00">pushq %rbx</text>
<text text-anchor="middle" x="86" y="-336.8" font-family="Times,serif" font-size="14.00">movq %rdi, %rbx</text>
<text text-anchor="middle" x="86" y="-321.8" font-family="Times,serif" font-size="14.00">movq (%rdi), %rdi</text>
<text text-anchor="middle" x="86" y="-306.8" font-family="Times,serif" font-size="14.00">movl 8(%rbx), %ecx</text>
<text text-anchor="middle" x="86" y="-291.8" font-family="Times,serif" font-size="14.00">movl $1, %eax</text>
<text text-anchor="middle" x="86" y="-276.8" font-family="Times,serif" font-size="14.00">movq 0x18(%rbx), %rsi</text>
<text text-anchor="middle" x="86" y="-261.8" font-family="Times,serif" font-size="14.00">movl 0xc(%rbx), %r8d</text>
<text text-anchor="middle" x="86" y="-246.8" font-family="Times,serif" font-size="14.00">movzbl 0x314(%rdi), %edx</text>
<text text-anchor="middle" x="86" y="-231.8" font-family="Times,serif" font-size="14.00">movq 0x30(%rdi), %r9</text>
<text text-anchor="middle" x="86" y="-216.8" font-family="Times,serif" font-size="14.00">andl $3, %edx</text>
<text text-anchor="middle" x="86" y="-201.8" font-family="Times,serif" font-size="14.00">cmovel %eax, %edx</text>
<text text-anchor="middle" x="86" y="-186.8" font-family="Times,serif" font-size="14.00">movzbl %dl, %edx</text>
<text text-anchor="middle" x="86" y="-171.8" font-family="Times,serif" font-size="14.00">callq 0x4000a0b4e0</text>
<text text-anchor="middle" x="86" y="-156.8" font-family="Times,serif" font-size="14.00">_______________________</text>
<text text-anchor="middle" x="86" y="-141.8" font-family="Times,serif" font-size="14.00">CALL 0x4000a0b4e0</text>
</g>
<!-- 725 -->
<g id="node2" class="node"><title>725</title>
<polygon fill="none" stroke="black" points="172,-98 0,-98 0,-0 172,-0 172,-98"/>
<text text-anchor="middle" x="86" y="-82.8" font-family="Times,serif" font-size="14.00">0x4000a10170</text>
<text text-anchor="middle" x="86" y="-67.8" font-family="Times,serif" font-size="14.00">_______________________</text>
<text text-anchor="middle" x="86" y="-52.8" font-family="Times,serif" font-size="14.00">_______________________</text>
<text text-anchor="middle" x="86" y="-37.8" font-family="Times,serif" font-size="14.00">movq %rax, 0x20(%rbx)</text>
<text text-anchor="middle" x="86" y="-22.8" font-family="Times,serif" font-size="14.00">popq %rbx</text>
<text text-anchor="middle" x="86" y="-7.8" font-family="Times,serif" font-size="14.00">retq </text>
</g>
<!-- 377&#45;&gt;725 -->
<g id="edge1" class="edge"><title>377&#45;&gt;725</title>
<path fill="none" stroke="black" d="M86,-133.929C86,-125.001 86,-116.322 86,-108.143"/>
<polygon fill="black" stroke="black" points="89.5001,-108.068 86,-98.0681 82.5001,-108.068 89.5001,-108.068"/>
</g>
</g>
</svg>
