<?xml version="1.0" encoding="UTF-8" standalone="no"?>
<!DOCTYPE svg PUBLIC "-//W3C//DTD SVG 1.1//EN"
 "http://www.w3.org/Graphics/SVG/1.1/DTD/svg11.dtd">
<!-- Generated by graphviz version 2.38.0 (20140413.2041)
 -->
<!-- Title: %3 Pages: 1 -->
<svg width="303pt" height="672pt"
 viewBox="0.00 0.00 303.00 672.00" xmlns="http://www.w3.org/2000/svg" xmlns:xlink="http://www.w3.org/1999/xlink">
<g id="graph0" class="graph" transform="scale(1 1) rotate(0) translate(4 668)">
<title>%3</title>
<polygon fill="white" stroke="none" points="-4,4 -4,-668 299,-668 299,4 -4,4"/>
<!-- 117 -->
<g id="node1" class="node"><title>117</title>
<polygon fill="none" stroke="black" points="172,-664 0,-664 0,-551 172,-551 172,-664"/>
<text text-anchor="middle" x="86" y="-648.8" font-family="Times,serif" font-size="14.00">0x4000a1aa30</text>
<text text-anchor="middle" x="86" y="-633.8" font-family="Times,serif" font-size="14.00">_______________________</text>
<text text-anchor="middle" x="86" y="-618.8" font-family="Times,serif" font-size="14.00">_______________________</text>
<text text-anchor="middle" x="86" y="-603.8" font-family="Times,serif" font-size="14.00">movq (%rdi), %rdx</text>
<text text-anchor="middle" x="86" y="-588.8" font-family="Times,serif" font-size="14.00">movq (%rdx), %rax</text>
<text text-anchor="middle" x="86" y="-573.8" font-family="Times,serif" font-size="14.00">testq %rax, %rax</text>
<text text-anchor="middle" x="86" y="-558.8" font-family="Times,serif" font-size="14.00">jne 0x4000a1aa4c</text>
</g>
<!-- 118 -->
<g id="node2" class="node"><title>118</title>
<polygon fill="none" stroke="black" points="172,-515 0,-515 0,-432 172,-432 172,-515"/>
<text text-anchor="middle" x="86" y="-499.8" font-family="Times,serif" font-size="14.00">0x4000a1aa4c</text>
<text text-anchor="middle" x="86" y="-484.8" font-family="Times,serif" font-size="14.00">_______________________</text>
<text text-anchor="middle" x="86" y="-469.8" font-family="Times,serif" font-size="14.00">_______________________</text>
<text text-anchor="middle" x="86" y="-454.8" font-family="Times,serif" font-size="14.00">cmpb $0x4c, (%rax)</text>
<text text-anchor="middle" x="86" y="-439.8" font-family="Times,serif" font-size="14.00">jne 0x4000a1aa40</text>
</g>
<!-- 117&#45;&gt;118 -->
<g id="edge1" class="edge"><title>117&#45;&gt;118</title>
<path fill="none" stroke="black" d="M86,-550.903C86,-542.387 86,-533.635 86,-525.231"/>
<polygon fill="black" stroke="black" points="89.5001,-525.194 86,-515.194 82.5001,-525.194 89.5001,-525.194"/>
</g>
<!-- 119 -->
<g id="node3" class="node"><title>119</title>
<polygon fill="none" stroke="black" points="172,-247 0,-247 0,-104 172,-104 172,-247"/>
<text text-anchor="middle" x="86" y="-231.8" font-family="Times,serif" font-size="14.00">0x4000a1aa40</text>
<text text-anchor="middle" x="86" y="-216.8" font-family="Times,serif" font-size="14.00">_______________________</text>
<text text-anchor="middle" x="86" y="-201.8" font-family="Times,serif" font-size="14.00">_______________________</text>
<text text-anchor="middle" x="86" y="-186.8" font-family="Times,serif" font-size="14.00">addq $8, %rdx</text>
<text text-anchor="middle" x="86" y="-171.8" font-family="Times,serif" font-size="14.00">movq (%rdx), %rax</text>
<text text-anchor="middle" x="86" y="-156.8" font-family="Times,serif" font-size="14.00">testq %rax, %rax</text>
<text text-anchor="middle" x="86" y="-141.8" font-family="Times,serif" font-size="14.00">je 0x4000a1aa70</text>
<text text-anchor="middle" x="86" y="-126.8" font-family="Times,serif" font-size="14.00">_______________________</text>
<text text-anchor="middle" x="86" y="-111.8" font-family="Times,serif" font-size="14.00">LOOP 0x4000a1aa4c</text>
</g>
<!-- 118&#45;&gt;119 -->
<g id="edge2" class="edge"><title>118&#45;&gt;119</title>
<path fill="none" stroke="black" d="M81.1831,-431.963C79.1396,-387.153 78.7163,-313.829 79.913,-257.203"/>
<polygon fill="black" stroke="black" points="83.4122,-257.272 80.1461,-247.194 76.4141,-257.109 83.4122,-257.272"/>
</g>
<!-- 120 -->
<g id="node4" class="node"><title>120</title>
<polygon fill="none" stroke="black" points="295,-396 123,-396 123,-283 295,-283 295,-396"/>
<text text-anchor="middle" x="209" y="-380.8" font-family="Times,serif" font-size="14.00">0x4000a1aa51</text>
<text text-anchor="middle" x="209" y="-365.8" font-family="Times,serif" font-size="14.00">_______________________</text>
<text text-anchor="middle" x="209" y="-350.8" font-family="Times,serif" font-size="14.00">_______________________</text>
<text text-anchor="middle" x="209" y="-335.8" font-family="Times,serif" font-size="14.00">cmpb $0x44, 1(%rax)</text>
<text text-anchor="middle" x="209" y="-320.8" font-family="Times,serif" font-size="14.00">jne 0x4000a1aa40</text>
<text text-anchor="middle" x="209" y="-305.8" font-family="Times,serif" font-size="14.00">_______________________</text>
<text text-anchor="middle" x="209" y="-290.8" font-family="Times,serif" font-size="14.00">LOOP 0x4000a1aa4c</text>
</g>
<!-- 118&#45;&gt;120 -->
<g id="edge3" class="edge"><title>118&#45;&gt;120</title>
<path fill="none" stroke="black" d="M123.908,-431.819C132.151,-422.972 141.061,-413.411 149.904,-403.92"/>
<polygon fill="black" stroke="black" points="152.711,-406.042 156.968,-396.339 147.59,-401.269 152.711,-406.042"/>
</g>
<!-- 119&#45;&gt;118 -->
<g id="edge4" class="edge"><title>119&#45;&gt;118</title>
<path fill="none" stroke="black" d="M91.8539,-247.194C93.2279,-300.975 93.0218,-373.69 91.2356,-421.79"/>
<polygon fill="black" stroke="black" points="87.7311,-421.828 90.8169,-431.963 94.7252,-422.116 87.7311,-421.828"/>
</g>
<!-- 121 -->
<g id="node5" class="node"><title>121</title>
<polygon fill="none" stroke="black" points="172,-68 0,-68 0,-0 172,-0 172,-68"/>
<text text-anchor="middle" x="86" y="-52.8" font-family="Times,serif" font-size="14.00">0x4000a1aa70</text>
<text text-anchor="middle" x="86" y="-37.8" font-family="Times,serif" font-size="14.00">_______________________</text>
<text text-anchor="middle" x="86" y="-22.8" font-family="Times,serif" font-size="14.00">_______________________</text>
<text text-anchor="middle" x="86" y="-7.8" font-family="Times,serif" font-size="14.00">retq </text>
</g>
<!-- 119&#45;&gt;121 -->
<g id="edge5" class="edge"><title>119&#45;&gt;121</title>
<path fill="none" stroke="black" d="M86,-103.933C86,-95.2868 86,-86.6576 86,-78.5767"/>
<polygon fill="black" stroke="black" points="89.5001,-78.314 86,-68.314 82.5001,-78.314 89.5001,-78.314"/>
</g>
<!-- 120&#45;&gt;119 -->
<g id="edge6" class="edge"><title>120&#45;&gt;119</title>
<path fill="none" stroke="black" d="M166.67,-282.749C159.952,-273.9 152.894,-264.605 145.865,-255.347"/>
<polygon fill="black" stroke="black" points="148.54,-253.081 139.705,-247.233 142.965,-257.314 148.54,-253.081"/>
</g>
</g>
</svg>
