<?xml version="1.0" encoding="UTF-8" standalone="no"?>
<!DOCTYPE svg PUBLIC "-//W3C//DTD SVG 1.1//EN"
 "http://www.w3.org/Graphics/SVG/1.1/DTD/svg11.dtd">
<!-- Generated by graphviz version 2.38.0 (20140413.2041)
 -->
<!-- Title: %3 Pages: 1 -->
<svg width="186pt" height="568pt"
 viewBox="0.00 0.00 186.00 568.00" xmlns="http://www.w3.org/2000/svg" xmlns:xlink="http://www.w3.org/1999/xlink">
<g id="graph0" class="graph" transform="scale(1 1) rotate(0) translate(4 564)">
<title>%3</title>
<polygon fill="white" stroke="none" points="-4,4 -4,-564 182,-564 182,4 -4,4"/>
<!-- 1085 -->
<g id="node1" class="node"><title>1085</title>
<polygon fill="none" stroke="black" points="178,-560 0,-560 0,-372 178,-372 178,-560"/>
<text text-anchor="middle" x="89" y="-544.8" font-family="Times,serif" font-size="14.00">0x4000d68670</text>
<text text-anchor="middle" x="89" y="-529.8" font-family="Times,serif" font-size="14.00">_______________________</text>
<text text-anchor="middle" x="89" y="-514.8" font-family="Times,serif" font-size="14.00">_______________________</text>
<text text-anchor="middle" x="89" y="-499.8" font-family="Times,serif" font-size="14.00">subq $0x38, %rsp</text>
<text text-anchor="middle" x="89" y="-484.8" font-family="Times,serif" font-size="14.00">movq %rsi, %r8</text>
<text text-anchor="middle" x="89" y="-469.8" font-family="Times,serif" font-size="14.00">movq %fs:0x28, %rax</text>
<text text-anchor="middle" x="89" y="-454.8" font-family="Times,serif" font-size="14.00">movq %rax, 0x28(%rsp)</text>
<text text-anchor="middle" x="89" y="-439.8" font-family="Times,serif" font-size="14.00">xorl %eax, %eax</text>
<text text-anchor="middle" x="89" y="-424.8" font-family="Times,serif" font-size="14.00">movq 0x2767da(%rip), %rax</text>
<text text-anchor="middle" x="89" y="-409.8" font-family="Times,serif" font-size="14.00">movq 0x108(%rax), %rsi</text>
<text text-anchor="middle" x="89" y="-394.8" font-family="Times,serif" font-size="14.00">testq %rsi, %rsi</text>
<text text-anchor="middle" x="89" y="-379.8" font-family="Times,serif" font-size="14.00">je 0x4000d68710</text>
</g>
<!-- 1086 -->
<g id="node2" class="node"><title>1086</title>
<polygon fill="none" stroke="black" points="175,-336 3,-336 3,-253 175,-253 175,-336"/>
<text text-anchor="middle" x="89" y="-320.8" font-family="Times,serif" font-size="14.00">0x4000d68710</text>
<text text-anchor="middle" x="89" y="-305.8" font-family="Times,serif" font-size="14.00">_______________________</text>
<text text-anchor="middle" x="89" y="-290.8" font-family="Times,serif" font-size="14.00">_______________________</text>
<text text-anchor="middle" x="89" y="-275.8" font-family="Times,serif" font-size="14.00">xorl %eax, %eax</text>
<text text-anchor="middle" x="89" y="-260.8" font-family="Times,serif" font-size="14.00">jmp 0x4000d686f5</text>
</g>
<!-- 1085&#45;&gt;1086 -->
<g id="edge1" class="edge"><title>1085&#45;&gt;1086</title>
<path fill="none" stroke="black" d="M89,-371.821C89,-363.058 89,-354.417 89,-346.277"/>
<polygon fill="black" stroke="black" points="92.5001,-346.263 89,-336.263 85.5001,-346.263 92.5001,-346.263"/>
</g>
<!-- 1087 -->
<g id="node3" class="node"><title>1087</title>
<polygon fill="none" stroke="black" points="175,-217 3,-217 3,-119 175,-119 175,-217"/>
<text text-anchor="middle" x="89" y="-201.8" font-family="Times,serif" font-size="14.00">0x4000d686f5</text>
<text text-anchor="middle" x="89" y="-186.8" font-family="Times,serif" font-size="14.00">_______________________</text>
<text text-anchor="middle" x="89" y="-171.8" font-family="Times,serif" font-size="14.00">_______________________</text>
<text text-anchor="middle" x="89" y="-156.8" font-family="Times,serif" font-size="14.00">movq 0x28(%rsp), %rcx</text>
<text text-anchor="middle" x="89" y="-141.8" font-family="Times,serif" font-size="14.00">xorq %fs:0x28, %rcx</text>
<text text-anchor="middle" x="89" y="-126.8" font-family="Times,serif" font-size="14.00">jne 0x4000d6871c</text>
</g>
<!-- 1086&#45;&gt;1087 -->
<g id="edge2" class="edge"><title>1086&#45;&gt;1087</title>
<path fill="none" stroke="black" d="M89,-252.734C89,-244.579 89,-235.862 89,-227.249"/>
<polygon fill="black" stroke="black" points="92.5001,-227.224 89,-217.224 85.5001,-227.224 92.5001,-227.224"/>
</g>
<!-- 1088 -->
<g id="node4" class="node"><title>1088</title>
<polygon fill="none" stroke="black" points="175,-83 3,-83 3,-0 175,-0 175,-83"/>
<text text-anchor="middle" x="89" y="-67.8" font-family="Times,serif" font-size="14.00">0x4000d68705</text>
<text text-anchor="middle" x="89" y="-52.8" font-family="Times,serif" font-size="14.00">_______________________</text>
<text text-anchor="middle" x="89" y="-37.8" font-family="Times,serif" font-size="14.00">_______________________</text>
<text text-anchor="middle" x="89" y="-22.8" font-family="Times,serif" font-size="14.00">addq $0x38, %rsp</text>
<text text-anchor="middle" x="89" y="-7.8" font-family="Times,serif" font-size="14.00">retq </text>
</g>
<!-- 1087&#45;&gt;1088 -->
<g id="edge3" class="edge"><title>1087&#45;&gt;1088</title>
<path fill="none" stroke="black" d="M89,-118.865C89,-110.498 89,-101.771 89,-93.3346"/>
<polygon fill="black" stroke="black" points="92.5001,-93.2309 89,-83.231 85.5001,-93.231 92.5001,-93.2309"/>
</g>
</g>
</svg>
