<?xml version="1.0" encoding="UTF-8" standalone="no"?>
<!DOCTYPE svg PUBLIC "-//W3C//DTD SVG 1.1//EN"
 "http://www.w3.org/Graphics/SVG/1.1/DTD/svg11.dtd">
<!-- Generated by graphviz version 2.38.0 (20140413.2041)
 -->
<!-- Title: %3 Pages: 1 -->
<svg width="709pt" height="747pt"
 viewBox="0.00 0.00 709.00 747.00" xmlns="http://www.w3.org/2000/svg" xmlns:xlink="http://www.w3.org/1999/xlink">
<g id="graph0" class="graph" transform="scale(1 1) rotate(0) translate(4 743)">
<title>%3</title>
<polygon fill="white" stroke="none" points="-4,4 -4,-743 705,-743 705,4 -4,4"/>
<!-- 141 -->
<g id="node1" class="node"><title>141</title>
<polygon fill="none" stroke="black" points="172,-739 0,-739 0,-641 172,-641 172,-739"/>
<text text-anchor="middle" x="86" y="-723.8" font-family="Times,serif" font-size="14.00">0x4000a1eaa0</text>
<text text-anchor="middle" x="86" y="-708.8" font-family="Times,serif" font-size="14.00">_______________________</text>
<text text-anchor="middle" x="86" y="-693.8" font-family="Times,serif" font-size="14.00">_______________________</text>
<text text-anchor="middle" x="86" y="-678.8" font-family="Times,serif" font-size="14.00">movq %rdi, %rax</text>
<text text-anchor="middle" x="86" y="-663.8" font-family="Times,serif" font-size="14.00">_______________________</text>
<text text-anchor="middle" x="86" y="-648.8" font-family="Times,serif" font-size="14.00">CALL 0x4000a1ea90</text>
</g>
<!-- 142 -->
<g id="node2" class="node"><title>142</title>
<polygon fill="none" stroke="black" points="362,-731.5 190,-731.5 190,-648.5 362,-648.5 362,-731.5"/>
<text text-anchor="middle" x="276" y="-716.3" font-family="Times,serif" font-size="14.00">0x4000a1eac0</text>
<text text-anchor="middle" x="276" y="-701.3" font-family="Times,serif" font-size="14.00">_______________________</text>
<text text-anchor="middle" x="276" y="-686.3" font-family="Times,serif" font-size="14.00">_______________________</text>
<text text-anchor="middle" x="276" y="-671.3" font-family="Times,serif" font-size="14.00">cmpb $8, %dl</text>
<text text-anchor="middle" x="276" y="-656.3" font-family="Times,serif" font-size="14.00">jae 0x4000a1ead7</text>
</g>
<!-- 143 -->
<g id="node3" class="node"><title>143</title>
<polygon fill="none" stroke="black" points="267,-575 95,-575 95,-462 267,-462 267,-575"/>
<text text-anchor="middle" x="181" y="-559.8" font-family="Times,serif" font-size="14.00">0x4000a1eac5</text>
<text text-anchor="middle" x="181" y="-544.8" font-family="Times,serif" font-size="14.00">_______________________</text>
<text text-anchor="middle" x="181" y="-529.8" font-family="Times,serif" font-size="14.00">_______________________</text>
<text text-anchor="middle" x="181" y="-514.8" font-family="Times,serif" font-size="14.00">cmpb $4, %dl</text>
<text text-anchor="middle" x="181" y="-499.8" font-family="Times,serif" font-size="14.00">jae 0x4000a1eae8</text>
<text text-anchor="middle" x="181" y="-484.8" font-family="Times,serif" font-size="14.00">_______________________</text>
<text text-anchor="middle" x="181" y="-469.8" font-family="Times,serif" font-size="14.00">CALL 0x4000a1ea90</text>
</g>
<!-- 142&#45;&gt;143 -->
<g id="edge1" class="edge"><title>142&#45;&gt;143</title>
<path fill="none" stroke="black" d="M253.245,-648.401C242.438,-629.119 229.26,-605.607 217.133,-583.968"/>
<polygon fill="black" stroke="black" points="220.131,-582.159 212.189,-575.147 214.025,-585.582 220.131,-582.159"/>
</g>
<!-- 587 -->
<g id="node4" class="node"><title>587</title>
<polygon fill="none" stroke="black" points="458.5,-582.5 285.5,-582.5 285.5,-454.5 458.5,-454.5 458.5,-582.5"/>
<text text-anchor="middle" x="372" y="-567.3" font-family="Times,serif" font-size="14.00">0x4000a1ead7</text>
<text text-anchor="middle" x="372" y="-552.3" font-family="Times,serif" font-size="14.00">_______________________</text>
<text text-anchor="middle" x="372" y="-537.3" font-family="Times,serif" font-size="14.00">_______________________</text>
<text text-anchor="middle" x="372" y="-522.3" font-family="Times,serif" font-size="14.00">movq &#45;8(%rsi, %rdx), %rcx</text>
<text text-anchor="middle" x="372" y="-507.3" font-family="Times,serif" font-size="14.00">movq (%rsi), %rsi</text>
<text text-anchor="middle" x="372" y="-492.3" font-family="Times,serif" font-size="14.00">movq %rcx, &#45;8(%rdi, %rdx)</text>
<text text-anchor="middle" x="372" y="-477.3" font-family="Times,serif" font-size="14.00">movq %rsi, (%rdi)</text>
<text text-anchor="middle" x="372" y="-462.3" font-family="Times,serif" font-size="14.00">retq </text>
</g>
<!-- 142&#45;&gt;587 -->
<g id="edge2" class="edge"><title>142&#45;&gt;587</title>
<path fill="none" stroke="black" d="M298.994,-648.401C308.663,-631.329 320.21,-610.942 331.235,-591.475"/>
<polygon fill="black" stroke="black" points="334.373,-593.037 336.256,-582.611 328.282,-589.587 334.373,-593.037"/>
</g>
<!-- 144 -->
<g id="node5" class="node"><title>144</title>
<polygon fill="none" stroke="black" points="267,-396 95,-396 95,-283 267,-283 267,-396"/>
<text text-anchor="middle" x="181" y="-380.8" font-family="Times,serif" font-size="14.00">0x4000a1eaca</text>
<text text-anchor="middle" x="181" y="-365.8" font-family="Times,serif" font-size="14.00">_______________________</text>
<text text-anchor="middle" x="181" y="-350.8" font-family="Times,serif" font-size="14.00">_______________________</text>
<text text-anchor="middle" x="181" y="-335.8" font-family="Times,serif" font-size="14.00">cmpb $1, %dl</text>
<text text-anchor="middle" x="181" y="-320.8" font-family="Times,serif" font-size="14.00">ja 0x4000a1eaf5</text>
<text text-anchor="middle" x="181" y="-305.8" font-family="Times,serif" font-size="14.00">_______________________</text>
<text text-anchor="middle" x="181" y="-290.8" font-family="Times,serif" font-size="14.00">CALL 0x4000a1ea90</text>
</g>
<!-- 143&#45;&gt;144 -->
<g id="edge3" class="edge"><title>143&#45;&gt;144</title>
<path fill="none" stroke="black" d="M181,-461.982C181,-444.274 181,-424.512 181,-406.156"/>
<polygon fill="black" stroke="black" points="184.5,-406.125 181,-396.125 177.5,-406.125 184.5,-406.125"/>
</g>
<!-- 145 -->
<g id="node6" class="node"><title>145</title>
<polygon fill="none" stroke="black" points="267,-247 95,-247 95,-179 267,-179 267,-247"/>
<text text-anchor="middle" x="181" y="-231.8" font-family="Times,serif" font-size="14.00">0x4000a1eacf</text>
<text text-anchor="middle" x="181" y="-216.8" font-family="Times,serif" font-size="14.00">_______________________</text>
<text text-anchor="middle" x="181" y="-201.8" font-family="Times,serif" font-size="14.00">_______________________</text>
<text text-anchor="middle" x="181" y="-186.8" font-family="Times,serif" font-size="14.00">jb 0x4000a1ead6</text>
</g>
<!-- 144&#45;&gt;145 -->
<g id="edge4" class="edge"><title>144&#45;&gt;145</title>
<path fill="none" stroke="black" d="M181,-282.805C181,-274.246 181,-265.521 181,-257.285"/>
<polygon fill="black" stroke="black" points="184.5,-257.164 181,-247.164 177.5,-257.164 184.5,-257.164"/>
</g>
<!-- 146 -->
<g id="node7" class="node"><title>146</title>
<polygon fill="none" stroke="black" points="282.5,-143 79.5,-143 79.5,-0 282.5,-0 282.5,-143"/>
<text text-anchor="middle" x="181" y="-127.8" font-family="Times,serif" font-size="14.00">0x4000a1ead1</text>
<text text-anchor="middle" x="181" y="-112.8" font-family="Times,serif" font-size="14.00">_______________________</text>
<text text-anchor="middle" x="181" y="-97.8" font-family="Times,serif" font-size="14.00">_______________________</text>
<text text-anchor="middle" x="181" y="-82.8" font-family="Times,serif" font-size="14.00">movzbl (%rsi), %ecx</text>
<text text-anchor="middle" x="181" y="-67.8" font-family="Times,serif" font-size="14.00">movb %cl, (%rdi)</text>
<text text-anchor="middle" x="181" y="-52.8" font-family="Times,serif" font-size="14.00">retq </text>
<text text-anchor="middle" x="181" y="-37.8" font-family="Times,serif" font-size="14.00">_______________________</text>
<text text-anchor="middle" x="181" y="-22.8" font-family="Times,serif" font-size="14.00">SHARED BLOCK 0x4000a1eaa0</text>
<text text-anchor="middle" x="181" y="-7.8" font-family="Times,serif" font-size="14.00">SHARED BLOCK 0x4000a1ea90</text>
</g>
<!-- 145&#45;&gt;146 -->
<g id="edge5" class="edge"><title>145&#45;&gt;146</title>
<path fill="none" stroke="black" d="M181,-178.94C181,-171.096 181,-162.386 181,-153.424"/>
<polygon fill="black" stroke="black" points="184.5,-153.23 181,-143.23 177.5,-153.23 184.5,-153.23"/>
</g>
<!-- 511 -->
<g id="node8" class="node"><title>511</title>
<polygon fill="none" stroke="black" points="675,-731.5 503,-731.5 503,-648.5 675,-648.5 675,-731.5"/>
<text text-anchor="middle" x="589" y="-716.3" font-family="Times,serif" font-size="14.00">0x4000a1eaa9</text>
<text text-anchor="middle" x="589" y="-701.3" font-family="Times,serif" font-size="14.00">_______________________</text>
<text text-anchor="middle" x="589" y="-686.3" font-family="Times,serif" font-size="14.00">_______________________</text>
<text text-anchor="middle" x="589" y="-671.3" font-family="Times,serif" font-size="14.00">cmpq $0x20, %rdx</text>
<text text-anchor="middle" x="589" y="-656.3" font-family="Times,serif" font-size="14.00">ja 0x4000a1eb06</text>
</g>
<!-- 512 -->
<g id="node9" class="node"><title>512</title>
<polygon fill="none" stroke="black" points="701,-605 477,-605 477,-432 701,-432 701,-605"/>
<text text-anchor="middle" x="589" y="-589.8" font-family="Times,serif" font-size="14.00">0x4000a1eaaf</text>
<text text-anchor="middle" x="589" y="-574.8" font-family="Times,serif" font-size="14.00">_______________________</text>
<text text-anchor="middle" x="589" y="-559.8" font-family="Times,serif" font-size="14.00">_______________________</text>
<text text-anchor="middle" x="589" y="-544.8" font-family="Times,serif" font-size="14.00">movups (%rsi), %xmm0</text>
<text text-anchor="middle" x="589" y="-529.8" font-family="Times,serif" font-size="14.00">movups &#45;0x10(%rsi, %rdx), %xmm1</text>
<text text-anchor="middle" x="589" y="-514.8" font-family="Times,serif" font-size="14.00">movups %xmm0, (%rdi)</text>
<text text-anchor="middle" x="589" y="-499.8" font-family="Times,serif" font-size="14.00">movups %xmm1, &#45;0x10(%rdi, %rdx)</text>
<text text-anchor="middle" x="589" y="-484.8" font-family="Times,serif" font-size="14.00">retq </text>
<text text-anchor="middle" x="589" y="-469.8" font-family="Times,serif" font-size="14.00">_______________________</text>
<text text-anchor="middle" x="589" y="-454.8" font-family="Times,serif" font-size="14.00">SHARED BLOCK 0x4000a1eaa0</text>
<text text-anchor="middle" x="589" y="-439.8" font-family="Times,serif" font-size="14.00">SHARED BLOCK 0x4000a1ea90</text>
</g>
<!-- 511&#45;&gt;512 -->
<g id="edge6" class="edge"><title>511&#45;&gt;512</title>
<path fill="none" stroke="black" d="M589,-648.401C589,-638.25 589,-626.927 589,-615.323"/>
<polygon fill="black" stroke="black" points="592.5,-615.074 589,-605.074 585.5,-615.074 592.5,-615.074"/>
</g>
</g>
</svg>
