<?xml version="1.0" encoding="UTF-8" standalone="no"?>
<!DOCTYPE svg PUBLIC "-//W3C//DTD SVG 1.1//EN"
 "http://www.w3.org/Graphics/SVG/1.1/DTD/svg11.dtd">
<!-- Generated by graphviz version 2.38.0 (20140413.2041)
 -->
<!-- Title: %3 Pages: 1 -->
<svg width="187pt" height="943pt"
 viewBox="0.00 0.00 187.00 943.00" xmlns="http://www.w3.org/2000/svg" xmlns:xlink="http://www.w3.org/1999/xlink">
<g id="graph0" class="graph" transform="scale(1 1) rotate(0) translate(4 939)">
<title>%3</title>
<polygon fill="white" stroke="none" points="-4,4 -4,-939 183,-939 183,4 -4,4"/>
<!-- 373 -->
<g id="node1" class="node"><title>373</title>
<polygon fill="none" stroke="black" points="179,-935 0,-935 0,-567 179,-567 179,-935"/>
<text text-anchor="middle" x="89.5" y="-919.8" font-family="Times,serif" font-size="14.00">0x4000a1b3e0</text>
<text text-anchor="middle" x="89.5" y="-904.8" font-family="Times,serif" font-size="14.00">_______________________</text>
<text text-anchor="middle" x="89.5" y="-889.8" font-family="Times,serif" font-size="14.00">_______________________</text>
<text text-anchor="middle" x="89.5" y="-874.8" font-family="Times,serif" font-size="14.00">pushq %rbx</text>
<text text-anchor="middle" x="89.5" y="-859.8" font-family="Times,serif" font-size="14.00">subq $0x130, %rsp</text>
<text text-anchor="middle" x="89.5" y="-844.8" font-family="Times,serif" font-size="14.00">movq 0x20bcd9(%rip), %rbx</text>
<text text-anchor="middle" x="89.5" y="-829.8" font-family="Times,serif" font-size="14.00">movq %rdi, 8(%rsp)</text>
<text text-anchor="middle" x="89.5" y="-814.8" font-family="Times,serif" font-size="14.00">movq %rdi, 0x40(%rsp)</text>
<text text-anchor="middle" x="89.5" y="-799.8" font-family="Times,serif" font-size="14.00">leaq 0x40(%rsp), %rdi</text>
<text text-anchor="middle" x="89.5" y="-784.8" font-family="Times,serif" font-size="14.00">leaq 0x3c(%rsp), %rax</text>
<text text-anchor="middle" x="89.5" y="-769.8" font-family="Times,serif" font-size="14.00">movq %rsi, 0x10(%rsp)</text>
<text text-anchor="middle" x="89.5" y="-754.8" font-family="Times,serif" font-size="14.00">movq %rsi, 0x48(%rsp)</text>
<text text-anchor="middle" x="89.5" y="-739.8" font-family="Times,serif" font-size="14.00">movq %rdi, 0x20bcb4(%rip)</text>
<text text-anchor="middle" x="89.5" y="-724.8" font-family="Times,serif" font-size="14.00">leaq 0x60(%rsp), %rdi</text>
<text text-anchor="middle" x="89.5" y="-709.8" font-family="Times,serif" font-size="14.00">xorl %esi, %esi</text>
<text text-anchor="middle" x="89.5" y="-694.8" font-family="Times,serif" font-size="14.00">movq %rcx, 0x20(%rsp)</text>
<text text-anchor="middle" x="89.5" y="-679.8" font-family="Times,serif" font-size="14.00">movq %r8, 0x28(%rsp)</text>
<text text-anchor="middle" x="89.5" y="-664.8" font-family="Times,serif" font-size="14.00">movq %rdx, 0x18(%rsp)</text>
<text text-anchor="middle" x="89.5" y="-649.8" font-family="Times,serif" font-size="14.00">movq %rdx, 0x50(%rsp)</text>
<text text-anchor="middle" x="89.5" y="-634.8" font-family="Times,serif" font-size="14.00">movq %rax, 0x58(%rsp)</text>
<text text-anchor="middle" x="89.5" y="-619.8" font-family="Times,serif" font-size="14.00">movq %rbx, (%rsp)</text>
<text text-anchor="middle" x="89.5" y="-604.8" font-family="Times,serif" font-size="14.00">callq 0x4000a1c510</text>
<text text-anchor="middle" x="89.5" y="-589.8" font-family="Times,serif" font-size="14.00">_______________________</text>
<text text-anchor="middle" x="89.5" y="-574.8" font-family="Times,serif" font-size="14.00">CALL 0x4000a1c510</text>
</g>
<!-- 375 -->
<g id="node2" class="node"><title>375</title>
<polygon fill="none" stroke="black" points="175.5,-531 3.5,-531 3.5,-448 175.5,-448 175.5,-531"/>
<text text-anchor="middle" x="89.5" y="-515.8" font-family="Times,serif" font-size="14.00">0x4000a1b43d</text>
<text text-anchor="middle" x="89.5" y="-500.8" font-family="Times,serif" font-size="14.00">_______________________</text>
<text text-anchor="middle" x="89.5" y="-485.8" font-family="Times,serif" font-size="14.00">_______________________</text>
<text text-anchor="middle" x="89.5" y="-470.8" font-family="Times,serif" font-size="14.00">testl %eax, %eax</text>
<text text-anchor="middle" x="89.5" y="-455.8" font-family="Times,serif" font-size="14.00">jne 0x4000a1b490</text>
</g>
<!-- 373&#45;&gt;375 -->
<g id="edge1" class="edge"><title>373&#45;&gt;375</title>
<path fill="none" stroke="black" d="M89.5,-566.955C89.5,-557.858 89.5,-549.184 89.5,-541.162"/>
<polygon fill="black" stroke="black" points="93.0001,-541.011 89.5,-531.011 86.0001,-541.011 93.0001,-541.011"/>
</g>
<!-- 376 -->
<g id="node3" class="node"><title>376</title>
<polygon fill="none" stroke="black" points="175.5,-412 3.5,-412 3.5,-269 175.5,-269 175.5,-412"/>
<text text-anchor="middle" x="89.5" y="-396.8" font-family="Times,serif" font-size="14.00">0x4000a1b441</text>
<text text-anchor="middle" x="89.5" y="-381.8" font-family="Times,serif" font-size="14.00">_______________________</text>
<text text-anchor="middle" x="89.5" y="-366.8" font-family="Times,serif" font-size="14.00">_______________________</text>
<text text-anchor="middle" x="89.5" y="-351.8" font-family="Times,serif" font-size="14.00">movl %eax, %ebx</text>
<text text-anchor="middle" x="89.5" y="-336.8" font-family="Times,serif" font-size="14.00">movq 0x28(%rsp), %rdi</text>
<text text-anchor="middle" x="89.5" y="-321.8" font-family="Times,serif" font-size="14.00">movq 0x20(%rsp), %r9</text>
<text text-anchor="middle" x="89.5" y="-306.8" font-family="Times,serif" font-size="14.00">callq *%r9</text>
<text text-anchor="middle" x="89.5" y="-291.8" font-family="Times,serif" font-size="14.00">_______________________</text>
<text text-anchor="middle" x="89.5" y="-276.8" font-family="Times,serif" font-size="14.00">CALL 0x4000a10140</text>
</g>
<!-- 375&#45;&gt;376 -->
<g id="edge2" class="edge"><title>375&#45;&gt;376</title>
<path fill="none" stroke="black" d="M89.5,-447.942C89.5,-439.854 89.5,-431.094 89.5,-422.192"/>
<polygon fill="black" stroke="black" points="93.0001,-422.11 89.5,-412.11 86.0001,-422.11 93.0001,-422.11"/>
</g>
<!-- 726 -->
<g id="node4" class="node"><title>726</title>
<polygon fill="none" stroke="black" points="178.5,-233 0.5,-233 0.5,-0 178.5,-0 178.5,-233"/>
<text text-anchor="middle" x="89.5" y="-217.8" font-family="Times,serif" font-size="14.00">0x4000a1b450</text>
<text text-anchor="middle" x="89.5" y="-202.8" font-family="Times,serif" font-size="14.00">_______________________</text>
<text text-anchor="middle" x="89.5" y="-187.8" font-family="Times,serif" font-size="14.00">_______________________</text>
<text text-anchor="middle" x="89.5" y="-172.8" font-family="Times,serif" font-size="14.00">movq 8(%rsp), %rax</text>
<text text-anchor="middle" x="89.5" y="-157.8" font-family="Times,serif" font-size="14.00">movq (%rsp), %rcx</text>
<text text-anchor="middle" x="89.5" y="-142.8" font-family="Times,serif" font-size="14.00">movq 0x10(%rsp), %rsi</text>
<text text-anchor="middle" x="89.5" y="-127.8" font-family="Times,serif" font-size="14.00">movq 0x18(%rsp), %rdx</text>
<text text-anchor="middle" x="89.5" y="-112.8" font-family="Times,serif" font-size="14.00">movq $0, (%rax)</text>
<text text-anchor="middle" x="89.5" y="-97.8" font-family="Times,serif" font-size="14.00">movq %rcx, 0x20bc57(%rip)</text>
<text text-anchor="middle" x="89.5" y="-82.8" font-family="Times,serif" font-size="14.00">movl %ebx, %eax</text>
<text text-anchor="middle" x="89.5" y="-67.8" font-family="Times,serif" font-size="14.00">movq $0, (%rsi)</text>
<text text-anchor="middle" x="89.5" y="-52.8" font-family="Times,serif" font-size="14.00">movb $0, (%rdx)</text>
<text text-anchor="middle" x="89.5" y="-37.8" font-family="Times,serif" font-size="14.00">addq $0x130, %rsp</text>
<text text-anchor="middle" x="89.5" y="-22.8" font-family="Times,serif" font-size="14.00">popq %rbx</text>
<text text-anchor="middle" x="89.5" y="-7.8" font-family="Times,serif" font-size="14.00">retq </text>
</g>
<!-- 376&#45;&gt;726 -->
<g id="edge3" class="edge"><title>376&#45;&gt;726</title>
<path fill="none" stroke="black" d="M89.5,-268.953C89.5,-260.74 89.5,-252.185 89.5,-243.505"/>
<polygon fill="black" stroke="black" points="93.0001,-243.271 89.5,-233.271 86.0001,-243.271 93.0001,-243.271"/>
</g>
</g>
</svg>
