<?xml version="1.0" encoding="UTF-8" standalone="no"?>
<!DOCTYPE svg PUBLIC "-//W3C//DTD SVG 1.1//EN"
 "http://www.w3.org/Graphics/SVG/1.1/DTD/svg11.dtd">
<!-- Generated by graphviz version 2.38.0 (20140413.2041)
 -->
<!-- Title: %3 Pages: 1 -->
<svg width="209pt" height="1210pt"
 viewBox="0.00 0.00 209.00 1210.00" xmlns="http://www.w3.org/2000/svg" xmlns:xlink="http://www.w3.org/1999/xlink">
<g id="graph0" class="graph" transform="scale(1 1) rotate(0) translate(4 1206)">
<title>%3</title>
<polygon fill="white" stroke="none" points="-4,4 -4,-1206 205,-1206 205,4 -4,4"/>
<!-- 891 -->
<g id="node1" class="node"><title>891</title>
<polygon fill="none" stroke="black" points="186,-1202 8,-1202 8,-984 186,-984 186,-1202"/>
<text text-anchor="middle" x="97" y="-1186.8" font-family="Times,serif" font-size="14.00">0x4000a15280</text>
<text text-anchor="middle" x="97" y="-1171.8" font-family="Times,serif" font-size="14.00">_______________________</text>
<text text-anchor="middle" x="97" y="-1156.8" font-family="Times,serif" font-size="14.00">_______________________</text>
<text text-anchor="middle" x="97" y="-1141.8" font-family="Times,serif" font-size="14.00">pushq %r12</text>
<text text-anchor="middle" x="97" y="-1126.8" font-family="Times,serif" font-size="14.00">pushq %rbp</text>
<text text-anchor="middle" x="97" y="-1111.8" font-family="Times,serif" font-size="14.00">pushq %rbx</text>
<text text-anchor="middle" x="97" y="-1096.8" font-family="Times,serif" font-size="14.00">subq $0x10, %rsp</text>
<text text-anchor="middle" x="97" y="-1081.8" font-family="Times,serif" font-size="14.00">movq 0x211ce9(%rip), %r12</text>
<text text-anchor="middle" x="97" y="-1066.8" font-family="Times,serif" font-size="14.00">movq 0x211cf2(%rip), %rbx</text>
<text text-anchor="middle" x="97" y="-1051.8" font-family="Times,serif" font-size="14.00">leaq 8(%r12, %rbx), %rdi</text>
<text text-anchor="middle" x="97" y="-1036.8" font-family="Times,serif" font-size="14.00">callq 0x4000a03a40</text>
<text text-anchor="middle" x="97" y="-1021.8" font-family="Times,serif" font-size="14.00">_______________________</text>
<text text-anchor="middle" x="97" y="-1006.8" font-family="Times,serif" font-size="14.00">CALL calloc</text>
<text text-anchor="middle" x="97" y="-991.8" font-family="Times,serif" font-size="14.00">CALL 0x4000a03a40</text>
</g>
<!-- 892 -->
<g id="node2" class="node"><title>892</title>
<polygon fill="none" stroke="black" points="183,-948 11,-948 11,-865 183,-865 183,-948"/>
<text text-anchor="middle" x="97" y="-932.8" font-family="Times,serif" font-size="14.00">0x4000a152a0</text>
<text text-anchor="middle" x="97" y="-917.8" font-family="Times,serif" font-size="14.00">_______________________</text>
<text text-anchor="middle" x="97" y="-902.8" font-family="Times,serif" font-size="14.00">_______________________</text>
<text text-anchor="middle" x="97" y="-887.8" font-family="Times,serif" font-size="14.00">testq %rax, %rax</text>
<text text-anchor="middle" x="97" y="-872.8" font-family="Times,serif" font-size="14.00">je 0x4000a15310</text>
</g>
<!-- 891&#45;&gt;892 -->
<g id="edge1" class="edge"><title>891&#45;&gt;892</title>
<path fill="none" stroke="black" d="M97,-983.875C97,-975.125 97,-966.572 97,-958.543"/>
<polygon fill="black" stroke="black" points="100.5,-958.318 97,-948.318 93.5001,-958.318 100.5,-958.318"/>
</g>
<!-- 893 -->
<g id="node3" class="node"><title>893</title>
<polygon fill="none" stroke="black" points="194,-829 0,-829 0,-551 194,-551 194,-829"/>
<text text-anchor="middle" x="97" y="-813.8" font-family="Times,serif" font-size="14.00">0x4000a152a5</text>
<text text-anchor="middle" x="97" y="-798.8" font-family="Times,serif" font-size="14.00">_______________________</text>
<text text-anchor="middle" x="97" y="-783.8" font-family="Times,serif" font-size="14.00">_______________________</text>
<text text-anchor="middle" x="97" y="-768.8" font-family="Times,serif" font-size="14.00">movq %rax, %rbp</text>
<text text-anchor="middle" x="97" y="-753.8" font-family="Times,serif" font-size="14.00">leaq &#45;1(%rax, %rbx), %rax</text>
<text text-anchor="middle" x="97" y="-738.8" font-family="Times,serif" font-size="14.00">xorl %edx, %edx</text>
<text text-anchor="middle" x="97" y="-723.8" font-family="Times,serif" font-size="14.00">divq %rbx</text>
<text text-anchor="middle" x="97" y="-708.8" font-family="Times,serif" font-size="14.00">imulq %rbx, %rax</text>
<text text-anchor="middle" x="97" y="-693.8" font-family="Times,serif" font-size="14.00">leaq &#45;0x900(%r12, %rax), %rdx</text>
<text text-anchor="middle" x="97" y="-678.8" font-family="Times,serif" font-size="14.00">xorl %eax, %eax</text>
<text text-anchor="middle" x="97" y="-663.8" font-family="Times,serif" font-size="14.00">leaq 8(%rdx), %rdi</text>
<text text-anchor="middle" x="97" y="-648.8" font-family="Times,serif" font-size="14.00">movq %rdx, %rcx</text>
<text text-anchor="middle" x="97" y="-633.8" font-family="Times,serif" font-size="14.00">movq $0, (%rdx)</text>
<text text-anchor="middle" x="97" y="-618.8" font-family="Times,serif" font-size="14.00">movq $0, 0x8f8(%rdx)</text>
<text text-anchor="middle" x="97" y="-603.8" font-family="Times,serif" font-size="14.00">andq $0xfffffff8, %rdi</text>
<text text-anchor="middle" x="97" y="-588.8" font-family="Times,serif" font-size="14.00">subq %rdi, %rcx</text>
<text text-anchor="middle" x="97" y="-573.8" font-family="Times,serif" font-size="14.00">addl $0x900, %ecx</text>
<text text-anchor="middle" x="97" y="-558.8" font-family="Times,serif" font-size="14.00">shrl $3, %ecx</text>
</g>
<!-- 892&#45;&gt;893 -->
<g id="edge2" class="edge"><title>892&#45;&gt;893</title>
<path fill="none" stroke="black" d="M97,-864.902C97,-857.053 97,-848.415 97,-839.312"/>
<polygon fill="black" stroke="black" points="100.5,-839.267 97,-829.267 93.5001,-839.267 100.5,-839.267"/>
</g>
<!-- 894 -->
<g id="node4" class="node"><title>894</title>
<polygon fill="none" stroke="black" points="183,-515 11,-515 11,-447 183,-447 183,-515"/>
<text text-anchor="middle" x="97" y="-499.8" font-family="Times,serif" font-size="14.00">0x4000a152e9</text>
<text text-anchor="middle" x="97" y="-484.8" font-family="Times,serif" font-size="14.00">_______________________</text>
<text text-anchor="middle" x="97" y="-469.8" font-family="Times,serif" font-size="14.00">_______________________</text>
<text text-anchor="middle" x="97" y="-454.8" font-family="Times,serif" font-size="14.00">rep stosq %rax, (%rdi)</text>
</g>
<!-- 893&#45;&gt;894 -->
<g id="edge3" class="edge"><title>893&#45;&gt;894</title>
<path fill="none" stroke="black" d="M97,-550.928C97,-541.852 97,-533.178 97,-525.23"/>
<polygon fill="black" stroke="black" points="100.5,-525.229 97,-515.229 93.5001,-525.229 100.5,-525.229"/>
</g>
<!-- 894&#45;&gt;894 -->
<g id="edge4" class="edge"><title>894&#45;&gt;894</title>
<path fill="none" stroke="black" d="M183.077,-502.88C193.886,-499.024 201,-491.73 201,-481 201,-473.623 197.638,-467.87 192.024,-463.742"/>
<polygon fill="black" stroke="black" points="193.568,-460.6 183.077,-459.12 190.355,-466.819 193.568,-460.6"/>
</g>
<!-- 895 -->
<g id="node5" class="node"><title>895</title>
<polygon fill="none" stroke="black" points="183,-411 11,-411 11,-283 183,-283 183,-411"/>
<text text-anchor="middle" x="97" y="-395.8" font-family="Times,serif" font-size="14.00">0x4000a152ec</text>
<text text-anchor="middle" x="97" y="-380.8" font-family="Times,serif" font-size="14.00">_______________________</text>
<text text-anchor="middle" x="97" y="-365.8" font-family="Times,serif" font-size="14.00">_______________________</text>
<text text-anchor="middle" x="97" y="-350.8" font-family="Times,serif" font-size="14.00">movq %rbp, 0x900(%rdx)</text>
<text text-anchor="middle" x="97" y="-335.8" font-family="Times,serif" font-size="14.00">movq %rdx, %rdi</text>
<text text-anchor="middle" x="97" y="-320.8" font-family="Times,serif" font-size="14.00">callq 0x4000a14c50</text>
<text text-anchor="middle" x="97" y="-305.8" font-family="Times,serif" font-size="14.00">_______________________</text>
<text text-anchor="middle" x="97" y="-290.8" font-family="Times,serif" font-size="14.00">CALL 0x4000a14c50</text>
</g>
<!-- 894&#45;&gt;895 -->
<g id="edge5" class="edge"><title>894&#45;&gt;895</title>
<path fill="none" stroke="black" d="M97,-446.691C97,-438.811 97,-430.1 97,-421.212"/>
<polygon fill="black" stroke="black" points="100.5,-421.137 97,-411.137 93.5001,-421.137 100.5,-421.137"/>
</g>
<!-- 899 -->
<g id="node6" class="node"><title>899</title>
<polygon fill="none" stroke="black" points="183,-247 11,-247 11,-164 183,-164 183,-247"/>
<text text-anchor="middle" x="97" y="-231.8" font-family="Times,serif" font-size="14.00">0x4000a152fb</text>
<text text-anchor="middle" x="97" y="-216.8" font-family="Times,serif" font-size="14.00">_______________________</text>
<text text-anchor="middle" x="97" y="-201.8" font-family="Times,serif" font-size="14.00">_______________________</text>
<text text-anchor="middle" x="97" y="-186.8" font-family="Times,serif" font-size="14.00">testq %rax, %rax</text>
<text text-anchor="middle" x="97" y="-171.8" font-family="Times,serif" font-size="14.00">je 0x4000a15320</text>
</g>
<!-- 895&#45;&gt;899 -->
<g id="edge6" class="edge"><title>895&#45;&gt;899</title>
<path fill="none" stroke="black" d="M97,-282.781C97,-274.265 97,-265.618 97,-257.355"/>
<polygon fill="black" stroke="black" points="100.5,-257.13 97,-247.13 93.5001,-257.13 100.5,-257.13"/>
</g>
<!-- 900 -->
<g id="node7" class="node"><title>900</title>
<polygon fill="none" stroke="black" points="183,-128 11,-128 11,-0 183,-0 183,-128"/>
<text text-anchor="middle" x="97" y="-112.8" font-family="Times,serif" font-size="14.00">0x4000a15300</text>
<text text-anchor="middle" x="97" y="-97.8" font-family="Times,serif" font-size="14.00">_______________________</text>
<text text-anchor="middle" x="97" y="-82.8" font-family="Times,serif" font-size="14.00">_______________________</text>
<text text-anchor="middle" x="97" y="-67.8" font-family="Times,serif" font-size="14.00">addq $0x10, %rsp</text>
<text text-anchor="middle" x="97" y="-52.8" font-family="Times,serif" font-size="14.00">popq %rbx</text>
<text text-anchor="middle" x="97" y="-37.8" font-family="Times,serif" font-size="14.00">popq %rbp</text>
<text text-anchor="middle" x="97" y="-22.8" font-family="Times,serif" font-size="14.00">popq %r12</text>
<text text-anchor="middle" x="97" y="-7.8" font-family="Times,serif" font-size="14.00">retq </text>
</g>
<!-- 899&#45;&gt;900 -->
<g id="edge7" class="edge"><title>899&#45;&gt;900</title>
<path fill="none" stroke="black" d="M97,-163.776C97,-155.741 97,-147.081 97,-138.346"/>
<polygon fill="black" stroke="black" points="100.5,-138.09 97,-128.09 93.5001,-138.09 100.5,-138.09"/>
</g>
</g>
</svg>
