<?xml version="1.0" encoding="UTF-8" standalone="no"?>
<!DOCTYPE svg PUBLIC "-//W3C//DTD SVG 1.1//EN"
 "http://www.w3.org/Graphics/SVG/1.1/DTD/svg11.dtd">
<!-- Generated by graphviz version 2.38.0 (20140413.2041)
 -->
<!-- Title: %3 Pages: 1 -->
<svg width="410pt" height="1895pt"
 viewBox="0.00 0.00 410.00 1895.00" xmlns="http://www.w3.org/2000/svg" xmlns:xlink="http://www.w3.org/1999/xlink">
<g id="graph0" class="graph" transform="scale(1 1) rotate(0) translate(4 1891)">
<title>%3</title>
<polygon fill="white" stroke="none" points="-4,4 -4,-1891 406,-1891 406,4 -4,4"/>
<!-- 1355 -->
<g id="node1" class="node"><title>1355</title>
<polygon fill="none" stroke="black" points="286,-1887 114,-1887 114,-1654 286,-1654 286,-1887"/>
<text text-anchor="middle" x="200" y="-1871.8" font-family="Times,serif" font-size="14.00">0x4000cbf6b0</text>
<text text-anchor="middle" x="200" y="-1856.8" font-family="Times,serif" font-size="14.00">_______________________</text>
<text text-anchor="middle" x="200" y="-1841.8" font-family="Times,serif" font-size="14.00">_______________________</text>
<text text-anchor="middle" x="200" y="-1826.8" font-family="Times,serif" font-size="14.00">pushq %r14</text>
<text text-anchor="middle" x="200" y="-1811.8" font-family="Times,serif" font-size="14.00">pushq %r13</text>
<text text-anchor="middle" x="200" y="-1796.8" font-family="Times,serif" font-size="14.00">pushq %r12</text>
<text text-anchor="middle" x="200" y="-1781.8" font-family="Times,serif" font-size="14.00">pushq %rbp</text>
<text text-anchor="middle" x="200" y="-1766.8" font-family="Times,serif" font-size="14.00">pushq %rbx</text>
<text text-anchor="middle" x="200" y="-1751.8" font-family="Times,serif" font-size="14.00">subq $0x40, %rsp</text>
<text text-anchor="middle" x="200" y="-1736.8" font-family="Times,serif" font-size="14.00">movl $0, 0x31fa7e(%rip)</text>
<text text-anchor="middle" x="200" y="-1721.8" font-family="Times,serif" font-size="14.00">movq %fs:0x28, %rax</text>
<text text-anchor="middle" x="200" y="-1706.8" font-family="Times,serif" font-size="14.00">movq %rax, 0x38(%rsp)</text>
<text text-anchor="middle" x="200" y="-1691.8" font-family="Times,serif" font-size="14.00">xorl %eax, %eax</text>
<text text-anchor="middle" x="200" y="-1676.8" font-family="Times,serif" font-size="14.00">cmpq $0, 0x324c02(%rip)</text>
<text text-anchor="middle" x="200" y="-1661.8" font-family="Times,serif" font-size="14.00">je 0x4000cbf80e</text>
</g>
<!-- 1356 -->
<g id="node2" class="node"><title>1356</title>
<polygon fill="none" stroke="black" points="286,-1618 114,-1618 114,-1460 286,-1460 286,-1618"/>
<text text-anchor="middle" x="200" y="-1602.8" font-family="Times,serif" font-size="14.00">0x4000cbf80e</text>
<text text-anchor="middle" x="200" y="-1587.8" font-family="Times,serif" font-size="14.00">_______________________</text>
<text text-anchor="middle" x="200" y="-1572.8" font-family="Times,serif" font-size="14.00">_______________________</text>
<text text-anchor="middle" x="200" y="-1557.8" font-family="Times,serif" font-size="14.00">leaq 8(%rsp), %rdx</text>
<text text-anchor="middle" x="200" y="-1542.8" font-family="Times,serif" font-size="14.00">leaq 0x10(%rsp), %rsi</text>
<text text-anchor="middle" x="200" y="-1527.8" font-family="Times,serif" font-size="14.00">leaq 0x251(%rip), %rdi</text>
<text text-anchor="middle" x="200" y="-1512.8" font-family="Times,serif" font-size="14.00">xorl %ecx, %ecx</text>
<text text-anchor="middle" x="200" y="-1497.8" font-family="Times,serif" font-size="14.00">callq 0x4000d677c0</text>
<text text-anchor="middle" x="200" y="-1482.8" font-family="Times,serif" font-size="14.00">_______________________</text>
<text text-anchor="middle" x="200" y="-1467.8" font-family="Times,serif" font-size="14.00">CALL _dl_addr</text>
</g>
<!-- 1355&#45;&gt;1356 -->
<g id="edge1" class="edge"><title>1355&#45;&gt;1356</title>
<path fill="none" stroke="black" d="M200,-1653.74C200,-1645.19 200,-1636.64 200,-1628.29"/>
<polygon fill="black" stroke="black" points="203.5,-1628.22 200,-1618.22 196.5,-1628.22 203.5,-1628.22"/>
</g>
<!-- 1398 -->
<g id="node3" class="node"><title>1398</title>
<polygon fill="none" stroke="black" points="286,-1424 114,-1424 114,-1341 286,-1341 286,-1424"/>
<text text-anchor="middle" x="200" y="-1408.8" font-family="Times,serif" font-size="14.00">0x4000cbf826</text>
<text text-anchor="middle" x="200" y="-1393.8" font-family="Times,serif" font-size="14.00">_______________________</text>
<text text-anchor="middle" x="200" y="-1378.8" font-family="Times,serif" font-size="14.00">_______________________</text>
<text text-anchor="middle" x="200" y="-1363.8" font-family="Times,serif" font-size="14.00">testl %eax, %eax</text>
<text text-anchor="middle" x="200" y="-1348.8" font-family="Times,serif" font-size="14.00">je 0x4000cbf6f5</text>
</g>
<!-- 1356&#45;&gt;1398 -->
<g id="edge2" class="edge"><title>1356&#45;&gt;1398</title>
<path fill="none" stroke="black" d="M200,-1459.84C200,-1451.21 200,-1442.6 200,-1434.43"/>
<polygon fill="black" stroke="black" points="203.5,-1434.35 200,-1424.35 196.5,-1434.35 203.5,-1434.35"/>
</g>
<!-- 1399 -->
<g id="node4" class="node"><title>1399</title>
<polygon fill="none" stroke="black" points="286,-1305 114,-1305 114,-1207 286,-1207 286,-1305"/>
<text text-anchor="middle" x="200" y="-1289.8" font-family="Times,serif" font-size="14.00">0x4000cbf82e</text>
<text text-anchor="middle" x="200" y="-1274.8" font-family="Times,serif" font-size="14.00">_______________________</text>
<text text-anchor="middle" x="200" y="-1259.8" font-family="Times,serif" font-size="14.00">_______________________</text>
<text text-anchor="middle" x="200" y="-1244.8" font-family="Times,serif" font-size="14.00">movq 8(%rsp), %rax</text>
<text text-anchor="middle" x="200" y="-1229.8" font-family="Times,serif" font-size="14.00">cmpq $0, 0x30(%rax)</text>
<text text-anchor="middle" x="200" y="-1214.8" font-family="Times,serif" font-size="14.00">jne 0x4000cbf6e4</text>
</g>
<!-- 1398&#45;&gt;1399 -->
<g id="edge3" class="edge"><title>1398&#45;&gt;1399</title>
<path fill="none" stroke="black" d="M200,-1340.73C200,-1332.58 200,-1323.86 200,-1315.25"/>
<polygon fill="black" stroke="black" points="203.5,-1315.22 200,-1305.22 196.5,-1315.22 203.5,-1315.22"/>
</g>
<!-- 1400 -->
<g id="node5" class="node"><title>1400</title>
<polygon fill="none" stroke="black" points="286,-1171 114,-1171 114,-1103 286,-1103 286,-1171"/>
<text text-anchor="middle" x="200" y="-1155.8" font-family="Times,serif" font-size="14.00">0x4000cbf83e</text>
<text text-anchor="middle" x="200" y="-1140.8" font-family="Times,serif" font-size="14.00">_______________________</text>
<text text-anchor="middle" x="200" y="-1125.8" font-family="Times,serif" font-size="14.00">_______________________</text>
<text text-anchor="middle" x="200" y="-1110.8" font-family="Times,serif" font-size="14.00">jmp 0x4000cbf6f5</text>
</g>
<!-- 1399&#45;&gt;1400 -->
<g id="edge4" class="edge"><title>1399&#45;&gt;1400</title>
<path fill="none" stroke="black" d="M200,-1206.74C200,-1198.33 200,-1189.63 200,-1181.36"/>
<polygon fill="black" stroke="black" points="203.5,-1181.17 200,-1171.17 196.5,-1181.17 203.5,-1181.17"/>
</g>
<!-- 1401 -->
<g id="node6" class="node"><title>1401</title>
<polygon fill="none" stroke="black" points="288,-1067 112,-1067 112,-909 288,-909 288,-1067"/>
<text text-anchor="middle" x="200" y="-1051.8" font-family="Times,serif" font-size="14.00">0x4000cbf6f5</text>
<text text-anchor="middle" x="200" y="-1036.8" font-family="Times,serif" font-size="14.00">_______________________</text>
<text text-anchor="middle" x="200" y="-1021.8" font-family="Times,serif" font-size="14.00">_______________________</text>
<text text-anchor="middle" x="200" y="-1006.8" font-family="Times,serif" font-size="14.00">movq 0x31f694(%rip), %rax</text>
<text text-anchor="middle" x="200" y="-991.8" font-family="Times,serif" font-size="14.00">leaq 0x3203fd(%rip), %rcx</text>
<text text-anchor="middle" x="200" y="-976.8" font-family="Times,serif" font-size="14.00">movq %rcx, %fs:(%rax)</text>
<text text-anchor="middle" x="200" y="-961.8" font-family="Times,serif" font-size="14.00">movq 0x31f6e2(%rip), %rax</text>
<text text-anchor="middle" x="200" y="-946.8" font-family="Times,serif" font-size="14.00">movq (%rax), %r12</text>
<text text-anchor="middle" x="200" y="-931.8" font-family="Times,serif" font-size="14.00">testq %r12, %r12</text>
<text text-anchor="middle" x="200" y="-916.8" font-family="Times,serif" font-size="14.00">je 0x4000cbf7ae</text>
</g>
<!-- 1400&#45;&gt;1401 -->
<g id="edge5" class="edge"><title>1400&#45;&gt;1401</title>
<path fill="none" stroke="black" d="M200,-1102.64C200,-1094.89 200,-1086.27 200,-1077.35"/>
<polygon fill="black" stroke="black" points="203.5,-1077.18 200,-1067.18 196.5,-1077.18 203.5,-1077.18"/>
</g>
<!-- 1402 -->
<g id="node7" class="node"><title>1402</title>
<polygon fill="none" stroke="black" points="286,-873 114,-873 114,-775 286,-775 286,-873"/>
<text text-anchor="middle" x="200" y="-857.8" font-family="Times,serif" font-size="14.00">0x4000cbf71a</text>
<text text-anchor="middle" x="200" y="-842.8" font-family="Times,serif" font-size="14.00">_______________________</text>
<text text-anchor="middle" x="200" y="-827.8" font-family="Times,serif" font-size="14.00">_______________________</text>
<text text-anchor="middle" x="200" y="-812.8" font-family="Times,serif" font-size="14.00">xorl %r13d, %r13d</text>
<text text-anchor="middle" x="200" y="-797.8" font-family="Times,serif" font-size="14.00">leaq 0xe6344(%rip), %r14</text>
<text text-anchor="middle" x="200" y="-782.8" font-family="Times,serif" font-size="14.00">jmp 0x4000cbf734</text>
</g>
<!-- 1401&#45;&gt;1402 -->
<g id="edge6" class="edge"><title>1401&#45;&gt;1402</title>
<path fill="none" stroke="black" d="M200,-908.847C200,-900.314 200,-891.738 200,-883.499"/>
<polygon fill="black" stroke="black" points="203.5,-883.273 200,-873.273 196.5,-883.273 203.5,-883.273"/>
</g>
<!-- 1403 -->
<g id="node8" class="node"><title>1403</title>
<polygon fill="none" stroke="black" points="286,-739 114,-739 114,-641 286,-641 286,-739"/>
<text text-anchor="middle" x="200" y="-723.8" font-family="Times,serif" font-size="14.00">0x4000cbf734</text>
<text text-anchor="middle" x="200" y="-708.8" font-family="Times,serif" font-size="14.00">_______________________</text>
<text text-anchor="middle" x="200" y="-693.8" font-family="Times,serif" font-size="14.00">_______________________</text>
<text text-anchor="middle" x="200" y="-678.8" font-family="Times,serif" font-size="14.00">movq (%r12), %rbx</text>
<text text-anchor="middle" x="200" y="-663.8" font-family="Times,serif" font-size="14.00">testq %rbx, %rbx</text>
<text text-anchor="middle" x="200" y="-648.8" font-family="Times,serif" font-size="14.00">je 0x4000cbf7a0</text>
</g>
<!-- 1402&#45;&gt;1403 -->
<g id="edge7" class="edge"><title>1402&#45;&gt;1403</title>
<path fill="none" stroke="black" d="M200,-774.972C200,-766.691 200,-758.003 200,-749.483"/>
<polygon fill="black" stroke="black" points="203.5,-749.214 200,-739.214 196.5,-749.214 203.5,-749.214"/>
</g>
<!-- 1404 -->
<g id="node9" class="node"><title>1404</title>
<polygon fill="none" stroke="black" points="172,-605 0,-605 0,-492 172,-492 172,-605"/>
<text text-anchor="middle" x="86" y="-589.8" font-family="Times,serif" font-size="14.00">0x4000cbf73d</text>
<text text-anchor="middle" x="86" y="-574.8" font-family="Times,serif" font-size="14.00">_______________________</text>
<text text-anchor="middle" x="86" y="-559.8" font-family="Times,serif" font-size="14.00">_______________________</text>
<text text-anchor="middle" x="86" y="-544.8" font-family="Times,serif" font-size="14.00">cmpb $0x4d, (%rbx)</text>
<text text-anchor="middle" x="86" y="-529.8" font-family="Times,serif" font-size="14.00">jne 0x4000cbf730</text>
<text text-anchor="middle" x="86" y="-514.8" font-family="Times,serif" font-size="14.00">_______________________</text>
<text text-anchor="middle" x="86" y="-499.8" font-family="Times,serif" font-size="14.00">LOOP 0x4000cbf734</text>
</g>
<!-- 1403&#45;&gt;1404 -->
<g id="edge8" class="edge"><title>1403&#45;&gt;1404</title>
<path fill="none" stroke="black" d="M160.768,-640.992C153.421,-632.002 145.637,-622.477 137.976,-613.102"/>
<polygon fill="black" stroke="black" points="140.619,-610.805 131.581,-605.276 135.198,-615.234 140.619,-610.805"/>
</g>
<!-- 1406 -->
<g id="node10" class="node"><title>1406</title>
<polygon fill="none" stroke="black" points="400,-590 228,-590 228,-507 400,-507 400,-590"/>
<text text-anchor="middle" x="314" y="-574.8" font-family="Times,serif" font-size="14.00">0x4000cbf7a0</text>
<text text-anchor="middle" x="314" y="-559.8" font-family="Times,serif" font-size="14.00">_______________________</text>
<text text-anchor="middle" x="314" y="-544.8" font-family="Times,serif" font-size="14.00">_______________________</text>
<text text-anchor="middle" x="314" y="-529.8" font-family="Times,serif" font-size="14.00">testq %r13, %r13</text>
<text text-anchor="middle" x="314" y="-514.8" font-family="Times,serif" font-size="14.00">je 0x4000cbf7ae</text>
</g>
<!-- 1403&#45;&gt;1406 -->
<g id="edge9" class="edge"><title>1403&#45;&gt;1406</title>
<path fill="none" stroke="black" d="M239.232,-640.992C250.539,-627.157 262.881,-612.053 274.221,-598.177"/>
<polygon fill="black" stroke="black" points="277.148,-600.127 280.766,-590.168 271.728,-595.697 277.148,-600.127"/>
</g>
<!-- 1405 -->
<g id="node11" class="node"><title>1405</title>
<polygon fill="none" stroke="black" points="190,-448.5 18,-448.5 18,-350.5 190,-350.5 190,-448.5"/>
<text text-anchor="middle" x="104" y="-433.3" font-family="Times,serif" font-size="14.00">0x4000cbf730</text>
<text text-anchor="middle" x="104" y="-418.3" font-family="Times,serif" font-size="14.00">_______________________</text>
<text text-anchor="middle" x="104" y="-403.3" font-family="Times,serif" font-size="14.00">_______________________</text>
<text text-anchor="middle" x="104" y="-388.3" font-family="Times,serif" font-size="14.00">addq $8, %r12</text>
<text text-anchor="middle" x="104" y="-373.3" font-family="Times,serif" font-size="14.00">_______________________</text>
<text text-anchor="middle" x="104" y="-358.3" font-family="Times,serif" font-size="14.00">LOOP 0x4000cbf734</text>
</g>
<!-- 1404&#45;&gt;1405 -->
<g id="edge10" class="edge"><title>1404&#45;&gt;1405</title>
<path fill="none" stroke="black" d="M92.805,-491.926C94.1178,-481.205 95.4969,-469.942 96.8211,-459.128"/>
<polygon fill="black" stroke="black" points="100.328,-459.281 98.0699,-448.929 93.3803,-458.43 100.328,-459.281"/>
</g>
<!-- 1407 -->
<g id="node12" class="node"><title>1407</title>
<polygon fill="none" stroke="black" points="402,-456 226,-456 226,-343 402,-343 402,-456"/>
<text text-anchor="middle" x="314" y="-440.8" font-family="Times,serif" font-size="14.00">0x4000cbf7ae</text>
<text text-anchor="middle" x="314" y="-425.8" font-family="Times,serif" font-size="14.00">_______________________</text>
<text text-anchor="middle" x="314" y="-410.8" font-family="Times,serif" font-size="14.00">_______________________</text>
<text text-anchor="middle" x="314" y="-395.8" font-family="Times,serif" font-size="14.00">movq 0x31f6bb(%rip), %rax</text>
<text text-anchor="middle" x="314" y="-380.8" font-family="Times,serif" font-size="14.00">movq (%rax), %rax</text>
<text text-anchor="middle" x="314" y="-365.8" font-family="Times,serif" font-size="14.00">testq %rax, %rax</text>
<text text-anchor="middle" x="314" y="-350.8" font-family="Times,serif" font-size="14.00">je 0x4000cbf7bf</text>
</g>
<!-- 1406&#45;&gt;1407 -->
<g id="edge12" class="edge"><title>1406&#45;&gt;1407</title>
<path fill="none" stroke="black" d="M314,-506.942C314,-494.291 314,-479.998 314,-466.088"/>
<polygon fill="black" stroke="black" points="317.5,-466.056 314,-456.056 310.5,-466.056 317.5,-466.056"/>
</g>
<!-- 1405&#45;&gt;1403 -->
<g id="edge11" class="edge"><title>1405&#45;&gt;1403</title>
<path fill="none" stroke="black" d="M153.618,-448.581C164.383,-461.643 174.484,-476.496 181,-492 199.492,-536.001 203.51,-590.253 203.317,-630.677"/>
<polygon fill="black" stroke="black" points="199.815,-630.856 203.178,-640.903 206.814,-630.951 199.815,-630.856"/>
</g>
<!-- 1408 -->
<g id="node13" class="node"><title>1408</title>
<polygon fill="none" stroke="black" points="400,-307 228,-307 228,-194 400,-194 400,-307"/>
<text text-anchor="middle" x="314" y="-291.8" font-family="Times,serif" font-size="14.00">0x4000cbf7bf</text>
<text text-anchor="middle" x="314" y="-276.8" font-family="Times,serif" font-size="14.00">_______________________</text>
<text text-anchor="middle" x="314" y="-261.8" font-family="Times,serif" font-size="14.00">_______________________</text>
<text text-anchor="middle" x="314" y="-246.8" font-family="Times,serif" font-size="14.00">movq 0x38(%rsp), %rax</text>
<text text-anchor="middle" x="314" y="-231.8" font-family="Times,serif" font-size="14.00">xorq %fs:0x28, %rax</text>
<text text-anchor="middle" x="314" y="-216.8" font-family="Times,serif" font-size="14.00">movl $1, 0x31f96d(%rip)</text>
<text text-anchor="middle" x="314" y="-201.8" font-family="Times,serif" font-size="14.00">jne 0x4000cbfa63</text>
</g>
<!-- 1407&#45;&gt;1408 -->
<g id="edge13" class="edge"><title>1407&#45;&gt;1408</title>
<path fill="none" stroke="black" d="M314,-342.926C314,-334.511 314,-325.762 314,-317.158"/>
<polygon fill="black" stroke="black" points="317.5,-317.153 314,-307.153 310.5,-317.153 317.5,-317.153"/>
</g>
<!-- 1409 -->
<g id="node14" class="node"><title>1409</title>
<polygon fill="none" stroke="black" points="400,-158 228,-158 228,-0 400,-0 400,-158"/>
<text text-anchor="middle" x="314" y="-142.8" font-family="Times,serif" font-size="14.00">0x4000cbf7dd</text>
<text text-anchor="middle" x="314" y="-127.8" font-family="Times,serif" font-size="14.00">_______________________</text>
<text text-anchor="middle" x="314" y="-112.8" font-family="Times,serif" font-size="14.00">_______________________</text>
<text text-anchor="middle" x="314" y="-97.8" font-family="Times,serif" font-size="14.00">addq $0x40, %rsp</text>
<text text-anchor="middle" x="314" y="-82.8" font-family="Times,serif" font-size="14.00">popq %rbx</text>
<text text-anchor="middle" x="314" y="-67.8" font-family="Times,serif" font-size="14.00">popq %rbp</text>
<text text-anchor="middle" x="314" y="-52.8" font-family="Times,serif" font-size="14.00">popq %r12</text>
<text text-anchor="middle" x="314" y="-37.8" font-family="Times,serif" font-size="14.00">popq %r13</text>
<text text-anchor="middle" x="314" y="-22.8" font-family="Times,serif" font-size="14.00">popq %r14</text>
<text text-anchor="middle" x="314" y="-7.8" font-family="Times,serif" font-size="14.00">retq </text>
</g>
<!-- 1408&#45;&gt;1409 -->
<g id="edge14" class="edge"><title>1408&#45;&gt;1409</title>
<path fill="none" stroke="black" d="M314,-193.999C314,-185.741 314,-177.061 314,-168.33"/>
<polygon fill="black" stroke="black" points="317.5,-168.079 314,-158.079 310.5,-168.079 317.5,-168.079"/>
</g>
</g>
</svg>
