<?xml version="1.0" encoding="UTF-8" standalone="no"?>
<!DOCTYPE svg PUBLIC "-//W3C//DTD SVG 1.1//EN"
 "http://www.w3.org/Graphics/SVG/1.1/DTD/svg11.dtd">
<!-- Generated by graphviz version 2.38.0 (20140413.2041)
 -->
<!-- Title: %3 Pages: 1 -->
<svg width="182pt" height="554pt"
 viewBox="0.00 0.00 182.00 554.00" xmlns="http://www.w3.org/2000/svg" xmlns:xlink="http://www.w3.org/1999/xlink">
<g id="graph0" class="graph" transform="scale(1 1) rotate(0) translate(4 550)">
<title>%3</title>
<polygon fill="white" stroke="none" points="-4,4 -4,-550 178,-550 178,4 -4,4"/>
<!-- 896 -->
<g id="node1" class="node"><title>896</title>
<polygon fill="none" stroke="black" points="174,-546 0,-546 0,-328 174,-328 174,-546"/>
<text text-anchor="middle" x="87" y="-530.8" font-family="Times,serif" font-size="14.00">0x4000a14c50</text>
<text text-anchor="middle" x="87" y="-515.8" font-family="Times,serif" font-size="14.00">_______________________</text>
<text text-anchor="middle" x="87" y="-500.8" font-family="Times,serif" font-size="14.00">_______________________</text>
<text text-anchor="middle" x="87" y="-485.8" font-family="Times,serif" font-size="14.00">pushq %rbp</text>
<text text-anchor="middle" x="87" y="-470.8" font-family="Times,serif" font-size="14.00">pushq %rbx</text>
<text text-anchor="middle" x="87" y="-455.8" font-family="Times,serif" font-size="14.00">movq %rdi, %rbx</text>
<text text-anchor="middle" x="87" y="-440.8" font-family="Times,serif" font-size="14.00">movl $0x10, %esi</text>
<text text-anchor="middle" x="87" y="-425.8" font-family="Times,serif" font-size="14.00">subq $8, %rsp</text>
<text text-anchor="middle" x="87" y="-410.8" font-family="Times,serif" font-size="14.00">movq 0x2122fb(%rip), %rdi</text>
<text text-anchor="middle" x="87" y="-395.8" font-family="Times,serif" font-size="14.00">leaq 0xe(%rdi), %rbp</text>
<text text-anchor="middle" x="87" y="-380.8" font-family="Times,serif" font-size="14.00">addq $0x10, %rdi</text>
<text text-anchor="middle" x="87" y="-365.8" font-family="Times,serif" font-size="14.00">callq 0x4000a03a50</text>
<text text-anchor="middle" x="87" y="-350.8" font-family="Times,serif" font-size="14.00">_______________________</text>
<text text-anchor="middle" x="87" y="-335.8" font-family="Times,serif" font-size="14.00">CALL 0x4000a03a50</text>
</g>
<!-- 897 -->
<g id="node2" class="node"><title>897</title>
<polygon fill="none" stroke="black" points="173,-292 1,-292 1,-209 173,-209 173,-292"/>
<text text-anchor="middle" x="87" y="-276.8" font-family="Times,serif" font-size="14.00">0x4000a14c72</text>
<text text-anchor="middle" x="87" y="-261.8" font-family="Times,serif" font-size="14.00">_______________________</text>
<text text-anchor="middle" x="87" y="-246.8" font-family="Times,serif" font-size="14.00">_______________________</text>
<text text-anchor="middle" x="87" y="-231.8" font-family="Times,serif" font-size="14.00">testq %rax, %rax</text>
<text text-anchor="middle" x="87" y="-216.8" font-family="Times,serif" font-size="14.00">je 0x4000a14c90</text>
</g>
<!-- 896&#45;&gt;897 -->
<g id="edge1" class="edge"><title>896&#45;&gt;897</title>
<path fill="none" stroke="black" d="M87,-327.875C87,-319.125 87,-310.572 87,-302.543"/>
<polygon fill="black" stroke="black" points="90.5001,-302.318 87,-292.318 83.5001,-302.318 90.5001,-302.318"/>
</g>
<!-- 898 -->
<g id="node3" class="node"><title>898</title>
<polygon fill="none" stroke="black" points="173,-173 1,-173 1,-0 173,-0 173,-173"/>
<text text-anchor="middle" x="87" y="-157.8" font-family="Times,serif" font-size="14.00">0x4000a14c77</text>
<text text-anchor="middle" x="87" y="-142.8" font-family="Times,serif" font-size="14.00">_______________________</text>
<text text-anchor="middle" x="87" y="-127.8" font-family="Times,serif" font-size="14.00">_______________________</text>
<text text-anchor="middle" x="87" y="-112.8" font-family="Times,serif" font-size="14.00">leaq 0x10(%rax), %rdx</text>
<text text-anchor="middle" x="87" y="-97.8" font-family="Times,serif" font-size="14.00">movq %rbp, (%rax)</text>
<text text-anchor="middle" x="87" y="-82.8" font-family="Times,serif" font-size="14.00">movq %rbx, %rax</text>
<text text-anchor="middle" x="87" y="-67.8" font-family="Times,serif" font-size="14.00">movq %rdx, 8(%rbx)</text>
<text text-anchor="middle" x="87" y="-52.8" font-family="Times,serif" font-size="14.00">addq $8, %rsp</text>
<text text-anchor="middle" x="87" y="-37.8" font-family="Times,serif" font-size="14.00">popq %rbx</text>
<text text-anchor="middle" x="87" y="-22.8" font-family="Times,serif" font-size="14.00">popq %rbp</text>
<text text-anchor="middle" x="87" y="-7.8" font-family="Times,serif" font-size="14.00">retq </text>
</g>
<!-- 897&#45;&gt;898 -->
<g id="edge2" class="edge"><title>897&#45;&gt;898</title>
<path fill="none" stroke="black" d="M87,-208.621C87,-200.721 87,-192.14 87,-183.316"/>
<polygon fill="black" stroke="black" points="90.5001,-183.273 87,-173.273 83.5001,-183.273 90.5001,-183.273"/>
</g>
</g>
</svg>
