<?xml version="1.0" encoding="UTF-8" standalone="no"?>
<!DOCTYPE svg PUBLIC "-//W3C//DTD SVG 1.1//EN"
 "http://www.w3.org/Graphics/SVG/1.1/DTD/svg11.dtd">
<!-- Generated by graphviz version 2.38.0 (20140413.2041)
 -->
<!-- Title: %3 Pages: 1 -->
<svg width="180pt" height="494pt"
 viewBox="0.00 0.00 180.00 494.00" xmlns="http://www.w3.org/2000/svg" xmlns:xlink="http://www.w3.org/1999/xlink">
<g id="graph0" class="graph" transform="scale(1 1) rotate(0) translate(4 490)">
<title>%3</title>
<polygon fill="white" stroke="none" points="-4,4 -4,-490 176,-490 176,4 -4,4"/>
<!-- 1772 -->
<g id="node1" class="node"><title>1772</title>
<polygon fill="none" stroke="black" points="172,-486 0,-486 0,-358 172,-358 172,-486"/>
<text text-anchor="middle" x="86" y="-470.8" font-family="Times,serif" font-size="14.00">0x4000cb51a0</text>
<text text-anchor="middle" x="86" y="-455.8" font-family="Times,serif" font-size="14.00">_______________________</text>
<text text-anchor="middle" x="86" y="-440.8" font-family="Times,serif" font-size="14.00">_______________________</text>
<text text-anchor="middle" x="86" y="-425.8" font-family="Times,serif" font-size="14.00">pushq %rbx</text>
<text text-anchor="middle" x="86" y="-410.8" font-family="Times,serif" font-size="14.00">movq %rdi, %rbx</text>
<text text-anchor="middle" x="86" y="-395.8" font-family="Times,serif" font-size="14.00">callq 0x4000cb8610</text>
<text text-anchor="middle" x="86" y="-380.8" font-family="Times,serif" font-size="14.00">_______________________</text>
<text text-anchor="middle" x="86" y="-365.8" font-family="Times,serif" font-size="14.00">CALL 0x4000cb8610</text>
</g>
<!-- 1784 -->
<g id="node2" class="node"><title>1784</title>
<polygon fill="none" stroke="black" points="172,-322 0,-322 0,-239 172,-239 172,-322"/>
<text text-anchor="middle" x="86" y="-306.8" font-family="Times,serif" font-size="14.00">0x4000cb51a9</text>
<text text-anchor="middle" x="86" y="-291.8" font-family="Times,serif" font-size="14.00">_______________________</text>
<text text-anchor="middle" x="86" y="-276.8" font-family="Times,serif" font-size="14.00">_______________________</text>
<text text-anchor="middle" x="86" y="-261.8" font-family="Times,serif" font-size="14.00">testq %rax, %rax</text>
<text text-anchor="middle" x="86" y="-246.8" font-family="Times,serif" font-size="14.00">je 0x4000cb51cd</text>
</g>
<!-- 1772&#45;&gt;1784 -->
<g id="edge1" class="edge"><title>1772&#45;&gt;1784</title>
<path fill="none" stroke="black" d="M86,-357.781C86,-349.265 86,-340.618 86,-332.355"/>
<polygon fill="black" stroke="black" points="89.5001,-332.13 86,-322.13 82.5001,-332.13 89.5001,-332.13"/>
</g>
<!-- 1785 -->
<g id="node3" class="node"><title>1785</title>
<polygon fill="none" stroke="black" points="172,-203 0,-203 0,-0 172,-0 172,-203"/>
<text text-anchor="middle" x="86" y="-187.8" font-family="Times,serif" font-size="14.00">0x4000cb51ae</text>
<text text-anchor="middle" x="86" y="-172.8" font-family="Times,serif" font-size="14.00">_______________________</text>
<text text-anchor="middle" x="86" y="-157.8" font-family="Times,serif" font-size="14.00">_______________________</text>
<text text-anchor="middle" x="86" y="-142.8" font-family="Times,serif" font-size="14.00">movq 0x38(%rbx), %rax</text>
<text text-anchor="middle" x="86" y="-127.8" font-family="Times,serif" font-size="14.00">movq %rax, 0x30(%rbx)</text>
<text text-anchor="middle" x="86" y="-112.8" font-family="Times,serif" font-size="14.00">movq %rax, 0x28(%rbx)</text>
<text text-anchor="middle" x="86" y="-97.8" font-family="Times,serif" font-size="14.00">movq %rax, 0x20(%rbx)</text>
<text text-anchor="middle" x="86" y="-82.8" font-family="Times,serif" font-size="14.00">movq %rax, 0x18(%rbx)</text>
<text text-anchor="middle" x="86" y="-67.8" font-family="Times,serif" font-size="14.00">movq %rax, 8(%rbx)</text>
<text text-anchor="middle" x="86" y="-52.8" font-family="Times,serif" font-size="14.00">movq %rax, 0x10(%rbx)</text>
<text text-anchor="middle" x="86" y="-37.8" font-family="Times,serif" font-size="14.00">movq %rbx, %rax</text>
<text text-anchor="middle" x="86" y="-22.8" font-family="Times,serif" font-size="14.00">popq %rbx</text>
<text text-anchor="middle" x="86" y="-7.8" font-family="Times,serif" font-size="14.00">retq </text>
</g>
<!-- 1784&#45;&gt;1785 -->
<g id="edge2" class="edge"><title>1784&#45;&gt;1785</title>
<path fill="none" stroke="black" d="M86,-238.893C86,-230.958 86,-222.288 86,-213.29"/>
<polygon fill="black" stroke="black" points="89.5001,-213.012 86,-203.012 82.5001,-213.012 89.5001,-213.012"/>
</g>
</g>
</svg>
