<?xml version="1.0" encoding="UTF-8" standalone="no"?>
<!DOCTYPE svg PUBLIC "-//W3C//DTD SVG 1.1//EN"
 "http://www.w3.org/Graphics/SVG/1.1/DTD/svg11.dtd">
<!-- Generated by graphviz version 2.38.0 (20140413.2041)
 -->
<!-- Title: %3 Pages: 1 -->
<svg width="180pt" height="911pt"
 viewBox="0.00 0.00 180.00 911.00" xmlns="http://www.w3.org/2000/svg" xmlns:xlink="http://www.w3.org/1999/xlink">
<g id="graph0" class="graph" transform="scale(1 1) rotate(0) translate(4 907)">
<title>%3</title>
<polygon fill="white" stroke="none" points="-4,4 -4,-907 176,-907 176,4 -4,4"/>
<!-- 1332 -->
<g id="node1" class="node"><title>1332</title>
<polygon fill="none" stroke="black" points="172,-903 0,-903 0,-820 172,-820 172,-903"/>
<text text-anchor="middle" x="86" y="-887.8" font-family="Times,serif" font-size="14.00">0x4000cb82a0</text>
<text text-anchor="middle" x="86" y="-872.8" font-family="Times,serif" font-size="14.00">_______________________</text>
<text text-anchor="middle" x="86" y="-857.8" font-family="Times,serif" font-size="14.00">_______________________</text>
<text text-anchor="middle" x="86" y="-842.8" font-family="Times,serif" font-size="14.00">cmpq $0, 0x38(%rdi)</text>
<text text-anchor="middle" x="86" y="-827.8" font-family="Times,serif" font-size="14.00">je 0x4000cb82b0</text>
</g>
<!-- 1333 -->
<g id="node2" class="node"><title>1333</title>
<polygon fill="none" stroke="black" points="172,-784 0,-784 0,-626 172,-626 172,-784"/>
<text text-anchor="middle" x="86" y="-768.8" font-family="Times,serif" font-size="14.00">0x4000cb82b0</text>
<text text-anchor="middle" x="86" y="-753.8" font-family="Times,serif" font-size="14.00">_______________________</text>
<text text-anchor="middle" x="86" y="-738.8" font-family="Times,serif" font-size="14.00">_______________________</text>
<text text-anchor="middle" x="86" y="-723.8" font-family="Times,serif" font-size="14.00">pushq %r12</text>
<text text-anchor="middle" x="86" y="-708.8" font-family="Times,serif" font-size="14.00">pushq %rbp</text>
<text text-anchor="middle" x="86" y="-693.8" font-family="Times,serif" font-size="14.00">pushq %rbx</text>
<text text-anchor="middle" x="86" y="-678.8" font-family="Times,serif" font-size="14.00">movl (%rdi), %eax</text>
<text text-anchor="middle" x="86" y="-663.8" font-family="Times,serif" font-size="14.00">movq %rdi, %rbx</text>
<text text-anchor="middle" x="86" y="-648.8" font-family="Times,serif" font-size="14.00">testb $2, %al</text>
<text text-anchor="middle" x="86" y="-633.8" font-family="Times,serif" font-size="14.00">jne 0x4000cb82f0</text>
</g>
<!-- 1332&#45;&gt;1333 -->
<g id="edge1" class="edge"><title>1332&#45;&gt;1333</title>
<path fill="none" stroke="black" d="M86,-819.907C86,-811.917 86,-803.246 86,-794.375"/>
<polygon fill="black" stroke="black" points="89.5001,-794.3 86,-784.3 82.5001,-794.3 89.5001,-794.3"/>
</g>
<!-- 1334 -->
<g id="node3" class="node"><title>1334</title>
<polygon fill="none" stroke="black" points="172,-590 0,-590 0,-417 172,-417 172,-590"/>
<text text-anchor="middle" x="86" y="-574.8" font-family="Times,serif" font-size="14.00">0x4000cb82bd</text>
<text text-anchor="middle" x="86" y="-559.8" font-family="Times,serif" font-size="14.00">_______________________</text>
<text text-anchor="middle" x="86" y="-544.8" font-family="Times,serif" font-size="14.00">_______________________</text>
<text text-anchor="middle" x="86" y="-529.8" font-family="Times,serif" font-size="14.00">movq 0xd8(%rbx), %rbp</text>
<text text-anchor="middle" x="86" y="-514.8" font-family="Times,serif" font-size="14.00">leaq 0x323635(%rip), %rdx</text>
<text text-anchor="middle" x="86" y="-499.8" font-family="Times,serif" font-size="14.00">leaq 0x324396(%rip), %rax</text>
<text text-anchor="middle" x="86" y="-484.8" font-family="Times,serif" font-size="14.00">subq %rdx, %rax</text>
<text text-anchor="middle" x="86" y="-469.8" font-family="Times,serif" font-size="14.00">movq %rbp, %rcx</text>
<text text-anchor="middle" x="86" y="-454.8" font-family="Times,serif" font-size="14.00">subq %rdx, %rcx</text>
<text text-anchor="middle" x="86" y="-439.8" font-family="Times,serif" font-size="14.00">cmpq %rcx, %rax</text>
<text text-anchor="middle" x="86" y="-424.8" font-family="Times,serif" font-size="14.00">jbe 0x4000cb8350</text>
</g>
<!-- 1333&#45;&gt;1334 -->
<g id="edge2" class="edge"><title>1333&#45;&gt;1334</title>
<path fill="none" stroke="black" d="M86,-625.725C86,-617.33 86,-608.721 86,-600.153"/>
<polygon fill="black" stroke="black" points="89.5001,-600.129 86,-590.129 82.5001,-600.129 89.5001,-600.129"/>
</g>
<!-- 1335 -->
<g id="node4" class="node"><title>1335</title>
<polygon fill="none" stroke="black" points="172,-381 0,-381 0,-268 172,-268 172,-381"/>
<text text-anchor="middle" x="86" y="-365.8" font-family="Times,serif" font-size="14.00">0x4000cb82e0</text>
<text text-anchor="middle" x="86" y="-350.8" font-family="Times,serif" font-size="14.00">_______________________</text>
<text text-anchor="middle" x="86" y="-335.8" font-family="Times,serif" font-size="14.00">_______________________</text>
<text text-anchor="middle" x="86" y="-320.8" font-family="Times,serif" font-size="14.00">movq %rbx, %rdi</text>
<text text-anchor="middle" x="86" y="-305.8" font-family="Times,serif" font-size="14.00">callq *0x68(%rbp)</text>
<text text-anchor="middle" x="86" y="-290.8" font-family="Times,serif" font-size="14.00">_______________________</text>
<text text-anchor="middle" x="86" y="-275.8" font-family="Times,serif" font-size="14.00">CALL _IO_file_doallocate</text>
</g>
<!-- 1334&#45;&gt;1335 -->
<g id="edge3" class="edge"><title>1334&#45;&gt;1335</title>
<path fill="none" stroke="black" d="M86,-416.852C86,-408.194 86,-399.5 86,-391.102"/>
<polygon fill="black" stroke="black" points="89.5001,-391.027 86,-381.027 82.5001,-391.027 89.5001,-391.027"/>
</g>
<!-- 1509 -->
<g id="node5" class="node"><title>1509</title>
<polygon fill="none" stroke="black" points="172,-232 0,-232 0,-149 172,-149 172,-232"/>
<text text-anchor="middle" x="86" y="-216.8" font-family="Times,serif" font-size="14.00">0x4000cb82e6</text>
<text text-anchor="middle" x="86" y="-201.8" font-family="Times,serif" font-size="14.00">_______________________</text>
<text text-anchor="middle" x="86" y="-186.8" font-family="Times,serif" font-size="14.00">_______________________</text>
<text text-anchor="middle" x="86" y="-171.8" font-family="Times,serif" font-size="14.00">cmpl $0xff, %eax</text>
<text text-anchor="middle" x="86" y="-156.8" font-family="Times,serif" font-size="14.00">je 0x4000cb8310</text>
</g>
<!-- 1335&#45;&gt;1509 -->
<g id="edge4" class="edge"><title>1335&#45;&gt;1509</title>
<path fill="none" stroke="black" d="M86,-267.903C86,-259.387 86,-250.635 86,-242.231"/>
<polygon fill="black" stroke="black" points="89.5001,-242.194 86,-232.194 82.5001,-242.194 89.5001,-242.194"/>
</g>
<!-- 1510 -->
<g id="node6" class="node"><title>1510</title>
<polygon fill="none" stroke="black" points="172,-113 0,-113 0,-0 172,-0 172,-113"/>
<text text-anchor="middle" x="86" y="-97.8" font-family="Times,serif" font-size="14.00">0x4000cb82eb</text>
<text text-anchor="middle" x="86" y="-82.8" font-family="Times,serif" font-size="14.00">_______________________</text>
<text text-anchor="middle" x="86" y="-67.8" font-family="Times,serif" font-size="14.00">_______________________</text>
<text text-anchor="middle" x="86" y="-52.8" font-family="Times,serif" font-size="14.00">popq %rbx</text>
<text text-anchor="middle" x="86" y="-37.8" font-family="Times,serif" font-size="14.00">popq %rbp</text>
<text text-anchor="middle" x="86" y="-22.8" font-family="Times,serif" font-size="14.00">popq %r12</text>
<text text-anchor="middle" x="86" y="-7.8" font-family="Times,serif" font-size="14.00">retq </text>
</g>
<!-- 1509&#45;&gt;1510 -->
<g id="edge5" class="edge"><title>1509&#45;&gt;1510</title>
<path fill="none" stroke="black" d="M86,-148.819C86,-140.761 86,-132.109 86,-123.458"/>
<polygon fill="black" stroke="black" points="89.5001,-123.339 86,-113.339 82.5001,-123.339 89.5001,-123.339"/>
</g>
</g>
</svg>
