<?xml version="1.0" encoding="UTF-8" standalone="no"?>
<!DOCTYPE svg PUBLIC "-//W3C//DTD SVG 1.1//EN"
 "http://www.w3.org/Graphics/SVG/1.1/DTD/svg11.dtd">
<!-- Generated by graphviz version 2.38.0 (20140413.2041)
 -->
<!-- Title: %3 Pages: 1 -->
<svg width="211pt" height="539pt"
 viewBox="0.00 0.00 211.00 539.00" xmlns="http://www.w3.org/2000/svg" xmlns:xlink="http://www.w3.org/1999/xlink">
<g id="graph0" class="graph" transform="scale(1 1) rotate(0) translate(4 535)">
<title>%3</title>
<polygon fill="white" stroke="none" points="-4,4 -4,-535 207,-535 207,4 -4,4"/>
<!-- 131 -->
<g id="node1" class="node"><title>131</title>
<polygon fill="none" stroke="black" points="203,-531 0,-531 0,-328 203,-328 203,-531"/>
<text text-anchor="middle" x="101.5" y="-515.8" font-family="Times,serif" font-size="14.00">0x4000a1ac00</text>
<text text-anchor="middle" x="101.5" y="-500.8" font-family="Times,serif" font-size="14.00">_______________________</text>
<text text-anchor="middle" x="101.5" y="-485.8" font-family="Times,serif" font-size="14.00">_______________________</text>
<text text-anchor="middle" x="101.5" y="-470.8" font-family="Times,serif" font-size="14.00">movq %rdi, %rcx</text>
<text text-anchor="middle" x="101.5" y="-455.8" font-family="Times,serif" font-size="14.00">movl $0xffffffff, %eax</text>
<text text-anchor="middle" x="101.5" y="-440.8" font-family="Times,serif" font-size="14.00">movq %rcx, %rdx</text>
<text text-anchor="middle" x="101.5" y="-425.8" font-family="Times,serif" font-size="14.00">orq %rsi, %rdx</text>
<text text-anchor="middle" x="101.5" y="-410.8" font-family="Times,serif" font-size="14.00">imulq %rsi, %rdi</text>
<text text-anchor="middle" x="101.5" y="-395.8" font-family="Times,serif" font-size="14.00">cmpq %rax, %rdx</text>
<text text-anchor="middle" x="101.5" y="-380.8" font-family="Times,serif" font-size="14.00">jbe 0x4000a1ac29</text>
<text text-anchor="middle" x="101.5" y="-365.8" font-family="Times,serif" font-size="14.00">_______________________</text>
<text text-anchor="middle" x="101.5" y="-350.8" font-family="Times,serif" font-size="14.00">SHARED BLOCK calloc</text>
<text text-anchor="middle" x="101.5" y="-335.8" font-family="Times,serif" font-size="14.00">SHARED BLOCK 0x4000a03a40</text>
</g>
<!-- 132 -->
<g id="node2" class="node"><title>132</title>
<polygon fill="none" stroke="black" points="203,-292 0,-292 0,-179 203,-179 203,-292"/>
<text text-anchor="middle" x="101.5" y="-276.8" font-family="Times,serif" font-size="14.00">0x4000a1ac29</text>
<text text-anchor="middle" x="101.5" y="-261.8" font-family="Times,serif" font-size="14.00">_______________________</text>
<text text-anchor="middle" x="101.5" y="-246.8" font-family="Times,serif" font-size="14.00">_______________________</text>
<text text-anchor="middle" x="101.5" y="-231.8" font-family="Times,serif" font-size="14.00">jmp 0x4000a03a40</text>
<text text-anchor="middle" x="101.5" y="-216.8" font-family="Times,serif" font-size="14.00">_______________________</text>
<text text-anchor="middle" x="101.5" y="-201.8" font-family="Times,serif" font-size="14.00">SHARED BLOCK calloc</text>
<text text-anchor="middle" x="101.5" y="-186.8" font-family="Times,serif" font-size="14.00">SHARED BLOCK 0x4000a03a40</text>
</g>
<!-- 131&#45;&gt;132 -->
<g id="edge1" class="edge"><title>131&#45;&gt;132</title>
<path fill="none" stroke="black" d="M101.5,-327.721C101.5,-319.19 101.5,-310.71 101.5,-302.551"/>
<polygon fill="black" stroke="black" points="105,-302.408 101.5,-292.408 98.0001,-302.408 105,-302.408"/>
</g>
<!-- 133 -->
<g id="node3" class="node"><title>133</title>
<polygon fill="none" stroke="black" points="203,-143 0,-143 0,-0 203,-0 203,-143"/>
<text text-anchor="middle" x="101.5" y="-127.8" font-family="Times,serif" font-size="14.00">0x4000a03a40</text>
<text text-anchor="middle" x="101.5" y="-112.8" font-family="Times,serif" font-size="14.00">_______________________</text>
<text text-anchor="middle" x="101.5" y="-97.8" font-family="Times,serif" font-size="14.00">_______________________</text>
<text text-anchor="middle" x="101.5" y="-82.8" font-family="Times,serif" font-size="14.00">jmpq *0x2225d2(%rip)</text>
<text text-anchor="middle" x="101.5" y="-67.8" font-family="Times,serif" font-size="14.00">_______________________</text>
<text text-anchor="middle" x="101.5" y="-52.8" font-family="Times,serif" font-size="14.00">CALL malloc</text>
<text text-anchor="middle" x="101.5" y="-37.8" font-family="Times,serif" font-size="14.00">_______________________</text>
<text text-anchor="middle" x="101.5" y="-22.8" font-family="Times,serif" font-size="14.00">SHARED BLOCK calloc</text>
<text text-anchor="middle" x="101.5" y="-7.8" font-family="Times,serif" font-size="14.00">SHARED BLOCK 0x4000a03a40</text>
</g>
<!-- 132&#45;&gt;133 -->
<g id="edge2" class="edge"><title>132&#45;&gt;133</title>
<path fill="none" stroke="black" d="M101.5,-178.749C101.5,-170.526 101.5,-161.917 101.5,-153.311"/>
<polygon fill="black" stroke="black" points="105,-153.233 101.5,-143.233 98.0001,-153.233 105,-153.233"/>
</g>
</g>
</svg>
