<?xml version="1.0" encoding="UTF-8" standalone="no"?>
<!DOCTYPE svg PUBLIC "-//W3C//DTD SVG 1.1//EN"
 "http://www.w3.org/Graphics/SVG/1.1/DTD/svg11.dtd">
<!-- Generated by graphviz version 2.38.0 (20140413.2041)
 -->
<!-- Title: %3 Pages: 1 -->
<svg width="180pt" height="599pt"
 viewBox="0.00 0.00 180.00 599.00" xmlns="http://www.w3.org/2000/svg" xmlns:xlink="http://www.w3.org/1999/xlink">
<g id="graph0" class="graph" transform="scale(1 1) rotate(0) translate(4 595)">
<title>%3</title>
<polygon fill="white" stroke="none" points="-4,4 -4,-595 176,-595 176,4 -4,4"/>
<!-- 1247 -->
<g id="node1" class="node"><title>1247</title>
<polygon fill="none" stroke="black" points="172,-591 0,-591 0,-388 172,-388 172,-591"/>
<text text-anchor="middle" x="86" y="-575.8" font-family="Times,serif" font-size="14.00">0x4000c789b0</text>
<text text-anchor="middle" x="86" y="-560.8" font-family="Times,serif" font-size="14.00">_______________________</text>
<text text-anchor="middle" x="86" y="-545.8" font-family="Times,serif" font-size="14.00">_______________________</text>
<text text-anchor="middle" x="86" y="-530.8" font-family="Times,serif" font-size="14.00">pushq %r12</text>
<text text-anchor="middle" x="86" y="-515.8" font-family="Times,serif" font-size="14.00">pushq %rbp</text>
<text text-anchor="middle" x="86" y="-500.8" font-family="Times,serif" font-size="14.00">movq %rsi, %r12</text>
<text text-anchor="middle" x="86" y="-485.8" font-family="Times,serif" font-size="14.00">pushq %rbx</text>
<text text-anchor="middle" x="86" y="-470.8" font-family="Times,serif" font-size="14.00">movq %rdi, %rbx</text>
<text text-anchor="middle" x="86" y="-455.8" font-family="Times,serif" font-size="14.00">leaq 0x366c17(%rip), %rdi</text>
<text text-anchor="middle" x="86" y="-440.8" font-family="Times,serif" font-size="14.00">movq %rdx, %rbp</text>
<text text-anchor="middle" x="86" y="-425.8" font-family="Times,serif" font-size="14.00">callq 0x4000c787d0</text>
<text text-anchor="middle" x="86" y="-410.8" font-family="Times,serif" font-size="14.00">_______________________</text>
<text text-anchor="middle" x="86" y="-395.8" font-family="Times,serif" font-size="14.00">CALL 0x4000c787d0</text>
</g>
<!-- 1257 -->
<g id="node2" class="node"><title>1257</title>
<polygon fill="none" stroke="black" points="172,-352 0,-352 0,-269 172,-269 172,-352"/>
<text text-anchor="middle" x="86" y="-336.8" font-family="Times,serif" font-size="14.00">0x4000c789c9</text>
<text text-anchor="middle" x="86" y="-321.8" font-family="Times,serif" font-size="14.00">_______________________</text>
<text text-anchor="middle" x="86" y="-306.8" font-family="Times,serif" font-size="14.00">_______________________</text>
<text text-anchor="middle" x="86" y="-291.8" font-family="Times,serif" font-size="14.00">testq %rax, %rax</text>
<text text-anchor="middle" x="86" y="-276.8" font-family="Times,serif" font-size="14.00">je 0x4000c789f8</text>
</g>
<!-- 1247&#45;&gt;1257 -->
<g id="edge1" class="edge"><title>1247&#45;&gt;1257</title>
<path fill="none" stroke="black" d="M86,-387.848C86,-378.983 86,-370.283 86,-362.114"/>
<polygon fill="black" stroke="black" points="89.5001,-362.079 86,-352.079 82.5001,-362.079 89.5001,-362.079"/>
</g>
<!-- 1258 -->
<g id="node3" class="node"><title>1258</title>
<polygon fill="none" stroke="black" points="172,-233 0,-233 0,-0 172,-0 172,-233"/>
<text text-anchor="middle" x="86" y="-217.8" font-family="Times,serif" font-size="14.00">0x4000c789ce</text>
<text text-anchor="middle" x="86" y="-202.8" font-family="Times,serif" font-size="14.00">_______________________</text>
<text text-anchor="middle" x="86" y="-187.8" font-family="Times,serif" font-size="14.00">_______________________</text>
<text text-anchor="middle" x="86" y="-172.8" font-family="Times,serif" font-size="14.00">movq %rbx, %rdi</text>
<text text-anchor="middle" x="86" y="-157.8" font-family="Times,serif" font-size="14.00">movq %r12, 0x10(%rax)</text>
<text text-anchor="middle" x="86" y="-142.8" font-family="Times,serif" font-size="14.00">movq %rbp, 0x18(%rax)</text>
<text text-anchor="middle" x="86" y="-127.8" font-family="Times,serif" font-size="14.00">xorq %fs:0x30, %rdi</text>
<text text-anchor="middle" x="86" y="-112.8" font-family="Times,serif" font-size="14.00">rolq $0x11, %rdi</text>
<text text-anchor="middle" x="86" y="-97.8" font-family="Times,serif" font-size="14.00">movq %rdi, 8(%rax)</text>
<text text-anchor="middle" x="86" y="-82.8" font-family="Times,serif" font-size="14.00">movq $4, (%rax)</text>
<text text-anchor="middle" x="86" y="-67.8" font-family="Times,serif" font-size="14.00">xorl %eax, %eax</text>
<text text-anchor="middle" x="86" y="-52.8" font-family="Times,serif" font-size="14.00">popq %rbx</text>
<text text-anchor="middle" x="86" y="-37.8" font-family="Times,serif" font-size="14.00">popq %rbp</text>
<text text-anchor="middle" x="86" y="-22.8" font-family="Times,serif" font-size="14.00">popq %r12</text>
<text text-anchor="middle" x="86" y="-7.8" font-family="Times,serif" font-size="14.00">retq </text>
</g>
<!-- 1257&#45;&gt;1258 -->
<g id="edge2" class="edge"><title>1257&#45;&gt;1258</title>
<path fill="none" stroke="black" d="M86,-268.782C86,-260.944 86,-252.36 86,-243.39"/>
<polygon fill="black" stroke="black" points="89.5001,-243.117 86,-233.117 82.5001,-243.117 89.5001,-243.117"/>
</g>
</g>
</svg>
