<?xml version="1.0" encoding="UTF-8" standalone="no"?>
<!DOCTYPE svg PUBLIC "-//W3C//DTD SVG 1.1//EN"
 "http://www.w3.org/Graphics/SVG/1.1/DTD/svg11.dtd">
<!-- Generated by graphviz version 2.38.0 (20140413.2041)
 -->
<!-- Title: %3 Pages: 1 -->
<svg width="183pt" height="657pt"
 viewBox="0.00 0.00 183.00 657.00" xmlns="http://www.w3.org/2000/svg" xmlns:xlink="http://www.w3.org/1999/xlink">
<g id="graph0" class="graph" transform="scale(1 1) rotate(0) translate(4 653)">
<title>%3</title>
<polygon fill="white" stroke="none" points="-4,4 -4,-653 179,-653 179,4 -4,4"/>
<!-- 1702 -->
<g id="node1" class="node"><title>1702</title>
<polygon fill="none" stroke="black" points="173.5,-649 1.5,-649 1.5,-566 173.5,-566 173.5,-649"/>
<text text-anchor="middle" x="87.5" y="-633.8" font-family="Times,serif" font-size="14.00">0x4000000600</text>
<text text-anchor="middle" x="87.5" y="-618.8" font-family="Times,serif" font-size="14.00">_______________________</text>
<text text-anchor="middle" x="87.5" y="-603.8" font-family="Times,serif" font-size="14.00">_______________________</text>
<text text-anchor="middle" x="87.5" y="-588.8" font-family="Times,serif" font-size="14.00">cmpb $0, 0x200a29(%rip)</text>
<text text-anchor="middle" x="87.5" y="-573.8" font-family="Times,serif" font-size="14.00">jne 0x4000000638</text>
</g>
<!-- 1703 -->
<g id="node2" class="node"><title>1703</title>
<polygon fill="none" stroke="black" points="173.5,-530 1.5,-530 1.5,-417 173.5,-417 173.5,-530"/>
<text text-anchor="middle" x="87.5" y="-514.8" font-family="Times,serif" font-size="14.00">0x4000000609</text>
<text text-anchor="middle" x="87.5" y="-499.8" font-family="Times,serif" font-size="14.00">_______________________</text>
<text text-anchor="middle" x="87.5" y="-484.8" font-family="Times,serif" font-size="14.00">_______________________</text>
<text text-anchor="middle" x="87.5" y="-469.8" font-family="Times,serif" font-size="14.00">cmpq $0, 0x2009e7(%rip)</text>
<text text-anchor="middle" x="87.5" y="-454.8" font-family="Times,serif" font-size="14.00">pushq %rbp</text>
<text text-anchor="middle" x="87.5" y="-439.8" font-family="Times,serif" font-size="14.00">movq %rsp, %rbp</text>
<text text-anchor="middle" x="87.5" y="-424.8" font-family="Times,serif" font-size="14.00">je 0x4000000623</text>
</g>
<!-- 1702&#45;&gt;1703 -->
<g id="edge1" class="edge"><title>1702&#45;&gt;1703</title>
<path fill="none" stroke="black" d="M87.5,-565.819C87.5,-557.761 87.5,-549.109 87.5,-540.458"/>
<polygon fill="black" stroke="black" points="91.0001,-540.339 87.5,-530.339 84.0001,-540.339 91.0001,-540.339"/>
</g>
<!-- 1704 -->
<g id="node3" class="node"><title>1704</title>
<polygon fill="none" stroke="black" points="175,-381 0,-381 0,-268 175,-268 175,-381"/>
<text text-anchor="middle" x="87.5" y="-365.8" font-family="Times,serif" font-size="14.00">0x4000000617</text>
<text text-anchor="middle" x="87.5" y="-350.8" font-family="Times,serif" font-size="14.00">_______________________</text>
<text text-anchor="middle" x="87.5" y="-335.8" font-family="Times,serif" font-size="14.00">_______________________</text>
<text text-anchor="middle" x="87.5" y="-320.8" font-family="Times,serif" font-size="14.00">movq 0x200a0a(%rip), %rdi</text>
<text text-anchor="middle" x="87.5" y="-305.8" font-family="Times,serif" font-size="14.00">callq 0x4000000530</text>
<text text-anchor="middle" x="87.5" y="-290.8" font-family="Times,serif" font-size="14.00">_______________________</text>
<text text-anchor="middle" x="87.5" y="-275.8" font-family="Times,serif" font-size="14.00">CALL 0x4000000530</text>
</g>
<!-- 1703&#45;&gt;1704 -->
<g id="edge2" class="edge"><title>1703&#45;&gt;1704</title>
<path fill="none" stroke="black" d="M87.5,-416.926C87.5,-408.511 87.5,-399.762 87.5,-391.158"/>
<polygon fill="black" stroke="black" points="91.0001,-391.153 87.5,-381.153 84.0001,-391.153 91.0001,-391.153"/>
</g>
<!-- 1719 -->
<g id="node4" class="node"><title>1719</title>
<polygon fill="none" stroke="black" points="173.5,-232 1.5,-232 1.5,-134 173.5,-134 173.5,-232"/>
<text text-anchor="middle" x="87.5" y="-216.8" font-family="Times,serif" font-size="14.00">0x4000000623</text>
<text text-anchor="middle" x="87.5" y="-201.8" font-family="Times,serif" font-size="14.00">_______________________</text>
<text text-anchor="middle" x="87.5" y="-186.8" font-family="Times,serif" font-size="14.00">_______________________</text>
<text text-anchor="middle" x="87.5" y="-171.8" font-family="Times,serif" font-size="14.00">callq 0x4000000570</text>
<text text-anchor="middle" x="87.5" y="-156.8" font-family="Times,serif" font-size="14.00">_______________________</text>
<text text-anchor="middle" x="87.5" y="-141.8" font-family="Times,serif" font-size="14.00">CALL deregister_tm_clones</text>
</g>
<!-- 1704&#45;&gt;1719 -->
<g id="edge3" class="edge"><title>1704&#45;&gt;1719</title>
<path fill="none" stroke="black" d="M87.5,-267.965C87.5,-259.538 87.5,-250.823 87.5,-242.338"/>
<polygon fill="black" stroke="black" points="91.0001,-242.139 87.5,-232.139 84.0001,-242.139 91.0001,-242.139"/>
</g>
<!-- 1722 -->
<g id="node5" class="node"><title>1722</title>
<polygon fill="none" stroke="black" points="173.5,-98 1.5,-98 1.5,-0 173.5,-0 173.5,-98"/>
<text text-anchor="middle" x="87.5" y="-82.8" font-family="Times,serif" font-size="14.00">0x4000000628</text>
<text text-anchor="middle" x="87.5" y="-67.8" font-family="Times,serif" font-size="14.00">_______________________</text>
<text text-anchor="middle" x="87.5" y="-52.8" font-family="Times,serif" font-size="14.00">_______________________</text>
<text text-anchor="middle" x="87.5" y="-37.8" font-family="Times,serif" font-size="14.00">movb $1, 0x200a01(%rip)</text>
<text text-anchor="middle" x="87.5" y="-22.8" font-family="Times,serif" font-size="14.00">popq %rbp</text>
<text text-anchor="middle" x="87.5" y="-7.8" font-family="Times,serif" font-size="14.00">retq </text>
</g>
<!-- 1719&#45;&gt;1722 -->
<g id="edge4" class="edge"><title>1719&#45;&gt;1722</title>
<path fill="none" stroke="black" d="M87.5,-133.972C87.5,-125.691 87.5,-117.003 87.5,-108.483"/>
<polygon fill="black" stroke="black" points="91.0001,-108.214 87.5,-98.2139 84.0001,-108.214 91.0001,-108.214"/>
</g>
</g>
</svg>
