<?xml version="1.0" encoding="UTF-8" standalone="no"?>
<!DOCTYPE svg PUBLIC "-//W3C//DTD SVG 1.1//EN"
 "http://www.w3.org/Graphics/SVG/1.1/DTD/svg11.dtd">
<!-- Generated by graphviz version 2.38.0 (20140413.2041)
 -->
<!-- Title: %3 Pages: 1 -->
<svg width="184pt" height="419pt"
 viewBox="0.00 0.00 184.00 419.00" xmlns="http://www.w3.org/2000/svg" xmlns:xlink="http://www.w3.org/1999/xlink">
<g id="graph0" class="graph" transform="scale(1 1) rotate(0) translate(4 415)">
<title>%3</title>
<polygon fill="white" stroke="none" points="-4,4 -4,-415 180,-415 180,4 -4,4"/>
<!-- 807 -->
<g id="node1" class="node"><title>807</title>
<polygon fill="none" stroke="black" points="176,-411 0,-411 0,-238 176,-238 176,-411"/>
<text text-anchor="middle" x="88" y="-395.8" font-family="Times,serif" font-size="14.00">0x4000a04810</text>
<text text-anchor="middle" x="88" y="-380.8" font-family="Times,serif" font-size="14.00">_______________________</text>
<text text-anchor="middle" x="88" y="-365.8" font-family="Times,serif" font-size="14.00">_______________________</text>
<text text-anchor="middle" x="88" y="-350.8" font-family="Times,serif" font-size="14.00">pushq %rbx</text>
<text text-anchor="middle" x="88" y="-335.8" font-family="Times,serif" font-size="14.00">movq %rdi, %rbx</text>
<text text-anchor="middle" x="88" y="-320.8" font-family="Times,serif" font-size="14.00">movl 4(%rdi), %edx</text>
<text text-anchor="middle" x="88" y="-305.8" font-family="Times,serif" font-size="14.00">movq 0x221822(%rip), %rdi</text>
<text text-anchor="middle" x="88" y="-290.8" font-family="Times,serif" font-size="14.00">movl $1, %esi</text>
<text text-anchor="middle" x="88" y="-275.8" font-family="Times,serif" font-size="14.00">callq 0x4000a14010</text>
<text text-anchor="middle" x="88" y="-260.8" font-family="Times,serif" font-size="14.00">_______________________</text>
<text text-anchor="middle" x="88" y="-245.8" font-family="Times,serif" font-size="14.00">CALL 0x4000a14010</text>
</g>
<!-- 866 -->
<g id="node2" class="node"><title>866</title>
<polygon fill="none" stroke="black" points="174,-202 2,-202 2,-119 174,-119 174,-202"/>
<text text-anchor="middle" x="88" y="-186.8" font-family="Times,serif" font-size="14.00">0x4000a04828</text>
<text text-anchor="middle" x="88" y="-171.8" font-family="Times,serif" font-size="14.00">_______________________</text>
<text text-anchor="middle" x="88" y="-156.8" font-family="Times,serif" font-size="14.00">_______________________</text>
<text text-anchor="middle" x="88" y="-141.8" font-family="Times,serif" font-size="14.00">testl %eax, %eax</text>
<text text-anchor="middle" x="88" y="-126.8" font-family="Times,serif" font-size="14.00">je 0x4000a04832</text>
</g>
<!-- 807&#45;&gt;866 -->
<g id="edge1" class="edge"><title>807&#45;&gt;866</title>
<path fill="none" stroke="black" d="M88,-237.756C88,-229.005 88,-220.327 88,-212.134"/>
<polygon fill="black" stroke="black" points="91.5001,-212.046 88,-202.046 84.5001,-212.046 91.5001,-212.046"/>
</g>
<!-- 867 -->
<g id="node3" class="node"><title>867</title>
<polygon fill="none" stroke="black" points="174,-83 2,-83 2,-0 174,-0 174,-83"/>
<text text-anchor="middle" x="88" y="-67.8" font-family="Times,serif" font-size="14.00">0x4000a04832</text>
<text text-anchor="middle" x="88" y="-52.8" font-family="Times,serif" font-size="14.00">_______________________</text>
<text text-anchor="middle" x="88" y="-37.8" font-family="Times,serif" font-size="14.00">_______________________</text>
<text text-anchor="middle" x="88" y="-22.8" font-family="Times,serif" font-size="14.00">popq %rbx</text>
<text text-anchor="middle" x="88" y="-7.8" font-family="Times,serif" font-size="14.00">retq </text>
</g>
<!-- 866&#45;&gt;867 -->
<g id="edge2" class="edge"><title>866&#45;&gt;867</title>
<path fill="none" stroke="black" d="M88,-118.907C88,-110.649 88,-101.864 88,-93.3024"/>
<polygon fill="black" stroke="black" points="91.5001,-93.0208 88,-83.0208 84.5001,-93.0208 91.5001,-93.0208"/>
</g>
</g>
</svg>
