<?xml version="1.0" encoding="UTF-8" standalone="no"?>
<!DOCTYPE svg PUBLIC "-//W3C//DTD SVG 1.1//EN"
 "http://www.w3.org/Graphics/SVG/1.1/DTD/svg11.dtd">
<!-- Generated by graphviz version 2.38.0 (20140413.2041)
 -->
<!-- Title: %3 Pages: 1 -->
<svg width="205pt" height="614pt"
 viewBox="0.00 0.00 205.00 614.00" xmlns="http://www.w3.org/2000/svg" xmlns:xlink="http://www.w3.org/1999/xlink">
<g id="graph0" class="graph" transform="scale(1 1) rotate(0) translate(4 610)">
<title>%3</title>
<polygon fill="white" stroke="none" points="-4,4 -4,-610 201,-610 201,4 -4,4"/>
<!-- 0 -->
<g id="node1" class="node"><title>0</title>
<polygon fill="none" stroke="black" points="184.5,-606 12.5,-606 12.5,-493 184.5,-493 184.5,-606"/>
<text text-anchor="middle" x="98.5" y="-590.8" font-family="Times,serif" font-size="14.00">0x4000a03c20</text>
<text text-anchor="middle" x="98.5" y="-575.8" font-family="Times,serif" font-size="14.00">_______________________</text>
<text text-anchor="middle" x="98.5" y="-560.8" font-family="Times,serif" font-size="14.00">_______________________</text>
<text text-anchor="middle" x="98.5" y="-545.8" font-family="Times,serif" font-size="14.00">movq %rsp, %rdi</text>
<text text-anchor="middle" x="98.5" y="-530.8" font-family="Times,serif" font-size="14.00">callq 0x4000a04850</text>
<text text-anchor="middle" x="98.5" y="-515.8" font-family="Times,serif" font-size="14.00">_______________________</text>
<text text-anchor="middle" x="98.5" y="-500.8" font-family="Times,serif" font-size="14.00">CALL 0x4000a04850</text>
</g>
<!-- 1176 -->
<g id="node2" class="node"><title>1176</title>
<polygon fill="none" stroke="black" points="197,-457 0,-457 0,-164 197,-164 197,-457"/>
<text text-anchor="middle" x="98.5" y="-441.8" font-family="Times,serif" font-size="14.00">0x4000a03c28</text>
<text text-anchor="middle" x="98.5" y="-426.8" font-family="Times,serif" font-size="14.00">_______________________</text>
<text text-anchor="middle" x="98.5" y="-411.8" font-family="Times,serif" font-size="14.00">_______________________</text>
<text text-anchor="middle" x="98.5" y="-396.8" font-family="Times,serif" font-size="14.00">movq %rax, %r12</text>
<text text-anchor="middle" x="98.5" y="-381.8" font-family="Times,serif" font-size="14.00">movl 0x222047(%rip), %eax</text>
<text text-anchor="middle" x="98.5" y="-366.8" font-family="Times,serif" font-size="14.00">popq %rdx</text>
<text text-anchor="middle" x="98.5" y="-351.8" font-family="Times,serif" font-size="14.00">leaq (%rsp, %rax, 8), %rsp</text>
<text text-anchor="middle" x="98.5" y="-336.8" font-family="Times,serif" font-size="14.00">subl %eax, %edx</text>
<text text-anchor="middle" x="98.5" y="-321.8" font-family="Times,serif" font-size="14.00">pushq %rdx</text>
<text text-anchor="middle" x="98.5" y="-306.8" font-family="Times,serif" font-size="14.00">movq %rdx, %rsi</text>
<text text-anchor="middle" x="98.5" y="-291.8" font-family="Times,serif" font-size="14.00">movq %rsp, %r13</text>
<text text-anchor="middle" x="98.5" y="-276.8" font-family="Times,serif" font-size="14.00">andq $0xfffffff0, %rsp</text>
<text text-anchor="middle" x="98.5" y="-261.8" font-family="Times,serif" font-size="14.00">movq 0x2223f6(%rip), %rdi</text>
<text text-anchor="middle" x="98.5" y="-246.8" font-family="Times,serif" font-size="14.00">leaq 0x10(%r13, %rdx, 8), %rcx</text>
<text text-anchor="middle" x="98.5" y="-231.8" font-family="Times,serif" font-size="14.00">leaq 8(%r13), %rdx</text>
<text text-anchor="middle" x="98.5" y="-216.8" font-family="Times,serif" font-size="14.00">xorl %ebp, %ebp</text>
<text text-anchor="middle" x="98.5" y="-201.8" font-family="Times,serif" font-size="14.00">callq 0x4000a12660</text>
<text text-anchor="middle" x="98.5" y="-186.8" font-family="Times,serif" font-size="14.00">_______________________</text>
<text text-anchor="middle" x="98.5" y="-171.8" font-family="Times,serif" font-size="14.00">CALL 0x4000a12660</text>
</g>
<!-- 0&#45;&gt;1176 -->
<g id="edge1" class="edge"><title>0&#45;&gt;1176</title>
<path fill="none" stroke="black" d="M98.5,-492.934C98.5,-484.882 98.5,-476.284 98.5,-467.372"/>
<polygon fill="black" stroke="black" points="102,-467.189 98.5,-457.189 95.0001,-467.189 102,-467.189"/>
</g>
<!-- 1241 -->
<g id="node3" class="node"><title>1241</title>
<polygon fill="none" stroke="black" points="184.5,-128 12.5,-128 12.5,-0 184.5,-0 184.5,-128"/>
<text text-anchor="middle" x="98.5" y="-112.8" font-family="Times,serif" font-size="14.00">0x4000a03c5a</text>
<text text-anchor="middle" x="98.5" y="-97.8" font-family="Times,serif" font-size="14.00">_______________________</text>
<text text-anchor="middle" x="98.5" y="-82.8" font-family="Times,serif" font-size="14.00">_______________________</text>
<text text-anchor="middle" x="98.5" y="-67.8" font-family="Times,serif" font-size="14.00">leaq 0xed7f(%rip), %rdx</text>
<text text-anchor="middle" x="98.5" y="-52.8" font-family="Times,serif" font-size="14.00">movq %r13, %rsp</text>
<text text-anchor="middle" x="98.5" y="-37.8" font-family="Times,serif" font-size="14.00">jmpq *%r12</text>
<text text-anchor="middle" x="98.5" y="-22.8" font-family="Times,serif" font-size="14.00">_______________________</text>
<text text-anchor="middle" x="98.5" y="-7.8" font-family="Times,serif" font-size="14.00">CALL _start</text>
</g>
<!-- 1176&#45;&gt;1241 -->
<g id="edge2" class="edge"><title>1176&#45;&gt;1241</title>
<path fill="none" stroke="black" d="M98.5,-163.743C98.5,-155.042 98.5,-146.506 98.5,-138.321"/>
<polygon fill="black" stroke="black" points="102,-138.155 98.5,-128.155 95.0001,-138.155 102,-138.155"/>
</g>
</g>
</svg>
