<?xml version="1.0" encoding="UTF-8" standalone="no"?>
<!DOCTYPE svg PUBLIC "-//W3C//DTD SVG 1.1//EN"
 "http://www.w3.org/Graphics/SVG/1.1/DTD/svg11.dtd">
<!-- Generated by graphviz version 2.38.0 (20140413.2041)
 -->
<!-- Title: %3 Pages: 1 -->
<svg width="402pt" height="3761pt"
 viewBox="0.00 0.00 402.00 3761.00" xmlns="http://www.w3.org/2000/svg" xmlns:xlink="http://www.w3.org/1999/xlink">
<g id="graph0" class="graph" transform="scale(1 1) rotate(0) translate(4 3757)">
<title>%3</title>
<polygon fill="white" stroke="none" points="-4,4 -4,-3757 398,-3757 398,4 -4,4"/>
<!-- 1417 -->
<g id="node1" class="node"><title>1417</title>
<polygon fill="none" stroke="black" points="186.5,-3753 14.5,-3753 14.5,-3565 186.5,-3565 186.5,-3753"/>
<text text-anchor="middle" x="100.5" y="-3737.8" font-family="Times,serif" font-size="14.00">0x4000cbc670</text>
<text text-anchor="middle" x="100.5" y="-3722.8" font-family="Times,serif" font-size="14.00">_______________________</text>
<text text-anchor="middle" x="100.5" y="-3707.8" font-family="Times,serif" font-size="14.00">_______________________</text>
<text text-anchor="middle" x="100.5" y="-3692.8" font-family="Times,serif" font-size="14.00">pushq %r15</text>
<text text-anchor="middle" x="100.5" y="-3677.8" font-family="Times,serif" font-size="14.00">pushq %r14</text>
<text text-anchor="middle" x="100.5" y="-3662.8" font-family="Times,serif" font-size="14.00">pushq %r13</text>
<text text-anchor="middle" x="100.5" y="-3647.8" font-family="Times,serif" font-size="14.00">pushq %r12</text>
<text text-anchor="middle" x="100.5" y="-3632.8" font-family="Times,serif" font-size="14.00">pushq %rbp</text>
<text text-anchor="middle" x="100.5" y="-3617.8" font-family="Times,serif" font-size="14.00">pushq %rbx</text>
<text text-anchor="middle" x="100.5" y="-3602.8" font-family="Times,serif" font-size="14.00">subq $0x68, %rsp</text>
<text text-anchor="middle" x="100.5" y="-3587.8" font-family="Times,serif" font-size="14.00">cmpq $0xbf, %rsi</text>
<text text-anchor="middle" x="100.5" y="-3572.8" font-family="Times,serif" font-size="14.00">ja 0x4000cbce0c</text>
</g>
<!-- 1418 -->
<g id="node2" class="node"><title>1418</title>
<polygon fill="none" stroke="black" points="186.5,-3529 14.5,-3529 14.5,-3281 186.5,-3281 186.5,-3529"/>
<text text-anchor="middle" x="100.5" y="-3513.8" font-family="Times,serif" font-size="14.00">0x4000cbc688</text>
<text text-anchor="middle" x="100.5" y="-3498.8" font-family="Times,serif" font-size="14.00">_______________________</text>
<text text-anchor="middle" x="100.5" y="-3483.8" font-family="Times,serif" font-size="14.00">_______________________</text>
<text text-anchor="middle" x="100.5" y="-3468.8" font-family="Times,serif" font-size="14.00">movq %rsi, %rax</text>
<text text-anchor="middle" x="100.5" y="-3453.8" font-family="Times,serif" font-size="14.00">movq %rsi, 0x10(%rsp)</text>
<text text-anchor="middle" x="100.5" y="-3438.8" font-family="Times,serif" font-size="14.00">movq %rdi, %r15</text>
<text text-anchor="middle" x="100.5" y="-3423.8" font-family="Times,serif" font-size="14.00">addq $0x17, %rax</text>
<text text-anchor="middle" x="100.5" y="-3408.8" font-family="Times,serif" font-size="14.00">movq %rax, %r9</text>
<text text-anchor="middle" x="100.5" y="-3393.8" font-family="Times,serif" font-size="14.00">andq $0xfffffff0, %r9</text>
<text text-anchor="middle" x="100.5" y="-3378.8" font-family="Times,serif" font-size="14.00">cmpq $0x20, %rax</text>
<text text-anchor="middle" x="100.5" y="-3363.8" font-family="Times,serif" font-size="14.00">movl $0x20, %eax</text>
<text text-anchor="middle" x="100.5" y="-3348.8" font-family="Times,serif" font-size="14.00">cmovaeq %r9, %rax</text>
<text text-anchor="middle" x="100.5" y="-3333.8" font-family="Times,serif" font-size="14.00">xorl %esi, %esi</text>
<text text-anchor="middle" x="100.5" y="-3318.8" font-family="Times,serif" font-size="14.00">testq %rdi, %rdi</text>
<text text-anchor="middle" x="100.5" y="-3303.8" font-family="Times,serif" font-size="14.00">movq %rax, %r12</text>
<text text-anchor="middle" x="100.5" y="-3288.8" font-family="Times,serif" font-size="14.00">je 0x4000cbce25</text>
</g>
<!-- 1417&#45;&gt;1418 -->
<g id="edge1" class="edge"><title>1417&#45;&gt;1418</title>
<path fill="none" stroke="black" d="M100.5,-3564.88C100.5,-3556.52 100.5,-3547.94 100.5,-3539.33"/>
<polygon fill="black" stroke="black" points="104,-3539.2 100.5,-3529.2 97.0001,-3539.2 104,-3539.2"/>
</g>
<!-- 1419 -->
<g id="node3" class="node"><title>1419</title>
<polygon fill="none" stroke="black" points="189.5,-3245 11.5,-3245 11.5,-3162 189.5,-3162 189.5,-3245"/>
<text text-anchor="middle" x="100.5" y="-3229.8" font-family="Times,serif" font-size="14.00">0x4000cbc6b9</text>
<text text-anchor="middle" x="100.5" y="-3214.8" font-family="Times,serif" font-size="14.00">_______________________</text>
<text text-anchor="middle" x="100.5" y="-3199.8" font-family="Times,serif" font-size="14.00">_______________________</text>
<text text-anchor="middle" x="100.5" y="-3184.8" font-family="Times,serif" font-size="14.00">cmpq 0x325110(%rip), %rax</text>
<text text-anchor="middle" x="100.5" y="-3169.8" font-family="Times,serif" font-size="14.00">ja 0x4000cbc72b</text>
</g>
<!-- 1418&#45;&gt;1419 -->
<g id="edge2" class="edge"><title>1418&#45;&gt;1419</title>
<path fill="none" stroke="black" d="M100.5,-3280.78C100.5,-3271.99 100.5,-3263.47 100.5,-3255.49"/>
<polygon fill="black" stroke="black" points="104,-3255.35 100.5,-3245.35 97.0001,-3255.35 104,-3255.35"/>
</g>
<!-- 1420 -->
<g id="node4" class="node"><title>1420</title>
<polygon fill="none" stroke="black" points="186.5,-3126 14.5,-3126 14.5,-3043 186.5,-3043 186.5,-3126"/>
<text text-anchor="middle" x="100.5" y="-3110.8" font-family="Times,serif" font-size="14.00">0x4000cbc72b</text>
<text text-anchor="middle" x="100.5" y="-3095.8" font-family="Times,serif" font-size="14.00">_______________________</text>
<text text-anchor="middle" x="100.5" y="-3080.8" font-family="Times,serif" font-size="14.00">_______________________</text>
<text text-anchor="middle" x="100.5" y="-3065.8" font-family="Times,serif" font-size="14.00">cmpq $0x3ff, %r12</text>
<text text-anchor="middle" x="100.5" y="-3050.8" font-family="Times,serif" font-size="14.00">ja 0x4000cbc792</text>
</g>
<!-- 1419&#45;&gt;1420 -->
<g id="edge3" class="edge"><title>1419&#45;&gt;1420</title>
<path fill="none" stroke="black" d="M100.5,-3161.91C100.5,-3153.65 100.5,-3144.86 100.5,-3136.3"/>
<polygon fill="black" stroke="black" points="104,-3136.02 100.5,-3126.02 97.0001,-3136.02 104,-3136.02"/>
</g>
<!-- 1421 -->
<g id="node5" class="node"><title>1421</title>
<polygon fill="none" stroke="black" points="186.5,-3007 14.5,-3007 14.5,-2894 186.5,-2894 186.5,-3007"/>
<text text-anchor="middle" x="100.5" y="-2991.8" font-family="Times,serif" font-size="14.00">0x4000cbc792</text>
<text text-anchor="middle" x="100.5" y="-2976.8" font-family="Times,serif" font-size="14.00">_______________________</text>
<text text-anchor="middle" x="100.5" y="-2961.8" font-family="Times,serif" font-size="14.00">_______________________</text>
<text text-anchor="middle" x="100.5" y="-2946.8" font-family="Times,serif" font-size="14.00">movq %r12, %rbp</text>
<text text-anchor="middle" x="100.5" y="-2931.8" font-family="Times,serif" font-size="14.00">shrq $6, %rbp</text>
<text text-anchor="middle" x="100.5" y="-2916.8" font-family="Times,serif" font-size="14.00">cmpq $0x30, %rbp</text>
<text text-anchor="middle" x="100.5" y="-2901.8" font-family="Times,serif" font-size="14.00">jbe 0x4000cbce00</text>
</g>
<!-- 1420&#45;&gt;1421 -->
<g id="edge4" class="edge"><title>1420&#45;&gt;1421</title>
<path fill="none" stroke="black" d="M100.5,-3042.82C100.5,-3034.76 100.5,-3026.11 100.5,-3017.46"/>
<polygon fill="black" stroke="black" points="104,-3017.34 100.5,-3007.34 97.0001,-3017.34 104,-3017.34"/>
</g>
<!-- 1422 -->
<g id="node6" class="node"><title>1422</title>
<polygon fill="none" stroke="black" points="186.5,-2858 14.5,-2858 14.5,-2760 186.5,-2760 186.5,-2858"/>
<text text-anchor="middle" x="100.5" y="-2842.8" font-family="Times,serif" font-size="14.00">0x4000cbce00</text>
<text text-anchor="middle" x="100.5" y="-2827.8" font-family="Times,serif" font-size="14.00">_______________________</text>
<text text-anchor="middle" x="100.5" y="-2812.8" font-family="Times,serif" font-size="14.00">_______________________</text>
<text text-anchor="middle" x="100.5" y="-2797.8" font-family="Times,serif" font-size="14.00">leal 0x30(%rbp), %eax</text>
<text text-anchor="middle" x="100.5" y="-2782.8" font-family="Times,serif" font-size="14.00">movl %eax, 8(%rsp)</text>
<text text-anchor="middle" x="100.5" y="-2767.8" font-family="Times,serif" font-size="14.00">jmp 0x4000cbc7bb</text>
</g>
<!-- 1421&#45;&gt;1422 -->
<g id="edge5" class="edge"><title>1421&#45;&gt;1422</title>
<path fill="none" stroke="black" d="M100.5,-2893.97C100.5,-2885.54 100.5,-2876.82 100.5,-2868.34"/>
<polygon fill="black" stroke="black" points="104,-2868.14 100.5,-2858.14 97.0001,-2868.14 104,-2868.14"/>
</g>
<!-- 1423 -->
<g id="node7" class="node"><title>1423</title>
<polygon fill="none" stroke="black" points="186.5,-2724 14.5,-2724 14.5,-2641 186.5,-2641 186.5,-2724"/>
<text text-anchor="middle" x="100.5" y="-2708.8" font-family="Times,serif" font-size="14.00">0x4000cbc7bb</text>
<text text-anchor="middle" x="100.5" y="-2693.8" font-family="Times,serif" font-size="14.00">_______________________</text>
<text text-anchor="middle" x="100.5" y="-2678.8" font-family="Times,serif" font-size="14.00">_______________________</text>
<text text-anchor="middle" x="100.5" y="-2663.8" font-family="Times,serif" font-size="14.00">testb $1, 4(%r15)</text>
<text text-anchor="middle" x="100.5" y="-2648.8" font-family="Times,serif" font-size="14.00">jne 0x4000cbc7ca</text>
</g>
<!-- 1422&#45;&gt;1423 -->
<g id="edge6" class="edge"><title>1422&#45;&gt;1423</title>
<path fill="none" stroke="black" d="M100.5,-2759.87C100.5,-2751.5 100.5,-2742.77 100.5,-2734.33"/>
<polygon fill="black" stroke="black" points="104,-2734.23 100.5,-2724.23 97.0001,-2734.23 104,-2734.23"/>
</g>
<!-- 1424 -->
<g id="node8" class="node"><title>1424</title>
<polygon fill="none" stroke="black" points="186.5,-2605 14.5,-2605 14.5,-2492 186.5,-2492 186.5,-2605"/>
<text text-anchor="middle" x="100.5" y="-2589.8" font-family="Times,serif" font-size="14.00">0x4000cbc7c2</text>
<text text-anchor="middle" x="100.5" y="-2574.8" font-family="Times,serif" font-size="14.00">_______________________</text>
<text text-anchor="middle" x="100.5" y="-2559.8" font-family="Times,serif" font-size="14.00">_______________________</text>
<text text-anchor="middle" x="100.5" y="-2544.8" font-family="Times,serif" font-size="14.00">movq %r15, %rdi</text>
<text text-anchor="middle" x="100.5" y="-2529.8" font-family="Times,serif" font-size="14.00">callq 0x4000cbab00</text>
<text text-anchor="middle" x="100.5" y="-2514.8" font-family="Times,serif" font-size="14.00">_______________________</text>
<text text-anchor="middle" x="100.5" y="-2499.8" font-family="Times,serif" font-size="14.00">CALL 0x4000cbab00</text>
</g>
<!-- 1423&#45;&gt;1424 -->
<g id="edge7" class="edge"><title>1423&#45;&gt;1424</title>
<path fill="none" stroke="black" d="M100.5,-2640.82C100.5,-2632.76 100.5,-2624.11 100.5,-2615.46"/>
<polygon fill="black" stroke="black" points="104,-2615.34 100.5,-2605.34 97.0001,-2615.34 104,-2615.34"/>
</g>
<!-- 1431 -->
<g id="node9" class="node"><title>1431</title>
<polygon fill="none" stroke="black" points="186.5,-2456 14.5,-2456 14.5,-1953 186.5,-1953 186.5,-2456"/>
<text text-anchor="middle" x="100.5" y="-2440.8" font-family="Times,serif" font-size="14.00">0x4000cbc7ca</text>
<text text-anchor="middle" x="100.5" y="-2425.8" font-family="Times,serif" font-size="14.00">_______________________</text>
<text text-anchor="middle" x="100.5" y="-2410.8" font-family="Times,serif" font-size="14.00">_______________________</text>
<text text-anchor="middle" x="100.5" y="-2395.8" font-family="Times,serif" font-size="14.00">movq %r12, %rax</text>
<text text-anchor="middle" x="100.5" y="-2380.8" font-family="Times,serif" font-size="14.00">movq %r12, %rbx</text>
<text text-anchor="middle" x="100.5" y="-2365.8" font-family="Times,serif" font-size="14.00">movq %r12, %rcx</text>
<text text-anchor="middle" x="100.5" y="-2350.8" font-family="Times,serif" font-size="14.00">shrq $6, %rax</text>
<text text-anchor="middle" x="100.5" y="-2335.8" font-family="Times,serif" font-size="14.00">movq %r12, %rdi</text>
<text text-anchor="middle" x="100.5" y="-2320.8" font-family="Times,serif" font-size="14.00">movq %r12, %rsi</text>
<text text-anchor="middle" x="100.5" y="-2305.8" font-family="Times,serif" font-size="14.00">movq %rax, 0x20(%rsp)</text>
<text text-anchor="middle" x="100.5" y="-2290.8" font-family="Times,serif" font-size="14.00">addl $0x30, %eax</text>
<text text-anchor="middle" x="100.5" y="-2275.8" font-family="Times,serif" font-size="14.00">shrq $9, %rbx</text>
<text text-anchor="middle" x="100.5" y="-2260.8" font-family="Times,serif" font-size="14.00">movl %eax, 0x2c(%rsp)</text>
<text text-anchor="middle" x="100.5" y="-2245.8" font-family="Times,serif" font-size="14.00">movl %r12d, %eax</text>
<text text-anchor="middle" x="100.5" y="-2230.8" font-family="Times,serif" font-size="14.00">shrq $0xc, %rcx</text>
<text text-anchor="middle" x="100.5" y="-2215.8" font-family="Times,serif" font-size="14.00">shrl $4, %eax</text>
<text text-anchor="middle" x="100.5" y="-2200.8" font-family="Times,serif" font-size="14.00">shrq $0xf, %rdi</text>
<text text-anchor="middle" x="100.5" y="-2185.8" font-family="Times,serif" font-size="14.00">shrq $0x12, %rsi</text>
<text text-anchor="middle" x="100.5" y="-2170.8" font-family="Times,serif" font-size="14.00">movl %eax, 0x28(%rsp)</text>
<text text-anchor="middle" x="100.5" y="-2155.8" font-family="Times,serif" font-size="14.00">leaq 0x20(%r12), %rax</text>
<text text-anchor="middle" x="100.5" y="-2140.8" font-family="Times,serif" font-size="14.00">movq %rbx, 0x30(%rsp)</text>
<text text-anchor="middle" x="100.5" y="-2125.8" font-family="Times,serif" font-size="14.00">movq %rcx, 0x38(%rsp)</text>
<text text-anchor="middle" x="100.5" y="-2110.8" font-family="Times,serif" font-size="14.00">movq %rdi, 0x48(%rsp)</text>
<text text-anchor="middle" x="100.5" y="-2095.8" font-family="Times,serif" font-size="14.00">addl $0x6e, %ecx</text>
<text text-anchor="middle" x="100.5" y="-2080.8" font-family="Times,serif" font-size="14.00">movq %rsi, 0x50(%rsp)</text>
<text text-anchor="middle" x="100.5" y="-2065.8" font-family="Times,serif" font-size="14.00">addl $0x77, %edi</text>
<text text-anchor="middle" x="100.5" y="-2050.8" font-family="Times,serif" font-size="14.00">addl $0x7c, %esi</text>
<text text-anchor="middle" x="100.5" y="-2035.8" font-family="Times,serif" font-size="14.00">addl $0x5b, %ebx</text>
<text text-anchor="middle" x="100.5" y="-2020.8" font-family="Times,serif" font-size="14.00">leaq 0x58(%r15), %r13</text>
<text text-anchor="middle" x="100.5" y="-2005.8" font-family="Times,serif" font-size="14.00">movl %esi, 0x5c(%rsp)</text>
<text text-anchor="middle" x="100.5" y="-1990.8" font-family="Times,serif" font-size="14.00">movl %edi, 0x58(%rsp)</text>
<text text-anchor="middle" x="100.5" y="-1975.8" font-family="Times,serif" font-size="14.00">movl %ecx, 0x44(%rsp)</text>
<text text-anchor="middle" x="100.5" y="-1960.8" font-family="Times,serif" font-size="14.00">movl %ebx, 0x40(%rsp)</text>
</g>
<!-- 1424&#45;&gt;1431 -->
<g id="edge8" class="edge"><title>1424&#45;&gt;1431</title>
<path fill="none" stroke="black" d="M100.5,-2491.79C100.5,-2483.8 100.5,-2475.18 100.5,-2466.08"/>
<polygon fill="black" stroke="black" points="104,-2466.04 100.5,-2456.04 97.0001,-2466.04 104,-2466.04"/>
</g>
<!-- 1432 -->
<g id="node10" class="node"><title>1432</title>
<polygon fill="none" stroke="black" points="186.5,-1917 14.5,-1917 14.5,-1819 186.5,-1819 186.5,-1917"/>
<text text-anchor="middle" x="100.5" y="-1901.8" font-family="Times,serif" font-size="14.00">0x4000cbc83c</text>
<text text-anchor="middle" x="100.5" y="-1886.8" font-family="Times,serif" font-size="14.00">_______________________</text>
<text text-anchor="middle" x="100.5" y="-1871.8" font-family="Times,serif" font-size="14.00">_______________________</text>
<text text-anchor="middle" x="100.5" y="-1856.8" font-family="Times,serif" font-size="14.00">movq %rax, 0x18(%rsp)</text>
<text text-anchor="middle" x="100.5" y="-1841.8" font-family="Times,serif" font-size="14.00">movl $0x2710, %ebp</text>
<text text-anchor="middle" x="100.5" y="-1826.8" font-family="Times,serif" font-size="14.00">jmp 0x4000cbc896</text>
</g>
<!-- 1431&#45;&gt;1432 -->
<g id="edge9" class="edge"><title>1431&#45;&gt;1432</title>
<path fill="none" stroke="black" d="M100.5,-1952.98C100.5,-1943.95 100.5,-1935.35 100.5,-1927.35"/>
<polygon fill="black" stroke="black" points="104,-1927.18 100.5,-1917.18 97.0001,-1927.18 104,-1927.18"/>
</g>
<!-- 1433 -->
<g id="node11" class="node"><title>1433</title>
<polygon fill="none" stroke="black" points="186.5,-1783 14.5,-1783 14.5,-1685 186.5,-1685 186.5,-1783"/>
<text text-anchor="middle" x="100.5" y="-1767.8" font-family="Times,serif" font-size="14.00">0x4000cbc896</text>
<text text-anchor="middle" x="100.5" y="-1752.8" font-family="Times,serif" font-size="14.00">_______________________</text>
<text text-anchor="middle" x="100.5" y="-1737.8" font-family="Times,serif" font-size="14.00">_______________________</text>
<text text-anchor="middle" x="100.5" y="-1722.8" font-family="Times,serif" font-size="14.00">movq 0x70(%r15), %r14</text>
<text text-anchor="middle" x="100.5" y="-1707.8" font-family="Times,serif" font-size="14.00">cmpq %r13, %r14</text>
<text text-anchor="middle" x="100.5" y="-1692.8" font-family="Times,serif" font-size="14.00">je 0x4000cbcba3</text>
</g>
<!-- 1432&#45;&gt;1433 -->
<g id="edge10" class="edge"><title>1432&#45;&gt;1433</title>
<path fill="none" stroke="black" d="M100.5,-1818.97C100.5,-1810.69 100.5,-1802 100.5,-1793.48"/>
<polygon fill="black" stroke="black" points="104,-1793.21 100.5,-1783.21 97.0001,-1793.21 104,-1793.21"/>
</g>
<!-- 1434 -->
<g id="node12" class="node"><title>1434</title>
<polygon fill="none" stroke="black" points="186.5,-1649 14.5,-1649 14.5,-1566 186.5,-1566 186.5,-1649"/>
<text text-anchor="middle" x="100.5" y="-1633.8" font-family="Times,serif" font-size="14.00">0x4000cbcba3</text>
<text text-anchor="middle" x="100.5" y="-1618.8" font-family="Times,serif" font-size="14.00">_______________________</text>
<text text-anchor="middle" x="100.5" y="-1603.8" font-family="Times,serif" font-size="14.00">_______________________</text>
<text text-anchor="middle" x="100.5" y="-1588.8" font-family="Times,serif" font-size="14.00">cmpq $0x3ff, %r12</text>
<text text-anchor="middle" x="100.5" y="-1573.8" font-family="Times,serif" font-size="14.00">ja 0x4000cbcd26</text>
</g>
<!-- 1433&#45;&gt;1434 -->
<g id="edge11" class="edge"><title>1433&#45;&gt;1434</title>
<path fill="none" stroke="black" d="M100.5,-1684.87C100.5,-1676.5 100.5,-1667.77 100.5,-1659.33"/>
<polygon fill="black" stroke="black" points="104,-1659.23 100.5,-1649.23 97.0001,-1659.23 104,-1659.23"/>
</g>
<!-- 1435 -->
<g id="node13" class="node"><title>1435</title>
<polygon fill="none" stroke="black" points="199,-1530 2,-1530 2,-1357 199,-1357 199,-1530"/>
<text text-anchor="middle" x="100.5" y="-1514.8" font-family="Times,serif" font-size="14.00">0x4000cbcd26</text>
<text text-anchor="middle" x="100.5" y="-1499.8" font-family="Times,serif" font-size="14.00">_______________________</text>
<text text-anchor="middle" x="100.5" y="-1484.8" font-family="Times,serif" font-size="14.00">_______________________</text>
<text text-anchor="middle" x="100.5" y="-1469.8" font-family="Times,serif" font-size="14.00">movl 8(%rsp), %eax</text>
<text text-anchor="middle" x="100.5" y="-1454.8" font-family="Times,serif" font-size="14.00">addl $0x7fffffff, %eax</text>
<text text-anchor="middle" x="100.5" y="-1439.8" font-family="Times,serif" font-size="14.00">addl %eax, %eax</text>
<text text-anchor="middle" x="100.5" y="-1424.8" font-family="Times,serif" font-size="14.00">leaq 0x68(%r15, %rax, 8), %rdx</text>
<text text-anchor="middle" x="100.5" y="-1409.8" font-family="Times,serif" font-size="14.00">movq (%rdx), %rax</text>
<text text-anchor="middle" x="100.5" y="-1394.8" font-family="Times,serif" font-size="14.00">leaq &#45;0x10(%rdx), %rcx</text>
<text text-anchor="middle" x="100.5" y="-1379.8" font-family="Times,serif" font-size="14.00">cmpq %rcx, %rax</text>
<text text-anchor="middle" x="100.5" y="-1364.8" font-family="Times,serif" font-size="14.00">je 0x4000cbcbb0</text>
</g>
<!-- 1434&#45;&gt;1435 -->
<g id="edge12" class="edge"><title>1434&#45;&gt;1435</title>
<path fill="none" stroke="black" d="M100.5,-1565.62C100.5,-1557.72 100.5,-1549.14 100.5,-1540.32"/>
<polygon fill="black" stroke="black" points="104,-1540.27 100.5,-1530.27 97.0001,-1540.27 104,-1540.27"/>
</g>
<!-- 1436 -->
<g id="node14" class="node"><title>1436</title>
<polygon fill="none" stroke="black" points="201,-1321 0,-1321 0,-1088 201,-1088 201,-1321"/>
<text text-anchor="middle" x="100.5" y="-1305.8" font-family="Times,serif" font-size="14.00">0x4000cbcbb0</text>
<text text-anchor="middle" x="100.5" y="-1290.8" font-family="Times,serif" font-size="14.00">_______________________</text>
<text text-anchor="middle" x="100.5" y="-1275.8" font-family="Times,serif" font-size="14.00">_______________________</text>
<text text-anchor="middle" x="100.5" y="-1260.8" font-family="Times,serif" font-size="14.00">movl 8(%rsp), %eax</text>
<text text-anchor="middle" x="100.5" y="-1245.8" font-family="Times,serif" font-size="14.00">leal 1(%rax), %ecx</text>
<text text-anchor="middle" x="100.5" y="-1230.8" font-family="Times,serif" font-size="14.00">addl %eax, %eax</text>
<text text-anchor="middle" x="100.5" y="-1215.8" font-family="Times,serif" font-size="14.00">leaq 0x58(%r15, %rax, 8), %rdx</text>
<text text-anchor="middle" x="100.5" y="-1200.8" font-family="Times,serif" font-size="14.00">movl $1, %eax</text>
<text text-anchor="middle" x="100.5" y="-1185.8" font-family="Times,serif" font-size="14.00">movl %ecx, %edi</text>
<text text-anchor="middle" x="100.5" y="-1170.8" font-family="Times,serif" font-size="14.00">shll %cl, %eax</text>
<text text-anchor="middle" x="100.5" y="-1155.8" font-family="Times,serif" font-size="14.00">shrl $5, %edi</text>
<text text-anchor="middle" x="100.5" y="-1140.8" font-family="Times,serif" font-size="14.00">movl %edi, %r8d</text>
<text text-anchor="middle" x="100.5" y="-1125.8" font-family="Times,serif" font-size="14.00">movl 0x858(%r15, %r8, 4), %esi</text>
<text text-anchor="middle" x="100.5" y="-1110.8" font-family="Times,serif" font-size="14.00">cmpl %esi, %eax</text>
<text text-anchor="middle" x="100.5" y="-1095.8" font-family="Times,serif" font-size="14.00">ja 0x4000cbcc2b</text>
</g>
<!-- 1435&#45;&gt;1436 -->
<g id="edge13" class="edge"><title>1435&#45;&gt;1436</title>
<path fill="none" stroke="black" d="M100.5,-1356.94C100.5,-1348.55 100.5,-1339.93 100.5,-1331.25"/>
<polygon fill="black" stroke="black" points="104,-1331.05 100.5,-1321.05 97.0001,-1331.05 104,-1331.05"/>
</g>
<!-- 1437 -->
<g id="node15" class="node"><title>1437</title>
<polygon fill="none" stroke="black" points="186.5,-1052 14.5,-1052 14.5,-954 186.5,-954 186.5,-1052"/>
<text text-anchor="middle" x="100.5" y="-1036.8" font-family="Times,serif" font-size="14.00">0x4000cbcc2b</text>
<text text-anchor="middle" x="100.5" y="-1021.8" font-family="Times,serif" font-size="14.00">_______________________</text>
<text text-anchor="middle" x="100.5" y="-1006.8" font-family="Times,serif" font-size="14.00">_______________________</text>
<text text-anchor="middle" x="100.5" y="-991.8" font-family="Times,serif" font-size="14.00">addl $1, %edi</text>
<text text-anchor="middle" x="100.5" y="-976.8" font-family="Times,serif" font-size="14.00">cmpl $4, %edi</text>
<text text-anchor="middle" x="100.5" y="-961.8" font-family="Times,serif" font-size="14.00">jne 0x4000cbcc18</text>
</g>
<!-- 1436&#45;&gt;1437 -->
<g id="edge14" class="edge"><title>1436&#45;&gt;1437</title>
<path fill="none" stroke="black" d="M100.5,-1087.74C100.5,-1079.13 100.5,-1070.69 100.5,-1062.68"/>
<polygon fill="black" stroke="black" points="104,-1062.41 100.5,-1052.41 97.0001,-1062.41 104,-1062.41"/>
</g>
<!-- 1438 -->
<g id="node16" class="node"><title>1438</title>
<polygon fill="none" stroke="black" points="201,-918 0,-918 0,-775 201,-775 201,-918"/>
<text text-anchor="middle" x="100.5" y="-902.8" font-family="Times,serif" font-size="14.00">0x4000cbcc18</text>
<text text-anchor="middle" x="100.5" y="-887.8" font-family="Times,serif" font-size="14.00">_______________________</text>
<text text-anchor="middle" x="100.5" y="-872.8" font-family="Times,serif" font-size="14.00">_______________________</text>
<text text-anchor="middle" x="100.5" y="-857.8" font-family="Times,serif" font-size="14.00">movl %edi, %r8d</text>
<text text-anchor="middle" x="100.5" y="-842.8" font-family="Times,serif" font-size="14.00">movl 0x858(%r15, %r8, 4), %esi</text>
<text text-anchor="middle" x="100.5" y="-827.8" font-family="Times,serif" font-size="14.00">testl %esi, %esi</text>
<text text-anchor="middle" x="100.5" y="-812.8" font-family="Times,serif" font-size="14.00">jne 0x4000cbcce0</text>
<text text-anchor="middle" x="100.5" y="-797.8" font-family="Times,serif" font-size="14.00">_______________________</text>
<text text-anchor="middle" x="100.5" y="-782.8" font-family="Times,serif" font-size="14.00">LOOP 0x4000cbcc2b</text>
</g>
<!-- 1437&#45;&gt;1438 -->
<g id="edge15" class="edge"><title>1437&#45;&gt;1438</title>
<path fill="none" stroke="black" d="M94.1987,-953.962C93.9364,-945.813 93.7892,-937.154 93.7568,-928.434"/>
<polygon fill="black" stroke="black" points="97.2571,-928.199 93.7717,-918.194 90.2571,-928.189 97.2571,-928.199"/>
</g>
<!-- 1439 -->
<g id="node17" class="node"><title>1439</title>
<polygon fill="none" stroke="black" points="391.5,-910.5 219.5,-910.5 219.5,-782.5 391.5,-782.5 391.5,-910.5"/>
<text text-anchor="middle" x="305.5" y="-895.3" font-family="Times,serif" font-size="14.00">0x4000cbcc33</text>
<text text-anchor="middle" x="305.5" y="-880.3" font-family="Times,serif" font-size="14.00">_______________________</text>
<text text-anchor="middle" x="305.5" y="-865.3" font-family="Times,serif" font-size="14.00">_______________________</text>
<text text-anchor="middle" x="305.5" y="-850.3" font-family="Times,serif" font-size="14.00">movq 0x58(%r15), %r14</text>
<text text-anchor="middle" x="305.5" y="-835.3" font-family="Times,serif" font-size="14.00">movq 8(%r14), %rax</text>
<text text-anchor="middle" x="305.5" y="-820.3" font-family="Times,serif" font-size="14.00">andq $0xfffffff8, %rax</text>
<text text-anchor="middle" x="305.5" y="-805.3" font-family="Times,serif" font-size="14.00">cmpq 0x18(%rsp), %rax</text>
<text text-anchor="middle" x="305.5" y="-790.3" font-family="Times,serif" font-size="14.00">jae 0x4000cbd021</text>
</g>
<!-- 1437&#45;&gt;1439 -->
<g id="edge16" class="edge"><title>1437&#45;&gt;1439</title>
<path fill="none" stroke="black" d="M164.24,-953.962C179.896,-942.163 196.967,-929.297 213.657,-916.719"/>
<polygon fill="black" stroke="black" points="215.932,-919.386 221.811,-910.573 211.719,-913.796 215.932,-919.386"/>
</g>
<!-- 1438&#45;&gt;1437 -->
<g id="edge17" class="edge"><title>1438&#45;&gt;1437</title>
<path fill="none" stroke="black" d="M107.228,-918.194C107.285,-926.801 107.23,-935.517 107.062,-943.912"/>
<polygon fill="black" stroke="black" points="103.562,-943.875 106.801,-953.962 110.559,-944.056 103.562,-943.875"/>
</g>
<!-- 1440 -->
<g id="node18" class="node"><title>1440</title>
<polygon fill="none" stroke="black" points="391.5,-739 219.5,-739 219.5,-656 391.5,-656 391.5,-739"/>
<text text-anchor="middle" x="305.5" y="-723.8" font-family="Times,serif" font-size="14.00">0x4000cbcc4a</text>
<text text-anchor="middle" x="305.5" y="-708.8" font-family="Times,serif" font-size="14.00">_______________________</text>
<text text-anchor="middle" x="305.5" y="-693.8" font-family="Times,serif" font-size="14.00">_______________________</text>
<text text-anchor="middle" x="305.5" y="-678.8" font-family="Times,serif" font-size="14.00">testb $1, 4(%r15)</text>
<text text-anchor="middle" x="305.5" y="-663.8" font-family="Times,serif" font-size="14.00">jne 0x4000cbce22</text>
</g>
<!-- 1439&#45;&gt;1440 -->
<g id="edge18" class="edge"><title>1439&#45;&gt;1440</title>
<path fill="none" stroke="black" d="M305.5,-782.306C305.5,-771.334 305.5,-760.049 305.5,-749.456"/>
<polygon fill="black" stroke="black" points="309,-749.131 305.5,-739.131 302,-749.131 309,-749.131"/>
</g>
<!-- 1441 -->
<g id="node19" class="node"><title>1441</title>
<polygon fill="none" stroke="black" points="391.5,-620 219.5,-620 219.5,-492 391.5,-492 391.5,-620"/>
<text text-anchor="middle" x="305.5" y="-604.8" font-family="Times,serif" font-size="14.00">0x4000cbce22</text>
<text text-anchor="middle" x="305.5" y="-589.8" font-family="Times,serif" font-size="14.00">_______________________</text>
<text text-anchor="middle" x="305.5" y="-574.8" font-family="Times,serif" font-size="14.00">_______________________</text>
<text text-anchor="middle" x="305.5" y="-559.8" font-family="Times,serif" font-size="14.00">movq %r15, %rsi</text>
<text text-anchor="middle" x="305.5" y="-544.8" font-family="Times,serif" font-size="14.00">movq %r12, %rdi</text>
<text text-anchor="middle" x="305.5" y="-529.8" font-family="Times,serif" font-size="14.00">callq 0x4000cbbd90</text>
<text text-anchor="middle" x="305.5" y="-514.8" font-family="Times,serif" font-size="14.00">_______________________</text>
<text text-anchor="middle" x="305.5" y="-499.8" font-family="Times,serif" font-size="14.00">CALL 0x4000cbbd90</text>
</g>
<!-- 1440&#45;&gt;1441 -->
<g id="edge19" class="edge"><title>1440&#45;&gt;1441</title>
<path fill="none" stroke="black" d="M305.5,-655.776C305.5,-647.741 305.5,-639.081 305.5,-630.346"/>
<polygon fill="black" stroke="black" points="309,-630.09 305.5,-620.09 302,-630.09 309,-630.09"/>
</g>
<!-- 1492 -->
<g id="node20" class="node"><title>1492</title>
<polygon fill="none" stroke="black" points="391.5,-456 219.5,-456 219.5,-358 391.5,-358 391.5,-456"/>
<text text-anchor="middle" x="305.5" y="-440.8" font-family="Times,serif" font-size="14.00">0x4000cbce2d</text>
<text text-anchor="middle" x="305.5" y="-425.8" font-family="Times,serif" font-size="14.00">_______________________</text>
<text text-anchor="middle" x="305.5" y="-410.8" font-family="Times,serif" font-size="14.00">_______________________</text>
<text text-anchor="middle" x="305.5" y="-395.8" font-family="Times,serif" font-size="14.00">testq %rax, %rax</text>
<text text-anchor="middle" x="305.5" y="-380.8" font-family="Times,serif" font-size="14.00">movq %rax, %r14</text>
<text text-anchor="middle" x="305.5" y="-365.8" font-family="Times,serif" font-size="14.00">je 0x4000cbce61</text>
</g>
<!-- 1441&#45;&gt;1492 -->
<g id="edge20" class="edge"><title>1441&#45;&gt;1492</title>
<path fill="none" stroke="black" d="M305.5,-491.806C305.5,-483.286 305.5,-474.578 305.5,-466.151"/>
<polygon fill="black" stroke="black" points="309,-466.044 305.5,-456.044 302,-466.044 309,-466.044"/>
</g>
<!-- 1493 -->
<g id="node21" class="node"><title>1493</title>
<polygon fill="none" stroke="black" points="394,-322 217,-322 217,-224 394,-224 394,-322"/>
<text text-anchor="middle" x="305.5" y="-306.8" font-family="Times,serif" font-size="14.00">0x4000cbce35</text>
<text text-anchor="middle" x="305.5" y="-291.8" font-family="Times,serif" font-size="14.00">_______________________</text>
<text text-anchor="middle" x="305.5" y="-276.8" font-family="Times,serif" font-size="14.00">_______________________</text>
<text text-anchor="middle" x="305.5" y="-261.8" font-family="Times,serif" font-size="14.00">movl 0x324991(%rip), %eax</text>
<text text-anchor="middle" x="305.5" y="-246.8" font-family="Times,serif" font-size="14.00">testl %eax, %eax</text>
<text text-anchor="middle" x="305.5" y="-231.8" font-family="Times,serif" font-size="14.00">je 0x4000cbc986</text>
</g>
<!-- 1492&#45;&gt;1493 -->
<g id="edge21" class="edge"><title>1492&#45;&gt;1493</title>
<path fill="none" stroke="black" d="M305.5,-357.972C305.5,-349.691 305.5,-341.003 305.5,-332.483"/>
<polygon fill="black" stroke="black" points="309,-332.214 305.5,-322.214 302,-332.214 309,-332.214"/>
</g>
<!-- 1494 -->
<g id="node22" class="node"><title>1494</title>
<polygon fill="none" stroke="black" points="391.5,-188 219.5,-188 219.5,-0 391.5,-0 391.5,-188"/>
<text text-anchor="middle" x="305.5" y="-172.8" font-family="Times,serif" font-size="14.00">0x4000cbc986</text>
<text text-anchor="middle" x="305.5" y="-157.8" font-family="Times,serif" font-size="14.00">_______________________</text>
<text text-anchor="middle" x="305.5" y="-142.8" font-family="Times,serif" font-size="14.00">_______________________</text>
<text text-anchor="middle" x="305.5" y="-127.8" font-family="Times,serif" font-size="14.00">addq $0x68, %rsp</text>
<text text-anchor="middle" x="305.5" y="-112.8" font-family="Times,serif" font-size="14.00">movq %r14, %rax</text>
<text text-anchor="middle" x="305.5" y="-97.8" font-family="Times,serif" font-size="14.00">popq %rbx</text>
<text text-anchor="middle" x="305.5" y="-82.8" font-family="Times,serif" font-size="14.00">popq %rbp</text>
<text text-anchor="middle" x="305.5" y="-67.8" font-family="Times,serif" font-size="14.00">popq %r12</text>
<text text-anchor="middle" x="305.5" y="-52.8" font-family="Times,serif" font-size="14.00">popq %r13</text>
<text text-anchor="middle" x="305.5" y="-37.8" font-family="Times,serif" font-size="14.00">popq %r14</text>
<text text-anchor="middle" x="305.5" y="-22.8" font-family="Times,serif" font-size="14.00">popq %r15</text>
<text text-anchor="middle" x="305.5" y="-7.8" font-family="Times,serif" font-size="14.00">retq </text>
</g>
<!-- 1493&#45;&gt;1494 -->
<g id="edge22" class="edge"><title>1493&#45;&gt;1494</title>
<path fill="none" stroke="black" d="M305.5,-223.634C305.5,-215.689 305.5,-207.196 305.5,-198.504"/>
<polygon fill="black" stroke="black" points="309,-198.23 305.5,-188.23 302,-198.23 309,-198.23"/>
</g>
</g>
</svg>
