<?xml version="1.0" encoding="UTF-8" standalone="no"?>
<!DOCTYPE svg PUBLIC "-//W3C//DTD SVG 1.1//EN"
 "http://www.w3.org/Graphics/SVG/1.1/DTD/svg11.dtd">
<!-- Generated by graphviz version 2.38.0 (20140413.2041)
 -->
<!-- Title: %3 Pages: 1 -->
<svg width="180pt" height="270pt"
 viewBox="0.00 0.00 180.00 270.00" xmlns="http://www.w3.org/2000/svg" xmlns:xlink="http://www.w3.org/1999/xlink">
<g id="graph0" class="graph" transform="scale(1 1) rotate(0) translate(4 266)">
<title>%3</title>
<polygon fill="white" stroke="none" points="-4,4 -4,-266 176,-266 176,4 -4,4"/>
<!-- 1720 -->
<g id="node1" class="node"><title>1720</title>
<polygon fill="none" stroke="black" points="172,-262 0,-262 0,-119 172,-119 172,-262"/>
<text text-anchor="middle" x="86" y="-246.8" font-family="Times,serif" font-size="14.00">0x4000000570</text>
<text text-anchor="middle" x="86" y="-231.8" font-family="Times,serif" font-size="14.00">_______________________</text>
<text text-anchor="middle" x="86" y="-216.8" font-family="Times,serif" font-size="14.00">_______________________</text>
<text text-anchor="middle" x="86" y="-201.8" font-family="Times,serif" font-size="14.00">leaq 0x200ab9(%rip), %rdi</text>
<text text-anchor="middle" x="86" y="-186.8" font-family="Times,serif" font-size="14.00">pushq %rbp</text>
<text text-anchor="middle" x="86" y="-171.8" font-family="Times,serif" font-size="14.00">leaq 0x200ab1(%rip), %rax</text>
<text text-anchor="middle" x="86" y="-156.8" font-family="Times,serif" font-size="14.00">cmpq %rdi, %rax</text>
<text text-anchor="middle" x="86" y="-141.8" font-family="Times,serif" font-size="14.00">movq %rsp, %rbp</text>
<text text-anchor="middle" x="86" y="-126.8" font-family="Times,serif" font-size="14.00">je 0x40000005a0</text>
</g>
<!-- 1721 -->
<g id="node2" class="node"><title>1721</title>
<polygon fill="none" stroke="black" points="172,-83 0,-83 0,-0 172,-0 172,-83"/>
<text text-anchor="middle" x="86" y="-67.8" font-family="Times,serif" font-size="14.00">0x40000005a0</text>
<text text-anchor="middle" x="86" y="-52.8" font-family="Times,serif" font-size="14.00">_______________________</text>
<text text-anchor="middle" x="86" y="-37.8" font-family="Times,serif" font-size="14.00">_______________________</text>
<text text-anchor="middle" x="86" y="-22.8" font-family="Times,serif" font-size="14.00">popq %rbp</text>
<text text-anchor="middle" x="86" y="-7.8" font-family="Times,serif" font-size="14.00">retq </text>
</g>
<!-- 1720&#45;&gt;1721 -->
<g id="edge1" class="edge"><title>1720&#45;&gt;1721</title>
<path fill="none" stroke="black" d="M86,-118.584C86,-110.014 86,-101.398 86,-93.2014"/>
<polygon fill="black" stroke="black" points="89.5001,-93.0788 86,-83.0788 82.5001,-93.0789 89.5001,-93.0788"/>
</g>
</g>
</svg>
