<?xml version="1.0" encoding="UTF-8" standalone="no"?>
<!DOCTYPE svg PUBLIC "-//W3C//DTD SVG 1.1//EN"
 "http://www.w3.org/Graphics/SVG/1.1/DTD/svg11.dtd">
<!-- Generated by graphviz version 2.38.0 (20140413.2041)
 -->
<!-- Title: %3 Pages: 1 -->
<svg width="187pt" height="807pt"
 viewBox="0.00 0.00 187.00 807.00" xmlns="http://www.w3.org/2000/svg" xmlns:xlink="http://www.w3.org/1999/xlink">
<g id="graph0" class="graph" transform="scale(1 1) rotate(0) translate(4 803)">
<title>%3</title>
<polygon fill="white" stroke="none" points="-4,4 -4,-803 183,-803 183,4 -4,4"/>
<!-- 1201 -->
<g id="node1" class="node"><title>1201</title>
<polygon fill="none" stroke="black" points="175.5,-799 3.5,-799 3.5,-716 175.5,-716 175.5,-799"/>
<text text-anchor="middle" x="89.5" y="-783.8" font-family="Times,serif" font-size="14.00">0x4000d2e8d0</text>
<text text-anchor="middle" x="89.5" y="-768.8" font-family="Times,serif" font-size="14.00">_______________________</text>
<text text-anchor="middle" x="89.5" y="-753.8" font-family="Times,serif" font-size="14.00">_______________________</text>
<text text-anchor="middle" x="89.5" y="-738.8" font-family="Times,serif" font-size="14.00">testq %rsi, %rsi</text>
<text text-anchor="middle" x="89.5" y="-723.8" font-family="Times,serif" font-size="14.00">je 0x4000d2e919</text>
</g>
<!-- 1202 -->
<g id="node2" class="node"><title>1202</title>
<polygon fill="none" stroke="black" points="175.5,-680 3.5,-680 3.5,-537 175.5,-537 175.5,-680"/>
<text text-anchor="middle" x="89.5" y="-664.8" font-family="Times,serif" font-size="14.00">0x4000d2e8d5</text>
<text text-anchor="middle" x="89.5" y="-649.8" font-family="Times,serif" font-size="14.00">_______________________</text>
<text text-anchor="middle" x="89.5" y="-634.8" font-family="Times,serif" font-size="14.00">_______________________</text>
<text text-anchor="middle" x="89.5" y="-619.8" font-family="Times,serif" font-size="14.00">pushq %rbp</text>
<text text-anchor="middle" x="89.5" y="-604.8" font-family="Times,serif" font-size="14.00">pushq %rbx</text>
<text text-anchor="middle" x="89.5" y="-589.8" font-family="Times,serif" font-size="14.00">subq $8, %rsp</text>
<text text-anchor="middle" x="89.5" y="-574.8" font-family="Times,serif" font-size="14.00">movq (%rsi), %rbp</text>
<text text-anchor="middle" x="89.5" y="-559.8" font-family="Times,serif" font-size="14.00">testq %rbp, %rbp</text>
<text text-anchor="middle" x="89.5" y="-544.8" font-family="Times,serif" font-size="14.00">je 0x4000d2e913</text>
</g>
<!-- 1201&#45;&gt;1202 -->
<g id="edge1" class="edge"><title>1201&#45;&gt;1202</title>
<path fill="none" stroke="black" d="M89.5,-715.942C89.5,-707.854 89.5,-699.094 89.5,-690.192"/>
<polygon fill="black" stroke="black" points="93.0001,-690.11 89.5,-680.11 86.0001,-690.11 93.0001,-690.11"/>
</g>
<!-- 1203 -->
<g id="node3" class="node"><title>1203</title>
<polygon fill="none" stroke="black" points="175.5,-501 3.5,-501 3.5,-358 175.5,-358 175.5,-501"/>
<text text-anchor="middle" x="89.5" y="-485.8" font-family="Times,serif" font-size="14.00">0x4000d2e8e3</text>
<text text-anchor="middle" x="89.5" y="-470.8" font-family="Times,serif" font-size="14.00">_______________________</text>
<text text-anchor="middle" x="89.5" y="-455.8" font-family="Times,serif" font-size="14.00">_______________________</text>
<text text-anchor="middle" x="89.5" y="-440.8" font-family="Times,serif" font-size="14.00">movq %rsi, %rbx</text>
<text text-anchor="middle" x="89.5" y="-425.8" font-family="Times,serif" font-size="14.00">movq %rbp, %rdi</text>
<text text-anchor="middle" x="89.5" y="-410.8" font-family="Times,serif" font-size="14.00">movl $0x2f, %esi</text>
<text text-anchor="middle" x="89.5" y="-395.8" font-family="Times,serif" font-size="14.00">callq 0x4000cc5c00</text>
<text text-anchor="middle" x="89.5" y="-380.8" font-family="Times,serif" font-size="14.00">_______________________</text>
<text text-anchor="middle" x="89.5" y="-365.8" font-family="Times,serif" font-size="14.00">CALL strrchr</text>
</g>
<!-- 1202&#45;&gt;1203 -->
<g id="edge2" class="edge"><title>1202&#45;&gt;1203</title>
<path fill="none" stroke="black" d="M89.5,-536.782C89.5,-528.43 89.5,-519.858 89.5,-511.38"/>
<polygon fill="black" stroke="black" points="93.0001,-511.106 89.5,-501.106 86.0001,-511.106 93.0001,-511.106"/>
</g>
<!-- 1208 -->
<g id="node4" class="node"><title>1208</title>
<polygon fill="none" stroke="black" points="175.5,-322 3.5,-322 3.5,-239 175.5,-239 175.5,-322"/>
<text text-anchor="middle" x="89.5" y="-306.8" font-family="Times,serif" font-size="14.00">0x4000d2e8f3</text>
<text text-anchor="middle" x="89.5" y="-291.8" font-family="Times,serif" font-size="14.00">_______________________</text>
<text text-anchor="middle" x="89.5" y="-276.8" font-family="Times,serif" font-size="14.00">_______________________</text>
<text text-anchor="middle" x="89.5" y="-261.8" font-family="Times,serif" font-size="14.00">testq %rax, %rax</text>
<text text-anchor="middle" x="89.5" y="-246.8" font-family="Times,serif" font-size="14.00">je 0x4000d2e920</text>
</g>
<!-- 1203&#45;&gt;1208 -->
<g id="edge3" class="edge"><title>1203&#45;&gt;1208</title>
<path fill="none" stroke="black" d="M89.5,-357.584C89.5,-349.014 89.5,-340.398 89.5,-332.201"/>
<polygon fill="black" stroke="black" points="93.0001,-332.079 89.5,-322.079 86.0001,-332.079 93.0001,-332.079"/>
</g>
<!-- 1209 -->
<g id="node5" class="node"><title>1209</title>
<polygon fill="none" stroke="black" points="179,-203 0,-203 0,-0 179,-0 179,-203"/>
<text text-anchor="middle" x="89.5" y="-187.8" font-family="Times,serif" font-size="14.00">0x4000d2e8f8</text>
<text text-anchor="middle" x="89.5" y="-172.8" font-family="Times,serif" font-size="14.00">_______________________</text>
<text text-anchor="middle" x="89.5" y="-157.8" font-family="Times,serif" font-size="14.00">_______________________</text>
<text text-anchor="middle" x="89.5" y="-142.8" font-family="Times,serif" font-size="14.00">movq 0x2b0501(%rip), %rdx</text>
<text text-anchor="middle" x="89.5" y="-127.8" font-family="Times,serif" font-size="14.00">addq $1, %rax</text>
<text text-anchor="middle" x="89.5" y="-112.8" font-family="Times,serif" font-size="14.00">movq %rax, (%rdx)</text>
<text text-anchor="middle" x="89.5" y="-97.8" font-family="Times,serif" font-size="14.00">movq (%rbx), %rdx</text>
<text text-anchor="middle" x="89.5" y="-82.8" font-family="Times,serif" font-size="14.00">movq 0x2b04d0(%rip), %rax</text>
<text text-anchor="middle" x="89.5" y="-67.8" font-family="Times,serif" font-size="14.00">movq %rdx, (%rax)</text>
<text text-anchor="middle" x="89.5" y="-52.8" font-family="Times,serif" font-size="14.00">addq $8, %rsp</text>
<text text-anchor="middle" x="89.5" y="-37.8" font-family="Times,serif" font-size="14.00">popq %rbx</text>
<text text-anchor="middle" x="89.5" y="-22.8" font-family="Times,serif" font-size="14.00">popq %rbp</text>
<text text-anchor="middle" x="89.5" y="-7.8" font-family="Times,serif" font-size="14.00">retq </text>
</g>
<!-- 1208&#45;&gt;1209 -->
<g id="edge4" class="edge"><title>1208&#45;&gt;1209</title>
<path fill="none" stroke="black" d="M89.5,-238.893C89.5,-230.958 89.5,-222.288 89.5,-213.29"/>
<polygon fill="black" stroke="black" points="93.0001,-213.012 89.5,-203.012 86.0001,-213.012 93.0001,-213.012"/>
</g>
</g>
</svg>
