<?xml version="1.0" encoding="UTF-8" standalone="no"?>
<!DOCTYPE svg PUBLIC "-//W3C//DTD SVG 1.1//EN"
 "http://www.w3.org/Graphics/SVG/1.1/DTD/svg11.dtd">
<!-- Generated by graphviz version 2.38.0 (20140413.2041)
 -->
<!-- Title: %3 Pages: 1 -->
<svg width="614pt" height="1016pt"
 viewBox="0.00 0.00 614.00 1016.00" xmlns="http://www.w3.org/2000/svg" xmlns:xlink="http://www.w3.org/1999/xlink">
<g id="graph0" class="graph" transform="scale(1 1) rotate(0) translate(4 1012)">
<title>%3</title>
<polygon fill="white" stroke="none" points="-4,4 -4,-1012 610,-1012 610,4 -4,4"/>
<!-- 660 -->
<g id="node1" class="node"><title>660</title>
<polygon fill="none" stroke="black" points="310,-1008 126,-1008 126,-850 310,-850 310,-1008"/>
<text text-anchor="middle" x="218" y="-992.8" font-family="Times,serif" font-size="14.00">0x4000a1ec80</text>
<text text-anchor="middle" x="218" y="-977.8" font-family="Times,serif" font-size="14.00">_______________________</text>
<text text-anchor="middle" x="218" y="-962.8" font-family="Times,serif" font-size="14.00">_______________________</text>
<text text-anchor="middle" x="218" y="-947.8" font-family="Times,serif" font-size="14.00">movd %esi, %xmm0</text>
<text text-anchor="middle" x="218" y="-932.8" font-family="Times,serif" font-size="14.00">movq %rdi, %rax</text>
<text text-anchor="middle" x="218" y="-917.8" font-family="Times,serif" font-size="14.00">punpcklbw %xmm0, %xmm0</text>
<text text-anchor="middle" x="218" y="-902.8" font-family="Times,serif" font-size="14.00">punpcklwd %xmm0, %xmm0</text>
<text text-anchor="middle" x="218" y="-887.8" font-family="Times,serif" font-size="14.00">pshufd $0, %xmm0, %xmm0</text>
<text text-anchor="middle" x="218" y="-872.8" font-family="Times,serif" font-size="14.00">cmpq $0x10, %rdx</text>
<text text-anchor="middle" x="218" y="-857.8" font-family="Times,serif" font-size="14.00">jb 0x4000a1ed28</text>
</g>
<!-- 661 -->
<g id="node2" class="node"><title>661</title>
<polygon fill="none" stroke="black" points="206,-806.5 34,-806.5 34,-723.5 206,-723.5 206,-806.5"/>
<text text-anchor="middle" x="120" y="-791.3" font-family="Times,serif" font-size="14.00">0x4000a1ec9e</text>
<text text-anchor="middle" x="120" y="-776.3" font-family="Times,serif" font-size="14.00">_______________________</text>
<text text-anchor="middle" x="120" y="-761.3" font-family="Times,serif" font-size="14.00">_______________________</text>
<text text-anchor="middle" x="120" y="-746.3" font-family="Times,serif" font-size="14.00">cmpq $0x20, %rdx</text>
<text text-anchor="middle" x="120" y="-731.3" font-family="Times,serif" font-size="14.00">ja 0x4000a1ecaf</text>
</g>
<!-- 660&#45;&gt;661 -->
<g id="edge1" class="edge"><title>660&#45;&gt;661</title>
<path fill="none" stroke="black" d="M170.722,-849.847C163.686,-838.216 156.603,-826.507 150.053,-815.68"/>
<polygon fill="black" stroke="black" points="152.861,-813.559 144.69,-806.814 146.871,-817.182 152.861,-813.559"/>
</g>
<!-- 774 -->
<g id="node3" class="node"><title>774</title>
<polygon fill="none" stroke="black" points="403,-814 231,-814 231,-716 403,-716 403,-814"/>
<text text-anchor="middle" x="317" y="-798.8" font-family="Times,serif" font-size="14.00">0x4000a1ed28</text>
<text text-anchor="middle" x="317" y="-783.8" font-family="Times,serif" font-size="14.00">_______________________</text>
<text text-anchor="middle" x="317" y="-768.8" font-family="Times,serif" font-size="14.00">_______________________</text>
<text text-anchor="middle" x="317" y="-753.8" font-family="Times,serif" font-size="14.00">movd %xmm0, %rcx</text>
<text text-anchor="middle" x="317" y="-738.8" font-family="Times,serif" font-size="14.00">cmpb $8, %dl</text>
<text text-anchor="middle" x="317" y="-723.8" font-family="Times,serif" font-size="14.00">jae 0x4000a1ed41</text>
</g>
<!-- 660&#45;&gt;774 -->
<g id="edge2" class="edge"><title>660&#45;&gt;774</title>
<path fill="none" stroke="black" d="M265.76,-849.847C271.323,-840.745 276.915,-831.594 282.255,-822.856"/>
<polygon fill="black" stroke="black" points="285.272,-824.631 287.5,-814.273 279.299,-820.981 285.272,-824.631"/>
</g>
<!-- 662 -->
<g id="node4" class="node"><title>662</title>
<polygon fill="none" stroke="black" points="203,-680 31,-680 31,-597 203,-597 203,-680"/>
<text text-anchor="middle" x="117" y="-664.8" font-family="Times,serif" font-size="14.00">0x4000a1ecaf</text>
<text text-anchor="middle" x="117" y="-649.8" font-family="Times,serif" font-size="14.00">_______________________</text>
<text text-anchor="middle" x="117" y="-634.8" font-family="Times,serif" font-size="14.00">_______________________</text>
<text text-anchor="middle" x="117" y="-619.8" font-family="Times,serif" font-size="14.00">cmpq $0x40, %rdx</text>
<text text-anchor="middle" x="117" y="-604.8" font-family="Times,serif" font-size="14.00">ja 0x4000a1eccb</text>
</g>
<!-- 661&#45;&gt;662 -->
<g id="edge3" class="edge"><title>661&#45;&gt;662</title>
<path fill="none" stroke="black" d="M119.018,-723.234C118.766,-712.808 118.493,-701.466 118.231,-690.593"/>
<polygon fill="black" stroke="black" points="121.724,-690.27 117.985,-680.358 114.727,-690.439 121.724,-690.27"/>
</g>
<!-- 775 -->
<g id="node8" class="node"><title>775</title>
<polygon fill="none" stroke="black" points="416,-680 244,-680 244,-597 416,-597 416,-680"/>
<text text-anchor="middle" x="330" y="-664.8" font-family="Times,serif" font-size="14.00">0x4000a1ed32</text>
<text text-anchor="middle" x="330" y="-649.8" font-family="Times,serif" font-size="14.00">_______________________</text>
<text text-anchor="middle" x="330" y="-634.8" font-family="Times,serif" font-size="14.00">_______________________</text>
<text text-anchor="middle" x="330" y="-619.8" font-family="Times,serif" font-size="14.00">cmpb $4, %dl</text>
<text text-anchor="middle" x="330" y="-604.8" font-family="Times,serif" font-size="14.00">jae 0x4000a1ed4a</text>
</g>
<!-- 774&#45;&gt;775 -->
<g id="edge8" class="edge"><title>774&#45;&gt;775</title>
<path fill="none" stroke="black" d="M322.026,-715.865C322.9,-707.498 323.811,-698.771 324.692,-690.335"/>
<polygon fill="black" stroke="black" points="328.189,-690.54 325.747,-680.231 321.227,-689.813 328.189,-690.54"/>
</g>
<!-- 663 -->
<g id="node5" class="node"><title>663</title>
<polygon fill="none" stroke="black" points="226,-561 0,-561 0,-298 226,-298 226,-561"/>
<text text-anchor="middle" x="113" y="-545.8" font-family="Times,serif" font-size="14.00">0x4000a1eccb</text>
<text text-anchor="middle" x="113" y="-530.8" font-family="Times,serif" font-size="14.00">_______________________</text>
<text text-anchor="middle" x="113" y="-515.8" font-family="Times,serif" font-size="14.00">_______________________</text>
<text text-anchor="middle" x="113" y="-500.8" font-family="Times,serif" font-size="14.00">leaq 0x40(%rdi), %rcx</text>
<text text-anchor="middle" x="113" y="-485.8" font-family="Times,serif" font-size="14.00">movdqu %xmm0, (%rdi)</text>
<text text-anchor="middle" x="113" y="-470.8" font-family="Times,serif" font-size="14.00">andq $0xffffffc0, %rcx</text>
<text text-anchor="middle" x="113" y="-455.8" font-family="Times,serif" font-size="14.00">movdqu %xmm0, &#45;0x10(%rdi, %rdx)</text>
<text text-anchor="middle" x="113" y="-440.8" font-family="Times,serif" font-size="14.00">movdqu %xmm0, 0x10(%rdi)</text>
<text text-anchor="middle" x="113" y="-425.8" font-family="Times,serif" font-size="14.00">movdqu %xmm0, &#45;0x20(%rdi, %rdx)</text>
<text text-anchor="middle" x="113" y="-410.8" font-family="Times,serif" font-size="14.00">movdqu %xmm0, 0x20(%rdi)</text>
<text text-anchor="middle" x="113" y="-395.8" font-family="Times,serif" font-size="14.00">movdqu %xmm0, &#45;0x30(%rdi, %rdx)</text>
<text text-anchor="middle" x="113" y="-380.8" font-family="Times,serif" font-size="14.00">movdqu %xmm0, 0x30(%rdi)</text>
<text text-anchor="middle" x="113" y="-365.8" font-family="Times,serif" font-size="14.00">movdqu %xmm0, &#45;0x40(%rdi, %rdx)</text>
<text text-anchor="middle" x="113" y="-350.8" font-family="Times,serif" font-size="14.00">addq %rdi, %rdx</text>
<text text-anchor="middle" x="113" y="-335.8" font-family="Times,serif" font-size="14.00">andq $0xffffffc0, %rdx</text>
<text text-anchor="middle" x="113" y="-320.8" font-family="Times,serif" font-size="14.00">cmpq %rdx, %rcx</text>
<text text-anchor="middle" x="113" y="-305.8" font-family="Times,serif" font-size="14.00">je 0x4000a1ecca</text>
</g>
<!-- 662&#45;&gt;663 -->
<g id="edge4" class="edge"><title>662&#45;&gt;663</title>
<path fill="none" stroke="black" d="M116.21,-596.603C116.061,-588.899 115.898,-580.453 115.726,-571.581"/>
<polygon fill="black" stroke="black" points="119.222,-571.33 115.529,-561.399 112.223,-571.465 119.222,-571.33"/>
</g>
<!-- 664 -->
<g id="node6" class="node"><title>664</title>
<polygon fill="none" stroke="black" points="205.5,-262 20.5,-262 20.5,-104 205.5,-104 205.5,-262"/>
<text text-anchor="middle" x="113" y="-246.8" font-family="Times,serif" font-size="14.00">0x4000a1ed0a</text>
<text text-anchor="middle" x="113" y="-231.8" font-family="Times,serif" font-size="14.00">_______________________</text>
<text text-anchor="middle" x="113" y="-216.8" font-family="Times,serif" font-size="14.00">_______________________</text>
<text text-anchor="middle" x="113" y="-201.8" font-family="Times,serif" font-size="14.00">movdqa %xmm0, (%rcx)</text>
<text text-anchor="middle" x="113" y="-186.8" font-family="Times,serif" font-size="14.00">movdqa %xmm0, 0x10(%rcx)</text>
<text text-anchor="middle" x="113" y="-171.8" font-family="Times,serif" font-size="14.00">movdqa %xmm0, 0x20(%rcx)</text>
<text text-anchor="middle" x="113" y="-156.8" font-family="Times,serif" font-size="14.00">movdqa %xmm0, 0x30(%rcx)</text>
<text text-anchor="middle" x="113" y="-141.8" font-family="Times,serif" font-size="14.00">addq $0x40, %rcx</text>
<text text-anchor="middle" x="113" y="-126.8" font-family="Times,serif" font-size="14.00">cmpq %rcx, %rdx</text>
<text text-anchor="middle" x="113" y="-111.8" font-family="Times,serif" font-size="14.00">jne 0x4000a1ed0a</text>
</g>
<!-- 663&#45;&gt;664 -->
<g id="edge5" class="edge"><title>663&#45;&gt;664</title>
<path fill="none" stroke="black" d="M113,-297.661C113,-289.024 113,-280.444 113,-272.096"/>
<polygon fill="black" stroke="black" points="116.5,-272.039 113,-262.039 109.5,-272.039 116.5,-272.039"/>
</g>
<!-- 664&#45;&gt;664 -->
<g id="edge6" class="edge"><title>664&#45;&gt;664</title>
<path fill="none" stroke="black" d="M205.701,-206.683C216.485,-202.312 223.5,-194.418 223.5,-183 223.5,-175.15 220.184,-168.966 214.608,-164.447"/>
<polygon fill="black" stroke="black" points="216.114,-161.275 205.701,-159.317 212.62,-167.341 216.114,-161.275"/>
</g>
<!-- 665 -->
<g id="node7" class="node"><title>665</title>
<polygon fill="none" stroke="black" points="199,-68 27,-68 27,-0 199,-0 199,-68"/>
<text text-anchor="middle" x="113" y="-52.8" font-family="Times,serif" font-size="14.00">0x4000a1ed26</text>
<text text-anchor="middle" x="113" y="-37.8" font-family="Times,serif" font-size="14.00">_______________________</text>
<text text-anchor="middle" x="113" y="-22.8" font-family="Times,serif" font-size="14.00">_______________________</text>
<text text-anchor="middle" x="113" y="-7.8" font-family="Times,serif" font-size="14.00">retq </text>
</g>
<!-- 664&#45;&gt;665 -->
<g id="edge7" class="edge"><title>664&#45;&gt;665</title>
<path fill="none" stroke="black" d="M113,-103.766C113,-95.0888 113,-86.5003 113,-78.4865"/>
<polygon fill="black" stroke="black" points="116.5,-78.3235 113,-68.3236 109.5,-78.3236 116.5,-78.3235"/>
</g>
<!-- 776 -->
<g id="node9" class="node"><title>776</title>
<polygon fill="none" stroke="black" points="416,-478.5 244,-478.5 244,-380.5 416,-380.5 416,-478.5"/>
<text text-anchor="middle" x="330" y="-463.3" font-family="Times,serif" font-size="14.00">0x4000a1ed4a</text>
<text text-anchor="middle" x="330" y="-448.3" font-family="Times,serif" font-size="14.00">_______________________</text>
<text text-anchor="middle" x="330" y="-433.3" font-family="Times,serif" font-size="14.00">_______________________</text>
<text text-anchor="middle" x="330" y="-418.3" font-family="Times,serif" font-size="14.00">movl %ecx, &#45;4(%rdi, %rdx)</text>
<text text-anchor="middle" x="330" y="-403.3" font-family="Times,serif" font-size="14.00">movl %ecx, (%rdi)</text>
<text text-anchor="middle" x="330" y="-388.3" font-family="Times,serif" font-size="14.00">retq </text>
</g>
<!-- 775&#45;&gt;776 -->
<g id="edge9" class="edge"><title>775&#45;&gt;776</title>
<path fill="none" stroke="black" d="M330,-596.603C330,-565.851 330,-523.288 330,-488.947"/>
<polygon fill="black" stroke="black" points="333.5,-488.575 330,-478.575 326.5,-488.575 333.5,-488.575"/>
</g>
<!-- 783 -->
<g id="node10" class="node"><title>783</title>
<polygon fill="none" stroke="black" points="606,-471 434,-471 434,-388 606,-388 606,-471"/>
<text text-anchor="middle" x="520" y="-455.8" font-family="Times,serif" font-size="14.00">0x4000a1ed37</text>
<text text-anchor="middle" x="520" y="-440.8" font-family="Times,serif" font-size="14.00">_______________________</text>
<text text-anchor="middle" x="520" y="-425.8" font-family="Times,serif" font-size="14.00">_______________________</text>
<text text-anchor="middle" x="520" y="-410.8" font-family="Times,serif" font-size="14.00">cmpb $1, %dl</text>
<text text-anchor="middle" x="520" y="-395.8" font-family="Times,serif" font-size="14.00">ja 0x4000a1ed51</text>
</g>
<!-- 775&#45;&gt;783 -->
<g id="edge10" class="edge"><title>775&#45;&gt;783</title>
<path fill="none" stroke="black" d="M385.406,-596.944C398.973,-585.941 413.024,-573.574 425,-561 448.703,-536.114 471.497,-505.123 488.814,-479.587"/>
<polygon fill="black" stroke="black" points="491.807,-481.408 494.47,-471.153 485.994,-477.509 491.807,-481.408"/>
</g>
<!-- 784 -->
<g id="node11" class="node"><title>784</title>
<polygon fill="none" stroke="black" points="606,-232 434,-232 434,-134 606,-134 606,-232"/>
<text text-anchor="middle" x="520" y="-216.8" font-family="Times,serif" font-size="14.00">0x4000a1ed51</text>
<text text-anchor="middle" x="520" y="-201.8" font-family="Times,serif" font-size="14.00">_______________________</text>
<text text-anchor="middle" x="520" y="-186.8" font-family="Times,serif" font-size="14.00">_______________________</text>
<text text-anchor="middle" x="520" y="-171.8" font-family="Times,serif" font-size="14.00">movw %cx, &#45;2(%rdi, %rdx)</text>
<text text-anchor="middle" x="520" y="-156.8" font-family="Times,serif" font-size="14.00">movw %cx, (%rdi)</text>
<text text-anchor="middle" x="520" y="-141.8" font-family="Times,serif" font-size="14.00">retq </text>
</g>
<!-- 783&#45;&gt;784 -->
<g id="edge11" class="edge"><title>783&#45;&gt;784</title>
<path fill="none" stroke="black" d="M520,-387.851C520,-348.169 520,-287.374 520,-242.496"/>
<polygon fill="black" stroke="black" points="523.5,-242.316 520,-232.316 516.5,-242.316 523.5,-242.316"/>
</g>
</g>
</svg>
