<?xml version="1.0" encoding="UTF-8" standalone="no"?>
<!DOCTYPE svg PUBLIC "-//W3C//DTD SVG 1.1//EN"
 "http://www.w3.org/Graphics/SVG/1.1/DTD/svg11.dtd">
<!-- Generated by graphviz version 2.38.0 (20140413.2041)
 -->
<!-- Title: %3 Pages: 1 -->
<svg width="552pt" height="5028pt"
 viewBox="0.00 0.00 552.00 5028.00" xmlns="http://www.w3.org/2000/svg" xmlns:xlink="http://www.w3.org/1999/xlink">
<g id="graph0" class="graph" transform="scale(1 1) rotate(0) translate(4 5024)">
<title>%3</title>
<polygon fill="white" stroke="none" points="-4,4 -4,-5024 548,-5024 548,4 -4,4"/>
<!-- 127 -->
<g id="node1" class="node"><title>127</title>
<polygon fill="none" stroke="black" points="299,-5020 127,-5020 127,-4712 299,-4712 299,-5020"/>
<text text-anchor="middle" x="213" y="-5004.8" font-family="Times,serif" font-size="14.00">0x4000a0e130</text>
<text text-anchor="middle" x="213" y="-4989.8" font-family="Times,serif" font-size="14.00">_______________________</text>
<text text-anchor="middle" x="213" y="-4974.8" font-family="Times,serif" font-size="14.00">_______________________</text>
<text text-anchor="middle" x="213" y="-4959.8" font-family="Times,serif" font-size="14.00">pushq %r15</text>
<text text-anchor="middle" x="213" y="-4944.8" font-family="Times,serif" font-size="14.00">pushq %r14</text>
<text text-anchor="middle" x="213" y="-4929.8" font-family="Times,serif" font-size="14.00">pushq %r13</text>
<text text-anchor="middle" x="213" y="-4914.8" font-family="Times,serif" font-size="14.00">pushq %r12</text>
<text text-anchor="middle" x="213" y="-4899.8" font-family="Times,serif" font-size="14.00">movq %rcx, %r13</text>
<text text-anchor="middle" x="213" y="-4884.8" font-family="Times,serif" font-size="14.00">pushq %rbp</text>
<text text-anchor="middle" x="213" y="-4869.8" font-family="Times,serif" font-size="14.00">pushq %rbx</text>
<text text-anchor="middle" x="213" y="-4854.8" font-family="Times,serif" font-size="14.00">movq %rsi, %r12</text>
<text text-anchor="middle" x="213" y="-4839.8" font-family="Times,serif" font-size="14.00">movq %r9, %rbp</text>
<text text-anchor="middle" x="213" y="-4824.8" font-family="Times,serif" font-size="14.00">subq $0x28, %rsp</text>
<text text-anchor="middle" x="213" y="-4809.8" font-family="Times,serif" font-size="14.00">movq %rdi, (%rsp)</text>
<text text-anchor="middle" x="213" y="-4794.8" font-family="Times,serif" font-size="14.00">movq %rsi, %rdi</text>
<text text-anchor="middle" x="213" y="-4779.8" font-family="Times,serif" font-size="14.00">movl %edx, 0x18(%rsp)</text>
<text text-anchor="middle" x="213" y="-4764.8" font-family="Times,serif" font-size="14.00">movl %r8d, 0x1c(%rsp)</text>
<text text-anchor="middle" x="213" y="-4749.8" font-family="Times,serif" font-size="14.00">callq 0x4000a1df70</text>
<text text-anchor="middle" x="213" y="-4734.8" font-family="Times,serif" font-size="14.00">_______________________</text>
<text text-anchor="middle" x="213" y="-4719.8" font-family="Times,serif" font-size="14.00">CALL 0x4000a1df70</text>
</g>
<!-- 128 -->
<g id="node2" class="node"><title>128</title>
<polygon fill="none" stroke="black" points="304,-4676 122,-4676 122,-4518 304,-4518 304,-4676"/>
<text text-anchor="middle" x="213" y="-4660.8" font-family="Times,serif" font-size="14.00">0x4000a0e15c</text>
<text text-anchor="middle" x="213" y="-4645.8" font-family="Times,serif" font-size="14.00">_______________________</text>
<text text-anchor="middle" x="213" y="-4630.8" font-family="Times,serif" font-size="14.00">_______________________</text>
<text text-anchor="middle" x="213" y="-4615.8" font-family="Times,serif" font-size="14.00">movl 0x217c9d(%rip), %r15d</text>
<text text-anchor="middle" x="213" y="-4600.8" font-family="Times,serif" font-size="14.00">movq %rax, %rbx</text>
<text text-anchor="middle" x="213" y="-4585.8" font-family="Times,serif" font-size="14.00">leaq 1(%rax), %rdx</text>
<text text-anchor="middle" x="213" y="-4570.8" font-family="Times,serif" font-size="14.00">movl %r15d, %r10d</text>
<text text-anchor="middle" x="213" y="-4555.8" font-family="Times,serif" font-size="14.00">shlq $4, %r10</text>
<text text-anchor="middle" x="213" y="-4540.8" font-family="Times,serif" font-size="14.00">testl %r15d, %r15d</text>
<text text-anchor="middle" x="213" y="-4525.8" font-family="Times,serif" font-size="14.00">jne 0x4000a0e19a</text>
</g>
<!-- 127&#45;&gt;128 -->
<g id="edge1" class="edge"><title>127&#45;&gt;128</title>
<path fill="none" stroke="black" d="M213,-4711.62C213,-4703.04 213,-4694.57 213,-4686.36"/>
<polygon fill="black" stroke="black" points="216.5,-4686.11 213,-4676.11 209.5,-4686.11 216.5,-4686.11"/>
</g>
<!-- 129 -->
<g id="node3" class="node"><title>129</title>
<polygon fill="none" stroke="black" points="307,-4482 119,-4482 119,-4189 307,-4189 307,-4482"/>
<text text-anchor="middle" x="213" y="-4466.8" font-family="Times,serif" font-size="14.00">0x4000a0e176</text>
<text text-anchor="middle" x="213" y="-4451.8" font-family="Times,serif" font-size="14.00">_______________________</text>
<text text-anchor="middle" x="213" y="-4436.8" font-family="Times,serif" font-size="14.00">_______________________</text>
<text text-anchor="middle" x="213" y="-4421.8" font-family="Times,serif" font-size="14.00">movl 0x1c(%rsp), %eax</text>
<text text-anchor="middle" x="213" y="-4406.8" font-family="Times,serif" font-size="14.00">andl $0x20000000, %eax</text>
<text text-anchor="middle" x="213" y="-4391.8" font-family="Times,serif" font-size="14.00">cmpl $1, %eax</text>
<text text-anchor="middle" x="213" y="-4376.8" font-family="Times,serif" font-size="14.00">sbbq %r10, %r10</text>
<text text-anchor="middle" x="213" y="-4361.8" font-family="Times,serif" font-size="14.00">notq %r10</text>
<text text-anchor="middle" x="213" y="-4346.8" font-family="Times,serif" font-size="14.00">andl $0x100, %r10d</text>
<text text-anchor="middle" x="213" y="-4331.8" font-family="Times,serif" font-size="14.00">testl %eax, %eax</text>
<text text-anchor="middle" x="213" y="-4316.8" font-family="Times,serif" font-size="14.00">movl $0x10, %eax</text>
<text text-anchor="middle" x="213" y="-4301.8" font-family="Times,serif" font-size="14.00">cmovnel %eax, %r15d</text>
<text text-anchor="middle" x="213" y="-4286.8" font-family="Times,serif" font-size="14.00">leaq 0x491(%r10, %rbx), %rdi</text>
<text text-anchor="middle" x="213" y="-4271.8" font-family="Times,serif" font-size="14.00">movl $1, %esi</text>
<text text-anchor="middle" x="213" y="-4256.8" font-family="Times,serif" font-size="14.00">movq %rdx, 0x10(%rsp)</text>
<text text-anchor="middle" x="213" y="-4241.8" font-family="Times,serif" font-size="14.00">movq %r10, 8(%rsp)</text>
<text text-anchor="middle" x="213" y="-4226.8" font-family="Times,serif" font-size="14.00">callq 0x4000a03a50</text>
<text text-anchor="middle" x="213" y="-4211.8" font-family="Times,serif" font-size="14.00">_______________________</text>
<text text-anchor="middle" x="213" y="-4196.8" font-family="Times,serif" font-size="14.00">CALL 0x4000a03a50</text>
</g>
<!-- 128&#45;&gt;129 -->
<g id="edge2" class="edge"><title>128&#45;&gt;129</title>
<path fill="none" stroke="black" d="M213,-4517.79C213,-4509.64 213,-4501.16 213,-4492.52"/>
<polygon fill="black" stroke="black" points="216.5,-4492.32 213,-4482.32 209.5,-4492.32 216.5,-4492.32"/>
</g>
<!-- 139 -->
<g id="node4" class="node"><title>139</title>
<polygon fill="none" stroke="black" points="299,-4153 127,-4153 127,-4055 299,-4055 299,-4153"/>
<text text-anchor="middle" x="213" y="-4137.8" font-family="Times,serif" font-size="14.00">0x4000a0e1b6</text>
<text text-anchor="middle" x="213" y="-4122.8" font-family="Times,serif" font-size="14.00">_______________________</text>
<text text-anchor="middle" x="213" y="-4107.8" font-family="Times,serif" font-size="14.00">_______________________</text>
<text text-anchor="middle" x="213" y="-4092.8" font-family="Times,serif" font-size="14.00">testq %rax, %rax</text>
<text text-anchor="middle" x="213" y="-4077.8" font-family="Times,serif" font-size="14.00">movq %rax, %r14</text>
<text text-anchor="middle" x="213" y="-4062.8" font-family="Times,serif" font-size="14.00">je 0x4000a0e397</text>
</g>
<!-- 129&#45;&gt;139 -->
<g id="edge3" class="edge"><title>129&#45;&gt;139</title>
<path fill="none" stroke="black" d="M213,-4188.83C213,-4180.07 213,-4171.58 213,-4163.57"/>
<polygon fill="black" stroke="black" points="216.5,-4163.33 213,-4153.33 209.5,-4163.33 216.5,-4163.33"/>
</g>
<!-- 140 -->
<g id="node5" class="node"><title>140</title>
<polygon fill="none" stroke="black" points="308,-4019 118,-4019 118,-3771 308,-3771 308,-4019"/>
<text text-anchor="middle" x="213" y="-4003.8" font-family="Times,serif" font-size="14.00">0x4000a0e1c2</text>
<text text-anchor="middle" x="213" y="-3988.8" font-family="Times,serif" font-size="14.00">_______________________</text>
<text text-anchor="middle" x="213" y="-3973.8" font-family="Times,serif" font-size="14.00">_______________________</text>
<text text-anchor="middle" x="213" y="-3958.8" font-family="Times,serif" font-size="14.00">movq 8(%rsp), %r10</text>
<text text-anchor="middle" x="213" y="-3943.8" font-family="Times,serif" font-size="14.00">movq 0x10(%rsp), %rdx</text>
<text text-anchor="middle" x="213" y="-3928.8" font-family="Times,serif" font-size="14.00">movq %r12, %rsi</text>
<text text-anchor="middle" x="213" y="-3913.8" font-family="Times,serif" font-size="14.00">movq %rax, 0x28(%r14)</text>
<text text-anchor="middle" x="213" y="-3898.8" font-family="Times,serif" font-size="14.00">leaq 0x470(%rax, %r10), %r10</text>
<text text-anchor="middle" x="213" y="-3883.8" font-family="Times,serif" font-size="14.00">movq %r10, 0x2c8(%rax)</text>
<text text-anchor="middle" x="213" y="-3868.8" font-family="Times,serif" font-size="14.00">leaq 0x20(%r10), %rdi</text>
<text text-anchor="middle" x="213" y="-3853.8" font-family="Times,serif" font-size="14.00">leaq 8(%r10), %rax</text>
<text text-anchor="middle" x="213" y="-3838.8" font-family="Times,serif" font-size="14.00">movq %r10, 8(%rsp)</text>
<text text-anchor="middle" x="213" y="-3823.8" font-family="Times,serif" font-size="14.00">movq %rax, 0x38(%r14)</text>
<text text-anchor="middle" x="213" y="-3808.8" font-family="Times,serif" font-size="14.00">callq 0x4000a1eaa0</text>
<text text-anchor="middle" x="213" y="-3793.8" font-family="Times,serif" font-size="14.00">_______________________</text>
<text text-anchor="middle" x="213" y="-3778.8" font-family="Times,serif" font-size="14.00">CALL 0x4000a1eaa0</text>
</g>
<!-- 139&#45;&gt;140 -->
<g id="edge4" class="edge"><title>139&#45;&gt;140</title>
<path fill="none" stroke="black" d="M213,-4054.99C213,-4047.01 213,-4038.4 213,-4029.46"/>
<polygon fill="black" stroke="black" points="216.5,-4029.25 213,-4019.25 209.5,-4029.25 216.5,-4029.25"/>
</g>
<!-- 147 -->
<g id="node6" class="node"><title>147</title>
<polygon fill="none" stroke="black" points="301,-3735 125,-3735 125,-3427 301,-3427 301,-3735"/>
<text text-anchor="middle" x="213" y="-3719.8" font-family="Times,serif" font-size="14.00">0x4000a0e1f8</text>
<text text-anchor="middle" x="213" y="-3704.8" font-family="Times,serif" font-size="14.00">_______________________</text>
<text text-anchor="middle" x="213" y="-3689.8" font-family="Times,serif" font-size="14.00">_______________________</text>
<text text-anchor="middle" x="213" y="-3674.8" font-family="Times,serif" font-size="14.00">movq (%rsp), %rcx</text>
<text text-anchor="middle" x="213" y="-3659.8" font-family="Times,serif" font-size="14.00">movq 8(%rsp), %r10</text>
<text text-anchor="middle" x="213" y="-3644.8" font-family="Times,serif" font-size="14.00">movzbl 0x18(%rsp), %r12d</text>
<text text-anchor="middle" x="213" y="-3629.8" font-family="Times,serif" font-size="14.00">movzbl (%rcx), %edx</text>
<text text-anchor="middle" x="213" y="-3614.8" font-family="Times,serif" font-size="14.00">movq %rax, 8(%r10)</text>
<text text-anchor="middle" x="213" y="-3599.8" font-family="Times,serif" font-size="14.00">addq %rbx, %rax</text>
<text text-anchor="middle" x="213" y="-3584.8" font-family="Times,serif" font-size="14.00">movl $1, 0x18(%r10)</text>
<text text-anchor="middle" x="213" y="-3569.8" font-family="Times,serif" font-size="14.00">testb %dl, %dl</text>
<text text-anchor="middle" x="213" y="-3554.8" font-family="Times,serif" font-size="14.00">cmovneq %rcx, %rax</text>
<text text-anchor="middle" x="213" y="-3539.8" font-family="Times,serif" font-size="14.00">andl $3, %r12d</text>
<text text-anchor="middle" x="213" y="-3524.8" font-family="Times,serif" font-size="14.00">movq %rax, 8(%r14)</text>
<text text-anchor="middle" x="213" y="-3509.8" font-family="Times,serif" font-size="14.00">movzbl 0x314(%r14), %eax</text>
<text text-anchor="middle" x="213" y="-3494.8" font-family="Times,serif" font-size="14.00">andl $0xfffffffffffffffc, %eax</text>
<text text-anchor="middle" x="213" y="-3479.8" font-family="Times,serif" font-size="14.00">orl %eax, %r12d</text>
<text text-anchor="middle" x="213" y="-3464.8" font-family="Times,serif" font-size="14.00">testb $1, 0x217a65(%rip)</text>
<text text-anchor="middle" x="213" y="-3449.8" font-family="Times,serif" font-size="14.00">movb %r12b, 0x314(%r14)</text>
<text text-anchor="middle" x="213" y="-3434.8" font-family="Times,serif" font-size="14.00">je 0x4000a0e3b0</text>
</g>
<!-- 140&#45;&gt;147 -->
<g id="edge5" class="edge"><title>140&#45;&gt;147</title>
<path fill="none" stroke="black" d="M213,-3770.69C213,-3762.3 213,-3753.79 213,-3745.24"/>
<polygon fill="black" stroke="black" points="216.5,-3745.2 213,-3735.2 209.5,-3745.2 216.5,-3745.2"/>
</g>
<!-- 148 -->
<g id="node7" class="node"><title>148</title>
<polygon fill="none" stroke="black" points="299,-3391 127,-3391 127,-3308 299,-3308 299,-3391"/>
<text text-anchor="middle" x="213" y="-3375.8" font-family="Times,serif" font-size="14.00">0x4000a0e3b0</text>
<text text-anchor="middle" x="213" y="-3360.8" font-family="Times,serif" font-size="14.00">_______________________</text>
<text text-anchor="middle" x="213" y="-3345.8" font-family="Times,serif" font-size="14.00">_______________________</text>
<text text-anchor="middle" x="213" y="-3330.8" font-family="Times,serif" font-size="14.00">movl $1, 0x3cc(%r14)</text>
<text text-anchor="middle" x="213" y="-3315.8" font-family="Times,serif" font-size="14.00">jmp 0x4000a0e249</text>
</g>
<!-- 147&#45;&gt;148 -->
<g id="edge6" class="edge"><title>147&#45;&gt;148</title>
<path fill="none" stroke="black" d="M213,-3426.92C213,-3418 213,-3409.43 213,-3401.46"/>
<polygon fill="black" stroke="black" points="216.5,-3401.36 213,-3391.36 209.5,-3401.36 216.5,-3401.36"/>
</g>
<!-- 149 -->
<g id="node8" class="node"><title>149</title>
<polygon fill="none" stroke="black" points="299,-3272 127,-3272 127,-3159 299,-3159 299,-3272"/>
<text text-anchor="middle" x="213" y="-3256.8" font-family="Times,serif" font-size="14.00">0x4000a0e249</text>
<text text-anchor="middle" x="213" y="-3241.8" font-family="Times,serif" font-size="14.00">_______________________</text>
<text text-anchor="middle" x="213" y="-3226.8" font-family="Times,serif" font-size="14.00">_______________________</text>
<text text-anchor="middle" x="213" y="-3211.8" font-family="Times,serif" font-size="14.00">testl %r15d, %r15d</text>
<text text-anchor="middle" x="213" y="-3196.8" font-family="Times,serif" font-size="14.00">movq %r13, 0x2d8(%r14)</text>
<text text-anchor="middle" x="213" y="-3181.8" font-family="Times,serif" font-size="14.00">movq %rbp, 0x30(%r14)</text>
<text text-anchor="middle" x="213" y="-3166.8" font-family="Times,serif" font-size="14.00">je 0x4000a0e27c</text>
</g>
<!-- 148&#45;&gt;149 -->
<g id="edge7" class="edge"><title>148&#45;&gt;149</title>
<path fill="none" stroke="black" d="M213,-3307.82C213,-3299.76 213,-3291.11 213,-3282.46"/>
<polygon fill="black" stroke="black" points="216.5,-3282.34 213,-3272.34 209.5,-3282.34 216.5,-3282.34"/>
</g>
<!-- 150 -->
<g id="node9" class="node"><title>150</title>
<polygon fill="none" stroke="black" points="233,-3123 61,-3123 61,-2980 233,-2980 233,-3123"/>
<text text-anchor="middle" x="147" y="-3107.8" font-family="Times,serif" font-size="14.00">0x4000a0e259</text>
<text text-anchor="middle" x="147" y="-3092.8" font-family="Times,serif" font-size="14.00">_______________________</text>
<text text-anchor="middle" x="147" y="-3077.8" font-family="Times,serif" font-size="14.00">_______________________</text>
<text text-anchor="middle" x="147" y="-3062.8" font-family="Times,serif" font-size="14.00">leal &#45;1(%r15), %esi</text>
<text text-anchor="middle" x="147" y="-3047.8" font-family="Times,serif" font-size="14.00">leaq 0x470(%r14), %rax</text>
<text text-anchor="middle" x="147" y="-3032.8" font-family="Times,serif" font-size="14.00">addq $0x48, %rsi</text>
<text text-anchor="middle" x="147" y="-3017.8" font-family="Times,serif" font-size="14.00">shlq $4, %rsi</text>
<text text-anchor="middle" x="147" y="-3002.8" font-family="Times,serif" font-size="14.00">addq %r14, %rsi</text>
<text text-anchor="middle" x="147" y="-2987.8" font-family="Times,serif" font-size="14.00">nop </text>
</g>
<!-- 149&#45;&gt;150 -->
<g id="edge8" class="edge"><title>149&#45;&gt;150</title>
<path fill="none" stroke="black" d="M190.287,-3158.75C186.864,-3150.35 183.277,-3141.54 179.694,-3132.75"/>
<polygon fill="black" stroke="black" points="182.832,-3131.17 175.817,-3123.23 176.349,-3133.81 182.832,-3131.17"/>
</g>
<!-- 152 -->
<g id="node10" class="node"><title>152</title>
<polygon fill="none" stroke="black" points="290,-2795 118,-2795 118,-2607 290,-2607 290,-2795"/>
<text text-anchor="middle" x="204" y="-2779.8" font-family="Times,serif" font-size="14.00">0x4000a0e27c</text>
<text text-anchor="middle" x="204" y="-2764.8" font-family="Times,serif" font-size="14.00">_______________________</text>
<text text-anchor="middle" x="204" y="-2749.8" font-family="Times,serif" font-size="14.00">_______________________</text>
<text text-anchor="middle" x="204" y="-2734.8" font-family="Times,serif" font-size="14.00">leaq 0x358(%r14), %rax</text>
<text text-anchor="middle" x="204" y="-2719.8" font-family="Times,serif" font-size="14.00">leaq 0x217db6(%rip), %rsi</text>
<text text-anchor="middle" x="204" y="-2704.8" font-family="Times,serif" font-size="14.00">movq $4, 0x378(%r14)</text>
<text text-anchor="middle" x="204" y="-2689.8" font-family="Times,serif" font-size="14.00">movq %rax, 0x380(%r14)</text>
<text text-anchor="middle" x="204" y="-2674.8" font-family="Times,serif" font-size="14.00">leaq (%rbp, %rbp, 8), %rax</text>
<text text-anchor="middle" x="204" y="-2659.8" font-family="Times,serif" font-size="14.00">shlq $4, %rax</text>
<text text-anchor="middle" x="204" y="-2644.8" font-family="Times,serif" font-size="14.00">movq (%rsi, %rax), %rax</text>
<text text-anchor="middle" x="204" y="-2629.8" font-family="Times,serif" font-size="14.00">testq %rax, %rax</text>
<text text-anchor="middle" x="204" y="-2614.8" font-family="Times,serif" font-size="14.00">je 0x4000a0e460</text>
</g>
<!-- 149&#45;&gt;152 -->
<g id="edge9" class="edge"><title>149&#45;&gt;152</title>
<path fill="none" stroke="black" d="M233.105,-3158.94C236.642,-3147.21 239.869,-3134.81 242,-3123 265.064,-2995.23 273.567,-2958.86 251,-2831 249.48,-2822.39 247.43,-2813.59 245.034,-2804.85"/>
<polygon fill="black" stroke="black" points="248.328,-2803.64 242.19,-2795.01 241.603,-2805.58 248.328,-2803.64"/>
</g>
<!-- 151 -->
<g id="node11" class="node"><title>151</title>
<polygon fill="none" stroke="black" points="224,-2944 52,-2944 52,-2831 224,-2831 224,-2944"/>
<text text-anchor="middle" x="138" y="-2928.8" font-family="Times,serif" font-size="14.00">0x4000a0e270</text>
<text text-anchor="middle" x="138" y="-2913.8" font-family="Times,serif" font-size="14.00">_______________________</text>
<text text-anchor="middle" x="138" y="-2898.8" font-family="Times,serif" font-size="14.00">_______________________</text>
<text text-anchor="middle" x="138" y="-2883.8" font-family="Times,serif" font-size="14.00">movq %r14, (%rax)</text>
<text text-anchor="middle" x="138" y="-2868.8" font-family="Times,serif" font-size="14.00">addq $0x10, %rax</text>
<text text-anchor="middle" x="138" y="-2853.8" font-family="Times,serif" font-size="14.00">cmpq %rax, %rsi</text>
<text text-anchor="middle" x="138" y="-2838.8" font-family="Times,serif" font-size="14.00">jne 0x4000a0e270</text>
</g>
<!-- 150&#45;&gt;151 -->
<g id="edge10" class="edge"><title>150&#45;&gt;151</title>
<path fill="none" stroke="black" d="M143.079,-2979.92C142.607,-2971.43 142.127,-2962.79 141.66,-2954.37"/>
<polygon fill="black" stroke="black" points="145.146,-2954.03 141.097,-2944.24 138.157,-2954.42 145.146,-2954.03"/>
</g>
<!-- 153 -->
<g id="node12" class="node"><title>153</title>
<polygon fill="none" stroke="black" points="195,-2556 23,-2556 23,-2473 195,-2473 195,-2556"/>
<text text-anchor="middle" x="109" y="-2540.8" font-family="Times,serif" font-size="14.00">0x4000a0e460</text>
<text text-anchor="middle" x="109" y="-2525.8" font-family="Times,serif" font-size="14.00">_______________________</text>
<text text-anchor="middle" x="109" y="-2510.8" font-family="Times,serif" font-size="14.00">_______________________</text>
<text text-anchor="middle" x="109" y="-2495.8" font-family="Times,serif" font-size="14.00">testq %r13, %r13</text>
<text text-anchor="middle" x="109" y="-2480.8" font-family="Times,serif" font-size="14.00">je 0x4000a0e48d</text>
</g>
<!-- 152&#45;&gt;153 -->
<g id="edge13" class="edge"><title>152&#45;&gt;153</title>
<path fill="none" stroke="black" d="M156.083,-2606.94C148.661,-2592.53 141.253,-2578.14 134.584,-2565.19"/>
<polygon fill="black" stroke="black" points="137.558,-2563.32 129.868,-2556.03 131.335,-2566.52 137.558,-2563.32"/>
</g>
<!-- 588 -->
<g id="node13" class="node"><title>588</title>
<polygon fill="none" stroke="black" points="385,-2571 213,-2571 213,-2458 385,-2458 385,-2571"/>
<text text-anchor="middle" x="299" y="-2555.8" font-family="Times,serif" font-size="14.00">0x4000a0e2b2</text>
<text text-anchor="middle" x="299" y="-2540.8" font-family="Times,serif" font-size="14.00">_______________________</text>
<text text-anchor="middle" x="299" y="-2525.8" font-family="Times,serif" font-size="14.00">_______________________</text>
<text text-anchor="middle" x="299" y="-2510.8" font-family="Times,serif" font-size="14.00">addq $0x2b8, %rax</text>
<text text-anchor="middle" x="299" y="-2495.8" font-family="Times,serif" font-size="14.00">testq %r13, %r13</text>
<text text-anchor="middle" x="299" y="-2480.8" font-family="Times,serif" font-size="14.00">movq %rax, 0x358(%r14)</text>
<text text-anchor="middle" x="299" y="-2465.8" font-family="Times,serif" font-size="14.00">je 0x4000a0e450</text>
</g>
<!-- 152&#45;&gt;588 -->
<g id="edge14" class="edge"><title>152&#45;&gt;588</title>
<path fill="none" stroke="black" d="M251.917,-2606.94C256.572,-2597.9 261.221,-2588.87 265.686,-2580.2"/>
<polygon fill="black" stroke="black" points="268.799,-2581.8 270.265,-2571.31 262.576,-2578.59 268.799,-2581.8"/>
</g>
<!-- 151&#45;&gt;152 -->
<g id="edge12" class="edge"><title>151&#45;&gt;152</title>
<path fill="none" stroke="black" d="M157.892,-2830.89C160.906,-2822.47 164.094,-2813.55 167.33,-2804.51"/>
<polygon fill="black" stroke="black" points="170.642,-2805.64 170.715,-2795.05 164.051,-2803.28 170.642,-2805.64"/>
</g>
<!-- 151&#45;&gt;151 -->
<g id="edge11" class="edge"><title>151&#45;&gt;151</title>
<path fill="none" stroke="black" d="M224.077,-2914.28C234.886,-2909.56 242,-2900.63 242,-2887.5 242,-2878.27 238.483,-2871.11 232.638,-2866.04"/>
<polygon fill="black" stroke="black" points="234.419,-2863.02 224.077,-2860.72 230.726,-2868.97 234.419,-2863.02"/>
</g>
<!-- 154 -->
<g id="node14" class="node"><title>154</title>
<polygon fill="none" stroke="black" points="189,-2422 17,-2422 17,-2339 189,-2339 189,-2422"/>
<text text-anchor="middle" x="103" y="-2406.8" font-family="Times,serif" font-size="14.00">0x4000a0e48d</text>
<text text-anchor="middle" x="103" y="-2391.8" font-family="Times,serif" font-size="14.00">_______________________</text>
<text text-anchor="middle" x="103" y="-2376.8" font-family="Times,serif" font-size="14.00">_______________________</text>
<text text-anchor="middle" x="103" y="-2361.8" font-family="Times,serif" font-size="14.00">movq %r14, %r13</text>
<text text-anchor="middle" x="103" y="-2346.8" font-family="Times,serif" font-size="14.00">jmp 0x4000a0e2e7</text>
</g>
<!-- 153&#45;&gt;154 -->
<g id="edge15" class="edge"><title>153&#45;&gt;154</title>
<path fill="none" stroke="black" d="M107.151,-2472.82C106.569,-2460.02 105.919,-2445.73 105.31,-2432.32"/>
<polygon fill="black" stroke="black" points="108.804,-2432.11 104.853,-2422.27 101.811,-2432.42 108.804,-2432.11"/>
</g>
<!-- 589 -->
<g id="node18" class="node"><title>589</title>
<polygon fill="none" stroke="black" points="385,-2422 213,-2422 213,-2339 385,-2339 385,-2422"/>
<text text-anchor="middle" x="299" y="-2406.8" font-family="Times,serif" font-size="14.00">0x4000a0e2c8</text>
<text text-anchor="middle" x="299" y="-2391.8" font-family="Times,serif" font-size="14.00">_______________________</text>
<text text-anchor="middle" x="299" y="-2376.8" font-family="Times,serif" font-size="14.00">_______________________</text>
<text text-anchor="middle" x="299" y="-2361.8" font-family="Times,serif" font-size="14.00">movl $1, %esi</text>
<text text-anchor="middle" x="299" y="-2346.8" font-family="Times,serif" font-size="14.00">jmp 0x4000a0e2d3</text>
</g>
<!-- 588&#45;&gt;589 -->
<g id="edge18" class="edge"><title>588&#45;&gt;589</title>
<path fill="none" stroke="black" d="M299,-2457.9C299,-2449.39 299,-2440.63 299,-2432.23"/>
<polygon fill="black" stroke="black" points="302.5,-2432.19 299,-2422.19 295.5,-2432.19 302.5,-2432.19"/>
</g>
<!-- 155 -->
<g id="node15" class="node"><title>155</title>
<polygon fill="none" stroke="black" points="198,-2169 0,-2169 0,-2071 198,-2071 198,-2169"/>
<text text-anchor="middle" x="99" y="-2153.8" font-family="Times,serif" font-size="14.00">0x4000a0e2e7</text>
<text text-anchor="middle" x="99" y="-2138.8" font-family="Times,serif" font-size="14.00">_______________________</text>
<text text-anchor="middle" x="99" y="-2123.8" font-family="Times,serif" font-size="14.00">_______________________</text>
<text text-anchor="middle" x="99" y="-2108.8" font-family="Times,serif" font-size="14.00">leaq 0x2b8(%r13), %rcx</text>
<text text-anchor="middle" x="99" y="-2093.8" font-family="Times,serif" font-size="14.00">xorl %eax, %eax</text>
<text text-anchor="middle" x="99" y="-2078.8" font-family="Times,serif" font-size="14.00">movq %rcx, 0x358(%r14, %rax)</text>
</g>
<!-- 154&#45;&gt;155 -->
<g id="edge16" class="edge"><title>154&#45;&gt;155</title>
<path fill="none" stroke="black" d="M102.371,-2338.83C101.707,-2295.95 100.656,-2228.02 99.904,-2179.42"/>
<polygon fill="black" stroke="black" points="103.403,-2179.3 99.7483,-2169.36 96.4035,-2179.41 103.403,-2179.3"/>
</g>
<!-- 593 -->
<g id="node16" class="node"><title>593</title>
<polygon fill="none" stroke="black" points="297,-1886 125,-1886 125,-1758 297,-1758 297,-1886"/>
<text text-anchor="middle" x="211" y="-1870.8" font-family="Times,serif" font-size="14.00">0x4000a0e2f8</text>
<text text-anchor="middle" x="211" y="-1855.8" font-family="Times,serif" font-size="14.00">_______________________</text>
<text text-anchor="middle" x="211" y="-1840.8" font-family="Times,serif" font-size="14.00">_______________________</text>
<text text-anchor="middle" x="211" y="-1825.8" font-family="Times,serif" font-size="14.00">leaq 0x2b8(%r14), %rax</text>
<text text-anchor="middle" x="211" y="-1810.8" font-family="Times,serif" font-size="14.00">testb %dl, %dl</text>
<text text-anchor="middle" x="211" y="-1795.8" font-family="Times,serif" font-size="14.00">movb %dl, 0x18(%rsp)</text>
<text text-anchor="middle" x="211" y="-1780.8" font-family="Times,serif" font-size="14.00">movq %rax, 0x388(%r14)</text>
<text text-anchor="middle" x="211" y="-1765.8" font-family="Times,serif" font-size="14.00">je 0x4000a0e397</text>
</g>
<!-- 155&#45;&gt;593 -->
<g id="edge17" class="edge"><title>155&#45;&gt;593</title>
<path fill="none" stroke="black" d="M117.244,-2070.78C135.196,-2023.34 162.837,-1950.29 183.462,-1895.78"/>
<polygon fill="black" stroke="black" points="186.832,-1896.76 187.097,-1886.17 180.285,-1894.29 186.832,-1896.76"/>
</g>
<!-- 156 -->
<g id="node17" class="node"><title>156</title>
<polygon fill="none" stroke="black" points="344,-188 172,-188 172,-0 344,-0 344,-188"/>
<text text-anchor="middle" x="258" y="-172.8" font-family="Times,serif" font-size="14.00">0x4000a0e397</text>
<text text-anchor="middle" x="258" y="-157.8" font-family="Times,serif" font-size="14.00">_______________________</text>
<text text-anchor="middle" x="258" y="-142.8" font-family="Times,serif" font-size="14.00">_______________________</text>
<text text-anchor="middle" x="258" y="-127.8" font-family="Times,serif" font-size="14.00">addq $0x28, %rsp</text>
<text text-anchor="middle" x="258" y="-112.8" font-family="Times,serif" font-size="14.00">movq %r14, %rax</text>
<text text-anchor="middle" x="258" y="-97.8" font-family="Times,serif" font-size="14.00">popq %rbx</text>
<text text-anchor="middle" x="258" y="-82.8" font-family="Times,serif" font-size="14.00">popq %rbp</text>
<text text-anchor="middle" x="258" y="-67.8" font-family="Times,serif" font-size="14.00">popq %r12</text>
<text text-anchor="middle" x="258" y="-52.8" font-family="Times,serif" font-size="14.00">popq %r13</text>
<text text-anchor="middle" x="258" y="-37.8" font-family="Times,serif" font-size="14.00">popq %r14</text>
<text text-anchor="middle" x="258" y="-22.8" font-family="Times,serif" font-size="14.00">popq %r15</text>
<text text-anchor="middle" x="258" y="-7.8" font-family="Times,serif" font-size="14.00">retq </text>
</g>
<!-- 593&#45;&gt;156 -->
<g id="edge23" class="edge"><title>593&#45;&gt;156</title>
<path fill="none" stroke="black" d="M183.704,-1757.93C179.504,-1746.17 175.68,-1733.85 173,-1722 149.201,-1616.77 154,-1587.89 154,-1480 154,-1480 154,-1480 154,-383.5 154,-319.077 177.234,-251.102 201.739,-197.325"/>
<polygon fill="black" stroke="black" points="204.967,-198.682 206,-188.138 198.617,-195.737 204.967,-198.682"/>
</g>
<!-- 594 -->
<g id="node22" class="node"><title>594</title>
<polygon fill="none" stroke="black" points="354,-1722 182,-1722 182,-1594 354,-1594 354,-1722"/>
<text text-anchor="middle" x="268" y="-1706.8" font-family="Times,serif" font-size="14.00">0x4000a0e312</text>
<text text-anchor="middle" x="268" y="-1691.8" font-family="Times,serif" font-size="14.00">_______________________</text>
<text text-anchor="middle" x="268" y="-1676.8" font-family="Times,serif" font-size="14.00">_______________________</text>
<text text-anchor="middle" x="268" y="-1661.8" font-family="Times,serif" font-size="14.00">movq (%rsp), %rdi</text>
<text text-anchor="middle" x="268" y="-1646.8" font-family="Times,serif" font-size="14.00">xorl %r15d, %r15d</text>
<text text-anchor="middle" x="268" y="-1631.8" font-family="Times,serif" font-size="14.00">callq 0x4000a1df70</text>
<text text-anchor="middle" x="268" y="-1616.8" font-family="Times,serif" font-size="14.00">_______________________</text>
<text text-anchor="middle" x="268" y="-1601.8" font-family="Times,serif" font-size="14.00">CALL 0x4000a1df70</text>
</g>
<!-- 593&#45;&gt;594 -->
<g id="edge24" class="edge"><title>593&#45;&gt;594</title>
<path fill="none" stroke="black" d="M233.201,-1757.9C236.231,-1749.29 239.361,-1740.39 242.445,-1731.63"/>
<polygon fill="black" stroke="black" points="245.748,-1732.79 245.766,-1722.19 239.145,-1730.46 245.748,-1732.79"/>
</g>
<!-- 590 -->
<g id="node19" class="node"><title>590</title>
<polygon fill="none" stroke="black" points="387,-2303 215,-2303 215,-2205 387,-2205 387,-2303"/>
<text text-anchor="middle" x="301" y="-2287.8" font-family="Times,serif" font-size="14.00">0x4000a0e2d3</text>
<text text-anchor="middle" x="301" y="-2272.8" font-family="Times,serif" font-size="14.00">_______________________</text>
<text text-anchor="middle" x="301" y="-2257.8" font-family="Times,serif" font-size="14.00">_______________________</text>
<text text-anchor="middle" x="301" y="-2242.8" font-family="Times,serif" font-size="14.00">movq 0x2d8(%r13), %rax</text>
<text text-anchor="middle" x="301" y="-2227.8" font-family="Times,serif" font-size="14.00">testq %rax, %rax</text>
<text text-anchor="middle" x="301" y="-2212.8" font-family="Times,serif" font-size="14.00">jne 0x4000a0e2d0</text>
</g>
<!-- 589&#45;&gt;590 -->
<g id="edge19" class="edge"><title>589&#45;&gt;590</title>
<path fill="none" stroke="black" d="M299.655,-2338.73C299.786,-2330.58 299.926,-2321.86 300.064,-2313.25"/>
<polygon fill="black" stroke="black" points="303.564,-2313.28 300.225,-2303.22 296.565,-2313.17 303.564,-2313.28"/>
</g>
<!-- 591 -->
<g id="node20" class="node"><title>591</title>
<polygon fill="none" stroke="black" points="388,-2161.5 216,-2161.5 216,-2078.5 388,-2078.5 388,-2161.5"/>
<text text-anchor="middle" x="302" y="-2146.3" font-family="Times,serif" font-size="14.00">0x4000a0e2df</text>
<text text-anchor="middle" x="302" y="-2131.3" font-family="Times,serif" font-size="14.00">_______________________</text>
<text text-anchor="middle" x="302" y="-2116.3" font-family="Times,serif" font-size="14.00">_______________________</text>
<text text-anchor="middle" x="302" y="-2101.3" font-family="Times,serif" font-size="14.00">testl %esi, %esi</text>
<text text-anchor="middle" x="302" y="-2086.3" font-family="Times,serif" font-size="14.00">jne 0x4000a0e3c0</text>
</g>
<!-- 590&#45;&gt;591 -->
<g id="edge20" class="edge"><title>590&#45;&gt;591</title>
<path fill="none" stroke="black" d="M301.364,-2204.97C301.445,-2194.25 301.532,-2182.84 301.614,-2171.99"/>
<polygon fill="black" stroke="black" points="305.115,-2171.84 301.691,-2161.82 298.115,-2171.79 305.115,-2171.84"/>
</g>
<!-- 592 -->
<g id="node21" class="node"><title>592</title>
<polygon fill="none" stroke="black" points="365,-2035 193,-2035 193,-1922 365,-1922 365,-2035"/>
<text text-anchor="middle" x="279" y="-2019.8" font-family="Times,serif" font-size="14.00">0x4000a0e3c0</text>
<text text-anchor="middle" x="279" y="-2004.8" font-family="Times,serif" font-size="14.00">_______________________</text>
<text text-anchor="middle" x="279" y="-1989.8" font-family="Times,serif" font-size="14.00">_______________________</text>
<text text-anchor="middle" x="279" y="-1974.8" font-family="Times,serif" font-size="14.00">movq 0x358(%r14), %rax</text>
<text text-anchor="middle" x="279" y="-1959.8" font-family="Times,serif" font-size="14.00">leaq 0x2b8(%r13), %rcx</text>
<text text-anchor="middle" x="279" y="-1944.8" font-family="Times,serif" font-size="14.00">cmpq %rax, %rcx</text>
<text text-anchor="middle" x="279" y="-1929.8" font-family="Times,serif" font-size="14.00">je 0x4000a0e2f8</text>
</g>
<!-- 591&#45;&gt;592 -->
<g id="edge21" class="edge"><title>591&#45;&gt;592</title>
<path fill="none" stroke="black" d="M295.286,-2078.28C293.563,-2067.83 291.665,-2056.32 289.793,-2044.96"/>
<polygon fill="black" stroke="black" points="293.24,-2044.35 288.159,-2035.05 286.333,-2045.49 293.24,-2044.35"/>
</g>
<!-- 592&#45;&gt;593 -->
<g id="edge22" class="edge"><title>592&#45;&gt;593</title>
<path fill="none" stroke="black" d="M254.45,-1921.72C250.667,-1913.13 246.714,-1904.14 242.8,-1895.25"/>
<polygon fill="black" stroke="black" points="245.976,-1893.78 238.744,-1886.04 239.569,-1896.6 245.976,-1893.78"/>
</g>
<!-- 595 -->
<g id="node23" class="node"><title>595</title>
<polygon fill="none" stroke="black" points="354,-1558 182,-1558 182,-1400 354,-1400 354,-1558"/>
<text text-anchor="middle" x="268" y="-1542.8" font-family="Times,serif" font-size="14.00">0x4000a0e31e</text>
<text text-anchor="middle" x="268" y="-1527.8" font-family="Times,serif" font-size="14.00">_______________________</text>
<text text-anchor="middle" x="268" y="-1512.8" font-family="Times,serif" font-size="14.00">_______________________</text>
<text text-anchor="middle" x="268" y="-1497.8" font-family="Times,serif" font-size="14.00">movzbl 0x18(%rsp), %edx</text>
<text text-anchor="middle" x="268" y="-1482.8" font-family="Times,serif" font-size="14.00">movq %rax, %r12</text>
<text text-anchor="middle" x="268" y="-1467.8" font-family="Times,serif" font-size="14.00">leaq 1(%rax), %rax</text>
<text text-anchor="middle" x="268" y="-1452.8" font-family="Times,serif" font-size="14.00">movq %rax, 8(%rsp)</text>
<text text-anchor="middle" x="268" y="-1437.8" font-family="Times,serif" font-size="14.00">movq %rax, %rbx</text>
<text text-anchor="middle" x="268" y="-1422.8" font-family="Times,serif" font-size="14.00">cmpb $0x2f, %dl</text>
<text text-anchor="middle" x="268" y="-1407.8" font-family="Times,serif" font-size="14.00">jne 0x4000a0e367</text>
</g>
<!-- 594&#45;&gt;595 -->
<g id="edge25" class="edge"><title>594&#45;&gt;595</title>
<path fill="none" stroke="black" d="M268,-1593.6C268,-1585.33 268,-1576.74 268,-1568.15"/>
<polygon fill="black" stroke="black" points="271.5,-1568.1 268,-1558.1 264.5,-1568.1 271.5,-1568.1"/>
</g>
<!-- 596 -->
<g id="node24" class="node"><title>596</title>
<polygon fill="none" stroke="black" points="354,-1364 182,-1364 182,-1296 354,-1296 354,-1364"/>
<text text-anchor="middle" x="268" y="-1348.8" font-family="Times,serif" font-size="14.00">0x4000a0e337</text>
<text text-anchor="middle" x="268" y="-1333.8" font-family="Times,serif" font-size="14.00">_______________________</text>
<text text-anchor="middle" x="268" y="-1318.8" font-family="Times,serif" font-size="14.00">_______________________</text>
<text text-anchor="middle" x="268" y="-1303.8" font-family="Times,serif" font-size="14.00">jmp 0x4000a0e46c</text>
</g>
<!-- 595&#45;&gt;596 -->
<g id="edge26" class="edge"><title>595&#45;&gt;596</title>
<path fill="none" stroke="black" d="M268,-1399.77C268,-1391.09 268,-1382.5 268,-1374.49"/>
<polygon fill="black" stroke="black" points="271.5,-1374.32 268,-1364.32 264.5,-1374.32 271.5,-1374.32"/>
</g>
<!-- 597 -->
<g id="node25" class="node"><title>597</title>
<polygon fill="none" stroke="black" points="354,-1260 182,-1260 182,-1132 354,-1132 354,-1260"/>
<text text-anchor="middle" x="268" y="-1244.8" font-family="Times,serif" font-size="14.00">0x4000a0e46c</text>
<text text-anchor="middle" x="268" y="-1229.8" font-family="Times,serif" font-size="14.00">_______________________</text>
<text text-anchor="middle" x="268" y="-1214.8" font-family="Times,serif" font-size="14.00">_______________________</text>
<text text-anchor="middle" x="268" y="-1199.8" font-family="Times,serif" font-size="14.00">movq %rax, %rdi</text>
<text text-anchor="middle" x="268" y="-1184.8" font-family="Times,serif" font-size="14.00">callq 0x4000a03a40</text>
<text text-anchor="middle" x="268" y="-1169.8" font-family="Times,serif" font-size="14.00">_______________________</text>
<text text-anchor="middle" x="268" y="-1154.8" font-family="Times,serif" font-size="14.00">CALL calloc</text>
<text text-anchor="middle" x="268" y="-1139.8" font-family="Times,serif" font-size="14.00">CALL 0x4000a03a40</text>
</g>
<!-- 596&#45;&gt;597 -->
<g id="edge27" class="edge"><title>596&#45;&gt;597</title>
<path fill="none" stroke="black" d="M268,-1295.69C268,-1287.81 268,-1279.1 268,-1270.21"/>
<polygon fill="black" stroke="black" points="271.5,-1270.14 268,-1260.14 264.5,-1270.14 271.5,-1270.14"/>
</g>
<!-- 598 -->
<g id="node26" class="node"><title>598</title>
<polygon fill="none" stroke="black" points="354,-1096 182,-1096 182,-998 354,-998 354,-1096"/>
<text text-anchor="middle" x="268" y="-1080.8" font-family="Times,serif" font-size="14.00">0x4000a0e474</text>
<text text-anchor="middle" x="268" y="-1065.8" font-family="Times,serif" font-size="14.00">_______________________</text>
<text text-anchor="middle" x="268" y="-1050.8" font-family="Times,serif" font-size="14.00">_______________________</text>
<text text-anchor="middle" x="268" y="-1035.8" font-family="Times,serif" font-size="14.00">testq %rax, %rax</text>
<text text-anchor="middle" x="268" y="-1020.8" font-family="Times,serif" font-size="14.00">movq %rax, %r13</text>
<text text-anchor="middle" x="268" y="-1005.8" font-family="Times,serif" font-size="14.00">je 0x4000a0e481</text>
</g>
<!-- 597&#45;&gt;598 -->
<g id="edge28" class="edge"><title>597&#45;&gt;598</title>
<path fill="none" stroke="black" d="M268,-1131.81C268,-1123.29 268,-1114.58 268,-1106.15"/>
<polygon fill="black" stroke="black" points="271.5,-1106.04 268,-1096.04 264.5,-1106.04 271.5,-1106.04"/>
</g>
<!-- 599 -->
<g id="node27" class="node"><title>599</title>
<polygon fill="none" stroke="black" points="354,-962 182,-962 182,-879 354,-879 354,-962"/>
<text text-anchor="middle" x="268" y="-946.8" font-family="Times,serif" font-size="14.00">0x4000a0e47c</text>
<text text-anchor="middle" x="268" y="-931.8" font-family="Times,serif" font-size="14.00">_______________________</text>
<text text-anchor="middle" x="268" y="-916.8" font-family="Times,serif" font-size="14.00">_______________________</text>
<text text-anchor="middle" x="268" y="-901.8" font-family="Times,serif" font-size="14.00">movq %rax, %rdi</text>
<text text-anchor="middle" x="268" y="-886.8" font-family="Times,serif" font-size="14.00">jmp 0x4000a0e40a</text>
</g>
<!-- 598&#45;&gt;599 -->
<g id="edge29" class="edge"><title>598&#45;&gt;599</title>
<path fill="none" stroke="black" d="M268,-997.865C268,-989.498 268,-980.771 268,-972.335"/>
<polygon fill="black" stroke="black" points="271.5,-972.231 268,-962.231 264.5,-972.231 271.5,-972.231"/>
</g>
<!-- 600 -->
<g id="node28" class="node"><title>600</title>
<polygon fill="none" stroke="black" points="354,-843 182,-843 182,-715 354,-715 354,-843"/>
<text text-anchor="middle" x="268" y="-827.8" font-family="Times,serif" font-size="14.00">0x4000a0e40a</text>
<text text-anchor="middle" x="268" y="-812.8" font-family="Times,serif" font-size="14.00">_______________________</text>
<text text-anchor="middle" x="268" y="-797.8" font-family="Times,serif" font-size="14.00">_______________________</text>
<text text-anchor="middle" x="268" y="-782.8" font-family="Times,serif" font-size="14.00">movq 8(%rsp), %rdx</text>
<text text-anchor="middle" x="268" y="-767.8" font-family="Times,serif" font-size="14.00">movq (%rsp), %rsi</text>
<text text-anchor="middle" x="268" y="-752.8" font-family="Times,serif" font-size="14.00">callq 0x4000a1ea90</text>
<text text-anchor="middle" x="268" y="-737.8" font-family="Times,serif" font-size="14.00">_______________________</text>
<text text-anchor="middle" x="268" y="-722.8" font-family="Times,serif" font-size="14.00">CALL 0x4000a1ea90</text>
</g>
<!-- 599&#45;&gt;600 -->
<g id="edge30" class="edge"><title>599&#45;&gt;600</title>
<path fill="none" stroke="black" d="M268,-878.776C268,-870.741 268,-862.081 268,-853.346"/>
<polygon fill="black" stroke="black" points="271.5,-853.09 268,-843.09 264.5,-853.09 271.5,-853.09"/>
</g>
<!-- 601 -->
<g id="node29" class="node"><title>601</title>
<polygon fill="none" stroke="black" points="354,-679 182,-679 182,-611 354,-611 354,-679"/>
<text text-anchor="middle" x="268" y="-663.8" font-family="Times,serif" font-size="14.00">0x4000a0e418</text>
<text text-anchor="middle" x="268" y="-648.8" font-family="Times,serif" font-size="14.00">_______________________</text>
<text text-anchor="middle" x="268" y="-633.8" font-family="Times,serif" font-size="14.00">_______________________</text>
<text text-anchor="middle" x="268" y="-618.8" font-family="Times,serif" font-size="14.00">jmp 0x4000a0e423</text>
</g>
<!-- 600&#45;&gt;601 -->
<g id="edge31" class="edge"><title>600&#45;&gt;601</title>
<path fill="none" stroke="black" d="M268,-714.706C268,-706.053 268,-697.338 268,-689.156"/>
<polygon fill="black" stroke="black" points="271.5,-689.124 268,-679.124 264.5,-689.124 271.5,-689.124"/>
</g>
<!-- 602 -->
<g id="node30" class="node"><title>602</title>
<polygon fill="none" stroke="black" points="354,-575 182,-575 182,-477 354,-477 354,-575"/>
<text text-anchor="middle" x="268" y="-559.8" font-family="Times,serif" font-size="14.00">0x4000a0e423</text>
<text text-anchor="middle" x="268" y="-544.8" font-family="Times,serif" font-size="14.00">_______________________</text>
<text text-anchor="middle" x="268" y="-529.8" font-family="Times,serif" font-size="14.00">_______________________</text>
<text text-anchor="middle" x="268" y="-514.8" font-family="Times,serif" font-size="14.00">cmpb $0x2f, &#45;1(%rax)</text>
<text text-anchor="middle" x="268" y="-499.8" font-family="Times,serif" font-size="14.00">leaq &#45;1(%rax), %rdx</text>
<text text-anchor="middle" x="268" y="-484.8" font-family="Times,serif" font-size="14.00">jne 0x4000a0e420</text>
</g>
<!-- 601&#45;&gt;602 -->
<g id="edge32" class="edge"><title>601&#45;&gt;602</title>
<path fill="none" stroke="black" d="M268,-610.785C268,-602.822 268,-594.084 268,-585.351"/>
<polygon fill="black" stroke="black" points="271.5,-585.148 268,-575.148 264.5,-585.148 271.5,-585.148"/>
</g>
<!-- 603 -->
<g id="node31" class="node"><title>603</title>
<polygon fill="none" stroke="black" points="354,-433.5 182,-433.5 182,-335.5 354,-335.5 354,-433.5"/>
<text text-anchor="middle" x="268" y="-418.3" font-family="Times,serif" font-size="14.00">0x4000a0e420</text>
<text text-anchor="middle" x="268" y="-403.3" font-family="Times,serif" font-size="14.00">_______________________</text>
<text text-anchor="middle" x="268" y="-388.3" font-family="Times,serif" font-size="14.00">_______________________</text>
<text text-anchor="middle" x="268" y="-373.3" font-family="Times,serif" font-size="14.00">movq %rdx, %rax</text>
<text text-anchor="middle" x="268" y="-358.3" font-family="Times,serif" font-size="14.00">_______________________</text>
<text text-anchor="middle" x="268" y="-343.3" font-family="Times,serif" font-size="14.00">LOOP 0x4000a0e423</text>
</g>
<!-- 602&#45;&gt;603 -->
<g id="edge33" class="edge"><title>602&#45;&gt;603</title>
<path fill="none" stroke="black" d="M261.55,-476.992C261.244,-466.251 261.172,-454.746 261.334,-443.645"/>
<polygon fill="black" stroke="black" points="264.834,-443.669 261.548,-433.596 257.836,-443.52 264.834,-443.669"/>
</g>
<!-- 604 -->
<g id="node32" class="node"><title>604</title>
<polygon fill="none" stroke="black" points="544,-441 372,-441 372,-328 544,-328 544,-441"/>
<text text-anchor="middle" x="458" y="-425.8" font-family="Times,serif" font-size="14.00">0x4000a0e42d</text>
<text text-anchor="middle" x="458" y="-410.8" font-family="Times,serif" font-size="14.00">_______________________</text>
<text text-anchor="middle" x="458" y="-395.8" font-family="Times,serif" font-size="14.00">_______________________</text>
<text text-anchor="middle" x="458" y="-380.8" font-family="Times,serif" font-size="14.00">cmpq %rdx, %r13</text>
<text text-anchor="middle" x="458" y="-365.8" font-family="Times,serif" font-size="14.00">cmoveq %rax, %rdx</text>
<text text-anchor="middle" x="458" y="-350.8" font-family="Times,serif" font-size="14.00">movb $0, (%rdx)</text>
<text text-anchor="middle" x="458" y="-335.8" font-family="Times,serif" font-size="14.00">jmp 0x4000a0e390</text>
</g>
<!-- 602&#45;&gt;604 -->
<g id="edge34" class="edge"><title>602&#45;&gt;604</title>
<path fill="none" stroke="black" d="M333.387,-476.992C346.455,-467.398 360.353,-457.194 373.948,-447.212"/>
<polygon fill="black" stroke="black" points="376.374,-449.773 382.363,-441.033 372.231,-444.13 376.374,-449.773"/>
</g>
<!-- 603&#45;&gt;602 -->
<g id="edge35" class="edge"><title>603&#45;&gt;602</title>
<path fill="none" stroke="black" d="M274.452,-433.596C274.757,-444.341 274.828,-455.847 274.665,-466.947"/>
<polygon fill="black" stroke="black" points="271.165,-466.919 274.45,-476.992 278.163,-467.069 271.165,-466.919"/>
</g>
<!-- 605 -->
<g id="node33" class="node"><title>605</title>
<polygon fill="none" stroke="black" points="449,-292 277,-292 277,-224 449,-224 449,-292"/>
<text text-anchor="middle" x="363" y="-276.8" font-family="Times,serif" font-size="14.00">0x4000a0e390</text>
<text text-anchor="middle" x="363" y="-261.8" font-family="Times,serif" font-size="14.00">_______________________</text>
<text text-anchor="middle" x="363" y="-246.8" font-family="Times,serif" font-size="14.00">_______________________</text>
<text text-anchor="middle" x="363" y="-231.8" font-family="Times,serif" font-size="14.00">movq %r13, 0x338(%r14)</text>
</g>
<!-- 604&#45;&gt;605 -->
<g id="edge36" class="edge"><title>604&#45;&gt;605</title>
<path fill="none" stroke="black" d="M415.502,-327.805C408.463,-318.581 401.277,-309.163 394.569,-300.373"/>
<polygon fill="black" stroke="black" points="397.155,-297.991 388.306,-292.164 391.59,-302.238 397.155,-297.991"/>
</g>
<!-- 605&#45;&gt;156 -->
<g id="edge37" class="edge"><title>605&#45;&gt;156</title>
<path fill="none" stroke="black" d="M341.498,-223.826C336.162,-215.592 330.159,-206.332 323.884,-196.649"/>
<polygon fill="black" stroke="black" points="326.684,-194.535 318.308,-188.047 320.81,-198.342 326.684,-194.535"/>
</g>
</g>
</svg>
