<?xml version="1.0" encoding="UTF-8" standalone="no"?>
<!DOCTYPE svg PUBLIC "-//W3C//DTD SVG 1.1//EN"
 "http://www.w3.org/Graphics/SVG/1.1/DTD/svg11.dtd">
<!-- Generated by graphviz version 2.38.0 (20140413.2041)
 -->
<!-- Title: %3 Pages: 1 -->
<svg width="662pt" height="1225pt"
 viewBox="0.00 0.00 661.50 1225.00" xmlns="http://www.w3.org/2000/svg" xmlns:xlink="http://www.w3.org/1999/xlink">
<g id="graph0" class="graph" transform="scale(1 1) rotate(0) translate(4 1221)">
<title>%3</title>
<polygon fill="white" stroke="none" points="-4,4 -4,-1221 657.5,-1221 657.5,4 -4,4"/>
<!-- 142 -->
<g id="node1" class="node"><title>142</title>
<polygon fill="none" stroke="black" points="414,-874 211,-874 211,-716 414,-716 414,-874"/>
<text text-anchor="middle" x="312.5" y="-858.8" font-family="Times,serif" font-size="14.00">0x4000a1eac0</text>
<text text-anchor="middle" x="312.5" y="-843.8" font-family="Times,serif" font-size="14.00">_______________________</text>
<text text-anchor="middle" x="312.5" y="-828.8" font-family="Times,serif" font-size="14.00">_______________________</text>
<text text-anchor="middle" x="312.5" y="-813.8" font-family="Times,serif" font-size="14.00">cmpb $8, %dl</text>
<text text-anchor="middle" x="312.5" y="-798.8" font-family="Times,serif" font-size="14.00">jae 0x4000a1ead7</text>
<text text-anchor="middle" x="312.5" y="-783.8" font-family="Times,serif" font-size="14.00">_______________________</text>
<text text-anchor="middle" x="312.5" y="-768.8" font-family="Times,serif" font-size="14.00">CALL 0x4000a1eaa0</text>
<text text-anchor="middle" x="312.5" y="-753.8" font-family="Times,serif" font-size="14.00">_______________________</text>
<text text-anchor="middle" x="312.5" y="-738.8" font-family="Times,serif" font-size="14.00">SHARED BLOCK 0x4000a1eaa0</text>
<text text-anchor="middle" x="312.5" y="-723.8" font-family="Times,serif" font-size="14.00">SHARED BLOCK 0x4000a1ea90</text>
</g>
<!-- 143 -->
<g id="node2" class="node"><title>143</title>
<polygon fill="none" stroke="black" points="412,-657.5 209,-657.5 209,-529.5 412,-529.5 412,-657.5"/>
<text text-anchor="middle" x="310.5" y="-642.3" font-family="Times,serif" font-size="14.00">0x4000a1eac5</text>
<text text-anchor="middle" x="310.5" y="-627.3" font-family="Times,serif" font-size="14.00">_______________________</text>
<text text-anchor="middle" x="310.5" y="-612.3" font-family="Times,serif" font-size="14.00">_______________________</text>
<text text-anchor="middle" x="310.5" y="-597.3" font-family="Times,serif" font-size="14.00">cmpb $4, %dl</text>
<text text-anchor="middle" x="310.5" y="-582.3" font-family="Times,serif" font-size="14.00">jae 0x4000a1eae8</text>
<text text-anchor="middle" x="310.5" y="-567.3" font-family="Times,serif" font-size="14.00">_______________________</text>
<text text-anchor="middle" x="310.5" y="-552.3" font-family="Times,serif" font-size="14.00">SHARED BLOCK 0x4000a1eaa0</text>
<text text-anchor="middle" x="310.5" y="-537.3" font-family="Times,serif" font-size="14.00">SHARED BLOCK 0x4000a1ea90</text>
</g>
<!-- 142&#45;&gt;143 -->
<g id="edge1" class="edge"><title>142&#45;&gt;143</title>
<path fill="none" stroke="black" d="M311.715,-715.725C311.557,-699.965 311.392,-683.453 311.236,-667.868"/>
<polygon fill="black" stroke="black" points="314.735,-667.742 311.134,-657.777 307.735,-667.812 314.735,-667.742"/>
</g>
<!-- 144 -->
<g id="node3" class="node"><title>144</title>
<polygon fill="none" stroke="black" points="309,-471 106,-471 106,-343 309,-343 309,-471"/>
<text text-anchor="middle" x="207.5" y="-455.8" font-family="Times,serif" font-size="14.00">0x4000a1eaca</text>
<text text-anchor="middle" x="207.5" y="-440.8" font-family="Times,serif" font-size="14.00">_______________________</text>
<text text-anchor="middle" x="207.5" y="-425.8" font-family="Times,serif" font-size="14.00">_______________________</text>
<text text-anchor="middle" x="207.5" y="-410.8" font-family="Times,serif" font-size="14.00">cmpb $1, %dl</text>
<text text-anchor="middle" x="207.5" y="-395.8" font-family="Times,serif" font-size="14.00">ja 0x4000a1eaf5</text>
<text text-anchor="middle" x="207.5" y="-380.8" font-family="Times,serif" font-size="14.00">_______________________</text>
<text text-anchor="middle" x="207.5" y="-365.8" font-family="Times,serif" font-size="14.00">SHARED BLOCK 0x4000a1eaa0</text>
<text text-anchor="middle" x="207.5" y="-350.8" font-family="Times,serif" font-size="14.00">SHARED BLOCK 0x4000a1ea90</text>
</g>
<!-- 143&#45;&gt;144 -->
<g id="edge2" class="edge"><title>143&#45;&gt;144</title>
<path fill="none" stroke="black" d="M275.197,-529.264C266.353,-513.421 256.799,-496.307 247.734,-480.07"/>
<polygon fill="black" stroke="black" points="250.687,-478.179 242.757,-471.154 244.575,-481.591 250.687,-478.179"/>
</g>
<!-- 284 -->
<g id="node4" class="node"><title>284</title>
<polygon fill="none" stroke="black" points="499.5,-471 327.5,-471 327.5,-343 499.5,-343 499.5,-471"/>
<text text-anchor="middle" x="413.5" y="-455.8" font-family="Times,serif" font-size="14.00">0x4000a1eae8</text>
<text text-anchor="middle" x="413.5" y="-440.8" font-family="Times,serif" font-size="14.00">_______________________</text>
<text text-anchor="middle" x="413.5" y="-425.8" font-family="Times,serif" font-size="14.00">_______________________</text>
<text text-anchor="middle" x="413.5" y="-410.8" font-family="Times,serif" font-size="14.00">movl &#45;4(%rsi, %rdx), %ecx</text>
<text text-anchor="middle" x="413.5" y="-395.8" font-family="Times,serif" font-size="14.00">movl (%rsi), %esi</text>
<text text-anchor="middle" x="413.5" y="-380.8" font-family="Times,serif" font-size="14.00">movl %ecx, &#45;4(%rdi, %rdx)</text>
<text text-anchor="middle" x="413.5" y="-365.8" font-family="Times,serif" font-size="14.00">movl %esi, (%rdi)</text>
<text text-anchor="middle" x="413.5" y="-350.8" font-family="Times,serif" font-size="14.00">retq </text>
</g>
<!-- 143&#45;&gt;284 -->
<g id="edge3" class="edge"><title>143&#45;&gt;284</title>
<path fill="none" stroke="black" d="M345.803,-529.264C354.647,-513.421 364.201,-496.307 373.266,-480.07"/>
<polygon fill="black" stroke="black" points="376.425,-481.591 378.243,-471.154 370.313,-478.179 376.425,-481.591"/>
</g>
<!-- 145 -->
<g id="node5" class="node"><title>145</title>
<polygon fill="none" stroke="black" points="203,-299.5 1.42109e-14,-299.5 1.42109e-14,-186.5 203,-186.5 203,-299.5"/>
<text text-anchor="middle" x="101.5" y="-284.3" font-family="Times,serif" font-size="14.00">0x4000a1eacf</text>
<text text-anchor="middle" x="101.5" y="-269.3" font-family="Times,serif" font-size="14.00">_______________________</text>
<text text-anchor="middle" x="101.5" y="-254.3" font-family="Times,serif" font-size="14.00">_______________________</text>
<text text-anchor="middle" x="101.5" y="-239.3" font-family="Times,serif" font-size="14.00">jb 0x4000a1ead6</text>
<text text-anchor="middle" x="101.5" y="-224.3" font-family="Times,serif" font-size="14.00">_______________________</text>
<text text-anchor="middle" x="101.5" y="-209.3" font-family="Times,serif" font-size="14.00">SHARED BLOCK 0x4000a1eaa0</text>
<text text-anchor="middle" x="101.5" y="-194.3" font-family="Times,serif" font-size="14.00">SHARED BLOCK 0x4000a1ea90</text>
</g>
<!-- 144&#45;&gt;145 -->
<g id="edge4" class="edge"><title>144&#45;&gt;145</title>
<path fill="none" stroke="black" d="M166.214,-342.903C158.756,-331.505 150.972,-319.609 143.494,-308.18"/>
<polygon fill="black" stroke="black" points="146.25,-305.999 137.846,-299.548 140.393,-309.832 146.25,-305.999"/>
</g>
<!-- 281 -->
<g id="node6" class="node"><title>281</title>
<polygon fill="none" stroke="black" points="406.5,-307 220.5,-307 220.5,-179 406.5,-179 406.5,-307"/>
<text text-anchor="middle" x="313.5" y="-291.8" font-family="Times,serif" font-size="14.00">0x4000a1eaf5</text>
<text text-anchor="middle" x="313.5" y="-276.8" font-family="Times,serif" font-size="14.00">_______________________</text>
<text text-anchor="middle" x="313.5" y="-261.8" font-family="Times,serif" font-size="14.00">_______________________</text>
<text text-anchor="middle" x="313.5" y="-246.8" font-family="Times,serif" font-size="14.00">movzwl &#45;2(%rsi, %rdx), %ecx</text>
<text text-anchor="middle" x="313.5" y="-231.8" font-family="Times,serif" font-size="14.00">movzwl (%rsi), %esi</text>
<text text-anchor="middle" x="313.5" y="-216.8" font-family="Times,serif" font-size="14.00">movw %cx, &#45;2(%rdi, %rdx)</text>
<text text-anchor="middle" x="313.5" y="-201.8" font-family="Times,serif" font-size="14.00">movw %si, (%rdi)</text>
<text text-anchor="middle" x="313.5" y="-186.8" font-family="Times,serif" font-size="14.00">retq </text>
</g>
<!-- 144&#45;&gt;281 -->
<g id="edge5" class="edge"><title>144&#45;&gt;281</title>
<path fill="none" stroke="black" d="M248.786,-342.903C254.601,-334.016 260.614,-324.826 266.525,-315.791"/>
<polygon fill="black" stroke="black" points="269.606,-317.476 272.152,-307.192 263.748,-313.643 269.606,-317.476"/>
</g>
<!-- 146 -->
<g id="node7" class="node"><title>146</title>
<polygon fill="none" stroke="black" points="203,-143 1.42109e-14,-143 1.42109e-14,-0 203,-0 203,-143"/>
<text text-anchor="middle" x="101.5" y="-127.8" font-family="Times,serif" font-size="14.00">0x4000a1ead1</text>
<text text-anchor="middle" x="101.5" y="-112.8" font-family="Times,serif" font-size="14.00">_______________________</text>
<text text-anchor="middle" x="101.5" y="-97.8" font-family="Times,serif" font-size="14.00">_______________________</text>
<text text-anchor="middle" x="101.5" y="-82.8" font-family="Times,serif" font-size="14.00">movzbl (%rsi), %ecx</text>
<text text-anchor="middle" x="101.5" y="-67.8" font-family="Times,serif" font-size="14.00">movb %cl, (%rdi)</text>
<text text-anchor="middle" x="101.5" y="-52.8" font-family="Times,serif" font-size="14.00">retq </text>
<text text-anchor="middle" x="101.5" y="-37.8" font-family="Times,serif" font-size="14.00">_______________________</text>
<text text-anchor="middle" x="101.5" y="-22.8" font-family="Times,serif" font-size="14.00">SHARED BLOCK 0x4000a1eaa0</text>
<text text-anchor="middle" x="101.5" y="-7.8" font-family="Times,serif" font-size="14.00">SHARED BLOCK 0x4000a1ea90</text>
</g>
<!-- 145&#45;&gt;146 -->
<g id="edge6" class="edge"><title>145&#45;&gt;146</title>
<path fill="none" stroke="black" d="M101.5,-186.499C101.5,-175.929 101.5,-164.666 101.5,-153.491"/>
<polygon fill="black" stroke="black" points="105,-153.275 101.5,-143.275 98.0001,-153.275 105,-153.275"/>
</g>
<!-- 279 -->
<g id="node8" class="node"><title>279</title>
<polygon fill="none" stroke="black" points="524,-1217 321,-1217 321,-1074 524,-1074 524,-1217"/>
<text text-anchor="middle" x="422.5" y="-1201.8" font-family="Times,serif" font-size="14.00">0x4000a1ea90</text>
<text text-anchor="middle" x="422.5" y="-1186.8" font-family="Times,serif" font-size="14.00">_______________________</text>
<text text-anchor="middle" x="422.5" y="-1171.8" font-family="Times,serif" font-size="14.00">_______________________</text>
<text text-anchor="middle" x="422.5" y="-1156.8" font-family="Times,serif" font-size="14.00">movq %rdi, %rax</text>
<text text-anchor="middle" x="422.5" y="-1141.8" font-family="Times,serif" font-size="14.00">addq %rdx, %rax</text>
<text text-anchor="middle" x="422.5" y="-1126.8" font-family="Times,serif" font-size="14.00">jmp 0x4000a1eaa3</text>
<text text-anchor="middle" x="422.5" y="-1111.8" font-family="Times,serif" font-size="14.00">_______________________</text>
<text text-anchor="middle" x="422.5" y="-1096.8" font-family="Times,serif" font-size="14.00">SHARED BLOCK 0x4000a1eaa0</text>
<text text-anchor="middle" x="422.5" y="-1081.8" font-family="Times,serif" font-size="14.00">SHARED BLOCK 0x4000a1ea90</text>
</g>
<!-- 280 -->
<g id="node9" class="node"><title>280</title>
<polygon fill="none" stroke="black" points="524,-1038 321,-1038 321,-910 524,-910 524,-1038"/>
<text text-anchor="middle" x="422.5" y="-1022.8" font-family="Times,serif" font-size="14.00">0x4000a1eaa3</text>
<text text-anchor="middle" x="422.5" y="-1007.8" font-family="Times,serif" font-size="14.00">_______________________</text>
<text text-anchor="middle" x="422.5" y="-992.8" font-family="Times,serif" font-size="14.00">_______________________</text>
<text text-anchor="middle" x="422.5" y="-977.8" font-family="Times,serif" font-size="14.00">cmpq $0x10, %rdx</text>
<text text-anchor="middle" x="422.5" y="-962.8" font-family="Times,serif" font-size="14.00">jb 0x4000a1eac0</text>
<text text-anchor="middle" x="422.5" y="-947.8" font-family="Times,serif" font-size="14.00">_______________________</text>
<text text-anchor="middle" x="422.5" y="-932.8" font-family="Times,serif" font-size="14.00">SHARED BLOCK 0x4000a1eaa0</text>
<text text-anchor="middle" x="422.5" y="-917.8" font-family="Times,serif" font-size="14.00">SHARED BLOCK 0x4000a1ea90</text>
</g>
<!-- 279&#45;&gt;280 -->
<g id="edge7" class="edge"><title>279&#45;&gt;280</title>
<path fill="none" stroke="black" d="M422.5,-1073.6C422.5,-1065.21 422.5,-1056.64 422.5,-1048.23"/>
<polygon fill="black" stroke="black" points="426,-1048.06 422.5,-1038.06 419,-1048.06 426,-1048.06"/>
</g>
<!-- 280&#45;&gt;142 -->
<g id="edge8" class="edge"><title>280&#45;&gt;142</title>
<path fill="none" stroke="black" d="M383.098,-909.599C377.679,-900.879 372.04,-891.805 366.415,-882.755"/>
<polygon fill="black" stroke="black" points="369.286,-880.744 361.035,-874.098 363.341,-884.439 369.286,-880.744"/>
</g>
<!-- 511 -->
<g id="node10" class="node"><title>511</title>
<polygon fill="none" stroke="black" points="640,-859 437,-859 437,-731 640,-731 640,-859"/>
<text text-anchor="middle" x="538.5" y="-843.8" font-family="Times,serif" font-size="14.00">0x4000a1eaa9</text>
<text text-anchor="middle" x="538.5" y="-828.8" font-family="Times,serif" font-size="14.00">_______________________</text>
<text text-anchor="middle" x="538.5" y="-813.8" font-family="Times,serif" font-size="14.00">_______________________</text>
<text text-anchor="middle" x="538.5" y="-798.8" font-family="Times,serif" font-size="14.00">cmpq $0x20, %rdx</text>
<text text-anchor="middle" x="538.5" y="-783.8" font-family="Times,serif" font-size="14.00">ja 0x4000a1eb06</text>
<text text-anchor="middle" x="538.5" y="-768.8" font-family="Times,serif" font-size="14.00">_______________________</text>
<text text-anchor="middle" x="538.5" y="-753.8" font-family="Times,serif" font-size="14.00">SHARED BLOCK 0x4000a1eaa0</text>
<text text-anchor="middle" x="538.5" y="-738.8" font-family="Times,serif" font-size="14.00">SHARED BLOCK 0x4000a1ea90</text>
</g>
<!-- 280&#45;&gt;511 -->
<g id="edge9" class="edge"><title>280&#45;&gt;511</title>
<path fill="none" stroke="black" d="M464.051,-909.599C472.934,-896.045 482.378,-881.634 491.451,-867.79"/>
<polygon fill="black" stroke="black" points="494.49,-869.538 497.044,-859.256 488.635,-865.701 494.49,-869.538"/>
</g>
<!-- 512 -->
<g id="node11" class="node"><title>512</title>
<polygon fill="none" stroke="black" points="653.5,-680 429.5,-680 429.5,-507 653.5,-507 653.5,-680"/>
<text text-anchor="middle" x="541.5" y="-664.8" font-family="Times,serif" font-size="14.00">0x4000a1eaaf</text>
<text text-anchor="middle" x="541.5" y="-649.8" font-family="Times,serif" font-size="14.00">_______________________</text>
<text text-anchor="middle" x="541.5" y="-634.8" font-family="Times,serif" font-size="14.00">_______________________</text>
<text text-anchor="middle" x="541.5" y="-619.8" font-family="Times,serif" font-size="14.00">movups (%rsi), %xmm0</text>
<text text-anchor="middle" x="541.5" y="-604.8" font-family="Times,serif" font-size="14.00">movups &#45;0x10(%rsi, %rdx), %xmm1</text>
<text text-anchor="middle" x="541.5" y="-589.8" font-family="Times,serif" font-size="14.00">movups %xmm0, (%rdi)</text>
<text text-anchor="middle" x="541.5" y="-574.8" font-family="Times,serif" font-size="14.00">movups %xmm1, &#45;0x10(%rdi, %rdx)</text>
<text text-anchor="middle" x="541.5" y="-559.8" font-family="Times,serif" font-size="14.00">retq </text>
<text text-anchor="middle" x="541.5" y="-544.8" font-family="Times,serif" font-size="14.00">_______________________</text>
<text text-anchor="middle" x="541.5" y="-529.8" font-family="Times,serif" font-size="14.00">SHARED BLOCK 0x4000a1eaa0</text>
<text text-anchor="middle" x="541.5" y="-514.8" font-family="Times,serif" font-size="14.00">SHARED BLOCK 0x4000a1ea90</text>
</g>
<!-- 511&#45;&gt;512 -->
<g id="edge10" class="edge"><title>511&#45;&gt;512</title>
<path fill="none" stroke="black" d="M539.449,-730.877C539.644,-717.925 539.853,-704.016 540.061,-690.21"/>
<polygon fill="black" stroke="black" points="543.561,-690.243 540.211,-680.191 536.561,-690.138 543.561,-690.243"/>
</g>
</g>
</svg>
