<?xml version="1.0" encoding="UTF-8" standalone="no"?>
<!DOCTYPE svg PUBLIC "-//W3C//DTD SVG 1.1//EN"
 "http://www.w3.org/Graphics/SVG/1.1/DTD/svg11.dtd">
<!-- Generated by graphviz version 2.38.0 (20140413.2041)
 -->
<!-- Title: %3 Pages: 1 -->
<svg width="388pt" height="1360pt"
 viewBox="0.00 0.00 388.00 1360.00" xmlns="http://www.w3.org/2000/svg" xmlns:xlink="http://www.w3.org/1999/xlink">
<g id="graph0" class="graph" transform="scale(1 1) rotate(0) translate(4 1356)">
<title>%3</title>
<polygon fill="white" stroke="none" points="-4,4 -4,-1356 384,-1356 384,4 -4,4"/>
<!-- 134 -->
<g id="node1" class="node"><title>134</title>
<polygon fill="none" stroke="black" points="276.5,-1352 98.5,-1352 98.5,-1254 276.5,-1254 276.5,-1352"/>
<text text-anchor="middle" x="187.5" y="-1336.8" font-family="Times,serif" font-size="14.00">0x4000a1aaf0</text>
<text text-anchor="middle" x="187.5" y="-1321.8" font-family="Times,serif" font-size="14.00">_______________________</text>
<text text-anchor="middle" x="187.5" y="-1306.8" font-family="Times,serif" font-size="14.00">_______________________</text>
<text text-anchor="middle" x="187.5" y="-1291.8" font-family="Times,serif" font-size="14.00">movq 0x20c5b9(%rip), %rcx</text>
<text text-anchor="middle" x="187.5" y="-1276.8" font-family="Times,serif" font-size="14.00">testq %rcx, %rcx</text>
<text text-anchor="middle" x="187.5" y="-1261.8" font-family="Times,serif" font-size="14.00">je 0x4000a1abd8</text>
</g>
<!-- 135 -->
<g id="node2" class="node"><title>135</title>
<polygon fill="none" stroke="black" points="179,-1218 0,-1218 0,-1060 179,-1060 179,-1218"/>
<text text-anchor="middle" x="89.5" y="-1202.8" font-family="Times,serif" font-size="14.00">0x4000a1abd8</text>
<text text-anchor="middle" x="89.5" y="-1187.8" font-family="Times,serif" font-size="14.00">_______________________</text>
<text text-anchor="middle" x="89.5" y="-1172.8" font-family="Times,serif" font-size="14.00">_______________________</text>
<text text-anchor="middle" x="89.5" y="-1157.8" font-family="Times,serif" font-size="14.00">movq 0x20b0d9(%rip), %rax</text>
<text text-anchor="middle" x="89.5" y="-1142.8" font-family="Times,serif" font-size="14.00">leaq 0x20c56a(%rip), %rdx</text>
<text text-anchor="middle" x="89.5" y="-1127.8" font-family="Times,serif" font-size="14.00">leaq &#45;1(%rax, %rdx), %rcx</text>
<text text-anchor="middle" x="89.5" y="-1112.8" font-family="Times,serif" font-size="14.00">negq %rax</text>
<text text-anchor="middle" x="89.5" y="-1097.8" font-family="Times,serif" font-size="14.00">andq %rax, %rcx</text>
<text text-anchor="middle" x="89.5" y="-1082.8" font-family="Times,serif" font-size="14.00">movq %rcx, 0x20c4b8(%rip)</text>
<text text-anchor="middle" x="89.5" y="-1067.8" font-family="Times,serif" font-size="14.00">jmp 0x4000a1ab07</text>
</g>
<!-- 134&#45;&gt;135 -->
<g id="edge1" class="edge"><title>134&#45;&gt;135</title>
<path fill="none" stroke="black" d="M158.362,-1253.83C153.135,-1245.19 147.545,-1235.95 141.895,-1226.61"/>
<polygon fill="black" stroke="black" points="144.868,-1224.77 136.698,-1218.02 138.879,-1228.39 144.868,-1224.77"/>
</g>
<!-- 275 -->
<g id="node3" class="node"><title>275</title>
<polygon fill="none" stroke="black" points="376,-1173 197,-1173 197,-1105 376,-1105 376,-1173"/>
<text text-anchor="middle" x="286.5" y="-1157.8" font-family="Times,serif" font-size="14.00">0x4000a1ab00</text>
<text text-anchor="middle" x="286.5" y="-1142.8" font-family="Times,serif" font-size="14.00">_______________________</text>
<text text-anchor="middle" x="286.5" y="-1127.8" font-family="Times,serif" font-size="14.00">_______________________</text>
<text text-anchor="middle" x="286.5" y="-1112.8" font-family="Times,serif" font-size="14.00">movq 0x20c5b1(%rip), %rdx</text>
</g>
<!-- 134&#45;&gt;275 -->
<g id="edge2" class="edge"><title>134&#45;&gt;275</title>
<path fill="none" stroke="black" d="M216.935,-1253.83C230.912,-1230.96 247.457,-1203.89 260.905,-1181.88"/>
<polygon fill="black" stroke="black" points="264.044,-1183.46 266.272,-1173.1 258.071,-1179.81 264.044,-1183.46"/>
</g>
<!-- 136 -->
<g id="node4" class="node"><title>136</title>
<polygon fill="none" stroke="black" points="276.5,-1024 98.5,-1024 98.5,-881 276.5,-881 276.5,-1024"/>
<text text-anchor="middle" x="187.5" y="-1008.8" font-family="Times,serif" font-size="14.00">0x4000a1ab07</text>
<text text-anchor="middle" x="187.5" y="-993.8" font-family="Times,serif" font-size="14.00">_______________________</text>
<text text-anchor="middle" x="187.5" y="-978.8" font-family="Times,serif" font-size="14.00">_______________________</text>
<text text-anchor="middle" x="187.5" y="-963.8" font-family="Times,serif" font-size="14.00">addq $0xf, %rdx</text>
<text text-anchor="middle" x="187.5" y="-948.8" font-family="Times,serif" font-size="14.00">andq $0xfffffff0, %rdx</text>
<text text-anchor="middle" x="187.5" y="-933.8" font-family="Times,serif" font-size="14.00">leaq (%rdx, %rdi), %rax</text>
<text text-anchor="middle" x="187.5" y="-918.8" font-family="Times,serif" font-size="14.00">movq %rdx, 0x20c59e(%rip)</text>
<text text-anchor="middle" x="187.5" y="-903.8" font-family="Times,serif" font-size="14.00">cmpq %rcx, %rax</text>
<text text-anchor="middle" x="187.5" y="-888.8" font-family="Times,serif" font-size="14.00">jae 0x4000a1ab2e</text>
</g>
<!-- 135&#45;&gt;136 -->
<g id="edge3" class="edge"><title>135&#45;&gt;136</title>
<path fill="none" stroke="black" d="M131.061,-1059.76C135.707,-1051.01 140.445,-1042.09 145.101,-1033.32"/>
<polygon fill="black" stroke="black" points="148.317,-1034.73 149.917,-1024.26 142.135,-1031.45 148.317,-1034.73"/>
</g>
<!-- 275&#45;&gt;136 -->
<g id="edge7" class="edge"><title>275&#45;&gt;136</title>
<path fill="none" stroke="black" d="M268.572,-1104.59C257.806,-1084.52 243.619,-1058.09 230.128,-1032.94"/>
<polygon fill="black" stroke="black" points="233.203,-1031.27 225.391,-1024.12 227.035,-1034.58 233.203,-1031.27"/>
</g>
<!-- 137 -->
<g id="node5" class="node"><title>137</title>
<polygon fill="none" stroke="black" points="176.5,-807.5 4.5,-807.5 4.5,-694.5 176.5,-694.5 176.5,-807.5"/>
<text text-anchor="middle" x="90.5" y="-792.3" font-family="Times,serif" font-size="14.00">0x4000a1ab1f</text>
<text text-anchor="middle" x="90.5" y="-777.3" font-family="Times,serif" font-size="14.00">_______________________</text>
<text text-anchor="middle" x="90.5" y="-762.3" font-family="Times,serif" font-size="14.00">_______________________</text>
<text text-anchor="middle" x="90.5" y="-747.3" font-family="Times,serif" font-size="14.00">movq %rdx, %rcx</text>
<text text-anchor="middle" x="90.5" y="-732.3" font-family="Times,serif" font-size="14.00">negq %rcx</text>
<text text-anchor="middle" x="90.5" y="-717.3" font-family="Times,serif" font-size="14.00">cmpq %rcx, %rdi</text>
<text text-anchor="middle" x="90.5" y="-702.3" font-family="Times,serif" font-size="14.00">jb 0x4000a1abb8</text>
</g>
<!-- 136&#45;&gt;137 -->
<g id="edge4" class="edge"><title>136&#45;&gt;137</title>
<path fill="none" stroke="black" d="M153.165,-880.883C143.051,-860.082 132.036,-837.427 122.102,-816.996"/>
<polygon fill="black" stroke="black" points="125.142,-815.243 117.621,-807.78 118.846,-818.304 125.142,-815.243"/>
</g>
<!-- 304 -->
<g id="node6" class="node"><title>304</title>
<polygon fill="none" stroke="black" points="374,-845 195,-845 195,-657 374,-657 374,-845"/>
<text text-anchor="middle" x="284.5" y="-829.8" font-family="Times,serif" font-size="14.00">0x4000a1ab2e</text>
<text text-anchor="middle" x="284.5" y="-814.8" font-family="Times,serif" font-size="14.00">_______________________</text>
<text text-anchor="middle" x="284.5" y="-799.8" font-family="Times,serif" font-size="14.00">_______________________</text>
<text text-anchor="middle" x="284.5" y="-784.8" font-family="Times,serif" font-size="14.00">pushq %rbp</text>
<text text-anchor="middle" x="284.5" y="-769.8" font-family="Times,serif" font-size="14.00">pushq %rbx</text>
<text text-anchor="middle" x="284.5" y="-754.8" font-family="Times,serif" font-size="14.00">subq $8, %rsp</text>
<text text-anchor="middle" x="284.5" y="-739.8" font-family="Times,serif" font-size="14.00">movq 0x20b17d(%rip), %rax</text>
<text text-anchor="middle" x="284.5" y="-724.8" font-family="Times,serif" font-size="14.00">leaq &#45;1(%rax, %rdi), %rbx</text>
<text text-anchor="middle" x="284.5" y="-709.8" font-family="Times,serif" font-size="14.00">movq %rax, %rdx</text>
<text text-anchor="middle" x="284.5" y="-694.8" font-family="Times,serif" font-size="14.00">negq %rdx</text>
<text text-anchor="middle" x="284.5" y="-679.8" font-family="Times,serif" font-size="14.00">andq %rdx, %rbx</text>
<text text-anchor="middle" x="284.5" y="-664.8" font-family="Times,serif" font-size="14.00">jne 0x4000a1ab54</text>
</g>
<!-- 136&#45;&gt;304 -->
<g id="edge5" class="edge"><title>136&#45;&gt;304</title>
<path fill="none" stroke="black" d="M221.835,-880.883C226.045,-872.224 230.411,-863.244 234.791,-854.237"/>
<polygon fill="black" stroke="black" points="237.944,-855.756 239.169,-845.232 231.649,-852.695 237.944,-855.756"/>
</g>
<!-- 138 -->
<g id="node7" class="node"><title>138</title>
<polygon fill="none" stroke="black" points="179.5,-568.5 1.5,-568.5 1.5,-455.5 179.5,-455.5 179.5,-568.5"/>
<text text-anchor="middle" x="90.5" y="-553.3" font-family="Times,serif" font-size="14.00">0x4000a1abb8</text>
<text text-anchor="middle" x="90.5" y="-538.3" font-family="Times,serif" font-size="14.00">_______________________</text>
<text text-anchor="middle" x="90.5" y="-523.3" font-family="Times,serif" font-size="14.00">_______________________</text>
<text text-anchor="middle" x="90.5" y="-508.3" font-family="Times,serif" font-size="14.00">movq %rax, 0x20c4f9(%rip)</text>
<text text-anchor="middle" x="90.5" y="-493.3" font-family="Times,serif" font-size="14.00">movq %rdx, 0x20c4e2(%rip)</text>
<text text-anchor="middle" x="90.5" y="-478.3" font-family="Times,serif" font-size="14.00">movq %rdx, %rax</text>
<text text-anchor="middle" x="90.5" y="-463.3" font-family="Times,serif" font-size="14.00">retq </text>
</g>
<!-- 137&#45;&gt;138 -->
<g id="edge6" class="edge"><title>137&#45;&gt;138</title>
<path fill="none" stroke="black" d="M90.5,-694.434C90.5,-659.793 90.5,-615.043 90.5,-578.654"/>
<polygon fill="black" stroke="black" points="94.0001,-578.628 90.5,-568.628 87.0001,-578.628 94.0001,-578.628"/>
</g>
<!-- 305 -->
<g id="node8" class="node"><title>305</title>
<polygon fill="none" stroke="black" points="370.5,-621 198.5,-621 198.5,-403 370.5,-403 370.5,-621"/>
<text text-anchor="middle" x="284.5" y="-605.8" font-family="Times,serif" font-size="14.00">0x4000a1ab54</text>
<text text-anchor="middle" x="284.5" y="-590.8" font-family="Times,serif" font-size="14.00">_______________________</text>
<text text-anchor="middle" x="284.5" y="-575.8" font-family="Times,serif" font-size="14.00">_______________________</text>
<text text-anchor="middle" x="284.5" y="-560.8" font-family="Times,serif" font-size="14.00">addq %rax, %rbx</text>
<text text-anchor="middle" x="284.5" y="-545.8" font-family="Times,serif" font-size="14.00">xorl %r9d, %r9d</text>
<text text-anchor="middle" x="284.5" y="-530.8" font-family="Times,serif" font-size="14.00">movq %rdi, %rbp</text>
<text text-anchor="middle" x="284.5" y="-515.8" font-family="Times,serif" font-size="14.00">movl $0xffffffff, %r8d</text>
<text text-anchor="middle" x="284.5" y="-500.8" font-family="Times,serif" font-size="14.00">xorl %edi, %edi</text>
<text text-anchor="middle" x="284.5" y="-485.8" font-family="Times,serif" font-size="14.00">movl $0x22, %ecx</text>
<text text-anchor="middle" x="284.5" y="-470.8" font-family="Times,serif" font-size="14.00">movl $3, %edx</text>
<text text-anchor="middle" x="284.5" y="-455.8" font-family="Times,serif" font-size="14.00">movq %rbx, %rsi</text>
<text text-anchor="middle" x="284.5" y="-440.8" font-family="Times,serif" font-size="14.00">callq 0x4000a1c3a0</text>
<text text-anchor="middle" x="284.5" y="-425.8" font-family="Times,serif" font-size="14.00">_______________________</text>
<text text-anchor="middle" x="284.5" y="-410.8" font-family="Times,serif" font-size="14.00">CALL 0x4000a1c3a0</text>
</g>
<!-- 304&#45;&gt;305 -->
<g id="edge8" class="edge"><title>304&#45;&gt;305</title>
<path fill="none" stroke="black" d="M284.5,-656.672C284.5,-648.292 284.5,-639.737 284.5,-631.184"/>
<polygon fill="black" stroke="black" points="288,-631.155 284.5,-621.155 281,-631.155 288,-631.155"/>
</g>
<!-- 311 -->
<g id="node9" class="node"><title>311</title>
<polygon fill="none" stroke="black" points="370.5,-367 198.5,-367 198.5,-284 370.5,-284 370.5,-367"/>
<text text-anchor="middle" x="284.5" y="-351.8" font-family="Times,serif" font-size="14.00">0x4000a1ab77</text>
<text text-anchor="middle" x="284.5" y="-336.8" font-family="Times,serif" font-size="14.00">_______________________</text>
<text text-anchor="middle" x="284.5" y="-321.8" font-family="Times,serif" font-size="14.00">_______________________</text>
<text text-anchor="middle" x="284.5" y="-306.8" font-family="Times,serif" font-size="14.00">cmpq $0xff, %rax</text>
<text text-anchor="middle" x="284.5" y="-291.8" font-family="Times,serif" font-size="14.00">je 0x4000a1abd0</text>
</g>
<!-- 305&#45;&gt;311 -->
<g id="edge9" class="edge"><title>305&#45;&gt;311</title>
<path fill="none" stroke="black" d="M284.5,-402.875C284.5,-394.125 284.5,-385.572 284.5,-377.543"/>
<polygon fill="black" stroke="black" points="288,-377.318 284.5,-367.318 281,-377.318 288,-377.318"/>
</g>
<!-- 312 -->
<g id="node10" class="node"><title>312</title>
<polygon fill="none" stroke="black" points="380,-248 189,-248 189,-0 380,-0 380,-248"/>
<text text-anchor="middle" x="284.5" y="-232.8" font-family="Times,serif" font-size="14.00">0x4000a1ab7d</text>
<text text-anchor="middle" x="284.5" y="-217.8" font-family="Times,serif" font-size="14.00">_______________________</text>
<text text-anchor="middle" x="284.5" y="-202.8" font-family="Times,serif" font-size="14.00">_______________________</text>
<text text-anchor="middle" x="284.5" y="-187.8" font-family="Times,serif" font-size="14.00">cmpq 0x20c52c(%rip), %rax</text>
<text text-anchor="middle" x="284.5" y="-172.8" font-family="Times,serif" font-size="14.00">movq %rax, %rdx</text>
<text text-anchor="middle" x="284.5" y="-157.8" font-family="Times,serif" font-size="14.00">cmoveq 0x20c529(%rip), %rdx</text>
<text text-anchor="middle" x="284.5" y="-142.8" font-family="Times,serif" font-size="14.00">addq %rbx, %rax</text>
<text text-anchor="middle" x="284.5" y="-127.8" font-family="Times,serif" font-size="14.00">movq %rax, 0x20c517(%rip)</text>
<text text-anchor="middle" x="284.5" y="-112.8" font-family="Times,serif" font-size="14.00">leaq (%rdx, %rbp), %rax</text>
<text text-anchor="middle" x="284.5" y="-97.8" font-family="Times,serif" font-size="14.00">movq %rdx, 0x20c504(%rip)</text>
<text text-anchor="middle" x="284.5" y="-82.8" font-family="Times,serif" font-size="14.00">movq %rax, 0x20c50d(%rip)</text>
<text text-anchor="middle" x="284.5" y="-67.8" font-family="Times,serif" font-size="14.00">addq $8, %rsp</text>
<text text-anchor="middle" x="284.5" y="-52.8" font-family="Times,serif" font-size="14.00">movq %rdx, %rax</text>
<text text-anchor="middle" x="284.5" y="-37.8" font-family="Times,serif" font-size="14.00">popq %rbx</text>
<text text-anchor="middle" x="284.5" y="-22.8" font-family="Times,serif" font-size="14.00">popq %rbp</text>
<text text-anchor="middle" x="284.5" y="-7.8" font-family="Times,serif" font-size="14.00">retq </text>
</g>
<!-- 311&#45;&gt;312 -->
<g id="edge10" class="edge"><title>311&#45;&gt;312</title>
<path fill="none" stroke="black" d="M284.5,-283.647C284.5,-275.861 284.5,-267.33 284.5,-258.39"/>
<polygon fill="black" stroke="black" points="288,-258.141 284.5,-248.141 281,-258.141 288,-258.141"/>
</g>
</g>
</svg>
