<?xml version="1.0" encoding="UTF-8" standalone="no"?>
<!DOCTYPE svg PUBLIC "-//W3C//DTD SVG 1.1//EN"
 "http://www.w3.org/Graphics/SVG/1.1/DTD/svg11.dtd">
<!-- Generated by graphviz version 2.38.0 (20140413.2041)
 -->
<!-- Title: %3 Pages: 1 -->
<svg width="187pt" height="315pt"
 viewBox="0.00 0.00 187.00 315.00" xmlns="http://www.w3.org/2000/svg" xmlns:xlink="http://www.w3.org/1999/xlink">
<g id="graph0" class="graph" transform="scale(1 1) rotate(0) translate(4 311)">
<title>%3</title>
<polygon fill="white" stroke="none" points="-4,4 -4,-311 183,-311 183,4 -4,4"/>
<!-- 1661 -->
<g id="node1" class="node"><title>1661</title>
<polygon fill="none" stroke="black" points="179,-307 0,-307 0,-149 179,-149 179,-307"/>
<text text-anchor="middle" x="89.5" y="-291.8" font-family="Times,serif" font-size="14.00">0x4000c78c50</text>
<text text-anchor="middle" x="89.5" y="-276.8" font-family="Times,serif" font-size="14.00">_______________________</text>
<text text-anchor="middle" x="89.5" y="-261.8" font-family="Times,serif" font-size="14.00">_______________________</text>
<text text-anchor="middle" x="89.5" y="-246.8" font-family="Times,serif" font-size="14.00">pushq %rbp</text>
<text text-anchor="middle" x="89.5" y="-231.8" font-family="Times,serif" font-size="14.00">pushq %rbx</text>
<text text-anchor="middle" x="89.5" y="-216.8" font-family="Times,serif" font-size="14.00">subq $8, %rsp</text>
<text text-anchor="middle" x="89.5" y="-201.8" font-family="Times,serif" font-size="14.00">movq 0x366123(%rip), %rbp</text>
<text text-anchor="middle" x="89.5" y="-186.8" font-family="Times,serif" font-size="14.00">movq %fs:(%rbp), %rbx</text>
<text text-anchor="middle" x="89.5" y="-171.8" font-family="Times,serif" font-size="14.00">testq %rbx, %rbx</text>
<text text-anchor="middle" x="89.5" y="-156.8" font-family="Times,serif" font-size="14.00">je 0x4000c78cae</text>
</g>
<!-- 1662 -->
<g id="node2" class="node"><title>1662</title>
<polygon fill="none" stroke="black" points="175.5,-113 3.5,-113 3.5,-0 175.5,-0 175.5,-113"/>
<text text-anchor="middle" x="89.5" y="-97.8" font-family="Times,serif" font-size="14.00">0x4000c78cae</text>
<text text-anchor="middle" x="89.5" y="-82.8" font-family="Times,serif" font-size="14.00">_______________________</text>
<text text-anchor="middle" x="89.5" y="-67.8" font-family="Times,serif" font-size="14.00">_______________________</text>
<text text-anchor="middle" x="89.5" y="-52.8" font-family="Times,serif" font-size="14.00">addq $8, %rsp</text>
<text text-anchor="middle" x="89.5" y="-37.8" font-family="Times,serif" font-size="14.00">popq %rbx</text>
<text text-anchor="middle" x="89.5" y="-22.8" font-family="Times,serif" font-size="14.00">popq %rbp</text>
<text text-anchor="middle" x="89.5" y="-7.8" font-family="Times,serif" font-size="14.00">retq </text>
</g>
<!-- 1661&#45;&gt;1662 -->
<g id="edge1" class="edge"><title>1661&#45;&gt;1662</title>
<path fill="none" stroke="black" d="M89.5,-148.7C89.5,-140.19 89.5,-131.592 89.5,-123.254"/>
<polygon fill="black" stroke="black" points="93.0001,-123.234 89.5,-113.234 86.0001,-123.234 93.0001,-123.234"/>
</g>
</g>
</svg>
