<?xml version="1.0" encoding="UTF-8" standalone="no"?>
<!DOCTYPE svg PUBLIC "-//W3C//DTD SVG 1.1//EN"
 "http://www.w3.org/Graphics/SVG/1.1/DTD/svg11.dtd">
<!-- Generated by graphviz version 2.38.0 (20140413.2041)
 -->
<!-- Title: %3 Pages: 1 -->
<svg width="541pt" height="1628pt"
 viewBox="0.00 0.00 541.00 1628.00" xmlns="http://www.w3.org/2000/svg" xmlns:xlink="http://www.w3.org/1999/xlink">
<g id="graph0" class="graph" transform="scale(1 1) rotate(0) translate(4 1624)">
<title>%3</title>
<polygon fill="white" stroke="none" points="-4,4 -4,-1624 537,-1624 537,4 -4,4"/>
<!-- 1183 -->
<g id="node1" class="node"><title>1183</title>
<polygon fill="none" stroke="black" points="438,-1620 266,-1620 266,-1462 438,-1462 438,-1620"/>
<text text-anchor="middle" x="352" y="-1604.8" font-family="Times,serif" font-size="14.00">0x4000a12540</text>
<text text-anchor="middle" x="352" y="-1589.8" font-family="Times,serif" font-size="14.00">_______________________</text>
<text text-anchor="middle" x="352" y="-1574.8" font-family="Times,serif" font-size="14.00">_______________________</text>
<text text-anchor="middle" x="352" y="-1559.8" font-family="Times,serif" font-size="14.00">movzbl 0x314(%rdi), %eax</text>
<text text-anchor="middle" x="352" y="-1544.8" font-family="Times,serif" font-size="14.00">movq 8(%rdi), %r8</text>
<text text-anchor="middle" x="352" y="-1529.8" font-family="Times,serif" font-size="14.00">orl $8, %eax</text>
<text text-anchor="middle" x="352" y="-1514.8" font-family="Times,serif" font-size="14.00">movb %al, 0x314(%rdi)</text>
<text text-anchor="middle" x="352" y="-1499.8" font-family="Times,serif" font-size="14.00">movzbl (%r8), %r9d</text>
<text text-anchor="middle" x="352" y="-1484.8" font-family="Times,serif" font-size="14.00">testb %r9b, %r9b</text>
<text text-anchor="middle" x="352" y="-1469.8" font-family="Times,serif" font-size="14.00">je 0x4000a12638</text>
</g>
<!-- 1184 -->
<g id="node2" class="node"><title>1184</title>
<polygon fill="none" stroke="black" points="343,-1426 171,-1426 171,-1193 343,-1193 343,-1426"/>
<text text-anchor="middle" x="257" y="-1410.8" font-family="Times,serif" font-size="14.00">0x4000a12561</text>
<text text-anchor="middle" x="257" y="-1395.8" font-family="Times,serif" font-size="14.00">_______________________</text>
<text text-anchor="middle" x="257" y="-1380.8" font-family="Times,serif" font-size="14.00">_______________________</text>
<text text-anchor="middle" x="257" y="-1365.8" font-family="Times,serif" font-size="14.00">pushq %r14</text>
<text text-anchor="middle" x="257" y="-1350.8" font-family="Times,serif" font-size="14.00">pushq %r13</text>
<text text-anchor="middle" x="257" y="-1335.8" font-family="Times,serif" font-size="14.00">movq %rcx, %r13</text>
<text text-anchor="middle" x="257" y="-1320.8" font-family="Times,serif" font-size="14.00">pushq %r12</text>
<text text-anchor="middle" x="257" y="-1305.8" font-family="Times,serif" font-size="14.00">pushq %rbp</text>
<text text-anchor="middle" x="257" y="-1290.8" font-family="Times,serif" font-size="14.00">movq %rdx, %r12</text>
<text text-anchor="middle" x="257" y="-1275.8" font-family="Times,serif" font-size="14.00">pushq %rbx</text>
<text text-anchor="middle" x="257" y="-1260.8" font-family="Times,serif" font-size="14.00">movq 0xa0(%rdi), %rax</text>
<text text-anchor="middle" x="257" y="-1245.8" font-family="Times,serif" font-size="14.00">movl %esi, %ebp</text>
<text text-anchor="middle" x="257" y="-1230.8" font-family="Times,serif" font-size="14.00">movq %rdi, %rbx</text>
<text text-anchor="middle" x="257" y="-1215.8" font-family="Times,serif" font-size="14.00">testq %rax, %rax</text>
<text text-anchor="middle" x="257" y="-1200.8" font-family="Times,serif" font-size="14.00">je 0x4000a125f0</text>
</g>
<!-- 1183&#45;&gt;1184 -->
<g id="edge1" class="edge"><title>1183&#45;&gt;1184</title>
<path fill="none" stroke="black" d="M319.705,-1461.98C316.152,-1453.4 312.472,-1444.51 308.757,-1435.53"/>
<polygon fill="black" stroke="black" points="311.935,-1434.06 304.876,-1426.16 305.467,-1436.74 311.935,-1434.06"/>
</g>
<!-- 1238 -->
<g id="node3" class="node"><title>1238</title>
<polygon fill="none" stroke="black" points="533,-1351 361,-1351 361,-1268 533,-1268 533,-1351"/>
<text text-anchor="middle" x="447" y="-1335.8" font-family="Times,serif" font-size="14.00">0x4000a12638</text>
<text text-anchor="middle" x="447" y="-1320.8" font-family="Times,serif" font-size="14.00">_______________________</text>
<text text-anchor="middle" x="447" y="-1305.8" font-family="Times,serif" font-size="14.00">_______________________</text>
<text text-anchor="middle" x="447" y="-1290.8" font-family="Times,serif" font-size="14.00">testb $3, %al</text>
<text text-anchor="middle" x="447" y="-1275.8" font-family="Times,serif" font-size="14.00">jne 0x4000a12561</text>
</g>
<!-- 1183&#45;&gt;1238 -->
<g id="edge2" class="edge"><title>1183&#45;&gt;1238</title>
<path fill="none" stroke="black" d="M384.295,-1461.98C398.177,-1428.45 413.995,-1390.23 426.271,-1360.58"/>
<polygon fill="black" stroke="black" points="429.535,-1361.84 430.126,-1351.26 423.067,-1359.17 429.535,-1361.84"/>
</g>
<!-- 1185 -->
<g id="node4" class="node"><title>1185</title>
<polygon fill="none" stroke="black" points="172,-1000.5 0,-1000.5 0,-902.5 172,-902.5 172,-1000.5"/>
<text text-anchor="middle" x="86" y="-985.3" font-family="Times,serif" font-size="14.00">0x4000a125f0</text>
<text text-anchor="middle" x="86" y="-970.3" font-family="Times,serif" font-size="14.00">_______________________</text>
<text text-anchor="middle" x="86" y="-955.3" font-family="Times,serif" font-size="14.00">_______________________</text>
<text text-anchor="middle" x="86" y="-940.3" font-family="Times,serif" font-size="14.00">movq 0x108(%rdi), %rdx</text>
<text text-anchor="middle" x="86" y="-925.3" font-family="Times,serif" font-size="14.00">testq %rdx, %rdx</text>
<text text-anchor="middle" x="86" y="-910.3" font-family="Times,serif" font-size="14.00">je 0x4000a125e3</text>
</g>
<!-- 1184&#45;&gt;1185 -->
<g id="edge3" class="edge"><title>1184&#45;&gt;1185</title>
<path fill="none" stroke="black" d="M181.157,-1192.83C174.348,-1180.92 167.833,-1168.83 162,-1157 138.436,-1109.19 117.814,-1052.15 104.02,-1010.48"/>
<polygon fill="black" stroke="black" points="107.276,-1009.17 100.836,-1000.76 100.624,-1011.35 107.276,-1009.17"/>
</g>
<!-- 1189 -->
<g id="node5" class="node"><title>1189</title>
<polygon fill="none" stroke="black" points="343,-1157 171,-1157 171,-1074 343,-1074 343,-1157"/>
<text text-anchor="middle" x="257" y="-1141.8" font-family="Times,serif" font-size="14.00">0x4000a12580</text>
<text text-anchor="middle" x="257" y="-1126.8" font-family="Times,serif" font-size="14.00">_______________________</text>
<text text-anchor="middle" x="257" y="-1111.8" font-family="Times,serif" font-size="14.00">_______________________</text>
<text text-anchor="middle" x="257" y="-1096.8" font-family="Times,serif" font-size="14.00">testb $2, 0x213719(%rip)</text>
<text text-anchor="middle" x="257" y="-1081.8" font-family="Times,serif" font-size="14.00">jne 0x4000a12608</text>
</g>
<!-- 1184&#45;&gt;1189 -->
<g id="edge4" class="edge"><title>1184&#45;&gt;1189</title>
<path fill="none" stroke="black" d="M257,-1192.94C257,-1184.1 257,-1175.5 257,-1167.44"/>
<polygon fill="black" stroke="black" points="260.5,-1167.19 257,-1157.19 253.5,-1167.19 260.5,-1167.19"/>
</g>
<!-- 1239 -->
<g id="node12" class="node"><title>1239</title>
<polygon fill="none" stroke="black" points="533,-1149.5 361,-1149.5 361,-1081.5 533,-1081.5 533,-1149.5"/>
<text text-anchor="middle" x="447" y="-1134.3" font-family="Times,serif" font-size="14.00">0x4000a12640</text>
<text text-anchor="middle" x="447" y="-1119.3" font-family="Times,serif" font-size="14.00">_______________________</text>
<text text-anchor="middle" x="447" y="-1104.3" font-family="Times,serif" font-size="14.00">_______________________</text>
<text text-anchor="middle" x="447" y="-1089.3" font-family="Times,serif" font-size="14.00">retq </text>
</g>
<!-- 1238&#45;&gt;1239 -->
<g id="edge12" class="edge"><title>1238&#45;&gt;1239</title>
<path fill="none" stroke="black" d="M447,-1267.78C447,-1236 447,-1191.95 447,-1159.58"/>
<polygon fill="black" stroke="black" points="450.5,-1159.51 447,-1149.51 443.5,-1159.51 450.5,-1159.51"/>
</g>
<!-- 1186 -->
<g id="node6" class="node"><title>1186</title>
<polygon fill="none" stroke="black" points="268,-143 96,-143 96,-0 268,-0 268,-143"/>
<text text-anchor="middle" x="182" y="-127.8" font-family="Times,serif" font-size="14.00">0x4000a125e3</text>
<text text-anchor="middle" x="182" y="-112.8" font-family="Times,serif" font-size="14.00">_______________________</text>
<text text-anchor="middle" x="182" y="-97.8" font-family="Times,serif" font-size="14.00">_______________________</text>
<text text-anchor="middle" x="182" y="-82.8" font-family="Times,serif" font-size="14.00">popq %rbx</text>
<text text-anchor="middle" x="182" y="-67.8" font-family="Times,serif" font-size="14.00">popq %rbp</text>
<text text-anchor="middle" x="182" y="-52.8" font-family="Times,serif" font-size="14.00">popq %r12</text>
<text text-anchor="middle" x="182" y="-37.8" font-family="Times,serif" font-size="14.00">popq %r13</text>
<text text-anchor="middle" x="182" y="-22.8" font-family="Times,serif" font-size="14.00">popq %r14</text>
<text text-anchor="middle" x="182" y="-7.8" font-family="Times,serif" font-size="14.00">retq </text>
</g>
<!-- 1185&#45;&gt;1186 -->
<g id="edge5" class="edge"><title>1185&#45;&gt;1186</title>
<path fill="none" stroke="black" d="M94.7216,-902.36C105.66,-837.695 123,-719.091 123,-617 123,-617 123,-617 123,-406 123,-304.549 125.71,-278.192 147,-179 148.825,-170.497 151.079,-161.718 153.557,-153.018"/>
<polygon fill="black" stroke="black" points="156.967,-153.829 156.439,-143.248 150.253,-151.849 156.967,-153.829"/>
</g>
<!-- 1190 -->
<g id="node7" class="node"><title>1190</title>
<polygon fill="none" stroke="black" points="362,-1038 190,-1038 190,-865 362,-865 362,-1038"/>
<text text-anchor="middle" x="276" y="-1022.8" font-family="Times,serif" font-size="14.00">0x4000a12589</text>
<text text-anchor="middle" x="276" y="-1007.8" font-family="Times,serif" font-size="14.00">_______________________</text>
<text text-anchor="middle" x="276" y="-992.8" font-family="Times,serif" font-size="14.00">_______________________</text>
<text text-anchor="middle" x="276" y="-977.8" font-family="Times,serif" font-size="14.00">movq 8(%rax), %rax</text>
<text text-anchor="middle" x="276" y="-962.8" font-family="Times,serif" font-size="14.00">addq (%rbx), %rax</text>
<text text-anchor="middle" x="276" y="-947.8" font-family="Times,serif" font-size="14.00">movq %r13, %rdx</text>
<text text-anchor="middle" x="276" y="-932.8" font-family="Times,serif" font-size="14.00">movq %r12, %rsi</text>
<text text-anchor="middle" x="276" y="-917.8" font-family="Times,serif" font-size="14.00">movl %ebp, %edi</text>
<text text-anchor="middle" x="276" y="-902.8" font-family="Times,serif" font-size="14.00">callq *%rax</text>
<text text-anchor="middle" x="276" y="-887.8" font-family="Times,serif" font-size="14.00">_______________________</text>
<text text-anchor="middle" x="276" y="-872.8" font-family="Times,serif" font-size="14.00">CALL 0x4000c622d0</text>
</g>
<!-- 1189&#45;&gt;1190 -->
<g id="edge6" class="edge"><title>1189&#45;&gt;1190</title>
<path fill="none" stroke="black" d="M261.795,-1073.62C262.721,-1065.72 263.727,-1057.14 264.762,-1048.32"/>
<polygon fill="black" stroke="black" points="268.251,-1048.61 265.94,-1038.27 261.299,-1047.8 268.251,-1048.61"/>
</g>
<!-- 1213 -->
<g id="node8" class="node"><title>1213</title>
<polygon fill="none" stroke="black" points="357,-829 185,-829 185,-731 357,-731 357,-829"/>
<text text-anchor="middle" x="271" y="-813.8" font-family="Times,serif" font-size="14.00">0x4000a1259a</text>
<text text-anchor="middle" x="271" y="-798.8" font-family="Times,serif" font-size="14.00">_______________________</text>
<text text-anchor="middle" x="271" y="-783.8" font-family="Times,serif" font-size="14.00">_______________________</text>
<text text-anchor="middle" x="271" y="-768.8" font-family="Times,serif" font-size="14.00">movq 0x108(%rbx), %rdx</text>
<text text-anchor="middle" x="271" y="-753.8" font-family="Times,serif" font-size="14.00">testq %rdx, %rdx</text>
<text text-anchor="middle" x="271" y="-738.8" font-family="Times,serif" font-size="14.00">je 0x4000a125e3</text>
</g>
<!-- 1190&#45;&gt;1213 -->
<g id="edge7" class="edge"><title>1190&#45;&gt;1213</title>
<path fill="none" stroke="black" d="M273.471,-864.757C273.219,-856.212 272.967,-847.681 272.726,-839.51"/>
<polygon fill="black" stroke="black" points="276.221,-839.273 272.427,-829.38 269.224,-839.479 276.221,-839.273"/>
</g>
<!-- 1214 -->
<g id="node9" class="node"><title>1214</title>
<polygon fill="none" stroke="black" points="339,-695 167,-695 167,-537 339,-537 339,-695"/>
<text text-anchor="middle" x="253" y="-679.8" font-family="Times,serif" font-size="14.00">0x4000a125a6</text>
<text text-anchor="middle" x="253" y="-664.8" font-family="Times,serif" font-size="14.00">_______________________</text>
<text text-anchor="middle" x="253" y="-649.8" font-family="Times,serif" font-size="14.00">_______________________</text>
<text text-anchor="middle" x="253" y="-634.8" font-family="Times,serif" font-size="14.00">movq 0x118(%rbx), %rax</text>
<text text-anchor="middle" x="253" y="-619.8" font-family="Times,serif" font-size="14.00">movq (%rbx), %rbx</text>
<text text-anchor="middle" x="253" y="-604.8" font-family="Times,serif" font-size="14.00">addq 8(%rdx), %rbx</text>
<text text-anchor="middle" x="253" y="-589.8" font-family="Times,serif" font-size="14.00">movq 8(%rax), %rax</text>
<text text-anchor="middle" x="253" y="-574.8" font-family="Times,serif" font-size="14.00">shrq $3, %rax</text>
<text text-anchor="middle" x="253" y="-559.8" font-family="Times,serif" font-size="14.00">testl %eax, %eax</text>
<text text-anchor="middle" x="253" y="-544.8" font-family="Times,serif" font-size="14.00">je 0x4000a125e3</text>
</g>
<!-- 1213&#45;&gt;1214 -->
<g id="edge8" class="edge"><title>1213&#45;&gt;1214</title>
<path fill="none" stroke="black" d="M265.648,-730.833C264.737,-722.634 263.766,-713.894 262.782,-705.041"/>
<polygon fill="black" stroke="black" points="266.252,-704.573 261.669,-695.02 259.295,-705.346 266.252,-704.573"/>
</g>
<!-- 1215 -->
<g id="node10" class="node"><title>1215</title>
<polygon fill="none" stroke="black" points="336.5,-501 159.5,-501 159.5,-313 336.5,-313 336.5,-501"/>
<text text-anchor="middle" x="248" y="-485.8" font-family="Times,serif" font-size="14.00">0x4000a125c0</text>
<text text-anchor="middle" x="248" y="-470.8" font-family="Times,serif" font-size="14.00">_______________________</text>
<text text-anchor="middle" x="248" y="-455.8" font-family="Times,serif" font-size="14.00">_______________________</text>
<text text-anchor="middle" x="248" y="-440.8" font-family="Times,serif" font-size="14.00">subl $1, %eax</text>
<text text-anchor="middle" x="248" y="-425.8" font-family="Times,serif" font-size="14.00">leaq 8(%rbx, %rax, 8), %r14</text>
<text text-anchor="middle" x="248" y="-410.8" font-family="Times,serif" font-size="14.00">nopl (%rax, %rax)</text>
<text text-anchor="middle" x="248" y="-395.8" font-family="Times,serif" font-size="14.00">movq %r13, %rdx</text>
<text text-anchor="middle" x="248" y="-380.8" font-family="Times,serif" font-size="14.00">movq %r12, %rsi</text>
<text text-anchor="middle" x="248" y="-365.8" font-family="Times,serif" font-size="14.00">movl %ebp, %edi</text>
<text text-anchor="middle" x="248" y="-350.8" font-family="Times,serif" font-size="14.00">callq *(%rbx)</text>
<text text-anchor="middle" x="248" y="-335.8" font-family="Times,serif" font-size="14.00">_______________________</text>
<text text-anchor="middle" x="248" y="-320.8" font-family="Times,serif" font-size="14.00">CALL 0x4000c61ea0</text>
</g>
<!-- 1214&#45;&gt;1215 -->
<g id="edge9" class="edge"><title>1214&#45;&gt;1215</title>
<path fill="none" stroke="black" d="M251.11,-536.742C250.909,-528.431 250.703,-519.888 250.496,-511.347"/>
<polygon fill="black" stroke="black" points="253.995,-511.248 250.254,-501.335 246.997,-511.417 253.995,-511.248"/>
</g>
<!-- 1237 -->
<g id="node11" class="node"><title>1237</title>
<polygon fill="none" stroke="black" points="328,-277 156,-277 156,-179 328,-179 328,-277"/>
<text text-anchor="middle" x="242" y="-261.8" font-family="Times,serif" font-size="14.00">0x4000a125da</text>
<text text-anchor="middle" x="242" y="-246.8" font-family="Times,serif" font-size="14.00">_______________________</text>
<text text-anchor="middle" x="242" y="-231.8" font-family="Times,serif" font-size="14.00">_______________________</text>
<text text-anchor="middle" x="242" y="-216.8" font-family="Times,serif" font-size="14.00">addq $8, %rbx</text>
<text text-anchor="middle" x="242" y="-201.8" font-family="Times,serif" font-size="14.00">cmpq %rbx, %r14</text>
<text text-anchor="middle" x="242" y="-186.8" font-family="Times,serif" font-size="14.00">jne 0x4000a125d0</text>
</g>
<!-- 1215&#45;&gt;1237 -->
<g id="edge10" class="edge"><title>1215&#45;&gt;1237</title>
<path fill="none" stroke="black" d="M244.842,-312.835C244.548,-304.168 244.256,-295.561 243.978,-287.348"/>
<polygon fill="black" stroke="black" points="247.47,-287.055 243.633,-277.18 240.474,-287.293 247.47,-287.055"/>
</g>
<!-- 1237&#45;&gt;1186 -->
<g id="edge11" class="edge"><title>1237&#45;&gt;1186</title>
<path fill="none" stroke="black" d="M223.345,-178.962C220.076,-170.547 216.598,-161.589 213.099,-152.58"/>
<polygon fill="black" stroke="black" points="216.337,-151.248 209.454,-143.194 209.811,-153.783 216.337,-151.248"/>
</g>
</g>
</svg>
