<?xml version="1.0" encoding="UTF-8" standalone="no"?>
<!DOCTYPE svg PUBLIC "-//W3C//DTD SVG 1.1//EN"
 "http://www.w3.org/Graphics/SVG/1.1/DTD/svg11.dtd">
<!-- Generated by graphviz version 2.38.0 (20140413.2041)
 -->
<!-- Title: %3 Pages: 1 -->
<svg width="184pt" height="419pt"
 viewBox="0.00 0.00 184.00 419.00" xmlns="http://www.w3.org/2000/svg" xmlns:xlink="http://www.w3.org/1999/xlink">
<g id="graph0" class="graph" transform="scale(1 1) rotate(0) translate(4 415)">
<title>%3</title>
<polygon fill="white" stroke="none" points="-4,4 -4,-415 180,-415 180,4 -4,4"/>
<!-- 1166 -->
<g id="node1" class="node"><title>1166</title>
<polygon fill="none" stroke="black" points="176,-411 0,-411 0,-298 176,-298 176,-411"/>
<text text-anchor="middle" x="88" y="-395.8" font-family="Times,serif" font-size="14.00">0x4000a196e0</text>
<text text-anchor="middle" x="88" y="-380.8" font-family="Times,serif" font-size="14.00">_______________________</text>
<text text-anchor="middle" x="88" y="-365.8" font-family="Times,serif" font-size="14.00">_______________________</text>
<text text-anchor="middle" x="88" y="-350.8" font-family="Times,serif" font-size="14.00">movq 0x20d9b1(%rip), %rdi</text>
<text text-anchor="middle" x="88" y="-335.8" font-family="Times,serif" font-size="14.00">leaq &#45;1(%rdi), %rax</text>
<text text-anchor="middle" x="88" y="-320.8" font-family="Times,serif" font-size="14.00">cmpq $0xfd, %rax</text>
<text text-anchor="middle" x="88" y="-305.8" font-family="Times,serif" font-size="14.00">jbe 0x4000a196f8</text>
</g>
<!-- 1167 -->
<g id="node2" class="node"><title>1167</title>
<polygon fill="none" stroke="black" points="175.5,-262 0.5,-262 0.5,-134 175.5,-134 175.5,-262"/>
<text text-anchor="middle" x="88" y="-246.8" font-family="Times,serif" font-size="14.00">0x4000a196f8</text>
<text text-anchor="middle" x="88" y="-231.8" font-family="Times,serif" font-size="14.00">_______________________</text>
<text text-anchor="middle" x="88" y="-216.8" font-family="Times,serif" font-size="14.00">_______________________</text>
<text text-anchor="middle" x="88" y="-201.8" font-family="Times,serif" font-size="14.00">subq $8, %rsp</text>
<text text-anchor="middle" x="88" y="-186.8" font-family="Times,serif" font-size="14.00">movq 0x20d985(%rip), %rsi</text>
<text text-anchor="middle" x="88" y="-171.8" font-family="Times,serif" font-size="14.00">callq 0x4000a1c450</text>
<text text-anchor="middle" x="88" y="-156.8" font-family="Times,serif" font-size="14.00">_______________________</text>
<text text-anchor="middle" x="88" y="-141.8" font-family="Times,serif" font-size="14.00">CALL 0x4000a1c450</text>
</g>
<!-- 1166&#45;&gt;1167 -->
<g id="edge1" class="edge"><title>1166&#45;&gt;1167</title>
<path fill="none" stroke="black" d="M88,-297.722C88,-289.397 88,-280.711 88,-272.094"/>
<polygon fill="black" stroke="black" points="91.5001,-272.036 88,-262.036 84.5001,-272.036 91.5001,-272.036"/>
</g>
<!-- 1171 -->
<g id="node3" class="node"><title>1171</title>
<polygon fill="none" stroke="black" points="174,-98 2,-98 2,-0 174,-0 174,-98"/>
<text text-anchor="middle" x="88" y="-82.8" font-family="Times,serif" font-size="14.00">0x4000a19708</text>
<text text-anchor="middle" x="88" y="-67.8" font-family="Times,serif" font-size="14.00">_______________________</text>
<text text-anchor="middle" x="88" y="-52.8" font-family="Times,serif" font-size="14.00">_______________________</text>
<text text-anchor="middle" x="88" y="-37.8" font-family="Times,serif" font-size="14.00">movq $0, 0x20d985(%rip)</text>
<text text-anchor="middle" x="88" y="-22.8" font-family="Times,serif" font-size="14.00">addq $8, %rsp</text>
<text text-anchor="middle" x="88" y="-7.8" font-family="Times,serif" font-size="14.00">retq </text>
</g>
<!-- 1167&#45;&gt;1171 -->
<g id="edge2" class="edge"><title>1167&#45;&gt;1171</title>
<path fill="none" stroke="black" d="M88,-133.806C88,-125.286 88,-116.578 88,-108.151"/>
<polygon fill="black" stroke="black" points="91.5001,-108.044 88,-98.0443 84.5001,-108.044 91.5001,-108.044"/>
</g>
</g>
</svg>
