<?xml version="1.0" encoding="UTF-8" standalone="no"?>
<!DOCTYPE svg PUBLIC "-//W3C//DTD SVG 1.1//EN"
 "http://www.w3.org/Graphics/SVG/1.1/DTD/svg11.dtd">
<!-- Generated by graphviz version 2.38.0 (20140413.2041)
 -->
<!-- Title: %3 Pages: 1 -->
<svg width="187pt" height="2866pt"
 viewBox="0.00 0.00 187.00 2866.00" xmlns="http://www.w3.org/2000/svg" xmlns:xlink="http://www.w3.org/1999/xlink">
<g id="graph0" class="graph" transform="scale(1 1) rotate(0) translate(4 2862)">
<title>%3</title>
<polygon fill="white" stroke="none" points="-4,4 -4,-2862 183,-2862 183,4 -4,4"/>
<!-- 1134 -->
<g id="node1" class="node"><title>1134</title>
<polygon fill="none" stroke="black" points="175.5,-2858 3.5,-2858 3.5,-2655 175.5,-2655 175.5,-2858"/>
<text text-anchor="middle" x="89.5" y="-2842.8" font-family="Times,serif" font-size="14.00">0x4000a15340</text>
<text text-anchor="middle" x="89.5" y="-2827.8" font-family="Times,serif" font-size="14.00">_______________________</text>
<text text-anchor="middle" x="89.5" y="-2812.8" font-family="Times,serif" font-size="14.00">_______________________</text>
<text text-anchor="middle" x="89.5" y="-2797.8" font-family="Times,serif" font-size="14.00">pushq %r15</text>
<text text-anchor="middle" x="89.5" y="-2782.8" font-family="Times,serif" font-size="14.00">pushq %r14</text>
<text text-anchor="middle" x="89.5" y="-2767.8" font-family="Times,serif" font-size="14.00">pushq %r13</text>
<text text-anchor="middle" x="89.5" y="-2752.8" font-family="Times,serif" font-size="14.00">pushq %r12</text>
<text text-anchor="middle" x="89.5" y="-2737.8" font-family="Times,serif" font-size="14.00">pushq %rbp</text>
<text text-anchor="middle" x="89.5" y="-2722.8" font-family="Times,serif" font-size="14.00">pushq %rbx</text>
<text text-anchor="middle" x="89.5" y="-2707.8" font-family="Times,serif" font-size="14.00">subq $0x28, %rsp</text>
<text text-anchor="middle" x="89.5" y="-2692.8" font-family="Times,serif" font-size="14.00">testq %rdi, %rdi</text>
<text text-anchor="middle" x="89.5" y="-2677.8" font-family="Times,serif" font-size="14.00">movq %rdi, 0x10(%rsp)</text>
<text text-anchor="middle" x="89.5" y="-2662.8" font-family="Times,serif" font-size="14.00">je 0x4000a15500</text>
</g>
<!-- 1135 -->
<g id="node2" class="node"><title>1135</title>
<polygon fill="none" stroke="black" points="177.5,-2619 1.5,-2619 1.5,-2476 177.5,-2476 177.5,-2619"/>
<text text-anchor="middle" x="89.5" y="-2603.8" font-family="Times,serif" font-size="14.00">0x4000a1535c</text>
<text text-anchor="middle" x="89.5" y="-2588.8" font-family="Times,serif" font-size="14.00">_______________________</text>
<text text-anchor="middle" x="89.5" y="-2573.8" font-family="Times,serif" font-size="14.00">_______________________</text>
<text text-anchor="middle" x="89.5" y="-2558.8" font-family="Times,serif" font-size="14.00">movq 8(%rdi), %rax</text>
<text text-anchor="middle" x="89.5" y="-2543.8" font-family="Times,serif" font-size="14.00">movq %rax, %rbx</text>
<text text-anchor="middle" x="89.5" y="-2528.8" font-family="Times,serif" font-size="14.00">movq %rax, 8(%rsp)</text>
<text text-anchor="middle" x="89.5" y="-2513.8" font-family="Times,serif" font-size="14.00">movq 0x211bf1(%rip), %rax</text>
<text text-anchor="middle" x="89.5" y="-2498.8" font-family="Times,serif" font-size="14.00">cmpq %rax, &#45;0x10(%rbx)</text>
<text text-anchor="middle" x="89.5" y="-2483.8" font-family="Times,serif" font-size="14.00">jb 0x4000a15519</text>
</g>
<!-- 1134&#45;&gt;1135 -->
<g id="edge1" class="edge"><title>1134&#45;&gt;1135</title>
<path fill="none" stroke="black" d="M89.5,-2654.73C89.5,-2646.18 89.5,-2637.6 89.5,-2629.23"/>
<polygon fill="black" stroke="black" points="93.0001,-2629.14 89.5,-2619.14 86.0001,-2629.14 93.0001,-2629.14"/>
</g>
<!-- 1136 -->
<g id="node3" class="node"><title>1136</title>
<polygon fill="none" stroke="black" points="179,-2440 0,-2440 0,-2237 179,-2237 179,-2440"/>
<text text-anchor="middle" x="89.5" y="-2424.8" font-family="Times,serif" font-size="14.00">0x4000a15379</text>
<text text-anchor="middle" x="89.5" y="-2409.8" font-family="Times,serif" font-size="14.00">_______________________</text>
<text text-anchor="middle" x="89.5" y="-2394.8" font-family="Times,serif" font-size="14.00">_______________________</text>
<text text-anchor="middle" x="89.5" y="-2379.8" font-family="Times,serif" font-size="14.00">movq 0x211be8(%rip), %rbp</text>
<text text-anchor="middle" x="89.5" y="-2364.8" font-family="Times,serif" font-size="14.00">xorl %r13d, %r13d</text>
<text text-anchor="middle" x="89.5" y="-2349.8" font-family="Times,serif" font-size="14.00">movq $0, 0x18(%rsp)</text>
<text text-anchor="middle" x="89.5" y="-2334.8" font-family="Times,serif" font-size="14.00">nopl (%rax)</text>
<text text-anchor="middle" x="89.5" y="-2319.8" font-family="Times,serif" font-size="14.00">movq 0x18(%rsp), %rcx</text>
<text text-anchor="middle" x="89.5" y="-2304.8" font-family="Times,serif" font-size="14.00">xorl %r9d, %r9d</text>
<text text-anchor="middle" x="89.5" y="-2289.8" font-family="Times,serif" font-size="14.00">testq %rcx, %rcx</text>
<text text-anchor="middle" x="89.5" y="-2274.8" font-family="Times,serif" font-size="14.00">sete %r9b</text>
<text text-anchor="middle" x="89.5" y="-2259.8" font-family="Times,serif" font-size="14.00">cmpq (%rbp), %r9</text>
<text text-anchor="middle" x="89.5" y="-2244.8" font-family="Times,serif" font-size="14.00">jae 0x4000a15514</text>
</g>
<!-- 1135&#45;&gt;1136 -->
<g id="edge2" class="edge"><title>1135&#45;&gt;1136</title>
<path fill="none" stroke="black" d="M89.5,-2475.84C89.5,-2467.59 89.5,-2459.03 89.5,-2450.4"/>
<polygon fill="black" stroke="black" points="93.0001,-2450.25 89.5,-2440.25 86.0001,-2450.25 93.0001,-2450.25"/>
</g>
<!-- 1137 -->
<g id="node4" class="node"><title>1137</title>
<polygon fill="none" stroke="black" points="175.5,-2201 3.5,-2201 3.5,-2103 175.5,-2103 175.5,-2201"/>
<text text-anchor="middle" x="89.5" y="-2185.8" font-family="Times,serif" font-size="14.00">0x4000a153a9</text>
<text text-anchor="middle" x="89.5" y="-2170.8" font-family="Times,serif" font-size="14.00">_______________________</text>
<text text-anchor="middle" x="89.5" y="-2155.8" font-family="Times,serif" font-size="14.00">_______________________</text>
<text text-anchor="middle" x="89.5" y="-2140.8" font-family="Times,serif" font-size="14.00">leaq (%rcx, %r9), %r8</text>
<text text-anchor="middle" x="89.5" y="-2125.8" font-family="Times,serif" font-size="14.00">cmpq %r8, %rax</text>
<text text-anchor="middle" x="89.5" y="-2110.8" font-family="Times,serif" font-size="14.00">jb 0x4000a154f8</text>
</g>
<!-- 1136&#45;&gt;1137 -->
<g id="edge3" class="edge"><title>1136&#45;&gt;1137</title>
<path fill="none" stroke="black" d="M89.5,-2236.88C89.5,-2228.23 89.5,-2219.67 89.5,-2211.52"/>
<polygon fill="black" stroke="black" points="93.0001,-2211.44 89.5,-2201.44 86.0001,-2211.44 93.0001,-2211.44"/>
</g>
<!-- 1138 -->
<g id="node5" class="node"><title>1138</title>
<polygon fill="none" stroke="black" points="175.5,-2067 3.5,-2067 3.5,-1864 175.5,-1864 175.5,-2067"/>
<text text-anchor="middle" x="89.5" y="-2051.8" font-family="Times,serif" font-size="14.00">0x4000a153b6</text>
<text text-anchor="middle" x="89.5" y="-2036.8" font-family="Times,serif" font-size="14.00">_______________________</text>
<text text-anchor="middle" x="89.5" y="-2021.8" font-family="Times,serif" font-size="14.00">_______________________</text>
<text text-anchor="middle" x="89.5" y="-2006.8" font-family="Times,serif" font-size="14.00">movq 0x18(%rsp), %rax</text>
<text text-anchor="middle" x="89.5" y="-1991.8" font-family="Times,serif" font-size="14.00">movq %r9, %r15</text>
<text text-anchor="middle" x="89.5" y="-1976.8" font-family="Times,serif" font-size="14.00">movq %r9, %rcx</text>
<text text-anchor="middle" x="89.5" y="-1961.8" font-family="Times,serif" font-size="14.00">shlq $4, %rcx</text>
<text text-anchor="middle" x="89.5" y="-1946.8" font-family="Times,serif" font-size="14.00">movq %r8, %r14</text>
<text text-anchor="middle" x="89.5" y="-1931.8" font-family="Times,serif" font-size="14.00">leaq (%rbp, %rcx), %r12</text>
<text text-anchor="middle" x="89.5" y="-1916.8" font-family="Times,serif" font-size="14.00">leaq 1(%rax, %r15), %rax</text>
<text text-anchor="middle" x="89.5" y="-1901.8" font-family="Times,serif" font-size="14.00">subq %r8, %rax</text>
<text text-anchor="middle" x="89.5" y="-1886.8" font-family="Times,serif" font-size="14.00">movq %rax, (%rsp)</text>
<text text-anchor="middle" x="89.5" y="-1871.8" font-family="Times,serif" font-size="14.00">jmp 0x4000a153f5</text>
</g>
<!-- 1137&#45;&gt;1138 -->
<g id="edge4" class="edge"><title>1137&#45;&gt;1138</title>
<path fill="none" stroke="black" d="M89.5,-2102.52C89.5,-2094.53 89.5,-2085.97 89.5,-2077.18"/>
<polygon fill="black" stroke="black" points="93.0001,-2077.17 89.5,-2067.17 86.0001,-2077.17 93.0001,-2077.17"/>
</g>
<!-- 1139 -->
<g id="node6" class="node"><title>1139</title>
<polygon fill="none" stroke="black" points="175.5,-1828 3.5,-1828 3.5,-1730 175.5,-1730 175.5,-1828"/>
<text text-anchor="middle" x="89.5" y="-1812.8" font-family="Times,serif" font-size="14.00">0x4000a153f5</text>
<text text-anchor="middle" x="89.5" y="-1797.8" font-family="Times,serif" font-size="14.00">_______________________</text>
<text text-anchor="middle" x="89.5" y="-1782.8" font-family="Times,serif" font-size="14.00">_______________________</text>
<text text-anchor="middle" x="89.5" y="-1767.8" font-family="Times,serif" font-size="14.00">movq 0x18(%r12), %rax</text>
<text text-anchor="middle" x="89.5" y="-1752.8" font-family="Times,serif" font-size="14.00">testq %rax, %rax</text>
<text text-anchor="middle" x="89.5" y="-1737.8" font-family="Times,serif" font-size="14.00">je 0x4000a154a2</text>
</g>
<!-- 1138&#45;&gt;1139 -->
<g id="edge5" class="edge"><title>1138&#45;&gt;1139</title>
<path fill="none" stroke="black" d="M89.5,-1863.88C89.5,-1855.23 89.5,-1846.67 89.5,-1838.52"/>
<polygon fill="black" stroke="black" points="93.0001,-1838.44 89.5,-1828.44 86.0001,-1838.44 93.0001,-1838.44"/>
</g>
<!-- 1140 -->
<g id="node7" class="node"><title>1140</title>
<polygon fill="none" stroke="black" points="179,-1694 0,-1694 0,-1596 179,-1596 179,-1694"/>
<text text-anchor="middle" x="89.5" y="-1678.8" font-family="Times,serif" font-size="14.00">0x4000a15403</text>
<text text-anchor="middle" x="89.5" y="-1663.8" font-family="Times,serif" font-size="14.00">_______________________</text>
<text text-anchor="middle" x="89.5" y="-1648.8" font-family="Times,serif" font-size="14.00">_______________________</text>
<text text-anchor="middle" x="89.5" y="-1633.8" font-family="Times,serif" font-size="14.00">movq 0x10(%r12), %rdx</text>
<text text-anchor="middle" x="89.5" y="-1618.8" font-family="Times,serif" font-size="14.00">cmpq 0x211b89(%rip), %rdx</text>
<text text-anchor="middle" x="89.5" y="-1603.8" font-family="Times,serif" font-size="14.00">ja 0x4000a1553b</text>
</g>
<!-- 1139&#45;&gt;1140 -->
<g id="edge6" class="edge"><title>1139&#45;&gt;1140</title>
<path fill="none" stroke="black" d="M89.5,-1729.97C89.5,-1721.69 89.5,-1713 89.5,-1704.48"/>
<polygon fill="black" stroke="black" points="93.0001,-1704.21 89.5,-1694.21 86.0001,-1704.21 93.0001,-1704.21"/>
</g>
<!-- 1141 -->
<g id="node8" class="node"><title>1141</title>
<polygon fill="none" stroke="black" points="175.5,-1560 3.5,-1560 3.5,-1327 175.5,-1327 175.5,-1560"/>
<text text-anchor="middle" x="89.5" y="-1544.8" font-family="Times,serif" font-size="14.00">0x4000a15415</text>
<text text-anchor="middle" x="89.5" y="-1529.8" font-family="Times,serif" font-size="14.00">_______________________</text>
<text text-anchor="middle" x="89.5" y="-1514.8" font-family="Times,serif" font-size="14.00">_______________________</text>
<text text-anchor="middle" x="89.5" y="-1499.8" font-family="Times,serif" font-size="14.00">cmpq %rdx, %r13</text>
<text text-anchor="middle" x="89.5" y="-1484.8" font-family="Times,serif" font-size="14.00">cmovbq %rdx, %r13</text>
<text text-anchor="middle" x="89.5" y="-1469.8" font-family="Times,serif" font-size="14.00">movq 0x448(%rax), %rdx</text>
<text text-anchor="middle" x="89.5" y="-1454.8" font-family="Times,serif" font-size="14.00">movq %rdx, %rsi</text>
<text text-anchor="middle" x="89.5" y="-1439.8" font-family="Times,serif" font-size="14.00">shlq $4, %rsi</text>
<text text-anchor="middle" x="89.5" y="-1424.8" font-family="Times,serif" font-size="14.00">addq 8(%rsp), %rsi</text>
<text text-anchor="middle" x="89.5" y="-1409.8" font-family="Times,serif" font-size="14.00">movq $&#45;1, (%rsi)</text>
<text text-anchor="middle" x="89.5" y="-1394.8" font-family="Times,serif" font-size="14.00">movq $0, 8(%rsi)</text>
<text text-anchor="middle" x="89.5" y="-1379.8" font-family="Times,serif" font-size="14.00">movq 0x440(%rax), %rdi</text>
<text text-anchor="middle" x="89.5" y="-1364.8" font-family="Times,serif" font-size="14.00">leaq 1(%rdi), %r11</text>
<text text-anchor="middle" x="89.5" y="-1349.8" font-family="Times,serif" font-size="14.00">cmpq $1, %r11</text>
<text text-anchor="middle" x="89.5" y="-1334.8" font-family="Times,serif" font-size="14.00">jbe 0x4000a154a2</text>
</g>
<!-- 1140&#45;&gt;1141 -->
<g id="edge7" class="edge"><title>1140&#45;&gt;1141</title>
<path fill="none" stroke="black" d="M89.5,-1595.96C89.5,-1587.92 89.5,-1579.26 89.5,-1570.29"/>
<polygon fill="black" stroke="black" points="93.0001,-1570.06 89.5,-1560.06 86.0001,-1570.06 93.0001,-1570.06"/>
</g>
<!-- 1142 -->
<g id="node9" class="node"><title>1142</title>
<polygon fill="none" stroke="black" points="175.5,-1291 3.5,-1291 3.5,-1208 175.5,-1208 175.5,-1291"/>
<text text-anchor="middle" x="89.5" y="-1275.8" font-family="Times,serif" font-size="14.00">0x4000a1544f</text>
<text text-anchor="middle" x="89.5" y="-1260.8" font-family="Times,serif" font-size="14.00">_______________________</text>
<text text-anchor="middle" x="89.5" y="-1245.8" font-family="Times,serif" font-size="14.00">_______________________</text>
<text text-anchor="middle" x="89.5" y="-1230.8" font-family="Times,serif" font-size="14.00">cmpq %r14, %rdx</text>
<text text-anchor="middle" x="89.5" y="-1215.8" font-family="Times,serif" font-size="14.00">jne 0x4000a15579</text>
</g>
<!-- 1141&#45;&gt;1142 -->
<g id="edge8" class="edge"><title>1141&#45;&gt;1142</title>
<path fill="none" stroke="black" d="M89.5,-1326.94C89.5,-1318.1 89.5,-1309.5 89.5,-1301.44"/>
<polygon fill="black" stroke="black" points="93.0001,-1301.19 89.5,-1291.19 86.0001,-1301.19 93.0001,-1301.19"/>
</g>
<!-- 1143 -->
<g id="node10" class="node"><title>1143</title>
<polygon fill="none" stroke="black" points="175.5,-1172 3.5,-1172 3.5,-1059 175.5,-1059 175.5,-1172"/>
<text text-anchor="middle" x="89.5" y="-1156.8" font-family="Times,serif" font-size="14.00">0x4000a15458</text>
<text text-anchor="middle" x="89.5" y="-1141.8" font-family="Times,serif" font-size="14.00">_______________________</text>
<text text-anchor="middle" x="89.5" y="-1126.8" font-family="Times,serif" font-size="14.00">_______________________</text>
<text text-anchor="middle" x="89.5" y="-1111.8" font-family="Times,serif" font-size="14.00">movq 0x428(%rax), %rbx</text>
<text text-anchor="middle" x="89.5" y="-1096.8" font-family="Times,serif" font-size="14.00">movq 0x420(%rax), %rdx</text>
<text text-anchor="middle" x="89.5" y="-1081.8" font-family="Times,serif" font-size="14.00">cmpq %rdx, %rbx</text>
<text text-anchor="middle" x="89.5" y="-1066.8" font-family="Times,serif" font-size="14.00">jb 0x4000a15598</text>
</g>
<!-- 1142&#45;&gt;1143 -->
<g id="edge9" class="edge"><title>1142&#45;&gt;1143</title>
<path fill="none" stroke="black" d="M89.5,-1207.82C89.5,-1199.76 89.5,-1191.11 89.5,-1182.46"/>
<polygon fill="black" stroke="black" points="93.0001,-1182.34 89.5,-1172.34 86.0001,-1182.34 93.0001,-1182.34"/>
</g>
<!-- 1144 -->
<g id="node11" class="node"><title>1144</title>
<polygon fill="none" stroke="black" points="175.5,-1023 3.5,-1023 3.5,-940 175.5,-940 175.5,-1023"/>
<text text-anchor="middle" x="89.5" y="-1007.8" font-family="Times,serif" font-size="14.00">0x4000a1546f</text>
<text text-anchor="middle" x="89.5" y="-992.8" font-family="Times,serif" font-size="14.00">_______________________</text>
<text text-anchor="middle" x="89.5" y="-977.8" font-family="Times,serif" font-size="14.00">_______________________</text>
<text text-anchor="middle" x="89.5" y="-962.8" font-family="Times,serif" font-size="14.00">cmpq %rbx, %rdi</text>
<text text-anchor="middle" x="89.5" y="-947.8" font-family="Times,serif" font-size="14.00">jb 0x4000a1555a</text>
</g>
<!-- 1143&#45;&gt;1144 -->
<g id="edge10" class="edge"><title>1143&#45;&gt;1144</title>
<path fill="none" stroke="black" d="M89.5,-1058.9C89.5,-1050.39 89.5,-1041.63 89.5,-1033.23"/>
<polygon fill="black" stroke="black" points="93.0001,-1033.19 89.5,-1023.19 86.0001,-1033.19 93.0001,-1033.19"/>
</g>
<!-- 1145 -->
<g id="node12" class="node"><title>1145</title>
<polygon fill="none" stroke="black" points="175.5,-904 3.5,-904 3.5,-716 175.5,-716 175.5,-904"/>
<text text-anchor="middle" x="89.5" y="-888.8" font-family="Times,serif" font-size="14.00">0x4000a15478</text>
<text text-anchor="middle" x="89.5" y="-873.8" font-family="Times,serif" font-size="14.00">_______________________</text>
<text text-anchor="middle" x="89.5" y="-858.8" font-family="Times,serif" font-size="14.00">_______________________</text>
<text text-anchor="middle" x="89.5" y="-843.8" font-family="Times,serif" font-size="14.00">movq 0x10(%rsp), %rcx</text>
<text text-anchor="middle" x="89.5" y="-828.8" font-family="Times,serif" font-size="14.00">subq %rdx, %rbx</text>
<text text-anchor="middle" x="89.5" y="-813.8" font-family="Times,serif" font-size="14.00">subq %rdi, %rcx</text>
<text text-anchor="middle" x="89.5" y="-798.8" font-family="Times,serif" font-size="14.00">movq %rcx, (%rsi)</text>
<text text-anchor="middle" x="89.5" y="-783.8" font-family="Times,serif" font-size="14.00">movq 0x418(%rax), %rsi</text>
<text text-anchor="middle" x="89.5" y="-768.8" font-family="Times,serif" font-size="14.00">movq %rcx, %rdi</text>
<text text-anchor="middle" x="89.5" y="-753.8" font-family="Times,serif" font-size="14.00">callq 0x4000a1ea90</text>
<text text-anchor="middle" x="89.5" y="-738.8" font-family="Times,serif" font-size="14.00">_______________________</text>
<text text-anchor="middle" x="89.5" y="-723.8" font-family="Times,serif" font-size="14.00">CALL 0x4000a1ea90</text>
</g>
<!-- 1144&#45;&gt;1145 -->
<g id="edge11" class="edge"><title>1144&#45;&gt;1145</title>
<path fill="none" stroke="black" d="M89.5,-939.901C89.5,-931.931 89.5,-923.238 89.5,-914.254"/>
<polygon fill="black" stroke="black" points="93.0001,-914.009 89.5,-904.01 86.0001,-914.01 93.0001,-914.009"/>
</g>
<!-- 1146 -->
<g id="node13" class="node"><title>1146</title>
<polygon fill="none" stroke="black" points="175.5,-680 3.5,-680 3.5,-537 175.5,-537 175.5,-680"/>
<text text-anchor="middle" x="89.5" y="-664.8" font-family="Times,serif" font-size="14.00">0x4000a15495</text>
<text text-anchor="middle" x="89.5" y="-649.8" font-family="Times,serif" font-size="14.00">_______________________</text>
<text text-anchor="middle" x="89.5" y="-634.8" font-family="Times,serif" font-size="14.00">_______________________</text>
<text text-anchor="middle" x="89.5" y="-619.8" font-family="Times,serif" font-size="14.00">movq %rbx, %rdx</text>
<text text-anchor="middle" x="89.5" y="-604.8" font-family="Times,serif" font-size="14.00">xorl %esi, %esi</text>
<text text-anchor="middle" x="89.5" y="-589.8" font-family="Times,serif" font-size="14.00">movq %rax, %rdi</text>
<text text-anchor="middle" x="89.5" y="-574.8" font-family="Times,serif" font-size="14.00">callq 0x4000a1ec80</text>
<text text-anchor="middle" x="89.5" y="-559.8" font-family="Times,serif" font-size="14.00">_______________________</text>
<text text-anchor="middle" x="89.5" y="-544.8" font-family="Times,serif" font-size="14.00">CALL 0x4000a1ec80</text>
</g>
<!-- 1145&#45;&gt;1146 -->
<g id="edge12" class="edge"><title>1145&#45;&gt;1146</title>
<path fill="none" stroke="black" d="M89.5,-715.967C89.5,-707.373 89.5,-698.712 89.5,-690.241"/>
<polygon fill="black" stroke="black" points="93.0001,-690.02 89.5,-680.02 86.0001,-690.02 93.0001,-690.02"/>
</g>
<!-- 1147 -->
<g id="node14" class="node"><title>1147</title>
<polygon fill="none" stroke="black" points="175.5,-501 3.5,-501 3.5,-403 175.5,-403 175.5,-501"/>
<text text-anchor="middle" x="89.5" y="-485.8" font-family="Times,serif" font-size="14.00">0x4000a154a2</text>
<text text-anchor="middle" x="89.5" y="-470.8" font-family="Times,serif" font-size="14.00">_______________________</text>
<text text-anchor="middle" x="89.5" y="-455.8" font-family="Times,serif" font-size="14.00">_______________________</text>
<text text-anchor="middle" x="89.5" y="-440.8" font-family="Times,serif" font-size="14.00">addq $1, %r15</text>
<text text-anchor="middle" x="89.5" y="-425.8" font-family="Times,serif" font-size="14.00">cmpq %r15, (%rbp)</text>
<text text-anchor="middle" x="89.5" y="-410.8" font-family="Times,serif" font-size="14.00">ja 0x4000a153e0</text>
</g>
<!-- 1146&#45;&gt;1147 -->
<g id="edge13" class="edge"><title>1146&#45;&gt;1147</title>
<path fill="none" stroke="black" d="M89.5,-536.581C89.5,-528.214 89.5,-519.748 89.5,-511.578"/>
<polygon fill="black" stroke="black" points="93.0001,-511.418 89.5,-501.418 86.0001,-511.418 93.0001,-511.418"/>
</g>
<!-- 1148 -->
<g id="node15" class="node"><title>1148</title>
<polygon fill="none" stroke="black" points="179,-367 0,-367 0,-254 179,-254 179,-367"/>
<text text-anchor="middle" x="89.5" y="-351.8" font-family="Times,serif" font-size="14.00">0x4000a153e0</text>
<text text-anchor="middle" x="89.5" y="-336.8" font-family="Times,serif" font-size="14.00">_______________________</text>
<text text-anchor="middle" x="89.5" y="-321.8" font-family="Times,serif" font-size="14.00">_______________________</text>
<text text-anchor="middle" x="89.5" y="-306.8" font-family="Times,serif" font-size="14.00">addq (%rsp), %r14</text>
<text text-anchor="middle" x="89.5" y="-291.8" font-family="Times,serif" font-size="14.00">addq $0x10, %r12</text>
<text text-anchor="middle" x="89.5" y="-276.8" font-family="Times,serif" font-size="14.00">cmpq %r14, 0x211b71(%rip)</text>
<text text-anchor="middle" x="89.5" y="-261.8" font-family="Times,serif" font-size="14.00">jb 0x4000a154f8</text>
</g>
<!-- 1147&#45;&gt;1148 -->
<g id="edge14" class="edge"><title>1147&#45;&gt;1148</title>
<path fill="none" stroke="black" d="M89.5,-402.992C89.5,-394.722 89.5,-385.998 89.5,-377.354"/>
<polygon fill="black" stroke="black" points="93.0001,-377.276 89.5,-367.276 86.0001,-377.276 93.0001,-377.276"/>
</g>
<!-- 1149 -->
<g id="node16" class="node"><title>1149</title>
<polygon fill="none" stroke="black" points="175.5,-218 3.5,-218 3.5,-0 175.5,-0 175.5,-218"/>
<text text-anchor="middle" x="89.5" y="-202.8" font-family="Times,serif" font-size="14.00">0x4000a154f8</text>
<text text-anchor="middle" x="89.5" y="-187.8" font-family="Times,serif" font-size="14.00">_______________________</text>
<text text-anchor="middle" x="89.5" y="-172.8" font-family="Times,serif" font-size="14.00">_______________________</text>
<text text-anchor="middle" x="89.5" y="-157.8" font-family="Times,serif" font-size="14.00">movq 8(%rsp), %rax</text>
<text text-anchor="middle" x="89.5" y="-142.8" font-family="Times,serif" font-size="14.00">movq %r13, (%rax)</text>
<text text-anchor="middle" x="89.5" y="-127.8" font-family="Times,serif" font-size="14.00">movq 0x10(%rsp), %rax</text>
<text text-anchor="middle" x="89.5" y="-112.8" font-family="Times,serif" font-size="14.00">addq $0x28, %rsp</text>
<text text-anchor="middle" x="89.5" y="-97.8" font-family="Times,serif" font-size="14.00">popq %rbx</text>
<text text-anchor="middle" x="89.5" y="-82.8" font-family="Times,serif" font-size="14.00">popq %rbp</text>
<text text-anchor="middle" x="89.5" y="-67.8" font-family="Times,serif" font-size="14.00">popq %r12</text>
<text text-anchor="middle" x="89.5" y="-52.8" font-family="Times,serif" font-size="14.00">popq %r13</text>
<text text-anchor="middle" x="89.5" y="-37.8" font-family="Times,serif" font-size="14.00">popq %r14</text>
<text text-anchor="middle" x="89.5" y="-22.8" font-family="Times,serif" font-size="14.00">popq %r15</text>
<text text-anchor="middle" x="89.5" y="-7.8" font-family="Times,serif" font-size="14.00">retq </text>
</g>
<!-- 1148&#45;&gt;1149 -->
<g id="edge15" class="edge"><title>1148&#45;&gt;1149</title>
<path fill="none" stroke="black" d="M89.5,-253.928C89.5,-245.803 89.5,-237.187 89.5,-228.37"/>
<polygon fill="black" stroke="black" points="93.0001,-228.345 89.5,-218.346 86.0001,-228.346 93.0001,-228.345"/>
</g>
</g>
</svg>
