<?xml version="1.0" encoding="UTF-8" standalone="no"?>
<!DOCTYPE svg PUBLIC "-//W3C//DTD SVG 1.1//EN"
 "http://www.w3.org/Graphics/SVG/1.1/DTD/svg11.dtd">
<!-- Generated by graphviz version 2.38.0 (20140413.2041)
 -->
<!-- Title: %3 Pages: 1 -->
<svg width="370pt" height="434pt"
 viewBox="0.00 0.00 370.00 434.00" xmlns="http://www.w3.org/2000/svg" xmlns:xlink="http://www.w3.org/1999/xlink">
<g id="graph0" class="graph" transform="scale(1 1) rotate(0) translate(4 430)">
<title>%3</title>
<polygon fill="white" stroke="none" points="-4,4 -4,-430 366,-430 366,4 -4,4"/>
<!-- 1519 -->
<g id="node1" class="node"><title>1519</title>
<polygon fill="none" stroke="black" points="267,-426 95,-426 95,-343 267,-343 267,-426"/>
<text text-anchor="middle" x="181" y="-410.8" font-family="Times,serif" font-size="14.00">0x4000cb70c0</text>
<text text-anchor="middle" x="181" y="-395.8" font-family="Times,serif" font-size="14.00">_______________________</text>
<text text-anchor="middle" x="181" y="-380.8" font-family="Times,serif" font-size="14.00">_______________________</text>
<text text-anchor="middle" x="181" y="-365.8" font-family="Times,serif" font-size="14.00">testq %rdx, %rdx</text>
<text text-anchor="middle" x="181" y="-350.8" font-family="Times,serif" font-size="14.00">jne 0x4000cb70d0</text>
</g>
<!-- 1520 -->
<g id="node2" class="node"><title>1520</title>
<polygon fill="none" stroke="black" points="172,-284.5 0,-284.5 0,-201.5 172,-201.5 172,-284.5"/>
<text text-anchor="middle" x="86" y="-269.3" font-family="Times,serif" font-size="14.00">0x4000cb70c5</text>
<text text-anchor="middle" x="86" y="-254.3" font-family="Times,serif" font-size="14.00">_______________________</text>
<text text-anchor="middle" x="86" y="-239.3" font-family="Times,serif" font-size="14.00">_______________________</text>
<text text-anchor="middle" x="86" y="-224.3" font-family="Times,serif" font-size="14.00">xorl %eax, %eax</text>
<text text-anchor="middle" x="86" y="-209.3" font-family="Times,serif" font-size="14.00">retq </text>
</g>
<!-- 1519&#45;&gt;1520 -->
<g id="edge1" class="edge"><title>1519&#45;&gt;1520</title>
<path fill="none" stroke="black" d="M153.267,-342.776C142.633,-327.162 130.392,-309.186 119.29,-292.884"/>
<polygon fill="black" stroke="black" points="122.125,-290.829 113.604,-284.534 116.339,-294.769 122.125,-290.829"/>
</g>
<!-- 1607 -->
<g id="node3" class="node"><title>1607</title>
<polygon fill="none" stroke="black" points="362,-307 190,-307 190,-179 362,-179 362,-307"/>
<text text-anchor="middle" x="276" y="-291.8" font-family="Times,serif" font-size="14.00">0x4000cb70d0</text>
<text text-anchor="middle" x="276" y="-276.8" font-family="Times,serif" font-size="14.00">_______________________</text>
<text text-anchor="middle" x="276" y="-261.8" font-family="Times,serif" font-size="14.00">_______________________</text>
<text text-anchor="middle" x="276" y="-246.8" font-family="Times,serif" font-size="14.00">pushq %rbx</text>
<text text-anchor="middle" x="276" y="-231.8" font-family="Times,serif" font-size="14.00">movq %rdx, %rbx</text>
<text text-anchor="middle" x="276" y="-216.8" font-family="Times,serif" font-size="14.00">callq 0x4000cb5230</text>
<text text-anchor="middle" x="276" y="-201.8" font-family="Times,serif" font-size="14.00">_______________________</text>
<text text-anchor="middle" x="276" y="-186.8" font-family="Times,serif" font-size="14.00">CALL 0x4000cb5230</text>
</g>
<!-- 1519&#45;&gt;1607 -->
<g id="edge2" class="edge"><title>1519&#45;&gt;1607</title>
<path fill="none" stroke="black" d="M208.733,-342.776C214.562,-334.217 220.873,-324.949 227.216,-315.636"/>
<polygon fill="black" stroke="black" points="230.3,-317.325 233.036,-307.09 224.514,-313.385 230.3,-317.325"/>
</g>
<!-- 1630 -->
<g id="node4" class="node"><title>1630</title>
<polygon fill="none" stroke="black" points="362,-143 190,-143 190,-0 362,-0 362,-143"/>
<text text-anchor="middle" x="276" y="-127.8" font-family="Times,serif" font-size="14.00">0x4000cb70d9</text>
<text text-anchor="middle" x="276" y="-112.8" font-family="Times,serif" font-size="14.00">_______________________</text>
<text text-anchor="middle" x="276" y="-97.8" font-family="Times,serif" font-size="14.00">_______________________</text>
<text text-anchor="middle" x="276" y="-82.8" font-family="Times,serif" font-size="14.00">cmpq %rax, %rbx</text>
<text text-anchor="middle" x="276" y="-67.8" font-family="Times,serif" font-size="14.00">setne %al</text>
<text text-anchor="middle" x="276" y="-52.8" font-family="Times,serif" font-size="14.00">movzbl %al, %eax</text>
<text text-anchor="middle" x="276" y="-37.8" font-family="Times,serif" font-size="14.00">negl %eax</text>
<text text-anchor="middle" x="276" y="-22.8" font-family="Times,serif" font-size="14.00">popq %rbx</text>
<text text-anchor="middle" x="276" y="-7.8" font-family="Times,serif" font-size="14.00">retq </text>
</g>
<!-- 1607&#45;&gt;1630 -->
<g id="edge3" class="edge"><title>1607&#45;&gt;1630</title>
<path fill="none" stroke="black" d="M276,-178.884C276,-170.496 276,-161.804 276,-153.169"/>
<polygon fill="black" stroke="black" points="279.5,-153.079 276,-143.079 272.5,-153.079 279.5,-153.079"/>
</g>
</g>
</svg>
