<?xml version="1.0" encoding="UTF-8" standalone="no"?>
<!DOCTYPE svg PUBLIC "-//W3C//DTD SVG 1.1//EN"
 "http://www.w3.org/Graphics/SVG/1.1/DTD/svg11.dtd">
<!-- Generated by graphviz version 2.38.0 (20140413.2041)
 -->
<!-- Title: %3 Pages: 1 -->
<svg width="180pt" height="584pt"
 viewBox="0.00 0.00 180.00 584.00" xmlns="http://www.w3.org/2000/svg" xmlns:xlink="http://www.w3.org/1999/xlink">
<g id="graph0" class="graph" transform="scale(1 1) rotate(0) translate(4 580)">
<title>%3</title>
<polygon fill="white" stroke="none" points="-4,4 -4,-580 176,-580 176,4 -4,4"/>
<!-- 49 -->
<g id="node1" class="node"><title>49</title>
<polygon fill="none" stroke="black" points="172,-576 0,-576 0,-478 172,-478 172,-576"/>
<text text-anchor="middle" x="86" y="-560.8" font-family="Times,serif" font-size="14.00">0x4000a0dff0</text>
<text text-anchor="middle" x="86" y="-545.8" font-family="Times,serif" font-size="14.00">_______________________</text>
<text text-anchor="middle" x="86" y="-530.8" font-family="Times,serif" font-size="14.00">_______________________</text>
<text text-anchor="middle" x="86" y="-515.8" font-family="Times,serif" font-size="14.00">movq 0x298(%rdi), %rax</text>
<text text-anchor="middle" x="86" y="-500.8" font-family="Times,serif" font-size="14.00">testq %rax, %rax</text>
<text text-anchor="middle" x="86" y="-485.8" font-family="Times,serif" font-size="14.00">je 0x4000a0e050</text>
</g>
<!-- 50 -->
<g id="node2" class="node"><title>50</title>
<polygon fill="none" stroke="black" points="172,-442 0,-442 0,-269 172,-269 172,-442"/>
<text text-anchor="middle" x="86" y="-426.8" font-family="Times,serif" font-size="14.00">0x4000a0dffc</text>
<text text-anchor="middle" x="86" y="-411.8" font-family="Times,serif" font-size="14.00">_______________________</text>
<text text-anchor="middle" x="86" y="-396.8" font-family="Times,serif" font-size="14.00">_______________________</text>
<text text-anchor="middle" x="86" y="-381.8" font-family="Times,serif" font-size="14.00">movq 8(%rax), %rcx</text>
<text text-anchor="middle" x="86" y="-366.8" font-family="Times,serif" font-size="14.00">movl (%rcx), %edx</text>
<text text-anchor="middle" x="86" y="-351.8" font-family="Times,serif" font-size="14.00">movl %edx, 0x2ec(%rdi)</text>
<text text-anchor="middle" x="86" y="-336.8" font-family="Times,serif" font-size="14.00">movl 8(%rcx), %eax</text>
<text text-anchor="middle" x="86" y="-321.8" font-family="Times,serif" font-size="14.00">movl 4(%rcx), %esi</text>
<text text-anchor="middle" x="86" y="-306.8" font-family="Times,serif" font-size="14.00">leal &#45;1(%rax), %r8d</text>
<text text-anchor="middle" x="86" y="-291.8" font-family="Times,serif" font-size="14.00">testl %eax, %r8d</text>
<text text-anchor="middle" x="86" y="-276.8" font-family="Times,serif" font-size="14.00">jne 0x4000a0e07c</text>
</g>
<!-- 49&#45;&gt;50 -->
<g id="edge1" class="edge"><title>49&#45;&gt;50</title>
<path fill="none" stroke="black" d="M86,-477.881C86,-469.775 86,-461.114 86,-452.291"/>
<polygon fill="black" stroke="black" points="89.5001,-452.282 86,-442.282 82.5001,-452.282 89.5001,-452.282"/>
</g>
<!-- 51 -->
<g id="node3" class="node"><title>51</title>
<polygon fill="none" stroke="black" points="172,-233 0,-233 0,-0 172,-0 172,-233"/>
<text text-anchor="middle" x="86" y="-217.8" font-family="Times,serif" font-size="14.00">0x4000a0e017</text>
<text text-anchor="middle" x="86" y="-202.8" font-family="Times,serif" font-size="14.00">_______________________</text>
<text text-anchor="middle" x="86" y="-187.8" font-family="Times,serif" font-size="14.00">_______________________</text>
<text text-anchor="middle" x="86" y="-172.8" font-family="Times,serif" font-size="14.00">movl %r8d, 0x2f0(%rdi)</text>
<text text-anchor="middle" x="86" y="-157.8" font-family="Times,serif" font-size="14.00">leaq 0x10(%rcx), %r8</text>
<text text-anchor="middle" x="86" y="-142.8" font-family="Times,serif" font-size="14.00">addl %eax, %eax</text>
<text text-anchor="middle" x="86" y="-127.8" font-family="Times,serif" font-size="14.00">movl 0xc(%rcx), %ecx</text>
<text text-anchor="middle" x="86" y="-112.8" font-family="Times,serif" font-size="14.00">subq %rsi, %rdx</text>
<text text-anchor="middle" x="86" y="-97.8" font-family="Times,serif" font-size="14.00">leaq (%r8, %rax, 4), %rax</text>
<text text-anchor="middle" x="86" y="-82.8" font-family="Times,serif" font-size="14.00">movq %r8, 0x2f8(%rdi)</text>
<text text-anchor="middle" x="86" y="-67.8" font-family="Times,serif" font-size="14.00">movq %rax, 0x300(%rdi)</text>
<text text-anchor="middle" x="86" y="-52.8" font-family="Times,serif" font-size="14.00">leaq (%rax, %rdx, 4), %rax</text>
<text text-anchor="middle" x="86" y="-37.8" font-family="Times,serif" font-size="14.00">movl %ecx, 0x2f4(%rdi)</text>
<text text-anchor="middle" x="86" y="-22.8" font-family="Times,serif" font-size="14.00">movq %rax, 0x308(%rdi)</text>
<text text-anchor="middle" x="86" y="-7.8" font-family="Times,serif" font-size="14.00">retq </text>
</g>
<!-- 50&#45;&gt;51 -->
<g id="edge2" class="edge"><title>50&#45;&gt;51</title>
<path fill="none" stroke="black" d="M86,-268.938C86,-260.551 86,-251.926 86,-243.249"/>
<polygon fill="black" stroke="black" points="89.5001,-243.049 86,-233.049 82.5001,-243.049 89.5001,-243.049"/>
</g>
</g>
</svg>
