<?xml version="1.0" encoding="UTF-8" standalone="no"?>
<!DOCTYPE svg PUBLIC "-//W3C//DTD SVG 1.1//EN"
 "http://www.w3.org/Graphics/SVG/1.1/DTD/svg11.dtd">
<!-- Generated by graphviz version 2.38.0 (20140413.2041)
 -->
<!-- Title: %3 Pages: 1 -->
<svg width="407pt" height="658pt"
 viewBox="0.00 0.00 406.51 658.00" xmlns="http://www.w3.org/2000/svg" xmlns:xlink="http://www.w3.org/1999/xlink">
<g id="graph0" class="graph" transform="scale(1 1) rotate(0) translate(4 654)">
<title>%3</title>
<polygon fill="white" stroke="none" points="-4,4 -4,-654 402.507,-654 402.507,4 -4,4"/>
<!-- 1281 -->
<g id="node1" class="node"><title>1281</title>
<polygon fill="none" stroke="black" points="363.5,-650 190.5,-650 190.5,-492 363.5,-492 363.5,-650"/>
<text text-anchor="middle" x="277" y="-634.8" font-family="Times,serif" font-size="14.00">0x400000069a</text>
<text text-anchor="middle" x="277" y="-619.8" font-family="Times,serif" font-size="14.00">_______________________</text>
<text text-anchor="middle" x="277" y="-604.8" font-family="Times,serif" font-size="14.00">{</text>
<text text-anchor="middle" x="277" y="-589.8" font-family="Times,serif" font-size="14.00"> &#160;&#160;&#160;for (int i = 0; i &lt; 10; ++i)</text>
<text text-anchor="middle" x="277" y="-574.8" font-family="Times,serif" font-size="14.00">_______________________</text>
<text text-anchor="middle" x="277" y="-559.8" font-family="Times,serif" font-size="14.00">pushq %rbp</text>
<text text-anchor="middle" x="277" y="-544.8" font-family="Times,serif" font-size="14.00">movq %rsp, %rbp</text>
<text text-anchor="middle" x="277" y="-529.8" font-family="Times,serif" font-size="14.00">subq $0x10, %rsp</text>
<text text-anchor="middle" x="277" y="-514.8" font-family="Times,serif" font-size="14.00">movl $0, &#45;4(%rbp)</text>
<text text-anchor="middle" x="277" y="-499.8" font-family="Times,serif" font-size="14.00">jmp 0x40000006b9</text>
</g>
<!-- 1282 -->
<g id="node2" class="node"><title>1282</title>
<polygon fill="none" stroke="black" points="363.5,-456 190.5,-456 190.5,-358 363.5,-358 363.5,-456"/>
<text text-anchor="middle" x="277" y="-440.8" font-family="Times,serif" font-size="14.00">0x40000006b9</text>
<text text-anchor="middle" x="277" y="-425.8" font-family="Times,serif" font-size="14.00">_______________________</text>
<text text-anchor="middle" x="277" y="-410.8" font-family="Times,serif" font-size="14.00"> &#160;&#160;&#160;for (int i = 0; i &lt; 10; ++i)</text>
<text text-anchor="middle" x="277" y="-395.8" font-family="Times,serif" font-size="14.00">_______________________</text>
<text text-anchor="middle" x="277" y="-380.8" font-family="Times,serif" font-size="14.00">cmpl $9, &#45;4(%rbp)</text>
<text text-anchor="middle" x="277" y="-365.8" font-family="Times,serif" font-size="14.00">jle 0x40000006ab</text>
</g>
<!-- 1281&#45;&gt;1282 -->
<g id="edge1" class="edge"><title>1281&#45;&gt;1282</title>
<path fill="none" stroke="black" d="M277,-491.847C277,-483.314 277,-474.738 277,-466.499"/>
<polygon fill="black" stroke="black" points="280.5,-466.273 277,-456.273 273.5,-466.273 280.5,-466.273"/>
</g>
<!-- 1283 -->
<g id="node3" class="node"><title>1283</title>
<polygon fill="none" stroke="black" points="172,-322 0,-322 0,-149 172,-149 172,-322"/>
<text text-anchor="middle" x="86" y="-306.8" font-family="Times,serif" font-size="14.00">0x40000006ab</text>
<text text-anchor="middle" x="86" y="-291.8" font-family="Times,serif" font-size="14.00">_______________________</text>
<text text-anchor="middle" x="86" y="-276.8" font-family="Times,serif" font-size="14.00"> &#160;&#160;&#160;&#160;&#160;&#160;&#160;pimp_my_loop(i);</text>
<text text-anchor="middle" x="86" y="-261.8" font-family="Times,serif" font-size="14.00">_______________________</text>
<text text-anchor="middle" x="86" y="-246.8" font-family="Times,serif" font-size="14.00">movl &#45;4(%rbp), %eax</text>
<text text-anchor="middle" x="86" y="-231.8" font-family="Times,serif" font-size="14.00">movl %eax, %edi</text>
<text text-anchor="middle" x="86" y="-216.8" font-family="Times,serif" font-size="14.00">callq 0x400000064a</text>
<text text-anchor="middle" x="86" y="-201.8" font-family="Times,serif" font-size="14.00">_______________________</text>
<text text-anchor="middle" x="86" y="-186.8" font-family="Times,serif" font-size="14.00">LOOP 0x40000006b9</text>
<text text-anchor="middle" x="86" y="-171.8" font-family="Times,serif" font-size="14.00">_______________________</text>
<text text-anchor="middle" x="86" y="-156.8" font-family="Times,serif" font-size="14.00">CALL pimp_my_loop</text>
</g>
<!-- 1282&#45;&gt;1283 -->
<g id="edge2" class="edge"><title>1282&#45;&gt;1283</title>
<path fill="none" stroke="black" d="M221.803,-357.936C208.416,-346.215 194.169,-333.686 181,-322 180.637,-321.678 180.273,-321.355 179.909,-321.031"/>
<polygon fill="black" stroke="black" points="181.964,-318.176 172.166,-314.145 177.312,-323.406 181.964,-318.176"/>
</g>
<!-- 1656 -->
<g id="node4" class="node"><title>1656</title>
<polygon fill="none" stroke="black" points="363.5,-299.5 190.5,-299.5 190.5,-171.5 363.5,-171.5 363.5,-299.5"/>
<text text-anchor="middle" x="277" y="-284.3" font-family="Times,serif" font-size="14.00">0x40000006bf</text>
<text text-anchor="middle" x="277" y="-269.3" font-family="Times,serif" font-size="14.00">_______________________</text>
<text text-anchor="middle" x="277" y="-254.3" font-family="Times,serif" font-size="14.00"> &#160;&#160;&#160;for (int i = 0; i &lt; 10; ++i)</text>
<text text-anchor="middle" x="277" y="-239.3" font-family="Times,serif" font-size="14.00">}</text>
<text text-anchor="middle" x="277" y="-224.3" font-family="Times,serif" font-size="14.00">_______________________</text>
<text text-anchor="middle" x="277" y="-209.3" font-family="Times,serif" font-size="14.00">movl $0, %eax</text>
<text text-anchor="middle" x="277" y="-194.3" font-family="Times,serif" font-size="14.00">leave </text>
<text text-anchor="middle" x="277" y="-179.3" font-family="Times,serif" font-size="14.00">retq </text>
</g>
<!-- 1282&#45;&gt;1656 -->
<g id="edge3" class="edge"><title>1282&#45;&gt;1656</title>
<path fill="none" stroke="black" d="M277,-357.881C277,-342.887 277,-325.998 277,-309.691"/>
<polygon fill="black" stroke="black" points="280.5,-309.634 277,-299.634 273.5,-309.634 280.5,-309.634"/>
</g>
<!-- 1655 -->
<g id="node5" class="node"><title>1655</title>
<polygon fill="none" stroke="black" points="325.5,-113 152.5,-113 152.5,-0 325.5,-0 325.5,-113"/>
<text text-anchor="middle" x="239" y="-97.8" font-family="Times,serif" font-size="14.00">0x40000006b5</text>
<text text-anchor="middle" x="239" y="-82.8" font-family="Times,serif" font-size="14.00">_______________________</text>
<text text-anchor="middle" x="239" y="-67.8" font-family="Times,serif" font-size="14.00"> &#160;&#160;&#160;for (int i = 0; i &lt; 10; ++i)</text>
<text text-anchor="middle" x="239" y="-52.8" font-family="Times,serif" font-size="14.00">_______________________</text>
<text text-anchor="middle" x="239" y="-37.8" font-family="Times,serif" font-size="14.00">addl $1, &#45;4(%rbp)</text>
<text text-anchor="middle" x="239" y="-22.8" font-family="Times,serif" font-size="14.00">_______________________</text>
<text text-anchor="middle" x="239" y="-7.8" font-family="Times,serif" font-size="14.00">LOOP 0x40000006b9</text>
</g>
<!-- 1283&#45;&gt;1655 -->
<g id="edge4" class="edge"><title>1283&#45;&gt;1655</title>
<path fill="none" stroke="black" d="M160.035,-148.852C168.259,-139.338 176.52,-129.78 184.439,-120.619"/>
<polygon fill="black" stroke="black" points="187.111,-122.881 191.002,-113.027 181.815,-118.303 187.111,-122.881"/>
</g>
<!-- 1655&#45;&gt;1282 -->
<g id="edge5" class="edge"><title>1655&#45;&gt;1282</title>
<path fill="none" stroke="black" d="M325.613,-98.5408C344.589,-111.845 362.214,-128.574 373,-149 408.903,-216.991 404.772,-251.982 373,-322 368.329,-332.295 361.703,-341.824 354.089,-350.483"/>
<polygon fill="black" stroke="black" points="351.453,-348.177 347.167,-357.866 356.56,-352.965 351.453,-348.177"/>
</g>
</g>
</svg>
