<?xml version="1.0" encoding="UTF-8" standalone="no"?>
<!DOCTYPE svg PUBLIC "-//W3C//DTD SVG 1.1//EN"
 "http://www.w3.org/Graphics/SVG/1.1/DTD/svg11.dtd">
<!-- Generated by graphviz version 2.38.0 (20140413.2041)
 -->
<!-- Title: %3 Pages: 1 -->
<svg width="468pt" height="925pt"
 viewBox="0.00 0.00 468.00 925.00" xmlns="http://www.w3.org/2000/svg" xmlns:xlink="http://www.w3.org/1999/xlink">
<g id="graph0" class="graph" transform="scale(1 1) rotate(0) translate(4 921)">
<title>%3</title>
<polygon fill="white" stroke="none" points="-4,4 -4,-921 464,-921 464,4 -4,4"/>
<!-- 1584 -->
<g id="node1" class="node"><title>1584</title>
<polygon fill="none" stroke="black" points="365,-917 193,-917 193,-819 365,-819 365,-917"/>
<text text-anchor="middle" x="279" y="-901.8" font-family="Times,serif" font-size="14.00">0x4000cc7750</text>
<text text-anchor="middle" x="279" y="-886.8" font-family="Times,serif" font-size="14.00">_______________________</text>
<text text-anchor="middle" x="279" y="-871.8" font-family="Times,serif" font-size="14.00">_______________________</text>
<text text-anchor="middle" x="279" y="-856.8" font-family="Times,serif" font-size="14.00">movq %rdi, %rax</text>
<text text-anchor="middle" x="279" y="-841.8" font-family="Times,serif" font-size="14.00">addq %rdx, %rax</text>
<text text-anchor="middle" x="279" y="-826.8" font-family="Times,serif" font-size="14.00">jmp 0x4000cc7773</text>
</g>
<!-- 1585 -->
<g id="node2" class="node"><title>1585</title>
<polygon fill="none" stroke="black" points="365,-783 193,-783 193,-700 365,-700 365,-783"/>
<text text-anchor="middle" x="279" y="-767.8" font-family="Times,serif" font-size="14.00">0x4000cc7773</text>
<text text-anchor="middle" x="279" y="-752.8" font-family="Times,serif" font-size="14.00">_______________________</text>
<text text-anchor="middle" x="279" y="-737.8" font-family="Times,serif" font-size="14.00">_______________________</text>
<text text-anchor="middle" x="279" y="-722.8" font-family="Times,serif" font-size="14.00">cmpq $0x10, %rdx</text>
<text text-anchor="middle" x="279" y="-707.8" font-family="Times,serif" font-size="14.00">jb 0x4000cc7857</text>
</g>
<!-- 1584&#45;&gt;1585 -->
<g id="edge1" class="edge"><title>1584&#45;&gt;1585</title>
<path fill="none" stroke="black" d="M279,-818.865C279,-810.498 279,-801.771 279,-793.335"/>
<polygon fill="black" stroke="black" points="282.5,-793.231 279,-783.231 275.5,-793.231 282.5,-793.231"/>
</g>
<!-- 1586 -->
<g id="node3" class="node"><title>1586</title>
<polygon fill="none" stroke="black" points="365,-664 193,-664 193,-581 365,-581 365,-664"/>
<text text-anchor="middle" x="279" y="-648.8" font-family="Times,serif" font-size="14.00">0x4000cc7857</text>
<text text-anchor="middle" x="279" y="-633.8" font-family="Times,serif" font-size="14.00">_______________________</text>
<text text-anchor="middle" x="279" y="-618.8" font-family="Times,serif" font-size="14.00">_______________________</text>
<text text-anchor="middle" x="279" y="-603.8" font-family="Times,serif" font-size="14.00">cmpb $8, %dl</text>
<text text-anchor="middle" x="279" y="-588.8" font-family="Times,serif" font-size="14.00">jae 0x4000cc786e</text>
</g>
<!-- 1585&#45;&gt;1586 -->
<g id="edge2" class="edge"><title>1585&#45;&gt;1586</title>
<path fill="none" stroke="black" d="M279,-699.907C279,-691.649 279,-682.864 279,-674.302"/>
<polygon fill="black" stroke="black" points="282.5,-674.021 279,-664.021 275.5,-674.021 282.5,-674.021"/>
</g>
<!-- 1587 -->
<g id="node4" class="node"><title>1587</title>
<polygon fill="none" stroke="black" points="365,-545 193,-545 193,-462 365,-462 365,-545"/>
<text text-anchor="middle" x="279" y="-529.8" font-family="Times,serif" font-size="14.00">0x4000cc785c</text>
<text text-anchor="middle" x="279" y="-514.8" font-family="Times,serif" font-size="14.00">_______________________</text>
<text text-anchor="middle" x="279" y="-499.8" font-family="Times,serif" font-size="14.00">_______________________</text>
<text text-anchor="middle" x="279" y="-484.8" font-family="Times,serif" font-size="14.00">cmpb $4, %dl</text>
<text text-anchor="middle" x="279" y="-469.8" font-family="Times,serif" font-size="14.00">jae 0x4000cc787f</text>
</g>
<!-- 1586&#45;&gt;1587 -->
<g id="edge3" class="edge"><title>1586&#45;&gt;1587</title>
<path fill="none" stroke="black" d="M279,-580.907C279,-572.649 279,-563.864 279,-555.302"/>
<polygon fill="black" stroke="black" points="282.5,-555.021 279,-545.021 275.5,-555.021 282.5,-555.021"/>
</g>
<!-- 1588 -->
<g id="node5" class="node"><title>1588</title>
<polygon fill="none" stroke="black" points="270,-403.5 98,-403.5 98,-320.5 270,-320.5 270,-403.5"/>
<text text-anchor="middle" x="184" y="-388.3" font-family="Times,serif" font-size="14.00">0x4000cc7861</text>
<text text-anchor="middle" x="184" y="-373.3" font-family="Times,serif" font-size="14.00">_______________________</text>
<text text-anchor="middle" x="184" y="-358.3" font-family="Times,serif" font-size="14.00">_______________________</text>
<text text-anchor="middle" x="184" y="-343.3" font-family="Times,serif" font-size="14.00">cmpb $1, %dl</text>
<text text-anchor="middle" x="184" y="-328.3" font-family="Times,serif" font-size="14.00">ja 0x4000cc788c</text>
</g>
<!-- 1587&#45;&gt;1588 -->
<g id="edge4" class="edge"><title>1587&#45;&gt;1588</title>
<path fill="none" stroke="black" d="M251.267,-461.776C240.633,-446.162 228.392,-428.186 217.29,-411.884"/>
<polygon fill="black" stroke="black" points="220.125,-409.829 211.604,-403.534 214.339,-413.769 220.125,-409.829"/>
</g>
<!-- 1646 -->
<g id="node6" class="node"><title>1646</title>
<polygon fill="none" stroke="black" points="460,-426 288,-426 288,-298 460,-298 460,-426"/>
<text text-anchor="middle" x="374" y="-410.8" font-family="Times,serif" font-size="14.00">0x4000cc787f</text>
<text text-anchor="middle" x="374" y="-395.8" font-family="Times,serif" font-size="14.00">_______________________</text>
<text text-anchor="middle" x="374" y="-380.8" font-family="Times,serif" font-size="14.00">_______________________</text>
<text text-anchor="middle" x="374" y="-365.8" font-family="Times,serif" font-size="14.00">movl &#45;4(%rsi, %rdx), %ecx</text>
<text text-anchor="middle" x="374" y="-350.8" font-family="Times,serif" font-size="14.00">movl (%rsi), %esi</text>
<text text-anchor="middle" x="374" y="-335.8" font-family="Times,serif" font-size="14.00">movl %ecx, &#45;4(%rdi, %rdx)</text>
<text text-anchor="middle" x="374" y="-320.8" font-family="Times,serif" font-size="14.00">movl %esi, (%rdi)</text>
<text text-anchor="middle" x="374" y="-305.8" font-family="Times,serif" font-size="14.00">retq </text>
</g>
<!-- 1587&#45;&gt;1646 -->
<g id="edge5" class="edge"><title>1587&#45;&gt;1646</title>
<path fill="none" stroke="black" d="M306.733,-461.776C312.562,-453.217 318.873,-443.949 325.216,-434.636"/>
<polygon fill="black" stroke="black" points="328.3,-436.325 331.036,-426.09 322.514,-432.385 328.3,-436.325"/>
</g>
<!-- 1589 -->
<g id="node7" class="node"><title>1589</title>
<polygon fill="none" stroke="black" points="172,-232 0,-232 0,-164 172,-164 172,-232"/>
<text text-anchor="middle" x="86" y="-216.8" font-family="Times,serif" font-size="14.00">0x4000cc7866</text>
<text text-anchor="middle" x="86" y="-201.8" font-family="Times,serif" font-size="14.00">_______________________</text>
<text text-anchor="middle" x="86" y="-186.8" font-family="Times,serif" font-size="14.00">_______________________</text>
<text text-anchor="middle" x="86" y="-171.8" font-family="Times,serif" font-size="14.00">jb 0x4000cc786d</text>
</g>
<!-- 1588&#45;&gt;1589 -->
<g id="edge6" class="edge"><title>1588&#45;&gt;1589</title>
<path fill="none" stroke="black" d="M159.27,-320.121C144.625,-295.911 126.11,-265.305 111.357,-240.916"/>
<polygon fill="black" stroke="black" points="114.276,-238.98 106.105,-232.235 108.287,-242.603 114.276,-238.98"/>
</g>
<!-- 1652 -->
<g id="node8" class="node"><title>1652</title>
<polygon fill="none" stroke="black" points="376,-262 190,-262 190,-134 376,-134 376,-262"/>
<text text-anchor="middle" x="283" y="-246.8" font-family="Times,serif" font-size="14.00">0x4000cc788c</text>
<text text-anchor="middle" x="283" y="-231.8" font-family="Times,serif" font-size="14.00">_______________________</text>
<text text-anchor="middle" x="283" y="-216.8" font-family="Times,serif" font-size="14.00">_______________________</text>
<text text-anchor="middle" x="283" y="-201.8" font-family="Times,serif" font-size="14.00">movzwl &#45;2(%rsi, %rdx), %ecx</text>
<text text-anchor="middle" x="283" y="-186.8" font-family="Times,serif" font-size="14.00">movzwl (%rsi), %esi</text>
<text text-anchor="middle" x="283" y="-171.8" font-family="Times,serif" font-size="14.00">movw %cx, &#45;2(%rdi, %rdx)</text>
<text text-anchor="middle" x="283" y="-156.8" font-family="Times,serif" font-size="14.00">movw %si, (%rdi)</text>
<text text-anchor="middle" x="283" y="-141.8" font-family="Times,serif" font-size="14.00">retq </text>
</g>
<!-- 1588&#45;&gt;1652 -->
<g id="edge7" class="edge"><title>1588&#45;&gt;1652</title>
<path fill="none" stroke="black" d="M208.982,-320.121C218.103,-305.194 228.711,-287.836 238.998,-271.003"/>
<polygon fill="black" stroke="black" points="242.111,-272.622 244.339,-262.264 236.138,-268.972 242.111,-272.622"/>
</g>
<!-- 1590 -->
<g id="node9" class="node"><title>1590</title>
<polygon fill="none" stroke="black" points="172,-98 0,-98 0,-0 172,-0 172,-98"/>
<text text-anchor="middle" x="86" y="-82.8" font-family="Times,serif" font-size="14.00">0x4000cc7868</text>
<text text-anchor="middle" x="86" y="-67.8" font-family="Times,serif" font-size="14.00">_______________________</text>
<text text-anchor="middle" x="86" y="-52.8" font-family="Times,serif" font-size="14.00">_______________________</text>
<text text-anchor="middle" x="86" y="-37.8" font-family="Times,serif" font-size="14.00">movzbl (%rsi), %ecx</text>
<text text-anchor="middle" x="86" y="-22.8" font-family="Times,serif" font-size="14.00">movb %cl, (%rdi)</text>
<text text-anchor="middle" x="86" y="-7.8" font-family="Times,serif" font-size="14.00">retq </text>
</g>
<!-- 1589&#45;&gt;1590 -->
<g id="edge8" class="edge"><title>1589&#45;&gt;1590</title>
<path fill="none" stroke="black" d="M86,-163.643C86,-147.347 86,-127.254 86,-108.517"/>
<polygon fill="black" stroke="black" points="89.5001,-108.28 86,-98.2796 82.5001,-108.28 89.5001,-108.28"/>
</g>
</g>
</svg>
