<?xml version="1.0" encoding="UTF-8" standalone="no"?>
<!DOCTYPE svg PUBLIC "-//W3C//DTD SVG 1.1//EN"
 "http://www.w3.org/Graphics/SVG/1.1/DTD/svg11.dtd">
<!-- Generated by graphviz version 2.38.0 (20140413.2041)
 -->
<!-- Title: %3 Pages: 1 -->
<svg width="247pt" height="658pt"
 viewBox="0.00 0.00 247.00 658.00" xmlns="http://www.w3.org/2000/svg" xmlns:xlink="http://www.w3.org/1999/xlink">
<g id="graph0" class="graph" transform="scale(1 1) rotate(0) translate(4 654)">
<title>%3</title>
<polygon fill="white" stroke="none" points="-4,4 -4,-654 243,-654 243,4 -4,4"/>
<!-- 1560 -->
<g id="node1" class="node"><title>1560</title>
<polygon fill="none" stroke="black" points="205.5,-650 33.5,-650 33.5,-507 205.5,-507 205.5,-650"/>
<text text-anchor="middle" x="119.5" y="-634.8" font-family="Times,serif" font-size="14.00">0x4000c87b80</text>
<text text-anchor="middle" x="119.5" y="-619.8" font-family="Times,serif" font-size="14.00">_______________________</text>
<text text-anchor="middle" x="119.5" y="-604.8" font-family="Times,serif" font-size="14.00">_______________________</text>
<text text-anchor="middle" x="119.5" y="-589.8" font-family="Times,serif" font-size="14.00">leaq 0x11c3b9(%rip), %rax</text>
<text text-anchor="middle" x="119.5" y="-574.8" font-family="Times,serif" font-size="14.00">leaq 0x11c372(%rip), %r8</text>
<text text-anchor="middle" x="119.5" y="-559.8" font-family="Times,serif" font-size="14.00">testl %ecx, %ecx</text>
<text text-anchor="middle" x="119.5" y="-544.8" font-family="Times,serif" font-size="14.00">cmovneq %rax, %r8</text>
<text text-anchor="middle" x="119.5" y="-529.8" font-family="Times,serif" font-size="14.00">cmpl $0xa, %edx</text>
<text text-anchor="middle" x="119.5" y="-514.8" font-family="Times,serif" font-size="14.00">je 0x4000c87c10</text>
</g>
<!-- 1561 -->
<g id="node2" class="node"><title>1561</title>
<polygon fill="none" stroke="black" points="239,-471 -1.42109e-14,-471 -1.42109e-14,-388 239,-388 239,-471"/>
<text text-anchor="middle" x="119.5" y="-455.8" font-family="Times,serif" font-size="14.00">0x4000c87c10</text>
<text text-anchor="middle" x="119.5" y="-440.8" font-family="Times,serif" font-size="14.00">_______________________</text>
<text text-anchor="middle" x="119.5" y="-425.8" font-family="Times,serif" font-size="14.00">_______________________</text>
<text text-anchor="middle" x="119.5" y="-410.8" font-family="Times,serif" font-size="14.00">movabsq $&#45;0x3333333333333333, %rcx</text>
<text text-anchor="middle" x="119.5" y="-395.8" font-family="Times,serif" font-size="14.00">nopw (%rax, %rax)</text>
</g>
<!-- 1560&#45;&gt;1561 -->
<g id="edge1" class="edge"><title>1560&#45;&gt;1561</title>
<path fill="none" stroke="black" d="M119.5,-506.584C119.5,-498.014 119.5,-489.398 119.5,-481.201"/>
<polygon fill="black" stroke="black" points="123,-481.079 119.5,-471.079 116,-481.079 123,-481.079"/>
</g>
<!-- 1651 -->
<g id="node3" class="node"><title>1651</title>
<polygon fill="none" stroke="black" points="205.5,-352 33.5,-352 33.5,-119 205.5,-119 205.5,-352"/>
<text text-anchor="middle" x="119.5" y="-336.8" font-family="Times,serif" font-size="14.00">0x4000c87c20</text>
<text text-anchor="middle" x="119.5" y="-321.8" font-family="Times,serif" font-size="14.00">_______________________</text>
<text text-anchor="middle" x="119.5" y="-306.8" font-family="Times,serif" font-size="14.00">_______________________</text>
<text text-anchor="middle" x="119.5" y="-291.8" font-family="Times,serif" font-size="14.00">movq %rdi, %rax</text>
<text text-anchor="middle" x="119.5" y="-276.8" font-family="Times,serif" font-size="14.00">subq $1, %rsi</text>
<text text-anchor="middle" x="119.5" y="-261.8" font-family="Times,serif" font-size="14.00">mulq %rcx</text>
<text text-anchor="middle" x="119.5" y="-246.8" font-family="Times,serif" font-size="14.00">shrq $3, %rdx</text>
<text text-anchor="middle" x="119.5" y="-231.8" font-family="Times,serif" font-size="14.00">leaq (%rdx, %rdx, 4), %rax</text>
<text text-anchor="middle" x="119.5" y="-216.8" font-family="Times,serif" font-size="14.00">addq %rax, %rax</text>
<text text-anchor="middle" x="119.5" y="-201.8" font-family="Times,serif" font-size="14.00">subq %rax, %rdi</text>
<text text-anchor="middle" x="119.5" y="-186.8" font-family="Times,serif" font-size="14.00">testq %rdx, %rdx</text>
<text text-anchor="middle" x="119.5" y="-171.8" font-family="Times,serif" font-size="14.00">movzbl (%r8, %rdi), %eax</text>
<text text-anchor="middle" x="119.5" y="-156.8" font-family="Times,serif" font-size="14.00">movq %rdx, %rdi</text>
<text text-anchor="middle" x="119.5" y="-141.8" font-family="Times,serif" font-size="14.00">movb %al, (%rsi)</text>
<text text-anchor="middle" x="119.5" y="-126.8" font-family="Times,serif" font-size="14.00">jne 0x4000c87c20</text>
</g>
<!-- 1561&#45;&gt;1651 -->
<g id="edge2" class="edge"><title>1561&#45;&gt;1651</title>
<path fill="none" stroke="black" d="M119.5,-387.782C119.5,-379.944 119.5,-371.36 119.5,-362.39"/>
<polygon fill="black" stroke="black" points="123,-362.117 119.5,-352.117 116,-362.117 123,-362.117"/>
</g>
<!-- 1651&#45;&gt;1651 -->
<g id="edge4" class="edge"><title>1651&#45;&gt;1651</title>
<path fill="none" stroke="black" d="M205.577,-267.177C216.386,-261.594 223.5,-251.035 223.5,-235.5 223.5,-224.334 219.825,-215.739 213.744,-209.714"/>
<polygon fill="black" stroke="black" points="215.735,-206.835 205.577,-203.823 211.64,-212.512 215.735,-206.835"/>
</g>
<!-- 1562 -->
<g id="node4" class="node"><title>1562</title>
<polygon fill="none" stroke="black" points="205.5,-83 33.5,-83 33.5,-0 205.5,-0 205.5,-83"/>
<text text-anchor="middle" x="119.5" y="-67.8" font-family="Times,serif" font-size="14.00">0x4000c87c47</text>
<text text-anchor="middle" x="119.5" y="-52.8" font-family="Times,serif" font-size="14.00">_______________________</text>
<text text-anchor="middle" x="119.5" y="-37.8" font-family="Times,serif" font-size="14.00">_______________________</text>
<text text-anchor="middle" x="119.5" y="-22.8" font-family="Times,serif" font-size="14.00">movq %rsi, %rax</text>
<text text-anchor="middle" x="119.5" y="-7.8" font-family="Times,serif" font-size="14.00">retq </text>
</g>
<!-- 1651&#45;&gt;1562 -->
<g id="edge3" class="edge"><title>1651&#45;&gt;1562</title>
<path fill="none" stroke="black" d="M119.5,-118.935C119.5,-110.1 119.5,-101.495 119.5,-93.4383"/>
<polygon fill="black" stroke="black" points="123,-93.1889 119.5,-83.1889 116,-93.1889 123,-93.1889"/>
</g>
</g>
</svg>
