<?xml version="1.0" encoding="UTF-8" standalone="no"?>
<!DOCTYPE svg PUBLIC "-//W3C//DTD SVG 1.1//EN"
 "http://www.w3.org/Graphics/SVG/1.1/DTD/svg11.dtd">
<!-- Generated by graphviz version 2.38.0 (20140413.2041)
 -->
<!-- Title: %3 Pages: 1 -->
<svg width="503pt" height="1076pt"
 viewBox="0.00 0.00 502.50 1076.00" xmlns="http://www.w3.org/2000/svg" xmlns:xlink="http://www.w3.org/1999/xlink">
<g id="graph0" class="graph" transform="scale(1 1) rotate(0) translate(4 1072)">
<title>%3</title>
<polygon fill="white" stroke="none" points="-4,4 -4,-1072 498.5,-1072 498.5,4 -4,4"/>
<!-- 1284 -->
<g id="node1" class="node"><title>1284</title>
<polygon fill="none" stroke="black" points="413.5,-1068 240.5,-1068 240.5,-895 413.5,-895 413.5,-1068"/>
<text text-anchor="middle" x="327" y="-1052.8" font-family="Times,serif" font-size="14.00">0x400000064a</text>
<text text-anchor="middle" x="327" y="-1037.8" font-family="Times,serif" font-size="14.00">_______________________</text>
<text text-anchor="middle" x="327" y="-1022.8" font-family="Times,serif" font-size="14.00">{</text>
<text text-anchor="middle" x="327" y="-1007.8" font-family="Times,serif" font-size="14.00"> &#160;&#160;&#160;for (int i = 0; i &lt; 25; ++i)</text>
<text text-anchor="middle" x="327" y="-992.8" font-family="Times,serif" font-size="14.00">_______________________</text>
<text text-anchor="middle" x="327" y="-977.8" font-family="Times,serif" font-size="14.00">pushq %rbp</text>
<text text-anchor="middle" x="327" y="-962.8" font-family="Times,serif" font-size="14.00">movq %rsp, %rbp</text>
<text text-anchor="middle" x="327" y="-947.8" font-family="Times,serif" font-size="14.00">subq $0x20, %rsp</text>
<text text-anchor="middle" x="327" y="-932.8" font-family="Times,serif" font-size="14.00">movl %edi, &#45;0x14(%rbp)</text>
<text text-anchor="middle" x="327" y="-917.8" font-family="Times,serif" font-size="14.00">movl $0, &#45;4(%rbp)</text>
<text text-anchor="middle" x="327" y="-902.8" font-family="Times,serif" font-size="14.00">jmp 0x4000000691</text>
</g>
<!-- 1285 -->
<g id="node2" class="node"><title>1285</title>
<polygon fill="none" stroke="black" points="413.5,-859 240.5,-859 240.5,-761 413.5,-761 413.5,-859"/>
<text text-anchor="middle" x="327" y="-843.8" font-family="Times,serif" font-size="14.00">0x4000000691</text>
<text text-anchor="middle" x="327" y="-828.8" font-family="Times,serif" font-size="14.00">_______________________</text>
<text text-anchor="middle" x="327" y="-813.8" font-family="Times,serif" font-size="14.00"> &#160;&#160;&#160;for (int i = 0; i &lt; 25; ++i)</text>
<text text-anchor="middle" x="327" y="-798.8" font-family="Times,serif" font-size="14.00">_______________________</text>
<text text-anchor="middle" x="327" y="-783.8" font-family="Times,serif" font-size="14.00">cmpl $0x18, &#45;4(%rbp)</text>
<text text-anchor="middle" x="327" y="-768.8" font-family="Times,serif" font-size="14.00">jle 0x400000065e</text>
</g>
<!-- 1284&#45;&gt;1285 -->
<g id="edge1" class="edge"><title>1284&#45;&gt;1285</title>
<path fill="none" stroke="black" d="M327,-894.757C327,-886.212 327,-877.681 327,-869.51"/>
<polygon fill="black" stroke="black" points="330.5,-869.38 327,-859.38 323.5,-869.381 330.5,-869.38"/>
</g>
<!-- 1286 -->
<g id="node3" class="node"><title>1286</title>
<polygon fill="none" stroke="black" points="223,-725 29,-725 29,-597 223,-597 223,-725"/>
<text text-anchor="middle" x="126" y="-709.8" font-family="Times,serif" font-size="14.00">0x400000065e</text>
<text text-anchor="middle" x="126" y="-694.8" font-family="Times,serif" font-size="14.00">_______________________</text>
<text text-anchor="middle" x="126" y="-679.8" font-family="Times,serif" font-size="14.00"> &#160;&#160;&#160;&#160;&#160;&#160;&#160;for (int j = 0; j &lt; 100; ++j)</text>
<text text-anchor="middle" x="126" y="-664.8" font-family="Times,serif" font-size="14.00">_______________________</text>
<text text-anchor="middle" x="126" y="-649.8" font-family="Times,serif" font-size="14.00">movl $0, &#45;8(%rbp)</text>
<text text-anchor="middle" x="126" y="-634.8" font-family="Times,serif" font-size="14.00">jmp 0x4000000687</text>
<text text-anchor="middle" x="126" y="-619.8" font-family="Times,serif" font-size="14.00">_______________________</text>
<text text-anchor="middle" x="126" y="-604.8" font-family="Times,serif" font-size="14.00">LOOP 0x4000000691</text>
</g>
<!-- 1285&#45;&gt;1286 -->
<g id="edge2" class="edge"><title>1285&#45;&gt;1286</title>
<path fill="none" stroke="black" d="M261.185,-760.867C248.29,-751.436 234.527,-741.371 220.902,-731.406"/>
<polygon fill="black" stroke="black" points="222.583,-728.299 212.445,-725.221 218.451,-733.949 222.583,-728.299"/>
</g>
<!-- 1654 -->
<g id="node4" class="node"><title>1654</title>
<polygon fill="none" stroke="black" points="413,-717.5 241,-717.5 241,-604.5 413,-604.5 413,-717.5"/>
<text text-anchor="middle" x="327" y="-702.3" font-family="Times,serif" font-size="14.00">0x4000000697</text>
<text text-anchor="middle" x="327" y="-687.3" font-family="Times,serif" font-size="14.00">_______________________</text>
<text text-anchor="middle" x="327" y="-672.3" font-family="Times,serif" font-size="14.00">}</text>
<text text-anchor="middle" x="327" y="-657.3" font-family="Times,serif" font-size="14.00">_______________________</text>
<text text-anchor="middle" x="327" y="-642.3" font-family="Times,serif" font-size="14.00">nop </text>
<text text-anchor="middle" x="327" y="-627.3" font-family="Times,serif" font-size="14.00">leave </text>
<text text-anchor="middle" x="327" y="-612.3" font-family="Times,serif" font-size="14.00">retq </text>
</g>
<!-- 1285&#45;&gt;1654 -->
<g id="edge3" class="edge"><title>1285&#45;&gt;1654</title>
<path fill="none" stroke="black" d="M327,-760.867C327,-750.289 327,-738.912 327,-727.774"/>
<polygon fill="black" stroke="black" points="330.5,-727.643 327,-717.643 323.5,-727.643 330.5,-727.643"/>
</g>
<!-- 1287 -->
<g id="node5" class="node"><title>1287</title>
<polygon fill="none" stroke="black" points="256,-561 62,-561 62,-433 256,-433 256,-561"/>
<text text-anchor="middle" x="159" y="-545.8" font-family="Times,serif" font-size="14.00">0x4000000687</text>
<text text-anchor="middle" x="159" y="-530.8" font-family="Times,serif" font-size="14.00">_______________________</text>
<text text-anchor="middle" x="159" y="-515.8" font-family="Times,serif" font-size="14.00"> &#160;&#160;&#160;&#160;&#160;&#160;&#160;for (int j = 0; j &lt; 100; ++j)</text>
<text text-anchor="middle" x="159" y="-500.8" font-family="Times,serif" font-size="14.00">_______________________</text>
<text text-anchor="middle" x="159" y="-485.8" font-family="Times,serif" font-size="14.00">cmpl $0x63, &#45;8(%rbp)</text>
<text text-anchor="middle" x="159" y="-470.8" font-family="Times,serif" font-size="14.00">jle 0x4000000667</text>
<text text-anchor="middle" x="159" y="-455.8" font-family="Times,serif" font-size="14.00">_______________________</text>
<text text-anchor="middle" x="159" y="-440.8" font-family="Times,serif" font-size="14.00">LOOP 0x4000000691</text>
</g>
<!-- 1286&#45;&gt;1287 -->
<g id="edge4" class="edge"><title>1286&#45;&gt;1287</title>
<path fill="none" stroke="black" d="M138.853,-596.903C140.57,-588.474 142.343,-579.773 144.091,-571.19"/>
<polygon fill="black" stroke="black" points="147.561,-571.689 146.128,-561.192 140.702,-570.292 147.561,-571.689"/>
</g>
<!-- 1288 -->
<g id="node6" class="node"><title>1288</title>
<polygon fill="none" stroke="black" points="200,-397 0,-397 0,-149 200,-149 200,-397"/>
<text text-anchor="middle" x="100" y="-381.8" font-family="Times,serif" font-size="14.00">0x4000000667</text>
<text text-anchor="middle" x="100" y="-366.8" font-family="Times,serif" font-size="14.00">_______________________</text>
<text text-anchor="middle" x="100" y="-351.8" font-family="Times,serif" font-size="14.00"> &#160;&#160;&#160;&#160;&#160;&#160;&#160;&#160;&#160;&#160;&#160;printf(&quot;Hello %d,%d,%d</text>
<text text-anchor="middle" x="100" y="-336.8" font-family="Times,serif" font-size="14.00">&quot;, level, i, j);</text>
<text text-anchor="middle" x="100" y="-321.8" font-family="Times,serif" font-size="14.00">_______________________</text>
<text text-anchor="middle" x="100" y="-306.8" font-family="Times,serif" font-size="14.00">movl &#45;8(%rbp), %ecx</text>
<text text-anchor="middle" x="100" y="-291.8" font-family="Times,serif" font-size="14.00">movl &#45;4(%rbp), %edx</text>
<text text-anchor="middle" x="100" y="-276.8" font-family="Times,serif" font-size="14.00">movl &#45;0x14(%rbp), %eax</text>
<text text-anchor="middle" x="100" y="-261.8" font-family="Times,serif" font-size="14.00">movl %eax, %esi</text>
<text text-anchor="middle" x="100" y="-246.8" font-family="Times,serif" font-size="14.00">leaq 0xdb(%rip), %rdi</text>
<text text-anchor="middle" x="100" y="-231.8" font-family="Times,serif" font-size="14.00">movl $0, %eax</text>
<text text-anchor="middle" x="100" y="-216.8" font-family="Times,serif" font-size="14.00">callq 0x4000000520</text>
<text text-anchor="middle" x="100" y="-201.8" font-family="Times,serif" font-size="14.00">_______________________</text>
<text text-anchor="middle" x="100" y="-186.8" font-family="Times,serif" font-size="14.00">LOOP 0x4000000687</text>
<text text-anchor="middle" x="100" y="-171.8" font-family="Times,serif" font-size="14.00">_______________________</text>
<text text-anchor="middle" x="100" y="-156.8" font-family="Times,serif" font-size="14.00">CALL 0x4000000520</text>
</g>
<!-- 1287&#45;&gt;1288 -->
<g id="edge5" class="edge"><title>1287&#45;&gt;1288</title>
<path fill="none" stroke="black" d="M142.251,-432.978C140.049,-424.693 137.73,-415.968 135.358,-407.044"/>
<polygon fill="black" stroke="black" points="138.719,-406.06 132.767,-397.294 131.953,-407.858 138.719,-406.06"/>
</g>
<!-- 1653 -->
<g id="node7" class="node"><title>1653</title>
<polygon fill="none" stroke="black" points="494.5,-329.5 321.5,-329.5 321.5,-216.5 494.5,-216.5 494.5,-329.5"/>
<text text-anchor="middle" x="408" y="-314.3" font-family="Times,serif" font-size="14.00">0x400000068d</text>
<text text-anchor="middle" x="408" y="-299.3" font-family="Times,serif" font-size="14.00">_______________________</text>
<text text-anchor="middle" x="408" y="-284.3" font-family="Times,serif" font-size="14.00"> &#160;&#160;&#160;for (int i = 0; i &lt; 25; ++i)</text>
<text text-anchor="middle" x="408" y="-269.3" font-family="Times,serif" font-size="14.00">_______________________</text>
<text text-anchor="middle" x="408" y="-254.3" font-family="Times,serif" font-size="14.00">addl $1, &#45;4(%rbp)</text>
<text text-anchor="middle" x="408" y="-239.3" font-family="Times,serif" font-size="14.00">_______________________</text>
<text text-anchor="middle" x="408" y="-224.3" font-family="Times,serif" font-size="14.00">LOOP 0x4000000691</text>
</g>
<!-- 1287&#45;&gt;1653 -->
<g id="edge6" class="edge"><title>1287&#45;&gt;1653</title>
<path fill="none" stroke="black" d="M229.687,-432.978C263.64,-402.707 304.204,-366.541 338.058,-336.358"/>
<polygon fill="black" stroke="black" points="340.484,-338.884 345.619,-329.617 335.825,-333.66 340.484,-338.884"/>
</g>
<!-- 1641 -->
<g id="node8" class="node"><title>1641</title>
<polygon fill="none" stroke="black" points="261,-113 67,-113 67,-0 261,-0 261,-113"/>
<text text-anchor="middle" x="164" y="-97.8" font-family="Times,serif" font-size="14.00">0x4000000683</text>
<text text-anchor="middle" x="164" y="-82.8" font-family="Times,serif" font-size="14.00">_______________________</text>
<text text-anchor="middle" x="164" y="-67.8" font-family="Times,serif" font-size="14.00"> &#160;&#160;&#160;&#160;&#160;&#160;&#160;for (int j = 0; j &lt; 100; ++j)</text>
<text text-anchor="middle" x="164" y="-52.8" font-family="Times,serif" font-size="14.00">_______________________</text>
<text text-anchor="middle" x="164" y="-37.8" font-family="Times,serif" font-size="14.00">addl $1, &#45;8(%rbp)</text>
<text text-anchor="middle" x="164" y="-22.8" font-family="Times,serif" font-size="14.00">_______________________</text>
<text text-anchor="middle" x="164" y="-7.8" font-family="Times,serif" font-size="14.00">LOOP 0x4000000687</text>
</g>
<!-- 1288&#45;&gt;1641 -->
<g id="edge7" class="edge"><title>1288&#45;&gt;1641</title>
<path fill="none" stroke="black" d="M136.765,-148.778C139.428,-139.853 142.047,-131.079 144.543,-122.71"/>
<polygon fill="black" stroke="black" points="147.909,-123.671 147.415,-113.087 141.201,-121.669 147.909,-123.671"/>
</g>
<!-- 1653&#45;&gt;1285 -->
<g id="edge9" class="edge"><title>1653&#45;&gt;1285</title>
<path fill="none" stroke="black" d="M424.752,-329.773C448.079,-418.094 481.22,-593.588 422,-725 417.383,-735.246 410.83,-744.746 403.296,-753.39"/>
<polygon fill="black" stroke="black" points="400.689,-751.054 396.447,-760.763 405.818,-755.818 400.689,-751.054"/>
</g>
<!-- 1641&#45;&gt;1287 -->
<g id="edge8" class="edge"><title>1641&#45;&gt;1287</title>
<path fill="none" stroke="black" d="M196.3,-113.103C201.556,-124.62 206.193,-136.93 209,-149 233.971,-256.356 234.54,-289.778 209,-397 206.887,-405.872 203.844,-414.851 200.287,-423.592"/>
<polygon fill="black" stroke="black" points="196.99,-422.4 196.246,-432.968 203.418,-425.17 196.99,-422.4"/>
</g>
</g>
</svg>
