<?xml version="1.0" encoding="UTF-8" standalone="no"?>
<!DOCTYPE svg PUBLIC "-//W3C//DTD SVG 1.1//EN"
 "http://www.w3.org/Graphics/SVG/1.1/DTD/svg11.dtd">
<!-- Generated by graphviz version 2.38.0 (20140413.2041)
 -->
<!-- Title: %3 Pages: 1 -->
<svg width="408pt" height="1404pt"
 viewBox="0.00 0.00 408.00 1404.00" xmlns="http://www.w3.org/2000/svg" xmlns:xlink="http://www.w3.org/1999/xlink">
<g id="graph0" class="graph" transform="scale(1 1) rotate(0) translate(4 1400)">
<title>%3</title>
<polygon fill="white" stroke="none" points="-4,4 -4,-1400 404,-1400 404,4 -4,4"/>
<!-- 822 -->
<g id="node1" class="node"><title>822</title>
<polygon fill="none" stroke="black" points="287.5,-1396 112.5,-1396 112.5,-1088 287.5,-1088 287.5,-1396"/>
<text text-anchor="middle" x="200" y="-1380.8" font-family="Times,serif" font-size="14.00">0x4000a13760</text>
<text text-anchor="middle" x="200" y="-1365.8" font-family="Times,serif" font-size="14.00">_______________________</text>
<text text-anchor="middle" x="200" y="-1350.8" font-family="Times,serif" font-size="14.00">_______________________</text>
<text text-anchor="middle" x="200" y="-1335.8" font-family="Times,serif" font-size="14.00">pushq %rbp</text>
<text text-anchor="middle" x="200" y="-1320.8" font-family="Times,serif" font-size="14.00">movq %rsp, %rbp</text>
<text text-anchor="middle" x="200" y="-1305.8" font-family="Times,serif" font-size="14.00">pushq %r15</text>
<text text-anchor="middle" x="200" y="-1290.8" font-family="Times,serif" font-size="14.00">pushq %r14</text>
<text text-anchor="middle" x="200" y="-1275.8" font-family="Times,serif" font-size="14.00">pushq %r13</text>
<text text-anchor="middle" x="200" y="-1260.8" font-family="Times,serif" font-size="14.00">pushq %r12</text>
<text text-anchor="middle" x="200" y="-1245.8" font-family="Times,serif" font-size="14.00">movl %edx, %r14d</text>
<text text-anchor="middle" x="200" y="-1230.8" font-family="Times,serif" font-size="14.00">pushq %rbx</text>
<text text-anchor="middle" x="200" y="-1215.8" font-family="Times,serif" font-size="14.00">movq %rcx, %r15</text>
<text text-anchor="middle" x="200" y="-1200.8" font-family="Times,serif" font-size="14.00">movq %r8, %r12</text>
<text text-anchor="middle" x="200" y="-1185.8" font-family="Times,serif" font-size="14.00">subq $0x68, %rsp</text>
<text text-anchor="middle" x="200" y="-1170.8" font-family="Times,serif" font-size="14.00">testb $0x10, 0x21251f(%rip)</text>
<text text-anchor="middle" x="200" y="-1155.8" font-family="Times,serif" font-size="14.00">movq 0x68(%r8), %rax</text>
<text text-anchor="middle" x="200" y="-1140.8" font-family="Times,serif" font-size="14.00">movq %rdi, &#45;0x88(%rbp)</text>
<text text-anchor="middle" x="200" y="-1125.8" font-family="Times,serif" font-size="14.00">movl %r9d, &#45;0x8c(%rbp)</text>
<text text-anchor="middle" x="200" y="-1110.8" font-family="Times,serif" font-size="14.00">movq 8(%rax), %r13</text>
<text text-anchor="middle" x="200" y="-1095.8" font-family="Times,serif" font-size="14.00">jne 0x4000a139c0</text>
</g>
<!-- 823 -->
<g id="node2" class="node"><title>823</title>
<polygon fill="none" stroke="black" points="286,-1052 114,-1052 114,-954 286,-954 286,-1052"/>
<text text-anchor="middle" x="200" y="-1036.8" font-family="Times,serif" font-size="14.00">0x4000a1379d</text>
<text text-anchor="middle" x="200" y="-1021.8" font-family="Times,serif" font-size="14.00">_______________________</text>
<text text-anchor="middle" x="200" y="-1006.8" font-family="Times,serif" font-size="14.00">_______________________</text>
<text text-anchor="middle" x="200" y="-991.8" font-family="Times,serif" font-size="14.00">movq 0x168(%r12), %rax</text>
<text text-anchor="middle" x="200" y="-976.8" font-family="Times,serif" font-size="14.00">testq %rax, %rax</text>
<text text-anchor="middle" x="200" y="-961.8" font-family="Times,serif" font-size="14.00">je 0x4000a13a18</text>
</g>
<!-- 822&#45;&gt;823 -->
<g id="edge1" class="edge"><title>822&#45;&gt;823</title>
<path fill="none" stroke="black" d="M200,-1087.89C200,-1079.08 200,-1070.54 200,-1062.51"/>
<polygon fill="black" stroke="black" points="203.5,-1062.25 200,-1052.25 196.5,-1062.25 203.5,-1062.25"/>
</g>
<!-- 824 -->
<g id="node3" class="node"><title>824</title>
<polygon fill="none" stroke="black" points="286,-918 114,-918 114,-820 286,-820 286,-918"/>
<text text-anchor="middle" x="200" y="-902.8" font-family="Times,serif" font-size="14.00">0x4000a137ae</text>
<text text-anchor="middle" x="200" y="-887.8" font-family="Times,serif" font-size="14.00">_______________________</text>
<text text-anchor="middle" x="200" y="-872.8" font-family="Times,serif" font-size="14.00">_______________________</text>
<text text-anchor="middle" x="200" y="-857.8" font-family="Times,serif" font-size="14.00">movq 8(%rax), %rbx</text>
<text text-anchor="middle" x="200" y="-842.8" font-family="Times,serif" font-size="14.00">testq %rbx, %rbx</text>
<text text-anchor="middle" x="200" y="-827.8" font-family="Times,serif" font-size="14.00">je 0x4000a13b51</text>
</g>
<!-- 823&#45;&gt;824 -->
<g id="edge2" class="edge"><title>823&#45;&gt;824</title>
<path fill="none" stroke="black" d="M200,-953.972C200,-945.691 200,-937.003 200,-928.483"/>
<polygon fill="black" stroke="black" points="203.5,-928.214 200,-918.214 196.5,-928.214 203.5,-928.214"/>
</g>
<!-- 825 -->
<g id="node4" class="node"><title>825</title>
<polygon fill="none" stroke="black" points="286,-784 114,-784 114,-686 286,-686 286,-784"/>
<text text-anchor="middle" x="200" y="-768.8" font-family="Times,serif" font-size="14.00">0x4000a137bb</text>
<text text-anchor="middle" x="200" y="-753.8" font-family="Times,serif" font-size="14.00">_______________________</text>
<text text-anchor="middle" x="200" y="-738.8" font-family="Times,serif" font-size="14.00">_______________________</text>
<text text-anchor="middle" x="200" y="-723.8" font-family="Times,serif" font-size="14.00">addq (%r12), %rbx</text>
<text text-anchor="middle" x="200" y="-708.8" font-family="Times,serif" font-size="14.00">cmpw $1, (%rbx)</text>
<text text-anchor="middle" x="200" y="-693.8" font-family="Times,serif" font-size="14.00">jne 0x4000a137e3</text>
</g>
<!-- 824&#45;&gt;825 -->
<g id="edge3" class="edge"><title>824&#45;&gt;825</title>
<path fill="none" stroke="black" d="M200,-819.972C200,-811.691 200,-803.003 200,-794.483"/>
<polygon fill="black" stroke="black" points="203.5,-794.214 200,-784.214 196.5,-794.214 203.5,-794.214"/>
</g>
<!-- 826 -->
<g id="node5" class="node"><title>826</title>
<polygon fill="none" stroke="black" points="286,-650 114,-650 114,-567 286,-567 286,-650"/>
<text text-anchor="middle" x="200" y="-634.8" font-family="Times,serif" font-size="14.00">0x4000a137c5</text>
<text text-anchor="middle" x="200" y="-619.8" font-family="Times,serif" font-size="14.00">_______________________</text>
<text text-anchor="middle" x="200" y="-604.8" font-family="Times,serif" font-size="14.00">_______________________</text>
<text text-anchor="middle" x="200" y="-589.8" font-family="Times,serif" font-size="14.00">cmpl %r14d, 8(%rbx)</text>
<text text-anchor="middle" x="200" y="-574.8" font-family="Times,serif" font-size="14.00">je 0x4000a13890</text>
</g>
<!-- 825&#45;&gt;826 -->
<g id="edge4" class="edge"><title>825&#45;&gt;826</title>
<path fill="none" stroke="black" d="M200,-685.865C200,-677.498 200,-668.771 200,-660.335"/>
<polygon fill="black" stroke="black" points="203.5,-660.231 200,-650.231 196.5,-660.231 203.5,-660.231"/>
</g>
<!-- 827 -->
<g id="node6" class="node"><title>827</title>
<polygon fill="none" stroke="black" points="172,-516 0,-516 0,-388 172,-388 172,-516"/>
<text text-anchor="middle" x="86" y="-500.8" font-family="Times,serif" font-size="14.00">0x4000a137cf</text>
<text text-anchor="middle" x="86" y="-485.8" font-family="Times,serif" font-size="14.00">_______________________</text>
<text text-anchor="middle" x="86" y="-470.8" font-family="Times,serif" font-size="14.00">_______________________</text>
<text text-anchor="middle" x="86" y="-455.8" font-family="Times,serif" font-size="14.00">movl 0x10(%rbx), %eax</text>
<text text-anchor="middle" x="86" y="-440.8" font-family="Times,serif" font-size="14.00">testl %eax, %eax</text>
<text text-anchor="middle" x="86" y="-425.8" font-family="Times,serif" font-size="14.00">je 0x4000a138c0</text>
<text text-anchor="middle" x="86" y="-410.8" font-family="Times,serif" font-size="14.00">_______________________</text>
<text text-anchor="middle" x="86" y="-395.8" font-family="Times,serif" font-size="14.00">LOOP 0x4000a137c5</text>
</g>
<!-- 826&#45;&gt;827 -->
<g id="edge5" class="edge"><title>826&#45;&gt;827</title>
<path fill="none" stroke="black" d="M170.048,-566.907C160.363,-553.781 149.321,-538.817 138.498,-524.148"/>
<polygon fill="black" stroke="black" points="141.271,-522.012 132.517,-516.043 135.638,-526.168 141.271,-522.012"/>
</g>
<!-- 829 -->
<g id="node7" class="node"><title>829</title>
<polygon fill="none" stroke="black" points="400,-531 228,-531 228,-373 400,-373 400,-531"/>
<text text-anchor="middle" x="314" y="-515.8" font-family="Times,serif" font-size="14.00">0x4000a13890</text>
<text text-anchor="middle" x="314" y="-500.8" font-family="Times,serif" font-size="14.00">_______________________</text>
<text text-anchor="middle" x="314" y="-485.8" font-family="Times,serif" font-size="14.00">_______________________</text>
<text text-anchor="middle" x="314" y="-470.8" font-family="Times,serif" font-size="14.00">movl 0xc(%rbx), %eax</text>
<text text-anchor="middle" x="314" y="-455.8" font-family="Times,serif" font-size="14.00">movq %r15, %rdi</text>
<text text-anchor="middle" x="314" y="-440.8" font-family="Times,serif" font-size="14.00">movl (%rbx, %rax), %esi</text>
<text text-anchor="middle" x="314" y="-425.8" font-family="Times,serif" font-size="14.00">addq %r13, %rsi</text>
<text text-anchor="middle" x="314" y="-410.8" font-family="Times,serif" font-size="14.00">callq 0x4000a1ca40</text>
<text text-anchor="middle" x="314" y="-395.8" font-family="Times,serif" font-size="14.00">_______________________</text>
<text text-anchor="middle" x="314" y="-380.8" font-family="Times,serif" font-size="14.00">CALL 0x4000a1ca40</text>
</g>
<!-- 826&#45;&gt;829 -->
<g id="edge6" class="edge"><title>826&#45;&gt;829</title>
<path fill="none" stroke="black" d="M229.952,-566.907C236.291,-558.316 243.212,-548.937 250.272,-539.369"/>
<polygon fill="black" stroke="black" points="253.104,-541.425 256.225,-531.3 247.471,-537.269 253.104,-541.425"/>
</g>
<!-- 828 -->
<g id="node8" class="node"><title>828</title>
<polygon fill="none" stroke="black" points="191,-337 19,-337 19,-209 191,-209 191,-337"/>
<text text-anchor="middle" x="105" y="-321.8" font-family="Times,serif" font-size="14.00">0x4000a137da</text>
<text text-anchor="middle" x="105" y="-306.8" font-family="Times,serif" font-size="14.00">_______________________</text>
<text text-anchor="middle" x="105" y="-291.8" font-family="Times,serif" font-size="14.00">_______________________</text>
<text text-anchor="middle" x="105" y="-276.8" font-family="Times,serif" font-size="14.00">addq %rax, %rbx</text>
<text text-anchor="middle" x="105" y="-261.8" font-family="Times,serif" font-size="14.00">cmpw $1, (%rbx)</text>
<text text-anchor="middle" x="105" y="-246.8" font-family="Times,serif" font-size="14.00">je 0x4000a137c5</text>
<text text-anchor="middle" x="105" y="-231.8" font-family="Times,serif" font-size="14.00">_______________________</text>
<text text-anchor="middle" x="105" y="-216.8" font-family="Times,serif" font-size="14.00">LOOP 0x4000a137c5</text>
</g>
<!-- 827&#45;&gt;828 -->
<g id="edge7" class="edge"><title>827&#45;&gt;828</title>
<path fill="none" stroke="black" d="M92.8058,-387.599C94.2058,-374.556 95.691,-360.721 97.1252,-347.36"/>
<polygon fill="black" stroke="black" points="100.622,-347.572 98.2098,-337.256 93.6624,-346.825 100.622,-347.572"/>
</g>
<!-- 830 -->
<g id="node9" class="node"><title>830</title>
<polygon fill="none" stroke="black" points="400,-314.5 228,-314.5 228,-231.5 400,-231.5 400,-314.5"/>
<text text-anchor="middle" x="314" y="-299.3" font-family="Times,serif" font-size="14.00">0x4000a138a1</text>
<text text-anchor="middle" x="314" y="-284.3" font-family="Times,serif" font-size="14.00">_______________________</text>
<text text-anchor="middle" x="314" y="-269.3" font-family="Times,serif" font-size="14.00">_______________________</text>
<text text-anchor="middle" x="314" y="-254.3" font-family="Times,serif" font-size="14.00">testl %eax, %eax</text>
<text text-anchor="middle" x="314" y="-239.3" font-family="Times,serif" font-size="14.00">jne 0x4000a137cf</text>
</g>
<!-- 829&#45;&gt;830 -->
<g id="edge9" class="edge"><title>829&#45;&gt;830</title>
<path fill="none" stroke="black" d="M314,-372.85C314,-356.597 314,-339.872 314,-324.908"/>
<polygon fill="black" stroke="black" points="317.5,-324.857 314,-314.857 310.5,-324.857 317.5,-324.857"/>
</g>
<!-- 828&#45;&gt;826 -->
<g id="edge8" class="edge"><title>828&#45;&gt;826</title>
<path fill="none" stroke="black" d="M161.652,-337.071C169.333,-348.392 176.209,-360.565 181,-373 204.171,-433.135 205.998,-508.22 203.988,-556.984"/>
<polygon fill="black" stroke="black" points="200.492,-556.819 203.508,-566.976 207.484,-557.156 200.492,-556.819"/>
</g>
<!-- 831 -->
<g id="node10" class="node"><title>831</title>
<polygon fill="none" stroke="black" points="400,-173 228,-173 228,-0 400,-0 400,-173"/>
<text text-anchor="middle" x="314" y="-157.8" font-family="Times,serif" font-size="14.00">0x4000a138a9</text>
<text text-anchor="middle" x="314" y="-142.8" font-family="Times,serif" font-size="14.00">_______________________</text>
<text text-anchor="middle" x="314" y="-127.8" font-family="Times,serif" font-size="14.00">_______________________</text>
<text text-anchor="middle" x="314" y="-112.8" font-family="Times,serif" font-size="14.00">leaq &#45;0x28(%rbp), %rsp</text>
<text text-anchor="middle" x="314" y="-97.8" font-family="Times,serif" font-size="14.00">popq %rbx</text>
<text text-anchor="middle" x="314" y="-82.8" font-family="Times,serif" font-size="14.00">popq %r12</text>
<text text-anchor="middle" x="314" y="-67.8" font-family="Times,serif" font-size="14.00">popq %r13</text>
<text text-anchor="middle" x="314" y="-52.8" font-family="Times,serif" font-size="14.00">popq %r14</text>
<text text-anchor="middle" x="314" y="-37.8" font-family="Times,serif" font-size="14.00">popq %r15</text>
<text text-anchor="middle" x="314" y="-22.8" font-family="Times,serif" font-size="14.00">popq %rbp</text>
<text text-anchor="middle" x="314" y="-7.8" font-family="Times,serif" font-size="14.00">retq </text>
</g>
<!-- 830&#45;&gt;831 -->
<g id="edge10" class="edge"><title>830&#45;&gt;831</title>
<path fill="none" stroke="black" d="M314,-231.053C314,-216.899 314,-200.382 314,-183.692"/>
<polygon fill="black" stroke="black" points="317.5,-183.298 314,-173.298 310.5,-183.298 317.5,-183.298"/>
</g>
</g>
</svg>
