<?xml version="1.0" encoding="UTF-8" standalone="no"?>
<!DOCTYPE svg PUBLIC "-//W3C//DTD SVG 1.1//EN"
 "http://www.w3.org/Graphics/SVG/1.1/DTD/svg11.dtd">
<!-- Generated by graphviz version 2.38.0 (20140413.2041)
 -->
<!-- Title: %3 Pages: 1 -->
<svg width="187pt" height="405pt"
 viewBox="0.00 0.00 187.00 405.00" xmlns="http://www.w3.org/2000/svg" xmlns:xlink="http://www.w3.org/1999/xlink">
<g id="graph0" class="graph" transform="scale(1 1) rotate(0) translate(4 401)">
<title>%3</title>
<polygon fill="white" stroke="none" points="-4,4 -4,-401 183,-401 183,4 -4,4"/>
<!-- 806 -->
<g id="node1" class="node"><title>806</title>
<polygon fill="none" stroke="black" points="179,-397 0,-397 0,-179 179,-179 179,-397"/>
<text text-anchor="middle" x="89.5" y="-381.8" font-family="Times,serif" font-size="14.00">0x4000a1b4b0</text>
<text text-anchor="middle" x="89.5" y="-366.8" font-family="Times,serif" font-size="14.00">_______________________</text>
<text text-anchor="middle" x="89.5" y="-351.8" font-family="Times,serif" font-size="14.00">_______________________</text>
<text text-anchor="middle" x="89.5" y="-336.8" font-family="Times,serif" font-size="14.00">pushq %rbp</text>
<text text-anchor="middle" x="89.5" y="-321.8" font-family="Times,serif" font-size="14.00">pushq %rbx</text>
<text text-anchor="middle" x="89.5" y="-306.8" font-family="Times,serif" font-size="14.00">subq $8, %rsp</text>
<text text-anchor="middle" x="89.5" y="-291.8" font-family="Times,serif" font-size="14.00">movq 0x20bc0b(%rip), %rbp</text>
<text text-anchor="middle" x="89.5" y="-276.8" font-family="Times,serif" font-size="14.00">movq 0x20bbfc(%rip), %rbx</text>
<text text-anchor="middle" x="89.5" y="-261.8" font-family="Times,serif" font-size="14.00">movq $0, 0x20bbf9(%rip)</text>
<text text-anchor="middle" x="89.5" y="-246.8" font-family="Times,serif" font-size="14.00">movq %rdi, 0x20bbea(%rip)</text>
<text text-anchor="middle" x="89.5" y="-231.8" font-family="Times,serif" font-size="14.00">movq %rdx, %rdi</text>
<text text-anchor="middle" x="89.5" y="-216.8" font-family="Times,serif" font-size="14.00">callq *%rsi</text>
<text text-anchor="middle" x="89.5" y="-201.8" font-family="Times,serif" font-size="14.00">_______________________</text>
<text text-anchor="middle" x="89.5" y="-186.8" font-family="Times,serif" font-size="14.00">CALL 0x4000a04810</text>
</g>
<!-- 868 -->
<g id="node2" class="node"><title>868</title>
<polygon fill="none" stroke="black" points="179,-143 0,-143 0,-0 179,-0 179,-143"/>
<text text-anchor="middle" x="89.5" y="-127.8" font-family="Times,serif" font-size="14.00">0x4000a1b4db</text>
<text text-anchor="middle" x="89.5" y="-112.8" font-family="Times,serif" font-size="14.00">_______________________</text>
<text text-anchor="middle" x="89.5" y="-97.8" font-family="Times,serif" font-size="14.00">_______________________</text>
<text text-anchor="middle" x="89.5" y="-82.8" font-family="Times,serif" font-size="14.00">movq %rbp, 0x20bbe6(%rip)</text>
<text text-anchor="middle" x="89.5" y="-67.8" font-family="Times,serif" font-size="14.00">movq %rbx, 0x20bbd7(%rip)</text>
<text text-anchor="middle" x="89.5" y="-52.8" font-family="Times,serif" font-size="14.00">addq $8, %rsp</text>
<text text-anchor="middle" x="89.5" y="-37.8" font-family="Times,serif" font-size="14.00">popq %rbx</text>
<text text-anchor="middle" x="89.5" y="-22.8" font-family="Times,serif" font-size="14.00">popq %rbp</text>
<text text-anchor="middle" x="89.5" y="-7.8" font-family="Times,serif" font-size="14.00">retq </text>
</g>
<!-- 806&#45;&gt;868 -->
<g id="edge1" class="edge"><title>806&#45;&gt;868</title>
<path fill="none" stroke="black" d="M89.5,-178.807C89.5,-170.221 89.5,-161.642 89.5,-153.292"/>
<polygon fill="black" stroke="black" points="93.0001,-153.234 89.5,-143.235 86.0001,-153.235 93.0001,-153.234"/>
</g>
</g>
</svg>
