<?xml version="1.0" encoding="UTF-8" standalone="no"?>
<!DOCTYPE svg PUBLIC "-//W3C//DTD SVG 1.1//EN"
 "http://www.w3.org/Graphics/SVG/1.1/DTD/svg11.dtd">
<!-- Generated by graphviz version 2.38.0 (20140413.2041)
 -->
<!-- Title: %3 Pages: 1 -->
<svg width="390pt" height="838pt"
 viewBox="0.00 0.00 389.50 838.00" xmlns="http://www.w3.org/2000/svg" xmlns:xlink="http://www.w3.org/1999/xlink">
<g id="graph0" class="graph" transform="scale(1 1) rotate(0) translate(4 834)">
<title>%3</title>
<polygon fill="white" stroke="none" points="-4,4 -4,-834 385.5,-834 385.5,4 -4,4"/>
<!-- 104 -->
<g id="node1" class="node"><title>104</title>
<polygon fill="none" stroke="black" points="272,-830 100,-830 100,-642 272,-642 272,-830"/>
<text text-anchor="middle" x="186" y="-814.8" font-family="Times,serif" font-size="14.00">0x4000a1df70</text>
<text text-anchor="middle" x="186" y="-799.8" font-family="Times,serif" font-size="14.00">_______________________</text>
<text text-anchor="middle" x="186" y="-784.8" font-family="Times,serif" font-size="14.00">_______________________</text>
<text text-anchor="middle" x="186" y="-769.8" font-family="Times,serif" font-size="14.00">pxor %xmm0, %xmm0</text>
<text text-anchor="middle" x="186" y="-754.8" font-family="Times,serif" font-size="14.00">pxor %xmm1, %xmm1</text>
<text text-anchor="middle" x="186" y="-739.8" font-family="Times,serif" font-size="14.00">pxor %xmm2, %xmm2</text>
<text text-anchor="middle" x="186" y="-724.8" font-family="Times,serif" font-size="14.00">pxor %xmm3, %xmm3</text>
<text text-anchor="middle" x="186" y="-709.8" font-family="Times,serif" font-size="14.00">movq %rdi, %rax</text>
<text text-anchor="middle" x="186" y="-694.8" font-family="Times,serif" font-size="14.00">movq %rdi, %rcx</text>
<text text-anchor="middle" x="186" y="-679.8" font-family="Times,serif" font-size="14.00">andq $0xfff, %rcx</text>
<text text-anchor="middle" x="186" y="-664.8" font-family="Times,serif" font-size="14.00">cmpq $0xfcf, %rcx</text>
<text text-anchor="middle" x="186" y="-649.8" font-family="Times,serif" font-size="14.00">ja 0x4000a1e000</text>
</g>
<!-- 105 -->
<g id="node2" class="node"><title>105</title>
<polygon fill="none" stroke="black" points="273,-606 99,-606 99,-478 273,-478 273,-606"/>
<text text-anchor="middle" x="186" y="-590.8" font-family="Times,serif" font-size="14.00">0x4000a1df96</text>
<text text-anchor="middle" x="186" y="-575.8" font-family="Times,serif" font-size="14.00">_______________________</text>
<text text-anchor="middle" x="186" y="-560.8" font-family="Times,serif" font-size="14.00">_______________________</text>
<text text-anchor="middle" x="186" y="-545.8" font-family="Times,serif" font-size="14.00">movdqu (%rax), %xmm4</text>
<text text-anchor="middle" x="186" y="-530.8" font-family="Times,serif" font-size="14.00">pcmpeqb %xmm0, %xmm4</text>
<text text-anchor="middle" x="186" y="-515.8" font-family="Times,serif" font-size="14.00">pmovmskb %xmm4, %edx</text>
<text text-anchor="middle" x="186" y="-500.8" font-family="Times,serif" font-size="14.00">testl %edx, %edx</text>
<text text-anchor="middle" x="186" y="-485.8" font-family="Times,serif" font-size="14.00">je 0x4000a1dfaa</text>
</g>
<!-- 104&#45;&gt;105 -->
<g id="edge1" class="edge"><title>104&#45;&gt;105</title>
<path fill="none" stroke="black" d="M186,-641.812C186,-633.186 186,-624.529 186,-616.12"/>
<polygon fill="black" stroke="black" points="189.5,-616.006 186,-606.006 182.5,-616.006 189.5,-616.006"/>
</g>
<!-- 106 -->
<g id="node3" class="node"><title>106</title>
<polygon fill="none" stroke="black" points="172,-322 0,-322 0,-239 172,-239 172,-322"/>
<text text-anchor="middle" x="86" y="-306.8" font-family="Times,serif" font-size="14.00">0x4000a1dfa6</text>
<text text-anchor="middle" x="86" y="-291.8" font-family="Times,serif" font-size="14.00">_______________________</text>
<text text-anchor="middle" x="86" y="-276.8" font-family="Times,serif" font-size="14.00">_______________________</text>
<text text-anchor="middle" x="86" y="-261.8" font-family="Times,serif" font-size="14.00">bsfl %edx, %eax</text>
<text text-anchor="middle" x="86" y="-246.8" font-family="Times,serif" font-size="14.00">retq </text>
</g>
<!-- 105&#45;&gt;106 -->
<g id="edge2" class="edge"><title>105&#45;&gt;106</title>
<path fill="none" stroke="black" d="M161.665,-477.851C144.341,-432.895 121.377,-373.303 105.309,-331.607"/>
<polygon fill="black" stroke="black" points="108.548,-330.277 101.686,-322.205 102.016,-332.794 108.548,-330.277"/>
</g>
<!-- 508 -->
<g id="node4" class="node"><title>508</title>
<polygon fill="none" stroke="black" points="381.5,-442 190.5,-442 190.5,-119 381.5,-119 381.5,-442"/>
<text text-anchor="middle" x="286" y="-426.8" font-family="Times,serif" font-size="14.00">0x4000a1dfaa</text>
<text text-anchor="middle" x="286" y="-411.8" font-family="Times,serif" font-size="14.00">_______________________</text>
<text text-anchor="middle" x="286" y="-396.8" font-family="Times,serif" font-size="14.00">_______________________</text>
<text text-anchor="middle" x="286" y="-381.8" font-family="Times,serif" font-size="14.00">andq $0xfffffff0, %rax</text>
<text text-anchor="middle" x="286" y="-366.8" font-family="Times,serif" font-size="14.00">pcmpeqb 0x10(%rax), %xmm1</text>
<text text-anchor="middle" x="286" y="-351.8" font-family="Times,serif" font-size="14.00">pcmpeqb 0x20(%rax), %xmm2</text>
<text text-anchor="middle" x="286" y="-336.8" font-family="Times,serif" font-size="14.00">pcmpeqb 0x30(%rax), %xmm3</text>
<text text-anchor="middle" x="286" y="-321.8" font-family="Times,serif" font-size="14.00">pmovmskb %xmm1, %edx</text>
<text text-anchor="middle" x="286" y="-306.8" font-family="Times,serif" font-size="14.00">pmovmskb %xmm2, %r8d</text>
<text text-anchor="middle" x="286" y="-291.8" font-family="Times,serif" font-size="14.00">pmovmskb %xmm3, %ecx</text>
<text text-anchor="middle" x="286" y="-276.8" font-family="Times,serif" font-size="14.00">shlq $0x10, %rdx</text>
<text text-anchor="middle" x="286" y="-261.8" font-family="Times,serif" font-size="14.00">shlq $0x10, %rcx</text>
<text text-anchor="middle" x="286" y="-246.8" font-family="Times,serif" font-size="14.00">orq %r8, %rcx</text>
<text text-anchor="middle" x="286" y="-231.8" font-family="Times,serif" font-size="14.00">shlq $0x20, %rcx</text>
<text text-anchor="middle" x="286" y="-216.8" font-family="Times,serif" font-size="14.00">orq %rcx, %rdx</text>
<text text-anchor="middle" x="286" y="-201.8" font-family="Times,serif" font-size="14.00">movq %rdi, %rcx</text>
<text text-anchor="middle" x="286" y="-186.8" font-family="Times,serif" font-size="14.00">xorq %rax, %rcx</text>
<text text-anchor="middle" x="286" y="-171.8" font-family="Times,serif" font-size="14.00">andq $0xffffffc0, %rax</text>
<text text-anchor="middle" x="286" y="-156.8" font-family="Times,serif" font-size="14.00">sarq %cl, %rdx</text>
<text text-anchor="middle" x="286" y="-141.8" font-family="Times,serif" font-size="14.00">testq %rdx, %rdx</text>
<text text-anchor="middle" x="286" y="-126.8" font-family="Times,serif" font-size="14.00">je 0x4000a1e070</text>
</g>
<!-- 105&#45;&gt;508 -->
<g id="edge3" class="edge"><title>105&#45;&gt;508</title>
<path fill="none" stroke="black" d="M210.335,-477.851C213.532,-469.556 216.92,-460.762 220.422,-451.675"/>
<polygon fill="black" stroke="black" points="223.779,-452.696 224.109,-442.107 217.247,-450.179 223.779,-452.696"/>
</g>
<!-- 509 -->
<g id="node5" class="node"><title>509</title>
<polygon fill="none" stroke="black" points="372,-83 200,-83 200,-0 372,-0 372,-83"/>
<text text-anchor="middle" x="286" y="-67.8" font-family="Times,serif" font-size="14.00">0x4000a1dff2</text>
<text text-anchor="middle" x="286" y="-52.8" font-family="Times,serif" font-size="14.00">_______________________</text>
<text text-anchor="middle" x="286" y="-37.8" font-family="Times,serif" font-size="14.00">_______________________</text>
<text text-anchor="middle" x="286" y="-22.8" font-family="Times,serif" font-size="14.00">bsfq %rdx, %rax</text>
<text text-anchor="middle" x="286" y="-7.8" font-family="Times,serif" font-size="14.00">retq </text>
</g>
<!-- 508&#45;&gt;509 -->
<g id="edge4" class="edge"><title>508&#45;&gt;509</title>
<path fill="none" stroke="black" d="M286,-118.793C286,-109.839 286,-101.254 286,-93.2846"/>
<polygon fill="black" stroke="black" points="289.5,-93.1828 286,-83.1828 282.5,-93.1828 289.5,-93.1828"/>
</g>
</g>
</svg>
