<?xml version="1.0" encoding="UTF-8" standalone="no"?>
<!DOCTYPE svg PUBLIC "-//W3C//DTD SVG 1.1//EN"
 "http://www.w3.org/Graphics/SVG/1.1/DTD/svg11.dtd">
<!-- Generated by graphviz version 2.38.0 (20140413.2041)
 -->
<!-- Title: %3 Pages: 1 -->
<svg width="237pt" height="1091pt"
 viewBox="0.00 0.00 237.00 1091.00" xmlns="http://www.w3.org/2000/svg" xmlns:xlink="http://www.w3.org/1999/xlink">
<g id="graph0" class="graph" transform="scale(1 1) rotate(0) translate(4 1087)">
<title>%3</title>
<polygon fill="white" stroke="none" points="-4,4 -4,-1087 233,-1087 233,4 -4,4"/>
<!-- 808 -->
<g id="node1" class="node"><title>808</title>
<polygon fill="none" stroke="black" points="229,-1083 57,-1083 57,-925 229,-925 229,-1083"/>
<text text-anchor="middle" x="143" y="-1067.8" font-family="Times,serif" font-size="14.00">0x4000a14010</text>
<text text-anchor="middle" x="143" y="-1052.8" font-family="Times,serif" font-size="14.00">_______________________</text>
<text text-anchor="middle" x="143" y="-1037.8" font-family="Times,serif" font-size="14.00">_______________________</text>
<text text-anchor="middle" x="143" y="-1022.8" font-family="Times,serif" font-size="14.00">pushq %r13</text>
<text text-anchor="middle" x="143" y="-1007.8" font-family="Times,serif" font-size="14.00">pushq %r12</text>
<text text-anchor="middle" x="143" y="-992.8" font-family="Times,serif" font-size="14.00">pushq %rbp</text>
<text text-anchor="middle" x="143" y="-977.8" font-family="Times,serif" font-size="14.00">pushq %rbx</text>
<text text-anchor="middle" x="143" y="-962.8" font-family="Times,serif" font-size="14.00">subq $8, %rsp</text>
<text text-anchor="middle" x="143" y="-947.8" font-family="Times,serif" font-size="14.00">testq %rdi, %rdi</text>
<text text-anchor="middle" x="143" y="-932.8" font-family="Times,serif" font-size="14.00">je 0x4000a14074</text>
</g>
<!-- 809 -->
<g id="node2" class="node"><title>809</title>
<polygon fill="none" stroke="black" points="229,-889 57,-889 57,-761 229,-761 229,-889"/>
<text text-anchor="middle" x="143" y="-873.8" font-family="Times,serif" font-size="14.00">0x4000a1401f</text>
<text text-anchor="middle" x="143" y="-858.8" font-family="Times,serif" font-size="14.00">_______________________</text>
<text text-anchor="middle" x="143" y="-843.8" font-family="Times,serif" font-size="14.00">_______________________</text>
<text text-anchor="middle" x="143" y="-828.8" font-family="Times,serif" font-size="14.00">movq %rdi, %rbx</text>
<text text-anchor="middle" x="143" y="-813.8" font-family="Times,serif" font-size="14.00">movl %esi, %r12d</text>
<text text-anchor="middle" x="143" y="-798.8" font-family="Times,serif" font-size="14.00">movl %edx, %r13d</text>
<text text-anchor="middle" x="143" y="-783.8" font-family="Times,serif" font-size="14.00">xorl %ebp, %ebp</text>
<text text-anchor="middle" x="143" y="-768.8" font-family="Times,serif" font-size="14.00">jmp 0x4000a1403b</text>
</g>
<!-- 808&#45;&gt;809 -->
<g id="edge1" class="edge"><title>808&#45;&gt;809</title>
<path fill="none" stroke="black" d="M143,-924.85C143,-916.357 143,-907.735 143,-899.302"/>
<polygon fill="black" stroke="black" points="146.5,-899.132 143,-889.132 139.5,-899.132 146.5,-899.132"/>
</g>
<!-- 810 -->
<g id="node3" class="node"><title>810</title>
<polygon fill="none" stroke="black" points="229,-725 57,-725 57,-627 229,-627 229,-725"/>
<text text-anchor="middle" x="143" y="-709.8" font-family="Times,serif" font-size="14.00">0x4000a1403b</text>
<text text-anchor="middle" x="143" y="-694.8" font-family="Times,serif" font-size="14.00">_______________________</text>
<text text-anchor="middle" x="143" y="-679.8" font-family="Times,serif" font-size="14.00">_______________________</text>
<text text-anchor="middle" x="143" y="-664.8" font-family="Times,serif" font-size="14.00">xorl %eax, %eax</text>
<text text-anchor="middle" x="143" y="-649.8" font-family="Times,serif" font-size="14.00">testb $2, 0x315(%rbx)</text>
<text text-anchor="middle" x="143" y="-634.8" font-family="Times,serif" font-size="14.00">jne 0x4000a14030</text>
</g>
<!-- 809&#45;&gt;810 -->
<g id="edge2" class="edge"><title>809&#45;&gt;810</title>
<path fill="none" stroke="black" d="M143,-760.806C143,-752.286 143,-743.578 143,-735.151"/>
<polygon fill="black" stroke="black" points="146.5,-735.044 143,-725.044 139.5,-735.044 146.5,-735.044"/>
</g>
<!-- 811 -->
<g id="node4" class="node"><title>811</title>
<polygon fill="none" stroke="black" points="172,-591 0,-591 0,-418 172,-418 172,-591"/>
<text text-anchor="middle" x="86" y="-575.8" font-family="Times,serif" font-size="14.00">0x4000a14046</text>
<text text-anchor="middle" x="86" y="-560.8" font-family="Times,serif" font-size="14.00">_______________________</text>
<text text-anchor="middle" x="86" y="-545.8" font-family="Times,serif" font-size="14.00">_______________________</text>
<text text-anchor="middle" x="86" y="-530.8" font-family="Times,serif" font-size="14.00">movq %rbx, %rdi</text>
<text text-anchor="middle" x="86" y="-515.8" font-family="Times,serif" font-size="14.00">movl %r13d, %edx</text>
<text text-anchor="middle" x="86" y="-500.8" font-family="Times,serif" font-size="14.00">movl %r12d, %esi</text>
<text text-anchor="middle" x="86" y="-485.8" font-family="Times,serif" font-size="14.00">callq 0x4000a13b70</text>
<text text-anchor="middle" x="86" y="-470.8" font-family="Times,serif" font-size="14.00">_______________________</text>
<text text-anchor="middle" x="86" y="-455.8" font-family="Times,serif" font-size="14.00">LOOP 0x4000a1403b</text>
<text text-anchor="middle" x="86" y="-440.8" font-family="Times,serif" font-size="14.00">_______________________</text>
<text text-anchor="middle" x="86" y="-425.8" font-family="Times,serif" font-size="14.00">CALL 0x4000a13b70</text>
</g>
<!-- 810&#45;&gt;811 -->
<g id="edge3" class="edge"><title>810&#45;&gt;811</title>
<path fill="none" stroke="black" d="M126.819,-626.881C124.063,-618.688 121.117,-609.928 118.117,-601.007"/>
<polygon fill="black" stroke="black" points="121.352,-599.645 114.847,-591.282 114.717,-601.876 121.352,-599.645"/>
</g>
<!-- 845 -->
<g id="node5" class="node"><title>845</title>
<polygon fill="none" stroke="black" points="229,-382 57,-382 57,-194 229,-194 229,-382"/>
<text text-anchor="middle" x="143" y="-366.8" font-family="Times,serif" font-size="14.00">0x4000a14054</text>
<text text-anchor="middle" x="143" y="-351.8" font-family="Times,serif" font-size="14.00">_______________________</text>
<text text-anchor="middle" x="143" y="-336.8" font-family="Times,serif" font-size="14.00">_______________________</text>
<text text-anchor="middle" x="143" y="-321.8" font-family="Times,serif" font-size="14.00">movq 0x18(%rbx), %rbx</text>
<text text-anchor="middle" x="143" y="-306.8" font-family="Times,serif" font-size="14.00">testl %eax, %eax</text>
<text text-anchor="middle" x="143" y="-291.8" font-family="Times,serif" font-size="14.00">setne %al</text>
<text text-anchor="middle" x="143" y="-276.8" font-family="Times,serif" font-size="14.00">movzbl %al, %eax</text>
<text text-anchor="middle" x="143" y="-261.8" font-family="Times,serif" font-size="14.00">orl %eax, %ebp</text>
<text text-anchor="middle" x="143" y="-246.8" font-family="Times,serif" font-size="14.00">testq %rbx, %rbx</text>
<text text-anchor="middle" x="143" y="-231.8" font-family="Times,serif" font-size="14.00">jne 0x4000a1403b</text>
<text text-anchor="middle" x="143" y="-216.8" font-family="Times,serif" font-size="14.00">_______________________</text>
<text text-anchor="middle" x="143" y="-201.8" font-family="Times,serif" font-size="14.00">LOOP 0x4000a1403b</text>
</g>
<!-- 811&#45;&gt;845 -->
<g id="edge4" class="edge"><title>811&#45;&gt;845</title>
<path fill="none" stroke="black" d="M108.774,-417.799C111.027,-409.321 113.329,-400.655 115.623,-392.026"/>
<polygon fill="black" stroke="black" points="119.019,-392.874 118.204,-382.31 112.253,-391.076 119.019,-392.874"/>
</g>
<!-- 845&#45;&gt;810 -->
<g id="edge5" class="edge"><title>845&#45;&gt;810</title>
<path fill="none" stroke="black" d="M173.807,-382.009C176.77,-394.006 179.3,-406.215 181,-418 191.976,-494.101 197.21,-515.839 181,-591 179.092,-599.848 176.173,-608.885 172.782,-617.597"/>
<polygon fill="black" stroke="black" points="169.523,-616.318 168.944,-626.897 175.994,-618.989 169.523,-616.318"/>
</g>
<!-- 865 -->
<g id="node6" class="node"><title>865</title>
<polygon fill="none" stroke="black" points="229,-158 57,-158 57,-0 229,-0 229,-158"/>
<text text-anchor="middle" x="143" y="-142.8" font-family="Times,serif" font-size="14.00">0x4000a14067</text>
<text text-anchor="middle" x="143" y="-127.8" font-family="Times,serif" font-size="14.00">_______________________</text>
<text text-anchor="middle" x="143" y="-112.8" font-family="Times,serif" font-size="14.00">_______________________</text>
<text text-anchor="middle" x="143" y="-97.8" font-family="Times,serif" font-size="14.00">addq $8, %rsp</text>
<text text-anchor="middle" x="143" y="-82.8" font-family="Times,serif" font-size="14.00">movl %ebp, %eax</text>
<text text-anchor="middle" x="143" y="-67.8" font-family="Times,serif" font-size="14.00">popq %rbx</text>
<text text-anchor="middle" x="143" y="-52.8" font-family="Times,serif" font-size="14.00">popq %rbp</text>
<text text-anchor="middle" x="143" y="-37.8" font-family="Times,serif" font-size="14.00">popq %r12</text>
<text text-anchor="middle" x="143" y="-22.8" font-family="Times,serif" font-size="14.00">popq %r13</text>
<text text-anchor="middle" x="143" y="-7.8" font-family="Times,serif" font-size="14.00">retq </text>
</g>
<!-- 845&#45;&gt;865 -->
<g id="edge6" class="edge"><title>845&#45;&gt;865</title>
<path fill="none" stroke="black" d="M143,-193.794C143,-185.326 143,-176.765 143,-168.341"/>
<polygon fill="black" stroke="black" points="146.5,-168.148 143,-158.148 139.5,-168.148 146.5,-168.148"/>
</g>
</g>
</svg>
