<?xml version="1.0" encoding="UTF-8" standalone="no"?>
<!DOCTYPE svg PUBLIC "-//W3C//DTD SVG 1.1//EN"
 "http://www.w3.org/Graphics/SVG/1.1/DTD/svg11.dtd">
<!-- Generated by graphviz version 2.38.0 (20140413.2041)
 -->
<!-- Title: %3 Pages: 1 -->
<svg width="187pt" height="240pt"
 viewBox="0.00 0.00 187.00 240.00" xmlns="http://www.w3.org/2000/svg" xmlns:xlink="http://www.w3.org/1999/xlink">
<g id="graph0" class="graph" transform="scale(1 1) rotate(0) translate(4 236)">
<title>%3</title>
<polygon fill="white" stroke="none" points="-4,4 -4,-236 183,-236 183,4 -4,4"/>
<!-- 630 -->
<g id="node1" class="node"><title>630</title>
<polygon fill="none" stroke="black" points="175.5,-232 3.5,-232 3.5,-149 175.5,-149 175.5,-232"/>
<text text-anchor="middle" x="89.5" y="-216.8" font-family="Times,serif" font-size="14.00">0x4000a14f50</text>
<text text-anchor="middle" x="89.5" y="-201.8" font-family="Times,serif" font-size="14.00">_______________________</text>
<text text-anchor="middle" x="89.5" y="-186.8" font-family="Times,serif" font-size="14.00">_______________________</text>
<text text-anchor="middle" x="89.5" y="-171.8" font-family="Times,serif" font-size="14.00">cmpb $0, 0x212005(%rip)</text>
<text text-anchor="middle" x="89.5" y="-156.8" font-family="Times,serif" font-size="14.00">jne 0x4000a14f70</text>
</g>
<!-- 631 -->
<g id="node2" class="node"><title>631</title>
<polygon fill="none" stroke="black" points="179,-113 0,-113 0,-0 179,-0 179,-113"/>
<text text-anchor="middle" x="89.5" y="-97.8" font-family="Times,serif" font-size="14.00">0x4000a14f59</text>
<text text-anchor="middle" x="89.5" y="-82.8" font-family="Times,serif" font-size="14.00">_______________________</text>
<text text-anchor="middle" x="89.5" y="-67.8" font-family="Times,serif" font-size="14.00">_______________________</text>
<text text-anchor="middle" x="89.5" y="-52.8" font-family="Times,serif" font-size="14.00">movq 0x212000(%rip), %rax</text>
<text text-anchor="middle" x="89.5" y="-37.8" font-family="Times,serif" font-size="14.00">addq $1, %rax</text>
<text text-anchor="middle" x="89.5" y="-22.8" font-family="Times,serif" font-size="14.00">movq %rax, 0x211ff5(%rip)</text>
<text text-anchor="middle" x="89.5" y="-7.8" font-family="Times,serif" font-size="14.00">retq </text>
</g>
<!-- 630&#45;&gt;631 -->
<g id="edge1" class="edge"><title>630&#45;&gt;631</title>
<path fill="none" stroke="black" d="M89.5,-148.819C89.5,-140.761 89.5,-132.109 89.5,-123.458"/>
<polygon fill="black" stroke="black" points="93.0001,-123.339 89.5,-113.339 86.0001,-123.339 93.0001,-123.339"/>
</g>
</g>
</svg>
