<?xml version="1.0" encoding="UTF-8" standalone="no"?>
<!DOCTYPE svg PUBLIC "-//W3C//DTD SVG 1.1//EN"
 "http://www.w3.org/Graphics/SVG/1.1/DTD/svg11.dtd">
<!-- Generated by graphviz version 2.38.0 (20140413.2041)
 -->
<!-- Title: %3 Pages: 1 -->
<svg width="370pt" height="2405pt"
 viewBox="0.00 0.00 370.00 2405.00" xmlns="http://www.w3.org/2000/svg" xmlns:xlink="http://www.w3.org/1999/xlink">
<g id="graph0" class="graph" transform="scale(1 1) rotate(0) translate(4 2401)">
<title>%3</title>
<polygon fill="white" stroke="none" points="-4,4 -4,-2401 366,-2401 366,4 -4,4"/>
<!-- 1682 -->
<g id="node1" class="node"><title>1682</title>
<polygon fill="none" stroke="black" points="305,-2397 133,-2397 133,-2314 305,-2314 305,-2397"/>
<text text-anchor="middle" x="219" y="-2381.8" font-family="Times,serif" font-size="14.00">0x4000a12790</text>
<text text-anchor="middle" x="219" y="-2366.8" font-family="Times,serif" font-size="14.00">_______________________</text>
<text text-anchor="middle" x="219" y="-2351.8" font-family="Times,serif" font-size="14.00">_______________________</text>
<text text-anchor="middle" x="219" y="-2336.8" font-family="Times,serif" font-size="14.00">cmpq $1, %rsi</text>
<text text-anchor="middle" x="219" y="-2321.8" font-family="Times,serif" font-size="14.00">je 0x4000a1294d</text>
</g>
<!-- 1683 -->
<g id="node2" class="node"><title>1683</title>
<polygon fill="none" stroke="black" points="305,-2278 133,-2278 133,-1790 305,-1790 305,-2278"/>
<text text-anchor="middle" x="219" y="-2262.8" font-family="Times,serif" font-size="14.00">0x4000a1279a</text>
<text text-anchor="middle" x="219" y="-2247.8" font-family="Times,serif" font-size="14.00">_______________________</text>
<text text-anchor="middle" x="219" y="-2232.8" font-family="Times,serif" font-size="14.00">_______________________</text>
<text text-anchor="middle" x="219" y="-2217.8" font-family="Times,serif" font-size="14.00">pushq %rbp</text>
<text text-anchor="middle" x="219" y="-2202.8" font-family="Times,serif" font-size="14.00">xorl %eax, %eax</text>
<text text-anchor="middle" x="219" y="-2187.8" font-family="Times,serif" font-size="14.00">movq %rsp, %rbp</text>
<text text-anchor="middle" x="219" y="-2172.8" font-family="Times,serif" font-size="14.00">pushq %r15</text>
<text text-anchor="middle" x="219" y="-2157.8" font-family="Times,serif" font-size="14.00">pushq %r14</text>
<text text-anchor="middle" x="219" y="-2142.8" font-family="Times,serif" font-size="14.00">pushq %r13</text>
<text text-anchor="middle" x="219" y="-2127.8" font-family="Times,serif" font-size="14.00">pushq %r12</text>
<text text-anchor="middle" x="219" y="-2112.8" font-family="Times,serif" font-size="14.00">pushq %rbx</text>
<text text-anchor="middle" x="219" y="-2097.8" font-family="Times,serif" font-size="14.00">subq $0x68, %rsp</text>
<text text-anchor="middle" x="219" y="-2082.8" font-family="Times,serif" font-size="14.00">testq %rcx, %rcx</text>
<text text-anchor="middle" x="219" y="-2067.8" font-family="Times,serif" font-size="14.00">movq %rdx, &#45;0x50(%rbp)</text>
<text text-anchor="middle" x="219" y="-2052.8" font-family="Times,serif" font-size="14.00">leaq (%rsi, %rsi), %rdx</text>
<text text-anchor="middle" x="219" y="-2037.8" font-family="Times,serif" font-size="14.00">sete %al</text>
<text text-anchor="middle" x="219" y="-2022.8" font-family="Times,serif" font-size="14.00">movq %rsp, &#45;0x88(%rbp)</text>
<text text-anchor="middle" x="219" y="-2007.8" font-family="Times,serif" font-size="14.00">movl %eax, %ebx</text>
<text text-anchor="middle" x="219" y="-1992.8" font-family="Times,serif" font-size="14.00">movq %rsi, &#45;0x38(%rbp)</text>
<text text-anchor="middle" x="219" y="-1977.8" font-family="Times,serif" font-size="14.00">movq %rdi, &#45;0x40(%rbp)</text>
<text text-anchor="middle" x="219" y="-1962.8" font-family="Times,serif" font-size="14.00">leaq 0x10(%rdx), %rax</text>
<text text-anchor="middle" x="219" y="-1947.8" font-family="Times,serif" font-size="14.00">movl %ebx, &#45;0x44(%rbp)</text>
<text text-anchor="middle" x="219" y="-1932.8" font-family="Times,serif" font-size="14.00">xorl %esi, %esi</text>
<text text-anchor="middle" x="219" y="-1917.8" font-family="Times,serif" font-size="14.00">movl %ebx, %ebx</text>
<text text-anchor="middle" x="219" y="-1902.8" font-family="Times,serif" font-size="14.00">andq $0xfffffff0, %rax</text>
<text text-anchor="middle" x="219" y="-1887.8" font-family="Times,serif" font-size="14.00">leal 1(%rbx), %r14d</text>
<text text-anchor="middle" x="219" y="-1872.8" font-family="Times,serif" font-size="14.00">subq %rax, %rsp</text>
<text text-anchor="middle" x="219" y="-1857.8" font-family="Times,serif" font-size="14.00">movq %rsp, %rdi</text>
<text text-anchor="middle" x="219" y="-1842.8" font-family="Times,serif" font-size="14.00">movq %rsp, %r15</text>
<text text-anchor="middle" x="219" y="-1827.8" font-family="Times,serif" font-size="14.00">callq 0x4000a1ec80</text>
<text text-anchor="middle" x="219" y="-1812.8" font-family="Times,serif" font-size="14.00">_______________________</text>
<text text-anchor="middle" x="219" y="-1797.8" font-family="Times,serif" font-size="14.00">CALL 0x4000a1ec80</text>
</g>
<!-- 1682&#45;&gt;1683 -->
<g id="edge1" class="edge"><title>1682&#45;&gt;1683</title>
<path fill="none" stroke="black" d="M219,-2313.71C219,-2306.05 219,-2297.55 219,-2288.42"/>
<polygon fill="black" stroke="black" points="222.5,-2288.27 219,-2278.27 215.5,-2288.27 222.5,-2288.27"/>
</g>
<!-- 1684 -->
<g id="node3" class="node"><title>1684</title>
<polygon fill="none" stroke="black" points="305,-1754 133,-1754 133,-1686 305,-1686 305,-1754"/>
<text text-anchor="middle" x="219" y="-1738.8" font-family="Times,serif" font-size="14.00">0x4000a127ed</text>
<text text-anchor="middle" x="219" y="-1723.8" font-family="Times,serif" font-size="14.00">_______________________</text>
<text text-anchor="middle" x="219" y="-1708.8" font-family="Times,serif" font-size="14.00">_______________________</text>
<text text-anchor="middle" x="219" y="-1693.8" font-family="Times,serif" font-size="14.00">jmp 0x4000a1281d</text>
</g>
<!-- 1683&#45;&gt;1684 -->
<g id="edge2" class="edge"><title>1683&#45;&gt;1684</title>
<path fill="none" stroke="black" d="M219,-1789.86C219,-1780.71 219,-1772.15 219,-1764.38"/>
<polygon fill="black" stroke="black" points="222.5,-1764.31 219,-1754.31 215.5,-1764.31 222.5,-1764.31"/>
</g>
<!-- 1685 -->
<g id="node4" class="node"><title>1685</title>
<polygon fill="none" stroke="black" points="305,-1650 133,-1650 133,-1462 305,-1462 305,-1650"/>
<text text-anchor="middle" x="219" y="-1634.8" font-family="Times,serif" font-size="14.00">0x4000a1281d</text>
<text text-anchor="middle" x="219" y="-1619.8" font-family="Times,serif" font-size="14.00">_______________________</text>
<text text-anchor="middle" x="219" y="-1604.8" font-family="Times,serif" font-size="14.00">_______________________</text>
<text text-anchor="middle" x="219" y="-1589.8" font-family="Times,serif" font-size="14.00">leaq (%r15, %rbx, 2), %rcx</text>
<text text-anchor="middle" x="219" y="-1574.8" font-family="Times,serif" font-size="14.00">movzwl (%rcx), %eax</text>
<text text-anchor="middle" x="219" y="-1559.8" font-family="Times,serif" font-size="14.00">leal 1(%rax), %r13d</text>
<text text-anchor="middle" x="219" y="-1544.8" font-family="Times,serif" font-size="14.00">movq &#45;0x40(%rbp), %rax</text>
<text text-anchor="middle" x="219" y="-1529.8" font-family="Times,serif" font-size="14.00">movw %r13w, (%rcx)</text>
<text text-anchor="middle" x="219" y="-1514.8" font-family="Times,serif" font-size="14.00">leaq (%rax, %rbx, 8), %rdi</text>
<text text-anchor="middle" x="219" y="-1499.8" font-family="Times,serif" font-size="14.00">movq (%rdi), %r12</text>
<text text-anchor="middle" x="219" y="-1484.8" font-family="Times,serif" font-size="14.00">cmpq 0x28(%r12), %r12</text>
<text text-anchor="middle" x="219" y="-1469.8" font-family="Times,serif" font-size="14.00">jne 0x4000a127f0</text>
</g>
<!-- 1684&#45;&gt;1685 -->
<g id="edge3" class="edge"><title>1684&#45;&gt;1685</title>
<path fill="none" stroke="black" d="M219,-1685.83C219,-1678.01 219,-1669.26 219,-1660.11"/>
<polygon fill="black" stroke="black" points="222.5,-1660.05 219,-1650.05 215.5,-1660.05 222.5,-1660.05"/>
</g>
<!-- 1686 -->
<g id="node5" class="node"><title>1686</title>
<polygon fill="none" stroke="black" points="248,-1426 76,-1426 76,-1313 248,-1313 248,-1426"/>
<text text-anchor="middle" x="162" y="-1410.8" font-family="Times,serif" font-size="14.00">0x4000a1283e</text>
<text text-anchor="middle" x="162" y="-1395.8" font-family="Times,serif" font-size="14.00">_______________________</text>
<text text-anchor="middle" x="162" y="-1380.8" font-family="Times,serif" font-size="14.00">_______________________</text>
<text text-anchor="middle" x="162" y="-1365.8" font-family="Times,serif" font-size="14.00">cmpl $&#45;1, 0x3dc(%r12)</text>
<text text-anchor="middle" x="162" y="-1350.8" font-family="Times,serif" font-size="14.00">je 0x4000a127f0</text>
<text text-anchor="middle" x="162" y="-1335.8" font-family="Times,serif" font-size="14.00">_______________________</text>
<text text-anchor="middle" x="162" y="-1320.8" font-family="Times,serif" font-size="14.00">LOOP 0x4000a1281d</text>
</g>
<!-- 1685&#45;&gt;1686 -->
<g id="edge4" class="edge"><title>1685&#45;&gt;1686</title>
<path fill="none" stroke="black" d="M190.25,-1461.94C187.545,-1453.19 184.843,-1444.44 182.242,-1436.02"/>
<polygon fill="black" stroke="black" points="185.537,-1434.83 179.241,-1426.31 178.849,-1436.89 185.537,-1434.83"/>
</g>
<!-- 1687 -->
<g id="node6" class="node"><title>1687</title>
<polygon fill="none" stroke="black" points="248,-1277 76,-1277 76,-1134 248,-1134 248,-1277"/>
<text text-anchor="middle" x="162" y="-1261.8" font-family="Times,serif" font-size="14.00">0x4000a12849</text>
<text text-anchor="middle" x="162" y="-1246.8" font-family="Times,serif" font-size="14.00">_______________________</text>
<text text-anchor="middle" x="162" y="-1231.8" font-family="Times,serif" font-size="14.00">_______________________</text>
<text text-anchor="middle" x="162" y="-1216.8" font-family="Times,serif" font-size="14.00">movl &#45;0x38(%rbp), %eax</text>
<text text-anchor="middle" x="162" y="-1201.8" font-family="Times,serif" font-size="14.00">leal &#45;1(%rax), %edx</text>
<text text-anchor="middle" x="162" y="-1186.8" font-family="Times,serif" font-size="14.00">cmpl %edx, &#45;0x44(%rbp)</text>
<text text-anchor="middle" x="162" y="-1171.8" font-family="Times,serif" font-size="14.00">jae 0x4000a127f0</text>
<text text-anchor="middle" x="162" y="-1156.8" font-family="Times,serif" font-size="14.00">_______________________</text>
<text text-anchor="middle" x="162" y="-1141.8" font-family="Times,serif" font-size="14.00">LOOP 0x4000a1281d</text>
</g>
<!-- 1686&#45;&gt;1687 -->
<g id="edge5" class="edge"><title>1686&#45;&gt;1687</title>
<path fill="none" stroke="black" d="M162,-1312.75C162,-1304.53 162,-1295.92 162,-1287.31"/>
<polygon fill="black" stroke="black" points="165.5,-1287.23 162,-1277.23 158.5,-1287.23 165.5,-1287.23"/>
</g>
<!-- 1688 -->
<g id="node7" class="node"><title>1688</title>
<polygon fill="none" stroke="black" points="181,-1098 9,-1098 9,-910 181,-910 181,-1098"/>
<text text-anchor="middle" x="95" y="-1082.8" font-family="Times,serif" font-size="14.00">0x4000a12854</text>
<text text-anchor="middle" x="95" y="-1067.8" font-family="Times,serif" font-size="14.00">_______________________</text>
<text text-anchor="middle" x="95" y="-1052.8" font-family="Times,serif" font-size="14.00">_______________________</text>
<text text-anchor="middle" x="95" y="-1037.8" font-family="Times,serif" font-size="14.00">movq &#45;0x40(%rbp), %rax</text>
<text text-anchor="middle" x="95" y="-1022.8" font-family="Times,serif" font-size="14.00">movl %edx, %r11d</text>
<text text-anchor="middle" x="95" y="-1007.8" font-family="Times,serif" font-size="14.00">leaq (%rax, %r11, 8), %r10</text>
<text text-anchor="middle" x="95" y="-992.8" font-family="Times,serif" font-size="14.00">movq (%r10), %r8</text>
<text text-anchor="middle" x="95" y="-977.8" font-family="Times,serif" font-size="14.00">movq 0x3b8(%r8), %rax</text>
<text text-anchor="middle" x="95" y="-962.8" font-family="Times,serif" font-size="14.00">testq %rax, %rax</text>
<text text-anchor="middle" x="95" y="-947.8" font-family="Times,serif" font-size="14.00">je 0x4000a12950</text>
<text text-anchor="middle" x="95" y="-932.8" font-family="Times,serif" font-size="14.00">_______________________</text>
<text text-anchor="middle" x="95" y="-917.8" font-family="Times,serif" font-size="14.00">LOOP 0x4000a1281d</text>
</g>
<!-- 1687&#45;&gt;1688 -->
<g id="edge6" class="edge"><title>1687&#45;&gt;1688</title>
<path fill="none" stroke="black" d="M138.284,-1133.88C135.437,-1125.4 132.486,-1116.62 129.524,-1107.8"/>
<polygon fill="black" stroke="black" points="132.813,-1106.6 126.311,-1098.23 126.177,-1108.83 132.813,-1106.6"/>
</g>
<!-- 1692 -->
<g id="node8" class="node"><title>1692</title>
<polygon fill="none" stroke="black" points="200,-412 28,-412 28,-254 200,-254 200,-412"/>
<text text-anchor="middle" x="114" y="-396.8" font-family="Times,serif" font-size="14.00">0x4000a127f0</text>
<text text-anchor="middle" x="114" y="-381.8" font-family="Times,serif" font-size="14.00">_______________________</text>
<text text-anchor="middle" x="114" y="-366.8" font-family="Times,serif" font-size="14.00">_______________________</text>
<text text-anchor="middle" x="114" y="-351.8" font-family="Times,serif" font-size="14.00">movl %r14d, %ebx</text>
<text text-anchor="middle" x="114" y="-336.8" font-family="Times,serif" font-size="14.00">cmpq %rbx, &#45;0x38(%rbp)</text>
<text text-anchor="middle" x="114" y="-321.8" font-family="Times,serif" font-size="14.00">movl %r14d, &#45;0x44(%rbp)</text>
<text text-anchor="middle" x="114" y="-306.8" font-family="Times,serif" font-size="14.00">movq %rbx, %r8</text>
<text text-anchor="middle" x="114" y="-291.8" font-family="Times,serif" font-size="14.00">je 0x4000a12938</text>
<text text-anchor="middle" x="114" y="-276.8" font-family="Times,serif" font-size="14.00">_______________________</text>
<text text-anchor="middle" x="114" y="-261.8" font-family="Times,serif" font-size="14.00">LOOP 0x4000a1281d</text>
</g>
<!-- 1687&#45;&gt;1692 -->
<g id="edge7" class="edge"><title>1687&#45;&gt;1692</title>
<path fill="none" stroke="black" d="M182.583,-1133.87C185.467,-1121.98 188.093,-1109.7 190,-1098 210.568,-971.831 209,-938.835 209,-811 209,-811 209,-811 209,-645 209,-557.038 219.506,-530.865 190,-448 186.739,-438.841 182.581,-429.7 177.897,-420.805"/>
<polygon fill="black" stroke="black" points="180.939,-419.074 173.051,-412.001 174.807,-422.449 180.939,-419.074"/>
</g>
<!-- 1689 -->
<g id="node9" class="node"><title>1689</title>
<polygon fill="none" stroke="black" points="181,-874 9,-874 9,-746 181,-746 181,-874"/>
<text text-anchor="middle" x="95" y="-858.8" font-family="Times,serif" font-size="14.00">0x4000a12950</text>
<text text-anchor="middle" x="95" y="-843.8" font-family="Times,serif" font-size="14.00">_______________________</text>
<text text-anchor="middle" x="95" y="-828.8" font-family="Times,serif" font-size="14.00">_______________________</text>
<text text-anchor="middle" x="95" y="-813.8" font-family="Times,serif" font-size="14.00">movq 0x3c0(%r8), %rax</text>
<text text-anchor="middle" x="95" y="-798.8" font-family="Times,serif" font-size="14.00">testq %rax, %rax</text>
<text text-anchor="middle" x="95" y="-783.8" font-family="Times,serif" font-size="14.00">jne 0x4000a12995</text>
<text text-anchor="middle" x="95" y="-768.8" font-family="Times,serif" font-size="14.00">_______________________</text>
<text text-anchor="middle" x="95" y="-753.8" font-family="Times,serif" font-size="14.00">LOOP 0x4000a1281d</text>
</g>
<!-- 1688&#45;&gt;1689 -->
<g id="edge8" class="edge"><title>1688&#45;&gt;1689</title>
<path fill="none" stroke="black" d="M95,-909.812C95,-901.186 95,-892.529 95,-884.12"/>
<polygon fill="black" stroke="black" points="98.5001,-884.006 95,-874.006 91.5001,-884.006 98.5001,-884.006"/>
</g>
<!-- 1693 -->
<g id="node12" class="node"><title>1693</title>
<polygon fill="none" stroke="black" points="362,-218 190,-218 190,-0 362,-0 362,-218"/>
<text text-anchor="middle" x="276" y="-202.8" font-family="Times,serif" font-size="14.00">0x4000a12804</text>
<text text-anchor="middle" x="276" y="-187.8" font-family="Times,serif" font-size="14.00">_______________________</text>
<text text-anchor="middle" x="276" y="-172.8" font-family="Times,serif" font-size="14.00">_______________________</text>
<text text-anchor="middle" x="276" y="-157.8" font-family="Times,serif" font-size="14.00">movq &#45;0x38(%rbp), %rdx</text>
<text text-anchor="middle" x="276" y="-142.8" font-family="Times,serif" font-size="14.00">leaq (%r15, %r8, 2), %rdi</text>
<text text-anchor="middle" x="276" y="-127.8" font-family="Times,serif" font-size="14.00">xorl %esi, %esi</text>
<text text-anchor="middle" x="276" y="-112.8" font-family="Times,serif" font-size="14.00">addl $1, %r14d</text>
<text text-anchor="middle" x="276" y="-97.8" font-family="Times,serif" font-size="14.00">subq %r8, %rdx</text>
<text text-anchor="middle" x="276" y="-82.8" font-family="Times,serif" font-size="14.00">addq %rdx, %rdx</text>
<text text-anchor="middle" x="276" y="-67.8" font-family="Times,serif" font-size="14.00">callq 0x4000a1ec80</text>
<text text-anchor="middle" x="276" y="-52.8" font-family="Times,serif" font-size="14.00">_______________________</text>
<text text-anchor="middle" x="276" y="-37.8" font-family="Times,serif" font-size="14.00">LOOP 0x4000a1281d</text>
<text text-anchor="middle" x="276" y="-22.8" font-family="Times,serif" font-size="14.00">_______________________</text>
<text text-anchor="middle" x="276" y="-7.8" font-family="Times,serif" font-size="14.00">CALL 0x4000a1ec80</text>
</g>
<!-- 1692&#45;&gt;1693 -->
<g id="edge12" class="edge"><title>1692&#45;&gt;1693</title>
<path fill="none" stroke="black" d="M171.115,-253.731C177.597,-244.848 184.303,-235.659 191.046,-226.418"/>
<polygon fill="black" stroke="black" points="193.909,-228.433 196.976,-218.292 188.254,-224.307 193.909,-228.433"/>
</g>
<!-- 1694 -->
<g id="node13" class="node"><title>1694</title>
<polygon fill="none" stroke="black" points="172,-203 0,-203 0,-15 172,-15 172,-203"/>
<text text-anchor="middle" x="86" y="-187.8" font-family="Times,serif" font-size="14.00">0x4000a12938</text>
<text text-anchor="middle" x="86" y="-172.8" font-family="Times,serif" font-size="14.00">_______________________</text>
<text text-anchor="middle" x="86" y="-157.8" font-family="Times,serif" font-size="14.00">_______________________</text>
<text text-anchor="middle" x="86" y="-142.8" font-family="Times,serif" font-size="14.00">movq &#45;0x88(%rbp), %rsp</text>
<text text-anchor="middle" x="86" y="-127.8" font-family="Times,serif" font-size="14.00">leaq &#45;0x28(%rbp), %rsp</text>
<text text-anchor="middle" x="86" y="-112.8" font-family="Times,serif" font-size="14.00">popq %rbx</text>
<text text-anchor="middle" x="86" y="-97.8" font-family="Times,serif" font-size="14.00">popq %r12</text>
<text text-anchor="middle" x="86" y="-82.8" font-family="Times,serif" font-size="14.00">popq %r13</text>
<text text-anchor="middle" x="86" y="-67.8" font-family="Times,serif" font-size="14.00">popq %r14</text>
<text text-anchor="middle" x="86" y="-52.8" font-family="Times,serif" font-size="14.00">popq %r15</text>
<text text-anchor="middle" x="86" y="-37.8" font-family="Times,serif" font-size="14.00">popq %rbp</text>
<text text-anchor="middle" x="86" y="-22.8" font-family="Times,serif" font-size="14.00">retq </text>
</g>
<!-- 1692&#45;&gt;1694 -->
<g id="edge13" class="edge"><title>1692&#45;&gt;1694</title>
<path fill="none" stroke="black" d="M104.128,-253.731C102.485,-240.7 100.758,-227.007 99.0496,-213.465"/>
<polygon fill="black" stroke="black" points="102.473,-212.635 97.7489,-203.152 95.5278,-213.511 102.473,-212.635"/>
</g>
<!-- 1690 -->
<g id="node10" class="node"><title>1690</title>
<polygon fill="none" stroke="black" points="181,-710 9,-710 9,-582 181,-582 181,-710"/>
<text text-anchor="middle" x="95" y="-694.8" font-family="Times,serif" font-size="14.00">0x4000a1295c</text>
<text text-anchor="middle" x="95" y="-679.8" font-family="Times,serif" font-size="14.00">_______________________</text>
<text text-anchor="middle" x="95" y="-664.8" font-family="Times,serif" font-size="14.00">_______________________</text>
<text text-anchor="middle" x="95" y="-649.8" font-family="Times,serif" font-size="14.00">subl $1, %edx</text>
<text text-anchor="middle" x="95" y="-634.8" font-family="Times,serif" font-size="14.00">cmpl %edx, &#45;0x44(%rbp)</text>
<text text-anchor="middle" x="95" y="-619.8" font-family="Times,serif" font-size="14.00">jb 0x4000a12854</text>
<text text-anchor="middle" x="95" y="-604.8" font-family="Times,serif" font-size="14.00">_______________________</text>
<text text-anchor="middle" x="95" y="-589.8" font-family="Times,serif" font-size="14.00">LOOP 0x4000a1281d</text>
</g>
<!-- 1689&#45;&gt;1690 -->
<g id="edge9" class="edge"><title>1689&#45;&gt;1690</title>
<path fill="none" stroke="black" d="M95,-745.903C95,-737.565 95,-728.962 95,-720.47"/>
<polygon fill="black" stroke="black" points="98.5001,-720.192 95,-710.192 91.5001,-720.192 98.5001,-720.192"/>
</g>
<!-- 1691 -->
<g id="node11" class="node"><title>1691</title>
<polygon fill="none" stroke="black" points="181,-546 9,-546 9,-448 181,-448 181,-546"/>
<text text-anchor="middle" x="95" y="-530.8" font-family="Times,serif" font-size="14.00">0x4000a12968</text>
<text text-anchor="middle" x="95" y="-515.8" font-family="Times,serif" font-size="14.00">_______________________</text>
<text text-anchor="middle" x="95" y="-500.8" font-family="Times,serif" font-size="14.00">_______________________</text>
<text text-anchor="middle" x="95" y="-485.8" font-family="Times,serif" font-size="14.00">jmp 0x4000a127f0</text>
<text text-anchor="middle" x="95" y="-470.8" font-family="Times,serif" font-size="14.00">_______________________</text>
<text text-anchor="middle" x="95" y="-455.8" font-family="Times,serif" font-size="14.00">LOOP 0x4000a1281d</text>
</g>
<!-- 1690&#45;&gt;1691 -->
<g id="edge10" class="edge"><title>1690&#45;&gt;1691</title>
<path fill="none" stroke="black" d="M95,-581.806C95,-573.286 95,-564.578 95,-556.151"/>
<polygon fill="black" stroke="black" points="98.5001,-556.044 95,-546.044 91.5001,-556.044 98.5001,-556.044"/>
</g>
<!-- 1691&#45;&gt;1692 -->
<g id="edge11" class="edge"><title>1691&#45;&gt;1692</title>
<path fill="none" stroke="black" d="M100.649,-447.833C101.611,-439.634 102.636,-430.894 103.674,-422.041"/>
<polygon fill="black" stroke="black" points="107.161,-422.36 104.849,-412.02 100.208,-421.545 107.161,-422.36"/>
</g>
<!-- 1693&#45;&gt;1685 -->
<g id="edge14" class="edge"><title>1693&#45;&gt;1685</title>
<path fill="none" stroke="black" d="M276,-218.149C276,-295.534 276,-402.181 276,-496 276,-1206.5 276,-1206.5 276,-1206.5 276,-1304.42 275.148,-1329.78 257,-1426 255.397,-1434.5 253.461,-1443.24 251.324,-1451.98"/>
<polygon fill="black" stroke="black" points="247.892,-1451.28 248.831,-1461.83 254.678,-1452.99 247.892,-1451.28"/>
</g>
</g>
</svg>
